<svg width="83" height="83" viewBox="0 0 83 83" fill="none" xmlns="http://www.w3.org/2000/svg">
<rect width="83" height="83" rx="11" fill="#C5EBAD"/>
<mask id="mask0_361_33530" style="mask-type:alpha" maskUnits="userSpaceOnUse" x="0" y="0" width="83" height="83">
<circle cx="41.5" cy="41.5" r="41.5" fill="#D9D9D9"/>
</mask>
<g mask="url(#mask0_361_33530)">
<path d="M41.254 80.9806C52.588 81.3153 64.2087 77.2937 69.2069 71.1573C74.2046 65.0203 63.4293 66.2499 67.8369 58.6607C71.7937 51.8466 76.2389 46.6405 74.6808 35.0063C72.921 21.8617 62.9719 11.1891 46.7436 10.113C31.5772 9.10726 18.9267 14.8861 18.0462 24.6123C17.0943 35.1229 24.408 36.5369 15.5888 44.0875C9.4617 49.3335 6.07839 53.3983 9.15532 62.6555C13.1486 74.6694 22.0809 80.414 41.254 80.9806Z" fill="#E2F5D6"/>
<path d="M69.3371 64.4676C72.886 67.3094 78.8777 57.9678 74.4065 55.4515C69.9349 52.9356 65.7886 61.6263 69.3371 64.4676Z" fill="#E2F5D6"/>
<path d="M17.9786 37.8372C18.4408 40.9359 11.278 47.003 8.4415 42.2356C5.6048 37.4678 17.3411 33.5604 17.9786 37.8372Z" fill="#E2F5D6"/>
<path d="M11.6493 25.5081C9.6067 27.4838 12.8283 35.6287 15.1673 33.7095C17.5064 31.7899 14.4626 22.7872 11.6493 25.5081Z" fill="#E2F5D6"/>
</g>
<path d="M63.3125 42C63.3125 30.2341 53.7659 20.6875 42 20.6875C30.2341 20.6875 20.6875 30.2341 20.6875 42C20.6875 53.7659 30.2341 63.3125 42 63.3125C53.7659 63.3125 63.3125 53.7659 63.3125 42ZM67.1875 42C67.1875 55.906 55.906 67.1875 42 67.1875C28.094 67.1875 16.8125 55.906 16.8125 42C16.8125 28.094 28.094 16.8125 42 16.8125C55.906 16.8125 67.1875 28.094 67.1875 42Z" fill="#8BD75B"/>
<path d="M41.9754 28.4461C42.2433 28.4437 42.5096 28.4795 42.765 28.5571L43.0173 28.6479L43.2595 28.764C43.4155 28.849 43.5627 28.9496 43.6985 29.0642L43.8952 29.2484L44.0693 29.4502C44.1796 29.5906 44.2747 29.742 44.3544 29.9018L44.4629 30.1465L44.5436 30.4013C44.5893 30.5738 44.6168 30.7504 44.6268 30.9285L44.6294 31.196V31.1985L43.9356 45.9669C43.8866 46.9999 43.0348 47.8133 42.0006 47.8136C41.0954 47.8136 40.3286 47.1906 40.1186 46.3428L40.0656 45.9669L39.3694 31.1985V31.196C39.3533 30.8429 39.4101 30.4903 39.5333 30.1591L39.6368 29.9144C39.7533 29.6774 39.9061 29.4586 40.0883 29.266L40.2801 29.0844C40.48 28.9118 40.7056 28.769 40.9486 28.6631L41.1958 28.5697C41.4472 28.4892 41.7104 28.4461 41.9754 28.4436V28.4461Z" fill="#8BD75B"/>
<path d="M42 55.5515C41.521 55.5515 41.0528 55.4095 40.6545 55.1434C40.2562 54.8772 39.9458 54.499 39.7625 54.0565C39.5792 53.6139 39.5312 53.127 39.6247 52.6572C39.7181 52.1874 39.9488 51.7558 40.2875 51.4171C40.6262 51.0784 41.0577 50.8477 41.5275 50.7543C41.9973 50.6609 42.4843 50.7088 42.9268 50.8921C43.3694 51.0754 43.7476 51.3858 44.0137 51.7841C44.2798 52.1824 44.4219 52.6506 44.4219 53.1296C44.4219 53.772 44.1667 54.388 43.7125 54.8422C43.2583 55.2964 42.6423 55.5515 42 55.5515Z" fill="#8BD75B"/>
</svg>
