<svg width="83" height="83" viewBox="0 0 83 83" fill="none" xmlns="http://www.w3.org/2000/svg">
<rect width="83" height="83" rx="11" fill="#FFB3B4"/>
<mask id="mask0_361_33500" style="mask-type:alpha" maskUnits="userSpaceOnUse" x="0" y="0" width="83" height="83">
<circle cx="41.5" cy="41.5" r="41.5" fill="#D9D9D9"/>
</mask>
<g mask="url(#mask0_361_33500)">
<path d="M43.2929 16.8707C36.1002 12.6906 38.6547 3.78568 45.7223 8.19521C52.7898 12.6039 50.4855 21.0504 43.2929 16.8707Z" fill="#FFCCCD"/>
<path d="M36.1073 10.4655C32.7303 8.68282 30.1627 12.4556 33.6966 14.4505C37.2309 16.4453 40.0009 12.5209 36.1073 10.4655Z" fill="#FFCCCD"/>
<path d="M71.178 24.7302C83.8214 46.6149 78.8027 70.3068 56.8535 76.9843C38.1062 82.687 13.487 83.1288 9.65099 52.4212C8.231 41.0536 7.91065 26.4445 22.0061 19.8697C30.5264 15.8957 36.9643 17.2364 41.547 18.5771C45.1667 19.6358 47.6296 20.6946 49.0471 19.1352C52.2588 15.601 62.5397 9.7779 71.178 24.7302Z" fill="#FFCCCD"/>
</g>
<path d="M60.9631 40.9723C60.8696 39.9231 60.4994 38.9169 59.8899 38.0578L59.5634 37.6401C58.2661 36.1176 57.4188 34.2702 57.1051 32.3057L57.0019 31.4559C56.8896 30.0456 56.2785 28.7207 55.2782 27.7203C54.2781 26.7206 52.9546 26.109 51.545 25.9966H51.5426C49.2642 25.8146 47.1007 24.9198 45.3608 23.4375V23.4351C44.2843 22.5172 42.9151 22.0139 41.5004 22.0138C40.2628 22.0138 39.0602 22.3998 38.0578 23.111L37.6401 23.4351V23.4375C36.1175 24.7348 34.2702 25.5821 32.3057 25.8958L31.4559 25.9966C30.0456 26.1089 28.7207 26.72 27.7203 27.7203C26.8449 28.5958 26.2696 29.7203 26.0638 30.9325L25.9966 31.4559C25.8147 33.7348 24.9202 35.8999 23.4375 37.6401H23.4351C22.5173 38.7166 22.0138 40.0858 22.0138 41.5004C22.0139 42.9151 22.5172 44.2843 23.4351 45.3608H23.4375L23.9656 46.033C25.1325 47.6437 25.8373 49.5491 25.9966 51.5426V51.545L26.0638 52.0684C26.2696 53.2799 26.8455 54.403 27.7203 55.2782C28.5959 56.1537 29.7203 56.7313 30.9325 56.937L31.4559 57.0019L32.3057 57.1051C34.2702 57.4188 36.1176 58.2661 37.6401 59.5634L38.0578 59.8899C39.0601 60.6009 40.2629 60.9871 41.5004 60.9871L42.0286 60.9631C43.2529 60.8539 44.4189 60.3666 45.3608 59.5634L46.033 59.0353C47.6438 57.8682 49.5489 57.1611 51.5426 57.0019H51.545L52.0684 56.937C53.2803 56.7312 54.4028 56.1535 55.2782 55.2782C56.2783 54.278 56.8895 52.955 57.0019 51.545V51.5426L57.1051 50.6952C57.4187 48.7305 58.266 46.8835 59.5634 45.3608L59.8899 44.9431C60.6011 43.9408 60.987 42.7381 60.9871 41.5004L60.9631 40.9723ZM47.1373 34.8457C48.0974 33.8856 49.6535 33.8856 50.6136 34.8457C51.5732 35.8057 51.5735 37.362 50.6136 38.3219L40.7802 48.1552C39.8203 49.1152 38.2641 49.1149 37.304 48.1552L32.3873 43.2386L32.2169 43.0513C31.43 42.0858 31.4875 40.6621 32.3873 39.7623C33.2871 38.8625 34.7108 38.805 35.6763 39.5919L35.8636 39.7623L39.0421 42.9409L47.1373 34.8457ZM65.8917 41.983C65.7845 44.3943 64.8781 46.7078 63.3062 48.5513L63.3037 48.5489C62.5936 49.3826 62.1309 50.395 61.9594 51.4706L61.9041 51.934C61.6992 54.5098 60.5816 56.9272 58.7544 58.7544C57.0412 60.4676 54.8092 61.5557 52.4141 61.8537L51.934 61.9041C50.6868 62.0038 49.5014 62.4924 48.5489 63.3037L48.5513 63.3062C46.7078 64.8781 44.3943 65.7845 41.983 65.8917L41.5004 65.9037C39.0776 65.9037 36.7284 65.0939 34.8241 63.611L34.4495 63.3062C33.4969 62.4946 32.3121 62.0037 31.0645 61.9041V61.9017C28.4893 61.6964 26.0708 60.5811 24.2441 58.7544C22.5314 57.0413 21.4427 54.8089 21.1448 52.4141L21.0968 51.934C20.9971 50.6864 20.5064 49.5016 19.6947 48.5489V48.5513C18.0181 46.5851 17.0973 44.0845 17.0972 41.5004C17.0972 38.9163 18.0181 36.4159 19.6947 34.4495L19.9828 34.0822C20.6219 33.2002 21.0096 32.1563 21.0968 31.0645C21.302 28.4893 22.4173 26.0709 24.2441 24.2441C26.0709 22.4173 28.4893 21.302 31.0645 21.0968L31.5303 21.0415C32.6056 20.8699 33.616 20.4047 34.4495 19.6947L34.8241 19.3899C36.7285 17.9068 39.0775 17.0972 41.5004 17.0972C44.0845 17.0973 46.5851 18.0181 48.5513 19.6947H48.5489C49.5016 20.5064 50.6864 20.9971 51.934 21.0968L52.4141 21.1448C54.8089 21.4427 57.0413 22.5314 58.7544 24.2441C60.5812 26.0709 61.6989 28.4893 61.9041 31.0645L61.9594 31.5303C62.1311 32.6057 62.5961 33.616 63.3062 34.4495L63.611 34.8241C65.0939 36.7284 65.9037 39.0776 65.9037 41.5004L65.8917 41.983Z" fill="#FF666A"/>
</svg>
