<svg width="426" height="426" viewBox="0 0 426 426" fill="none" xmlns="http://www.w3.org/2000/svg">
<g clip-path="url(#clip0_38_74)">
<path d="M341.2 0H84C37.6081 0 0 37.608 0 84V341.2C0 387.592 37.608 425.2 84 425.2H341.2C387.592 425.2 425.2 387.592 425.2 341.2V84C425.2 37.6081 387.592 0 341.2 0Z" fill="#0162EF"/>
<path d="M284.136 192.667L252.483 155.523L308.192 114.434L337.22 136.585L284.136 192.667Z" fill="#FF7401"/>
<path d="M205.69 244.458L206.463 244.685L208.689 245.004C207.649 244.871 206.65 244.685 205.69 244.458Z" fill="white"/>
<path d="M296.504 237.021L272.115 239.154C272.115 239.154 272.075 239.194 272.075 239.247L296.291 237.115L308.579 236.075C309.485 235.982 310.351 235.849 311.164 235.582C310.391 235.769 309.618 235.902 308.805 235.995L296.517 237.035L296.504 237.021ZM225.548 106.611C225.415 106.611 225.321 106.611 225.188 106.651C225.055 106.651 224.962 106.651 224.828 106.691C225.375 106.691 225.828 106.651 226.321 106.691C226.228 106.651 226.188 106.651 226.094 106.651C225.908 106.611 225.735 106.611 225.548 106.611ZM224.135 106.838C224.269 106.798 224.402 106.798 224.548 106.744C223.962 106.744 223.376 106.838 222.829 107.064C223.282 106.971 223.735 106.878 224.149 106.838H224.135ZM221.563 107.517C222.016 107.331 222.429 107.197 222.829 107.064C222.056 107.197 221.337 107.477 220.604 107.97C220.923 107.784 221.243 107.651 221.55 107.517H221.563ZM218.018 109.916C217.338 110.596 216.752 111.409 216.299 112.315C215.979 112.862 215.712 113.408 215.486 114.035L211.181 125.643L206.876 137.291L202.705 148.633C191.589 150.405 181.034 154.977 172.144 162.147C164.068 168.638 157.724 176.834 153.606 186.083L129.256 188.162L116.875 189.255C104.907 190.295 102.814 205.808 114.103 209.926L114.423 210.02C103.134 205.888 105.213 190.388 117.142 189.349L129.523 188.256L153.872 186.123C157.951 176.874 164.308 168.718 172.371 162.227C181.207 155.057 191.829 150.432 202.891 148.673L207.063 137.331L211.328 125.683L215.632 114.075C216.405 111.982 217.538 110.396 218.898 109.183C219.444 108.73 220.03 108.317 220.617 107.957C219.844 108.277 219.124 108.823 218.444 109.503C218.311 109.636 218.178 109.77 218.031 109.916H218.018ZM189.684 308.484L188.591 296.196L187.498 283.721L186.458 271.846C184.059 270.753 181.74 269.527 179.515 268.168C163.282 258.372 151.993 241.686 148.954 222.734L126.004 214.351L148.675 222.694C152.073 244.272 166.227 262.863 186.125 271.846L187.165 283.774L188.257 296.196L189.35 308.524C189.537 310.603 190.123 312.375 191.03 313.828C191.389 314.415 191.803 314.961 192.256 315.454C192.975 316.227 193.842 316.907 194.748 317.4C195.201 317.666 195.694 317.893 196.201 318.08H196.241C196.827 318.306 197.414 318.493 198.053 318.573C198.64 318.706 199.279 318.759 199.919 318.759C200.559 318.759 201.145 318.719 201.772 318.573C196.241 319.386 190.297 315.761 189.67 308.457L189.684 308.484Z" fill="white"/>
<path d="M205.69 244.458L206.463 244.685L208.689 245.005C207.649 244.871 206.65 244.685 205.69 244.458ZM205.69 244.458L206.463 244.685L208.689 245.005C207.649 244.871 206.65 244.685 205.69 244.458ZM205.69 244.458L206.463 244.685L208.689 245.005C207.649 244.871 206.65 244.685 205.69 244.458ZM205.69 244.458L206.463 244.685L208.689 245.005C207.649 244.871 206.65 244.685 205.69 244.458ZM311.564 215.298L299.956 210.993L282.177 204.462L277.006 202.556C276.459 199.158 275.686 195.893 274.607 192.667L274.474 192.801C275.513 195.973 276.286 199.291 276.833 202.636L282.004 204.542L299.783 211.073L311.338 215.378C319.721 218.416 320.774 227.706 315.922 232.743C321 227.799 320.001 218.376 311.564 215.284V215.298ZM250.711 265.263C245.22 269.168 239.196 272.206 232.892 274.285C239.289 272.246 245.406 269.168 250.977 265.169C260.186 258.412 267.437 249.483 272.061 239.234H271.875C267.25 249.523 260 258.506 250.697 265.263H250.711ZM236.157 116.82L237.25 129.148L238.289 141.569L238.876 148.46L239.289 153.498C242.554 154.95 245.686 156.723 248.631 158.709L248.765 158.615C245.859 156.67 242.727 154.937 239.475 153.498L239.022 148.46L238.476 141.609L237.383 129.188L236.29 116.807C236.037 113.608 234.664 111.143 232.772 109.49C234.064 110.756 235.171 112.395 235.757 114.448C235.944 115.221 236.077 115.994 236.17 116.807L236.157 116.82ZM232.718 109.423C232.532 109.29 232.398 109.157 232.265 109.01C232.452 109.144 232.598 109.33 232.772 109.49C232.745 109.463 232.732 109.437 232.718 109.423ZM218.604 287.986L214.3 299.728L210.035 311.296C208.995 314.148 207.223 316.147 205.144 317.413C207.369 316.241 209.222 314.188 210.355 311.203L214.619 299.634L218.924 287.933L223.056 276.644C222.963 276.644 222.829 276.684 222.736 276.684L218.604 287.973V287.986ZM208.675 245.005C207.636 244.871 206.636 244.685 205.677 244.458L206.45 244.685L208.675 245.005ZM205.69 244.458L206.463 244.685L208.689 245.005C207.649 244.871 206.65 244.685 205.69 244.458ZM205.69 244.458L206.463 244.685L208.689 245.005C207.649 244.871 206.65 244.685 205.69 244.458ZM205.69 244.458L206.463 244.685L208.689 245.005C207.649 244.871 206.65 244.685 205.69 244.458ZM205.69 244.458L206.463 244.685L208.689 245.005C207.649 244.871 206.65 244.685 205.69 244.458ZM205.69 244.458L206.463 244.685L208.689 245.005C207.649 244.871 206.65 244.685 205.69 244.458ZM205.69 244.458L206.463 244.685L208.689 245.005C207.649 244.871 206.65 244.685 205.69 244.458Z" fill="white"/>
<path d="M233.758 56.9659C135.867 43.9049 57.0075 96.7753 44.5862 190.228C32.1116 283.628 94.3247 355.317 192.216 368.378C290.067 381.439 368.966 328.568 381.427 235.116C393.848 141.703 331.595 70.0269 233.744 56.9659H233.758ZM269.755 146.74L300.222 129.508C321.266 117.633 333.275 133.36 316.322 150.552L291.653 175.488L281.537 185.684C276.592 172.982 268.249 161.974 257.374 153.764L269.755 146.74ZM315.922 232.757C315.656 233.023 315.376 233.303 315.056 233.57C314.696 233.836 314.283 234.116 313.883 234.382C313.563 234.569 313.243 234.742 312.937 234.876C312.39 235.195 311.804 235.422 311.164 235.555C310.351 235.822 309.485 235.968 308.579 236.048L296.291 237.088L272.074 239.22C267.45 249.469 260.2 258.399 250.99 265.156C245.419 269.141 239.289 272.233 232.905 274.272C231.998 274.538 231.039 274.818 230.133 275.085C228.906 275.445 227.68 275.765 226.454 275.991C225.321 276.218 224.188 276.444 223.056 276.631L218.924 287.919L214.619 299.621L210.354 311.189C209.222 314.188 207.356 316.227 205.143 317.4C204.824 317.533 204.504 317.72 204.197 317.853C203.837 317.986 203.424 318.12 203.064 318.266C202.651 318.399 202.198 318.533 201.798 318.586C201.158 318.719 200.572 318.773 199.946 318.773C199.319 318.773 198.68 318.733 198.08 318.586C197.44 318.493 196.854 318.32 196.267 318.093H196.227C195.734 317.906 195.228 317.68 194.775 317.413C193.868 316.92 193.002 316.24 192.282 315.467C191.829 314.974 191.416 314.428 191.056 313.841C190.15 312.389 189.563 310.616 189.377 308.537L188.284 296.209L187.191 283.788L186.152 271.86C166.24 262.877 152.1 244.285 148.701 222.708L126.031 214.364L125.711 214.271L114.423 210.06L114.103 209.966C102.814 205.835 104.893 190.335 116.875 189.295L129.256 188.202L153.606 186.123C157.737 176.874 164.081 168.664 172.144 162.187C181.034 155.017 191.603 150.445 202.704 148.673L206.876 137.331L211.181 125.683L215.486 114.075C215.712 113.435 215.979 112.902 216.299 112.355C216.752 111.449 217.338 110.636 218.018 109.956C218.151 109.823 218.284 109.69 218.431 109.543C219.111 108.863 219.83 108.317 220.603 107.997C221.323 107.504 222.056 107.224 222.829 107.091C223.375 106.864 223.962 106.771 224.548 106.771C224.642 106.731 224.735 106.678 224.815 106.731C224.948 106.691 225.041 106.691 225.175 106.691C225.308 106.651 225.401 106.651 225.535 106.651C225.721 106.651 225.894 106.651 226.081 106.691C226.174 106.691 226.214 106.691 226.308 106.731H226.401C226.494 106.691 226.587 106.691 226.667 106.731C226.987 106.731 227.347 106.771 227.667 106.864C228.213 106.958 228.707 107.091 229.253 107.317C229.293 107.317 229.346 107.357 229.386 107.357C229.933 107.584 230.479 107.811 230.972 108.13C231.239 108.264 231.519 108.45 231.745 108.624C231.878 108.717 232.065 108.89 232.238 109.037C234.411 110.663 235.997 113.342 236.277 116.833L237.369 129.215L238.462 141.636L239.009 148.486L239.462 153.524C242.727 154.977 245.859 156.696 248.751 158.642L248.618 158.735C260.813 166.812 269.929 178.913 274.46 192.827L274.593 192.694C275.686 195.919 276.446 199.184 276.992 202.583L282.163 204.489L299.942 211.019L311.551 215.324C319.987 218.403 320.987 227.839 315.909 232.783L315.922 232.757Z" fill="white"/>
<path d="M247.858 212.672C247.858 215.444 247.538 218.163 246.912 220.748C243.287 236.115 229.506 247.55 212.993 247.55C193.722 247.55 178.128 231.957 178.128 212.685C178.128 193.414 193.722 177.82 212.993 177.82C213.58 177.82 214.166 177.82 214.766 177.86H214.806C233.211 178.807 247.858 194 247.858 212.685V212.672Z" fill="white"/>
</g>
<defs>
<clipPath id="clip0_38_74">
<rect width="425.2" height="425.2" fill="white"/>
</clipPath>
</defs>
</svg>
