<svg width="426" height="426" viewBox="0 0 426 426" fill="none" xmlns="http://www.w3.org/2000/svg">
<g clip-path="url(#clip0_38_74)">
<path d="M425.2 0H0V425.2H425.2V0Z" fill="#0162EF"/>
<path d="M265.97 197.59L242.22 169.72L284.02 138.89L305.8 155.51L265.97 197.59Z" fill="#FF7401"/>
<path d="M207.11 236.45L207.69 236.62L209.36 236.86C208.58 236.76 207.83 236.62 207.11 236.45Z" fill="white"/>
<path d="M275.25 230.87L256.95 232.47C256.95 232.47 256.92 232.5 256.92 232.54L275.09 230.94L284.31 230.16C284.99 230.09 285.64 229.99 286.25 229.79C285.67 229.93 285.09 230.03 284.48 230.1L275.26 230.88L275.25 230.87ZM222.01 133.02C221.91 133.02 221.84 133.02 221.74 133.05C221.64 133.05 221.57 133.05 221.47 133.08C221.88 133.08 222.22 133.05 222.59 133.08C222.52 133.05 222.49 133.05 222.42 133.05C222.28 133.02 222.15 133.02 222.01 133.02ZM220.95 133.19C221.05 133.16 221.15 133.16 221.26 133.12C220.82 133.12 220.38 133.19 219.97 133.36C220.31 133.29 220.65 133.22 220.96 133.19H220.95ZM219.02 133.7C219.36 133.56 219.67 133.46 219.97 133.36C219.39 133.46 218.85 133.67 218.3 134.04C218.54 133.9 218.78 133.8 219.01 133.7H219.02ZM216.36 135.5C215.85 136.01 215.41 136.62 215.07 137.3C214.83 137.71 214.63 138.12 214.46 138.59L211.23 147.3L208 156.04L204.87 164.55C196.53 165.88 188.61 169.31 181.94 174.69C175.88 179.56 171.12 185.71 168.03 192.65L149.76 194.21L140.47 195.03C131.49 195.81 129.92 207.45 138.39 210.54L138.63 210.61C130.16 207.51 131.72 195.88 140.67 195.1L149.96 194.28L168.23 192.68C171.29 185.74 176.06 179.62 182.11 174.75C188.74 169.37 196.71 165.9 205.01 164.58L208.14 156.07L211.34 147.33L214.57 138.62C215.15 137.05 216 135.86 217.02 134.95C217.43 134.61 217.87 134.3 218.31 134.03C217.73 134.27 217.19 134.68 216.68 135.19C216.58 135.29 216.48 135.39 216.37 135.5H216.36ZM195.1 284.49L194.28 275.27L193.46 265.91L192.68 257C190.88 256.18 189.14 255.26 187.47 254.24C175.29 246.89 166.82 234.37 164.54 220.15L147.32 213.86L164.33 220.12C166.88 236.31 177.5 250.26 192.43 257L193.21 265.95L194.03 275.27L194.85 284.52C194.99 286.08 195.43 287.41 196.11 288.5C196.38 288.94 196.69 289.35 197.03 289.72C197.57 290.3 198.22 290.81 198.9 291.18C199.24 291.38 199.61 291.55 199.99 291.69H200.02C200.46 291.86 200.9 292 201.38 292.06C201.82 292.16 202.3 292.2 202.78 292.2C203.26 292.2 203.7 292.17 204.17 292.06C200.02 292.67 195.56 289.95 195.09 284.47L195.1 284.49Z" fill="white"/>
<path d="M207.11 236.45L207.69 236.62L209.36 236.86C208.58 236.76 207.83 236.62 207.11 236.45ZM207.11 236.45L207.69 236.62L209.36 236.86C208.58 236.76 207.83 236.62 207.11 236.45ZM207.11 236.45L207.69 236.62L209.36 236.86C208.58 236.76 207.83 236.62 207.11 236.45ZM207.11 236.45L207.69 236.62L209.36 236.86C208.58 236.76 207.83 236.62 207.11 236.45ZM286.55 214.57L277.84 211.34L264.5 206.44L260.62 205.01C260.21 202.46 259.63 200.01 258.82 197.59L258.72 197.69C259.5 200.07 260.08 202.56 260.49 205.07L264.37 206.5L277.71 211.4L286.38 214.63C292.67 216.91 293.46 223.88 289.82 227.66C293.63 223.95 292.88 216.88 286.55 214.56V214.57ZM240.89 252.06C236.77 254.99 232.25 257.27 227.52 258.83C232.32 257.3 236.91 254.99 241.09 251.99C248 246.92 253.44 240.22 256.91 232.53H256.77C253.3 240.25 247.86 246.99 240.88 252.06H240.89ZM229.97 140.68L230.79 149.93L231.57 159.25L232.01 164.42L232.32 168.2C234.77 169.29 237.12 170.62 239.33 172.11L239.43 172.04C237.25 170.58 234.9 169.28 232.46 168.2L232.12 164.42L231.71 159.28L230.89 149.96L230.07 140.67C229.88 138.27 228.85 136.42 227.43 135.18C228.4 136.13 229.23 137.36 229.67 138.9C229.81 139.48 229.91 140.06 229.98 140.67L229.97 140.68ZM227.39 135.13C227.25 135.03 227.15 134.93 227.05 134.82C227.19 134.92 227.3 135.06 227.43 135.18C227.41 135.16 227.4 135.14 227.39 135.13ZM216.8 269.11L213.57 277.92L210.37 286.6C209.59 288.74 208.26 290.24 206.7 291.19C208.37 290.31 209.76 288.77 210.61 286.53L213.81 277.85L217.04 269.07L220.14 260.6C220.07 260.6 219.97 260.63 219.9 260.63L216.8 269.1V269.11ZM209.35 236.86C208.57 236.76 207.82 236.62 207.1 236.45L207.68 236.62L209.35 236.86ZM207.11 236.45L207.69 236.62L209.36 236.86C208.58 236.76 207.83 236.62 207.11 236.45ZM207.11 236.45L207.69 236.62L209.36 236.86C208.58 236.76 207.83 236.62 207.11 236.45ZM207.11 236.45L207.69 236.62L209.36 236.86C208.58 236.76 207.83 236.62 207.11 236.45ZM207.11 236.45L207.69 236.62L209.36 236.86C208.58 236.76 207.83 236.62 207.11 236.45ZM207.11 236.45L207.69 236.62L209.36 236.86C208.58 236.76 207.83 236.62 207.11 236.45ZM207.11 236.45L207.69 236.62L209.36 236.86C208.58 236.76 207.83 236.62 207.11 236.45Z" fill="white"/>
<path d="M228.17 95.77C154.72 85.97 95.5502 125.64 86.2302 195.76C76.8702 265.84 123.55 319.63 197 329.43C270.42 339.23 329.62 299.56 338.97 229.44C348.29 159.35 301.58 105.57 228.16 95.77H228.17ZM255.18 163.13L278.04 150.2C293.83 141.29 302.84 153.09 290.12 165.99L271.61 184.7L264.02 192.35C260.31 182.82 254.05 174.56 245.89 168.4L255.18 163.13ZM289.82 227.67C289.62 227.87 289.41 228.08 289.17 228.28C288.9 228.48 288.59 228.69 288.29 228.89C288.05 229.03 287.81 229.16 287.58 229.26C287.17 229.5 286.73 229.67 286.25 229.77C285.64 229.97 284.99 230.08 284.31 230.14L275.09 230.92L256.92 232.52C253.45 240.21 248.01 246.91 241.1 251.98C236.92 254.97 232.32 257.29 227.53 258.82C226.85 259.02 226.13 259.23 225.45 259.43C224.53 259.7 223.61 259.94 222.69 260.11C221.84 260.28 220.99 260.45 220.14 260.59L217.04 269.06L213.81 277.84L210.61 286.52C209.76 288.77 208.36 290.3 206.7 291.18C206.46 291.28 206.22 291.42 205.99 291.52C205.72 291.62 205.41 291.72 205.14 291.83C204.83 291.93 204.49 292.03 204.19 292.07C203.71 292.17 203.27 292.21 202.8 292.21C202.33 292.21 201.85 292.18 201.4 292.07C200.92 292 200.48 291.87 200.04 291.7H200.01C199.64 291.56 199.26 291.39 198.92 291.19C198.24 290.82 197.59 290.31 197.05 289.73C196.71 289.36 196.4 288.95 196.13 288.51C195.45 287.42 195.01 286.09 194.87 284.53L194.05 275.28L193.23 265.96L192.45 257.01C177.51 250.27 166.9 236.32 164.35 220.13L147.34 213.87L147.1 213.8L138.63 210.64L138.39 210.57C129.92 207.47 131.48 195.84 140.47 195.06L149.76 194.24L168.03 192.68C171.13 185.74 175.89 179.58 181.94 174.72C188.61 169.34 196.54 165.91 204.87 164.58L208 156.07L211.23 147.33L214.46 138.62C214.63 138.14 214.83 137.74 215.07 137.33C215.41 136.65 215.85 136.04 216.36 135.53C216.46 135.43 216.56 135.33 216.67 135.22C217.18 134.71 217.72 134.3 218.3 134.06C218.84 133.69 219.39 133.48 219.97 133.38C220.38 133.21 220.82 133.14 221.26 133.14C221.33 133.11 221.4 133.07 221.46 133.11C221.56 133.08 221.63 133.08 221.73 133.08C221.83 133.05 221.9 133.05 222 133.05C222.14 133.05 222.27 133.05 222.41 133.08C222.48 133.08 222.51 133.08 222.58 133.11H222.65C222.72 133.08 222.79 133.08 222.85 133.11C223.09 133.11 223.36 133.14 223.6 133.21C224.01 133.28 224.38 133.38 224.79 133.55C224.82 133.55 224.86 133.58 224.89 133.58C225.3 133.75 225.71 133.92 226.08 134.16C226.28 134.26 226.49 134.4 226.66 134.53C226.76 134.6 226.9 134.73 227.03 134.84C228.66 136.06 229.85 138.07 230.06 140.69L230.88 149.98L231.7 159.3L232.11 164.44L232.45 168.22C234.9 169.31 237.25 170.6 239.42 172.06L239.32 172.13C248.47 178.19 255.31 187.27 258.71 197.71L258.81 197.61C259.63 200.03 260.2 202.48 260.61 205.03L264.49 206.46L277.83 211.36L286.54 214.59C292.87 216.9 293.62 223.98 289.81 227.69L289.82 227.67Z" fill="white"/>
<path d="M238.75 212.6C238.75 214.68 238.51 216.72 238.04 218.66C235.32 230.19 224.98 238.77 212.59 238.77C198.13 238.77 186.43 227.07 186.43 212.61C186.43 198.15 198.13 186.45 212.59 186.45C213.03 186.45 213.47 186.45 213.92 186.48H213.95C227.76 187.19 238.75 198.59 238.75 212.61V212.6Z" fill="white"/>
</g>
<defs>
<clipPath id="clip0_38_74">
<rect width="425.2" height="425.2" fill="white"/>
</clipPath>
</defs>
</svg>
