<svg width="426" height="426" viewBox="0 0 426 426" fill="none" xmlns="http://www.w3.org/2000/svg">
<g clip-path="url(#clip0_32_60)">
<path d="M332.312 0.329956H93.3485C41.9758 0.329956 0.330078 41.9757 0.330078 93.3484V332.312C0.330078 383.684 41.9758 425.33 93.3485 425.33H332.312C383.684 425.33 425.33 383.684 425.33 332.312V93.3484C425.33 41.9757 383.684 0.329956 332.312 0.329956Z" fill="#0162EF"/>
<path d="M340.296 215.217L383.214 209.834C382.104 131.797 327.895 73.9734 246.753 59.2627L235.642 93.4077C231.728 105.464 215.293 103.89 213.718 91.3233L209.264 55.6937C126.803 54.809 62.6372 101.355 46.8018 177.773L87.9798 191.164C100.036 195.078 98.4617 211.513 85.8954 213.088L43.1729 218.441C45.1073 295.624 99.2415 352.712 179.993 367.198L190.505 334.897C194.419 322.841 210.854 324.415 212.428 336.982L216.657 370.692C298.683 371.726 362.64 325.9 379.12 250.472L338.212 237.156C326.11 233.227 327.685 216.792 340.296 215.232V215.217ZM324.236 148.187L295.549 185.091L266.383 222.64L265.543 223.72C263.054 236.226 256.321 247.278 246.199 255.181C235.357 263.713 221.816 267.687 208.125 266.382C178.823 263.593 157.245 237.471 160.049 208.169C161.368 194.388 167.816 181.927 178.223 172.989C187.956 164.397 200.642 159.748 213.613 159.868L242.945 144.933L256.83 137.855L298.293 116.771C319.272 106.109 338.692 129.622 324.266 148.202L324.236 148.187Z" fill="white"/>
<path d="M324.236 148.187L295.55 185.091L266.383 222.64L265.544 223.72C265.903 221.95 266.158 220.136 266.338 218.291C269.128 188.99 247.594 162.882 218.262 160.078C216.703 159.928 215.188 159.838 213.614 159.868L242.945 144.933L256.831 137.855L298.294 116.771C319.273 106.109 338.692 129.622 324.266 148.202L324.236 148.187Z" fill="#FF7401"/>
<path d="M245.689 216.312C244.804 225.609 240.111 233.572 233.333 238.88C226.945 243.904 218.742 246.543 210.089 245.718C192.14 244.009 178.974 228.069 180.683 210.119C181.508 201.421 185.647 193.863 191.78 188.63C198.243 182.917 206.985 179.828 216.283 180.712C234.232 182.422 247.399 198.317 245.689 216.312Z" fill="white"/>
</g>
<defs>
<clipPath id="clip0_32_60">
<rect width="425.2" height="425.2" fill="white"/>
</clipPath>
</defs>
</svg>
