<svg width="425" height="171" viewBox="0 0 425 171" fill="none" xmlns="http://www.w3.org/2000/svg">
<path d="M105.765 138.456L45.0645 134.766C43.7945 134.686 42.8245 133.596 42.9045 132.326L48.8645 35.1658C48.9445 33.8858 50.0545 32.9158 51.3345 33.0058L72.8545 34.5258C74.1145 34.6158 75.0745 35.7058 74.9945 36.9658L70.5845 111.306C70.5045 112.586 71.4845 113.676 72.7645 113.746L107.165 115.626C108.445 115.696 109.425 116.796 109.345 118.076L108.215 136.316C108.135 137.586 107.045 138.556 105.775 138.476L105.765 138.456Z" fill="#FF7401"/>
<path d="M126.794 35.9558C134.124 36.0958 139.964 41.8858 140.274 49.1358C140.594 56.7258 134.144 63.1258 126.544 63.0658C119.074 63.0058 113.174 57.2058 113.174 49.5758C113.174 41.9458 119.274 35.9458 126.804 35.9458L126.794 35.9558ZM119.434 135.296L116.004 73.7658C115.934 72.4858 116.914 71.3958 118.184 71.3358L138.134 70.2958C139.404 70.2258 140.484 71.2058 140.554 72.4758L143.984 133.896C144.054 135.166 143.084 136.256 141.814 136.326L121.864 137.476C120.594 137.546 119.494 136.576 119.424 135.296H119.434Z" fill="#FF7401"/>
<path d="M198.484 94.0257C198.894 90.7557 198.384 89.1858 197.714 87.6858L197.524 87.3258C196.224 85.3058 194.004 84.0857 191.244 83.6657C188.124 83.2357 185.144 84.5157 183.294 86.5057C182.304 87.6457 181.594 89.4858 181.164 92.6058L176.484 129.216C176.324 130.476 175.164 131.376 173.904 131.216L154.204 128.686C152.944 128.526 152.044 127.366 152.214 126.106L160.004 65.1058C160.164 63.8358 161.324 62.9458 162.594 63.1058L180.814 65.5157C181.984 65.6657 182.844 66.6758 182.814 67.8558L182.724 71.8858H182.864C188.114 67.4858 196.354 65.7857 204.304 66.7757C209.984 67.4857 215.514 69.8957 219.214 74.0157C222.624 78.1357 224.464 83.6658 223.334 92.4658L217.944 134.606C217.784 135.866 216.624 136.766 215.364 136.606L195.664 134.076C194.404 133.916 193.504 132.756 193.674 131.496L198.494 94.0357L198.484 94.0257Z" fill="#FF7401"/>
<path d="M236.435 136.156L232.505 39.1257C232.455 37.8557 233.445 36.7758 234.715 36.7258L254.665 35.9158C255.935 35.8658 257.015 36.8557 257.065 38.1257L259.145 90.3858C259.225 92.5258 261.925 93.4057 263.255 91.7357L279.465 71.4257C279.885 70.9057 280.505 70.5858 281.175 70.5558L298.685 69.8258C300.695 69.7458 301.845 72.0957 300.535 73.6257L280.255 97.3558C279.525 98.2158 279.515 99.4758 280.245 100.336L306.885 131.986C308.125 133.456 307.125 135.706 305.205 135.776L283.255 136.556C282.535 136.586 281.845 136.266 281.385 135.706L264.335 114.836C262.935 113.116 260.155 114.176 260.245 116.386L261.005 135.136C261.055 136.406 260.065 137.486 258.795 137.536L238.845 138.346C237.575 138.396 236.495 137.406 236.445 136.136L236.435 136.156Z" fill="#FF7401"/>
<path d="M373.375 103.596L383.045 102.386C382.815 84.7658 370.565 71.7358 352.295 68.4158L349.785 76.1358C348.905 78.8358 345.195 78.4858 344.835 75.6458L343.825 67.6358C325.225 67.4058 310.765 77.9258 307.215 95.1658L316.495 98.1658C319.195 99.0758 318.845 102.756 316.005 103.116L306.365 104.326C306.825 121.756 319.035 134.616 337.245 137.876L339.595 130.576C340.475 127.876 344.185 128.226 344.545 131.066L345.485 138.656C363.985 138.886 378.415 128.556 382.135 111.556L372.915 108.556C370.175 107.646 370.535 103.966 373.375 103.606V103.596ZM369.755 88.4858L363.305 96.7958L356.725 105.266L356.525 105.526C355.975 108.326 354.445 110.836 352.155 112.596C349.715 114.516 346.645 115.426 343.555 115.136C336.945 114.516 332.085 108.626 332.705 102.006C333.035 98.9158 334.465 96.0758 336.805 94.0558C339.025 92.1358 341.885 91.0958 344.785 91.1258L351.395 87.7358L354.525 86.1358L363.875 81.3758C368.635 78.9658 372.995 84.2758 369.735 88.4758L369.755 88.4858Z" fill="#FF7401"/>
<path d="M352.045 103.846C351.845 105.946 350.785 107.736 349.255 108.936C347.815 110.066 345.965 110.666 344.015 110.476C339.965 110.086 336.995 106.496 337.385 102.446C337.575 100.486 338.505 98.7858 339.885 97.6058C341.345 96.3158 343.314 95.6158 345.404 95.8158C349.454 96.2058 352.425 99.7858 352.035 103.846H352.045Z" fill="#FF7401"/>
</svg>
