<svg width="260" height="60" viewBox="0 0 260 60" fill="none" xmlns="http://www.w3.org/2000/svg">
<path d="M6.20943 56.8827L0 56.5005L0.59503 46.8604L3.08072 47.0324L2.63925 54.5133L6.35339 54.7139L6.21903 56.8827H6.20943Z" fill="#190C00"/>
<path d="M8.4075 49.1725C8.4075 50.6248 7.54374 51.5802 5.98899 51.6375L5.9506 50.4241C6.88153 50.319 7.08308 49.7553 7.08308 49.2012V49.0961L5.88342 49.1343L5.80664 46.8318L8.33072 46.7362L8.4075 49.1725Z" fill="#190C00"/>
<path d="M9.25195 56.2235L9.54947 49.956L11.8912 50.0611L11.5937 56.3285L9.25195 56.2235ZM10.8067 46.698C11.5265 46.7076 12.0927 47.2904 12.0927 48.0069C12.0927 48.7235 11.5073 49.2681 10.7971 49.2681C10.0869 49.2681 9.51108 48.7044 9.51108 47.9878C9.52068 47.2713 10.0965 46.698 10.8067 46.698Z" fill="#190C00"/>
<path d="M17.0354 52.526C17.0258 52.2012 16.9586 52.0579 16.8434 51.9337C16.7091 51.7712 16.4787 51.6757 16.2388 51.6757C15.9701 51.6757 15.6821 51.7808 15.519 52.0292C15.3942 52.1916 15.3942 52.4496 15.3942 52.5356V52.6693L15.567 56.3954L13.2252 56.5005L12.9277 50.233L15.1063 50.1375L15.1831 50.7203H15.2215C15.6438 50.2235 16.354 49.8891 17.1121 49.8891C17.7648 49.8891 18.2638 50.0229 18.6381 50.319C19.0316 50.6439 19.2715 51.1216 19.3099 51.9719L19.5115 56.2043L17.1889 56.3094L17.0162 52.5165L17.0354 52.526Z" fill="#190C00"/>
<path d="M20.3745 53.319C20.3745 51.7235 21.2958 50.1853 23.1193 50.1853C23.6952 50.1853 24.2806 50.3763 24.7989 50.7681H24.8276L24.6261 46.8987L26.9678 46.7745L27.4573 56.405L25.2787 56.5101L25.2019 55.975H25.1731C24.7125 56.4432 24.0695 56.768 23.2441 56.768C21.5454 56.768 20.3937 55.4496 20.3937 53.3285L20.3745 53.319ZM25.0004 53.5292C25.0004 52.87 24.7413 51.8477 23.8487 51.8477C23.0426 51.8477 22.7258 52.5165 22.7258 53.3285C22.7258 54.1884 23.033 55.0387 23.8775 55.0387C24.7221 55.0387 25.0004 54.3795 25.0004 53.5292Z" fill="#190C00"/>
<path d="M29.3962 47.1566C30.116 47.1662 30.6822 47.749 30.6822 48.4655C30.6822 49.1821 30.1064 49.7267 29.3866 49.7267C28.6668 49.7267 28.1006 49.1725 28.1006 48.4464C28.1006 47.7203 28.686 47.1566 29.3962 47.1566ZM28.7052 56.7871L28.3501 50.5197L30.6918 50.3954L31.0469 56.6534L28.7052 56.7871Z" fill="#190C00"/>
<path d="M34.8374 56.7011C33.6665 56.7011 32.3421 56.2139 31.4976 55.3158L32.6204 54.1311C33.0523 54.5897 33.8873 55.1916 34.5111 55.1916C34.8374 55.1916 35.0198 55.0292 35.0198 54.819C35.0198 54.6757 34.9142 54.5324 34.7318 54.4464C34.5399 54.3413 34.3383 54.2553 34.204 54.1884L33.8297 54.0164C33.4938 53.8636 33.2347 53.7203 33.0331 53.5865C32.4381 53.1948 32.131 52.784 32.131 52.163C32.131 50.9018 33.2155 50.1088 34.6263 50.1088C35.9219 50.1088 37.1024 50.7298 37.6398 51.3986L36.5553 52.5165C36.1522 52.077 35.4324 51.561 34.8566 51.561C34.5591 51.561 34.3575 51.6948 34.3575 51.9146C34.3575 52.1152 34.5975 52.2681 34.8278 52.3827C35.0581 52.5069 35.3173 52.612 35.6148 52.7553L35.9699 52.9273C36.373 53.1279 36.9008 53.4528 37.1599 53.9114C37.2943 54.1406 37.3711 54.3795 37.3711 54.7043C37.3711 55.9273 36.2002 56.7107 34.8278 56.7107L34.8374 56.7011Z" fill="#190C00"/>
<path d="M42.2474 56.4145C41.6428 56.3476 41.0574 56.0801 40.6159 55.612H40.5871L40.1936 58.8699L37.8711 58.5833L38.9556 49.5643L41.115 49.8222V50.4241L41.1246 50.4337C41.7004 49.9942 42.4202 49.8127 43.0824 49.8795C44.5316 50.0515 45.7121 51.3031 45.4625 53.5005C45.2034 55.6789 43.735 56.6056 42.2474 56.4145ZM43.1112 53.1948C43.236 52.2489 42.9097 51.5706 42.1803 51.4751C41.4509 51.3986 40.9806 51.9814 40.8654 52.9368C40.7407 53.8731 41.067 54.5897 41.7964 54.6852C42.5162 54.7617 42.996 54.1502 43.1112 53.1948Z" fill="#190C00"/>
<path d="M49.7133 54.5993C50.1068 54.5993 50.5482 54.4368 50.9513 53.9018L52.4677 54.7521C51.8726 55.7362 50.7786 56.1948 49.6749 56.1948C47.8802 56.1948 46.1719 55.0005 46.1719 52.9273C46.1719 51.0738 47.5059 49.5834 49.5117 49.5834C51.5175 49.5834 52.9379 50.9018 52.9379 53.0037C52.9379 53.1757 52.9283 53.3572 52.8804 53.8063L48.4656 53.3381C48.4752 54.0547 48.9551 54.6184 49.7133 54.6184V54.5993ZM49.6557 51.1789C49.2046 51.1789 48.7727 51.4751 48.6192 52.1056L50.6826 52.3254C50.625 51.5324 50.2411 51.1789 49.6557 51.1789Z" fill="#190C00"/>
<path d="M57.9958 52.526C57.9862 52.2012 57.919 52.0579 57.8039 51.9337C57.6695 51.7712 57.4392 51.6757 57.1992 51.6757C56.9305 51.6757 56.6426 51.7808 56.4794 52.0292C56.3547 52.1916 56.3547 52.4496 56.3547 52.5356V52.6693L56.5274 56.3954L54.1857 56.5005L53.8882 50.233L56.0668 50.1375L56.1435 50.7203H56.1819C56.6042 50.2235 57.3144 49.8891 58.0726 49.8891C58.7252 49.8891 59.2243 50.0229 59.5986 50.319C59.992 50.6439 60.232 51.1216 60.2704 51.9719L60.4719 56.2043L58.1494 56.3094L57.9766 52.5165L57.9958 52.526Z" fill="#190C00"/>
<path d="M64.3018 56.7011C63.1309 56.7011 61.8065 56.2139 60.9619 55.3158L62.0848 54.1311C62.5167 54.5897 63.3516 55.1916 63.9755 55.1916C64.3018 55.1916 64.4841 55.0292 64.4841 54.819C64.4841 54.6757 64.3785 54.5324 64.1962 54.4464C64.0042 54.3413 63.8027 54.2553 63.6683 54.1884L63.294 54.0164C62.9581 53.8636 62.699 53.7203 62.4975 53.5865C61.9024 53.1948 61.5953 52.784 61.5953 52.163C61.5953 50.9018 62.6798 50.1088 64.0906 50.1088C65.3863 50.1088 66.5667 50.7298 67.1042 51.3986L66.0197 52.5165C65.6166 52.077 64.8968 51.561 64.321 51.561C64.0234 51.561 63.8219 51.6948 63.8219 51.9146C63.8219 52.1152 64.0618 52.2681 64.2922 52.3827C64.5225 52.5069 64.7816 52.612 65.0791 52.7553L65.4342 52.9273C65.8373 53.1279 66.3652 53.4528 66.6243 53.9114C66.7587 54.1406 66.8354 54.3795 66.8354 54.7043C66.8354 55.9273 65.6646 56.7107 64.2922 56.7107L64.3018 56.7011Z" fill="#190C00"/>
<path d="M71.5286 52.8986V52.7935C71.471 52.4018 71.3558 52.1725 71.1639 52.0292C70.972 51.8954 70.732 51.8381 70.4249 51.8668C69.9834 51.905 69.3884 52.1247 68.6398 52.5642L67.8528 51.1502C68.8222 50.5197 69.8203 50.2235 70.7128 50.1279C71.7973 50.0324 72.7091 50.3286 73.2561 50.9783C73.4193 51.1884 73.5632 51.4368 73.6496 51.7617C73.7168 51.9337 73.7552 52.2489 73.7839 52.5165L74.1391 56.2808L71.9413 56.4814L71.8741 56.0419C71.4038 56.5101 70.8184 56.7585 70.2234 56.8062C69.0717 56.9113 67.9488 56.3381 67.8336 54.9623C67.7281 53.8445 68.563 52.8604 70.0314 52.7267C70.5305 52.6884 71.0583 52.7362 71.5286 52.8986ZM70.7512 53.9591C70.3193 53.9973 69.9546 54.2649 69.993 54.6948C70.0314 55.1343 70.4345 55.3254 70.8568 55.2871C71.2887 55.2489 71.7205 54.9814 71.6822 54.5324C71.6438 54.1024 71.1735 53.9305 70.7512 53.9591Z" fill="#190C00"/>
<path d="M79.1291 56.491C78.4765 56.4623 77.8431 56.2043 77.3632 55.698H77.3345L77.2577 56.2521L75.0791 56.1566L75.5206 46.5165L77.8431 46.6216L77.6704 50.4814H77.6992C78.2366 50.0802 78.87 49.8891 79.4842 49.9177C80.943 49.9846 82.2387 51.1311 82.1331 53.3286C82.0371 55.5164 80.6359 56.5578 79.1387 56.491H79.1291ZM79.7626 53.2235C79.8201 52.2681 79.4363 51.6088 78.7069 51.5706C77.9775 51.5419 77.5456 52.1725 77.5072 53.1184C77.4496 54.0738 77.8335 54.7426 78.5629 54.7712C79.2923 54.8094 79.7242 54.1789 79.7626 53.2235Z" fill="#190C00"/>
<path d="M82.7865 56.5865L83.4487 46.9751L85.7712 47.1184L85.1186 56.7489L82.7769 56.5865H82.7865Z" fill="#190C00"/>
<path d="M89.9364 54.5993C90.3299 54.5993 90.7714 54.4368 91.1745 53.9018L92.6908 54.7521C92.0958 55.7362 91.0017 56.1948 89.898 56.1948C88.1033 56.1948 86.395 55.0005 86.395 52.9273C86.395 51.0738 87.729 49.5834 89.7349 49.5834C91.7407 49.5834 93.1611 50.9018 93.1611 53.0037C93.1611 53.1757 93.1515 53.3572 93.1035 53.8063L88.6888 53.3381C88.6984 54.0547 89.1782 54.6184 89.9364 54.6184V54.5993ZM89.8788 51.1789C89.4278 51.1789 88.9959 51.4751 88.8423 52.1056L90.9057 52.3254C90.8482 51.5324 90.4643 51.1789 89.8788 51.1789Z" fill="#190C00"/>
<path d="M98.0259 53.319C98.0259 51.7235 98.9472 50.1853 100.771 50.1853C101.347 50.1853 101.932 50.3763 102.45 50.7681H102.479L102.277 46.8987L104.619 46.7745L105.109 56.405L102.93 56.5101L102.853 55.975H102.825C102.364 56.4432 101.721 56.768 100.895 56.768C99.1967 56.768 98.0451 55.4496 98.0451 53.3285L98.0259 53.319ZM102.661 53.5292C102.661 52.87 102.402 51.8477 101.51 51.8477C100.704 51.8477 100.387 52.5165 100.387 53.3285C100.387 54.1884 100.694 55.0387 101.538 55.0387C102.383 55.0387 102.661 54.3795 102.661 53.5292Z" fill="#190C00"/>
<path d="M110.848 54.3222L112.48 54.8763C112.029 56.0706 110.829 56.7489 109.572 56.854C107.739 56.9973 106.069 55.9368 105.896 53.8254C105.752 51.9719 107.019 50.4528 109.034 50.2904C111.213 50.0993 112.518 51.5515 112.691 53.5674V53.854L108.276 54.2171C108.382 54.8381 108.909 55.3158 109.572 55.268C110.004 55.2298 110.493 55.0101 110.838 54.3222H110.848ZM109.159 51.8668C108.669 51.905 108.257 52.2967 108.199 52.9942L110.263 52.8317C110.071 52.0483 109.629 51.819 109.159 51.8668Z" fill="#190C00"/>
<path d="M116.396 56.7011C115.225 56.7011 113.9 56.2139 113.056 55.3158L114.179 54.1311C114.61 54.5897 115.445 55.1916 116.069 55.1916C116.396 55.1916 116.578 55.0292 116.578 54.819C116.578 54.6757 116.472 54.5324 116.29 54.4464C116.098 54.3413 115.896 54.2553 115.762 54.1884L115.388 54.0164C115.052 53.8636 114.793 53.7203 114.591 53.5865C113.996 53.1948 113.689 52.784 113.689 52.163C113.689 50.9018 114.774 50.1088 116.184 50.1088C117.48 50.1088 118.66 50.7298 119.198 51.3986L118.113 52.5165C117.71 52.077 116.991 51.561 116.415 51.561C116.117 51.561 115.916 51.6948 115.916 51.9146C115.916 52.1152 116.156 52.2681 116.386 52.3827C116.616 52.5069 116.875 52.612 117.173 52.7553L117.528 52.9273C117.931 53.1279 118.459 53.4528 118.718 53.9114C118.852 54.1406 118.929 54.3795 118.929 54.7043C118.929 55.9273 117.758 56.7107 116.386 56.7107L116.396 56.7011Z" fill="#190C00"/>
<path d="M126.587 56.3285C125.666 56.3285 124.706 56.061 123.958 55.5069L124.841 54.1311C125.378 54.5324 126.098 54.8285 126.664 54.8285C127.058 54.8285 127.355 54.6948 127.355 54.4273C127.355 54.1598 127.087 54.0642 126.424 53.8922L126.002 53.7872C125.647 53.7107 125.378 53.6152 125.138 53.5005C124.476 53.233 123.948 52.7458 123.948 51.9432C123.948 50.491 125.407 49.7076 126.827 49.7076C127.912 49.7076 128.776 50.0802 129.256 50.491L128.392 51.7808C127.931 51.4464 127.403 51.1789 126.789 51.1789C126.453 51.1789 126.117 51.2744 126.117 51.5706C126.127 51.7999 126.415 51.9241 126.683 52.0005C126.943 52.077 127.211 52.1343 127.509 52.2203L127.902 52.3158C128.92 52.5547 129.659 53.1375 129.659 54.1598C129.659 55.4496 128.296 56.3381 126.607 56.3381L126.587 56.3285Z" fill="#190C00"/>
<path d="M133.584 49.87C135.648 49.6598 137.27 50.7967 137.49 52.7744C137.711 54.733 136.358 56.2043 134.275 56.4145C132.212 56.6438 130.59 55.4878 130.369 53.5196C130.148 51.5419 131.502 50.0802 133.584 49.8604V49.87ZM135.053 53.0324C134.947 52.077 134.486 51.4846 133.757 51.5515C133.028 51.6279 132.692 52.3158 132.797 53.2712C132.893 54.2171 133.364 54.819 134.093 54.733C134.822 54.6566 135.158 53.9687 135.053 53.0228V53.0324Z" fill="#190C00"/>
<path d="M142.807 52.268C142.587 52.2012 142.308 52.1247 141.944 52.1247C141.473 52.1247 141.157 52.3158 141.003 52.5833C140.878 52.8031 140.83 53.0419 140.83 53.3477C140.83 53.405 140.83 53.4528 140.84 53.8445L140.917 56.5101L138.575 56.5769L138.374 50.3286L140.552 50.2521L140.629 50.9878H140.638C141.109 50.3859 141.694 50.0324 142.366 50.0324C142.625 50.0324 142.875 50.0897 143.163 50.1853L142.798 52.2872L142.807 52.268Z" fill="#190C00"/>
<path d="M148.182 52.2681L146.953 52.1439L146.521 56.6247L144.18 56.405L144.602 51.9241L143.709 51.8477L143.882 50.0897L144.765 50.1662L144.967 48.1502L147.308 48.37L147.116 50.3859L148.345 50.5101L148.182 52.2681Z" fill="#190C00"/>
<path d="M149.036 56.2235L149.334 49.956L151.675 50.0611L151.378 56.3285L149.036 56.2235ZM150.591 46.698C151.311 46.7076 151.877 47.2904 151.877 48.0069C151.877 48.7235 151.291 49.2681 150.581 49.2681C149.871 49.2681 149.295 48.7044 149.295 47.9878C149.305 47.2713 149.881 46.698 150.591 46.698Z" fill="#190C00"/>
<path d="M157.511 54.3222L159.142 54.8763C158.701 56.0706 157.491 56.7489 156.234 56.854C154.401 56.9973 152.731 55.9368 152.558 53.8254C152.415 51.9719 153.681 50.4528 155.697 50.2904C157.875 50.0993 159.181 51.5515 159.353 53.5674V53.854L154.939 54.2171C155.044 54.8381 155.572 55.3158 156.234 55.268C156.666 55.2298 157.156 55.0101 157.501 54.3222H157.511ZM155.822 51.8668C155.332 51.905 154.919 52.2967 154.862 52.9942L156.925 52.8317C156.733 52.0483 156.292 51.819 155.822 51.8668Z" fill="#190C00"/>
<path d="M163.057 56.7011C161.886 56.7011 160.561 56.2139 159.717 55.3158L160.84 54.1311C161.272 54.5897 162.107 55.1916 162.73 55.1916C163.057 55.1916 163.239 55.0292 163.239 54.819C163.239 54.6757 163.133 54.5324 162.951 54.4464C162.759 54.3413 162.558 54.2553 162.423 54.1884L162.049 54.0164C161.713 53.8636 161.454 53.7203 161.252 53.5865C160.657 53.1948 160.35 52.784 160.35 52.163C160.35 50.9018 161.435 50.1088 162.845 50.1088C164.141 50.1088 165.322 50.7298 165.859 51.3986L164.775 52.5165C164.371 52.077 163.652 51.561 163.076 51.561C162.778 51.561 162.577 51.6948 162.577 51.9146C162.577 52.1152 162.817 52.2681 163.047 52.3827C163.277 52.5069 163.537 52.612 163.834 52.7553L164.189 52.9273C164.592 53.1279 165.12 53.4528 165.379 53.9114C165.514 54.1406 165.59 54.3795 165.59 54.7043C165.59 55.9273 164.419 56.7107 163.047 56.7107L163.057 56.7011Z" fill="#190C00"/>
<path d="M174.958 56.4145C174.401 56.4145 173.806 56.2426 173.336 55.8795H173.307L173.471 59.1566L171.129 59.2616L170.707 50.1757L172.885 50.0802L172.962 50.6821H172.991C173.49 50.1566 174.162 49.8222 174.958 49.8222C176.522 49.8222 177.77 51.112 177.77 53.2617C177.77 55.2967 176.513 56.405 174.949 56.405L174.958 56.4145ZM175.419 53.2521C175.419 52.1725 174.968 51.5611 174.286 51.5611C173.528 51.5611 173.154 52.163 173.154 53.0228C173.154 54.1215 173.615 54.7712 174.306 54.7712C175.092 54.7712 175.428 54.0547 175.428 53.2521H175.419Z" fill="#190C00"/>
<path d="M181.733 49.87C183.797 49.6598 185.419 50.7967 185.639 52.7744C185.86 54.733 184.507 56.2043 182.424 56.4145C180.361 56.6438 178.739 55.4878 178.518 53.5196C178.297 51.5419 179.651 50.0802 181.733 49.8604V49.87ZM183.202 53.0324C183.096 52.077 182.635 51.4846 181.906 51.5515C181.177 51.6279 180.841 52.3158 180.946 53.2712C181.042 54.2171 181.512 54.819 182.242 54.733C182.971 54.6566 183.307 53.9687 183.202 53.0228V53.0324Z" fill="#190C00"/>
<path d="M186.82 49.87L189.162 50.0324L188.922 53.2617C188.893 53.5578 188.884 53.8445 188.884 53.9591C188.884 54.3986 189.258 54.7234 189.709 54.7234C190.218 54.7234 190.496 54.3222 190.515 53.9305L190.784 50.1566L193.126 50.3286L192.857 53.8827C192.78 54.9145 192.3 55.6406 191.629 56.061C191.129 56.3667 190.506 56.5292 189.882 56.5292C188.941 56.5292 187.982 56.2999 187.329 55.7266C186.82 55.2585 186.542 54.6088 186.542 53.7394C186.542 53.6438 186.542 53.5483 186.552 53.4432L186.82 49.8795V49.87Z" fill="#190C00"/>
<path d="M198.614 52.4687C198.279 52.3254 197.943 52.2394 197.693 52.2107C197.492 52.2012 197.319 52.2203 197.136 52.2872C197.002 52.3445 196.849 52.4305 196.762 52.5738C196.589 52.7935 196.522 53.0706 196.493 53.4719L196.263 56.4527L193.921 56.2617L194.42 50.0037L196.58 50.1757V50.9114C197.204 50.2808 197.866 50.1184 198.375 50.1566C198.701 50.1662 198.979 50.2904 199.2 50.3859L198.605 52.44L198.614 52.4687Z" fill="#190C00"/>
<path d="M203.558 56.5865L204.221 46.9751L206.543 47.1184L205.891 56.7489L203.549 56.5865H203.558Z" fill="#190C00"/>
<path d="M210.708 54.5993C211.102 54.5993 211.543 54.4368 211.946 53.9018L213.463 54.7521C212.868 55.7362 211.774 56.1948 210.67 56.1948C208.875 56.1948 207.167 55.0005 207.167 52.9273C207.167 51.0738 208.501 49.5834 210.507 49.5834C212.513 49.5834 213.933 50.9018 213.933 53.0037C213.933 53.1757 213.923 53.3572 213.875 53.8063L209.461 53.3381C209.47 54.0547 209.95 54.6184 210.708 54.6184V54.5993ZM210.651 51.1789C210.2 51.1789 209.768 51.4751 209.614 52.1056L211.678 52.3254C211.62 51.5324 211.236 51.1789 210.651 51.1789Z" fill="#190C00"/>
<path d="M217.407 56.3285C216.486 56.3285 215.526 56.061 214.778 55.5069L215.661 54.1311C216.198 54.5324 216.918 54.8285 217.484 54.8285C217.878 54.8285 218.175 54.6948 218.175 54.4273C218.175 54.1598 217.906 54.0642 217.244 53.8922L216.822 53.7872C216.467 53.7107 216.198 53.6152 215.958 53.5005C215.296 53.233 214.768 52.7458 214.768 51.9432C214.768 50.491 216.227 49.7076 217.647 49.7076C218.732 49.7076 219.595 50.0802 220.075 50.491L219.212 51.7808C218.751 51.4464 218.223 51.1789 217.609 51.1789C217.273 51.1789 216.937 51.2744 216.937 51.5706C216.947 51.7999 217.235 51.9241 217.503 52.0005C217.762 52.077 218.031 52.1343 218.329 52.2203L218.722 52.3158C219.739 52.5547 220.478 53.1375 220.478 54.1598C220.478 55.4496 219.116 56.3381 217.427 56.3381L217.407 56.3285Z" fill="#190C00"/>
<path d="M229.174 56.4145C228.569 56.3476 227.984 56.0801 227.542 55.612H227.513L227.12 58.8699L224.797 58.5833L225.882 49.5643L228.041 49.8222V50.4241L228.051 50.4337C228.627 49.9942 229.346 49.8127 230.009 49.8795C231.458 50.0515 232.638 51.3031 232.389 53.5005C232.13 55.6789 230.661 56.6056 229.174 56.4145ZM230.037 53.1948C230.162 52.2489 229.836 51.5706 229.107 51.4751C228.377 51.3986 227.907 51.9814 227.792 52.9368C227.667 53.8731 227.993 54.5897 228.723 54.6852C229.442 54.7617 229.922 54.1502 230.037 53.1948Z" fill="#190C00"/>
<path d="M236.649 54.5993C237.043 54.5993 237.484 54.4368 237.887 53.9018L239.404 54.7521C238.809 55.7362 237.715 56.1948 236.611 56.1948C234.816 56.1948 233.108 55.0005 233.108 52.9273C233.108 51.0738 234.442 49.5834 236.448 49.5834C238.454 49.5834 239.874 50.9018 239.874 53.0037C239.874 53.1757 239.864 53.3572 239.816 53.8063L235.402 53.3381C235.411 54.0547 235.891 54.6184 236.649 54.6184V54.5993ZM236.592 51.1789C236.141 51.1789 235.709 51.4751 235.555 52.1056L237.619 52.3254C237.561 51.5324 237.177 51.1789 236.592 51.1789Z" fill="#190C00"/>
<path d="M244.942 52.2681L243.713 52.1439L243.281 56.6247L240.94 56.405L241.362 51.9241L240.469 51.8477L240.642 50.0897L241.525 50.1662L241.726 48.1502L244.068 48.37L243.876 50.3859L245.105 50.5101L244.942 52.2681Z" fill="#190C00"/>
<path d="M245.786 56.2235L246.083 49.956L248.425 50.0611L248.127 56.3285L245.786 56.2235ZM247.34 46.698C248.06 46.7076 248.626 47.2904 248.626 48.0069C248.626 48.7235 248.041 49.2681 247.331 49.2681C246.621 49.2681 246.045 48.7044 246.045 47.9878C246.054 47.2713 246.63 46.698 247.34 46.698Z" fill="#190C00"/>
<path d="M253.599 51.5706L252.351 51.6279L252.553 56.1375L250.201 56.2426L250 51.733L249.107 51.7712L249.04 50.0133L249.933 49.9751L249.837 47.9401L252.188 47.8445L252.265 49.8795L253.503 49.8127L253.58 51.5706H253.599Z" fill="#190C00"/>
<path d="M257.198 56.7011C256.027 56.7011 254.702 56.2139 253.858 55.3158L254.981 54.1311C255.413 54.5897 256.248 55.1916 256.871 55.1916C257.198 55.1916 257.38 55.0292 257.38 54.819C257.38 54.6757 257.275 54.5324 257.092 54.4464C256.9 54.3413 256.699 54.2553 256.564 54.1884L256.19 54.0164C255.854 53.8636 255.595 53.7203 255.393 53.5865C254.798 53.1948 254.491 52.784 254.491 52.163C254.491 50.9018 255.576 50.1088 256.987 50.1088C258.282 50.1088 259.463 50.7298 260 51.3986L258.916 52.5165C258.513 52.077 257.793 51.561 257.217 51.561C256.919 51.561 256.718 51.6948 256.718 51.9146C256.718 52.1152 256.958 52.2681 257.188 52.3827C257.418 52.5069 257.678 52.612 257.975 52.7553L258.33 52.9273C258.733 53.1279 259.261 53.4528 259.52 53.9114C259.655 54.1406 259.731 54.3795 259.731 54.7043C259.731 55.9273 258.561 56.7107 257.188 56.7107L257.198 56.7011Z" fill="#190C00"/>
<path d="M22.9182 38.4422L0.791028 37.0971C0.32807 37.0679 -0.0255277 36.6706 0.003635 36.2076L2.17626 0.789505C2.20542 0.322902 2.61005 -0.0306975 3.07666 0.00211059L10.9214 0.556204C11.3807 0.589012 11.7307 0.986355 11.7015 1.44567L10.0939 28.5451C10.0648 29.0117 10.422 29.4091 10.8886 29.4346L23.4286 30.1199C23.8952 30.1454 24.2524 30.5464 24.2233 31.013L23.8114 37.6621C23.7822 38.1251 23.3848 38.4787 22.9219 38.4495L22.9182 38.4422Z" fill="#190C00"/>
<path d="M30.5846 1.07749C33.2566 1.12852 35.3855 3.23918 35.4985 5.88205C35.6151 8.64886 33.2639 10.9819 30.4934 10.96C27.7704 10.9381 25.6196 8.82384 25.6196 6.04245C25.6196 3.26105 27.8433 1.07384 30.5882 1.07384L30.5846 1.07749ZM27.9016 37.2903L26.6513 14.8605C26.6257 14.3939 26.983 13.9966 27.4459 13.9747L34.7184 13.5956C35.1814 13.5701 35.575 13.9273 35.6006 14.3903L36.8509 36.78C36.8764 37.2429 36.5228 37.6403 36.0599 37.6658L28.7874 38.085C28.3245 38.1105 27.9235 37.7569 27.898 37.2903H27.9016Z" fill="#190C00"/>
<path d="M56.7178 22.246C56.8672 21.0539 56.6813 20.4816 56.4371 19.9348L56.3678 19.8036C55.8939 19.0672 55.0847 18.6225 54.0785 18.4694C52.9412 18.3127 51.8549 18.7793 51.1805 19.5047C50.8196 19.9202 50.5608 20.591 50.404 21.7283L48.698 35.0739C48.6397 35.5332 48.2168 35.8613 47.7575 35.803L40.5762 34.8807C40.1169 34.8224 39.7888 34.3995 39.8508 33.9402L42.6905 11.7036C42.7488 11.2407 43.1717 10.9163 43.6346 10.9746L50.2765 11.8531C50.703 11.9078 51.0165 12.276 51.0055 12.7061L50.9727 14.1752H51.0238C52.9376 12.5712 55.9413 11.9515 58.8394 12.3124C60.9099 12.5712 62.9258 13.4498 64.2746 14.9516C65.5176 16.4535 66.1884 18.4694 65.7764 21.6773L63.8116 37.0388C63.7533 37.4981 63.3304 37.8262 62.8711 37.7678L55.6898 36.8456C55.2305 36.7872 54.9024 36.3644 54.9644 35.9051L56.7214 22.2496L56.7178 22.246Z" fill="#190C00"/>
<path d="M70.5519 37.6038L69.1193 2.23305C69.1011 1.77009 69.462 1.3764 69.9249 1.35817L77.1974 1.0629C77.6603 1.04468 78.054 1.40556 78.0723 1.86852L78.8305 20.9191C78.8597 21.6992 79.8439 22.02 80.3287 21.4112L86.2378 14.0075C86.3909 13.8179 86.6169 13.7013 86.8612 13.6904L93.2442 13.4242C93.9769 13.3951 94.3961 14.2517 93.9186 14.8095L86.5258 23.4599C86.2597 23.7734 86.2561 24.2327 86.5222 24.5462L96.2334 36.0837C96.6854 36.6195 96.3208 37.4397 95.6209 37.4653L87.6194 37.7496C87.3569 37.7605 87.1054 37.6439 86.9377 37.4398L80.7224 29.8319C80.2121 29.2049 79.1987 29.5913 79.2315 30.397L79.5085 37.232C79.5268 37.6949 79.1659 38.0886 78.7029 38.1068L71.4305 38.4021C70.9675 38.4203 70.5738 38.0595 70.5556 37.5965L70.5519 37.6038Z" fill="#190C00"/>
<path d="M120.471 25.7346L123.996 25.2935C123.913 18.8704 119.447 14.1205 112.787 12.9103L111.872 15.7245C111.551 16.7087 110.199 16.5811 110.068 15.5458L109.699 12.6259C102.919 12.5421 97.6479 16.377 96.3538 22.6615L99.7367 23.7551C100.721 24.0869 100.593 25.4284 99.5581 25.5596L96.0439 26.0007C96.2116 32.3545 100.663 37.0424 107.301 38.2308L108.157 35.5697C108.478 34.5855 109.831 34.713 109.962 35.7483L110.305 38.5151C117.048 38.599 122.309 34.8333 123.665 28.6363L120.304 27.5427C119.305 27.2109 119.436 25.8694 120.471 25.7382V25.7346ZM119.152 20.2265L116.801 23.2557L114.402 26.3433L114.329 26.4381C114.128 27.4588 113.571 28.3738 112.736 29.0154C111.846 29.7153 110.727 30.047 109.601 29.9413C107.191 29.7153 105.42 27.5682 105.646 25.155C105.766 24.0285 106.287 22.9933 107.14 22.2569C107.95 21.557 108.992 21.1779 110.049 21.1888L112.459 19.9531L113.6 19.3698L117.008 17.6346C118.743 16.7561 120.333 18.6918 119.144 20.2228L119.152 20.2265Z" fill="#190C00"/>
<path d="M112.696 25.8257C112.623 26.5912 112.237 27.2437 111.679 27.6812C111.154 28.0931 110.48 28.3118 109.769 28.2426C108.292 28.1004 107.21 26.7917 107.352 25.3154C107.421 24.6009 107.76 23.9812 108.263 23.551C108.795 23.0808 109.514 22.8256 110.275 22.8985C111.752 23.0407 112.834 24.3457 112.692 25.8257H112.696Z" fill="#190C00"/>
</svg>
