<svg width="341" height="107" viewBox="0 0 341 107" fill="none" xmlns="http://www.w3.org/2000/svg">
<path d="M318.64 66.8399L311.58 58.5699L324 49.4099L330.47 54.3399L318.64 66.8399Z" fill="#FF7401"/>
<path d="M301.15 78.39L301.32 78.44L301.82 78.51C301.59 78.48 301.37 78.44 301.15 78.39Z" fill="white"/>
<path d="M321.4 76.7299L315.96 77.1999C315.96 77.1999 315.95 77.2099 315.95 77.2199L321.35 76.7499L324.09 76.5199C324.29 76.4999 324.48 76.4699 324.67 76.4099C324.5 76.4499 324.33 76.4799 324.14 76.4999L321.4 76.7299ZM305.58 47.6599C305.58 47.6599 305.53 47.6599 305.5 47.6699C305.47 47.6699 305.45 47.6699 305.42 47.6799C305.54 47.6799 305.64 47.6699 305.75 47.6799C305.73 47.6699 305.72 47.6699 305.7 47.6699C305.66 47.6599 305.62 47.6599 305.58 47.6599ZM305.27 47.7099C305.27 47.7099 305.33 47.6999 305.36 47.6899C305.23 47.6899 305.1 47.7099 304.98 47.7599C305.08 47.7399 305.18 47.7199 305.27 47.7099ZM304.69 47.8599C304.79 47.8199 304.88 47.7899 304.97 47.7599C304.8 47.7899 304.64 47.8499 304.48 47.9599C304.55 47.9199 304.62 47.8899 304.69 47.8599ZM303.9 48.3999C303.75 48.5499 303.62 48.7299 303.52 48.9399C303.45 49.0599 303.39 49.1799 303.34 49.3199L302.38 51.9099L301.42 54.5099L300.49 57.0399C298.01 57.4299 295.66 58.4499 293.68 60.0499C291.88 61.4999 290.47 63.3199 289.55 65.3899L284.12 65.8499L281.36 66.0899C278.69 66.3199 278.23 69.7799 280.74 70.6999L280.81 70.7199C278.29 69.7999 278.76 66.3399 281.42 66.1099L284.18 65.8699L289.61 65.3899C290.52 63.3299 291.93 61.5099 293.73 60.0599C295.7 58.4599 298.07 57.4299 300.53 57.0399L301.46 54.5099L302.41 51.9099L303.37 49.3199C303.54 48.8599 303.79 48.4999 304.1 48.2299C304.22 48.1299 304.35 48.0399 304.48 47.9599C304.31 48.0299 304.15 48.1499 303.99 48.2999C303.96 48.3299 303.93 48.3599 303.9 48.3899V48.3999ZM297.58 92.6599L297.34 89.9199L297.1 87.1399L296.87 84.4899C296.33 84.2499 295.82 83.9699 295.32 83.6699C291.7 81.4899 289.19 77.7699 288.51 73.5399L283.4 71.6699L288.45 73.5299C289.21 78.3399 292.36 82.4799 296.8 84.4899L297.03 87.1499L297.27 89.9199L297.51 92.6699C297.55 93.1299 297.68 93.5299 297.88 93.8499C297.96 93.9799 298.05 94.0999 298.15 94.2099C298.31 94.3799 298.5 94.5299 298.71 94.6399C298.81 94.6999 298.92 94.7499 299.03 94.7899H299.04C299.17 94.8399 299.3 94.8799 299.44 94.8999C299.57 94.9299 299.71 94.9399 299.85 94.9399C299.99 94.9399 300.12 94.9299 300.26 94.8999C299.03 95.0799 297.7 94.2699 297.56 92.6499L297.58 92.6599Z" fill="white"/>
<path d="M301.15 78.39L301.32 78.44L301.82 78.5099C301.59 78.4799 301.37 78.44 301.15 78.39ZM301.15 78.39L301.32 78.44L301.82 78.5099C301.59 78.4799 301.37 78.44 301.15 78.39ZM301.15 78.39L301.32 78.44L301.82 78.5099C301.59 78.4799 301.37 78.44 301.15 78.39ZM301.15 78.39L301.32 78.44L301.82 78.5099C301.59 78.4799 301.37 78.44 301.15 78.39ZM324.75 71.89L322.16 70.9299L318.2 69.47L317.05 69.05C316.93 68.29 316.76 67.56 316.51 66.85L316.48 66.88C316.71 67.59 316.88 68.33 317.01 69.07L318.16 69.49L322.12 70.95L324.7 71.91C326.57 72.59 326.8 74.66 325.72 75.78C326.85 74.68 326.63 72.58 324.75 71.89ZM311.19 83.03C309.97 83.9 308.62 84.5799 307.22 85.0399C308.64 84.5899 310.01 83.8999 311.25 83.0099C313.3 81.4999 314.92 79.5099 315.95 77.2299H315.91C314.88 79.5199 313.26 81.53 311.19 83.03ZM307.94 49.94L308.18 52.69L308.41 55.46L308.54 57L308.63 58.1199C309.36 58.4399 310.05 58.84 310.71 59.28L310.74 59.2599C310.09 58.8299 309.4 58.4399 308.67 58.1199L308.57 57L308.45 55.47L308.21 52.7L307.97 49.94C307.91 49.23 307.61 48.68 307.18 48.31C307.47 48.59 307.71 48.96 307.84 49.42C307.88 49.59 307.91 49.76 307.93 49.95L307.94 49.94ZM307.18 48.2899C307.18 48.2899 307.11 48.23 307.08 48.2C307.12 48.23 307.16 48.27 307.19 48.31C307.19 48.31 307.19 48.2999 307.18 48.2899ZM304.03 88.09L303.07 90.71L302.12 93.2899C301.89 93.9299 301.49 94.3699 301.03 94.6499C301.53 94.3899 301.94 93.93 302.19 93.27L303.14 90.69L304.1 88.08L305.02 85.56C305.02 85.56 304.97 85.57 304.95 85.57L304.03 88.09ZM301.82 78.5099C301.59 78.4799 301.37 78.44 301.15 78.39L301.32 78.44L301.82 78.5099ZM301.15 78.39L301.32 78.44L301.82 78.5099C301.59 78.4799 301.37 78.44 301.15 78.39ZM301.15 78.39L301.32 78.44L301.82 78.5099C301.59 78.4799 301.37 78.44 301.15 78.39ZM301.15 78.39L301.32 78.44L301.82 78.5099C301.59 78.4799 301.37 78.44 301.15 78.39ZM301.15 78.39L301.32 78.44L301.82 78.5099C301.59 78.4799 301.37 78.44 301.15 78.39ZM301.15 78.39L301.32 78.44L301.82 78.5099C301.59 78.4799 301.37 78.44 301.15 78.39ZM301.15 78.39L301.32 78.44L301.82 78.5099C301.59 78.4799 301.37 78.44 301.15 78.39Z" fill="white"/>
<path d="M307.41 36.59C285.59 33.68 268.01 45.46 265.24 66.29C262.46 87.11 276.33 103.09 298.15 106C319.96 108.91 337.55 97.13 340.33 76.3C343.1 55.48 329.22 39.5 307.41 36.59ZM315.43 56.61L322.22 52.77C326.91 50.12 329.59 53.63 325.81 57.46L320.31 63.02L318.06 65.29C316.96 62.46 315.1 60 312.67 58.17L315.43 56.6V56.61ZM325.72 75.78C325.66 75.84 325.6 75.9 325.53 75.96C325.45 76.02 325.36 76.08 325.27 76.14C325.2 76.18 325.13 76.22 325.06 76.25C324.94 76.32 324.81 76.37 324.67 76.4C324.49 76.46 324.3 76.49 324.09 76.51L321.35 76.74L315.95 77.21C314.92 79.49 313.3 81.49 311.25 82.99C310.01 83.88 308.64 84.57 307.22 85.02C307.02 85.08 306.81 85.14 306.6 85.2C306.33 85.28 306.05 85.35 305.78 85.4C305.53 85.45 305.27 85.5 305.02 85.54L304.1 88.06L303.14 90.67L302.19 93.25C301.94 93.92 301.52 94.37 301.03 94.63C300.96 94.66 300.89 94.7 300.82 94.73C300.74 94.76 300.65 94.79 300.57 94.82C300.48 94.85 300.38 94.88 300.29 94.89C300.15 94.92 300.02 94.93 299.88 94.93C299.74 94.93 299.6 94.92 299.47 94.89C299.33 94.87 299.2 94.83 299.07 94.78H299.06C298.95 94.74 298.84 94.69 298.74 94.63C298.54 94.52 298.35 94.37 298.18 94.2C298.08 94.09 297.99 93.97 297.91 93.84C297.71 93.52 297.58 93.12 297.54 92.66L297.3 89.91L297.06 87.14L296.83 84.48C292.39 82.48 289.24 78.34 288.48 73.52L283.43 71.66L283.36 71.64L280.84 70.7L280.77 70.68C278.25 69.76 278.72 66.3 281.39 66.07L284.15 65.83L289.58 65.37C290.5 63.31 291.91 61.48 293.71 60.03C295.69 58.43 298.05 57.41 300.52 57.02L301.45 54.49L302.41 51.89L303.37 49.3C303.42 49.16 303.48 49.04 303.55 48.92C303.65 48.72 303.78 48.54 303.93 48.38C303.96 48.35 303.99 48.32 304.02 48.29C304.17 48.14 304.33 48.02 304.51 47.95C304.67 47.84 304.83 47.78 305 47.75C305.12 47.7 305.25 47.68 305.38 47.68C305.4 47.67 305.42 47.66 305.44 47.67C305.47 47.66 305.49 47.66 305.52 47.66C305.55 47.65 305.57 47.65 305.6 47.65C305.64 47.65 305.68 47.65 305.72 47.66C305.74 47.66 305.75 47.66 305.77 47.67H305.79C305.79 47.67 305.83 47.66 305.85 47.67C305.92 47.67 306 47.68 306.07 47.7C306.19 47.72 306.3 47.75 306.42 47.8C306.43 47.8 306.44 47.81 306.45 47.81C306.57 47.86 306.69 47.91 306.8 47.98C306.86 48.01 306.92 48.05 306.97 48.09C307 48.11 307.04 48.15 307.08 48.18C307.57 48.54 307.92 49.14 307.98 49.92L308.22 52.68L308.46 55.45L308.58 56.98L308.68 58.1C309.41 58.42 310.1 58.81 310.75 59.24L310.72 59.26C313.44 61.06 315.47 63.76 316.48 66.86L316.51 66.83C316.75 67.55 316.92 68.28 317.05 69.03L318.2 69.45L322.16 70.91L324.75 71.87C326.63 72.56 326.85 74.66 325.72 75.76V75.78Z" fill="white"/>
<path d="M310.55 71.3C310.55 71.92 310.48 72.52 310.34 73.1C309.53 76.53 306.46 79.07 302.78 79.07C298.48 79.07 295.01 75.59 295.01 71.3C295.01 67.01 298.49 63.53 302.78 63.53C302.91 63.53 303.04 63.53 303.17 63.54H303.18C307.28 63.75 310.55 67.14 310.55 71.3Z" fill="white"/>
<path d="M64.35 82.81L30.18 80.94C28.92 80.88 27.95 79.79 28.02 78.52L32.41 4.67996C32.48 3.42996 31.53 2.34997 30.28 2.24997L8.90001 0.739976C7.64001 0.649976 6.54001 1.60998 6.45001 2.87998L0.530005 99.38C0.450005 100.65 1.42001 101.73 2.68001 101.82L62.97 105.49C64.23 105.56 65.31 104.6 65.4 103.34L66.52 85.23C66.6 83.97 65.63 82.88 64.36 82.8L64.35 82.81Z" fill="white"/>
<path d="M97.5201 39.9499C97.4501 38.6999 96.3701 37.7299 95.1101 37.7999L75.2901 38.8299C74.0301 38.8899 73.0501 39.9699 73.1201 41.2499L76.5401 102.37C76.6101 103.63 77.6901 104.6 78.9601 104.53L98.7801 103.38C100.04 103.31 101 102.23 100.93 100.96L97.5201 39.9599V39.9499ZM83.8601 3.69994C76.3801 3.69994 70.3301 9.74993 70.3301 17.2299C70.3301 24.7099 76.1901 30.5599 83.6101 30.6199C91.1601 30.6799 97.5601 24.3199 97.2401 16.7799C96.9501 9.56994 91.1401 3.81994 83.8601 3.68994V3.69994Z" fill="white"/>
<path d="M175.65 41.4899C171.98 37.3999 166.48 34.9999 160.84 34.2899C152.95 33.2999 144.77 34.9999 139.54 39.3599H139.41L139.5 35.3599C139.52 34.1899 138.67 33.1899 137.51 33.0399L119.41 30.6399C118.15 30.4799 116.99 31.3699 116.83 32.6199L109.1 93.2099C108.94 94.4599 109.83 95.6199 111.08 95.7799L130.65 98.2999C131.9 98.4599 133.06 97.5699 133.22 96.3199L137.86 59.9599C138.28 56.8599 138.99 55.0299 139.97 53.8999C141.81 51.9299 144.77 50.6599 147.87 51.0799C150.61 51.4899 152.82 52.7099 154.11 54.7199C154.17 54.8399 154.23 54.9499 154.3 55.0699C154.97 56.5699 155.46 58.1199 155.06 61.3799L150.28 98.5799C150.12 99.8399 151.01 100.99 152.26 101.15L171.83 103.67C173.08 103.83 174.24 102.94 174.39 101.69L179.75 59.8299C180.87 51.0899 179.04 45.5899 175.66 41.5099L175.65 41.4899Z" fill="white"/>
<path d="M262.72 99.09L236.26 67.65C235.54 66.79 235.54 65.54 236.26 64.69L256.4 41.12C257.69 39.59 256.56 37.25 254.56 37.34L237.17 38.06C236.51 38.09 235.89 38.4 235.47 38.93L219.38 59.1C218.06 60.76 215.38 59.88 215.3 57.77L213.24 5.85004C213.19 4.59004 212.12 3.61003 210.85 3.66003L191.04 4.46004C189.78 4.51004 188.79 5.58004 188.84 6.85004L192.75 103.23C192.8 104.49 193.86 105.48 195.12 105.42L214.94 104.62C216.2 104.57 217.18 103.5 217.13 102.23L216.37 83.6C216.28 81.41 219.05 80.36 220.43 82.06L237.37 102.79C237.82 103.35 238.51 103.66 239.23 103.63L261.03 102.85C262.93 102.78 263.93 100.55 262.7 99.09H262.72Z" fill="white"/>
</svg>
