<svg width="83" height="83" viewBox="0 0 83 83" fill="none" xmlns="http://www.w3.org/2000/svg">
<rect width="83" height="83" rx="11" fill="#FFB3C0"/>
<mask id="mask0_361_33473" style="mask-type:alpha" maskUnits="userSpaceOnUse" x="0" y="0" width="83" height="83">
<circle cx="41.5" cy="41.5" r="41.5" fill="#D9D9D9"/>
</mask>
<g mask="url(#mask0_361_33473)">
<path d="M7.45212 59.9833C14.9 79.909 32.2716 80.606 40.9406 80.606C48.3057 80.606 59.9823 79.6961 70.755 69.8725C80.5422 60.9464 80.6551 41.3883 71.7313 31.0051C66.0745 24.4234 60.1516 24.5348 55.7518 24.6468C53.2105 24.7109 51.1773 24.7755 49.9968 23.5499C46.7721 20.2038 56.9715 8.73597 34.4431 11.8378C9.12496 15.3236 -0.495768 38.7209 7.45212 59.9833Z" fill="#FFCCD5"/>
<path d="M51.575 22.2948C48.4905 20.3417 57.305 13.6499 61.2421 18.112C65.1792 22.5741 55.5394 24.8047 51.575 22.2948Z" fill="#FFCCD5"/>
<path d="M51.5735 16.6071C49.4621 15.29 52.2105 9.11137 54.5807 11.311C56.9515 13.5111 53.6854 17.925 51.5735 16.6071Z" fill="#FFCCD5"/>
</g>
<path d="M41.4998 16.9175C45.8756 16.9175 50.1531 18.2148 53.7915 20.6458C57.4297 23.0768 60.2649 26.5326 61.9395 30.5752C63.6142 34.6179 64.0535 39.0672 63.1999 43.359C62.3996 47.3823 60.4982 51.0991 57.7143 54.0974L57.1453 54.6879L46.7142 65.1167C46.0298 65.8016 45.2175 66.3448 44.3231 66.7155C43.6521 66.9936 42.945 67.1702 42.2248 67.2413L41.5022 67.2773C40.5338 67.2773 39.5737 67.0864 38.679 66.7155C38.0081 66.4374 37.3825 66.0633 36.8232 65.604L36.2879 65.1167L25.8544 54.6879C22.7604 51.5938 20.6534 47.6506 19.7998 43.359C18.9462 39.0672 19.3855 34.6179 21.0601 30.5752C22.7348 26.5326 25.5699 23.0768 29.2082 20.6458C32.8465 18.2148 37.1241 16.9175 41.4998 16.9175ZM41.4998 21.8341C38.0966 21.8341 34.7699 22.8436 31.9402 24.7342C29.1103 26.625 26.9048 29.313 25.6023 32.4573C24.2999 35.6015 23.959 39.0608 24.6228 42.3987C25.2866 45.7363 26.9245 48.8028 29.3306 51.2093L39.7665 61.6428L39.9442 61.8037C40.1302 61.9564 40.3381 62.0808 40.5611 62.1734C40.859 62.2968 41.1798 62.3606 41.5022 62.3606L41.7423 62.3486C41.9819 62.3249 42.2177 62.2659 42.4409 62.1734C42.7385 62.0499 43.0103 61.8707 43.2379 61.6428L53.6691 51.2093L54.1108 50.7508C56.2759 48.4187 57.7545 45.5279 58.3769 42.3987C59.0406 39.0608 58.6998 35.6015 57.3974 32.4573C56.0949 29.313 53.8894 26.625 51.0595 24.7342C48.2297 22.8436 44.9031 21.8341 41.4998 21.8341Z" fill="#FF6681"/>
<path d="M46.3925 38.5566C46.2809 37.4307 45.7831 36.3724 44.9761 35.5653C44.054 34.6433 42.8038 34.1249 41.4998 34.1249C40.1959 34.1249 38.9457 34.6433 38.0236 35.5653C37.1015 36.4874 36.5832 37.7376 36.5832 39.0416C36.5832 40.3456 37.1015 41.5958 38.0236 42.5178C38.9457 43.4399 40.1959 43.9583 41.4998 43.9583C42.8038 43.9583 44.054 43.4399 44.9761 42.5178C45.8981 41.5958 46.4165 40.3456 46.4165 39.0416L46.3925 38.5566ZM51.3332 39.0416C51.3332 41.6495 50.2964 44.15 48.4523 45.9941C46.6082 47.8382 44.1078 48.8749 41.4998 48.8749C38.8919 48.8749 36.3915 47.8382 34.5474 45.9941C32.7033 44.15 31.6665 41.6495 31.6665 39.0416C31.6665 36.4336 32.7033 33.9332 34.5474 32.0891C36.3915 30.245 38.8919 29.2083 41.4998 29.2083C44.1078 29.2083 46.6082 30.245 48.4523 32.0891C50.2964 33.9332 51.3332 36.4336 51.3332 39.0416Z" fill="#FF6681"/>
</svg>
