<svg width="83" height="83" viewBox="0 0 83 83" fill="none" xmlns="http://www.w3.org/2000/svg">
<rect width="83" height="83" rx="11" fill="#ACE9EC"/>
<mask id="mask0_361_33471" style="mask-type:alpha" maskUnits="userSpaceOnUse" x="0" y="0" width="83" height="83">
<circle cx="41.5" cy="41.5" r="41.5" fill="#D9D9D9"/>
</mask>
<g mask="url(#mask0_361_33471)">
<path d="M41.101 80C30.3925 79.9995 18.2188 76.2196 12.3533 69.3868C7.49544 63.7282 16.7275 61.2979 14.3464 57.0262C11.9656 52.7544 1.76656 45.5393 7.97487 29.1206C10.9227 21.3248 23.7951 5.58238 46.8794 8.31471C69.963 11.047 49.2185 22.1152 65.2382 26.269C78.9795 29.8311 87.1294 80.0009 41.101 80Z" fill="#D5F4F6"/>
<path d="M5.49804 60.3349C3.09897 56.6293 10.0154 54.5628 12.4695 57.163C14.9233 59.7632 8.22048 64.5402 5.49804 60.3349Z" fill="#D5F4F6"/>
<path d="M6.91877 54.5795C3.29985 53.1711 5.24819 49.6035 9.04771 51.5862C12.8472 53.5692 10.5377 55.9879 6.91877 54.5795Z" fill="#D5F4F6"/>
<path d="M63.8395 24.4692C59.3446 22.4251 58.0829 17.6569 63.9697 19.3612C69.8561 21.0656 68.8444 26.746 63.8395 24.4692Z" fill="#D5F4F6"/>
<path d="M60.3883 17.5978C59.1173 15.9793 61.2605 11.4102 62.5962 13.5683C63.9316 15.7274 61.6312 19.1804 60.3883 17.5978Z" fill="#D5F4F6"/>
</g>
<path d="M53.7915 31.6666C53.7915 28.4066 52.4956 25.2811 50.1904 22.976C47.8853 20.6709 44.7598 19.3749 41.4998 19.3749C38.2399 19.3749 35.1144 20.6709 32.8093 22.976C30.5041 25.2811 29.2082 28.4066 29.2082 31.6666C29.2082 40.6324 27.2834 46.5764 25.2206 50.3586C25.0331 50.7023 24.8415 51.0262 24.654 51.3333H58.3457C58.1582 51.0262 57.9666 50.7023 57.7791 50.3586C55.7163 46.5764 53.7915 40.6324 53.7915 31.6666ZM58.7082 31.6666C58.7082 39.9085 60.4711 45.0275 62.0956 48.0059C62.9111 49.5008 63.7046 50.4821 64.2562 51.0644C64.5327 51.3562 64.752 51.5483 64.8828 51.6574C64.9481 51.7118 64.9912 51.7465 65.0101 51.7606L65.0005 51.7534L64.9909 51.7486C65.8903 52.3499 66.2912 53.4688 65.9776 54.5046C65.6634 55.5411 64.7079 56.2499 63.6249 56.2499H19.3748C18.2918 56.2499 17.3363 55.5411 17.0221 54.5046C16.7085 53.4688 17.1094 52.3499 18.0088 51.7486L17.9992 51.7534L17.9896 51.7606C18.0085 51.7465 18.0516 51.7118 18.1169 51.6574C18.2477 51.5483 18.467 51.3562 18.7435 51.0644C19.2951 50.4821 20.0886 49.5008 20.9041 48.0059C22.5286 45.0275 24.2915 39.9085 24.2915 31.6666C24.2915 27.1027 26.1034 22.7245 29.3306 19.4974C32.5578 16.2702 36.9359 14.4583 41.4998 14.4583C46.0638 14.4583 50.4419 16.2702 53.6691 19.4974C56.8963 22.7245 58.7082 27.1027 58.7082 31.6666Z" fill="#26A0A5"/>
<path d="M43.6258 62.3911C44.3071 61.2168 45.8125 60.8168 46.9869 61.4981C48.1613 62.1793 48.5612 63.6847 47.8799 64.8591C47.2318 65.9764 46.3007 66.903 45.1815 67.5479C44.0623 68.1925 42.7928 68.532 41.5012 68.5322C40.2092 68.5322 38.9381 68.1927 37.8185 67.5479C36.8395 66.9838 36.0045 66.2041 35.377 65.2696L35.1201 64.8591L35.0049 64.6358C34.4914 63.5003 34.9121 62.1369 36.0132 61.4981C37.1142 60.8594 38.5064 61.1708 39.2373 62.1799L39.3742 62.3911L39.5518 62.6576C39.7478 62.9122 39.9919 63.1276 40.272 63.289C40.6452 63.504 41.0705 63.6155 41.5012 63.6155C41.9315 63.6153 42.3551 63.5038 42.728 63.289C43.101 63.0741 43.4098 62.7635 43.6258 62.3911Z" fill="#26A0A5"/>
</svg>
