<svg width="83" height="83" viewBox="0 0 83 83" fill="none" xmlns="http://www.w3.org/2000/svg">
<rect width="83" height="83" rx="11" fill="#FFDF99"/>
<mask id="mask0_361_33543" style="mask-type:alpha" maskUnits="userSpaceOnUse" x="0" y="0" width="83" height="83">
<circle cx="41.5" cy="41.5" r="41.5" fill="#D9D9D9"/>
</mask>
<g mask="url(#mask0_361_33543)">
<path d="M41.814 12C60.1692 12 63.1842 23.9804 65.6916 30.5888C66.8614 33.672 68.2722 32.9532 69.9018 32.2339C71.7651 31.4123 73.9149 30.5902 76.3175 35.4521C80.7719 44.4662 84.7332 81.3351 43.9433 81.9949C34.8894 82.1413 17.8559 79.2026 10.3844 68.1252C8.67446 65.5899 8.15926 61.8469 11.1225 61.46C14.0861 61.0726 12.624 58.0967 10.6876 50.3903C5.40714 29.3712 21.3298 12 41.814 12Z" fill="#FFECC2"/>
<path d="M4.00539 51.9549C3.79768 55.4772 9.6561 62.5641 10.8723 59.046C12.0891 55.5289 4.2136 48.4331 4.00539 51.9549Z" fill="#FFECC2"/>
<path d="M4.26712 59.4909C4.73242 60.5917 7.80936 61.5213 7.9953 60.6653C8.18169 59.81 2.75245 55.9022 4.26712 59.4909Z" fill="#FFECC2"/>
<path d="M68.0927 28.8576C65.3949 27.6544 68.2152 19.3172 70.9086 21.3048C73.6016 23.2928 70.7908 30.0613 68.0927 28.8576Z" fill="#FFECC2"/>
<path d="M65.8133 22.9386C63.9913 23.7966 63.1387 15.3623 65.1997 16.0387C67.2603 16.715 67.6691 22.0645 65.8133 22.9386Z" fill="#FFECC2"/>
</g>
<path d="M12.7201 12.7201C13.6202 11.8201 15.0435 11.7645 16.0091 12.5521L16.1964 12.7201L70.2797 66.8035L70.4478 66.9907C71.2353 67.9563 71.1797 69.3797 70.2797 70.2797C69.3797 71.1797 67.9563 71.2353 66.9907 70.4478L66.8035 70.2797L12.7201 16.1964L12.5521 16.0091C11.7645 15.0435 11.8201 13.6202 12.7201 12.7201Z" fill="#FFBF33"/>
<path d="M50.8949 38.1113C51.4533 36.9671 52.7815 36.451 53.951 36.8821L54.1815 36.9806L55.0001 37.3959C56.6206 38.2505 58.157 39.2556 59.5903 40.3968L60.2985 40.9778L60.4834 41.1506C61.3461 42.0484 61.4066 43.4718 60.5842 44.442C59.7604 45.4128 58.3435 45.5858 57.3168 44.8789L57.1175 44.7277L56.5294 44.2427C55.3355 43.2921 54.055 42.4554 52.705 41.7436L52.0256 41.3979L51.8048 41.2779C50.7457 40.6211 50.3366 39.2553 50.8949 38.1113Z" fill="#FFBF33"/>
<path d="M36.5856 34.5543C37.9237 34.325 39.1939 35.2233 39.4233 36.5613C39.6525 37.8994 38.7544 39.1696 37.4163 39.3989C33.1633 40.1275 29.1792 41.9703 25.8688 44.7381C24.8272 45.609 23.2755 45.47 22.4046 44.4284C21.5346 43.387 21.6734 41.8373 22.7143 40.9666C26.6907 37.6419 31.477 35.4296 36.5856 34.5543Z" fill="#FFBF33"/>
<path d="M38.1319 21.9636C43.7274 21.5128 49.356 22.1958 54.6825 23.9682C59.6763 25.63 64.3094 28.218 68.3377 31.5953L69.1348 32.2819L69.3148 32.4572C70.1614 33.3715 70.195 34.7963 69.3532 35.7509C68.511 36.7056 67.0916 36.8517 66.0787 36.1255L65.8818 35.9694L65.1784 35.3644C61.624 32.3844 57.5379 30.0992 53.1316 28.6328C48.4314 27.0687 43.4632 26.468 38.5256 26.8659C37.1726 26.9746 35.9867 25.9647 35.8777 24.6116C35.7689 23.2585 36.7788 22.0727 38.1319 21.9636Z" fill="#FFBF33"/>
<path d="M26.3806 24.6779C27.58 24.3396 28.8637 24.9585 29.3311 26.1423C29.8292 27.4053 29.2089 28.8348 27.9459 29.3329L26.4743 29.9499C23.0708 31.4666 19.9151 33.4942 17.1187 35.966C16.1014 36.8652 14.5488 36.7696 13.6497 35.7524C12.7506 34.7351 12.8461 33.1825 13.8633 32.2833C17.4877 29.0796 21.6429 26.5318 26.143 24.7571L26.3806 24.6779Z" fill="#FFBF33"/>
<path d="M41.5112 46.4197C45.0829 46.4197 48.5674 47.532 51.479 49.6006L51.6759 49.7567C52.6129 50.577 52.7961 51.9891 52.06 53.0265C51.2737 54.1332 49.7386 54.3935 48.6318 53.6074L48.2357 53.3385C46.2395 52.0341 43.9027 51.3363 41.5112 51.3363C38.9604 51.3365 36.4726 52.1301 34.3931 53.6074L34.1819 53.7419C33.0982 54.358 31.7023 54.0644 30.9649 53.0265C30.1795 51.9198 30.4397 50.3868 31.5459 49.6006L32.098 49.2237C34.8928 47.3971 38.163 46.4199 41.5112 46.4197Z" fill="#FFBF33"/>
<path d="M41.5238 58.7083L41.7759 58.7203C43.0155 58.8462 43.9822 59.8938 43.9822 61.1666C43.9822 62.4394 43.0155 63.487 41.7759 63.6129L41.5238 63.6249H41.4998C40.1421 63.6249 39.0415 62.5243 39.0415 61.1666C39.0415 59.8089 40.1421 58.7083 41.4998 58.7083H41.5238Z" fill="#FFBF33"/>
</svg>
