<svg width="83" height="83" viewBox="0 0 83 83" fill="none" xmlns="http://www.w3.org/2000/svg">
<rect width="83" height="83" rx="11" fill="#CFB3FF"/>
<mask id="mask0_361_33515" style="mask-type:alpha" maskUnits="userSpaceOnUse" x="0" y="0" width="83" height="83">
<circle cx="41.5" cy="41.5" r="41.5" fill="#D9D9D9"/>
</mask>
<g mask="url(#mask0_361_33515)">
<path d="M30.3082 10.9235C17.6177 13.5362 12.2281 21.8845 8.57956 30.1159C5.61879 36.7951 15.0203 35.0208 13.9308 39.6903C12.8412 44.3597 4.56305 54.9616 14.439 69.0077C19.7659 76.5846 29.3517 81.0013 42.5121 81C55.673 80.9992 67.6882 75.237 72.1971 67.9219C75.4012 62.7228 73.9093 59.2732 71.0332 56.9986C68.1567 54.7249 73.4362 47.1154 68.7511 33.0148C64.066 18.9143 52.0158 6.45474 30.3082 10.9235Z" fill="#ECE0FF"/>
<path d="M4.14123 38.5589C2.90292 42.8047 10.1709 42.9989 11.7829 39.8169C13.3949 36.6349 5.54665 33.7415 4.14123 38.5589Z" fill="#ECE0FF"/>
<path d="M7.12429 44.0783C4.39193 46.5071 7.16249 49.8447 9.87984 46.7538C12.5967 43.6629 9.85648 41.6496 7.12429 44.0783Z" fill="#ECE0FF"/>
<path d="M73.4665 55.9733C70.9786 55.5952 71.7691 43.69 74.9839 45.119C78.1988 46.548 77.4787 56.5831 73.4665 55.9733Z" fill="#ECE0FF"/>
<path d="M75.4252 57.9993C74.1041 58.0504 76.1014 55.3791 78.1315 56.1347C80.1611 56.89 78.3772 57.8849 75.4252 57.9993Z" fill="#ECE0FF"/>
</g>
<path d="M35.1719 21.4132C37.2474 15.2181 46.4025 15.4246 48.0061 22.0326L48.0685 22.2342C48.1413 22.4301 48.2488 22.6124 48.3854 22.772C48.5675 22.9846 48.7966 23.1522 49.0552 23.2593C49.3139 23.3665 49.5947 23.4105 49.8739 23.389C50.1532 23.3673 50.4244 23.2804 50.6637 23.1345L51.2279 22.8224C56.8882 20.0036 62.9987 26.1125 60.1801 31.7747L59.868 32.3389C59.7227 32.5777 59.6352 32.8476 59.6136 33.1263C59.592 33.4055 59.6385 33.6862 59.7456 33.9449C59.8526 34.2032 60.0183 34.4327 60.2306 34.6147C60.443 34.7968 60.6957 34.9278 60.9676 34.994L61.587 35.1717C67.5823 37.1802 67.5823 45.8197 61.587 47.8283L60.9676 48.0059C60.6952 48.0719 60.441 48.203 60.2282 48.3852C60.0155 48.5673 59.848 48.7964 59.7408 49.055C59.6336 49.3138 59.5896 49.5945 59.6112 49.8737C59.6274 50.0833 59.68 50.2886 59.7672 50.4787L59.8656 50.6635L60.1777 51.2277C62.9965 56.888 56.8877 62.9985 51.2255 60.18L50.6613 59.8679C50.4225 59.7226 50.1526 59.635 49.8739 59.6134C49.5947 59.5918 49.3139 59.6383 49.0552 59.7454C48.7969 59.8524 48.5674 60.0182 48.3854 60.2304C48.2488 60.3898 48.1414 60.5724 48.0685 60.7681L48.0061 60.9674C46.4025 67.5753 37.2474 67.7819 35.1719 61.5868L34.9942 60.9674C34.9282 60.6951 34.7971 60.4409 34.6149 60.228C34.4328 60.0154 34.2037 59.8478 33.9451 59.7406C33.6864 59.6334 33.4057 59.5894 33.1265 59.611C32.9169 59.6272 32.7116 59.6799 32.5215 59.767L32.3366 59.8655C26.3427 63.517 19.4817 56.6574 23.1323 50.6611L23.2307 50.4763C23.3174 50.2867 23.3705 50.0826 23.3868 49.8737C23.4084 49.5945 23.3619 49.3138 23.2547 49.055C23.1477 48.7967 22.982 48.5673 22.7698 48.3852C22.6103 48.2486 22.4278 48.1412 22.232 48.0683L22.0328 48.0059C15.2117 46.3506 15.2117 36.6494 22.0328 34.994L22.2344 34.9316C22.4303 34.8589 22.6126 34.7513 22.7722 34.6147C22.9848 34.4326 23.1523 34.2036 23.2595 33.9449C23.3667 33.6862 23.4107 33.4055 23.3892 33.1263C23.3729 32.9167 23.3203 32.7114 23.2331 32.5213L23.1347 32.3365C19.4832 26.3425 26.3428 19.4815 32.339 23.1321H32.3414L32.5359 23.2353C33.529 23.6863 34.7261 23.1332 34.9942 22.0326L35.1719 21.4132ZM43.2287 23.1921C42.8166 21.4938 40.5246 21.3871 39.8773 22.8728L39.7717 23.1921V23.1945C38.7 27.5991 33.6536 29.6897 29.7823 27.3286V27.331C28.1873 26.3599 26.3637 28.1849 27.3335 29.7773H27.3311C27.8798 30.6772 28.2098 31.6938 28.2914 32.7446C28.3729 33.7957 28.2052 34.8531 27.8017 35.8271C27.3983 36.8006 26.7704 37.6649 25.9699 38.3502C25.2688 38.9503 24.4515 39.3994 23.5716 39.6682L23.1923 39.7715C21.3806 40.2111 21.3806 42.7889 23.1923 43.2285H23.1947L23.574 43.3341C24.4524 43.6034 25.2676 44.0503 25.9675 44.6497C26.7675 45.3351 27.3962 46.1997 27.7993 47.1729C28.2024 48.1463 28.3703 49.2025 28.289 50.253C28.2077 51.3034 27.8792 52.3205 27.3311 53.2203L27.3287 53.2179C26.4186 54.7131 27.9683 56.4106 29.4774 55.8179L29.7775 55.6666C30.6772 55.1182 31.6942 54.7903 32.7448 54.7087C33.7959 54.6272 34.8532 54.7949 35.8273 55.1985C36.8007 55.6019 37.6651 56.2298 38.3504 57.0302C39.0358 57.8311 39.5233 58.7834 39.7717 59.8078L39.8773 60.1271C40.5246 61.6129 42.8166 61.5062 43.2287 59.8078V59.8055L43.3343 59.4261C43.6036 58.5478 44.0505 57.7325 44.6499 57.0326C45.3352 56.2327 46.1999 55.604 47.1731 55.2009C48.1465 54.7978 49.2027 54.6298 50.2532 54.7111C51.3035 54.7925 52.3207 55.121 53.2205 55.669H53.2181C54.8131 56.6401 56.6366 54.8151 55.6668 53.2227V53.2203C55.119 52.321 54.7905 51.3053 54.7089 50.2554C54.6274 49.2042 54.7951 48.1469 55.1987 47.1729C55.602 46.1994 56.2299 45.335 57.0304 44.6497C57.8313 43.9643 58.7836 43.4768 59.808 43.2285L60.1273 43.1229C61.5138 42.5188 61.5138 40.4812 60.1273 39.8771L59.808 39.7715H59.8056C58.7825 39.5225 57.8326 39.0352 57.0328 38.3502C56.2328 37.6649 55.6041 36.8003 55.2011 35.8271C54.798 34.8537 54.63 33.7974 54.7113 32.747C54.7927 31.6966 55.1212 30.6794 55.6692 29.7797C56.6391 28.1849 54.815 26.3637 53.2229 27.3334L53.2205 27.331C52.3209 27.8792 51.3059 28.2096 50.2556 28.2912C49.2044 28.3727 48.1471 28.205 47.1731 27.8015C46.1996 27.3981 45.3352 26.7702 44.6499 25.9698C44.0498 25.2686 43.6007 24.4513 43.3319 23.5714L43.2287 23.1921Z" fill="#8033FF"/>
<path d="M46.3925 41.0151C46.2809 39.8892 45.7831 38.8309 44.9761 38.0238C44.054 37.1018 42.8038 36.5834 41.4998 36.5834C40.1959 36.5834 38.9457 37.1018 38.0236 38.0238C37.1015 38.9459 36.5832 40.1961 36.5832 41.5001C36.5832 42.8041 37.1015 44.0543 38.0236 44.9763C38.9457 45.8984 40.1959 46.4167 41.4998 46.4167C42.8038 46.4167 44.054 45.8984 44.9761 44.9763C45.8981 44.0543 46.4165 42.8041 46.4165 41.5001L46.3925 41.0151ZM51.3332 41.5001C51.3332 44.108 50.2964 46.6084 48.4523 48.4526C46.6082 50.2967 44.1078 51.3334 41.4998 51.3334C38.8919 51.3334 36.3915 50.2967 34.5474 48.4526C32.7033 46.6084 31.6665 44.108 31.6665 41.5001C31.6665 38.8921 32.7033 36.3917 34.5474 34.5476C36.3915 32.7035 38.8919 31.6667 41.4998 31.6667C44.1078 31.6667 46.6082 32.7035 48.4523 34.5476C50.2964 36.3917 51.3332 38.8921 51.3332 41.5001Z" fill="#8033FF"/>
</svg>
