<svg width="263" height="263" viewBox="0 0 263 263" fill="none" xmlns="http://www.w3.org/2000/svg">
<circle cx="131.5" cy="131.5" r="131.5" fill="#C9A8FF"/>
<mask id="mask0_346_12586" style="mask-type:alpha" maskUnits="userSpaceOnUse" x="0" y="0" width="263" height="263">
<circle cx="131.5" cy="131.5" r="131.5" fill="#D9D9D9"/>
</mask>
<g mask="url(#mask0_346_12586)">
<path d="M95.8271 33.9387C55.1211 42.252 37.8335 68.8147 26.1305 95.0053C16.6335 116.257 46.7898 110.612 43.295 125.469C39.8002 140.327 13.2471 174.06 44.9253 218.752C62.0117 242.86 92.7591 256.913 134.972 256.909C177.187 256.907 215.727 238.572 230.19 215.297C240.467 198.755 235.682 187.779 226.456 180.541C217.23 173.307 234.164 149.095 219.136 104.229C204.108 59.364 165.456 19.72 95.8271 33.9387Z" fill="#E1CFFF"/>
<path d="M14.4451 123.095C10.5425 137.059 33.4477 137.697 38.5279 127.232C43.6081 116.767 18.8743 107.251 14.4451 123.095Z" fill="#E1CFFF"/>
<path d="M22.8867 139.512C14.732 146.628 23.0007 156.407 31.1105 147.351C39.2189 138.295 31.0408 132.396 22.8867 139.512Z" fill="#E1CFFF"/>
<path d="M232.909 178.439C225.704 177.237 227.993 139.415 237.304 143.955C246.615 148.495 244.529 180.376 232.909 178.439Z" fill="#E1CFFF"/>
<path d="M240.36 184.575C236.869 184.796 242.146 173.243 247.51 176.511C252.873 179.778 248.16 184.08 240.36 184.575Z" fill="#E1CFFF"/>
<path d="M161.027 207.322H102.777C73.6535 210.002 60.1582 242.861 60.1582 242.861C83.0041 263.167 131.903 262.744 131.903 262.744C131.903 262.744 180.8 263.167 203.647 242.861C203.647 242.861 190.152 210.002 161.027 207.322Z" fill="#4B496B"/>
<path d="M131.393 221.204C131.13 224.361 130.911 228.069 131.939 231.114C132.111 231.624 132.857 231.538 132.879 230.987C133.015 227.776 132.358 224.43 132.226 221.204C132.205 220.663 131.437 220.675 131.393 221.204Z" fill="#211E3B"/>
<path d="M124.349 218.692C123.385 221.368 122.589 224.743 123.058 227.597C123.133 228.051 123.877 228.038 123.964 227.597C124.519 224.744 124.48 221.654 124.799 218.752C124.829 218.48 124.432 218.466 124.349 218.692Z" fill="#211E3B"/>
<path d="M114.752 219.647C113.102 222.344 112.424 225.495 112.305 228.631C112.289 229.087 112.994 229.184 113.104 228.739C113.824 225.792 114.125 222.835 115.47 220.068C115.704 219.59 115.034 219.184 114.752 219.647Z" fill="#211E3B"/>
<path d="M127.048 232.205C125.613 235.957 124.964 240.274 125.993 244.214C126.132 244.74 126.978 244.643 126.956 244.085C126.785 240.059 126.768 236.355 127.812 232.417C127.944 231.915 127.226 231.739 127.048 232.205Z" fill="#211E3B"/>
<path d="M108.285 230.048C106.3 233.324 105.361 237.378 105.972 241.181C106.066 241.77 106.95 241.593 106.974 241.045C107.141 237.276 107.618 233.867 108.856 230.29C108.974 229.947 108.464 229.754 108.285 230.048Z" fill="#211E3B"/>
<path d="M108.019 218.2C106.062 220.968 104.69 224.412 104.652 227.829C104.648 228.236 105.272 228.332 105.368 227.926C106.154 224.608 107.038 221.606 108.684 218.589C108.926 218.146 108.302 217.801 108.019 218.2Z" fill="#211E3B"/>
<path d="M98.9918 229.027C97.5664 232.011 96.7904 235.084 97.0064 238.402C97.0358 238.852 97.6451 238.836 97.6944 238.402C98.0478 235.311 98.6811 232.278 99.8678 229.396C100.073 228.896 99.2251 228.537 98.9918 229.027Z" fill="#211E3B"/>
<path d="M92.1693 230.062C90.1586 233.457 89.2546 237.385 89.1292 241.309C89.1079 241.956 90.0946 241.95 90.1292 241.309C90.3359 237.424 91.2733 233.878 92.5693 230.231C92.6533 229.992 92.2933 229.854 92.1693 230.062Z" fill="#211E3B"/>
<path d="M100.242 216.74C97.7592 219.44 95.0939 223.264 94.7632 227.029C94.7272 227.44 95.3565 227.594 95.5392 227.238C96.4045 225.55 96.8805 223.686 97.7405 221.982C98.5992 220.285 99.6472 218.681 100.781 217.155C101.015 216.84 100.503 216.454 100.242 216.74Z" fill="#211E3B"/>
<path d="M91.0545 218.364C88.0972 221.209 86.0358 225.522 85.4225 229.574C85.3625 229.967 85.9145 230.299 86.1278 229.87C87.9852 226.123 88.7745 222.155 91.5705 218.881C91.8718 218.529 91.3985 218.035 91.0545 218.364Z" fill="#211E3B"/>
<path d="M89.9711 213.815C86.9991 215.335 83.9391 217.562 82.0871 220.39C81.8524 220.75 82.3644 221.1 82.6604 220.832C85.1618 218.556 87.4258 216.143 90.1191 214.068C90.2644 213.956 90.1444 213.728 89.9711 213.815Z" fill="#211E3B"/>
<path d="M77.0088 224.966C74.3545 227.59 72.3185 230.722 71.3092 234.336C71.1811 234.796 71.8492 234.961 72.0122 234.529C73.2888 231.152 74.992 228.072 77.4354 225.393C77.6981 225.108 77.2874 224.692 77.0088 224.966Z" fill="#211E3B"/>
<path d="M80.0353 229.064C77.4047 232.842 75.2856 237.172 74.4897 241.739C74.4023 242.247 75.1241 242.467 75.2741 241.955C76.5824 237.49 78.1313 233.366 80.6647 229.432C80.922 229.033 80.3007 228.684 80.0353 229.064Z" fill="#211E3B"/>
<path d="M83.902 235.239C81.9126 238.981 80.666 243.055 80.2233 247.276C80.1646 247.831 81.118 247.967 81.206 247.409C81.8486 243.275 82.846 239.331 84.2833 235.399C84.3646 235.176 84.0126 235.031 83.902 235.239Z" fill="#211E3B"/>
<path d="M96.9064 244.008C95.8531 246.899 95.1437 249.98 95.3064 253.076C95.3371 253.654 96.1571 253.647 96.2024 253.076C96.4451 250.057 96.6971 247.101 97.4491 244.157C97.5398 243.802 97.0291 243.672 96.9064 244.008Z" fill="#211E3B"/>
<path d="M112.359 238.983C111.278 242.265 110.518 245.781 110.422 249.243C110.41 249.671 111.085 249.774 111.179 249.346C111.918 245.987 112.393 242.531 112.882 239.129C112.93 238.79 112.471 238.643 112.359 238.983Z" fill="#211E3B"/>
<path d="M104.308 247.726C103.625 250.299 102.976 253.039 103.04 255.718C103.05 256.155 103.758 256.295 103.838 255.826C104.286 253.195 104.386 250.499 104.77 247.854C104.813 247.558 104.39 247.421 104.308 247.726Z" fill="#211E3B"/>
<path d="M119.203 246.344C118.364 249.806 117.728 253.335 117.922 256.909C117.954 257.495 118.756 257.475 118.818 256.909C119.196 253.452 119.386 249.992 119.987 246.56C120.075 246.053 119.328 245.826 119.203 246.344Z" fill="#211E3B"/>
<path d="M88.5943 245.944C87.7623 248.34 87.0849 251.189 87.7809 253.697C87.8703 254.018 88.3969 254.054 88.4649 253.697C88.9356 251.208 88.8809 248.669 89.4369 246.176C89.5609 245.624 88.7783 245.413 88.5943 245.944Z" fill="#211E3B"/>
<path d="M118.801 228.24C116.925 231.732 115.988 235.887 116.32 239.856C116.369 240.452 117.224 240.464 117.257 239.856C117.469 235.885 118.056 232.221 119.22 228.418C119.296 228.169 118.925 228.011 118.801 228.24Z" fill="#211E3B"/>
<path d="M69.8869 238.083C68.7832 240.123 68.0104 242.406 68.0337 244.748C68.0395 245.373 68.9364 245.352 68.9921 244.748C69.1973 242.532 69.5181 240.439 70.3905 238.376C70.5317 238.042 70.0708 237.743 69.8869 238.083Z" fill="#211E3B"/>
<path d="M139.008 218.752C139.326 221.654 139.289 224.745 139.844 227.597C139.929 228.037 140.673 228.052 140.748 227.597C141.217 224.742 140.421 221.368 139.457 218.692C139.377 218.468 138.977 218.477 139.008 218.752Z" fill="#211E3B"/>
<path d="M148.336 220.069C149.681 222.834 149.982 225.793 150.702 228.74C150.81 229.181 151.518 229.091 151.501 228.631C151.382 225.494 150.705 222.345 149.054 219.647C148.773 219.186 148.102 219.589 148.336 220.069Z" fill="#211E3B"/>
<path d="M135.993 232.416C137.038 236.357 137.019 240.059 136.85 244.084C136.826 244.637 137.673 244.745 137.811 244.213C138.842 240.273 138.191 235.956 136.757 232.204C136.578 231.739 135.861 231.913 135.993 232.416Z" fill="#211E3B"/>
<path d="M154.948 230.29C156.186 233.868 156.662 237.271 156.829 241.044C156.853 241.587 157.737 241.776 157.832 241.18C158.442 237.378 157.505 233.324 155.518 230.048C155.342 229.755 154.828 229.944 154.948 230.29Z" fill="#211E3B"/>
<path d="M155.121 218.589C156.769 221.607 157.651 224.608 158.437 227.927C158.531 228.328 159.158 228.24 159.153 227.83C159.115 224.411 157.745 220.968 155.787 218.2C155.503 217.802 154.879 218.147 155.121 218.589Z" fill="#211E3B"/>
<path d="M163.936 229.396C165.124 232.279 165.756 235.311 166.11 238.403C166.159 238.836 166.768 238.854 166.798 238.403C167.014 235.084 166.238 232.011 164.812 229.027C164.582 228.543 163.73 228.891 163.936 229.396Z" fill="#211E3B"/>
<path d="M171.236 230.23C172.53 233.876 173.468 237.424 173.676 241.309C173.71 241.948 174.696 241.956 174.676 241.309C174.549 237.384 173.646 233.457 171.634 230.061C171.513 229.856 171.15 229.989 171.236 230.23Z" fill="#211E3B"/>
<path d="M163.025 217.155C164.158 218.681 165.206 220.285 166.065 221.982C166.925 223.686 167.401 225.551 168.266 227.238C168.449 227.594 169.078 227.44 169.042 227.029C168.712 223.264 166.045 219.438 163.565 216.74C163.306 216.457 162.789 216.838 163.025 217.155Z" fill="#211E3B"/>
<path d="M172.235 218.88C175.028 222.152 175.824 226.128 177.679 229.87C177.888 230.295 178.443 229.971 178.383 229.574C177.769 225.521 175.709 221.209 172.751 218.364C172.408 218.035 171.933 218.528 172.235 218.88Z" fill="#211E3B"/>
<path d="M173.686 214.068C176.379 216.143 178.643 218.557 181.144 220.832C181.438 221.097 181.955 220.751 181.718 220.389C179.866 217.561 176.806 215.335 173.834 213.815C173.662 213.728 173.54 213.956 173.686 214.068Z" fill="#211E3B"/>
<path d="M186.367 225.394C188.811 228.073 190.514 231.152 191.791 234.53C191.954 234.96 192.623 234.797 192.494 234.336C191.485 230.723 189.449 227.591 186.794 224.967C186.517 224.693 186.105 225.109 186.367 225.394Z" fill="#211E3B"/>
<path d="M183.139 229.433C185.673 233.366 187.222 237.491 188.53 241.955C188.681 242.466 189.402 242.247 189.314 241.739C188.519 237.171 186.401 232.842 183.769 229.064C183.505 228.685 182.882 229.033 183.139 229.433Z" fill="#211E3B"/>
<path d="M179.522 235.399C180.959 239.331 181.956 243.275 182.6 247.41C182.686 247.96 183.64 247.838 183.582 247.276C183.139 243.055 181.892 238.982 179.903 235.24C179.795 235.034 179.44 235.175 179.522 235.399Z" fill="#211E3B"/>
<path d="M166.356 244.157C167.11 247.102 167.36 250.059 167.603 253.076C167.65 253.645 168.468 253.656 168.499 253.076C168.662 249.98 167.952 246.899 166.899 244.008C166.776 243.673 166.266 243.802 166.356 244.157Z" fill="#211E3B"/>
<path d="M150.923 239.129C151.413 242.531 151.887 245.987 152.627 249.346C152.719 249.77 153.395 249.677 153.383 249.243C153.287 245.779 152.526 242.263 151.446 238.983C151.334 238.643 150.875 238.79 150.923 239.129Z" fill="#211E3B"/>
<path d="M159.034 247.854C159.418 250.499 159.518 253.195 159.966 255.826C160.046 256.29 160.754 256.159 160.765 255.718C160.829 253.039 160.18 250.297 159.497 247.726C159.416 247.421 158.992 247.558 159.034 247.854Z" fill="#211E3B"/>
<path d="M143.818 246.561C144.418 249.992 144.607 253.451 144.986 256.91C145.047 257.475 145.85 257.496 145.882 256.91C146.075 253.336 145.439 249.806 144.601 246.344C144.477 245.828 143.729 246.054 143.818 246.561Z" fill="#211E3B"/>
<path d="M174.369 246.177C174.925 248.669 174.87 251.21 175.342 253.698C175.409 254.053 175.937 254.018 176.025 253.698C176.721 251.19 176.045 248.341 175.213 245.945C175.028 245.415 174.244 245.623 174.369 246.177Z" fill="#211E3B"/>
<path d="M144.586 228.417C145.75 232.224 146.337 235.885 146.549 239.856C146.582 240.463 147.437 240.453 147.488 239.856C147.82 235.887 146.881 231.732 145.005 228.24C144.882 228.012 144.51 228.167 144.586 228.417Z" fill="#211E3B"/>
<path d="M193.413 238.376C194.286 240.439 194.606 242.534 194.812 244.748C194.868 245.352 195.765 245.375 195.77 244.748C195.794 242.404 195.021 240.124 193.917 238.083C193.734 237.743 193.272 238.042 193.413 238.376Z" fill="#211E3B"/>
<path d="M131.537 242.159C130.523 245.464 130.043 248.976 130.781 252.389C130.881 252.854 131.602 252.744 131.599 252.278C131.575 248.912 131.466 245.628 131.978 242.281C132.021 241.996 131.625 241.869 131.537 242.159Z" fill="#211E3B"/>
<path d="M125.457 251.679C124.577 254.413 124.28 257.672 124.949 260.483C125.075 261.018 125.933 260.909 125.911 260.355C125.793 257.425 125.673 254.676 125.928 251.743C125.952 251.463 125.537 251.432 125.457 251.679Z" fill="#211E3B"/>
<path d="M137.876 251.743C138.131 254.675 138.011 257.426 137.893 260.355C137.872 260.903 138.728 261.023 138.855 260.483C139.524 257.672 139.227 254.414 138.347 251.679C138.268 251.435 137.852 251.46 137.876 251.743Z" fill="#211E3B"/>
<path d="M132.371 223.296C132.307 222.594 132.255 221.897 132.226 221.204C132.215 220.934 132.02 220.802 131.82 220.802C131.62 220.802 131.415 220.939 131.392 221.204C131.336 221.88 131.282 222.581 131.242 223.294C130.126 223.29 127.671 223.263 124.474 223.128C124.571 221.657 124.642 220.182 124.798 218.752C124.815 218.606 124.707 218.533 124.591 218.533C124.491 218.533 124.386 218.587 124.348 218.692C123.867 220.028 123.428 221.537 123.167 223.069C120.591 222.945 117.631 222.753 114.546 222.456C114.792 221.647 115.09 220.851 115.47 220.068C115.631 219.739 115.363 219.442 115.088 219.442C114.964 219.442 114.839 219.502 114.751 219.646C114.226 220.506 113.799 221.412 113.456 222.348C111.416 222.136 109.334 221.878 107.287 221.563C107.687 220.565 108.144 219.578 108.684 218.589C108.851 218.284 108.606 218.023 108.344 218.023C108.227 218.023 108.106 218.077 108.019 218.2C107.32 219.187 106.698 220.259 106.182 221.387C103.65 220.968 101.192 220.457 98.9498 219.835C99.5192 218.914 100.136 218.021 100.78 217.154C100.958 216.917 100.71 216.639 100.464 216.639C100.384 216.639 100.306 216.668 100.242 216.739C99.4698 217.577 98.6805 218.525 97.9498 219.546C97.1498 219.305 96.3832 219.047 95.6552 218.775C92.6765 217.657 89.7378 217.051 86.9872 216.748C87.9898 215.82 89.0178 214.916 90.1192 214.068C90.2418 213.973 90.1752 213.796 90.0472 213.796C90.0232 213.796 89.9978 213.801 89.9712 213.814C88.4818 214.577 86.9698 215.516 85.5992 216.62C84.3605 216.523 83.1672 216.487 82.0352 216.487C85.4658 214.037 89.0098 212.257 92.7032 210.999C97.2138 212.149 101.652 213.656 106.287 214.411C114.726 215.787 123.356 216.296 131.903 216.296C140.448 216.296 149.079 215.787 157.519 214.411C162.223 213.645 166.73 212.044 171.323 210.881C174.035 211.822 176.736 213.111 179.463 214.872C180.255 215.384 181.038 215.922 181.811 216.487C180.666 216.487 179.459 216.523 178.206 216.62C176.835 215.516 175.323 214.577 173.834 213.814C173.807 213.801 173.782 213.796 173.758 213.796C173.631 213.796 173.563 213.973 173.686 214.068C174.787 214.916 175.815 215.82 176.818 216.748C174.067 217.051 171.128 217.657 168.15 218.775C167.422 219.047 166.655 219.305 165.855 219.546C165.124 218.525 164.335 217.577 163.564 216.739C163.5 216.669 163.422 216.64 163.342 216.64C163.096 216.64 162.846 216.916 163.024 217.154C163.668 218.021 164.286 218.914 164.855 219.835C162.612 220.457 160.155 220.968 157.623 221.387C157.108 220.259 156.484 219.187 155.787 218.2C155.699 218.077 155.579 218.023 155.462 218.023C155.2 218.023 154.954 218.284 155.12 218.589C155.66 219.578 156.119 220.566 156.518 221.563C154.471 221.878 152.388 222.136 150.348 222.348C150.007 221.412 149.58 220.506 149.054 219.646C148.966 219.504 148.84 219.444 148.716 219.444C148.442 219.444 148.174 219.737 148.335 220.068C148.715 220.851 149.012 221.647 149.259 222.456C146.174 222.753 143.214 222.945 140.638 223.069C140.378 221.537 139.938 220.028 139.456 218.692C139.419 218.588 139.312 218.534 139.212 218.534C139.098 218.534 138.99 218.605 139.007 218.752C139.164 220.182 139.235 221.658 139.332 223.128C135.935 223.27 133.378 223.293 132.371 223.296Z" fill="#3B3958"/>
<path d="M132.157 223.296C131.992 223.296 131.905 223.296 131.904 223.296C131.901 223.296 131.814 223.296 131.649 223.296C131.545 223.296 131.408 223.296 131.242 223.294C131.282 222.581 131.337 221.88 131.393 221.204C131.416 220.939 131.621 220.802 131.821 220.802C132.021 220.802 132.216 220.934 132.226 221.204C132.256 221.897 132.308 222.594 132.372 223.296C132.289 223.296 132.218 223.296 132.157 223.296Z" fill="#1A1831"/>
<path d="M124.473 223.128C124.049 223.111 123.614 223.092 123.166 223.069C123.427 221.537 123.866 220.028 124.347 218.692C124.385 218.587 124.49 218.533 124.59 218.533C124.706 218.533 124.814 218.606 124.797 218.752C124.641 220.183 124.57 221.657 124.473 223.128Z" fill="#1A1831"/>
<path d="M114.546 222.456C114.185 222.421 113.822 222.385 113.457 222.348C113.8 221.412 114.226 220.507 114.752 219.647C114.84 219.502 114.965 219.443 115.089 219.443C115.364 219.443 115.632 219.739 115.47 220.068C115.09 220.851 114.793 221.648 114.546 222.456Z" fill="#1A1831"/>
<path d="M107.287 221.563C106.918 221.507 106.55 221.448 106.182 221.387C106.698 220.26 107.32 219.187 108.019 218.201C108.106 218.078 108.227 218.024 108.344 218.024C108.606 218.024 108.851 218.285 108.684 218.59C108.144 219.579 107.687 220.566 107.287 221.563Z" fill="#1A1831"/>
<path d="M98.9492 219.836C98.6106 219.742 98.2772 219.645 97.9492 219.547C98.6799 218.526 99.4692 217.578 100.241 216.739C100.305 216.668 100.384 216.639 100.464 216.639C100.709 216.639 100.957 216.918 100.78 217.155C100.136 218.021 99.5186 218.915 98.9492 219.836Z" fill="#1A1831"/>
<path d="M86.9876 216.748C86.5196 216.698 86.0569 216.655 85.5996 216.62C86.9703 215.516 88.4823 214.578 89.9716 213.815C89.9983 213.802 90.0236 213.796 90.0476 213.796C90.1756 213.796 90.2423 213.974 90.1196 214.068C89.0183 214.916 87.9903 215.82 86.9876 216.748Z" fill="#1A1831"/>
<path d="M139.333 223.128C139.236 221.659 139.165 220.183 139.008 218.752C138.99 218.606 139.098 218.535 139.213 218.535C139.313 218.535 139.42 218.588 139.457 218.692C139.938 220.028 140.378 221.537 140.638 223.069C140.192 223.092 139.756 223.111 139.333 223.128Z" fill="#1A1831"/>
<path d="M149.258 222.456C149.011 221.648 148.714 220.851 148.334 220.068C148.173 219.737 148.441 219.444 148.715 219.444C148.839 219.444 148.965 219.504 149.053 219.647C149.579 220.507 150.006 221.412 150.347 222.348C149.983 222.385 149.619 222.421 149.258 222.456Z" fill="#1A1831"/>
<path d="M156.518 221.563C156.119 220.567 155.661 219.579 155.121 218.59C154.954 218.285 155.201 218.024 155.462 218.024C155.579 218.024 155.699 218.078 155.787 218.201C156.485 219.187 157.109 220.26 157.623 221.387C157.257 221.448 156.887 221.507 156.518 221.563Z" fill="#1A1831"/>
<path d="M164.854 219.836C164.285 218.915 163.667 218.021 163.023 217.155C162.845 216.916 163.095 216.64 163.341 216.64C163.421 216.64 163.499 216.669 163.563 216.739C164.334 217.578 165.123 218.526 165.854 219.547C165.526 219.645 165.193 219.742 164.854 219.836Z" fill="#1A1831"/>
<path d="M176.818 216.748C175.815 215.82 174.787 214.916 173.686 214.068C173.563 213.974 173.631 213.796 173.758 213.796C173.782 213.796 173.807 213.802 173.834 213.815C175.323 214.578 176.835 215.516 178.206 216.62C177.75 216.655 177.286 216.698 176.818 216.748Z" fill="#1A1831"/>
<path d="M204.61 242.593C200.725 233.266 194.251 224.43 186.658 217.818C177.19 209.576 166.521 206.321 154.275 206.321C140.654 206.321 127.033 206.321 113.411 206.321C101.659 206.321 91.5167 207.262 81.4367 214.423C71.7955 221.273 63.7491 231.654 59.1934 242.593C58.6991 243.78 60.6335 244.299 61.1215 243.126C64.7283 234.464 71.2711 225.578 78.5607 219.232C88.3501 210.711 98.9794 208.321 111.387 208.321C123.665 208.321 135.943 208.321 148.221 208.321C159.593 208.321 169.341 208.336 179.462 214.872C189.547 221.384 198.189 232.339 202.682 243.126C203.169 244.296 205.105 243.783 204.61 242.593Z" fill="#211E3B"/>
<path d="M207.526 129.091C195.09 80.2695 148.375 70.7735 131.903 70.7815C115.431 70.7735 68.7162 80.2695 56.2797 129.091C50.2823 152.633 47.1021 180.761 47.8526 185.016C48.6042 189.271 51.1067 188.269 52.3578 186.768C53.6099 185.267 52.9286 192.224 52.6725 197.732C52.4167 203.242 58.6938 202.73 60.8078 201.832C62.9219 200.935 62.5375 201.896 62.0255 202.794C61.513 203.691 60.1671 205.356 62.8578 205.996C64.1198 206.297 66.0589 206.061 67.7755 205.825C69.7171 205.56 71.3739 205.294 71.4417 205.804C71.5698 206.764 69.3917 208.366 71.9542 208.879C72.7777 209.043 74.4015 208.879 76.5859 208.715C81.2021 208.368 88.3181 208.021 95.6554 210.775C108.071 215.435 131.873 215.297 131.903 215.296C131.933 215.297 155.734 215.435 168.15 210.775C175.487 208.021 182.603 208.368 187.219 208.715C189.403 208.879 191.029 209.043 191.851 208.879C194.414 208.366 192.237 206.764 192.363 205.804C192.431 205.294 194.089 205.56 196.03 205.825C197.746 206.061 199.686 206.297 200.947 205.996C203.638 205.356 202.293 203.691 201.781 202.794C201.269 201.896 200.883 200.935 202.998 201.832C205.111 202.73 211.389 203.242 211.133 197.732C210.877 192.224 210.195 185.267 211.447 186.768C212.699 188.269 215.202 189.271 215.953 185.016C216.703 180.761 213.523 152.633 207.526 129.091Z" fill="#4B496B"/>
<path d="M131.903 214.296C122.98 214.296 113.908 213.794 105.126 212.194C98.6498 211.013 92.6084 208.235 86.0258 207.652C84.7991 207.544 83.5751 207.501 82.3538 207.501C80.3405 207.501 78.3311 207.616 76.3127 207.735C75.5455 207.781 74.6086 207.961 73.8315 207.961C72.7487 207.961 71.9768 207.613 72.4059 206.07C72.5315 205.616 72.3143 205.194 71.9461 204.94C71.4482 204.597 70.9034 204.475 70.3331 204.475C69.6165 204.475 68.8596 204.668 68.1059 204.863C67.3523 205.056 66.6018 205.251 65.8982 205.251C65.5679 205.251 65.2487 205.208 64.9435 205.102C62.0659 204.111 63.969 202.846 63.0398 200.978C62.881 200.658 62.5117 200.489 62.1607 200.489C62.0753 200.489 61.9908 200.499 61.9111 200.52C60.6726 200.834 59.0107 201.506 57.5461 201.506C57.0373 201.506 56.5518 201.425 56.1169 201.22C53.2763 199.878 53.7862 195.864 53.907 193.484C54.0252 191.177 54.6174 188.241 53.605 186.077C53.4487 185.744 53.1086 185.6 52.7659 185.6C52.5805 185.6 52.3945 185.642 52.2367 185.718C51.6357 186.01 51.1357 186.138 50.7201 186.138C48.2575 186.138 48.7668 181.634 48.8611 179.928C49.1283 175.048 49.7435 170.18 50.3977 165.34C52.1122 152.642 54.2955 139.825 57.7455 127.473C60.5856 117.305 65.4034 108.036 71.8935 100.124C67.7018 106.642 64.2684 114.385 62.034 123.569C56.494 146.344 53.555 173.556 54.2493 177.672C54.619 179.868 55.4498 180.616 56.3201 180.616C57.081 180.616 57.8716 180.044 58.4111 179.366C58.52 179.23 58.6127 179.166 58.6914 179.166C59.4523 179.166 58.9165 185.145 58.7013 189.974C58.5445 193.51 61.0455 194.481 63.3165 194.481C64.4679 194.481 65.5607 194.232 66.2174 193.94C66.77 193.694 67.1373 193.593 67.3701 193.593C67.9607 193.593 67.6821 194.248 67.343 194.869C66.8685 195.737 65.6258 197.349 68.1117 197.969C68.505 198.066 68.9695 198.105 69.4731 198.105C70.4633 198.105 71.6045 197.954 72.655 197.804C73.7055 197.653 74.6659 197.502 75.2941 197.502C75.7383 197.502 76.0165 197.578 76.0425 197.782C76.1611 198.711 74.1487 200.261 76.5159 200.756C76.7388 200.802 77.0258 200.822 77.3711 200.822C78.2018 200.822 79.3698 200.711 80.7965 200.597C82.2231 200.485 83.9084 200.373 85.7724 200.373C89.4818 200.373 93.9031 200.817 98.4138 202.59C109.2 206.829 129.287 206.965 131.67 206.965C131.82 206.965 131.9 206.965 131.903 206.965C131.904 206.965 131.984 206.965 132.135 206.965C134.52 206.965 154.606 206.829 165.391 202.59C169.903 200.817 174.323 200.373 178.032 200.373C179.896 200.373 181.582 200.485 183.008 200.597C184.435 200.711 185.603 200.822 186.434 200.822C186.779 200.822 187.066 200.802 187.29 200.756C189.656 200.261 187.644 198.711 187.763 197.782C187.788 197.578 188.067 197.502 188.511 197.502C189.139 197.502 190.099 197.653 191.15 197.804C192.202 197.954 193.342 198.105 194.332 198.105C194.835 198.105 195.3 198.066 195.694 197.969C198.179 197.349 196.936 195.737 196.463 194.869C196.123 194.248 195.844 193.593 196.435 193.593C196.668 193.593 197.035 193.694 197.587 193.94C198.244 194.232 199.338 194.481 200.488 194.481C202.76 194.481 205.26 193.51 205.103 189.974C204.888 185.145 204.352 179.166 205.114 179.166C205.192 179.166 205.286 179.23 205.394 179.366C205.934 180.044 206.724 180.616 207.484 180.616C208.355 180.616 209.186 179.868 209.556 177.672C210.25 173.556 207.311 146.344 201.771 123.569C199.612 114.693 196.332 107.164 192.331 100.785C198.903 109.017 203.716 118.684 206.562 129.357C209.663 141.776 212.008 154.393 213.644 167.088C214.17 171.162 214.654 175.256 214.91 179.357C215.016 181.061 215.572 186.11 212.998 186.11C212.6 186.11 212.128 185.99 211.568 185.718C211.41 185.641 211.222 185.598 211.035 185.598C210.695 185.598 210.358 185.741 210.2 186.077C209.19 188.236 209.782 191.221 209.898 193.484C210.031 196.098 210.994 199.687 207.688 201.22C207.25 201.423 206.764 201.504 206.256 201.504C204.792 201.504 203.139 200.835 201.894 200.52C201.815 200.499 201.731 200.489 201.647 200.489C201.296 200.489 200.924 200.66 200.766 200.978C199.836 202.846 201.739 204.111 198.862 205.102C198.556 205.208 198.236 205.251 197.907 205.251C197.203 205.251 196.452 205.056 195.699 204.863C194.946 204.668 194.188 204.475 193.472 204.475C192.902 204.475 192.356 204.597 191.859 204.94C191.491 205.194 191.274 205.62 191.399 206.07C191.827 207.608 191.135 207.921 190.091 207.921C189.526 207.921 188.858 207.829 188.21 207.79C185.922 207.656 183.648 207.505 181.368 207.505C180.175 207.505 178.979 207.546 177.779 207.652C171.468 208.208 165.695 210.84 159.512 212.034C150.474 213.781 141.1 214.296 131.903 214.296Z" fill="#3B3958"/>
<path d="M51.1355 183.983C52.1085 180.194 53.5329 176.833 55.3751 173.375C55.8715 172.443 54.4121 171.618 53.9719 172.555C52.3219 176.067 50.3725 179.923 50.6142 183.914C50.6319 184.201 51.0585 184.287 51.1355 183.983Z" fill="#211E3B"/>
<path d="M55.0545 184.086C56.3493 181.499 57.8128 179.091 59.2972 176.616C59.6076 176.099 58.8889 175.543 58.4623 175.974C56.4045 178.044 54.9852 180.955 54.4264 183.819C54.3565 184.179 54.8696 184.455 55.0545 184.086Z" fill="#211E3B"/>
<path d="M55.781 198.173C57.2706 191.313 59.7502 185.505 62.7039 179.181C62.9862 178.577 62.1872 177.794 61.6976 178.405C57.3758 183.793 55.3711 191.334 55.6272 198.151L55.781 198.173Z" fill="#211E3B"/>
<path d="M59.2474 197.361C61.6005 193.359 64.2365 190.005 67.7625 186.972C68.3141 186.496 67.5974 185.579 66.9859 185.965C63.0385 188.464 59.8729 192.6 58.7906 197.168C58.7261 197.44 59.1005 197.611 59.2474 197.361Z" fill="#211E3B"/>
<path d="M64.4531 199.498C67.7083 196.472 70.7974 193.943 74.8958 192.119C75.5881 191.81 75.0958 190.647 74.3775 190.891C70.2365 192.298 66.0329 195.151 63.8152 199.006C63.5813 199.411 64.1166 199.81 64.4531 199.498Z" fill="#211E3B"/>
<path d="M65.8746 203.502C69.0032 200.745 72.7579 200.645 76.4918 199.328C77.0657 199.126 77.0083 198.212 76.3429 198.223C72.3006 198.291 67.9902 199.861 65.123 202.751C64.6371 203.24 65.3647 203.951 65.8746 203.502Z" fill="#211E3B"/>
<path d="M73.2534 207.04C78.7047 204.947 83.3034 205.176 88.9741 205.984C89.4954 206.059 89.9474 205.324 89.3714 205.041C84.314 202.566 77.6901 203.612 72.9763 206.383C72.6378 206.583 72.8617 207.19 73.2534 207.04Z" fill="#211E3B"/>
<path d="M213.19 183.913C213.431 179.924 211.483 176.066 209.833 172.554C209.393 171.618 207.933 172.441 208.43 173.374C210.271 176.83 211.697 180.193 212.669 183.982C212.746 184.284 213.173 184.202 213.19 183.913Z" fill="#211E3B"/>
<path d="M209.379 183.819C208.82 180.954 207.401 178.046 205.343 175.974C204.92 175.547 204.195 176.094 204.508 176.617C205.992 179.091 207.456 181.499 208.751 184.086C208.935 184.451 209.449 184.182 209.379 183.819Z" fill="#211E3B"/>
<path d="M208.177 198.151C208.434 191.337 206.429 183.791 202.106 178.405C201.621 177.799 200.815 178.571 201.101 179.181C204.054 185.505 206.534 191.313 208.023 198.173L208.177 198.151Z" fill="#211E3B"/>
<path d="M205.013 197.168C203.93 192.602 200.765 188.464 196.818 185.966C196.213 185.583 195.483 186.491 196.041 186.972C199.567 190.006 202.203 193.36 204.555 197.362C204.702 197.608 205.078 197.443 205.013 197.168Z" fill="#211E3B"/>
<path d="M199.99 199.006C197.772 195.151 193.568 192.296 189.427 190.891C188.716 190.65 188.21 191.808 188.908 192.119C193.008 193.944 196.098 196.472 199.352 199.498C199.686 199.808 200.226 199.415 199.99 199.006Z" fill="#211E3B"/>
<path d="M198.682 202.751C195.815 199.86 191.503 198.291 187.463 198.223C186.802 198.212 186.735 199.124 187.314 199.328C191.047 200.645 194.802 200.745 197.931 203.501C198.439 203.951 199.168 203.242 198.682 202.751Z" fill="#211E3B"/>
<path d="M190.827 206.383C186.112 203.611 179.491 202.567 174.433 205.042C173.86 205.321 174.303 206.06 174.829 205.984C180.505 205.176 185.08 204.939 190.551 207.04C190.937 207.189 191.169 206.585 190.827 206.383Z" fill="#211E3B"/>
<path d="M208.489 128.825C202.056 104.689 185.697 85.8491 162.557 76.3744C147.932 70.3864 132.498 68.2424 116.998 71.5224C95.3529 76.1024 75.3389 88.5398 63.9088 107.796C55.638 121.728 52.7608 138.13 50.1208 153.9C48.9286 161.017 47.8979 168.177 47.2213 175.364C46.9208 178.557 45.6447 184.076 47.4452 187.113C48.1031 188.221 48.7504 188.884 50.0494 189.032C50.802 189.118 51.314 188.908 51.652 188.697C52.4004 188.23 52.2916 187.764 52.0468 190.533C51.6323 195.229 50.1218 201.973 56.1375 203.239C56.8307 203.384 61.2941 202.681 61.1165 202.542C60.7151 202.229 60.0984 204.82 60.6056 205.737C61.3968 207.164 63.6078 207.042 64.9427 207.102C65.3124 207.12 66.214 206.945 67.1698 206.772C68.4556 206.537 69.8389 206.302 70.1536 206.533C69.9936 206.417 69.9103 206.922 69.8656 207.429C69.8198 207.947 69.8151 208.466 69.8099 208.316C69.8213 208.652 69.9884 209.025 70.3051 209.181C72.8676 210.439 76.0036 210.116 79.057 209.792C80.6996 209.617 82.3169 209.444 83.8089 209.516C91.5689 209.89 98.6623 213.169 106.286 214.411C114.725 215.787 123.356 216.296 131.902 216.296C140.448 216.296 149.078 215.787 157.518 214.411C164.764 213.23 171.545 210.069 178.886 209.585C180.518 209.476 182.328 209.658 184.17 209.842C187.446 210.168 190.828 210.493 193.498 209.181C193.816 209.025 193.982 208.652 193.993 208.316C194.066 206.076 193.685 206.597 196.48 206.887C198.088 207.053 201.438 207.749 202.789 206.214C203.285 205.651 203.432 205.106 203.546 204.358C203.822 202.572 202.865 202.782 202.738 202.993C202.673 203.101 202.828 203.209 203.48 203.048C204.436 202.811 205.404 202.872 206.348 202.933C208.248 203.056 210.046 203.178 211.45 200.864C212.56 199.037 212.066 196.52 211.96 194.55C211.9 193.462 211.052 189.685 211.726 188.872C212.716 187.684 212.122 188.048 211.749 188.412C211.464 188.689 211.306 188.966 212.078 188.554C212.18 188.501 212.588 188.621 213.048 188.741C213.541 188.87 214.093 189 214.392 188.914C216.036 188.444 216.572 186.798 216.916 185.282C217.661 181.994 216.829 177.886 216.508 174.61C214.994 159.2 212.24 143.842 208.489 128.825C208.178 127.577 206.248 128.105 206.561 129.357C209.662 141.776 212.008 154.393 213.644 167.088C214.169 171.162 214.653 175.256 214.909 179.357C215.033 181.324 215.754 187.75 211.568 185.718C211.117 185.5 210.442 185.558 210.2 186.077C209.189 188.236 209.781 191.221 209.897 193.484C210.03 196.098 210.993 199.687 207.688 201.22C205.988 202.009 203.57 200.946 201.893 200.52C201.489 200.416 200.961 200.582 200.765 200.978C199.836 202.846 201.738 204.111 198.861 205.102C197.905 205.432 196.805 205.146 195.698 204.863C194.345 204.515 192.982 204.165 191.858 204.94C191.49 205.194 191.273 205.62 191.398 206.07C192.058 208.441 190.054 207.9 188.209 207.79C184.722 207.584 181.27 207.345 177.778 207.652C171.468 208.208 165.694 210.84 159.512 212.034C150.473 213.781 141.1 214.296 131.902 214.296C122.98 214.296 113.908 213.794 105.125 212.194C98.6489 211.013 92.6076 208.235 86.0249 207.652C82.7769 207.364 79.5556 207.542 76.3119 207.735C74.476 207.845 71.6681 208.72 72.4051 206.07C72.5307 205.616 72.3135 205.194 71.9452 204.94C70.8214 204.165 69.4583 204.515 68.1051 204.863C66.9989 205.146 65.899 205.432 64.9427 205.102C62.0651 204.111 63.9682 202.846 63.0389 200.978C62.8411 200.581 62.3187 200.416 61.9103 200.52C60.2416 200.944 57.8036 202.017 56.116 201.22C53.2755 199.878 53.7853 195.864 53.9061 193.484C54.0244 191.177 54.6166 188.241 53.6042 186.077C53.3624 185.562 52.6848 185.501 52.2359 185.718C48.0734 187.738 48.7499 181.921 48.8603 179.928C49.1275 175.048 49.7427 170.18 50.3968 165.34C52.1114 152.642 54.2947 139.825 57.7447 127.473C63.1228 108.217 75.59 92.1904 93.0823 82.4918C116.392 69.5664 142.573 68.7718 166.545 80.3251C186.848 90.1104 200.774 107.649 206.561 129.357C206.892 130.598 208.822 130.072 208.489 128.825Z" fill="#211E3B"/>
<path d="M93.4663 81.1433C93.4663 81.1433 89.9076 74.8926 90.4902 73.1433C91.0729 71.3966 99.2276 74.8926 99.2276 74.8926C99.2276 74.8926 97.2463 69.1833 98.1796 67.6686C99.1103 66.1539 106.101 70.782 106.101 70.782C106.101 70.782 102.14 61.61 104.704 56.1353C107.266 50.6593 116.586 65.4553 116.586 65.4553C116.586 65.4553 115.888 59.7473 117.169 58.93C118.45 58.1153 122.878 63.242 122.878 63.242C122.878 63.242 124.625 53.5726 132.548 46.466C140.47 39.3593 147.461 39.3593 142.568 65.4553C142.568 65.4553 150.606 57.1833 153.752 57.8819C156.897 58.5819 153.752 69.1833 153.752 69.1833C153.752 69.1833 160.392 63.9406 162.722 65.222C165.052 66.5033 161.79 72.6006 161.79 72.6006C161.79 72.6006 169.026 69.882 170.593 73.3766C172.158 76.8726 170.593 81.2793 170.593 81.2793C170.593 81.2793 157.48 83.1633 152.237 92.3673C146.994 101.571 145.014 106.115 144.081 105.183C143.15 104.251 141.752 102.037 140.704 103.202C139.654 104.367 136.858 107.747 135.693 107.514C134.528 107.281 133.713 104.717 133.13 104.834C132.548 104.95 131.264 107.653 130.857 107.526C130.45 107.397 128.704 104.601 128.237 104.601C127.77 104.601 126.838 107.545 126.14 107.53C125.441 107.514 122.645 102.621 121.364 103.435C120.081 104.251 118.8 105.999 117.752 105.882C116.704 105.766 114.618 86.926 93.4663 81.1433Z" fill="#211E3B"/>
<path d="M138.01 49.6377C130.106 65.1324 124.867 83.5804 128.818 100.946C128.991 101.703 130.079 101.367 129.963 100.63C127.106 82.4777 131.562 66.4724 138.201 49.7177L138.01 49.6377Z" fill="#4B496B"/>
<path d="M140.785 68.6842C136.562 78.3456 134.746 88.7176 135.448 99.2429C135.496 99.9722 136.62 99.9856 136.593 99.2429C136.221 88.7242 137.756 78.8002 141.261 68.8856C141.358 68.6109 140.904 68.4136 140.785 68.6842Z" fill="#4B496B"/>
<path d="M151.39 65.7865C144.517 75.1878 139.657 87.2345 139.486 98.9892C139.48 99.4345 140.204 99.5585 140.284 99.0972C142.393 86.9998 145.316 76.6012 151.481 65.8385L151.39 65.7865Z" fill="#4B496B"/>
<path d="M158.245 72.056C151.985 79.276 145.52 89.5013 144.985 99.3173C144.964 99.7 145.473 99.6986 145.598 99.4013C147.661 94.476 148.748 89.3173 151.104 84.452C153.182 80.1586 155.684 76.096 158.474 72.232C158.57 72.0986 158.353 71.9306 158.245 72.056Z" fill="#4B496B"/>
<path d="M166.787 76.0655C162.965 77.9028 158.468 80.5668 156.071 84.1828C155.928 84.3975 156.224 84.7202 156.441 84.5535C158.041 83.3228 159.388 81.7948 160.969 80.5322C162.871 79.0148 164.911 77.6748 167.039 76.4975C167.324 76.3402 167.073 75.9268 166.787 76.0655Z" fill="#4B496B"/>
<path d="M119.811 64.5018C121.651 76.0512 123.237 87.3752 124.433 99.0098C124.483 99.4952 125.18 99.5138 125.204 99.0098C125.729 87.8018 123.811 74.9712 119.872 64.4845L119.811 64.5018Z" fill="#4B496B"/>
<path d="M107.492 61.3726C115.518 72.6473 118.216 86.5233 120.171 99.9166C120.231 100.326 120.851 100.202 120.867 99.822C121.388 86.8433 116.12 71.1513 107.575 61.31L107.492 61.3726Z" fill="#4B496B"/>
<path d="M101.232 72.5338C106.414 79.0418 111.108 85.8165 115.966 92.5498C116.276 92.9778 116.94 92.6125 116.686 92.1298C112.84 84.8525 107.266 78.0871 101.322 72.4458L101.232 72.5338Z" fill="#4B496B"/>
<path d="M93.1642 134.09C77.5709 133.697 74.6094 152.449 79.9389 160.937C82.6042 165.182 85.9362 168.132 93.1642 168.132C100.16 168.132 103.726 165.182 106.391 160.937C111.72 152.449 108.76 133.697 93.1642 134.09Z" fill="white"/>
<path d="M109.082 145.519C105.868 134.745 93.1622 128.768 83.3835 135.976C75.8293 141.543 74.5689 153.64 79.0755 161.443C79.7195 162.557 81.4489 161.551 80.8035 160.433C77.1795 154.16 77.6862 144.741 82.6915 139.297C90.6369 130.653 104.077 135.739 107.154 146.049C107.521 147.28 109.452 146.756 109.082 145.519Z" fill="#211E3B"/>
<path d="M107.089 151.668C107.089 158.403 102.673 163.864 97.2241 163.864C91.7748 163.864 87.3574 158.403 87.3574 151.668C87.3574 144.932 91.7748 139.474 97.2241 139.474C102.673 139.474 107.089 144.932 107.089 151.668Z" fill="#211E3B"/>
<path d="M170.64 134.09C186.235 133.697 189.196 152.449 183.865 160.937C181.201 165.182 177.869 168.132 170.64 168.132C163.644 168.132 160.079 165.182 157.413 160.937C152.084 152.449 155.045 133.697 170.64 134.09Z" fill="white"/>
<path d="M156.652 146.05C159.735 135.718 173.176 130.666 181.113 139.298C186.117 144.739 186.624 154.163 183.003 160.434C182.357 161.55 184.085 162.559 184.729 161.443C189.236 153.641 187.975 141.543 180.421 135.977C170.649 128.774 157.936 134.75 154.722 145.519C154.353 146.754 156.284 147.283 156.652 146.05Z" fill="#211E3B"/>
<path d="M156.715 151.668C156.715 158.403 161.132 163.864 166.58 163.864C172.03 163.864 176.447 158.403 176.447 151.668C176.447 144.932 172.03 139.474 166.58 139.474C161.132 139.474 156.715 144.932 156.715 151.668Z" fill="#211E3B"/>
<path d="M77.7532 179.312C62.7205 175.866 67.5282 165.587 77.7532 168.031C91.9092 171.416 90.0545 182.134 77.7532 179.312Z" fill="#FFADC6"/>
<path d="M186.051 179.312C201.084 175.866 196.276 165.587 186.051 168.031C171.895 171.416 173.75 182.134 186.051 179.312Z" fill="#FFADC6"/>
<path d="M86.3089 129.543C88.9489 128.413 92.5596 127.616 96.7409 129.119C99.7329 130.195 101.39 127.797 99.1983 126.083C96.6743 124.105 90.3423 122.959 85.9156 125.133C81.4889 127.307 81.7929 128.789 82.1463 129.635C82.4996 130.477 83.8276 130.607 86.3089 129.543Z" fill="#211E3B"/>
<path d="M177.497 129.543C174.858 128.413 171.247 127.616 167.065 129.119C164.074 130.195 162.415 127.797 164.607 126.083C167.133 124.105 173.465 122.959 177.89 125.133C182.317 127.307 182.014 128.789 181.659 129.635C181.306 130.477 179.978 130.607 177.497 129.543Z" fill="#211E3B"/>
<path d="M152.028 175.447C152.028 175.447 163.104 177.708 164.976 176.071C166.85 174.432 169.5 171.469 169.5 171.469C169.5 171.469 171.374 181.453 169.111 185.431C166.85 189.409 159.36 191.281 151.014 190.58L152.028 175.447Z" fill="#FFE6C2"/>
<path d="M169.732 183.265C170.41 181.461 169.61 178.865 168.212 177.59C167.948 177.35 167.597 177.649 167.737 177.957C168.149 178.862 168.68 179.705 168.982 180.658C169.253 181.514 169.35 182.409 169.612 183.265H169.732Z" fill="#211E3B"/>
<path d="M167.909 187.147C168.689 184.7 167.698 181.812 166.342 179.732C166.146 179.431 165.653 179.616 165.751 179.98C166.053 181.096 166.561 182.14 166.89 183.248C167.261 184.503 167.389 185.776 167.417 187.081C167.423 187.365 167.822 187.417 167.909 187.147Z" fill="#211E3B"/>
<path d="M159.389 176.658C161.438 179.04 161.478 181.953 162.705 184.681C162.794 184.878 163.089 184.766 163.094 184.575C163.158 181.639 161.76 178.414 159.684 176.363C159.49 176.173 159.216 176.456 159.389 176.658Z" fill="#211E3B"/>
<path d="M157.377 176.445C157.953 177.465 158.467 178.537 158.88 179.635C159.217 180.531 159.373 181.496 159.809 182.351C159.927 182.58 160.269 182.46 160.276 182.224C160.324 180.16 158.853 177.856 157.647 176.288C157.528 176.133 157.275 176.264 157.377 176.445Z" fill="#211E3B"/>
<path d="M151.762 176.411C154.983 177.06 158.344 177.649 161.636 177.661C165.738 177.676 167.555 175.121 170.208 172.176C169.651 172.029 169.094 171.881 168.536 171.735C169.199 175.361 169.882 179.927 168.783 183.509C166.759 190.111 156.472 189.953 151.014 189.58C151.347 189.913 151.68 190.247 152.014 190.58C152.352 185.535 152.69 180.491 153.028 175.447C153.114 174.161 151.114 174.167 151.028 175.447C150.69 180.491 150.351 185.535 150.014 190.58C149.976 191.144 150.504 191.544 151.014 191.58C156.979 191.987 166.875 191.904 170.123 185.632C172.256 181.511 171.266 175.587 170.464 171.201C170.331 170.471 169.272 170.229 168.794 170.761C167.626 172.057 166.395 173.641 165.002 174.696C163.47 175.853 162.046 175.717 160.151 175.597C157.516 175.431 154.882 175.004 152.294 174.481C151.038 174.229 150.499 176.156 151.762 176.411Z" fill="#211E3B"/>
<path d="M111.776 175.447C111.776 175.447 100.7 177.708 98.8278 176.071C96.9558 174.432 94.3038 171.469 94.3038 171.469C94.3038 171.469 92.4318 181.453 94.6931 185.431C96.9558 189.409 104.444 191.281 112.79 190.58L111.776 175.447Z" fill="#FFE6C2"/>
<path d="M94.1933 183.265C94.4546 182.409 94.5519 181.514 94.8239 180.658C95.1253 179.705 95.6573 178.862 96.0679 177.957C96.2066 177.651 95.8586 177.349 95.5933 177.59C94.1933 178.866 93.3959 181.462 94.0733 183.265H94.1933Z" fill="#211E3B"/>
<path d="M96.3884 187.081C96.4164 185.779 96.5444 184.501 96.915 183.248C97.2444 182.14 97.7537 181.096 98.0537 179.98C98.151 179.619 97.6617 179.428 97.4644 179.732C96.1057 181.815 95.115 184.696 95.8977 187.147C95.983 187.415 96.3817 187.368 96.3884 187.081Z" fill="#211E3B"/>
<path d="M104.122 176.363C102.045 178.415 100.646 181.639 100.711 184.575C100.715 184.764 101.01 184.877 101.099 184.68C102.326 181.952 102.366 179.04 104.415 176.657C104.589 176.456 104.314 176.172 104.122 176.363Z" fill="#211E3B"/>
<path d="M106.158 176.288C104.95 177.856 103.48 180.161 103.528 182.224C103.535 182.46 103.878 182.58 103.995 182.351C104.432 181.496 104.587 180.531 104.924 179.635C105.338 178.537 105.852 177.465 106.428 176.445C106.53 176.264 106.278 176.133 106.158 176.288Z" fill="#211E3B"/>
<path d="M111.511 174.482C108.924 175.005 106.29 175.431 103.654 175.598C101.77 175.717 100.335 175.855 98.803 174.697C97.4097 173.642 96.1803 172.059 95.011 170.762C94.5323 170.23 93.4737 170.471 93.3403 171.202C92.535 175.609 91.5723 181.479 93.683 185.633C96.8723 191.913 106.888 191.983 112.791 191.581C113.302 191.545 113.83 191.149 113.791 190.581C113.454 185.535 113.115 180.491 112.776 175.447C112.691 174.17 110.691 174.159 110.776 175.447C111.115 180.491 111.454 185.535 111.791 190.581C112.124 190.247 112.458 189.914 112.791 189.581C107.323 189.954 97.0523 190.111 95.0217 183.51C93.919 179.923 94.6057 175.362 95.2683 171.735C94.711 171.882 94.1537 172.03 93.5977 172.177C96.231 175.099 98.079 177.677 102.168 177.662C105.46 177.649 108.822 177.061 112.043 176.411C113.303 176.157 112.771 174.23 111.511 174.482Z" fill="#211E3B"/>
<path d="M151.404 169.465C149.766 166.085 143.212 165.196 137.44 162.271C134.17 160.613 132.947 159.804 131.903 159.804C130.858 159.804 129.635 160.613 126.364 162.271C120.592 165.196 114.039 166.085 112.402 169.465C110.919 172.524 105.303 184.729 107.331 190.033C109.359 195.337 123.052 197.756 131.903 197.756C140.752 197.756 154.446 195.337 156.474 190.033C158.502 184.729 152.886 172.524 151.404 169.465Z" fill="#FFADC6"/>
<path d="M116.006 171.707C115.75 171.707 115.526 171.375 115.767 171.18C119.406 168.244 125.843 163.743 130.627 163.364C130.851 163.347 131.078 163.339 131.309 163.339C136.398 163.339 143.279 167.468 147.469 169.792C148.185 170.19 147.737 171.104 147.067 171.104C146.963 171.104 146.854 171.083 146.743 171.032C142.151 168.986 136.607 165.527 131.415 165.527C131.223 165.527 131.031 165.532 130.841 165.542C125.918 165.791 120.507 169.348 116.146 171.671C116.101 171.695 116.053 171.707 116.006 171.707Z" fill="#FFD6E3"/>
<path d="M131.903 197.756C123.052 197.756 109.359 195.337 107.331 190.033C106.648 188.247 106.841 185.673 107.443 182.933C109.756 188.087 123.173 190.445 131.903 190.445C140.631 190.445 154.048 188.087 156.361 182.932C156.96 185.661 157.155 188.225 156.481 190.013C156.479 190.02 156.476 190.027 156.473 190.033C154.445 195.337 140.752 197.756 131.903 197.756Z" fill="#FF97B4"/>
<path d="M152.267 168.96C150.548 166.477 148.107 165.493 145.365 164.399C141.54 162.868 137.536 160.36 133.627 159.231C132.047 158.773 131.476 158.912 129.939 159.331C125.556 160.529 120.681 163.243 116.492 165.175C111.383 167.531 109.897 172.045 108.103 177.121C106.511 181.629 104.064 188.381 107.797 192.493C112.097 197.232 120.968 198.023 126.855 198.528C134.299 199.167 142.349 198.583 149.453 196.115C154.391 194.4 158.075 191.991 157.885 186.427C157.681 180.396 154.828 174.317 152.267 168.96C151.712 167.8 149.987 168.812 150.54 169.971C152.415 173.891 154.197 178.02 155.187 182.267C155.832 185.032 156.607 188.612 154.593 191.08C152.795 193.284 149.072 194.196 146.472 194.913C136.151 197.757 121.193 198.281 111.611 192.777C105.884 189.487 108.239 182.728 110.032 177.653C112.356 171.076 113.883 168.351 120.808 165.649C124.404 164.248 129.411 160.512 133.087 161.207C135.055 161.58 137.257 163.328 139.12 164.143C142.704 165.705 148.18 166.56 150.54 169.971C151.268 171.021 153.001 170.023 152.267 168.96Z" fill="#211E3B"/>
<path d="M125.74 169.465C125.74 169.465 114.273 173.575 115.599 176.695C116.925 179.815 125.584 174.639 125.74 169.465Z" fill="#211E3B"/>
<path d="M138.064 169.465C138.064 169.465 149.531 173.575 148.206 176.695C146.88 179.815 138.22 174.639 138.064 169.465Z" fill="#211E3B"/>
<path d="M79.2713 92.6693C79.2713 92.6693 74.4014 93.9759 69.5317 92.6693C64.6623 91.3626 58.9612 85.3066 57.18 78.4173C55.3983 71.5293 56.3727 64.1319 60.9811 57.8693C65.6123 51.5759 74.2827 49.6746 76.0645 55.2559C77.8459 60.8386 83.2166 80.9119 97.9446 81.6239L79.2713 92.6693Z" fill="#4B496B"/>
<path d="M79.0035 91.7043C65.6935 94.8563 56.3541 82.4483 57.4197 70.0123C57.9837 63.4336 61.9984 54.8736 69.1656 53.2309C74.6176 51.9803 75.4041 56.7949 76.717 60.5483C80.2516 70.6589 86.1795 81.5083 97.9436 82.6243C99.2249 82.7456 99.2155 80.7456 97.9436 80.6243C86.2449 79.5149 81.0182 67.3989 77.8435 57.5949C75.6478 50.8163 70.417 49.1149 64.1926 53.3883C46.6134 65.4603 57.1003 98.9456 79.5355 93.6349C80.7875 93.3376 80.2582 91.4096 79.0035 91.7043Z" fill="#211E3B"/>
<path d="M90.2477 83.8192C90.2477 83.8192 81.5784 82.8685 76.7084 73.9619C71.8391 65.0539 72.0771 60.5405 69.8199 59.8285C67.5636 59.1152 60.6745 67.3099 63.2881 77.0499C65.9005 86.7885 72.8724 90.7579 81.9144 89.4285" fill="#666391"/>
<path d="M90.2477 82.8191C79.8451 81.4644 76.3557 70.8391 72.8881 62.5711C71.3344 58.8644 69.1715 57.6245 66.0719 60.8378C61.0568 66.0364 60.7313 74.4498 63.5235 80.7524C66.9011 88.3764 73.9021 91.3431 81.9144 90.4285C83.1797 90.2845 83.1931 88.2831 81.9144 88.4285C72.2876 89.5271 64.1579 83.7125 63.7256 73.4831C63.5808 70.0578 64.5172 64.5244 67.486 62.2524C70.95 59.6004 71.2485 64.0164 72.2188 66.5511C75.4193 74.9044 80.5344 83.5538 90.2477 84.8191C91.5211 84.9844 91.5091 82.9831 90.2477 82.8191Z" fill="#211E3B"/>
<path d="M74.8774 92.2002C63.8144 92.2015 56.469 81.1189 57.4206 70.0122C57.7024 66.7255 58.8456 62.9442 60.8128 59.7775C58.6805 70.1682 58.6884 85.7295 75.1258 92.1989C75.043 92.2002 74.9597 92.2002 74.8774 92.2002Z" fill="#363452"/>
<path d="M74.2191 93.25C72.7775 93.25 71.1551 93.106 69.5322 92.67C64.6623 91.3633 58.9612 85.3073 57.18 78.418C55.3983 71.53 56.3727 64.1327 60.9811 57.87C61.0989 57.71 61.2301 57.5646 61.3541 57.41C61.165 58.162 60.9822 58.954 60.8129 59.778C58.8457 62.9447 57.7025 66.726 57.4207 70.0127C56.4691 81.1193 63.8145 92.202 74.8775 92.2007C74.9598 92.2007 75.0431 92.2007 75.1259 92.1993C75.867 92.4913 76.6415 92.7647 77.4513 93.018C76.5879 93.1407 75.4718 93.25 74.2191 93.25Z" fill="#18162D"/>
<path d="M184.533 92.6693C184.533 92.6693 189.403 93.9759 194.273 92.6693C199.142 91.3626 204.843 85.3066 206.625 78.4173C208.406 71.5293 207.431 64.1319 202.823 57.8693C198.191 51.5759 189.521 49.6746 187.741 55.2559C185.958 60.8386 180.587 80.9119 165.859 81.6239L184.533 92.6693Z" fill="#4B496B"/>
<path d="M184.267 93.6348C206.663 98.9348 217.27 65.4028 199.61 53.3882C193.655 49.3375 188.362 50.5522 186.101 57.1508C182.707 67.0575 177.911 79.4802 165.859 80.6242C164.59 80.7455 164.577 82.7468 165.859 82.6242C177.621 81.5082 183.554 70.6588 187.086 60.5482C188.401 56.7895 189.202 51.9842 194.638 53.2308C201.771 54.8655 205.851 63.4242 206.383 70.0122C207.386 82.4535 198.174 94.8708 184.799 91.7042C183.547 91.4095 183.014 93.3375 184.267 93.6348Z" fill="#211E3B"/>
<path d="M173.557 83.8192C173.557 83.8192 182.226 82.8685 187.097 73.9619C191.965 65.0539 191.727 60.5405 193.985 59.8285C196.242 59.1152 203.13 67.3099 200.517 77.0499C197.905 86.7885 190.933 90.7579 181.89 89.4285" fill="#666391"/>
<path d="M173.555 84.8189C183.266 83.5536 188.385 74.9016 191.585 66.5509C192.567 63.9856 192.894 59.7976 196.318 62.2522C199.241 64.3482 200.25 70.2642 200.078 73.4829C199.529 83.7269 191.633 89.5402 181.889 88.4282C180.611 88.2829 180.622 90.2842 181.889 90.4282C189.59 91.3082 196.407 88.6576 199.941 81.4629C203.086 75.0576 202.957 66.2256 197.731 60.8376C194.894 57.9122 192.678 58.5389 191.09 62.1042C187.369 70.4549 184.287 81.4202 173.555 82.8189C172.297 82.9829 172.281 84.9856 173.555 84.8189Z" fill="#211E3B"/>
<path d="M188.955 92.2061C188.861 92.2061 188.765 92.2047 188.67 92.2034C205.121 85.7341 205.125 70.1621 202.99 59.7701C204.966 62.9367 206.118 66.7207 206.383 70.0127C207.278 81.1181 200.034 92.2061 188.955 92.2061Z" fill="#363452"/>
<path d="M189.586 93.25C188.334 93.25 187.218 93.1407 186.354 93.018C187.16 92.766 187.932 92.4927 188.671 92.2033C188.766 92.2047 188.862 92.206 188.956 92.206C200.035 92.206 207.279 81.118 206.384 70.0127C206.119 66.7207 204.967 62.9367 202.991 59.77C202.822 58.9487 202.639 58.1593 202.451 57.41C202.575 57.5646 202.707 57.71 202.824 57.87C207.432 64.1327 208.407 71.53 206.626 78.418C204.844 85.3073 199.143 91.3633 194.272 92.67C192.65 93.106 191.028 93.25 189.586 93.25Z" fill="#18162D"/>
</g>
</svg>
