<svg width="263" height="263" viewBox="0 0 263 263" fill="none" xmlns="http://www.w3.org/2000/svg">
<circle cx="131.5" cy="131.5" r="131.5" fill="#FFE5AD"/>
<mask id="mask0_346_12612" style="mask-type:alpha" maskUnits="userSpaceOnUse" x="0" y="0" width="263" height="263">
<circle cx="131.5" cy="131.5" r="131.5" fill="#D9D9D9"/>
</mask>
<g mask="url(#mask0_346_12612)">
<path d="M133.26 33.9999C191.505 33.9999 201.072 71.9526 209.029 92.8871C212.74 102.654 217.217 100.377 222.388 98.0985C228.301 95.4957 235.123 92.8915 242.747 108.294C256.881 136.849 269.451 253.646 140.017 255.736C111.287 256.199 57.2364 246.89 33.5277 211.798C28.1018 203.767 26.4669 191.909 35.8698 190.684C45.274 189.456 40.6346 180.029 34.4899 155.616C17.7339 89.0298 68.2597 33.9999 133.26 33.9999Z" fill="#FFD780"/>
<path d="M14.3612 161.281C13.7635 172.09 30.6232 193.837 34.1233 183.041C37.6249 172.249 14.9604 150.474 14.3612 161.281Z" fill="#FFD780"/>
<path d="M13.8649 185.935C15.3716 190.202 25.3347 193.806 25.9368 190.488C26.5403 187.172 8.96044 172.022 13.8649 185.935Z" fill="#FFD780"/>
<path d="M216.576 92.886C207.566 88.9264 216.985 61.49 225.98 68.0308C234.974 74.573 225.587 96.8471 216.576 92.886Z" fill="#FFD780"/>
<path d="M209.03 71.7111C202.102 74.3038 198.86 48.8162 206.697 50.8601C214.532 52.904 216.087 69.0694 209.03 71.7111Z" fill="#FFD780"/>
<path d="M166.926 202.862H103.998C72.5356 205.755 57.9561 241.252 57.9561 241.252C82.6371 263.189 135.462 262.733 135.462 262.733C135.462 262.733 188.286 263.189 212.965 241.252C212.965 241.252 198.386 205.755 166.926 202.862Z" fill="#92CA5F"/>
<path d="M214.007 240.966C209.812 230.889 202.819 221.344 194.613 214.201C184.386 205.298 172.861 201.782 159.631 201.782C144.916 201.782 130.202 201.782 115.488 201.782C102.791 201.782 91.834 202.797 80.9447 210.534C70.5293 217.933 61.838 229.148 56.9162 240.966C56.3803 242.248 58.4718 242.807 58.9989 241.541C62.8952 232.184 69.9632 222.584 77.8378 215.729C88.4131 206.524 99.8944 203.942 113.3 203.942C126.563 203.942 139.828 203.942 153.091 203.942C165.376 203.942 175.906 203.958 186.842 211.019C197.735 218.054 207.072 229.888 211.925 241.541C212.452 242.806 214.542 242.25 214.007 240.966Z" fill="#0F663C"/>
<path d="M70.9226 243.891C70.126 243.891 69.1782 243.685 68.1008 243.209C62.8506 240.893 61.949 235.763 65.9244 235.763C66.7498 235.763 67.7839 235.984 69.0342 236.497C75.0694 238.973 74.8116 243.891 70.9226 243.891ZM77.7514 240.519C75.7118 240.519 74.7986 237.932 77.4259 237.056C78.1734 236.807 78.8562 236.693 79.4324 236.693C81.4359 236.693 82.1259 238.067 79.6643 239.827C78.9743 240.32 78.3189 240.52 77.7514 240.519ZM73.9546 235.77C73.8797 235.77 73.8048 235.767 73.7255 235.763C68.7706 235.502 67.7696 230.816 71.6759 230.816C71.817 230.816 71.964 230.822 72.1181 230.835C76.445 231.191 77.472 235.77 73.9546 235.77ZM182.993 226.194C179.762 226.194 178.537 222.524 182.413 222.524C186.199 222.524 187.185 225.704 183.551 226.159C183.359 226.184 183.173 226.194 182.993 226.194ZM188.807 222.152C186.852 222.152 185.651 220.104 187.147 219.312C187.738 218.998 188.38 218.865 188.985 218.865C191.022 218.865 192.641 220.375 190.482 221.66C189.894 222.008 189.324 222.152 188.807 222.152ZM181.744 220.182C180.997 220.182 180.11 220.064 179.08 219.796C176.779 219.198 175.493 217.929 175.163 216.709C177.193 216.013 179.263 215.247 181.363 214.403C185.746 216.103 186.143 220.182 181.744 220.182Z" fill="#6DB13B"/>
<path d="M170.336 221.083C159.405 212.963 156.89 205.303 156.343 202.861H114.581C114.033 205.303 111.518 212.963 100.587 221.083C88.9085 229.759 81.2989 236.509 80.0977 253.718C105.45 262.987 135.462 262.734 135.462 262.734C135.462 262.734 165.475 262.987 190.824 253.718C189.623 236.509 182.015 229.759 170.336 221.083Z" fill="#CEEDAE"/>
<path d="M103.218 219.006C96.9764 217.293 90.2296 214.924 83.2207 211.648C85.7659 209.99 88.3686 208.657 91.0434 207.597C94.0106 208.681 97.0124 209.655 99.9911 210.551C103.042 211.467 106.126 212.268 109.233 212.949C107.694 214.85 105.728 216.899 103.218 219.006Z" fill="#73B541"/>
<path d="M83.2198 211.648C82.828 211.466 82.4348 211.28 82.043 211.092C84.2784 209.54 86.6752 208.125 89.2334 206.918C89.8354 207.149 90.4375 207.375 91.0425 207.597C88.3677 208.657 85.7649 209.991 83.2198 211.648Z" fill="#0C5B29"/>
<path d="M167.706 219.006C165.245 216.94 163.308 214.932 161.784 213.063C168.024 211.815 174.565 210.113 180.869 207.807C182.856 208.67 184.842 209.725 186.843 211.017C187.149 211.216 187.455 211.418 187.759 211.622C185.599 212.632 183.465 213.557 181.363 214.402C181.008 214.264 180.624 214.142 180.217 214.038C179.474 213.851 178.808 213.766 178.223 213.766C175.811 213.766 174.756 215.2 175.164 216.708C172.612 217.583 170.121 218.343 167.706 219.006Z" fill="#73B541"/>
<path d="M187.758 211.623C187.454 211.419 187.148 211.217 186.841 211.018C184.841 209.726 182.854 208.67 180.868 207.807C181.369 207.625 181.869 207.437 182.368 207.246C184.672 208.379 186.843 209.679 188.88 211.093C188.504 211.272 188.131 211.449 187.758 211.623Z" fill="#0C5B29"/>
<path d="M175.163 216.709C174.755 215.201 175.809 213.766 178.222 213.766C178.807 213.766 179.472 213.851 180.216 214.039C180.623 214.142 181.006 214.265 181.362 214.403C179.262 215.247 177.192 216.013 175.163 216.709Z" fill="#559E28"/>
<path d="M135.461 223.42C129.42 223.42 117.674 222.975 103.217 219.007C105.727 216.899 107.694 214.851 109.232 212.95C117.914 214.854 126.78 215.829 135.657 215.829C141.227 215.829 146.8 215.446 152.338 214.667C155.354 214.242 158.528 213.715 161.783 213.064C163.307 214.933 165.244 216.941 167.704 219.007C153.249 222.975 141.502 223.42 135.461 223.42Z" fill="#A2D477"/>
<path d="M81.4859 244.736C113.677 259.849 156.425 256.344 189.512 245.141C190.166 244.918 189.886 243.875 189.225 244.099C154.813 255.751 115.865 256.291 81.5896 244.49C81.447 244.439 81.3461 244.671 81.4859 244.736Z" fill="#0F663C"/>
<path d="M86.77 233.409C115.766 246.236 153.754 243.305 183.369 233.319C184.025 233.097 183.743 232.054 183.081 232.277C152.175 242.698 117.868 242.625 86.8737 233.163C86.7326 233.118 86.6274 233.346 86.77 233.409Z" fill="#0F663C"/>
<path d="M99.1227 222.284C121.352 230.412 149.739 229.946 172.401 223.044C173.063 222.842 172.781 221.8 172.114 222.003C148.269 229.265 123.179 226.665 99.1947 222.021C99.0233 221.988 98.9599 222.223 99.1227 222.284Z" fill="#0F663C"/>
<path d="M103.508 86.7405C103.508 86.7405 109.847 62.071 116.893 60.8971C123.943 59.7218 126.123 93.2842 126.123 93.2842L103.508 86.7405Z" fill="#0F663C"/>
<path d="M167.414 86.7391C167.414 86.7391 161.077 62.071 154.029 60.8971C146.981 59.7218 144.799 93.2842 144.799 93.2842L167.414 86.7391Z" fill="#0F663C"/>
<path d="M148.442 90.1163C151.864 84.2049 150.615 59.4274 141.892 52.8838C133.169 46.3386 122.992 56.1563 118.936 82.8798C118.936 82.8798 125.871 85.834 131.183 91.6388C137.617 98.6693 145.153 95.79 148.442 90.1163Z" fill="#0F663C"/>
<path d="M120.401 80.5207C120.686 77.1761 121.503 73.8171 122.502 70.6224C124.303 64.8608 128.278 54.8098 134.285 52.3266C143.284 48.6046 147.164 63.3772 148.22 69.4441C148.904 73.3663 149.299 77.385 149.321 81.3705C149.328 82.7605 151.489 82.7634 151.481 81.3705C151.434 72.1131 149.543 48.4634 135.777 49.7281C128.885 50.3604 124.28 60.1248 122.017 65.63C120.084 70.3328 118.675 75.4347 118.24 80.5207C118.121 81.9063 120.283 81.8991 120.401 80.5207Z" fill="#92CA5F"/>
<path d="M215.532 133.77C212.679 130.39 204.937 128.915 204.937 128.915C204.937 128.915 203.093 98.9185 188.162 85.8715C165.427 66.0057 156.157 88.9626 135.363 88.9626C114.573 88.9626 105.301 66.0057 82.566 85.8715C67.6364 98.9185 65.7913 128.915 65.7913 128.915C65.7913 128.915 58.0492 130.39 55.1958 133.77C51.2852 138.405 49.0151 146.519 52.9891 165.555C58.0118 189.625 69.6386 196.159 78.4263 200.716C103.6 213.766 126.138 214.777 135.363 214.777C144.592 214.777 167.13 213.766 192.302 200.716C201.091 196.159 212.716 189.625 217.74 165.555C221.713 146.519 219.443 138.405 215.532 133.77Z" fill="#92CA5F"/>
<path d="M135.585 213.68C126.753 213.68 117.926 212.702 109.281 210.756C92.2382 206.919 70.7952 199.938 61.1446 184.05C54.9812 173.902 51.9117 160.119 52.1825 148.22C52.4158 149.554 52.6823 150.947 52.9877 152.406C58.0103 176.476 69.6371 183.01 78.4263 187.565C103.599 200.617 126.136 201.628 135.362 201.628C144.59 201.628 167.128 200.617 192.3 187.565C201.09 183.01 212.715 176.476 217.739 152.406C218.22 150.098 218.609 147.955 218.914 145.957C219.185 150.005 218.704 154.19 218.17 157.967C216.615 168.931 213.702 180.496 206.356 189.111C194.612 202.888 172.862 209.016 155.801 211.954C149.115 213.106 142.348 213.68 135.585 213.68Z" fill="#73B541"/>
<path d="M70.5686 128.749C70.488 128.749 70.4044 128.694 70.4073 128.599C70.982 111.945 77.9175 87.5626 96.1513 82.3369C96.206 82.321 96.2593 82.3139 96.3112 82.3139C96.8614 82.3139 97.174 83.155 96.6122 83.4316C78.7903 92.2007 73.9636 110.439 70.7055 128.64C70.6911 128.714 70.6306 128.749 70.5686 128.749Z" fill="#BEDF85"/>
<path d="M216.493 133.007C214.255 130.885 210.684 128.698 207.534 128.38C205.875 128.212 205.63 127.579 206.193 128.628C205.837 127.967 205.988 126.433 205.902 125.689C205.02 118.011 203.357 110.318 200.597 103.09C194.886 88.1414 180.558 72.1488 163.007 78.1351C153.983 81.2132 146.377 87.5768 136.462 87.8519C126.293 88.1357 118.537 82.1696 109.491 78.6522C92.2094 71.9314 77.3735 86.3439 71.1726 101.451C68.1262 108.873 66.3272 116.827 65.3304 124.773C65.2094 125.733 65.2671 126.882 64.9963 127.808C64.5901 129.194 64.8882 128.345 65.4312 127.928C62.8529 129.911 58.5246 129.613 55.7432 131.949C51.3587 135.631 50.2352 141.923 50.0508 147.327C49.6792 158.223 52.1898 170.331 56.704 180.209C64.6117 197.516 82.6784 205.347 99.9919 210.551C116.928 215.64 134.822 217.131 152.34 214.666C171.553 211.963 197.175 205.085 209.516 188.61C216.708 179.01 219.558 166.487 220.748 154.764C221.508 147.255 221.393 139.158 216.493 133.007C215.626 131.919 214.106 133.457 214.965 134.533C220.111 140.995 219.256 150.319 218.171 157.967C216.617 168.931 213.703 180.496 206.357 189.111C194.614 202.888 172.864 209.016 155.802 211.954C140.385 214.61 124.548 214.192 109.282 210.756C92.2397 206.919 70.7967 199.938 61.1461 184.05C54.8271 173.647 51.7606 159.423 52.2114 147.327C52.5657 137.786 56.5311 131.954 66.2753 129.956C66.7593 129.856 67.0373 129.368 67.0675 128.914C68.0311 114.323 72.3264 96.7161 83.5268 86.6362C93.0089 78.102 102.472 77.4019 113.448 82.8106C120.516 86.2934 127.453 90.0427 135.561 90.0427C143.667 90.0427 150.606 86.2934 157.675 82.8106C168.628 77.412 178.134 78.1221 187.595 86.6362C198.795 96.7161 203.09 114.323 204.054 128.914C204.083 129.365 204.366 129.858 204.848 129.956C208.496 130.703 212.212 131.923 214.965 134.533C215.973 135.49 217.504 133.966 216.493 133.007Z" fill="#0F663C"/>
<path d="M138.721 107.181C138.224 107.181 137.683 107.155 137.099 107.101C128.349 106.291 126.793 99.9528 134.033 99.9528C134.687 99.9528 135.416 100.005 136.215 100.117C143.845 101.192 146.338 107.182 138.721 107.181Z" fill="#6DB13B"/>
<path d="M130.419 96.3174C129.709 96.3174 128.894 96.2108 128.004 95.9688C123.088 94.6365 123.157 91.06 126.651 91.06C127.474 91.06 128.484 91.2573 129.663 91.7283C134.804 93.7809 133.865 96.3174 130.419 96.3174Z" fill="#6DB13B"/>
<path d="M141.662 98.4473C136.268 98.4473 135.949 94.1924 140.333 93.6882C140.546 93.6637 140.756 93.6522 140.963 93.6522C145.058 93.6522 147.426 98.2744 141.992 98.4415C141.879 98.4458 141.77 98.4473 141.662 98.4473Z" fill="#6DB13B"/>
<path d="M148.723 104.597C147.11 104.597 145.75 102.613 146.911 100.739C147.447 99.8751 148.149 99.5222 148.831 99.5222C150.513 99.5222 152.06 101.674 150.608 103.545C150.034 104.288 149.358 104.597 148.723 104.597Z" fill="#6DB13B"/>
<path d="M103.697 108.298C86.8501 107.871 83.651 128.13 89.4082 137.301C92.2876 141.886 95.8871 145.072 103.697 145.072C111.253 145.072 115.105 141.886 117.984 137.301C123.741 128.13 120.542 107.871 103.697 108.298Z" fill="white"/>
<path d="M120.892 120.643C117.418 109.005 103.692 102.549 93.1286 110.334C84.9674 116.35 83.6077 129.417 88.4762 137.846C89.1704 139.049 91.0386 137.963 90.3415 136.755C86.4265 129.978 86.9739 119.804 92.3825 113.921C100.966 104.586 115.485 110.078 118.808 121.217C119.205 122.546 121.291 121.98 120.892 120.643Z" fill="#0F663C"/>
<path d="M118.74 127.285C118.74 134.562 113.969 140.46 108.082 140.46C102.197 140.46 97.4248 134.562 97.4248 127.285C97.4248 120.009 102.197 114.111 108.082 114.111C113.969 114.111 118.74 120.009 118.74 127.285Z" fill="#0F663C"/>
<path d="M167.227 108.298C184.073 107.871 187.272 128.13 181.513 137.301C178.634 141.886 175.034 145.072 167.227 145.072C159.668 145.072 155.818 141.886 152.939 137.301C147.182 128.13 150.379 107.871 167.227 108.298Z" fill="white"/>
<path d="M152.114 121.217C155.446 110.054 169.967 104.598 178.541 113.922C183.948 119.8 184.494 129.982 180.582 136.756C179.886 137.962 181.752 139.051 182.447 137.846C187.317 129.416 185.953 116.349 177.794 110.335C167.237 102.554 153.503 109.009 150.032 120.644C149.634 121.979 151.718 122.55 152.114 121.217Z" fill="#0F663C"/>
<path d="M152.184 127.285C152.184 134.562 156.956 140.46 162.842 140.46C168.728 140.46 173.5 134.562 173.5 127.285C173.5 120.009 168.728 114.111 162.842 114.111C156.956 114.111 152.184 120.009 152.184 127.285Z" fill="#0F663C"/>
<path d="M87.0461 157.152C70.8072 153.427 76.0013 142.323 87.0461 144.964C102.339 148.621 100.335 160.199 87.0461 157.152Z" fill="#FFB6C3"/>
<path d="M183.874 157.152C200.114 153.427 194.92 142.323 183.874 144.964C168.583 148.621 170.586 160.199 183.874 157.152Z" fill="#FFB6C3"/>
<path d="M96.2877 106.268C99.1397 105.045 103.04 104.184 107.559 105.809C110.79 106.97 112.58 104.381 110.212 102.527C107.485 100.393 100.645 99.1541 95.8643 101.502C91.0808 103.85 91.4092 105.453 91.7909 106.365C92.174 107.276 93.6072 107.416 96.2877 106.268Z" fill="#0F663C"/>
<path d="M174.636 106.268C171.784 105.045 167.883 104.184 163.366 105.809C160.134 106.97 158.343 104.381 160.71 102.527C163.438 100.393 170.278 99.1541 175.06 101.502C179.841 103.85 179.514 105.453 179.131 106.365C178.749 107.276 177.315 107.416 174.636 106.268Z" fill="#0F663C"/>
<path d="M166.255 191.298C166.237 191.298 166.219 191.296 166.202 191.294C165.172 191.148 163.409 188.499 162.329 186.717C154.09 189.319 145.02 191.064 135.709 191.064C126.038 191.064 116.87 189.26 108.653 186.624C107.577 188.407 105.771 191.145 104.723 191.294C104.706 191.296 104.687 191.298 104.67 191.298C103.577 191.298 102.01 186.69 101.161 183.904C85.7839 177.66 74.9767 169.211 72.6792 166.627C68.8953 162.371 66.4251 154.885 65.3217 151.98C64.2184 149.076 57.2686 142.82 57.2686 142.82L66.3171 147.896C66.3171 147.896 71.6738 160.523 74.1542 163.171C76.636 165.82 99.5885 184.388 135.463 187.407C171.337 184.388 194.29 165.82 196.77 163.171C199.252 160.523 204.608 147.896 204.608 147.896L213.657 142.82C213.657 142.82 207.377 148.272 206.272 151.11C205.169 153.947 203.75 159.713 197.601 166.942C194.036 171.134 183.544 178.568 169.709 184.082C168.849 186.882 167.324 191.298 166.255 191.298Z" fill="#73B541"/>
<path d="M154.059 184.439C154.059 184.439 150.306 173.915 147.436 173.473C144.567 173.032 141.472 186.743 141.472 186.743L154.059 184.439Z" fill="white"/>
<path d="M109.528 182.227C109.528 182.227 106.28 188.19 104.722 188.412C103.163 188.635 100.558 178.947 100.558 178.947L109.528 182.227Z" fill="white"/>
<path d="M85.3535 171.31C85.3535 171.31 88.3049 164.446 89.9757 165.115C91.6451 165.782 93.1302 175.576 93.1302 175.576L85.3535 171.31Z" fill="white"/>
<path d="M116.863 184.439C116.863 184.439 120.615 173.915 123.485 173.473C126.355 173.032 130.959 186.743 130.959 186.743L116.863 184.439Z" fill="white"/>
<path d="M161.394 182.227C161.394 182.227 164.642 188.19 166.2 188.412C167.759 188.635 170.363 178.947 170.363 178.947L161.394 182.227Z" fill="white"/>
<path d="M185.57 171.31C185.57 171.31 185.406 164.446 183.735 165.115C182.066 165.782 177.792 175.576 177.792 175.576L185.57 171.31Z" fill="white"/>
<path d="M56.7222 143.753C60.519 145.884 64.5579 147.243 66.3713 150.707C68.748 155.252 70.2316 160.64 73.8685 164.404C81.2937 172.087 92.9349 177.182 102.669 180.948C111.631 184.417 121.009 186.762 130.54 187.969C140.482 189.226 151.139 186.536 160.619 183.606C172.871 179.819 185.353 174.104 195.319 165.888C199.371 162.549 201.34 157.76 203.495 153.055C204.47 150.929 204.98 149.309 206.372 148.145C208.527 146.343 211.741 145.133 214.202 143.753C215.415 143.072 214.328 141.205 213.112 141.887C210.234 143.501 205.88 144.903 203.673 147.351C200.53 150.841 199.783 157.143 196.962 161.088C191.103 169.287 178.386 174.536 169.464 178.158C160.813 181.671 151.73 184.153 142.493 185.517C131.251 187.175 119.608 184.415 108.897 180.889C97.8293 177.244 83.9224 171.679 75.5653 163.03C71.4789 158.801 70.874 152.531 67.5165 147.971C65.4063 145.106 60.9512 143.648 57.8126 141.887C56.5983 141.205 55.5079 143.072 56.7222 143.753Z" fill="#0F663C"/>
<path d="M110.522 155.708C125.426 146.889 145.475 149.797 160.656 155.816C161.948 156.329 162.51 154.24 161.229 153.733C145.529 147.507 124.811 144.742 109.432 153.841C108.236 154.55 109.322 156.418 110.522 155.708Z" fill="#0F663C"/>
<path d="M128.467 155.615C128.467 155.615 117.406 157.293 118.738 160.371C120.072 163.449 128.467 155.615 128.467 155.615Z" fill="#0F663C"/>
<path d="M142.455 155.615C142.455 155.615 153.517 157.293 152.183 160.371C150.85 163.449 142.455 155.615 142.455 155.615Z" fill="#0F663C"/>
</g>
</svg>
