<svg width="263" height="263" viewBox="0 0 263 263" fill="none" xmlns="http://www.w3.org/2000/svg">
<circle cx="131.5" cy="131.5" r="131.5" fill="#8AC5FF"/>
<mask id="mask0_346_12560" style="mask-type:alpha" maskUnits="userSpaceOnUse" x="0" y="0" width="263" height="263">
<circle cx="131.5" cy="131.5" r="131.5" fill="#D9D9D9"/>
</mask>
<g mask="url(#mask0_346_12560)">
<path d="M150.441 253.778C183.193 247.066 217.18 231.352 231.221 212.785C245.262 194.22 212.609 194.785 217.882 180.462C223.156 166.14 249.801 139.678 224.014 91.3464C198.228 43.0157 118.405 5.24106 52.2942 69.9224C-24.1804 144.744 30.4676 278.369 150.441 253.778Z" fill="#B8DCFF"/>
<path d="M246.231 186.323C251.802 172.938 229.143 169.522 222.829 179.293C216.515 189.062 239.911 201.514 246.231 186.323Z" fill="#B8DCFF"/>
<path d="M239.846 169.003C248.805 162.93 241.785 152.219 232.637 160.223C223.486 168.228 230.888 175.076 239.846 169.003Z" fill="#B8DCFF"/>
<path d="M161.199 208.018H102.95C73.8247 210.698 60.3301 243.557 60.3301 243.557C83.1767 263.863 132.075 263.441 132.075 263.441C132.075 263.441 180.974 263.863 203.818 243.557C203.818 243.557 190.323 210.698 161.199 208.018Z" fill="#F6764D"/>
<path d="M153.638 222.911C151.57 219.03 152.107 213.209 153.107 208.489H111.041C112.041 213.209 112.579 219.03 110.511 222.911C106.809 229.859 92.6793 239.426 92.5273 258.633C112.625 263.603 132.075 263.441 132.075 263.441C132.075 263.441 151.526 263.603 171.623 258.633C171.47 239.426 157.339 229.859 153.638 222.911Z" fill="#FFDDA3"/>
<path d="M83.3344 221.657C80.2038 225.243 82.8985 229.945 86.4745 226.019C90.0505 222.093 87.5211 216.859 83.3344 221.657Z" fill="#D85632"/>
<path d="M87.6285 232.786C89.2858 230.245 86.8432 227.894 85.0978 230.334C82.4872 233.985 85.9712 235.33 87.6285 232.786Z" fill="#D85632"/>
<path d="M77.9834 231.189C75.0181 234.853 76.6754 239.825 79.9034 235.812C83.1314 231.8 80.9501 227.525 77.9834 231.189Z" fill="#D85632"/>
<path d="M68.5859 229.534C69.0113 231.828 71.3353 232.715 74.9606 230.119C79.9193 226.57 79.762 221.178 77.27 219.902C73.8446 222.998 70.9539 226.347 68.5859 229.534Z" fill="#D85632"/>
<path d="M174.145 240.781C169.233 241.19 169.34 235.747 173.116 236.434C176.89 237.119 176.89 240.553 174.145 240.781Z" fill="#D85632"/>
<path d="M177.693 233.229C174.831 233.229 175.439 236.541 178.452 236.373C181.467 236.203 180.551 233.229 177.693 233.229Z" fill="#D85632"/>
<path d="M181.009 244.111C175.838 241.668 178.262 236.146 182.725 238.984C187.186 241.823 185.682 246.319 181.009 244.111Z" fill="#D85632"/>
<path d="M111.063 221.668C103.449 220.279 94.6501 218.064 86.2461 214.533C88.9141 213.06 91.6541 211.937 94.4834 211.099C100.163 212.98 106.051 214.391 111.917 215.357C111.974 217.604 111.751 219.795 111.063 221.668ZM153.077 221.651C152.387 219.765 152.169 217.559 152.231 215.297C158.177 214.336 164.187 212.937 169.993 211.037C172.643 211.839 175.277 212.948 177.927 214.483C169.521 218.028 160.707 220.255 153.077 221.651Z" fill="#F25D37"/>
<path d="M132.028 223.994C132.028 223.994 123.003 223.846 111.064 221.669C111.752 219.795 111.975 217.605 111.918 215.358C118.588 216.458 125.228 216.986 131.503 216.986C131.843 216.986 132.182 216.985 132.52 216.981C138.738 216.925 145.443 216.395 152.232 215.298C152.17 217.559 152.388 219.766 153.078 221.651C141.095 223.846 132.028 223.994 132.028 223.994Z" fill="#FBAD75"/>
<path d="M204.736 243.222C200.852 233.892 194.377 225.056 186.783 218.446C177.315 210.203 166.647 206.948 154.401 206.948C140.78 206.948 127.159 206.948 113.537 206.948C101.785 206.948 91.6425 207.89 81.5625 215.051C71.9199 221.9 63.8745 232.28 59.3185 243.222C58.8238 244.407 60.7585 244.926 61.2478 243.752C64.8545 235.091 71.3972 226.204 78.6865 219.86C88.4758 211.338 99.1038 208.948 111.513 208.948C123.791 208.948 136.069 208.948 148.347 208.948C159.719 208.948 169.467 208.964 179.589 215.5C189.673 222.011 198.315 232.966 202.807 243.752C203.295 244.923 205.23 244.41 204.736 243.222Z" fill="#8A312D"/>
<path d="M114.308 76.9299C114.308 76.9299 104.259 71.1913 98.6068 62.6073C98.6068 62.6073 108.504 54.8606 108.265 45.0219C108.029 35.1819 103.559 32.2512 100.351 35.3912C97.1414 38.5312 103.743 50.378 94.1721 55.6113C94.1721 55.6113 81.6308 41.5406 77.8241 23.2433C74.8708 9.0446 68.3788 13.3779 68.8854 21.7593C69.6734 34.8113 76.4161 43.5566 76.4161 43.5566C76.4161 43.5566 75.0854 48.7899 69.4694 42.7179C63.8548 36.6473 62.1801 42.9273 66.3654 48.5806C70.5534 54.2326 76.5734 56.1166 80.9948 53.3953C80.9948 53.3953 93.4587 73.4019 106.144 79.2246L114.308 76.9299Z" fill="#8A312D"/>
<path d="M75.5125 50.2793C74.4352 50.2793 73.3259 49.97 72.3352 49.5087C70.3245 48.5713 67.5672 46.726 67.1912 44.3686C67.1619 44.186 67.3125 44.0353 67.4632 44.0353C67.5392 44.0353 67.6152 44.074 67.6659 44.1673C69.5792 47.63 73.1019 49.19 76.7979 49.19C77.3459 49.1886 77.8992 49.1553 78.4498 49.0873L78.4939 49.1939C77.6339 49.9699 76.5885 50.2793 75.5125 50.2793Z" fill="#5E1513"/>
<path d="M81.1705 40.1445C76.8398 33.5685 73.9758 26.3179 73.4358 18.4112C73.4305 18.3259 73.4998 18.2792 73.5692 18.2792C73.6265 18.2792 73.6838 18.3112 73.7012 18.3752C75.7145 25.8232 77.9852 33.0752 81.3332 40.0499L81.1705 40.1445Z" fill="#5E1513"/>
<path d="M89.9641 60.1914C89.9268 60.1914 89.8868 60.1781 89.8508 60.1474C81.0361 52.6434 75.2801 39.6767 72.9228 28.5314C72.8935 28.398 73.0028 28.3101 73.1068 28.3101C73.1748 28.3101 73.2415 28.3487 73.2641 28.4367C76.1401 39.4434 82.2828 51.5434 90.0868 59.9114C90.2015 60.0354 90.0935 60.1914 89.9641 60.1914Z" fill="#5E1513"/>
<path d="M97.1715 56.5547L97.0742 56.4787C100.169 51.956 101.102 47.2374 101.2 41.8454C101.204 41.6534 101.377 41.5387 101.538 41.5387C101.664 41.5387 101.784 41.608 101.813 41.7627C102.833 47.1147 100.74 52.5894 97.1715 56.5547Z" fill="#5E1513"/>
<path d="M102.778 52.4219L102.656 52.3699C104.548 47.8659 104.222 43.0126 103.14 38.3659C103.087 38.1352 103.255 37.9952 103.428 37.9952C103.547 37.9952 103.667 38.0606 103.723 38.2046C105.595 43.0206 104.744 47.8179 102.778 52.4219Z" fill="#5E1513"/>
<path d="M98.065 66.4238C93.105 61.3972 88.121 56.1892 85.309 49.6038C85.2237 49.4052 85.3824 49.2251 85.5424 49.2251C85.6157 49.2251 85.689 49.2625 85.741 49.3518C89.2984 55.4558 93.6757 60.8825 98.1837 66.3065L98.065 66.4238Z" fill="#5E1513"/>
<path d="M149.793 76.9299C149.793 76.9299 159.841 71.1913 165.493 62.6073C165.493 62.6073 155.597 54.8606 155.836 45.0219C156.073 35.1819 160.542 32.2512 163.752 35.3912C166.96 38.5312 160.358 50.378 169.928 55.6113C169.928 55.6113 182.47 41.5406 186.276 23.2433C189.229 9.0446 195.722 13.3779 195.216 21.7593C194.428 34.8113 187.686 43.5566 187.686 43.5566C187.686 43.5566 189.016 48.7899 194.632 42.7179C200.248 36.6473 201.921 42.9273 197.734 48.5806C193.548 54.2326 187.529 56.1166 183.105 53.3953C183.105 53.3953 170.644 73.4019 157.957 79.2246L149.793 76.9299Z" fill="#8A312D"/>
<path d="M188.687 50.2617C187.519 50.2617 186.436 49.939 185.609 49.1937L185.653 49.087C186.205 49.155 186.757 49.1897 187.305 49.1897C191.003 49.1884 194.525 47.6297 196.437 44.1671C196.489 44.0737 196.565 44.035 196.641 44.035C196.791 44.035 196.943 44.187 196.915 44.3684C196.431 47.3884 192.177 50.2617 188.687 50.2617Z" fill="#5E1513"/>
<path d="M182.931 40.1445L182.77 40.0499C186.118 33.0752 188.388 25.8219 190.402 18.3752C190.419 18.3112 190.476 18.2792 190.534 18.2792C190.603 18.2792 190.672 18.3259 190.667 18.4112C190.128 26.3139 187.262 33.5685 182.931 40.1445Z" fill="#5E1513"/>
<path d="M174.141 60.1914C174.011 60.1914 173.902 60.0354 174.018 59.9114C181.822 51.5434 187.966 39.4434 190.841 28.4367C190.863 28.3487 190.93 28.3101 190.998 28.3101C191.102 28.3101 191.21 28.398 191.182 28.5314C188.826 39.6674 183.059 52.6514 174.254 60.1474C174.217 60.1781 174.178 60.1914 174.141 60.1914Z" fill="#5E1513"/>
<path d="M166.93 56.5547C163.365 52.5894 161.27 47.1134 162.289 41.7627C162.318 41.608 162.438 41.5387 162.564 41.5387C162.726 41.5387 162.9 41.6547 162.904 41.8454C163.001 47.2374 163.934 51.956 167.03 56.4787L166.93 56.5547Z" fill="#5E1513"/>
<path d="M161.323 52.4219C159.359 47.8179 158.506 43.0206 160.379 38.2046C160.435 38.0606 160.555 37.9952 160.674 37.9952C160.847 37.9952 161.015 38.1352 160.962 38.3659C159.879 43.0166 159.551 47.8606 161.446 52.3699L161.323 52.4219Z" fill="#5E1513"/>
<path d="M166.037 66.4238L165.918 66.3065C170.425 60.8851 174.805 55.4545 178.362 49.3518C178.413 49.2625 178.487 49.2251 178.559 49.2251C178.721 49.2251 178.878 49.4065 178.793 49.6038C175.979 56.1892 170.997 61.3958 166.037 66.4238Z" fill="#5E1513"/>
<path d="M177.267 84.4701C152.661 67.1475 111.442 67.1475 86.8352 84.4701C50.1526 110.291 46.5632 160.449 57.4859 182.295C73.8619 215.045 132.051 215.994 132.051 215.994C132.051 215.994 190.242 215.045 206.615 182.295C217.538 160.449 213.949 110.291 177.267 84.4701Z" fill="#FFDDA3"/>
<path d="M130.271 214.99C113.983 214.99 96.3961 210.574 82.2188 203.598C68.0161 196.608 57.6281 185.597 54.4481 169.836C53.7468 166.358 53.3055 162.816 53.1055 159.249C54.0188 164.737 55.5121 169.612 57.4854 173.558C73.8615 206.308 132.051 207.257 132.051 207.257C132.051 207.257 190.241 206.308 206.615 173.558C209.127 168.536 210.863 162.009 211.611 154.629C211.575 163.022 210.112 171.312 206.973 179.068C196.301 205.445 161.152 213.198 135.707 214.82C133.916 214.934 132.101 214.99 130.271 214.99Z" fill="#FFCE85"/>
<path d="M210.156 136.662C206.3 117.608 196.2 97.7982 177.267 84.4703C152.66 67.1476 111.441 67.1476 86.8347 84.4703C67.9013 97.7969 57.8026 117.606 53.9453 136.661C57.9453 126.672 67.2347 111.889 87.46 110.26C118.309 107.774 128.095 153.957 128.561 162.322H135.539C136.005 153.957 145.792 107.774 176.641 110.26C196.867 111.889 206.156 126.673 210.156 136.662Z" fill="#F6764D"/>
<path d="M135.431 75.9412C124.531 71.7799 114.056 79.4052 126.723 86.8479C141.688 95.6399 155.599 83.6399 135.431 75.9412Z" fill="#D85632"/>
<path d="M113.026 81.4379C105.907 80.8445 103.978 89.0472 113.955 88.7085C123.931 88.3699 118.098 81.8605 113.026 81.4379Z" fill="#D85632"/>
<path d="M122.494 96.5718C116.741 94.9918 119.703 90.0611 123.931 91.8371C128.159 93.6131 126.807 97.7558 122.494 96.5718Z" fill="#D85632"/>
<path d="M138.729 100.883C132.289 100.307 130.529 93.5273 140.758 95.3873C150.989 97.2473 148.2 101.729 138.729 100.883Z" fill="#D85632"/>
<path d="M153.799 88.0167C148.885 87.0047 147.791 90.9514 153.121 91.8954C157.895 92.7407 158.364 88.9567 153.799 88.0167Z" fill="#D85632"/>
<path d="M155.157 84.7742C146.391 82.4462 148.731 75.6529 156.933 78.0209C165.134 80.3875 164.275 87.1955 155.157 84.7742Z" fill="#D85632"/>
<path d="M177.774 83.605C142.809 59.7837 90.8073 68.5784 66.7673 103.397C49.6873 128.138 41.4006 172.536 66.2153 195.316C82.9166 210.649 110.194 217.185 132.522 216.98C157.047 216.756 189.139 209.198 204.147 188.284C214.149 174.349 214.451 154.798 211.547 138.56C207.611 116.553 195.967 96.7517 177.774 83.605C176.729 82.8504 175.73 84.5837 176.763 85.3317C203.975 104.996 220.078 146.684 206.975 179.068C196.303 205.445 161.154 213.198 135.709 214.82C117.981 215.95 97.9913 211.358 82.2206 203.598C68.0179 196.608 57.6299 185.597 54.4499 169.836C51.1859 153.65 53.562 136.11 59.6713 120.881C68.238 99.5237 85.358 82.2437 107.702 75.8224C130.426 69.293 156.999 71.8664 176.763 85.3317C177.83 86.0584 178.833 84.3264 177.774 83.605Z" fill="#8A312D"/>
<path d="M93.3154 136.122C77.7207 135.727 74.7594 154.479 80.0901 162.969C82.7554 167.213 86.0874 170.162 93.3154 170.162C100.311 170.162 103.875 167.213 106.541 162.969C111.87 154.479 108.91 135.727 93.3154 136.122Z" fill="white"/>
<path d="M109.231 147.547C106.016 136.774 93.3107 130.798 83.5321 138.005C75.9774 143.573 74.7174 155.669 79.2241 163.473C79.8667 164.586 81.5961 163.581 80.9507 162.462C77.3267 156.189 77.8334 146.771 82.8401 141.326C90.7854 132.683 104.225 137.767 107.303 148.079C107.669 149.309 109.6 148.785 109.231 147.547Z" fill="#8A312D"/>
<path d="M107.24 153.698C107.24 160.433 102.822 165.893 97.3731 165.893C91.9251 165.893 87.5078 160.433 87.5078 153.698C87.5078 146.962 91.9251 141.502 97.3731 141.502C102.822 141.502 107.24 146.962 107.24 153.698Z" fill="#8A312D"/>
<path d="M170.789 136.122C186.382 135.727 189.343 154.479 184.014 162.969C181.349 167.213 178.017 170.162 170.789 170.162C163.793 170.162 160.227 167.213 157.562 162.969C152.233 154.479 155.194 135.727 170.789 136.122Z" fill="white"/>
<path d="M156.8 148.081C159.883 137.748 173.324 132.696 181.261 141.328C186.267 146.769 186.773 156.193 183.151 162.464C182.507 163.581 184.233 164.589 184.877 163.474C189.385 155.67 188.124 143.573 180.571 138.006C170.799 130.804 158.085 136.78 154.871 147.549C154.503 148.785 156.432 149.313 156.8 148.081Z" fill="#8A312D"/>
<path d="M156.863 153.698C156.863 160.433 161.279 165.893 166.729 165.893C172.178 165.893 176.594 160.433 176.594 153.698C176.594 146.962 172.178 141.502 166.729 141.502C161.279 141.502 156.863 146.962 156.863 153.698Z" fill="#8A312D"/>
<path d="M77.904 181.343C62.8706 177.896 67.6786 167.616 77.904 170.06C92.0586 173.446 90.204 184.163 77.904 181.343Z" fill="#FF8285"/>
<path d="M186.198 181.343C201.232 177.896 196.424 167.616 186.198 170.06C172.044 173.446 173.898 184.163 186.198 181.343Z" fill="#FF8285"/>
<path d="M86.458 134.24C89.0966 133.109 92.7073 132.312 96.89 133.814C99.8806 134.889 101.538 132.493 99.3473 130.778C96.822 128.802 90.49 127.654 86.0633 129.829C81.638 132.002 81.9406 133.485 82.2953 134.33C82.6486 135.174 83.9766 135.302 86.458 134.24Z" fill="#8A312D"/>
<path d="M177.647 134.24C175.007 133.109 171.397 132.312 167.215 133.814C164.223 134.889 162.566 132.493 164.758 130.778C167.282 128.802 173.614 127.654 178.041 129.829C182.468 132.002 182.164 133.485 181.81 134.33C181.456 135.174 180.129 135.302 177.647 134.24Z" fill="#8A312D"/>
<path d="M131.051 165.892C131.051 170.97 131.051 176.049 131.051 181.128C131.051 182.414 133.051 182.417 133.051 181.128C133.051 176.049 133.051 170.97 133.051 165.892C133.051 164.605 131.051 164.604 131.051 165.892Z" fill="#8A312D"/>
<path d="M113.009 175.285C115.532 175.263 115.01 176.963 115.609 178.947C116.246 181.049 117.308 183.083 119.096 184.425C123.518 187.743 129.416 185.615 132.757 181.835C133.608 180.875 132.198 179.455 131.344 180.421C128.925 183.156 125.198 184.985 121.586 183.521C118.953 182.455 117.817 179.784 117.225 177.185C116.617 174.52 116.174 173.257 113.009 173.285C111.722 173.297 111.72 175.297 113.009 175.285Z" fill="#8A312D"/>
<path d="M151.093 173.285C147.911 173.257 147.488 174.513 146.877 177.185C146.349 179.502 145.389 181.989 143.209 183.229C139.544 185.317 135.285 183.277 132.759 180.421C131.905 179.454 130.494 180.873 131.345 181.834C134.689 185.616 140.584 187.742 145.007 184.425C146.703 183.152 147.745 181.257 148.388 179.273C149.06 177.202 148.452 175.261 151.093 175.285C152.381 175.297 152.383 173.297 151.093 173.285Z" fill="#8A312D"/>
<path d="M138.64 157.59C136.371 155.941 127.238 155.941 124.968 157.59C123.078 158.965 121.62 161.766 123.716 165.494C125.814 169.223 137.795 169.223 139.892 165.494C141.988 161.766 140.534 158.965 138.64 157.59Z" fill="#8A312D"/>
<path d="M124.848 162.939C124.758 162.939 124.669 162.89 124.639 162.785C123.504 158.971 127.056 157.691 130.849 157.691C133.633 157.691 136.545 158.381 137.833 159.262C138.161 159.487 138.003 159.974 137.639 159.974C137.607 159.974 137.573 159.97 137.537 159.962C135.877 159.578 132.778 158.707 130.085 158.707C127.378 158.707 125.081 159.587 125.068 162.726C125.067 162.865 124.957 162.939 124.848 162.939Z" fill="#AD403B"/>
<path d="M92.5664 84.936C92.5664 84.936 81.8037 90.2094 70.9904 76.2334C60.1784 62.2561 48.8397 48.808 39.3464 50.1254C29.853 51.444 30.6437 112.097 71.2544 102.867L92.5664 84.936Z" fill="#F6764D"/>
<path d="M81.0122 92.5836C81.0122 92.5836 73.1655 96.3223 62.2882 82.7129C53.8495 72.1556 55.2495 65.5916 43.0375 58.3009C43.0375 58.3009 36.5069 75.7729 48.5762 90.2103C60.9215 104.978 75.9562 98.9129 75.9562 98.9129" fill="#FFDDA3"/>
<path d="M80.5087 91.7209C72.2354 95.3289 62.7167 82.2502 59.3567 76.7569C54.5914 68.9715 51.5434 62.4782 43.5447 57.4382C42.9621 57.0715 42.2847 57.4542 42.0767 58.0355C34.8154 78.2168 52.2754 109.093 76.2234 99.8769C77.4127 99.4195 76.8967 97.4849 75.6927 97.9475C65.3247 101.938 54.1367 96.2515 48.0407 87.7742C43.5927 81.5888 41.7954 74.1929 42.4007 66.6275C42.5341 64.9449 42.6154 61.5422 43.5767 59.9289C43.7274 59.6755 43.6714 59.1302 43.882 58.9195C43.2914 59.5075 46.9767 62.2435 47.1914 62.4262C56.0114 69.9075 58.3594 82.2902 67.7061 89.6715C71.2781 92.4928 76.858 95.4795 81.5194 93.4475C82.6967 92.9342 81.6794 91.2102 80.5087 91.7209Z" fill="#8A312D"/>
<path d="M61.1439 72.9157C57.6452 71.0557 59.1479 67.589 61.8119 69.6823C64.4759 71.7743 64.1839 74.533 61.1439 72.9157Z" fill="#D85632"/>
<path d="M78.4245 83.1793C76.0405 81.702 73.5192 79.498 70.9925 76.2326C70.5872 75.7073 70.1792 75.1833 69.7712 74.6593C65.6379 74.29 60.8125 76.1846 65.0472 81.3793C69.0939 86.342 76.0699 86.15 78.4245 83.1793Z" fill="#D85632"/>
<path d="M89.186 84.8084C79.698 85.6351 73.9193 78.2631 68.5967 71.5591C63.2807 64.8631 57.6993 57.8071 50.6233 52.8684C45.674 49.4151 38.238 46.3671 35.218 53.2098C29.5393 66.0778 34.754 86.4564 43.882 96.4258C51.1233 104.334 61.3793 105.954 71.522 103.832C72.7807 103.568 72.2473 101.64 70.9887 101.903C46.5327 107.019 34.2287 84.0871 35.4287 62.5844C35.5887 59.7324 35.7727 55.1751 37.65 52.7698C42.19 46.9511 52.206 56.4044 55.5087 59.6258C65.058 68.9484 73.3967 88.1831 89.186 86.8084C90.458 86.6978 90.47 84.6978 89.186 84.8084Z" fill="#8A312D"/>
<path d="M171.535 84.9311C171.535 84.9311 182.299 90.2057 193.111 76.2284C203.922 62.2524 215.262 48.803 224.755 50.1217C234.25 51.439 233.458 112.092 192.847 102.863L171.535 84.9311Z" fill="#F6764D"/>
<path d="M224.016 60.0308C217.24 63.6495 221.872 72.5761 225.35 68.7108C228.829 64.8455 228.316 57.7335 224.016 60.0308Z" fill="#D85632"/>
<path d="M208.6 77.5261C213.239 77.4514 219.939 73.2194 210.92 70.6421C201.902 68.0647 200.52 77.6541 208.6 77.5261Z" fill="#D85632"/>
<path d="M223.887 50.0422C218.324 49.7888 212.167 54.3488 205.875 60.9475C206.582 65.8288 210.742 69.2915 217.102 64.7155C222.139 61.0915 224.59 54.3995 223.887 50.0422Z" fill="#D85632"/>
<path d="M183.09 92.5785C183.09 92.5785 190.935 96.3158 201.814 82.7065C210.254 72.1492 208.854 65.5865 221.064 58.2958C221.064 58.2958 227.594 75.7665 215.526 90.2052C203.182 104.973 188.146 98.9065 188.146 98.9065" fill="#FFDDA3"/>
<path d="M182.586 93.4417C187.2 95.4537 192.752 92.5403 196.297 89.7457C205.696 82.335 208.056 69.9284 216.913 62.4204C217.332 62.0657 221.388 59.4284 220.177 58.783C220.314 58.8577 220.502 59.8844 220.529 59.923C221.449 61.287 221.494 64.391 221.648 65.9123C222.349 72.887 221.01 80.035 217.308 86.039C211.482 95.4857 199.457 102.194 188.413 97.943C187.21 97.4803 186.69 99.4137 187.881 99.8723C211.836 109.091 229.286 78.2084 222.029 58.031C221.818 57.4484 221.144 57.0657 220.56 57.4337C212.566 62.4697 209.508 68.9724 204.749 76.7524C201.364 82.2857 191.896 95.335 183.594 91.715C182.426 91.2057 181.408 92.9283 182.586 93.4417Z" fill="#8A312D"/>
<path d="M174.92 86.8048C190.421 88.1528 198.556 69.6555 207.824 60.3782C211.101 57.0982 221.541 46.8542 226.327 52.5462C228.321 54.9195 228.516 59.7235 228.676 62.5808C229.875 84.0822 217.575 107.016 193.115 101.9C191.86 101.637 191.321 103.564 192.584 103.828C212.068 107.904 225.491 95.6062 229.46 77.1102C231.228 68.8702 233.867 44.3555 218.644 50.0142C210.407 53.0769 204.02 61.1688 198.625 67.6915C192.357 75.2702 186.221 85.7875 174.92 84.8048C173.637 84.6942 173.645 86.6942 174.92 86.8048Z" fill="#8A312D"/>
</g>
</svg>
