<svg width="263" height="263" viewBox="0 0 263 263" fill="none" xmlns="http://www.w3.org/2000/svg">
<circle cx="131.5" cy="131.5" r="131.5" fill="#FFB3B4"/>
<mask id="mask0_346_12640" style="mask-type:alpha" maskUnits="userSpaceOnUse" x="0" y="0" width="263" height="263">
<circle cx="131.5" cy="131.5" r="131.5" fill="#D9D9D9"/>
</mask>
<g mask="url(#mask0_346_12640)">
<path d="M137.771 53.2454C114.942 40.0133 123.05 11.8249 145.481 25.7832C167.913 39.739 160.6 66.4762 137.771 53.2454Z" fill="#FF8285"/>
<path d="M115.757 34.2264C105.075 28.7715 96.9527 40.316 108.131 46.42C119.311 52.524 128.074 40.5159 115.757 34.2264Z" fill="#FF8285"/>
<path d="M224.823 78.7352C264.983 148.288 249.042 223.584 179.323 244.806C119.775 262.93 41.5746 264.335 29.39 166.741C24.8796 130.613 23.8621 84.1835 68.6344 63.2877C95.6982 50.6577 116.147 54.9187 130.704 59.1796C142.201 62.5444 150.024 65.9093 154.527 60.9534C164.729 49.7212 197.384 31.2145 224.823 78.7352Z" fill="#FF8285"/>
<path d="M160.638 208.678H103.573C75.041 211.303 61.8193 243.494 61.8193 243.494C84.2016 263.388 132.106 262.974 132.106 262.974C132.106 262.974 180.011 263.388 202.391 243.494C202.391 243.494 189.17 211.303 160.638 208.678Z" fill="#CFB8E5"/>
<path d="M83.7422 255.627C106.195 263.191 131.599 262.974 131.599 262.974C131.599 262.974 157.775 263.199 180.47 255.279C174.917 247.222 162.436 230.036 132.103 230.036C101.331 230.036 89.3315 247.724 83.7422 255.627Z" fill="#ECD9FB"/>
<path d="M92.1056 231.805C88.3188 233.393 92.133 239.057 95.891 235.827C99.0704 233.094 95.891 230.215 92.1056 231.805Z" fill="#B694DD"/>
<path d="M82.9118 235.826C76.5021 237.573 78.805 243.857 84.3682 242.004C89.9314 240.148 88.0779 234.417 82.9118 235.826Z" fill="#B694DD"/>
<path d="M75.1719 223.483C75.4462 225.635 76.9013 227.919 79.7319 229.552C90.0629 235.512 97.8794 223.326 86.4864 218.558C84.7962 217.851 83.2757 217.493 81.9316 217.403C79.4406 219.295 77.1887 221.36 75.1719 223.483Z" fill="#B694DD"/>
<path d="M176.561 231.35C181.454 233.847 188.189 228.979 189.218 223.668C186.345 220.617 182.99 217.662 179.134 215.185C173.166 217.325 171.315 228.674 176.561 231.35Z" fill="#B694DD"/>
<path d="M186.76 236.807C189.938 238.893 192.456 237.102 189.357 233.861C186.258 230.619 183.581 234.718 186.76 236.807Z" fill="#B694DD"/>
<path d="M178.478 241.872C181.992 243.427 184.923 239.696 180.005 237.766C174.189 235.483 173.759 239.784 178.478 241.872Z" fill="#B694DD"/>
<path d="M203.292 243.167C199.487 234.028 193.144 225.372 185.704 218.894C176.429 210.819 165.977 207.632 153.98 207.632C140.636 207.632 127.292 207.632 113.947 207.632C102.434 207.632 92.4962 208.553 82.6224 215.569C73.1771 222.279 65.2939 232.449 60.8306 243.167C60.3459 244.328 62.2413 244.836 62.7207 243.687C66.254 235.201 72.6637 226.495 79.8049 220.28C89.3952 211.932 99.8085 209.592 111.964 209.592C123.993 209.592 136.021 209.592 148.05 209.592C159.19 209.592 168.74 209.604 178.655 216.009C188.535 222.387 197.001 233.119 201.403 243.687C201.881 244.834 203.778 244.331 203.292 243.167Z" fill="#42295C"/>
<path d="M165.212 239.382C164.413 238.834 163.578 238.299 162.711 237.779C163.991 235.935 164.928 234.004 165.444 232.068C166.144 234.416 166.013 236.912 165.212 239.382ZM110.451 233.573C109.601 230.106 109.064 226.462 108.753 222.819C101.566 221.362 93.5382 219.156 85.915 215.809C88.3159 214.365 90.7768 213.223 93.307 212.334C98.3242 214.111 103.532 215.502 108.76 216.529C109.263 222.235 110.328 227.935 112.288 232.944C111.663 233.145 111.052 233.355 110.451 233.573ZM148.814 223.994C148.46 223.16 147.704 221.078 147.301 217.766C155.243 216.771 163.435 214.998 171.19 212.278C173.495 213.117 175.794 214.218 178.111 215.662C177.844 215.817 177.586 215.992 177.339 216.186C172.504 218.245 167.526 219.857 162.719 221.118C160.978 219.518 158.707 218.623 156.484 218.623C153.495 218.623 150.594 220.24 149.177 223.938C149.056 223.957 148.934 223.976 148.814 223.994Z" fill="#BFA4DC"/>
<path d="M137.591 257.012C132.278 257.011 126.773 255.546 121.618 252.04C115.741 248.041 112.331 241.24 110.451 233.574C111.052 233.356 111.663 233.146 112.288 232.945C114.318 238.131 117.306 242.574 121.618 245.509C121.886 245.691 122.156 245.868 122.425 246.04C122.466 246.066 122.506 246.09 122.546 246.115C125.831 248.18 129.244 249.442 132.647 250.047C134.303 250.342 135.955 250.481 137.591 250.481C148.101 250.481 157.866 244.755 162.711 237.78C163.578 238.3 164.413 238.836 165.212 239.383C162.295 248.366 150.505 257.013 137.591 257.012Z" fill="#DAC1F1"/>
<path d="M177.339 216.187C177.586 215.993 177.843 215.818 178.111 215.663C178.17 215.701 178.228 215.737 178.288 215.775C177.971 215.914 177.656 216.051 177.339 216.187Z" fill="#A884D4"/>
<path d="M85.9155 215.81C85.5615 215.654 85.2062 215.495 84.8535 215.334C86.9552 213.966 89.2059 212.738 91.608 211.714C92.1723 211.926 92.7379 212.133 93.3074 212.334C90.7773 213.223 88.3163 214.365 85.9155 215.81ZM178.289 215.774C178.229 215.737 178.171 215.7 178.112 215.662C175.795 214.219 173.496 213.117 171.19 212.279C171.686 212.105 172.183 211.926 172.677 211.744C175.038 212.756 177.254 213.965 179.324 215.31C178.98 215.467 178.634 215.621 178.289 215.774Z" fill="#3D2558"/>
<path d="M183.831 97.4772C183.831 97.4772 188.17 102.548 197.072 94.7497C205.974 86.9489 223.095 72.5674 245.694 79.6445C268.293 86.7204 282.445 133.516 262.815 163.649C248.284 185.951 241.585 183.964 232.454 197.806C227.288 205.638 215.631 207.249 210.46 200.629C205.29 194.009 200.164 190.814 194.509 192.41L183.831 97.4772Z" fill="#FFB6C3"/>
<path d="M239.282 102.476C223.891 100.424 206.987 113.314 199.434 125.953C199.206 126.333 199.751 126.776 200.059 126.435C210.381 115.017 222.44 101.87 239.282 102.557V102.476Z" fill="#42295C"/>
<path d="M243.169 119.31C229.319 112.175 208.93 119.166 200.241 131.531C199.981 131.901 200.541 132.298 200.849 132C211.935 121.34 227.506 113.335 243.09 119.497L243.169 119.31Z" fill="#42295C"/>
<path d="M234.886 141.584C227.107 133.536 211.718 128.701 201.79 135.86C201.214 136.276 201.71 137.184 202.357 136.83C212.915 131.042 225.788 134.638 234.656 141.815C234.817 141.944 235.036 141.738 234.886 141.584Z" fill="#42295C"/>
<path d="M237.932 85.7311C217.024 87.7426 194.9 120.811 187.888 133.531L183.831 97.4767C183.831 97.4767 188.17 102.547 197.072 94.7493C205.974 86.9485 223.095 72.5669 245.694 79.6427C253.939 82.2264 261.05 90.1082 265.815 100.527C260.138 93.0695 250.723 84.5019 237.932 85.7311Z" fill="#CFB8E5"/>
<path d="M220.102 203.643C212.484 203.644 208.752 195.315 201.688 191.999C202.032 191.556 202.366 191.108 202.693 190.653C212.49 177.001 212.786 157.847 209.941 141.94C209.496 139.452 208.951 136.993 208.306 134.569C209.954 134.19 211.627 133.993 213.305 133.958C216.267 146.104 218.122 160.84 215.922 169.948C212.449 184.331 210.167 194.946 218.422 196.755C219.004 196.883 219.562 196.944 220.1 196.944C227.217 196.944 231.075 186.331 243.117 178.197C249.634 173.796 258.303 164.905 265.312 157.155C259.664 168.915 250.319 178.205 240.604 186.94C235.35 191.663 231.327 200.231 224.733 202.719C223.03 203.361 221.5 203.643 220.102 203.643ZM207.884 133.035C207.347 131.149 206.749 129.284 206.092 127.447C207.525 126.329 209.007 125.273 210.537 124.292C211.357 126.73 212.163 129.464 212.909 132.376C211.199 132.406 209.511 132.617 207.884 133.035ZM205.492 125.822C205.021 124.58 204.519 123.348 203.993 122.131C205.309 120.716 206.657 119.304 208.042 117.924C208.664 119.243 209.301 120.81 209.937 122.571C208.361 123.557 206.87 124.646 205.492 125.822ZM203.265 120.5C202.352 118.508 201.364 116.551 200.304 114.639C210.423 101.281 224.431 87.0313 237.934 85.7317C238.767 85.652 239.586 85.6141 240.389 85.6141C247.024 85.6141 252.678 88.2357 257.293 91.7899C253.311 90.7097 249.573 90.2329 246.086 90.2329C225.019 90.2329 212.943 107.614 209.033 114.394C206.92 116.322 204.979 118.382 203.265 120.5Z" fill="#ECA2BB"/>
<path d="M203.991 122.132C203.753 121.585 203.512 121.042 203.264 120.5C204.977 118.383 206.918 116.323 209.032 114.395C208.084 116.038 207.616 117.058 207.616 117.058C207.757 117.334 207.898 117.621 208.041 117.924C206.656 119.305 205.308 120.717 203.991 122.132Z" fill="#3D2558"/>
<path d="M206.091 127.448C205.896 126.904 205.696 126.364 205.491 125.823C206.869 124.646 208.36 123.558 209.936 122.572C210.136 123.127 210.336 123.701 210.536 124.292C209.006 125.273 207.524 126.33 206.091 127.448Z" fill="#3D2558"/>
<path d="M208.305 134.569C208.169 134.056 208.028 133.545 207.883 133.036C209.51 132.618 211.198 132.406 212.908 132.376C213.042 132.899 213.174 133.425 213.304 133.958C211.626 133.993 209.953 134.191 208.305 134.569Z" fill="#3D2558"/>
<path d="M200.303 114.639C197.367 109.345 193.87 104.38 189.835 99.8404C195.384 98.6021 199.406 93.8213 203.763 90.4499C210.317 85.3765 217.692 81.1744 225.888 79.4985C228.554 78.9525 231.13 78.6899 233.602 78.6899C244.667 78.6899 253.704 83.9488 260.102 92.6391C259.151 92.323 258.217 92.0409 257.293 91.7901C252.678 88.2358 247.023 85.6142 240.389 85.6142C239.585 85.6142 238.766 85.6521 237.933 85.7318C224.43 87.0315 210.422 101.281 200.303 114.639Z" fill="#BFA4DC"/>
<path d="M188.808 100.026C194.897 99.1873 199.141 94.0263 203.763 90.4499C210.316 85.3765 217.691 81.1743 225.888 79.4984C244.01 75.7914 257.783 85.1453 265.051 101.164C271.83 116.103 273.16 134.062 268.245 149.737C263.409 165.154 252.273 176.447 240.602 186.94C235.349 191.663 231.325 200.231 224.732 202.719C213.114 207.104 209.649 194.627 200.208 191.399C199.013 190.99 198.5 192.883 199.689 193.289C208.192 196.197 210.695 206.418 220.717 205.696C229.007 205.097 232.172 199 237 193.357C241.187 188.462 246.514 184.748 251.042 180.194C257.811 173.389 264.01 165.096 267.879 156.296C278.841 131.36 273.254 83.1598 240.6 77.4059C230.918 75.7012 221.287 77.7442 212.663 82.2886C208.839 84.3041 205.275 86.7637 201.884 89.4389C197.71 92.7306 193.779 97.3807 188.286 98.1344C187.043 98.3056 187.573 100.196 188.808 100.026Z" fill="#42295C"/>
<path d="M266.508 99.8342C258.552 89.6848 246.731 81.837 233.363 85.6381C218.81 89.7762 207.656 103.348 198.9 114.886C198.138 115.889 199.838 116.866 200.591 115.875C208.697 105.195 218.558 93.3553 231.414 88.3982C244.884 83.2059 256.957 90.799 265.124 101.22C265.9 102.213 267.278 100.817 266.508 99.8342Z" fill="#42295C"/>
<path d="M80.3291 97.4772C80.3291 97.4772 75.9911 102.548 67.0879 94.7497C58.1859 86.9489 41.0651 72.5674 18.4674 79.6445C-4.13173 86.7204 -18.286 133.516 1.34528 163.649C15.8758 185.951 22.5755 183.964 31.706 197.806C36.8722 205.638 48.5289 207.249 53.7003 200.629C58.8704 194.009 63.996 190.814 69.6507 192.41L80.3291 97.4772Z" fill="#FFB6C3"/>
<path d="M24.8789 102.557C41.7214 101.87 53.7779 115.017 64.1011 126.435C64.4067 126.772 64.958 126.337 64.7268 125.953C57.1755 113.316 40.2637 100.424 24.8789 102.476V102.557Z" fill="#42295C"/>
<path d="M21.0728 119.497C36.6614 113.333 52.2238 121.338 63.3124 132C63.6181 132.294 64.1837 131.904 63.9224 131.531C55.2281 119.16 34.8444 112.174 20.9932 119.31L21.0728 119.497Z" fill="#42295C"/>
<path d="M29.5073 141.814C38.3766 134.638 51.2521 131.044 61.8051 136.83C62.4517 137.182 62.9494 136.276 62.372 135.859C52.4408 128.698 37.056 133.534 29.2761 141.583C29.1272 141.737 29.3466 141.945 29.5073 141.814Z" fill="#42295C"/>
<path d="M26.2285 85.7311C47.1386 87.7426 69.261 120.811 76.2741 133.531L80.33 97.4767C80.33 97.4767 75.992 102.547 67.0887 94.7493C58.1867 86.9485 41.066 72.5669 18.4682 79.6427C10.222 82.2264 3.11214 90.1082 -1.6543 100.527C4.02258 93.0695 13.4379 84.5019 26.2285 85.7311Z" fill="#CFB8E5"/>
<path d="M41.5235 84.6664C46.3527 89.668 51.1452 87.2919 50.5692 82.9043C47.0619 81.0913 43.2047 79.5773 39.0273 78.6669C38.7778 80.3611 39.444 82.5124 41.5235 84.6664Z" fill="#B694DD"/>
<path d="M54.0285 93.1218C50.2796 91.391 51.0398 86.5789 55.1101 88.7942C59.1816 91.0083 58.0465 94.9766 54.0285 93.1218Z" fill="#B694DD"/>
<path d="M48.2003 89.7902C45.5631 89.8698 45.6258 92.6247 48.5622 92.4692C51.4986 92.3138 49.901 89.7392 48.2003 89.7902Z" fill="#B694DD"/>
<path d="M44.4715 203.763C44.3762 203.763 44.2795 203.762 44.1816 203.759C35.2522 203.521 31.8978 195.261 26.4678 189.696C22.698 185.834 18.3116 182.638 14.504 178.809C8.27065 172.54 2.61339 165.081 -1.21387 157.085C5.80581 164.852 14.5079 173.784 21.0443 178.197C33.0864 186.331 36.9437 196.944 44.0614 196.944C44.5995 196.944 45.1586 196.883 45.7399 196.755C53.9953 194.946 51.7133 184.331 48.24 169.948C46.0403 160.84 47.8938 146.105 50.8564 133.959C52.4787 133.993 54.0971 134.179 55.6907 134.533C50.1588 154.278 50.6147 176.512 62.4923 192.004C55.8383 195.254 52.2985 203.762 44.4715 203.763ZM56.1336 132.999C54.5504 132.605 52.9124 132.403 51.2522 132.375C51.9993 129.464 52.8053 126.728 53.6256 124.29C55.1251 125.253 56.5829 126.292 57.9897 127.386C57.3196 129.225 56.6992 131.099 56.1336 132.999ZM58.5984 125.761C57.2399 124.607 55.7743 123.539 54.2251 122.57C54.86 120.811 55.4987 119.243 56.1205 117.924C57.4829 119.282 58.81 120.672 60.1071 122.065C59.582 123.279 59.0791 124.51 58.5984 125.761ZM60.836 120.425C59.1379 118.337 57.2177 116.302 55.1304 114.398C51.2221 107.62 39.146 90.2331 18.0752 90.2331C14.5876 90.2331 10.8518 90.7099 6.86776 91.7902C11.484 88.2359 17.1374 85.6143 23.7717 85.6143C24.5763 85.6143 25.394 85.6522 26.2274 85.7319C39.6946 87.0276 53.6661 101.207 63.7776 114.534C62.7431 116.428 61.7595 118.395 60.836 120.425Z" fill="#ECA2BB"/>
<path d="M60.1066 122.064C58.8095 120.672 57.4824 119.282 56.12 117.924C56.2624 117.622 56.4035 117.333 56.5432 117.058C56.5432 117.058 56.0769 116.039 55.1299 114.398C57.2172 116.301 59.1374 118.336 60.8355 120.425C60.5886 120.967 60.3457 121.516 60.1066 122.064Z" fill="#3D2558"/>
<path d="M57.9901 127.387C56.5833 126.292 55.1255 125.254 53.626 124.291C53.8245 123.699 54.0244 123.126 54.2255 122.571C55.7747 123.54 57.2403 124.607 58.5988 125.762C58.3911 126.3 58.1887 126.842 57.9901 127.387Z" fill="#3D2558"/>
<path d="M55.6918 134.532C54.0982 134.178 52.4798 133.993 50.8574 133.959C50.9867 133.425 51.1187 132.898 51.2532 132.374C52.9134 132.403 54.5515 132.604 56.1346 132.999C55.9831 133.507 55.8355 134.019 55.6918 134.532Z" fill="#3D2558"/>
<path d="M63.7776 114.534C53.666 101.207 39.6946 87.0276 26.2273 85.7318C25.394 85.6521 24.5763 85.6142 23.7716 85.6142C17.1373 85.6142 11.4839 88.2358 6.8677 91.7901C5.73911 92.0958 4.59095 92.4497 3.42188 92.856C9.41486 84.5222 18.1522 78.9394 29.9579 78.7409C30.1617 78.7369 30.3681 78.7356 30.5719 78.7356C33.4377 78.7356 36.2474 79.0726 38.9866 79.6905C39.0846 81.1874 39.8422 82.926 41.522 84.6659C43.4343 86.6462 45.3414 87.4704 46.9115 87.4704C48.9427 87.4704 50.4109 86.0897 50.5951 84.052C52.9724 85.3007 55.2688 86.7245 57.4685 88.2737C62.7221 91.9717 67.7263 98.3291 74.2365 99.8208C72.0316 102.214 69.9808 104.77 68.1025 107.492C66.5846 109.691 65.136 112.05 63.7776 114.534ZM53.2297 88.2215C50.9125 88.2215 50.9582 91.7039 54.0278 93.1212C54.7528 93.4556 55.385 93.6005 55.9088 93.6005C58.2862 93.6005 58.4455 90.608 55.1094 88.7936C54.3727 88.3926 53.7431 88.2215 53.2297 88.2215ZM48.2504 89.789C48.2334 89.789 48.2164 89.789 48.1995 89.7903C45.634 89.8686 45.6236 92.4746 48.3248 92.4746C48.4019 92.4746 48.4803 92.4733 48.5613 92.4693C51.469 92.3165 49.9315 89.789 48.2504 89.789Z" fill="#BFA4DC"/>
<path d="M46.9112 87.4707C45.3411 87.4707 43.434 86.6465 41.5217 84.6662C39.8419 82.9263 39.0843 81.1877 38.9863 79.6908C43.0239 80.5999 46.9073 82.1165 50.5948 84.0523C50.4106 86.09 48.9424 87.4707 46.9112 87.4707Z" fill="#A884D4"/>
<path d="M55.9092 93.6006C55.3854 93.6006 54.7532 93.4556 54.0282 93.1212C50.9586 91.7039 50.9129 88.2215 53.2302 88.2215C53.7435 88.2215 54.3731 88.3927 55.1098 88.7937C58.4459 90.608 58.2866 93.6006 55.9092 93.6006Z" fill="#A884D4"/>
<path d="M48.326 92.4746C45.6248 92.4746 45.6352 89.8687 48.2006 89.7903C48.2176 89.789 48.2346 89.789 48.2516 89.789C49.9327 89.789 51.4701 92.3166 48.5625 92.4694C48.4815 92.4733 48.4031 92.4746 48.326 92.4746Z" fill="#A884D4"/>
<path d="M75.8739 98.135C68.367 97.1043 61.5315 88.3382 55.1245 84.3673C47.5562 79.6766 38.9403 76.6305 29.9586 76.782C13.6542 77.0563 2.94185 87.1874 -3.21703 101.621C-9.75863 116.954 -10.976 135.214 -5.70932 151.101C-0.257117 167.547 11.8112 178.311 23.8402 189.861C29.5393 195.334 32.6011 203.362 40.961 205.294C52.6557 207.996 54.9154 196.557 64.4718 193.29C65.6592 192.885 65.1498 190.99 63.9519 191.4C56.2308 194.04 52.7719 203.988 44.1822 203.76C35.2528 203.522 31.8984 195.261 26.4684 189.696C22.6986 185.834 18.3123 182.639 14.5046 178.809C8.22946 172.499 2.53823 164.981 -1.29034 156.923C-13.6394 130.941 -6.3781 79.3553 29.9586 78.7413C40.0022 78.5715 49.377 82.5791 57.4691 88.2742C63.0193 92.1812 68.2899 99.0559 75.3527 100.026C76.5871 100.195 77.12 98.3074 75.8739 98.135Z" fill="#42295C"/>
<path d="M-0.961106 101.22C7.20022 90.8072 19.292 83.188 32.7475 88.3985C45.6008 93.3766 55.4602 105.187 63.5706 115.875C64.323 116.865 66.025 115.891 65.2621 114.886C56.5052 103.347 45.3552 89.7779 30.7986 85.6384C17.4385 81.8399 5.60925 89.6852 -2.347 99.8346C-3.11637 100.817 -1.73962 102.213 -0.961106 101.22Z" fill="#42295C"/>
<path d="M107.21 73.1359C112.913 77.3681 120.442 79.5599 127.521 78.3569C127.932 78.2863 127.83 77.6267 127.424 77.6345C120.075 77.7625 113.791 76.6144 107.283 73.0118L107.21 73.1359Z" fill="#42295C"/>
<path d="M110 65.804C115.763 72.5481 124.417 77.5888 133.447 77.9245C133.924 77.9415 134.037 77.1813 133.56 77.082C124.516 75.1945 116.944 72.1353 110.086 65.7165L110 65.804Z" fill="#42295C"/>
<path d="M117.996 65.3457C123.785 70.858 131.977 78.28 140.38 78.5818C140.831 78.5974 140.917 77.9156 140.486 77.7993C131.937 75.486 125.278 70.1775 118.156 65.138C118.032 65.0492 117.888 65.2439 117.996 65.3457Z" fill="#42295C"/>
<path d="M125.765 61.8118C130.117 70.1599 139.442 78.9979 148.757 81.3647C149.235 81.4862 149.491 80.8449 149.087 80.581C144.642 77.6799 139.982 75.5781 135.864 72.114C132.161 68.9986 129.039 65.3686 125.893 61.7138L125.765 61.8118Z" fill="#42295C"/>
<path d="M176.359 88.9463C152.252 71.9771 111.87 71.9771 87.7636 88.9463C51.8292 114.244 48.3115 163.383 59.0122 184.784C75.054 216.868 132.062 217.798 132.062 217.798C132.062 217.798 189.068 216.868 205.11 184.784C215.812 163.383 212.294 114.244 176.359 88.9463Z" fill="#CFB8E5"/>
<path d="M147.102 215.525C146.738 209.192 147.779 199.497 153.666 186.511H153.67C152.479 193.284 152.112 199.484 152.119 204.638C170.164 201.406 195.298 193.438 205.109 173.816C207.544 168.948 209.234 162.637 209.98 155.504C210.208 164.467 208.806 173.356 205.461 181.625C196.537 203.68 170.143 212.444 147.102 215.525ZM108.596 214.39C99.6417 212.453 90.9317 209.44 83.242 205.656C69.3267 198.808 59.1499 188.021 56.0345 172.58C55.1449 168.167 54.6825 163.65 54.6094 159.109C55.4911 164.765 56.9959 169.785 59.0114 173.816C67.5515 190.896 87.7027 199.147 104.681 203.128C106.562 193.274 110.043 186.511 110.043 186.511C109.244 191.691 107.853 202.876 108.596 214.39Z" fill="#BFA4DC"/>
<path d="M176.854 88.1013C142.598 64.7655 91.6533 73.3801 68.1033 107.492C51.3692 131.729 43.2523 175.224 67.5626 197.542C83.9244 212.563 110.646 218.966 132.52 218.766C156.548 218.545 187.986 211.142 202.692 190.653C212.489 177.001 212.785 157.847 209.94 141.94C206.084 120.381 194.676 100.981 176.854 88.1013C175.829 87.3607 174.85 89.0601 175.865 89.7942C202.522 109.057 218.298 149.898 205.461 181.625C195.006 207.466 160.571 215.06 135.643 216.649C118.276 217.756 98.6926 213.258 83.2425 205.656C69.3273 198.808 59.1504 188.021 56.0351 172.58C52.8374 156.723 55.1664 139.541 61.1503 124.621C69.5428 103.696 86.3148 86.7663 108.206 80.4781C130.468 74.0802 156.501 76.6025 175.865 89.7942C176.908 90.5061 177.891 88.808 176.854 88.1013Z" fill="#42295C"/>
<path d="M114.284 82.2873C107.535 84.0442 107.407 91.4571 115.844 89.4389C124.279 87.4221 125.198 79.4437 114.284 82.2873Z" fill="#B694DD"/>
<path d="M140.419 95.4915C129.646 91.6368 130.24 78.0481 145.187 81.6807C160.136 85.312 159.126 102.186 140.419 95.4915Z" fill="#B694DD"/>
<path d="M125.29 103.47C118.034 101.398 120.703 92.6487 128.039 95.2168C135.378 97.7848 132.35 105.488 125.29 103.47Z" fill="#B694DD"/>
<path d="M110.707 97.0445C107.039 97.5996 107.864 103.377 111.808 102.461C115.75 101.544 114.376 96.4919 110.707 97.0445Z" fill="#B694DD"/>
<path d="M145.462 110.714C135.502 109.338 136.475 100.915 146.747 102.559C157.018 104.203 154.083 111.906 145.462 110.714Z" fill="#B694DD"/>
<path d="M163.986 91.8227C159.494 93.8408 161.481 99.0658 165.897 97.0032C170.315 94.942 168.48 89.8059 163.986 91.8227Z" fill="#B694DD"/>
<path d="M127.948 116.309C123.229 116.4 122.445 109.772 127.948 110.838C133.45 111.905 132.625 116.216 127.948 116.309Z" fill="#B694DD"/>
<path d="M65.4624 132.143C65.4049 132.143 65.3422 132.093 65.3553 132.018C69.6097 108.546 88.2783 90.9219 110.182 84.8048C109.776 85.343 109.518 85.9086 109.412 86.4585C105.22 87.5727 101.079 89.1637 97.0144 91.2928C80.9713 99.6945 69.5914 114.46 65.5486 132.071C65.5368 132.12 65.5003 132.143 65.4624 132.143ZM133.428 84.8557C130.777 84.5605 128.124 84.4064 125.477 84.4064C124.416 84.4064 123.355 84.4312 122.296 84.4822C122.393 83.8055 122.212 83.1824 121.728 82.6965C123.505 82.5411 125.286 82.4614 127.073 82.4614C129.624 82.4614 132.185 82.6234 134.732 82.9552C134.139 83.5051 133.706 84.1504 133.428 84.8557Z" fill="#E7DCF2"/>
<path d="M109.412 86.458C109.518 85.9081 109.777 85.3425 110.183 84.8043C113.953 83.7515 117.824 83.0383 121.729 82.6961C122.212 83.182 122.393 83.8051 122.297 84.4817C117.969 84.6881 113.664 85.3268 109.412 86.458Z" fill="#DBCAEE"/>
<path d="M152.998 89.3975C152.958 89.3975 152.918 89.3896 152.876 89.3752C146.453 87.1573 139.943 85.582 133.428 84.8557C133.706 84.1503 134.138 83.505 134.731 82.9551C141.026 83.7728 147.255 85.6264 153.188 88.6346C153.559 88.8227 153.358 89.3975 152.998 89.3975Z" fill="#DBCAEE"/>
<path d="M79.0129 186.193C64.2864 182.817 68.9954 172.746 79.0129 175.141C92.8798 178.457 91.0642 188.956 79.0129 186.193Z" fill="#FFB6C3"/>
<path d="M185.109 186.193C199.836 182.817 195.127 172.746 185.109 175.141C171.242 178.457 173.058 188.956 185.109 186.193Z" fill="#FFB6C3"/>
<path d="M87.3925 140.047C89.9788 138.939 93.5161 138.158 97.6124 139.63C100.544 140.684 102.167 138.336 100.02 136.656C97.5471 134.719 91.3438 133.596 87.0071 135.726C82.6705 137.855 82.9683 139.308 83.3144 140.136C83.6619 140.963 84.9616 141.088 87.3925 140.047Z" fill="#42295C"/>
<path d="M176.73 140.047C174.144 138.939 170.606 138.158 166.51 139.63C163.579 140.684 161.954 138.336 164.103 136.656C166.575 134.719 172.779 133.596 177.115 135.726C181.451 137.855 181.154 139.308 180.807 140.136C180.461 140.963 179.16 141.088 176.73 140.047Z" fill="#42295C"/>
<path d="M93.9735 141.717C78.6958 141.331 75.7947 159.702 81.017 168.017C83.6269 172.176 86.8911 175.065 93.9735 175.065C100.827 175.065 104.32 172.176 106.93 168.017C112.152 159.702 109.252 141.331 93.9735 141.717Z" fill="white"/>
<path d="M109.568 152.911C106.418 142.357 93.97 136.503 84.3914 143.563C76.9903 149.018 75.756 160.868 80.171 168.511C80.8019 169.603 82.4948 168.617 81.8639 167.524C78.3135 161.377 78.8086 152.151 83.7135 146.816C91.4986 138.349 104.664 143.33 107.679 153.432C108.038 154.636 109.93 154.124 109.568 152.911Z" fill="#42295C"/>
<path d="M107.617 158.936C107.617 165.533 103.288 170.884 97.9509 170.884C92.6124 170.884 88.2861 165.533 88.2861 158.936C88.2861 152.338 92.6124 146.989 97.9509 146.989C103.288 146.989 107.617 152.338 107.617 158.936Z" fill="#42295C"/>
<path d="M75.6367 167.599C75.6367 167.599 89.9452 167.423 101.252 178.198C101.252 178.198 80.7598 180.143 75.6367 167.599Z" fill="#CFB8E5"/>
<path d="M75.6358 168.578C84.7833 168.553 93.9139 172.849 100.557 178.891C101.489 179.737 102.879 178.356 101.943 177.505C94.9145 171.115 85.3098 166.592 75.6358 166.619C74.3753 166.623 74.3727 168.582 75.6358 168.578Z" fill="#42295C"/>
<path d="M169.876 141.717C185.154 141.331 188.055 159.702 182.832 168.017C180.223 172.176 176.958 175.065 169.876 175.065C163.022 175.065 159.529 172.176 156.919 168.017C151.697 159.702 154.598 141.331 169.876 141.717Z" fill="white"/>
<path d="M156.172 153.433C159.192 143.309 172.359 138.36 180.136 146.817C185.038 152.147 185.535 161.38 181.986 167.524C181.355 168.616 183.048 169.605 183.679 168.512C188.094 160.868 186.858 149.018 179.458 143.564C169.885 136.507 157.43 142.361 154.282 152.912C153.921 154.122 155.81 154.64 156.172 153.433Z" fill="#42295C"/>
<path d="M156.231 158.936C156.231 165.533 160.56 170.884 165.898 170.884C171.236 170.884 175.562 165.533 175.562 158.936C175.562 152.338 171.236 146.989 165.898 146.989C160.56 146.989 156.231 152.338 156.231 158.936Z" fill="#42295C"/>
<path d="M188.577 167.599C188.577 167.599 174.268 167.423 162.963 178.198C162.963 178.198 183.454 180.143 188.577 167.599Z" fill="#CFB8E5"/>
<path d="M188.578 166.619C178.905 166.592 169.298 171.115 162.271 177.505C161.336 178.356 162.725 179.737 163.656 178.891C170.302 172.847 179.43 168.553 188.578 168.578C189.838 168.582 189.839 166.623 188.578 166.619Z" fill="#42295C"/>
<path d="M110.553 183.517C110.553 183.517 101.116 231.555 121.618 245.508C143.424 260.347 171.498 238.613 164.926 224.158C161.897 217.494 151.81 216.001 149.006 224.414C149.006 224.414 141.704 210.487 155.226 183.227C155.226 183.227 123.521 162.691 110.553 183.517Z" fill="#CFB8E5"/>
<path d="M165.898 228.666C165.892 227.119 165.581 225.602 164.925 224.158C164.735 223.739 164.516 223.34 164.273 222.964C164.516 223.34 164.735 223.739 164.925 224.156C165.581 225.601 165.892 227.119 165.898 228.666Z" fill="#BFA4DC"/>
<path d="M137.591 250.479C135.956 250.479 134.303 250.341 132.647 250.046C129.244 249.441 125.831 248.179 122.546 246.114C122.507 246.089 122.466 246.065 122.426 246.039C122.157 245.867 121.886 245.69 121.618 245.508C112.09 239.021 109.032 225.173 108.484 212.206C111.668 222.616 117.018 234.104 125.836 239.677C129.654 242.091 133.855 243.138 138.016 243.138C151.453 243.138 164.446 232.198 162.592 221.005C163.228 221.569 163.798 222.225 164.275 222.964C164.518 223.34 164.736 223.738 164.927 224.158C165.582 225.602 165.893 227.119 165.9 228.666C165.938 238.935 152.515 250.481 137.591 250.479Z" fill="#BFA4DC"/>
<path d="M109.607 183.256C106.272 200.469 104.523 223.265 114.074 238.798C120.577 249.371 133.81 253.476 145.553 250.404C155.049 247.918 167.071 239.606 166.877 228.555C166.684 217.597 152.483 213.512 148.061 224.153C148.658 224.076 149.255 223.997 149.852 223.919C143.791 211.926 150.924 194.419 156.071 183.722C156.616 182.591 154.927 181.596 154.379 182.734C148.859 194.205 141.73 212.183 148.16 224.908C148.584 225.748 149.657 225.378 149.95 224.674C152.462 218.632 159.864 217.974 163.433 223.465C165.263 226.279 165.217 229.787 164.175 232.864C162.176 238.759 156.787 243.349 151.405 246.094C138.003 252.928 120.974 248.96 114.245 234.993C106.996 219.947 108.39 199.81 111.496 183.779C111.735 182.547 109.847 182.018 109.607 183.256Z" fill="#42295C"/>
<path d="M113.619 181.46C124.947 177.855 135.447 178.55 146.672 182.051C147.322 182.253 147.56 181.284 146.949 181.046C136.255 176.887 124.015 176.235 113.494 181.162C113.326 181.241 113.445 181.516 113.619 181.46Z" fill="#42295C"/>
<path d="M115.571 188.927C124.097 187.55 131.912 187.144 140.38 189.121C140.931 189.249 141.109 188.497 140.609 188.294C133.196 185.291 122.864 185.628 115.495 188.651C115.325 188.72 115.387 188.957 115.571 188.927Z" fill="#42295C"/>
<path d="M117.136 199.084C124.682 197.802 131.567 197.461 139.181 197.598C139.588 197.604 139.688 196.967 139.279 196.876C132.228 195.312 123.758 196.076 117.01 198.631C116.727 198.738 116.836 199.135 117.136 199.084Z" fill="#42295C"/>
<path d="M118.503 207.879C125.48 206.402 132.133 206.278 139.182 205.88C139.518 205.86 139.637 205.323 139.266 205.258C132.514 204.065 124.836 205.323 118.361 207.368C118.035 207.472 118.169 207.951 118.503 207.879Z" fill="#42295C"/>
<path d="M148.161 224.908C149.368 227.111 151.859 229.376 154.536 228.393C156.078 227.829 157.18 226.34 156.659 224.673C156.203 223.215 154.641 222.251 153.157 222.759C151.971 223.164 152.48 225.057 153.678 224.648C154.292 224.438 154.936 224.985 154.832 225.655C154.679 226.644 153.199 226.818 152.452 226.53C151.324 226.095 150.419 224.954 149.852 223.919C149.246 222.814 147.553 223.802 148.161 224.908Z" fill="#42295C"/>
<path d="M127.201 228.782C119.207 228.619 121.748 221.812 128.127 223.586C134.507 225.359 130.929 228.859 127.201 228.782Z" fill="#B694DD"/>
<path d="M137.625 230.075C133.38 229.1 134.81 223.976 138.767 226.036C142.724 228.097 142.267 231.141 137.625 230.075Z" fill="#B694DD"/>
<path d="M130.74 231.211C126.405 232.233 127.164 237.907 132.185 236.462C137.207 235.016 135.914 229.995 130.74 231.211Z" fill="#B694DD"/>
</g>
</svg>
