<svg width="263" height="263" viewBox="0 0 263 263" fill="none" xmlns="http://www.w3.org/2000/svg">
<circle cx="131.5" cy="131.5" r="131.5" fill="#E48BA6"/>
<mask id="mask0_346_12628" style="mask-type:alpha" maskUnits="userSpaceOnUse" x="0" y="0" width="263" height="263">
<circle cx="131.5" cy="131.5" r="131.5" fill="#D9D9D9"/>
</mask>
<g mask="url(#mask0_346_12628)">
<path d="M159.687 32.3561C106.626 21.1815 57.1941 45.8401 36.9301 84.6361C12.7181 130.989 32.0395 162.093 46.5168 188.901C60.9928 215.708 26.8608 194.177 40.7661 219.565C54.6701 244.952 98.6875 257.38 127.453 257.38C161.074 257.38 196.39 247.469 220.006 220.727C240.723 197.267 244.958 158.549 232.53 159.276C220.103 160.003 239.841 124.399 225.945 94.0188C212.049 63.6388 191.139 38.9815 159.687 32.3561Z" fill="#EBA9BD"/>
<path d="M46.0309 195.849C45.9776 205.897 22.8922 193.128 25.6589 181.516C28.4256 169.905 46.0842 185.973 46.0309 195.849Z" fill="#EBA9BD"/>
<path d="M30.9808 206.446C22.6274 207.044 20.6288 197.965 31.9474 199.704C43.2661 201.443 38.2314 205.928 30.9808 206.446Z" fill="#EBA9BD"/>
<path d="M233.296 154.645C227.91 152.145 235.646 127.454 242.272 129.193C248.897 130.931 242.033 158.701 233.296 154.645Z" fill="#EBA9BD"/>
<path d="M239.039 158.588C238.379 153.664 254.554 149.138 254.479 155.938C254.406 162.737 239.598 162.766 239.039 158.588Z" fill="#EBA9BD"/>
<path d="M161.457 207.912H103.208C74.0826 210.591 60.5879 243.45 60.5879 243.45C83.4332 263.757 132.333 263.334 132.333 263.334C132.333 263.334 181.232 263.757 204.076 243.45C204.076 243.45 190.581 210.591 161.457 207.912Z" fill="#FFD2A8"/>
<path d="M95.7666 220.924C93.8546 222.7 92.0639 224.702 90.7346 226.957C90.3706 227.572 91.3106 228.115 91.6866 227.514C93.0519 225.337 94.4679 223.27 96.2386 221.396C96.5333 221.082 96.0813 220.632 95.7666 220.924Z" fill="#822F0C"/>
<path d="M96.2315 214.864C94.0382 216.776 91.8649 218.969 90.5742 221.609C90.4009 221.965 90.8755 222.414 91.1635 222.064C93.0142 219.807 94.6449 217.422 96.7022 215.335C97.0075 215.026 96.5515 214.583 96.2315 214.864Z" fill="#822F0C"/>
<path d="M90.1787 216.879C87.7601 218.933 85.5414 221.482 84.4174 224.482C84.224 225.002 84.9974 225.267 85.2747 224.844C86.9801 222.245 88.5734 219.705 90.7827 217.484C91.1761 217.088 90.5921 216.527 90.1787 216.879Z" fill="#822F0C"/>
<path d="M169.916 240.255C170.722 242.703 171.231 245.221 171.959 247.686C172.203 248.517 173.407 248.168 173.243 247.332C172.743 244.79 171.639 242.324 170.526 239.998C170.363 239.658 169.799 239.897 169.916 240.255Z" fill="#822F0C"/>
<path d="M174.884 244.499C175.639 246.747 175.836 249.352 176.853 251.481C177.085 251.966 177.751 251.676 177.785 251.229C177.969 248.847 176.668 246.274 175.703 244.154C175.493 243.693 174.724 244.021 174.884 244.499Z" fill="#822F0C"/>
<path d="M175.619 238.193C176.945 240.447 177.581 243.016 178.889 245.25C179.103 245.614 179.726 245.471 179.706 245.03C179.585 242.326 177.813 239.806 176.191 237.752C175.931 237.422 175.412 237.846 175.619 238.193Z" fill="#822F0C"/>
<path d="M180.427 240.682C181.423 242.644 181.96 244.724 182.255 246.896C182.354 247.62 183.627 247.457 183.544 246.721C183.282 244.369 182.447 242.233 181.166 240.251C180.866 239.789 180.179 240.192 180.427 240.682Z" fill="#822F0C"/>
<path d="M164.506 233.474C164.506 233.474 169.089 237.197 170.373 236.415C171.657 235.631 167.248 227.597 162.252 223.972C162.252 223.972 165.877 225.245 166.661 224.169C167.369 223.194 162.318 213.367 156.136 208.221H108.53C102.349 213.367 97.2971 223.194 98.0065 224.169C98.7905 225.245 102.414 223.972 102.414 223.972C97.4185 227.597 93.0104 235.631 94.2931 236.415C95.5771 237.197 100.161 233.474 100.161 233.474C95.9251 242.739 94.5838 251.865 94.3398 258.9C113.873 263.485 132.334 263.334 132.334 263.334C132.334 263.334 150.793 263.485 170.328 258.9C170.082 251.865 168.741 242.74 164.506 233.474Z" fill="#FFE8D3"/>
<path d="M100.216 218.553C98.4778 218.122 96.7565 217.652 95.0671 217.143C95.5898 216.524 96.1298 215.918 96.7045 215.336C96.9418 215.096 96.7191 214.776 96.4578 214.776C96.3831 214.776 96.3045 214.801 96.2338 214.864C95.5111 215.493 94.7911 216.153 94.1045 216.849C91.6431 216.084 89.2405 215.236 86.9111 214.302C90.2338 212.51 93.6698 211.254 97.2498 210.407C99.6645 211.105 102.094 211.734 104.543 212.3C102.838 214.365 101.347 216.59 100.216 218.553ZM164.438 218.529C163.428 216.779 162.135 214.824 160.658 212.958C163.551 212.319 166.423 211.569 169.264 210.703C172.151 211.489 175.01 212.621 177.89 214.249C173.692 215.933 169.178 217.364 164.438 218.529Z" fill="#FFC391"/>
<path d="M95.0672 217.144C94.7445 217.048 94.4245 216.949 94.1045 216.849C94.7912 216.153 95.5112 215.493 96.2338 214.864C96.3045 214.801 96.3831 214.776 96.4578 214.776C96.7191 214.776 96.9418 215.096 96.7045 215.336C96.1298 215.918 95.5898 216.524 95.0672 217.144Z" fill="#822C0A"/>
<path d="M132.163 222.287C121.31 222.287 110.378 221.071 100.217 218.554C101.347 216.591 102.838 214.366 104.543 212.301C114.377 214.568 124.463 215.761 134.527 215.761C143.313 215.761 152.082 214.853 160.658 212.959C162.135 214.825 163.429 216.78 164.438 218.53C154.375 221.004 143.313 222.287 132.163 222.287Z" fill="#FFD8B6"/>
<path d="M205.043 243.184C201.158 233.856 194.683 225.022 187.09 218.41C177.623 210.168 166.955 206.912 154.707 206.912C141.086 206.912 127.465 206.912 113.845 206.912C102.093 206.912 91.9488 207.853 81.8701 215.015C72.2288 221.864 64.1821 232.246 59.6261 243.184C59.1315 244.371 61.0661 244.889 61.5555 243.716C65.1621 235.056 71.7048 226.168 78.9928 219.824C88.7835 211.301 99.4115 208.912 111.819 208.912C124.098 208.912 136.375 208.912 148.654 208.912C160.025 208.912 169.773 208.928 179.897 215.464C189.981 221.975 198.622 232.929 203.114 243.716C203.602 244.888 205.538 244.374 205.043 243.184Z" fill="#822F0C"/>
<path d="M103.458 235.721C101.797 238.776 100.383 242.421 100.355 245.939C100.351 246.391 101.006 246.468 101.133 246.044C102.147 242.663 102.829 239.312 104.123 236.003C104.275 235.615 103.651 235.363 103.458 235.721Z" fill="#FFD2A8"/>
<path d="M104.115 240.571C102.839 243.98 101.536 248.302 101.959 251.99C102.007 252.412 102.64 252.58 102.756 252.098C103.651 248.383 103.807 244.482 104.696 240.732C104.788 240.349 104.249 240.212 104.115 240.571Z" fill="#FFD2A8"/>
<path d="M108.359 235.616C107.24 239.499 106.656 243.628 106.533 247.665C106.515 248.311 107.439 248.272 107.513 247.665C108.004 243.681 108.503 239.682 108.892 235.688C108.921 235.376 108.441 235.33 108.359 235.616Z" fill="#FFD2A8"/>
<path d="M158.309 224.109C159.322 225.329 160.286 226.582 161.198 227.88C161.963 228.968 162.645 230.197 163.569 231.155C164.075 231.681 164.826 231.016 164.534 230.41C163.307 227.867 160.7 225.652 158.662 223.756C158.422 223.533 158.105 223.864 158.309 224.109Z" fill="#FFD2A8"/>
<path d="M157.802 227.443C158.949 229.982 159.801 232.623 160.802 235.218C161.05 235.857 162.01 235.622 161.848 234.929C161.19 232.123 159.897 229.542 158.432 227.077C158.186 226.663 157.613 227.023 157.802 227.443Z" fill="#FFD2A8"/>
<path d="M154.1 224.989C155.356 228.081 156.134 231.3 157.126 234.478C157.264 234.925 158.04 234.874 157.984 234.361C157.614 230.936 156.298 227.766 154.73 224.725C154.554 224.385 153.952 224.625 154.1 224.989Z" fill="#FFD2A8"/>
<path d="M136.667 248.696C136.347 251.422 136.27 254.305 137.007 256.974C137.125 257.403 137.849 257.337 137.803 256.868C137.55 254.132 137.122 251.455 137.105 248.696C137.103 248.408 136.698 248.424 136.667 248.696Z" fill="#FFD2A8"/>
<path d="M138.639 251.302C138.578 254.082 138.854 257.652 140.618 259.931C140.838 260.217 141.237 259.898 141.175 259.607C140.895 258.297 140.251 257.077 139.907 255.772C139.519 254.305 139.275 252.818 139.182 251.302C139.161 250.958 138.647 250.952 138.639 251.302Z" fill="#FFD2A8"/>
<path d="M139.916 248.427C140.404 250.581 140.841 252.82 141.708 254.858C141.924 255.364 142.681 254.993 142.565 254.498C142.071 252.379 141.213 250.325 140.56 248.25C140.431 247.841 139.823 248.009 139.916 248.427Z" fill="#FFD2A8"/>
<path d="M219.765 157.431C216.149 149.215 216.288 124.127 188.416 95.5414C181.352 88.2974 173.785 83.004 166.199 79.2174C168.074 78.6494 169.662 77.5614 169.262 75.4654C168.369 70.772 154.293 67.9787 154.293 67.9787C163.118 62.3934 161.778 59.6 150.829 60.8294C139.879 62.0587 131.165 65.1867 131.165 65.1867C134.294 61.7227 128.818 60.3827 118.093 66.08C110.182 70.2827 104.618 75.372 102.238 77.7574C93.6342 81.5934 84.9688 87.3187 76.9528 95.5414C49.0808 124.127 49.2195 149.215 45.6035 157.431C43.9075 161.28 51.8021 164.4 50.2528 165.565C48.7021 166.731 45.6035 168.356 50.7702 175.423C55.9368 182.489 59.4075 183.264 56.5102 185.073C53.7475 186.796 55.6795 191.595 82.6142 204.291C111.997 218.14 155.707 217.107 182.754 204.291C209.663 191.539 211.619 186.796 208.858 185.073C205.961 183.264 209.432 182.489 214.598 175.423C219.765 168.356 216.666 166.731 215.116 165.565C213.566 164.4 221.46 161.28 219.765 157.431Z" fill="#FFD2A8"/>
<path d="M208.4 158.426C201.939 166.693 183.771 178.836 167.409 174.186C151.048 169.536 147.13 162.132 132.685 162.862C118.237 162.132 114.321 169.536 97.9595 174.186C81.5968 178.836 63.4288 166.693 56.9688 158.426C54.4662 155.224 50.8795 152.993 47.4221 151.46C46.8101 154.041 46.2702 156.136 45.6035 157.652C43.9075 161.501 51.8021 164.622 50.2528 165.788C48.7021 166.953 45.6035 168.577 50.7702 175.644C55.9368 182.712 59.4075 183.486 56.5102 185.296C53.7475 187.017 55.6795 191.816 82.6142 204.513C111.997 218.361 155.707 217.329 182.754 204.513C209.663 191.761 211.619 187.017 208.858 185.296C205.961 183.486 209.432 182.712 214.598 175.644C219.765 168.577 216.666 166.953 215.116 165.788C213.566 164.622 221.46 161.501 219.765 157.652C219.098 156.136 218.558 154.041 217.946 151.46C214.489 152.993 210.902 155.224 208.4 158.426Z" fill="#FFE8D3"/>
<path d="M104.601 172.021C107.685 166.876 109.618 165.976 107.917 157.253C106.973 152.411 102.999 147.156 102.999 147.156L106.254 141.977C106.254 141.977 115.154 158.792 111.41 168.575C109.935 172.432 102.323 177.412 106.451 185.521C106.451 185.521 99.9353 179.804 104.601 172.021Z" fill="#F0A056"/>
<path d="M160.765 172.021C157.681 166.876 155.747 165.976 157.449 157.253C158.393 152.411 162.366 147.156 162.366 147.156L159.111 141.977C159.111 141.977 150.211 158.792 153.954 168.575C155.43 172.432 163.042 177.412 158.914 185.521C158.914 185.521 165.43 179.804 160.765 172.021Z" fill="#F0A056"/>
<path d="M78.5362 180.869C63.5042 177.421 68.3109 167.143 78.5362 169.587C92.6909 172.972 90.8376 183.689 78.5362 180.869Z" fill="#FFB6C3"/>
<path d="M186.833 180.869C201.865 177.421 197.058 167.143 186.833 169.587C172.678 172.972 174.531 183.689 186.833 180.869Z" fill="#FFB6C3"/>
<path d="M87.0888 133.767C89.7288 132.636 93.3395 131.839 97.5195 133.341C100.513 134.416 102.17 132.02 99.9782 130.304C97.4542 128.329 91.1222 127.181 86.6942 129.355C82.2688 131.528 82.5715 133.013 82.9262 133.856C83.2808 134.7 84.6075 134.829 87.0888 133.767Z" fill="#822F0C"/>
<path d="M178.278 133.767C175.638 132.636 172.028 131.839 167.848 133.341C164.854 134.416 163.197 132.02 165.389 130.304C167.913 128.329 174.245 127.181 178.673 129.355C183.098 131.528 182.796 133.013 182.441 133.856C182.086 134.7 180.76 134.829 178.278 133.767Z" fill="#822F0C"/>
<path d="M93.8061 135.471C78.2114 135.076 75.2501 153.829 80.5794 162.317C83.2448 166.561 86.5768 169.511 93.8061 169.511C100.801 169.511 104.367 166.561 107.031 162.317C112.362 153.829 109.402 135.076 93.8061 135.471Z" fill="white"/>
<path d="M111.961 152.222C108.743 140.572 97.2325 128.62 84.6232 136.93C76.5219 142.268 75.1259 154.826 79.7192 162.822C80.3592 163.938 82.0886 162.932 81.4459 161.812C77.6926 155.28 78.3605 145.286 84.0205 139.956C87.6565 136.534 93.3912 135.612 98.0872 137.1C104.827 139.235 108.298 146.476 110.03 152.754C110.373 153.992 112.302 153.466 111.961 152.222Z" fill="#822F0C"/>
<path d="M107.732 153.046C107.732 159.782 103.315 165.242 97.8653 165.242C92.4173 165.242 88 159.782 88 153.046C88 146.31 92.4173 140.852 97.8653 140.852C103.315 140.852 107.732 146.31 107.732 153.046Z" fill="#822F0C"/>
<path d="M75.0889 161.891C75.0889 161.891 89.6942 161.709 101.236 172.709C101.236 172.709 80.3182 174.692 75.0889 161.891Z" fill="#FFD2A8"/>
<path d="M75.09 162.89C84.426 162.864 93.746 167.248 100.529 173.416C101.479 174.28 102.898 172.869 101.943 172.002C94.7687 165.477 84.9634 160.862 75.09 160.89C73.8034 160.893 73.8007 162.893 75.09 162.89Z" fill="#822F0C"/>
<path d="M171.284 135.471C186.877 135.076 189.84 153.829 184.509 162.317C181.845 166.561 178.512 169.511 171.284 169.511C164.288 169.511 160.723 166.561 158.057 162.317C152.728 153.829 155.688 135.076 171.284 135.471Z" fill="white"/>
<path d="M155.383 154.427C156.694 148.891 158.414 142.588 163.14 138.959C167.279 135.78 173.888 135.585 178.444 138.044C186.466 142.371 187.879 154.443 183.644 161.812C183.003 162.931 184.731 163.939 185.371 162.821C190.367 154.128 188.2 140.165 178.364 135.788C164.38 129.563 156.242 142.128 153.455 153.895C153.158 155.145 155.086 155.681 155.383 154.427Z" fill="#822F0C"/>
<path d="M157.356 153.046C157.356 159.782 161.775 165.242 167.223 165.242C172.672 165.242 177.088 159.782 177.088 153.046C177.088 146.31 172.672 140.852 167.223 140.852C161.775 140.852 157.356 146.31 157.356 153.046Z" fill="#822F0C"/>
<path d="M190.371 161.891C190.371 161.891 175.765 161.709 164.227 172.709C164.227 172.709 185.141 174.692 190.371 161.891Z" fill="#FFD2A8"/>
<path d="M190.37 160.891C180.498 160.863 170.691 165.477 163.517 172.003C162.565 172.869 163.981 174.281 164.933 173.416C171.717 167.247 181.033 162.864 190.37 162.891C191.658 162.893 191.659 160.893 190.37 160.891Z" fill="#822F0C"/>
<path d="M131.702 182.802C131.941 192.629 95.8753 193.814 109.342 173.91C114.575 166.173 114.473 155.252 109.735 147.204C109.082 146.096 107.353 147.101 108.009 148.213C110.574 152.573 111.503 157.821 111.166 162.842C110.754 168.965 107.079 171.916 104.943 177.145C103.039 181.804 104.559 186.188 108.69 188.964C113.766 192.372 120.882 192.82 126.47 190.544C129.521 189.301 133.795 186.681 133.702 182.802C133.671 181.518 131.671 181.513 131.702 182.802Z" fill="#822F0C"/>
<path d="M131.663 182.803C131.404 193.515 150.125 192.965 156.139 189.284C160.473 186.631 162.403 182.253 160.523 177.385C158.92 173.229 155.248 170.617 154.339 166.059C153.128 160.005 155.493 153.607 157.46 147.975C157.884 146.757 155.953 146.235 155.529 147.443C153.616 152.927 151.536 158.885 152.145 164.795C152.725 170.401 156.665 173.043 158.531 178.004C164.14 192.92 133.412 193.149 133.663 182.803C133.693 181.516 131.693 181.516 131.663 182.803Z" fill="#822F0C"/>
<path d="M141.973 175.317C140.509 170.923 124.86 170.923 123.396 175.317C121.931 179.711 132.685 182.803 132.685 182.803C132.685 182.803 143.439 179.711 141.973 175.317Z" fill="#822F0C"/>
<path d="M125.028 176.452C124.726 176.452 124.567 175.979 124.87 175.82C127.262 174.571 130.287 173.771 133.242 173.771C135.583 173.771 137.879 174.273 139.776 175.452C140.068 175.632 139.886 175.997 139.596 175.997C139.58 175.997 139.564 175.996 139.548 175.993C137.203 175.672 135.004 175.029 132.627 175.029C132.516 175.029 132.404 175.031 132.294 175.033C129.819 175.097 127.462 175.664 125.127 176.435C125.094 176.447 125.059 176.452 125.028 176.452Z" fill="#A83D10"/>
<path d="M95.488 195.363C103.717 189.349 112.548 185.009 122.309 182.07C122.845 181.91 122.621 181.082 122.077 181.23C112.257 183.903 103.187 188.71 95.4014 195.249L95.488 195.363Z" fill="#822F0C"/>
<path d="M95.3419 187.785C102.386 183.731 109.859 181.531 117.963 181.034C118.53 181.001 118.538 180.123 117.963 180.147C109.759 180.502 102.062 183.051 95.2272 187.589C95.1072 187.67 95.2139 187.857 95.3419 187.785Z" fill="#822F0C"/>
<path d="M98.3665 180.965C105.397 179.133 111.653 178.382 118.893 178.834C119.314 178.86 119.414 178.172 118.993 178.089C112.27 176.788 104.417 177.682 98.2732 180.744C98.1478 180.805 98.2371 180.998 98.3665 180.965Z" fill="#822F0C"/>
<path d="M169.968 195.249C162.183 188.709 153.112 183.903 143.292 181.23C142.748 181.082 142.523 181.909 143.06 182.07C152.821 185.009 161.652 189.349 169.881 195.363L169.968 195.249Z" fill="#822F0C"/>
<path d="M170.14 187.589C163.306 183.05 155.61 180.503 147.404 180.147C146.832 180.123 146.837 180.999 147.404 181.034C155.514 181.531 162.972 183.725 170.026 187.785C170.154 187.857 170.261 187.67 170.14 187.589Z" fill="#822F0C"/>
<path d="M167.093 180.744C160.952 177.684 153.096 176.788 146.373 178.089C145.957 178.17 146.048 178.861 146.473 178.834C153.716 178.382 159.977 179.134 167 180.965C167.128 180.998 167.22 180.805 167.093 180.744Z" fill="#822F0C"/>
<path d="M49.7992 152.624C49.3192 152.364 48.8352 152.119 48.3525 151.888C49.6219 146.732 50.8152 141.587 52.4832 136.547C51.3472 142.993 50.6472 147.873 49.6472 150.143C49.2646 151.015 49.3952 151.847 49.7992 152.624ZM215.571 152.624C215.975 151.847 216.106 151.015 215.723 150.143C214.726 147.879 214.027 143.02 212.897 136.599C214.027 139.983 214.99 143.424 215.842 146.896C216.175 148.253 216.766 149.968 217.303 151.752C216.725 152.023 216.146 152.312 215.571 152.624Z" fill="#FFC797"/>
<path d="M130.816 213.777C114.747 213.777 98.7376 210.698 83.9723 204.04C76.655 200.741 69.2189 197.117 62.5523 192.613C60.3509 191.127 56.3976 188.899 57.015 186.159C57.1816 185.409 58.3976 185.12 58.5229 184.012C58.6843 182.596 56.8029 181.177 56.0536 180.332C54.2869 178.343 52.403 176.42 50.9763 174.159C50.355 173.173 49.1403 171.533 49.0509 170.355C48.9349 168.841 50.5616 167.619 50.7563 166.651C50.8843 166.025 51.451 165.804 51.367 164.995C51.067 162.107 46.4696 161.728 46.567 157.917C46.607 156.345 47.8176 154.047 48.2096 152.461C48.2563 152.269 48.3043 152.079 48.3509 151.888C48.8336 152.119 49.3176 152.364 49.7976 152.624C51.0963 155.121 55.2083 157.053 54.0803 157.901C52.6016 159.012 49.6456 160.561 54.5723 167.3C59.5003 174.039 62.8096 174.779 60.047 176.503C57.4123 178.145 59.2536 182.721 84.9376 194.828C98.6763 201.304 115.698 204.368 132.523 204.367C150.01 204.367 167.286 201.056 180.43 194.828C206.087 182.669 207.955 178.145 205.32 176.503C202.556 174.779 205.867 174.039 210.795 167.3C215.722 160.561 212.766 159.012 211.287 157.901C210.159 157.053 214.271 155.121 215.57 152.624C216.144 152.312 216.723 152.023 217.302 151.752C218.14 154.537 218.851 157.493 218.254 159.527C217.603 161.744 214.398 162.812 214.051 164.876C213.896 165.795 214.468 165.919 214.61 166.651C215.123 169.313 216.883 169.912 215.047 173.179C213.675 175.617 211.676 177.721 209.824 179.797C209.003 180.719 206.879 182.26 206.843 183.748C206.779 186.353 209.212 185.545 208.008 188.281C206.251 192.268 197.758 195.744 194.275 197.62C175.07 207.964 152.887 213.777 130.816 213.777Z" fill="#FFDCBD"/>
<path d="M95.6037 80.1655C76.8637 90.8935 61.8117 108.772 53.373 128.59C50.6264 135.038 48.6984 141.726 47.0797 148.532C46.3224 151.723 43.5944 157.206 44.7197 160.37C45.3277 162.079 49.2024 163.99 49.245 165.294C49.261 165.779 47.0877 167.804 46.9504 168.98C46.561 172.272 49.5624 175.791 51.3997 178.088C53.4944 180.708 55.8104 182.027 55.469 184.838C55.233 186.787 54.1584 186.955 55.5184 189.19C57.821 192.967 63.3477 195.594 66.9837 197.663C101.73 217.441 146.222 222.482 183.258 205.376C191.057 201.775 199.278 197.916 206.141 192.67C207.749 191.439 211.05 189.131 210.777 186.652C210.698 185.952 210.101 185.491 209.998 184.924C209.88 184.263 209.257 184.295 209.409 183.148C209.556 182.056 213.197 179.047 213.889 178.19C215.678 175.968 218.532 172.603 218.458 169.459C218.421 167.884 216.216 166.188 216.222 165.371C216.232 163.986 220.17 162.079 220.746 160.131C221.365 158.04 220.184 156.032 219.618 154.042C217.656 147.132 216.376 140.124 213.885 133.352C205.725 111.166 189.41 91.0255 168.656 79.5615C167.528 78.9388 166.517 80.6655 167.645 81.2895C186.154 91.5108 201.005 108.775 209.585 128.035C212.292 134.108 214.258 140.448 215.84 146.896C216.692 150.37 219.233 156.19 218.253 159.527C217.602 161.744 214.397 162.812 214.05 164.876C213.896 165.795 214.468 165.919 214.609 166.651C215.122 169.314 216.882 169.912 215.046 173.179C213.674 175.618 211.676 177.722 209.824 179.798C209.002 180.719 206.878 182.26 206.842 183.748C206.778 186.354 209.212 185.546 208.008 188.282C206.25 192.268 197.757 195.744 194.274 197.62C161.085 215.496 119.016 219.84 83.9717 204.04C76.6544 200.741 69.2184 197.118 62.5517 192.614C60.3504 191.127 56.3971 188.899 57.0144 186.159C57.1811 185.41 58.397 185.12 58.5224 184.012C58.6837 182.596 56.8024 181.178 56.053 180.332C54.2864 178.343 52.4024 176.42 50.9757 174.159C50.3544 173.174 49.1397 171.534 49.0504 170.355C48.9344 168.842 50.561 167.619 50.7557 166.651C50.8837 166.026 51.4504 165.804 51.3664 164.995C51.0664 162.107 46.469 161.728 46.5664 157.918C46.6064 156.346 47.817 154.047 48.209 152.462C49.6957 146.451 51.0517 140.45 53.1491 134.608C60.9104 113.002 76.6464 93.3228 96.6131 81.8922C97.7304 81.2522 96.7237 79.5228 95.6037 80.1655Z" fill="#822F0C"/>
<path d="M160.007 76.7194C160.007 76.7194 187.903 78.3181 219.118 59.8541C250.334 41.3874 274.955 23.8007 288.143 33.0341C301.334 42.2674 281.11 96.1247 236.704 109.754C236.704 109.754 240.222 125.367 199.774 123.497L160.007 76.7194Z" fill="#FFD2A8"/>
<path d="M176.626 85.0996C176.129 85.0996 176.05 84.3103 176.537 84.1903C207.9 76.4663 234.913 58.0169 261.356 40.0223L261.462 40.1623C248.321 50.3263 234.514 59.4169 220.141 67.7516C207.012 75.3636 192.153 84.0596 176.66 85.0983C176.649 85.0996 176.637 85.0996 176.626 85.0996Z" fill="#FFE9D4"/>
<path d="M236.772 110.368C236.754 109.979 236.703 109.755 236.703 109.755C236.722 109.749 236.746 109.743 236.764 109.736C236.775 109.909 236.782 110.121 236.772 110.368ZM292.082 42.0508C291.903 38.8841 291.106 36.2815 289.667 34.4775C289.694 34.3535 289.72 34.2321 289.746 34.1135C291.194 36.0068 291.963 38.7362 292.082 42.0508Z" fill="#FFE8D3"/>
<path d="M206.193 123.114C204.745 123.114 203.233 123.089 201.645 123.034C231.071 118.756 226.693 107.214 226.693 107.214C226.693 107.214 240.655 103.729 262.897 85.6956C264.738 84.2023 266.466 82.5623 268.087 80.8103C274.718 75.1156 279.349 66.9116 282.019 58.4622C286.175 48.8583 288.53 39.7049 289.667 34.4769C291.106 36.2809 291.903 38.8836 292.082 42.0502C292.755 60.7782 272.67 98.1889 236.702 109.229C236.702 109.229 236.743 109.412 236.765 109.736C236.746 109.742 236.722 109.749 236.703 109.754C236.703 109.754 236.754 109.978 236.773 110.368C236.657 113.686 233.883 123.114 206.193 123.114ZM288.678 42.2596C288.606 42.2596 288.534 42.3076 288.527 42.4023C287.859 52.0849 285.026 60.5662 279.726 68.6943C279.475 69.0796 279.811 69.4196 280.165 69.4196C280.319 69.4196 280.477 69.3543 280.59 69.2009C286.337 61.4729 289.25 52.0183 288.823 42.4023C288.819 42.3063 288.749 42.2596 288.678 42.2596Z" fill="#FFBF8B"/>
<path d="M275.173 40.1368C283.092 45.9168 275.833 65.7021 259.785 79.7715C243.739 93.8408 217.797 106.37 219.557 108.349C221.316 110.327 225.712 112.965 216.919 115.163C208.127 117.361 199.773 116.702 196.915 115.163C194.057 113.625 190.804 106.21 193.399 105.93C195.991 105.651 206.807 103.953 204.389 102.193C201.971 100.435 196.695 100.435 196.695 100.435C196.695 100.435 208.347 96.0381 217.579 89.0048C226.811 81.9688 224.833 79.5515 213.183 85.4861C201.531 91.4221 186.1 95.1595 183.373 93.4008C180.648 91.6421 185.712 89.2288 204.829 79.9915C232.509 66.6168 269.239 35.8048 275.173 40.1368Z" fill="#FFE8D3"/>
<path d="M274.465 40.8463C281.033 46.3983 275.54 57.6703 272.126 63.4823C266.669 72.7743 258.717 79.9157 250.068 86.1637C243.058 91.2263 235.674 95.729 228.345 100.304C226.345 101.552 219.474 104.502 218.755 107.234C218.573 107.928 218.489 108.148 218.693 108.854C218.911 109.613 220.44 110.052 220.556 110.8C221.028 113.844 215.958 114.392 214.269 114.73C210.085 115.568 201.485 116.917 197.418 114.3C195.959 113.36 193.002 109.693 193.894 107.717C194.556 106.25 194.892 106.998 196.509 106.492C198.43 105.889 205.881 105.858 205.722 102.598C205.577 99.6557 198.589 99.4677 196.694 99.4357C196.783 100.09 196.872 100.744 196.961 101.4C200.786 99.9303 228.649 86.9623 223.918 81.6757C221.002 78.4157 207.646 86.9983 205.209 87.949C200.461 89.7997 195.498 91.4157 190.469 92.3063C189.914 92.4063 184.533 93.5743 183.878 92.537C183.529 91.9863 184.98 91.4223 185.312 91.0597C187.144 89.049 191.158 87.785 193.532 86.5997C198.484 84.129 203.524 81.833 208.444 79.2997C217.473 74.6517 226.062 69.1677 234.554 63.6157C242.517 58.4103 250.352 52.9996 258.434 47.9783C261.464 46.097 270.815 38.8157 274.669 41.0023C275.79 41.637 276.798 39.9103 275.678 39.2743C269.958 36.029 258.268 45.6877 254.089 48.3623C240.158 57.2837 226.686 66.957 212.213 75.0063C204.857 79.097 197.131 82.4557 189.658 86.3183C187.897 87.2303 182.369 89.265 181.826 91.7757C180.318 98.7623 200.336 91.8103 201.797 91.313C206.266 89.793 210.457 87.845 214.722 85.8423C215.013 85.7063 221.753 82.4237 222.128 83.1357C222.472 83.7957 219.63 86.017 219.141 86.4583C212.809 92.1583 204.354 96.4277 196.429 99.4703C195.416 99.8597 195.503 101.414 196.694 101.436C197.764 101.454 199.082 101.394 200.078 101.728C201.964 102.358 202.483 102.376 201.123 103.493C199.231 105.045 195.37 103.909 193.264 104.949C190.629 106.25 191.414 108.777 192.54 111.206C194.505 115.446 197.462 116.925 201.969 117.398C206.922 117.918 218.344 118.148 222.097 114.076C224.442 111.529 221.969 111.118 221.39 108.78C220.946 106.993 222.4 106.542 224.266 105.274C226.806 103.548 229.454 101.969 232.064 100.349C245.342 92.0997 259.509 83.6823 269.268 71.1877C274.678 64.261 285.327 47.4183 275.879 39.4303C274.903 38.605 273.481 40.013 274.465 40.8463Z" fill="#822F0C"/>
<path d="M169.318 77.2509C204.63 75.6003 231.047 50.0749 261.746 35.9949C271.647 31.4549 290.675 25.9429 291.114 42.4603C291.423 54.1309 285.33 66.1229 279 75.5362C268.759 90.7656 253.982 102.642 236.436 108.264C235.898 108.438 235.624 108.946 235.739 109.495C236.248 111.951 234.307 114.739 232.436 116.319C224.162 123.312 209.747 122.355 199.772 121.971C198.484 121.922 198.487 123.922 199.772 123.971C211.083 124.406 233.419 125.688 237.662 111.48C237.802 111.01 237.459 109.427 237.695 109.132C237.304 109.618 241.424 108.666 241.922 108.471C244.663 107.403 247.346 106.18 249.944 104.802C259.606 99.6803 268.132 92.4656 275.102 84.0616C284.5 72.7256 295.514 54.8376 292.836 39.2429C289.723 21.0963 265.232 31.8189 255.503 36.8482C227.688 51.2216 201.968 73.7256 169.318 75.2509C168.036 75.3109 168.028 77.3109 169.318 77.2509Z" fill="#822F0C"/>
<path d="M104.66 76.7194C104.66 76.7194 76.764 78.3181 45.5494 59.8541C14.3334 41.3874 -10.288 23.8007 -23.4773 33.0341C-36.6666 42.2674 -16.4426 96.1247 27.9627 109.754C27.9627 109.754 24.4454 125.367 64.8934 123.497L104.66 76.7194Z" fill="#FFD2A8"/>
<path d="M88.0401 85.0996C88.0294 85.0996 88.0188 85.0996 88.0081 85.0983C72.5148 84.0596 57.6561 75.3636 44.5254 67.7516C30.1521 59.4183 16.3468 50.3263 3.2041 40.1623L3.31077 40.0223C29.7521 58.0169 56.7681 76.4663 88.1294 84.1903C88.6228 84.3116 88.5334 85.0996 88.0401 85.0996Z" fill="#FFE9D4"/>
<path d="M27.8915 110.383C27.8821 110.131 27.8875 109.912 27.8995 109.736C27.9208 109.743 27.9395 109.748 27.9621 109.755C27.9621 109.755 27.9101 109.984 27.8915 110.383Z" fill="#EB9A9D"/>
<path d="M58.4731 123.114C30.8238 123.113 28.0171 113.714 27.8931 110.382C27.9118 109.984 27.9638 109.754 27.9638 109.754C27.9411 109.748 27.9224 109.742 27.9011 109.736C27.9224 109.412 27.9638 109.229 27.9638 109.229C-8.00423 98.1889 -28.0895 60.7782 -27.4162 42.0516C-27.2375 38.8822 -26.4402 36.2822 -25.0016 34.4769C-23.8629 39.7062 -21.5096 48.8609 -17.3509 58.4663C-14.6802 66.9156 -10.0509 75.1169 -3.42022 80.8103C-1.80022 82.5623 -0.0708942 84.2023 1.77044 85.6956C24.0118 103.729 37.9731 107.214 37.9731 107.214C37.9731 107.214 33.5944 118.756 63.0211 123.034C61.4331 123.089 59.9211 123.114 58.4731 123.114ZM-24.0109 42.2596C-24.0816 42.2596 -24.1522 42.3063 -24.1562 42.4023C-24.5829 52.0183 -21.6696 61.4716 -15.9242 69.2009C-15.8109 69.3543 -15.6522 69.4196 -15.4989 69.4196C-15.1442 69.4196 -14.8082 69.0796 -15.0589 68.6943C-20.3536 60.5742 -23.1922 52.0863 -23.8616 42.4023C-23.8682 42.3076 -23.9402 42.2596 -24.0109 42.2596Z" fill="#FFBF8B"/>
<path d="M-10.5072 40.1368C-18.4258 45.9168 -11.1658 65.7021 4.88086 79.7715C20.9289 93.8408 46.8689 106.37 45.1102 108.349C43.3515 110.327 38.9555 112.965 47.7475 115.163C56.5409 117.361 64.8942 116.702 67.7515 115.163C70.6102 113.625 73.8622 106.21 71.2689 105.93C68.6768 105.651 57.8595 103.953 60.2782 102.193C62.6955 100.435 67.9715 100.435 67.9715 100.435C67.9715 100.435 56.3208 96.0381 47.0875 89.0048C37.8555 81.9688 39.8342 79.5515 51.4848 85.4861C63.1355 91.4221 78.5675 95.1595 81.2942 93.4008C84.0182 91.6421 78.9555 89.2288 59.8382 79.9915C32.1582 66.6168 -4.57116 35.8048 -10.5072 40.1368Z" fill="#FFE8D3"/>
<path d="M-11.2143 39.4305C-19.3237 46.2878 -12.093 60.1825 -7.65696 66.9292C0.961702 80.0398 14.339 88.8692 27.3857 97.0932C31.815 99.8852 39.0724 102.689 42.4964 106.728C44.4524 109.033 43.3083 107.705 42.1203 110.111C41.6323 111.096 41.2617 111.807 41.6617 112.911C43.1564 117.024 52.323 117.191 55.8324 117.444C60.463 117.779 66.7404 118.095 70.171 114.348C71.9457 112.408 74.8457 107.324 72.0777 105.211C70.643 104.115 67.2124 104.345 65.4577 103.949C60.0484 102.729 64.6564 101.492 67.971 101.436C69.1537 101.415 69.2577 99.8625 68.2377 99.4705C62.2857 97.1865 56.4457 94.1852 51.1404 90.6518C48.7737 89.0758 46.3364 87.3879 44.315 85.3679C42.759 83.8132 42.1604 83.8772 43.4284 83.3225C46.0244 82.1865 54.0404 87.8719 56.8364 89.0345C59.2444 90.0372 81.863 99.4692 82.9417 92.7038C83.247 90.7918 80.5457 89.4345 79.2617 88.6372C72.5564 84.4732 65.0324 81.5385 58.015 77.9692C43.1457 70.4118 29.4537 60.7265 15.5404 51.5892C9.73503 47.7772 3.89503 43.7638 -2.39964 40.7878C-4.82764 39.6385 -8.36498 37.7732 -11.0117 39.2745C-12.1317 39.9105 -11.1236 41.6372 -10.0023 41.0025C-6.14898 38.8158 3.20169 46.0972 6.23103 47.9785C14.3137 52.9998 22.1497 58.4105 30.1124 63.6158C38.6044 69.1679 47.1924 74.6519 56.223 79.2999C61.1417 81.8332 66.183 84.1292 71.1337 86.5998C73.5084 87.7852 77.5217 89.0492 79.3537 91.0598C79.6857 91.4225 81.1364 91.9865 80.7884 92.5372C80.1324 93.5745 74.751 92.4065 74.1964 92.3065C69.1684 91.4158 64.2057 89.7998 59.4577 87.9492C57.019 86.9985 43.6644 78.4158 40.747 81.6758C36.0177 86.9625 63.8804 99.9305 67.7057 101.4C67.795 100.744 67.883 100.091 67.971 99.4358C66.0057 99.4692 59.0884 99.6572 58.9444 102.599C58.783 105.908 66.3817 105.781 68.1577 106.492C68.519 106.636 70.2524 106.528 70.5337 106.843C72.3577 108.873 68.8097 113.351 67.247 114.3C62.9644 116.904 54.8324 115.612 50.3977 114.731C48.4977 114.353 43.6257 113.935 44.111 110.8C44.2004 110.213 45.9577 109.544 45.895 108.956C45.8324 108.364 46.127 107.961 45.9097 107.235C45.055 104.36 38.579 101.713 36.3217 100.304C28.9923 95.7292 21.6084 91.2265 14.599 86.1638C5.95769 79.9212 -2.01963 72.7745 -7.45963 63.4825C-10.8396 57.7092 -16.3543 46.3878 -9.79964 40.8465C-8.81564 40.0132 -10.2357 38.6052 -11.2143 39.4305Z" fill="#822F0C"/>
<path d="M103.402 75.1927C78.2383 76.5473 54.5943 63.6807 33.8623 51.1447C21.3023 43.55 8.34232 34.6087 -5.89368 30.434C-12.215 28.5807 -21.3204 27.5754 -25.931 33.5354C-34.303 44.3594 -23.5137 64.7273 -17.6684 74.0687C-12.047 83.05 -4.86969 91.098 3.53031 97.566C8.18498 101.147 13.2037 104.231 18.5423 106.685C20.8597 107.75 26.5077 109.022 26.905 109.681C27.3597 110.437 27.1543 112.385 27.5263 113.337C28.3316 115.386 29.8477 117.022 31.581 118.335C40.4357 125.035 54.5757 124.366 64.8943 123.97C66.1783 123.921 66.185 121.921 64.8943 121.97C54.9023 122.354 40.513 123.318 32.2303 116.318C30.3583 114.737 28.4183 111.95 28.9276 109.494C29.041 108.949 28.7716 108.438 28.2303 108.263C11.629 102.943 -2.42701 92.0594 -12.6177 77.9994C-19.7883 68.1047 -26.7817 55.0593 -26.447 42.4593C-25.9724 24.5767 -4.34968 32.3847 5.50499 37.238C25.781 47.2194 43.729 61.7127 64.945 69.7807C76.8343 74.2994 90.5197 77.886 103.402 77.1927C104.684 77.1247 104.69 75.1247 103.402 75.1927Z" fill="#822F0C"/>
<path d="M102.374 79.6713C105.089 76.434 108.502 73.6633 111.937 71.2527C115.293 68.9007 118.86 66.838 122.657 65.2873C123.228 65.054 132.5 62.0207 130.301 64.9033C129.774 65.594 130.65 66.646 131.43 66.3713C134.81 65.186 138.313 64.2914 141.811 63.542C145.492 62.754 149.268 62.0687 153.026 61.8487C154.85 61.742 156.312 61.1553 157.201 63.0513C158.229 65.2393 155.625 66.1167 153.788 67.338C153.125 67.778 153.129 68.9807 154.025 69.1647C157.058 69.786 160.109 70.6273 162.952 71.8554C165.776 73.0753 170.03 76.722 165.254 78.6607C164.086 79.1327 162.366 79.0714 161.108 79.0434C160.297 79.0247 159.932 79.8927 160.244 80.5474C162.86 86.0567 153.272 83.4607 150.983 82.766C150.204 82.5287 149.324 83.5167 149.853 84.2353C154.14 90.05 135.181 87.146 134.336 87.0114C133.076 86.81 132.534 88.738 133.804 88.9394C136.076 89.302 158.141 92.1274 151.58 83.226C151.204 83.7154 150.828 84.2047 150.452 84.694C154.693 85.9807 165.845 87.6953 161.97 79.538C161.684 80.0393 161.396 80.542 161.108 81.0434C164.73 81.1234 172.098 79.918 169.938 74.6127C167.974 69.79 158.981 68.142 154.558 67.2367C154.637 67.846 154.717 68.4554 154.797 69.0647C157.665 67.158 164.893 61.8967 158.113 59.9887C153.753 58.762 147.758 60.3487 143.418 61.1794C139.194 61.9874 134.961 63.0167 130.9 64.4434C131.276 64.9327 131.652 65.422 132.028 65.9114C136.281 60.3367 126.456 61.7554 123.966 62.5954C115.506 65.45 106.741 71.3607 100.961 78.2567C100.138 79.238 101.546 80.6593 102.374 79.6713Z" fill="#822F0C"/>
<path d="M148.528 91.9727C143.461 91.9727 137.592 89.8513 135.945 89.2153C137.795 89.4193 140.512 89.65 143.227 89.65C148.467 89.65 153.696 88.794 152.661 85.2487C154.123 85.5513 155.821 85.7847 157.405 85.7847C160.773 85.7847 163.62 84.7273 162.543 81.0127C162.876 80.9913 163.223 80.9607 163.576 80.9207L166.159 83.958C165.765 84.0393 165.537 84.0767 165.537 84.0767C165.796 88.5113 161.92 89.354 158.936 89.354C157.108 89.354 155.615 89.0367 155.615 89.0367C154.212 91.238 151.509 91.9727 148.528 91.9727Z" fill="#FFBF8B"/>
<path d="M166.16 83.958L163.577 80.9207C165.301 80.7193 167.185 80.258 168.525 79.3873C170.753 79.2447 173.468 78.9927 176.58 78.5553C173.885 82.0967 168.069 83.5607 166.16 83.958Z" fill="#FFBF8B"/>
<path d="M143.226 89.6504C140.512 89.6504 137.794 89.4197 135.945 89.2157C135.654 89.1037 135.496 89.037 135.496 89.037C135.496 89.037 134.798 88.6197 133.68 87.8677L134.069 87.9757C138.497 88.7317 141.836 89.037 144.34 89.037C154.786 89.037 150.716 83.7304 150.716 83.7304C153.944 84.7904 156.253 85.2024 157.892 85.2024C163.684 85.2024 161.106 80.0437 161.106 80.0437C161.106 80.0437 161.237 80.0491 161.466 80.0491C162.329 80.0491 164.584 79.9824 166.46 79.353L166.708 79.485C167.27 79.461 167.876 79.429 168.524 79.3877C167.184 80.2584 165.3 80.7197 163.576 80.921C163.222 80.961 162.876 80.9917 162.542 81.0131C163.62 84.7277 160.773 85.785 157.405 85.785C155.821 85.785 154.122 85.5517 152.661 85.2491C153.696 88.7944 148.466 89.6504 143.226 89.6504Z" fill="#822B0A"/>
</g>
</svg>
