<svg width="263" height="263" viewBox="0 0 263 263" fill="none" xmlns="http://www.w3.org/2000/svg">
<circle cx="131.5" cy="131.5" r="131.5" fill="#C1E878"/>
<mask id="mask0_346_12652" style="mask-type:alpha" maskUnits="userSpaceOnUse" x="0" y="0" width="263" height="263">
<circle cx="131.5" cy="131.5" r="131.5" fill="#D9D9D9"/>
</mask>
<g mask="url(#mask0_346_12652)">
<path d="M135.222 257.072C91.0422 260.311 56.4828 242.323 50.8955 229.057C45.3086 215.795 64.8291 214.908 49.4215 198.866C24.2936 172.704 20.0208 128.106 43.3009 95.2921C57.4156 75.398 92.2968 44.727 142.109 47.8755C191.922 51.0239 210.374 84.2015 218.526 102.594C226.678 120.985 211.13 152.207 227.129 160.513C244.403 169.48 249.137 248.722 135.222 257.072Z" fill="#D7F0A8"/>
<path d="M50.8969 212.061C51.4199 221.178 34.6045 205.174 34.6045 194.597C34.6045 184.021 50.4888 204.939 50.8969 212.061Z" fill="#D7F0A8"/>
<path d="M39.1041 219.227C34.7779 214.867 43.4874 215.569 45.9092 217.957C48.3311 220.346 43.6018 223.759 39.1041 219.227Z" fill="#D7F0A8"/>
<path d="M227.109 155.344C220.536 153.819 224.928 128.23 230.475 127.662C236.021 127.092 237.728 157.81 227.109 155.344Z" fill="#D7F0A8"/>
<path d="M160.421 208.94H104.005C75.7956 211.536 62.7246 243.362 62.7246 243.362C84.8521 263.03 132.213 262.62 132.213 262.62C132.213 262.62 179.574 263.03 201.701 243.362C201.701 243.362 188.631 211.536 160.421 208.94Z" fill="#F6764D"/>
<path d="M153.098 223.365C151.094 219.607 151.616 213.967 152.584 209.395H111.84C112.809 213.967 113.331 219.607 111.326 223.365C107.741 230.093 94.0556 239.36 93.9072 257.963C113.373 262.777 132.212 262.62 132.212 262.62C132.212 262.62 151.051 262.776 170.517 257.963C170.368 239.36 156.683 230.093 153.098 223.365Z" fill="#FFDDA3"/>
<mask id="mask1_346_12652" style="mask-type:luminance" maskUnits="userSpaceOnUse" x="83" y="214" width="99" height="12">
<path d="M154.449 225.461C153.915 224.733 153.458 224.037 153.1 223.365C152.452 222.151 152.068 220.74 151.878 219.231C157.691 218.425 163.381 217.271 168.849 215.788C170.746 215.273 172.64 214.693 174.528 214.053C175.776 214.67 177.025 215.376 178.28 216.187C179.214 216.789 180.136 217.432 181.041 218.11C180.709 218.265 180.375 218.421 180.03 218.579C173.118 221.724 164.253 224.061 154.449 225.461ZM110.039 225.378C100.842 224.025 92.0561 221.789 84.399 218.579C84.0499 218.433 83.7119 218.286 83.377 218.14C85.6093 216.493 87.8878 215.146 90.2275 214.053C97.355 216.484 104.866 218.216 112.543 219.285C112.351 220.773 111.969 222.165 111.328 223.365C110.985 224.011 110.548 224.68 110.039 225.378Z" fill="white"/>
</mask>
<g mask="url(#mask1_346_12652)">
<path d="M83.377 225.461H181.041V214.053H83.377V225.461Z" fill="#F25D37"/>
</g>
<path d="M132.511 226.976C125.001 226.976 117.388 226.459 110.04 225.378C110.549 224.679 110.985 224.011 111.329 223.365C111.969 222.165 112.352 220.773 112.544 219.285C118.92 220.175 125.409 220.609 131.886 220.609C138.612 220.609 145.323 220.141 151.879 219.231C152.069 220.739 152.452 222.151 153.101 223.365C153.458 224.036 153.916 224.732 154.45 225.461C147.486 226.455 140.049 226.976 132.511 226.976Z" fill="#FBAD75"/>
<path d="M202.636 243.036C198.875 234.002 192.605 225.445 185.249 219.041C176.079 211.057 165.746 207.906 153.884 207.906C140.691 207.906 127.498 207.906 114.307 207.906C102.923 207.906 93.099 208.817 83.3373 215.753C73.9983 222.387 66.2049 232.441 61.7924 243.036C61.3137 244.186 63.1873 244.688 63.66 243.551C67.1542 235.164 73.4908 226.555 80.5507 220.411C90.0325 212.157 100.327 209.843 112.345 209.843C124.238 209.843 136.129 209.843 148.021 209.843C159.035 209.843 168.476 209.857 178.28 216.188C188.049 222.494 196.418 233.104 200.769 243.551C201.242 244.687 203.117 244.188 202.636 243.036Z" fill="#782520"/>
<path d="M101.627 231.383C97.8053 234.074 94.8098 238.364 93.7934 242.954C93.6606 243.553 94.5056 243.779 94.7085 243.205C96.2899 238.713 98.4987 235.103 101.933 231.779C102.133 231.585 101.865 231.215 101.627 231.383Z" fill="#782520"/>
<path d="M94.1375 235.09C91.9093 237.878 89.3183 242.192 89.4949 245.908C89.5121 246.256 90.0382 246.47 90.2097 246.102C90.9366 244.539 91.1758 242.786 91.768 241.166C92.4965 239.169 93.4842 237.241 94.5334 235.396C94.6697 235.157 94.322 234.86 94.1375 235.09Z" fill="#782520"/>
<path d="M95.0342 229.186C92.3727 230.746 90.4189 234.354 89.4377 237.176C89.2728 237.65 89.981 237.918 90.2313 237.509C91.7497 235.017 93.1057 231.782 95.5124 230.005C95.9916 229.651 95.574 228.869 95.0342 229.186Z" fill="#782520"/>
<path d="M160.646 227.965C163.605 231.081 165.668 234.732 168.208 238.148C168.502 238.543 169.325 238.326 169.093 237.775C167.418 233.779 164.023 230.557 160.702 227.908L160.646 227.965Z" fill="#782520"/>
<path d="M166.995 230.152C168.299 231.844 169.607 233.527 170.729 235.348C171.855 237.175 172.642 239.212 173.858 240.974C174.152 241.398 174.793 241.138 174.689 240.624C173.865 236.581 170.428 232.481 167.343 229.884C167.166 229.735 166.829 229.939 166.995 230.152Z" fill="#782520"/>
<path d="M168.498 226.207C170.785 229.21 172.956 232.212 174.885 235.461C175.246 236.066 176.153 235.531 175.827 234.911C174.061 231.561 171.648 228.435 168.688 226.061C168.591 225.984 168.408 226.088 168.498 226.207Z" fill="#782520"/>
<path d="M71.5531 233.538C69.0086 235.474 66.7658 238.665 66.4248 241.913C66.3849 242.29 66.9766 242.437 67.1391 242.107C67.8408 240.667 68.323 239.14 69.1211 237.744C69.9095 236.362 70.859 235.072 71.8291 233.814C71.9501 233.657 71.71 233.418 71.5531 233.538Z" fill="#782520"/>
<path d="M75.0655 231.945C72.6693 234.121 70.7251 237.547 70.1873 240.743C70.1198 241.142 70.6707 241.454 70.8881 241.039C71.6544 239.579 72.248 238.039 73.0295 236.586C73.8125 235.13 74.7572 233.772 75.5729 232.338C75.7571 232.012 75.3354 231.701 75.0655 231.945Z" fill="#782520"/>
<path d="M189.764 231.661C190.726 233.142 191.581 234.701 192.343 236.293C193.099 237.874 193.5 239.665 194.422 241.155C194.65 241.523 195.285 241.39 195.268 240.925C195.143 237.429 192.418 233.841 190.178 231.343C189.979 231.122 189.602 231.41 189.764 231.661Z" fill="#782520"/>
<path d="M190.305 236.904C191.201 239.826 191.533 243.116 192.684 245.926C192.882 246.41 193.653 246.395 193.655 245.794C193.659 242.711 192.115 239.435 190.857 236.672C190.715 236.356 190.205 236.58 190.305 236.904Z" fill="#782520"/>
<path d="M213.207 182.36C215.789 181.052 218.494 180.6 216.012 177.215C213.533 173.829 214.784 147.473 203.828 126.175C186.025 91.5688 162.148 81.3964 144.063 78.7529C144.211 78.7374 150.987 77.9922 148.678 76.0138C146.345 74.0121 137.843 77.0133 137.843 77.0133C137.843 77.0133 145.345 69.6781 141.678 69.6781C138.085 69.6781 132.4 74.9109 132.169 75.2351C131.938 74.9109 126.297 69.6781 122.706 69.6781C119.037 69.6781 126.538 77.0133 126.538 77.0133C126.538 77.0133 118.037 74.0121 115.704 76.0138C113.369 78.0142 120.333 78.7554 120.333 78.7554L120.369 78.7529C102.285 81.3938 78.4035 91.5636 60.5977 126.175C49.6409 147.473 50.8929 173.829 48.4125 177.215C45.9316 180.6 48.6361 181.052 51.2194 182.36C54.4443 183.995 44.9823 183.618 49.8164 189.216C52.9133 192.801 63.3278 201.997 84.3979 210.83C112.955 222.803 157.19 221.222 180.029 210.83C200.823 201.368 211.512 192.801 214.61 189.216C219.444 183.618 209.982 183.995 213.207 182.36Z" fill="#F6764D"/>
<path d="M214.61 189.216C219.444 183.618 209.982 183.995 213.207 182.36C215.789 181.052 218.494 180.6 216.012 177.215C214.433 175.058 214.363 163.579 211.693 150.028C211.551 149.585 211.432 149.141 211.338 148.694C209.633 159.72 204.47 182.577 190.426 189.176C171.694 197.977 160.806 182.613 154.514 175.627C148.222 168.639 142.295 165.612 132.169 167.238C122.043 165.612 116.116 168.639 109.824 175.627C103.532 182.613 92.6443 197.977 73.9128 189.176C59.8692 182.577 54.7057 159.722 53.0005 148.694C50.0622 162.821 50.0445 174.987 48.4125 177.215C45.9316 180.6 48.6361 181.052 51.2194 182.36C54.4443 183.995 44.9823 183.618 49.8164 189.216C52.9133 192.801 63.3278 201.997 84.3979 210.83C112.955 222.803 157.19 221.222 180.029 210.83C200.823 201.368 211.512 192.801 214.61 189.216Z" fill="#FFDDA3"/>
<path d="M55.1589 159.321C54.4486 156.529 53.9002 153.887 53.4814 151.563C53.9032 149.274 54.3774 147.001 54.9232 144.744C55.0297 144.876 55.1366 145.007 55.2441 145.138C55.4338 145.369 55.6562 145.466 55.8747 145.466C56.1344 145.466 56.3871 145.329 56.5708 145.12C56.6046 145.153 56.6384 145.187 56.6712 145.219C55.9901 150.269 55.5307 155.107 55.1589 159.321ZM209.182 159.319C208.813 155.127 208.356 150.316 207.68 145.295C207.738 145.238 207.796 145.179 207.857 145.118C208.04 145.329 208.294 145.466 208.553 145.466C208.771 145.466 208.994 145.369 209.183 145.138C209.266 145.037 209.35 144.935 209.431 144.834C209.984 146.957 210.475 149.108 210.91 151.281C210.485 153.671 209.921 156.416 209.182 159.319Z" fill="#F25D37"/>
<path d="M133.836 218.675C121.596 218.675 109.396 217.117 98.259 214.341C84.7644 210.977 71.6436 204.747 60.2403 196.794C57.3654 194.79 53.3453 192.384 51.3109 189.418C50.2713 187.901 49.6386 188.136 50.2485 186.249C50.8625 184.349 51.2105 185.514 51.8668 184.367C52.1791 183.824 52.9055 183.839 52.8732 183.001C52.7486 179.754 48.5727 182.459 49.4581 177.347C49.9418 174.554 50.6683 171.847 51.0062 168.98C51.6932 163.157 52.4197 157.32 53.48 151.563C53.8988 153.887 54.4472 156.53 55.1575 159.322C54.4961 166.814 54.1117 172.327 53.2485 173.504C50.9125 176.692 53.4594 177.117 55.8914 178.351C58.9288 179.89 50.018 179.535 54.5708 184.806C57.4875 188.183 67.2951 196.844 87.1379 205.163C100.113 210.602 116.522 213.07 132.448 213.07C149.536 213.07 166.067 210.228 177.2 205.163C196.783 196.251 206.85 188.183 209.767 184.806C214.319 179.535 205.408 179.89 208.446 178.351C210.878 177.117 213.425 176.692 211.089 173.504C210.227 172.326 209.842 166.814 209.181 159.319C209.919 156.416 210.484 153.672 210.909 151.281C211.395 153.713 211.811 156.175 212.165 158.67C212.826 163.337 213.188 168.044 213.883 172.705C214.094 174.126 214.514 175.486 214.772 176.878C215.261 179.503 215.466 180.183 212.971 181.403C212.887 181.429 212.803 181.469 212.718 181.525C212.608 181.577 212.518 181.639 212.447 181.71C211.412 182.451 211.701 182.789 211.984 183.954C212.284 185.191 215.013 185.205 214.647 187.538C214.441 188.852 211.727 190.738 210.707 191.615C201.108 199.871 188.815 206.324 177.146 211.015C163.927 216.33 148.852 218.675 133.836 218.675Z" fill="#FBAD75"/>
<path d="M213.696 183.198C218.113 181.12 218.074 180.556 216.697 176.427C215.231 172.032 215.173 167.101 214.606 162.517C212.726 147.314 209.124 132.91 201.329 119.601C188.736 98.1019 169.392 81.6751 144.32 77.8203C144.235 78.4544 144.15 79.0897 144.063 79.7225C146.077 79.4797 151.216 78.9102 149.743 75.8328C148.074 72.346 139.957 75.2697 137.586 76.0807C137.901 76.6206 138.214 77.1604 138.528 77.7002C139.973 76.268 144.941 71.9935 143.406 69.5604C141.808 67.0293 138.385 69.1872 135.725 71.3465C133.919 72.8109 132.465 74.2767 132.171 74.2754C132.255 74.2754 127.103 70.0124 125.694 69.4584C124.44 68.9651 122.1 68.0404 121.053 69.4622C119.294 71.8488 124.409 76.268 125.854 77.7002C126.168 77.1604 126.482 76.6206 126.796 76.0807C124.693 75.3614 115.552 72.1717 114.411 76.1466C113.625 78.8922 118.487 79.8542 120.37 79.7225C120.285 79.0884 120.198 78.4544 120.113 77.8203C95.8576 81.546 76.8194 97.0519 64.2377 117.69C56.2346 130.818 52.1444 144.941 50.128 160.096C49.4759 164.996 49.7059 170.857 48.0593 175.545C47.0585 178.394 45.3614 179.83 48.3039 182.034C49.9324 183.253 50.526 183.071 50.5104 182.889C50.4953 182.712 49.899 182.534 49.1176 183.663C48.5113 184.538 47.7082 184.744 47.4883 185.941C47.0151 188.515 49.9772 190.897 51.6268 192.433C60.7998 200.975 72.6677 207.033 84.1405 211.765C109.947 222.41 142.059 223.057 168.848 215.789C183.261 211.878 197.559 204.204 209.378 195.147C211.667 193.394 216.055 190.564 216.761 187.516C217.046 186.283 216.961 185.502 216.214 184.466C215.361 183.283 213.944 183.037 213.696 183.198C214.738 182.521 213.768 180.844 212.718 181.526C211.368 182.404 211.679 182.697 211.985 183.955C212.284 185.192 215.013 185.206 214.648 187.538C214.441 188.853 211.728 190.738 210.708 191.615C201.109 199.871 188.816 206.324 177.147 211.016C153.153 220.662 123.061 220.526 98.2596 214.342C84.765 210.977 71.6442 204.748 60.2409 196.795C57.366 194.791 53.346 192.385 51.3115 189.419C50.2719 187.901 49.6392 188.136 50.2492 186.25C50.8631 184.35 51.2111 185.515 51.8674 184.368C52.1797 183.824 52.9061 183.84 52.8738 183.002C52.7492 179.755 48.5733 182.459 49.4587 177.348C49.9424 174.555 50.6689 171.848 51.0068 168.981C52.6362 155.167 54.4881 141.274 60.4992 128.556C72.1814 103.838 93.0281 83.9286 120.628 79.6877C121.701 79.5224 121.456 77.7092 120.37 77.7854C119.073 77.8758 118.282 77.5194 118.245 77.1617C118.205 76.7768 119.045 76.392 121.074 76.5689C122.821 76.7213 124.624 77.3812 126.282 77.9481C127.218 78.2697 127.886 76.9847 127.225 76.33C126.386 75.4996 123.102 72.6508 123.204 71.6112C123.427 69.3396 130.605 75.0128 131.485 75.9206C131.845 76.2925 132.494 76.2913 132.854 75.9206C133.581 75.1742 140.965 69.2531 141.178 71.6112C141.284 72.7773 137.986 75.5112 137.158 76.33C136.498 76.9847 137.165 78.2697 138.101 77.9481C139.585 77.4406 141.111 76.9989 142.65 76.7045C145.364 76.1866 148.095 77.2986 144.063 77.7854C143.093 77.9029 142.621 79.5069 143.806 79.6889C167.177 83.2816 185.61 97.9236 197.941 117.743C205.818 130.405 210.083 143.982 212.166 158.67C212.827 163.337 213.188 168.045 213.883 172.705C214.095 174.127 214.515 175.487 214.773 176.879C215.278 179.588 215.479 180.226 212.718 181.526C211.591 182.056 212.572 183.726 213.696 183.198Z" fill="#782520"/>
<path d="M126.536 79.4647C122.902 79.701 119.425 81.0234 116.346 82.9502C115.711 83.3467 116.263 84.2532 116.926 83.942C120.131 82.4375 123.043 80.4849 126.582 79.8017C126.771 79.7656 126.73 79.4518 126.536 79.4647Z" fill="#782520"/>
<path d="M125.756 83.0324C122.939 85.7005 120.847 89.0259 119.8 92.7761C119.586 93.5458 120.735 93.8493 120.987 93.1041C122.18 89.5734 123.825 86.3449 126.127 83.4044C126.331 83.1448 126.009 82.7935 125.756 83.0324Z" fill="#782520"/>
<path d="M131.566 79.2319C129.583 81.2194 127.264 85.0936 127.702 88.0148C127.764 88.4306 128.405 88.4758 128.587 88.131C129.227 86.9132 129.319 85.4358 129.805 84.1354C130.394 82.5573 131.237 81.0748 132.041 79.5987C132.204 79.3017 131.814 78.9827 131.566 79.2319Z" fill="#782520"/>
<path d="M133.901 83.8947C133.087 86.5486 133.304 90.672 135.315 92.7835C135.706 93.1954 136.305 92.7589 136.209 92.263C135.949 90.9367 135.263 89.7319 134.925 88.4159C134.55 86.9528 134.46 85.4534 134.337 83.9541C134.318 83.71 133.978 83.6455 133.901 83.8947Z" fill="#782520"/>
<path d="M137.045 79.8004C136.966 82.2037 137.674 85.2385 139.357 87.0375C139.734 87.4417 140.479 87.0246 140.301 86.4873C139.945 85.4232 139.336 84.4947 138.865 83.4822C138.3 82.267 137.838 80.9989 137.321 79.763C137.263 79.6222 137.05 79.6299 137.045 79.8004Z" fill="#782520"/>
<path d="M142.137 81.8934C143.543 82.9098 144.94 83.9946 146.12 85.2705C147.302 86.549 148.181 88.0276 149.214 89.4172C149.558 89.8769 150.404 89.6354 150.21 88.9962C149.15 85.4952 145.708 82.5843 142.3 81.5073C142.057 81.4298 141.954 81.7617 142.137 81.8934Z" fill="#782520"/>
<path d="M94.6935 142.656C79.5896 142.274 76.7218 160.437 81.8839 168.66C84.4652 172.77 87.6927 175.627 94.6935 175.627C101.47 175.627 104.924 172.77 107.504 168.66C112.667 160.437 109.799 142.274 94.6935 142.656Z" fill="white"/>
<path d="M110.113 153.725C106.998 143.289 94.6921 137.502 85.2209 144.482C77.9048 149.875 76.6844 161.591 81.049 169.148C81.6725 170.226 83.3468 169.253 82.7217 168.17C79.2123 162.094 79.7022 152.972 84.5514 147.698C92.2474 139.327 105.265 144.252 108.244 154.239C108.6 155.431 110.469 154.923 110.113 153.725Z" fill="#782520"/>
<path d="M108.18 159.679C108.18 166.203 103.903 171.491 98.6266 171.491C93.3481 171.491 89.0703 166.203 89.0703 159.679C89.0703 153.156 93.3481 147.867 98.6266 147.867C103.903 147.867 108.18 153.156 108.18 159.679Z" fill="#782520"/>
<path d="M169.733 142.656C184.838 142.274 187.706 160.437 182.543 168.66C179.963 172.77 176.735 175.627 169.733 175.627C162.957 175.627 159.505 172.77 156.924 168.66C151.762 160.437 154.629 142.274 169.733 142.656Z" fill="white"/>
<path d="M156.185 154.238C159.171 144.23 172.19 139.337 179.879 147.697C184.724 152.968 185.215 162.097 181.707 168.17C181.082 169.251 182.756 170.227 183.38 169.148C187.746 161.589 186.524 149.873 179.207 144.482C169.742 137.506 157.43 143.292 154.318 153.724C153.96 154.922 155.829 155.433 156.185 154.238Z" fill="#782520"/>
<path d="M156.245 159.679C156.245 166.203 160.524 171.491 165.802 171.491C171.08 171.491 175.357 166.203 175.357 159.679C175.357 153.156 171.08 147.867 165.802 147.867C160.524 147.867 156.245 153.156 156.245 159.679Z" fill="#782520"/>
<path d="M79.7664 186.456C65.2063 183.117 69.8625 173.16 79.7664 175.528C93.4765 178.806 91.6812 189.188 79.7664 186.456Z" fill="#FFB6C3"/>
<path d="M184.659 186.456C199.22 183.117 194.563 173.16 184.659 175.528C170.95 178.806 172.746 189.188 184.659 186.456Z" fill="#FFB6C3"/>
<path d="M88.0526 140.835C90.6097 139.739 94.1071 138.966 98.1568 140.423C101.055 141.464 102.661 139.143 100.538 137.481C98.0922 135.567 91.9591 134.457 87.6717 136.562C83.3849 138.667 83.6789 140.104 84.0216 140.921C84.3646 141.739 85.6499 141.863 88.0526 140.835Z" fill="#782520"/>
<path d="M176.374 140.835C173.817 139.739 170.32 138.966 166.27 140.423C163.372 141.464 161.767 139.143 163.89 137.481C166.334 135.567 172.467 134.457 176.755 136.562C181.041 138.667 180.748 140.104 180.405 140.921C180.062 141.739 178.777 141.863 176.374 140.835Z" fill="#782520"/>
<path d="M141.784 164.375C139.885 162.248 124.542 162.248 122.645 164.375C120.747 166.504 124.302 171.451 132.214 175.217C140.127 171.451 143.681 166.504 141.784 164.375Z" fill="#782520"/>
<path d="M140.115 165.711C140.107 165.711 140.098 165.711 140.089 165.71C137.302 165.471 134.573 165.311 131.838 165.311C129.56 165.311 127.278 165.422 124.954 165.69L124.932 165.526C127.914 164.915 130.983 164.559 134.048 164.559C136.102 164.559 138.156 164.719 140.175 165.07C140.528 165.132 140.454 165.711 140.115 165.711Z" fill="#9C302A"/>
<path d="M131.246 174.09C131.246 177.981 131.246 181.871 131.246 185.763C131.246 187.009 133.183 187.011 133.183 185.763C133.183 181.871 133.183 177.981 133.183 174.09C133.183 172.844 131.246 172.841 131.246 174.09Z" fill="#782520"/>
<path d="M115.587 181.443C117.711 181.438 117.169 182.324 117.838 184.08C118.422 185.615 119.358 187.01 120.748 187.926C124.591 190.459 129.736 189.025 132.899 186.092C133.816 185.241 132.443 183.874 131.53 184.722C127.41 188.542 120.924 188.086 119.317 182.329C118.717 180.18 118.097 179.499 115.587 179.506C114.341 179.51 114.34 181.447 115.587 181.443Z" fill="#782520"/>
<path d="M148.84 179.506C146.321 179.499 145.714 180.171 145.112 182.329C143.511 188.066 137.011 188.534 132.899 184.722C131.986 183.874 130.613 185.241 131.53 186.092C134.692 189.023 139.839 190.458 143.68 187.926C144.984 187.067 145.906 185.771 146.491 184.342C146.737 183.741 146.801 182.544 147.163 182.037C147.623 181.39 147.885 181.44 148.84 181.443C150.088 181.447 150.089 179.509 148.84 179.506Z" fill="#782520"/>
<path d="M58.106 146.521C58.106 146.521 46.8218 137.945 37.7946 109.736C28.7674 81.5249 34.8606 50.606 37.7946 48.3486C40.729 46.0925 84.7368 50.38 105.726 94.6146L58.106 146.521Z" fill="#F6764D"/>
<path d="M70.4036 72.3851C69.5017 69.2251 70.5166 69.3387 72.9996 70.6934C75.4821 72.0468 79.8824 72.0468 76.6105 67.195C74.2501 63.6953 79.9288 65.3018 82.0102 64.4378C61.7805 48.3972 39.8351 46.7791 37.7926 48.3494C35.1053 50.4183 29.7753 76.537 35.8373 102.594C36.8558 102.178 37.7063 101.34 37.4546 99.6481C36.8902 95.8565 38.2481 95.3813 39.0925 97.1983C39.9365 99.0153 43.6609 98.9029 43.4349 95.2922C43.2094 91.6814 47.8358 67.0813 57.766 71.8208C67.6958 76.5602 71.3066 75.5452 70.4036 72.3851Z" fill="#782520"/>
<path d="M60.3627 126.175C68.1464 111.045 77.092 100.586 86.2065 93.384C65.6266 65.5477 43.5809 56.5156 41.8567 57.3783C40.0507 58.281 36.6658 75.8842 41.8567 97.1989C45.4666 112.024 53.1116 125.711 57.4354 132.678C58.302 130.478 59.2685 128.301 60.3627 126.175Z" fill="#FFDDA3"/>
<path d="M87.0423 92.8936C78.1528 81.0811 67.7075 70.2087 55.144 62.2705C52.6344 60.6846 44.2443 54.4548 40.9562 56.8697C39.0786 58.249 38.9333 63.1215 38.6806 65.0909C37.7095 72.6495 38.0319 80.4018 39.0983 87.9282C41.395 104.146 48.0766 119.295 56.5984 133.165C57.2496 134.225 58.9264 133.254 58.2712 132.187C51.5478 121.245 45.8545 109.459 42.7899 96.9409C40.8871 89.1679 39.9437 81.125 40.0724 73.1208C40.13 69.5191 39.5902 62.6721 41.7633 59.5533C43.0582 57.695 44.1988 58.7061 46.5122 59.7315C49.7953 61.1869 52.9033 63.0789 55.8866 65.0638C67.4023 72.7296 77.0863 82.8633 85.3695 93.8712C86.1097 94.8566 87.7925 93.8919 87.0423 92.8936Z" fill="#782520"/>
<path d="M54.5852 141.194C45.964 129.814 39.8732 116.029 36.7002 102.08C37.2737 101.584 37.6294 100.821 37.4549 99.6484C37.0972 97.2464 37.5113 96.1745 38.0779 96.1745C38.4052 96.1745 38.7831 96.5323 39.0928 97.1986C39.4338 97.9335 40.2465 98.3532 41.0778 98.3532C41.1156 98.3532 41.153 98.3519 41.1908 98.3506C44.3861 110.672 49.9286 122.311 56.5979 133.166C56.7276 133.377 56.8986 133.508 57.0833 133.574C56.1222 136.102 55.2975 138.657 54.5852 141.194Z" fill="#F25D37"/>
<path d="M36.7003 102.08C36.2422 100.067 35.8452 98.0496 35.5097 96.0363C33.8526 86.0808 33.5792 75.8232 34.5639 65.7799C34.6653 64.7429 34.7541 63.0227 34.9201 61.0637C35.7105 66.1299 36.782 72.1117 38.1859 78.2962C38.3291 81.526 38.6469 84.7481 39.0979 87.9288C39.5969 91.4544 40.3035 94.9283 41.1909 98.3505C41.153 98.3518 41.1157 98.3531 41.0779 98.3531C40.2466 98.3531 39.4339 97.9334 39.0929 97.1986C38.7832 96.5322 38.4053 96.1745 38.0779 96.1745C37.5114 96.1745 37.0972 97.2464 37.455 99.6484C37.6294 100.821 37.2738 101.584 36.7003 102.08Z" fill="#761D17"/>
<path d="M60.4027 126.095C60.4102 126.081 60.4173 126.066 60.4244 126.052C60.4168 126.066 60.4102 126.081 60.4027 126.095ZM60.4844 125.937C60.494 125.918 60.5035 125.898 60.5131 125.88C60.5041 125.898 60.4935 125.919 60.4844 125.937ZM60.562 125.786C67.175 113.032 74.6157 103.624 82.2809 96.7009C82.282 96.7009 82.2825 96.7009 82.283 96.6997C74.6172 103.623 67.1765 113.03 60.562 125.786Z" fill="#F25D37"/>
<path d="M57.8828 131.554C51.3289 120.79 45.7956 109.218 42.79 96.9414C42.3063 94.9656 41.8846 92.9716 41.5264 90.9648C42.7728 95.0314 44.1819 98.9754 45.7679 102.594C50.5289 113.453 54.1565 117.666 57.7976 117.665C61.5205 117.663 65.2575 113.258 70.2319 107.048C73.6139 102.828 77.992 99.3925 82.2819 96.7012C74.6166 103.624 67.1759 113.032 60.563 125.786C60.5611 125.79 60.558 125.797 60.5555 125.801C60.5455 125.82 60.5353 125.841 60.5252 125.86C60.5217 125.866 60.5182 125.874 60.5141 125.881C60.5045 125.899 60.495 125.918 60.4854 125.937C60.4804 125.946 60.4753 125.955 60.4707 125.965C60.4622 125.981 60.4536 125.998 60.445 126.015C60.4384 126.028 60.4319 126.041 60.4254 126.052C60.4183 126.067 60.4112 126.081 60.4037 126.095C60.39 126.121 60.3764 126.148 60.3623 126.175C60.2785 126.338 60.1954 126.502 60.1131 126.666C60.1115 126.668 60.11 126.671 60.1086 126.674C60.1075 126.676 60.1065 126.677 60.1055 126.68C59.2989 128.281 58.5603 129.91 57.8828 131.554Z" fill="#FBAD75"/>
<path d="M57.083 133.573C56.8983 133.507 56.7273 133.377 56.5977 133.165C49.9283 122.311 44.3859 110.671 41.1905 98.3501C40.3032 94.9278 39.5965 91.454 39.0975 87.9284C38.6466 84.7477 38.3288 81.5256 38.1855 78.2958C39.1395 82.498 40.2473 86.7946 41.5255 90.9645C41.8837 92.9714 42.3054 94.9653 42.7892 96.9412C45.7948 109.217 51.3281 120.79 57.882 131.553C57.6056 132.224 57.3397 132.898 57.083 133.573Z" fill="#761D17"/>
<path d="M70.2312 116.958C70.2312 116.958 60.5865 113.572 60.5865 111.993C60.5865 110.412 65.9433 111.542 65.4092 110.412C64.8744 109.284 51.3337 84.2337 52.4623 82.4283C53.5907 80.6229 68.2522 106.802 69.3853 104.545C70.5167 102.288 71.4197 98.8137 73.4512 99.648C75.4822 100.484 76.6101 108.382 76.6101 108.382L70.2312 116.958Z" fill="#F6764D"/>
<path d="M56.6132 143.769C45.6145 130.34 38.3448 113.067 35.5092 96.0362C33.8521 86.0807 33.5787 75.8231 34.5634 65.7798C34.8948 62.3924 35.088 51.7228 38.2858 49.2665C40.0771 47.8899 45.0591 49.3259 46.9906 49.7043C52.4666 50.7775 57.8219 52.5738 62.9234 54.817C78.33 61.593 91.1816 72.7198 100.393 86.7742C101.073 87.8138 102.751 86.8439 102.065 85.7966C89.2086 66.1788 67.3853 49.8696 43.5094 47.2028C37.3051 46.5107 35.9956 47.988 34.4852 54.1029C30.9414 68.4543 31.3061 84.3592 34.0387 98.7894C37.174 115.341 44.5259 132.052 55.2431 145.138C56.0336 146.104 57.3971 144.726 56.6132 143.769Z" fill="#782520"/>
<path d="M88.685 78.3164C85.0327 74.2562 80.9501 70.5202 76.5927 67.169C75.9223 66.1655 75.9202 65.5857 76.3066 65.2487C81.0057 69.2185 85.2213 73.6906 88.7914 78.2092L88.685 78.3164Z" fill="#FBB174"/>
<path d="M76.5952 67.1689C74.3443 65.4372 72.0198 63.8087 69.6433 62.2913C63.0434 58.0761 55.9261 55.6289 48.8718 52.3849C48.433 52.1834 48.731 51.6191 49.124 51.6191C49.1462 51.6191 49.1695 51.6217 49.1922 51.6243C59.085 53.2864 68.3847 58.554 76.3092 65.2487C75.9228 65.5857 75.9249 66.1655 76.5952 67.1689Z" fill="#B43830"/>
<path d="M206.322 146.521C206.322 146.521 217.606 137.945 226.633 109.736C235.66 81.5249 229.567 50.606 226.633 48.3486C223.7 46.0925 179.691 50.38 158.702 94.6146L206.322 146.521Z" fill="#F6764D"/>
<path d="M194.022 72.3851C194.925 69.2251 193.909 69.3387 191.426 70.6934C188.943 72.0468 184.543 72.0468 187.816 67.195C190.175 63.6953 184.498 65.3018 182.415 64.4378C202.645 48.3972 224.591 46.7791 226.633 48.3494C229.32 50.4183 234.651 76.537 228.589 102.594C227.57 102.178 226.719 101.34 226.971 99.6481C227.536 95.8565 226.178 95.3813 225.334 97.1983C224.489 99.0153 220.766 98.9029 220.991 95.2922C221.217 91.6814 216.59 67.0813 206.66 71.8208C196.73 76.5602 193.12 75.5452 194.022 72.3851Z" fill="#782520"/>
<path d="M204.065 126.175C196.282 111.045 187.336 100.586 178.222 93.384C198.802 65.5477 220.848 56.5156 222.573 57.3783C224.378 58.281 227.763 75.8842 222.573 97.1989C218.962 112.024 211.317 125.711 206.993 132.678C206.126 130.478 205.159 128.301 204.065 126.175Z" fill="#FFDDA3"/>
<path d="M209.842 141.194C209.046 138.356 208.108 135.495 206.996 132.672C211.231 125.851 218.645 112.591 222.341 98.1297C222.658 98.2808 223.006 98.3532 223.35 98.3532C224.181 98.3532 224.993 97.9335 225.335 97.1986C225.644 96.5323 226.022 96.1745 226.35 96.1745C226.916 96.1745 227.331 97.2464 226.973 99.6484C226.799 100.818 227.152 101.58 227.724 102.076C224.551 116.045 218.464 129.816 209.842 141.194Z" fill="#F25D37"/>
<path d="M227.724 102.076C227.152 101.58 226.798 100.818 226.972 99.6483C227.33 97.2463 226.915 96.1744 226.35 96.1744C226.022 96.1744 225.643 96.5322 225.335 97.1985C224.992 97.9333 224.18 98.353 223.35 98.353C223.005 98.353 222.658 98.2807 222.34 98.1296C222.419 97.8197 222.496 97.5097 222.572 97.1985C223.685 92.6256 224.404 88.2258 224.828 84.1217C226.949 75.9355 228.468 67.7221 229.506 61.0778C229.676 63.0601 229.767 64.7855 229.864 65.7798C230.811 75.4564 230.582 85.315 229.09 94.923C228.721 97.3057 228.265 99.6948 227.724 102.076Z" fill="#761D17"/>
<path d="M204.091 126.227C204.082 126.21 204.073 126.193 204.064 126.175C204.073 126.192 204.082 126.21 204.091 126.227ZM204.02 126.088C204.019 126.085 204.018 126.083 204.015 126.079C204.018 126.082 204.019 126.085 204.02 126.088ZM203.976 126.003C203.974 125.999 203.971 125.994 203.969 125.989C203.971 125.994 203.974 125.998 203.976 126.003ZM197.45 114.798C197.442 114.787 197.437 114.777 197.429 114.767C197.437 114.778 197.442 114.787 197.45 114.798ZM197.407 114.732C197.398 114.72 197.39 114.707 197.381 114.694C197.39 114.707 197.398 114.719 197.407 114.732ZM197.366 114.671C192.524 107.333 187.386 101.435 182.143 96.6998C182.144 96.7011 182.145 96.7024 182.146 96.7024C187.388 101.438 192.526 107.335 197.366 114.671Z" fill="#F25D37"/>
<path d="M206.994 132.672C206.137 130.492 205.174 128.335 204.091 126.226C204.082 126.21 204.073 126.192 204.064 126.175C204.05 126.146 204.035 126.117 204.02 126.088C204.019 126.084 204.018 126.082 204.015 126.079C204.002 126.053 203.989 126.028 203.976 126.003C203.974 125.998 203.971 125.994 203.969 125.989C203.956 125.963 203.943 125.937 203.929 125.911C203.929 125.91 203.927 125.909 203.927 125.907C201.871 121.934 199.737 118.286 197.539 114.934C197.536 114.929 197.532 114.924 197.53 114.92C197.518 114.902 197.505 114.883 197.494 114.866C197.488 114.857 197.483 114.849 197.478 114.84C197.469 114.827 197.459 114.812 197.45 114.797C197.442 114.787 197.437 114.778 197.429 114.766C197.421 114.755 197.414 114.743 197.407 114.732C197.398 114.719 197.39 114.707 197.381 114.694C197.376 114.686 197.371 114.679 197.366 114.671C192.526 107.334 187.388 101.438 182.146 96.7023C186.437 99.3923 190.813 102.827 194.194 107.048C199.169 113.258 202.906 117.664 206.629 117.664C210.271 117.664 213.898 113.453 218.658 102.594C221.125 96.9683 223.162 90.5539 224.828 84.1214C224.403 88.2255 223.685 92.6253 222.571 97.1982C222.495 97.5094 222.418 97.8193 222.339 98.1293C218.643 112.59 211.229 125.851 206.994 132.672Z" fill="#FBAD75"/>
<path d="M179.059 93.8709C187.205 83.0437 196.697 73.0844 207.957 65.4534C211.116 63.3136 214.422 61.2809 217.916 59.7312C220.311 58.671 221.295 57.7476 222.665 59.553C224.902 62.4961 224.3 69.635 224.357 73.1205C224.478 80.7101 223.623 88.3256 221.92 95.7202C218.93 108.692 213.101 120.886 206.158 132.187C205.503 133.252 207.178 134.226 207.83 133.165C216.352 119.294 223.03 104.145 225.33 87.9278C226.366 80.6301 226.691 73.1334 225.83 65.7982C225.572 63.6016 225.529 58.3804 223.472 56.8694C220.194 54.4622 211.762 60.7037 209.285 62.2701C196.722 70.211 186.277 81.0795 177.387 92.8946C176.637 93.8903 178.318 94.8562 179.059 93.8709Z" fill="#782520"/>
<path d="M194.195 116.958C194.195 116.958 203.84 113.572 203.84 111.993C203.84 110.412 198.483 111.542 199.018 110.412C199.551 109.284 213.093 84.2337 211.964 82.4283C210.836 80.6229 196.174 106.802 195.042 104.545C193.909 102.288 193.008 98.8137 190.976 99.648C188.945 100.484 187.816 108.382 187.816 108.382L194.195 116.958Z" fill="#F6764D"/>
<path d="M209.183 145.138C228.553 121.489 235.989 88.4054 230.836 58.517C229.908 53.1267 229.658 46.8492 223.275 47.0029C214.847 47.2043 206.133 50.4793 198.612 54.0139C183.723 61.0108 171.359 72.0678 162.362 85.7968C161.676 86.8428 163.354 87.8139 164.034 86.7743C173.117 72.9162 185.732 61.9031 200.87 55.0974C206.161 52.7186 211.736 50.8215 217.436 49.7045C219.442 49.3119 224.291 47.8913 226.142 49.2667C229.308 51.6222 229.547 62.5553 229.864 65.7799C230.812 75.4565 230.582 85.3151 229.09 94.9231C226.387 112.351 219.049 130.051 207.814 143.769C207.03 144.725 208.393 146.104 209.183 145.138Z" fill="#782520"/>
<path d="M175.704 78.666C175.409 78.666 175.132 78.3625 175.329 78.0539C178.533 73.0277 182.822 68.6925 187.716 65.0197C188.462 65.2987 188.694 65.894 187.817 67.1944C187.644 67.4501 187.494 67.6916 187.363 67.9202C183.46 71.3192 179.889 75.0074 175.983 78.5562C175.899 78.6337 175.801 78.666 175.704 78.666Z" fill="#FBB174"/>
<path d="M187.362 67.9199C187.494 67.6913 187.644 67.4498 187.817 67.1941C188.694 65.8937 188.461 65.2984 187.716 65.0194C195.966 58.8271 205.934 54.5164 215.328 51.9529L215.366 52.0976C207.834 54.6856 200.559 58.4048 193.938 62.8318C191.588 64.4034 189.429 66.121 187.362 67.9199Z" fill="#B43830"/>
</g>
</svg>
