<svg width="263" height="263" viewBox="0 0 263 263" fill="none" xmlns="http://www.w3.org/2000/svg">
<circle cx="131.5" cy="131.5" r="131.5" fill="#8DD5EC"/>
<mask id="mask0_346_12636" style="mask-type:alpha" maskUnits="userSpaceOnUse" x="0" y="0" width="263" height="263">
<circle cx="131.5" cy="131.5" r="131.5" fill="#D9D9D9"/>
</mask>
<g mask="url(#mask0_346_12636)">
<path d="M135.752 255.155C90.058 255.155 63.6289 242.749 51.0097 219.638C38.3901 196.528 71.6851 196.344 49.7411 172.812C27.7976 149.28 36.8221 73.6375 108.606 58.9383C150.194 50.4214 191.777 63.5245 213.287 89.8103C234.798 116.097 222.769 157.531 216.786 177.238C210.803 196.945 206.88 204.445 216.786 209.227C226.692 214.009 206.256 255.155 135.752 255.155Z" fill="#B1E2F2"/>
<path d="M37.4553 177.237C30.4191 185.232 43.0012 200.385 49.7424 191.408C56.4841 182.433 42.7856 171.18 37.4553 177.237Z" fill="#B1E2F2"/>
<path d="M39.2078 205.27C32.2442 199.054 40.6116 194.843 43.4753 198.396C46.3386 201.95 43.9217 209.477 39.2078 205.27Z" fill="#B1E2F2"/>
<path d="M216.786 201.803C211.991 199.504 219.443 179.176 225.58 180.791C231.715 182.404 228.214 207.286 216.786 201.803Z" fill="#B1E2F2"/>
<path d="M149.799 220.877H114.224C96.4347 223.181 88.1924 251.446 88.1924 251.446C102.146 268.913 161.876 268.913 175.83 251.446C175.83 251.446 167.587 223.181 149.799 220.877Z" fill="#FFC46E"/>
<path d="M164.258 229.612C160.64 225.428 156.147 222.042 150.74 221.044C149.207 222.305 147.712 224.262 147.39 227.222C146.816 232.51 159.887 234.832 164.258 229.612Z" fill="#8A312D"/>
<path d="M167.179 233.4C163.261 233.616 158.206 234.82 156.702 239.397C155.043 244.444 165.773 256.379 175.384 250.063C174.389 247.114 171.692 239.929 167.179 233.4Z" fill="#8A312D"/>
<path d="M97.219 246.585C104.145 247.151 112.624 241.356 109.515 232.736C108.235 229.189 105.353 227.557 102.404 226.863C97.2341 231.665 93.523 238.371 91.1943 243.571C92.7318 245.109 94.7239 246.382 97.219 246.585Z" fill="#8A312D"/>
<path d="M102.418 260.204C119.252 265.983 144.77 265.983 161.605 260.204C158.314 244.765 144.85 241.446 143.08 234.343C142.075 230.307 141.484 225.335 142.357 221.485L132.012 222.332L121.665 221.485C122.539 225.335 121.948 230.307 120.943 234.343C119.173 241.446 105.71 244.765 102.418 260.204Z" fill="#FFE6C2"/>
<path d="M121.374 232.417C117.722 232.279 113.376 231.913 108.74 231.102C107.464 228.999 105.496 227.796 103.403 227.136C104.744 225.947 106.142 225.004 107.588 224.257C110.601 224.829 113.634 225.234 116.638 225.495C118.427 225.65 120.249 225.762 122.089 225.843C122.079 228.019 121.797 230.294 121.374 232.417ZM142.647 232.414C142.221 230.282 141.94 227.994 141.932 225.81C143.853 225.751 145.794 225.638 147.745 225.467C147.58 226.008 147.459 226.593 147.391 227.222C147.174 229.212 148.891 230.783 151.35 231.688C148.195 232.097 145.247 232.313 142.647 232.414Z" fill="#FFA542"/>
<path d="M151.349 231.688C148.891 230.783 147.173 229.212 147.391 227.223C147.459 226.594 147.58 226.009 147.744 225.467C150.648 225.211 153.572 224.825 156.472 224.284C157.749 224.955 158.985 225.783 160.172 226.802C161.107 227.605 162.004 228.468 162.861 229.381C158.901 230.487 154.988 231.216 151.349 231.688Z" fill="#8A291B"/>
<path d="M108.74 231.103C106.258 230.668 103.691 230.106 101.104 229.385C101.808 228.632 102.536 227.915 103.293 227.236C103.329 227.203 103.367 227.169 103.404 227.136C105.496 227.796 107.465 228.999 108.74 231.103Z" fill="#8A291B"/>
<path d="M125.104 232.488C123.969 232.488 122.719 232.469 121.375 232.417C121.798 230.294 122.08 228.019 122.09 225.843C124.828 225.962 127.609 226.008 130.386 226.008C134.167 226.008 137.942 225.922 141.596 225.82C141.708 225.816 141.821 225.814 141.933 225.81C141.941 227.994 142.222 230.281 142.648 232.414C141.275 232.467 140.001 232.488 138.846 232.488C134.616 232.488 131.975 232.208 131.975 232.208C131.975 232.208 129.335 232.488 125.104 232.488Z" fill="#FFC175"/>
<path d="M176.713 251.133C172.733 237.718 163.136 219.924 147.248 219.87C138.008 219.84 128.769 219.87 119.529 219.87C111.455 219.87 105.27 222.02 99.6081 228.262C93.8494 234.613 89.6859 242.925 87.2497 251.133C86.9025 252.305 88.7295 252.805 89.0757 251.637C91.6909 242.827 96.4046 233.426 103.291 227.235C111.478 219.875 121.812 221.764 131.981 221.764C141.828 221.764 152.123 219.892 160.171 226.801C167.359 232.97 172.218 242.64 174.887 251.637C175.233 252.803 177.061 252.307 176.713 251.133Z" fill="#5B1A1A"/>
<path d="M159.088 80.6794L175.081 61.6428C170.321 54.6044 179.054 47.2416 186.105 53.0097C192.86 58.5365 189.039 69.5941 180.865 66.2643L169.762 88.8428L159.088 80.6794Z" fill="#8A312D"/>
<path d="M103.252 80.6794L87.2586 61.6428C92.0189 54.6044 83.2855 47.2416 76.2351 53.0097C69.4796 58.5365 73.3008 69.5941 81.4753 66.2643L92.5783 88.8428L103.252 80.6794Z" fill="#8A312D"/>
<path d="M172.908 84.8751C152.007 66.4698 111.941 66.4698 91.04 84.8751C59.8807 112.314 59.3569 171.85 68.6353 195.065C82.5448 229.863 131.974 224.633 131.974 224.633C131.974 224.633 181.403 229.863 195.313 195.065C204.591 171.85 204.067 112.314 172.908 84.8751Z" fill="#FFC46E"/>
<path d="M83.6675 92.657C59.8797 122.323 60.1575 173.852 68.6363 195.065C74.4246 209.545 86.3641 217.092 98.3327 220.97C115.628 200.276 127.052 165.525 119.273 137.419C111.358 108.818 91.2729 96.4287 83.6675 92.657Z" fill="#FFE6C2"/>
<path d="M180.281 92.657C204.068 122.323 203.79 173.852 195.313 195.065C189.524 209.545 177.584 217.092 165.616 220.97C148.321 200.276 136.896 165.525 144.676 137.419C152.591 108.818 172.676 96.4287 180.281 92.657Z" fill="#FFE6C2"/>
<path d="M90.6854 217.038C85.5729 214.513 80.9048 211.149 76.9293 206.698C67.9517 196.647 65.5013 182.858 64.6322 169.826C64.5346 168.368 64.4606 166.907 64.4092 165.448C65.3094 172.49 66.7723 178.623 68.6358 183.285C72.0156 191.74 80.4096 199.373 91.3819 204.971C90.3239 209.353 90.3011 213.531 90.6854 217.038Z" fill="#FFC175"/>
<path d="M173.283 216.862C173.649 213.37 173.607 209.232 172.548 204.893C183.53 199.325 191.932 191.746 195.313 183.285C197.173 178.63 198.635 172.509 199.536 165.48C199.51 166.19 199.481 166.898 199.446 167.608C198.879 179 197.287 191.406 191.112 201.271C186.717 208.293 180.445 213.338 173.283 216.862Z" fill="#FFC175"/>
<path d="M110.618 74.2454C108.922 81.5035 117.206 87.9799 125.556 88.1062C129.728 88.1693 136.295 85.8989 137.472 76.4842C137.698 74.6697 137.418 72.8766 136.745 71.2313C127.887 70.672 118.866 71.6758 110.618 74.2454Z" fill="#8A312D"/>
<path d="M118.495 110.909C109.868 101.886 115.259 89.1843 126.586 99.1635C137.913 109.145 128.058 120.914 118.495 110.909Z" fill="#8A312D"/>
<path d="M137.549 118.412C131.92 115.867 130.704 129.004 136.294 128.415C141.884 127.827 141.452 120.177 137.549 118.412Z" fill="#8A312D"/>
<path d="M144.974 109.584C134.235 107.967 133.499 83.2289 147.474 83.2529C160.882 83.2731 158.393 111.607 144.974 109.584Z" fill="#8A312D"/>
<path d="M181.626 92.8095C180.394 91.269 179.149 89.755 177.802 88.3143C176.947 87.3988 173.941 85.3204 173.578 84.2054C173.377 83.588 173.436 85.5452 173.41 83.9857C173.402 83.4895 174.183 82.3758 174.39 81.9452C176.37 77.8149 178.351 73.6858 180.331 69.5568C180.521 69.1603 180.934 67.7776 181.311 67.515C183.053 66.2952 179.818 68.0642 182.008 67.6185C183.511 67.3117 184.759 67.9695 186.308 67.3016C189.552 65.9 190.876 62.1257 190.425 58.8136C189.387 51.1717 177.932 45.9744 173.635 54.1126C172.002 57.2024 174.328 59.9627 173.883 61.6068C173.539 62.8771 171.323 64.6776 170.487 65.6802C168.677 67.8508 166.866 70.0227 165.056 72.1946C164.216 73.2009 163.01 75.4107 161.851 76.0382C160.502 76.7681 160.687 76.2011 158.573 75.1051C151.791 71.591 142.885 70.5353 135.346 70.1982C128.639 69.8989 121.867 70.4798 115.324 71.9824C111.698 72.8146 107.556 73.7679 104.268 75.5698C101.701 76.9764 102.524 77.2353 100.874 76.3817C97.8507 74.8185 94.6838 69.0151 92.4892 66.4038C91.5452 65.28 89.2427 63.4301 88.8077 62.0222C88.2572 60.238 88.6838 61.3492 89.4282 58.8982C90.3964 55.7099 88.0249 52.2185 85.2824 50.8561C81.0859 48.7726 76.1568 50.7828 73.6088 54.4863C71.5515 57.479 71.0573 61.8265 73.2068 64.9277C74.1988 66.3571 75.6222 67.3634 77.3352 67.7044C79.1637 68.068 80.4762 67.0756 80.9936 67.4405C82.0334 68.1728 82.8828 71.3587 83.4318 72.4964C84.5509 74.816 85.6696 77.1368 86.7888 79.4564C87.4251 80.7759 89.4903 83.5413 89.4721 85.0199C89.4602 85.9909 84.3364 90.3359 82.9809 91.9749C82.209 92.9067 83.5423 94.2541 84.3201 93.3133C86.4993 90.6806 88.7943 88.236 91.2971 85.9113C91.6226 85.6083 91.6246 85.136 91.4451 84.7635C88.3939 78.4374 85.3427 72.11 82.2913 65.785C82.1173 65.4239 81.5965 65.2307 81.2221 65.3494C76.0804 66.9796 72.645 62.6586 74.0537 57.8211C74.6105 55.9081 76.445 53.6757 78.2428 52.7867C84.0443 49.9179 89.4553 55.6114 86.4391 61.1661C86.2225 61.5638 86.3064 61.9793 86.5871 62.3139C91.1965 67.7978 95.8063 73.2843 100.415 78.7695C100.697 79.1054 101.207 79.0927 101.563 78.9185C120.044 69.832 142.672 69.7007 161.323 78.3881C161.679 78.5536 162.189 78.5788 162.471 78.2391C166.897 72.9307 171.324 67.6223 175.75 62.3139C176.03 61.9767 176.113 61.5613 175.897 61.1661C173.393 56.5534 176.135 51.8258 181.472 52.4711C184.729 52.8625 187.258 54.2818 188.283 57.8211C189.68 62.6422 186.181 66.9543 181.115 65.3494C180.745 65.232 180.22 65.4214 180.047 65.785C177.165 71.7917 174.285 77.7972 171.403 83.8039C171.232 84.1625 171.219 84.6663 171.551 84.9517C174.782 87.7372 177.625 90.8208 180.287 94.1492C181.048 95.1013 182.381 93.7528 181.626 92.8095Z" fill="#5B1A1A"/>
<path d="M68.5956 119.641C63.8372 134.901 61.8682 150.97 62.5815 166.936C63.0835 178.18 64.5519 190.329 70.0931 200.332C79.3661 217.074 98.5331 223.929 116.638 225.495C124.715 226.193 133.456 226.049 141.595 225.821C158.783 225.34 177.739 220.666 189.268 206.995C197.196 197.594 199.805 185.285 200.93 173.334C202.58 155.782 200.809 137.864 195.776 120.978C195.428 119.813 193.6 120.309 193.95 121.482C198.399 136.412 200.22 152.047 199.446 167.609C198.879 179.001 197.287 191.407 191.112 201.271C181.08 217.297 161.277 223.033 143.396 223.86C120.81 224.904 93.1325 224.84 76.9295 206.698C67.9519 196.647 65.5015 182.858 64.6324 169.826C63.5156 153.088 65.428 136.16 70.4221 120.144C70.7855 118.979 68.9581 118.479 68.5956 119.641Z" fill="#5B1A1A"/>
<path d="M80.6957 184.073C66.4586 180.809 71.0118 171.074 80.6957 173.39C94.1006 176.596 92.3446 186.745 80.6957 184.073Z" fill="#FFB6C3"/>
<path d="M183.255 184.073C197.492 180.809 192.938 171.074 183.255 173.39C169.85 176.596 171.605 186.745 183.255 184.073Z" fill="#FFB6C3"/>
<path d="M88.7954 145.89C91.2952 144.821 94.7147 144.064 98.6746 145.487C101.508 146.505 103.078 144.237 101.002 142.611C98.6114 140.741 92.6146 139.655 88.4225 141.713C84.2314 143.771 84.5185 145.177 84.8535 145.976C85.1888 146.775 86.4456 146.897 88.7954 145.89Z" fill="#5B1A1A"/>
<path d="M175.154 145.89C172.654 144.821 169.234 144.064 165.274 145.487C162.441 146.505 160.871 144.237 162.947 142.611C165.337 140.741 171.334 139.655 175.526 141.713C179.718 143.771 179.431 145.177 179.096 145.976C178.76 146.775 177.504 146.897 175.154 145.89Z" fill="#5B1A1A"/>
<path d="M154.624 160.319C156.101 157.784 157.926 155.606 160.181 153.711C162.421 151.846 165.181 150.37 168.27 149.872C171.351 149.355 174.597 149.927 177.374 151.163C180.186 152.382 182.651 154.134 184.836 156.08L184.852 156.095C185.895 157.025 185.987 158.622 185.057 159.665C184.128 160.709 182.531 160.802 181.488 159.871L181.316 159.704C179.579 157.833 177.647 156.191 175.519 155.022C173.401 153.834 171.058 153.201 168.686 153.359C166.315 153.512 163.946 154.455 161.837 155.9C159.739 157.333 157.803 159.257 156.321 161.333L156.28 161.39C155.963 161.833 155.347 161.935 154.903 161.619C154.486 161.322 154.372 160.755 154.624 160.319Z" fill="#5B1A1A"/>
<path d="M108.242 161.333C106.759 159.257 104.824 157.332 102.725 155.899C100.617 154.455 98.2486 153.511 95.876 153.359C93.5045 153.201 91.1616 153.833 89.0451 155.022C86.9167 156.191 84.9837 157.832 83.2465 159.704C82.296 160.727 80.6964 160.787 79.6724 159.836C78.6495 158.887 78.5892 157.287 79.5397 156.263L79.708 156.098L79.7277 156.08C81.9123 154.134 84.3765 152.381 87.1885 151.163C89.966 149.927 93.2115 149.355 96.2927 149.871C99.3825 150.37 102.143 151.846 104.383 153.711C106.638 155.605 108.463 157.783 109.939 160.319C110.213 160.79 110.054 161.393 109.583 161.669C109.139 161.926 108.579 161.801 108.285 161.393L108.242 161.333Z" fill="#5B1A1A"/>
<path d="M164.455 190.348C164.455 190.348 165.94 184.473 161.824 180.772C157.709 177.072 151.614 178.814 149.874 180.772C149.874 180.772 139.977 175.548 131.975 175.984C123.973 175.548 114.076 180.772 114.076 180.772C112.336 178.814 106.241 177.072 102.126 180.772C98.0092 184.473 99.4941 190.348 99.4941 190.348C90.4892 199.734 89.8061 210.573 90.8015 217.99C109.663 226.996 131.975 224.633 131.975 224.633C131.975 224.633 154.287 226.996 173.148 217.99C174.143 210.573 173.46 199.734 164.455 190.348Z" fill="#8A312D"/>
<path d="M146.503 183.317C146.462 183.317 146.419 183.311 146.375 183.296C141.05 181.509 136.177 180.586 131.26 180.586C126.844 180.586 122.39 181.331 117.542 182.862L117.515 182.796C121.919 180.301 127.193 179.025 132.461 179.025C137.464 179.025 142.463 180.177 146.7 182.526C147.075 182.733 146.879 183.317 146.503 183.317Z" fill="#AD403B"/>
<path d="M127.069 224.893C127.112 224.891 127.153 224.89 127.195 224.889L127.132 224.891C127.11 224.891 127.09 224.891 127.069 224.893ZM136.872 224.891C136.855 224.891 136.836 224.891 136.818 224.891L136.76 224.89C136.798 224.89 136.835 224.891 136.872 224.891ZM136.035 224.869C135.962 224.868 135.89 224.866 135.818 224.863L135.664 224.858C135.785 224.862 135.909 224.866 136.035 224.869ZM134.84 224.825L134.814 224.824C134.8 224.823 134.788 224.823 134.774 224.821C134.795 224.823 134.817 224.824 134.84 224.825ZM129.112 224.825C129.133 224.824 129.154 224.823 129.175 224.821C129.161 224.823 129.147 224.823 129.135 224.824L129.112 224.825ZM134.545 224.812C134.437 224.806 134.332 224.801 134.23 224.795L134.141 224.79C134.029 224.785 133.923 224.779 133.819 224.772C134.043 224.785 134.285 224.799 134.545 224.812ZM129.405 224.812C129.661 224.799 129.9 224.786 130.12 224.772C130.02 224.779 129.916 224.785 129.808 224.79L129.718 224.795C129.617 224.801 129.512 224.806 129.405 224.812ZM120.047 224.783C120.03 224.781 120.014 224.78 119.998 224.78L119.984 224.779C120.004 224.78 120.027 224.781 120.047 224.783ZM143.921 224.781C143.934 224.78 143.946 224.78 143.958 224.779L143.95 224.78C143.94 224.78 143.931 224.78 143.921 224.781ZM130.705 224.736C130.785 224.731 130.862 224.726 130.935 224.719L130.895 224.723C130.834 224.727 130.771 224.732 130.705 224.736ZM133.192 224.732C133.145 224.729 133.098 224.726 133.054 224.723L133.016 224.72C133.073 224.724 133.132 224.728 133.192 224.732ZM132.809 224.704C132.719 224.698 132.636 224.691 132.562 224.686L132.543 224.684C132.623 224.69 132.713 224.698 132.809 224.704ZM131.142 224.704C131.238 224.698 131.327 224.69 131.406 224.684L131.387 224.686C131.313 224.691 131.231 224.698 131.142 224.704ZM131.423 224.683C131.784 224.652 131.974 224.632 131.974 224.632C131.974 224.632 132.164 224.652 132.524 224.683C132.413 224.674 132.32 224.666 132.243 224.659L132.203 224.655L132.057 224.641L132.017 224.637L131.974 224.632L131.931 224.637L131.892 224.641L131.746 224.655L131.705 224.659C131.628 224.666 131.535 224.674 131.423 224.683ZM162.373 221.939C162.394 221.933 162.413 221.928 162.435 221.921C162.417 221.926 162.399 221.931 162.382 221.937L162.373 221.939ZM96.1893 220.238L96.1539 220.225C96.0289 220.18 95.9039 220.134 95.7802 220.088C95.9165 220.138 96.0529 220.189 96.1893 220.238ZM91.0952 218.128C91.0054 218.086 90.9156 218.043 90.8258 218.002L90.8012 217.989C90.8989 218.036 90.9975 218.082 91.0952 218.128ZM172.868 218.122C172.962 218.077 173.054 218.033 173.148 217.989L173.124 218.002C173.038 218.042 172.953 218.081 172.868 218.122ZM90.7963 217.951C90.7953 217.948 90.7948 217.942 90.7942 217.939C90.7948 217.944 90.7953 217.948 90.7963 217.951ZM90.7144 217.295C90.7139 217.291 90.7129 217.286 90.7124 217.281C90.7129 217.284 90.7139 217.291 90.7144 217.295ZM90.7085 217.245C90.7085 217.244 90.708 217.241 90.708 217.24C90.708 217.243 90.7085 217.244 90.7085 217.245Z" fill="#4A1212"/>
<path d="M138.91 224.912H138.646C138.387 224.911 138.134 224.91 137.886 224.907L137.587 224.903C137.342 224.902 137.103 224.897 136.872 224.892C136.834 224.892 136.798 224.89 136.76 224.89L136.664 224.888C136.448 224.882 136.238 224.877 136.035 224.87C135.909 224.867 135.785 224.863 135.664 224.859L135.613 224.856C135.41 224.849 135.213 224.843 135.025 224.834L134.839 224.826C134.816 224.825 134.795 224.824 134.774 224.822C134.696 224.818 134.619 224.816 134.545 224.812C134.285 224.8 134.042 224.786 133.819 224.773C133.729 224.768 133.642 224.762 133.559 224.757L133.406 224.746C133.333 224.743 133.261 224.738 133.191 224.733C133.132 224.729 133.073 224.725 133.016 224.721L132.907 224.712C132.874 224.71 132.842 224.707 132.809 224.705C132.713 224.699 132.623 224.691 132.542 224.685L132.537 224.684C132.533 224.684 132.528 224.684 132.523 224.684C132.163 224.653 131.974 224.633 131.974 224.633C131.974 224.633 131.783 224.653 131.422 224.684C131.418 224.684 131.415 224.684 131.41 224.684L131.406 224.685C131.326 224.691 131.238 224.699 131.142 224.705C131.109 224.707 131.075 224.71 131.041 224.712L130.935 224.72C130.862 224.727 130.785 224.732 130.705 224.737C130.652 224.741 130.598 224.744 130.542 224.746L130.389 224.757C130.302 224.762 130.213 224.768 130.119 224.773C129.899 224.787 129.661 224.8 129.404 224.812C129.33 224.816 129.253 224.818 129.175 224.822C129.153 224.824 129.133 224.825 129.112 224.826L128.921 224.834C128.739 224.843 128.55 224.847 128.354 224.855L128.12 224.864C128.037 224.867 127.951 224.869 127.865 224.873C127.69 224.878 127.509 224.883 127.324 224.887C127.311 224.887 127.297 224.887 127.284 224.888L127.195 224.889C127.153 224.89 127.111 224.892 127.068 224.893C126.84 224.897 126.604 224.902 126.361 224.903L126.06 224.907C125.82 224.91 125.572 224.911 125.321 224.912H125.028C124.688 224.912 124.337 224.911 123.977 224.906L123.727 224.902C123.436 224.898 123.139 224.893 122.836 224.885C122.712 224.883 122.588 224.881 122.463 224.877C122.165 224.868 121.861 224.858 121.552 224.847L121.237 224.836C120.848 224.82 120.451 224.802 120.047 224.783C120.026 224.782 120.004 224.781 119.983 224.779L119.688 224.762C119.356 224.744 119.019 224.724 118.678 224.701C118.536 224.692 118.394 224.684 118.251 224.673C117.902 224.648 117.549 224.623 117.193 224.593L116.868 224.567C116.411 224.528 115.947 224.486 115.477 224.44C115.361 224.428 115.242 224.417 115.126 224.405C114.76 224.368 114.39 224.326 114.017 224.285C113.862 224.265 113.706 224.249 113.55 224.23C113.157 224.184 112.762 224.133 112.362 224.08L112.05 224.04C111.555 223.973 111.056 223.9 110.552 223.823C110.415 223.801 110.276 223.78 110.138 223.756C109.754 223.696 109.369 223.632 108.98 223.566C108.817 223.537 108.653 223.509 108.489 223.48C108.061 223.404 107.63 223.323 107.199 223.24L106.904 223.185C106.384 223.081 105.861 222.971 105.335 222.856C105.186 222.825 105.037 222.791 104.888 222.757C104.493 222.668 104.096 222.576 103.698 222.479C103.529 222.438 103.36 222.398 103.189 222.356C102.73 222.242 102.268 222.123 101.804 221.999L101.564 221.936C101.029 221.791 100.492 221.636 99.9556 221.478C99.8016 221.431 99.6488 221.383 99.496 221.336C99.0932 221.214 98.6904 221.087 98.2876 220.956C98.1196 220.902 97.9517 220.847 97.785 220.792C97.2913 220.628 96.7976 220.457 96.3051 220.279L96.189 220.239C96.0526 220.19 95.9162 220.139 95.7798 220.089C95.3682 219.936 94.9578 219.776 94.5474 219.615C94.3892 219.553 94.2304 219.487 94.073 219.423C93.675 219.264 93.2779 219.099 92.8823 218.928C92.7206 218.859 92.5588 218.791 92.397 218.718C91.9614 218.527 91.5274 218.331 91.0948 218.129C90.9972 218.083 90.8986 218.037 90.8009 217.99C90.7988 217.977 90.7974 217.965 90.7959 217.952C90.7949 217.949 90.7944 217.944 90.7939 217.94C90.793 217.931 90.7915 217.922 90.7905 217.913C90.7895 217.905 90.7885 217.898 90.7876 217.891C90.7866 217.885 90.7861 217.879 90.7851 217.873C90.7836 217.862 90.7827 217.852 90.7812 217.842C90.7812 217.839 90.7807 217.836 90.7802 217.834C90.7781 217.819 90.7767 217.807 90.7752 217.794C90.7747 217.793 90.7747 217.793 90.7747 217.793C90.7579 217.663 90.7416 217.532 90.7259 217.399C90.7259 217.397 90.7253 217.395 90.7253 217.393C90.724 217.383 90.7224 217.371 90.7214 217.36C90.7204 217.355 90.7199 217.35 90.7195 217.345C90.7185 217.337 90.718 217.329 90.717 217.322C90.716 217.313 90.715 217.304 90.7141 217.295C90.7136 217.292 90.7126 217.285 90.7121 217.282C90.7106 217.269 90.7096 217.259 90.7082 217.246C90.7082 217.245 90.7077 217.244 90.7077 217.241C90.7057 217.227 90.7041 217.214 90.7027 217.198C90.3002 213.656 90.3092 209.417 91.3844 204.965C102.729 210.755 116.822 214.375 130.983 214.477C131.194 214.478 131.405 214.478 131.615 214.478C146.221 214.478 160.843 210.822 172.545 204.887C173.723 209.704 173.646 214.275 173.147 217.99C173.054 218.034 172.962 218.078 172.868 218.123C172.431 218.327 171.992 218.524 171.551 218.718C171.39 218.791 171.228 218.859 171.066 218.928C170.67 219.099 170.273 219.264 169.876 219.423C169.718 219.487 169.56 219.553 169.402 219.615C168.865 219.827 168.33 220.032 167.792 220.226L167.658 220.273C167.159 220.454 166.659 220.626 166.159 220.792C165.995 220.847 165.83 220.901 165.664 220.955C165.26 221.086 164.856 221.214 164.452 221.336C164.299 221.383 164.147 221.431 163.993 221.476C163.474 221.63 162.953 221.78 162.434 221.922C162.413 221.928 162.394 221.933 162.373 221.94L162.16 221.995C161.691 222.12 161.221 222.242 160.754 222.358C160.587 222.398 160.422 222.438 160.255 222.479C159.853 222.576 159.453 222.668 159.054 222.758C158.908 222.791 158.762 222.825 158.617 222.856C158.088 222.971 157.563 223.081 157.04 223.185L156.765 223.238C156.327 223.322 155.892 223.403 155.459 223.48C155.295 223.509 155.132 223.537 154.968 223.566C154.577 223.633 154.186 223.697 153.8 223.758C153.667 223.78 153.534 223.801 153.401 223.823C152.896 223.898 152.395 223.972 151.898 224.04L151.586 224.08C151.185 224.133 150.786 224.184 150.391 224.23C150.24 224.249 150.089 224.265 149.939 224.283C149.562 224.326 149.19 224.367 148.821 224.405C148.705 224.417 148.586 224.428 148.471 224.44C148.002 224.486 147.537 224.528 147.08 224.567L146.754 224.593C146.398 224.623 146.046 224.648 145.698 224.673C145.555 224.684 145.412 224.692 145.27 224.701C144.929 224.724 144.592 224.744 144.26 224.762L143.957 224.779C143.946 224.781 143.933 224.781 143.921 224.782C143.51 224.802 143.107 224.82 142.711 224.836L142.396 224.847C142.087 224.858 141.783 224.868 141.485 224.877C141.36 224.879 141.237 224.883 141.115 224.885C140.803 224.893 140.497 224.898 140.198 224.902L139.978 224.906C139.612 224.91 139.256 224.912 138.91 224.912Z" fill="#71211E"/>
<path d="M104.389 189.622C103.943 188.084 104.202 186.222 105.434 185.118C107.232 183.507 109.76 184.368 111.277 185.91C112.132 186.78 113.471 185.44 112.615 184.57C110.528 182.448 107.21 181.523 104.639 183.343C102.52 184.846 101.86 187.699 102.562 190.126C102.9 191.294 104.729 190.798 104.389 189.622Z" fill="#5B1A1A"/>
<path d="M161.389 190.125C162.09 187.702 161.43 184.84 159.312 183.342C156.737 181.526 153.425 182.443 151.335 184.57C150.48 185.44 151.817 186.781 152.674 185.909C154.19 184.367 156.716 183.506 158.516 185.118C159.749 186.221 160.007 188.084 159.562 189.622C159.222 190.796 161.049 191.296 161.389 190.125Z" fill="#5B1A1A"/>
<path d="M110.66 201.106C122.816 211.542 139.309 211.673 151.306 201.106C152.223 200.298 150.879 198.962 149.968 199.765C138.775 209.624 123.288 209.46 111.998 199.765C111.078 198.976 109.733 200.309 110.66 201.106Z" fill="#5B1A1A"/>
<path d="M84.473 92.658C84.4705 92.6593 70.31 99.8769 56.7763 82.8127C43.2426 65.7472 25.2955 57.6557 21.0284 59.5687C16.7627 61.4817 14.703 98.4071 33.2392 114.294C47.3494 126.389 60.9437 125.01 70.3322 119.9C73.5501 109.928 78.1629 100.526 84.473 92.658Z" fill="#FFC46E"/>
<path d="M45.0078 80.8993C41.0357 77.5165 43.0949 73.3976 46.6261 76.7804C50.1562 80.1632 48.9799 84.2834 45.0078 80.8993Z" fill="#8A312D"/>
<path d="M72.8716 93.7508C68.1 92.7785 62.3862 89.8831 56.7765 82.8107L56.5294 82.5064C53.7732 81.9798 49.7167 82.293 50.0102 88.8414C50.4241 98.0831 68.4527 104.056 72.8716 93.7508Z" fill="#8A312D"/>
<path d="M79.7263 107.821C79.7263 107.821 62.956 111.498 53.0989 102.82C43.2429 94.1398 43.2429 83.8412 33.9749 73.9857C26.3474 65.8728 23.8243 67.3654 23.6769 68.6887C23.5294 70.0133 22.9414 94.1398 35.7401 107.675C48.5389 121.207 63.8384 118.119 77.078 112.529L79.7263 107.821Z" fill="#FFE6C2"/>
<path d="M78.8168 107.035C68.4494 108.508 57.9071 107.423 50.6688 99.023C43.9982 91.2826 41.6577 80.8918 34.6443 73.3168C32.988 71.5263 27.3615 64.9955 23.9705 66.9237C22.1301 67.9705 22.6584 70.501 22.7092 72.2915C23.083 85.6244 26.5891 100.504 36.6507 109.92C48.0003 120.541 62.1594 119.1 75.6945 114.115C76.8291 113.697 76.3393 111.866 75.1915 112.289C60.8677 117.566 46.1704 118.532 35.2829 105.746C30.4383 100.056 27.7522 92.7587 26.1999 85.5373C25.3209 81.4486 23.5501 74.9911 24.5747 70.7447C25.0472 68.79 24.1445 68.1561 27.1534 69.3418C30.9636 70.8444 35.1755 76.5304 37.3028 79.7111C41.3682 85.7886 43.5616 92.9229 48.0275 98.754C55.8158 108.925 67.3202 110.567 79.3199 108.861C80.5225 108.689 80.0105 106.864 78.8168 107.035Z" fill="#5B1A1A"/>
<path d="M41.5382 119.971C38.8122 118.557 36.0351 116.69 33.2394 114.293C36.0356 116.69 38.8111 118.557 41.5382 119.971ZM21.0287 59.5673C21.0336 59.5647 21.0385 59.5622 21.0435 59.5609C21.0385 59.5622 21.0341 59.5647 21.0287 59.5673Z" fill="#FFE1B6"/>
<path d="M55.9434 123.646C51.4421 123.646 46.595 122.586 41.5827 119.995C41.5811 119.994 41.5792 119.994 41.5777 119.992C41.5643 119.986 41.5516 119.979 41.5382 119.972C38.8111 118.558 36.0356 116.691 33.2394 114.294C21.6813 104.387 18.1308 86.3009 18.1299 73.6246C18.1294 65.9701 19.4231 60.2879 21.0287 59.5681C21.0341 59.5656 21.0385 59.5631 21.0435 59.5618C21.4474 59.3838 21.9762 59.2992 22.6071 59.2992C22.7396 59.2992 22.8763 59.303 23.0174 59.3105C23.3745 61.4319 23.8431 63.951 24.4424 66.7125C24.2807 66.7668 24.1232 66.8363 23.9704 66.9234C22.13 67.9702 22.6583 70.5007 22.7091 72.2912C23.083 85.6241 26.589 100.504 36.6506 109.92C42.8384 115.711 49.8627 117.915 57.1647 117.915C61.9867 117.915 66.929 116.954 71.8338 115.429L69.9289 120.11C65.9149 122.222 61.1611 123.647 55.9434 123.646Z" fill="#FFAD4E"/>
<path d="M57.2787 115.956C49.2072 115.956 41.6033 113.169 35.2818 105.745C30.4372 100.055 27.751 92.7576 26.1988 85.5362C25.3198 81.4475 23.549 74.99 24.5735 70.7435C24.8132 69.7523 24.6993 69.0995 24.9213 68.8533C27.9897 82.0991 33.9373 99.7227 44.6998 106.973C51.2294 111.371 58.1408 112.515 63.5635 112.515C69.4372 112.515 73.5646 111.173 73.5646 111.173L72.7655 113.138C67.5553 114.865 62.3244 115.955 57.2787 115.956Z" fill="#FFCB8B"/>
<path d="M57.1648 117.915C49.8628 117.915 42.8385 115.71 36.6507 109.92C26.5891 100.504 23.083 85.6238 22.7092 72.2909C22.6584 70.5004 22.1301 67.9699 23.9705 66.9231C24.1233 66.836 24.2807 66.7665 24.4425 66.7122C24.5939 67.4118 24.7537 68.1252 24.9224 68.8538C24.7004 69.1 24.8143 69.7528 24.5747 70.7441C23.5501 74.9906 25.3209 81.448 26.1999 85.5367C27.7522 92.7581 30.4383 100.055 35.2829 105.745C41.6044 113.17 49.2083 115.957 57.2798 115.957C62.3256 115.955 67.5565 114.866 72.7667 113.138L71.8339 115.429C66.9291 116.954 61.9868 117.915 57.1648 117.915Z" fill="#5B1712"/>
<path d="M70.5397 99.4062C70.512 99.4062 70.484 99.4037 70.4548 99.3999C69.3939 99.2472 68.3763 98.9959 67.3972 98.6625C68.0192 98.4693 68.6151 98.218 69.1768 97.9062C69.6705 98.1297 70.1751 98.3418 70.6906 98.5426C71.2031 98.7421 71.0378 99.4062 70.5397 99.4062ZM50.8207 84.3927C50.0424 83.4911 49.2606 82.5908 48.4733 81.6968C48.8403 81.1589 48.8182 80.2081 48.3398 79.1335C49.5477 80.477 50.7216 81.8344 51.8911 83.1817C51.4831 83.4822 51.1186 83.8787 50.8207 84.3927ZM43.2046 75.9742C38.1231 70.7744 32.5505 66.1541 25.7451 63.1261L25.8018 62.991C33.5394 65.5026 39.5777 70.0773 45.1494 75.7343C44.8105 75.5853 44.5002 75.5171 44.2241 75.5171C43.7915 75.5171 43.4432 75.685 43.2046 75.9742Z" fill="#FFE2A5"/>
<path d="M48.4729 81.6963C46.7569 79.7454 45.0113 77.8236 43.2041 75.9737C43.4428 75.6845 43.791 75.5166 44.2236 75.5166C44.4998 75.5166 44.81 75.5848 45.1489 75.7338C45.7798 76.3752 46.4038 77.0281 47.0247 77.6948C47.4676 78.1721 47.9057 78.6519 48.3393 79.133C48.8177 80.2076 48.8398 81.1584 48.4729 81.6963Z" fill="#C54A44"/>
<path d="M67.3977 98.6621C60.7167 96.3804 55.8416 90.2171 51.3589 85.0148C51.1794 84.8077 51.0008 84.5993 50.8213 84.3922C51.1192 83.8783 51.4837 83.4818 51.8917 83.1813C56.9479 89.0049 61.9173 94.624 69.1774 97.9057C68.6156 98.2176 68.0197 98.4689 67.3977 98.6621Z" fill="#C54A44"/>
<path d="M83.9943 91.839C69.1999 99.068 58.6025 82.1162 49.6678 73.675C44.2894 68.5938 38.1668 64.0279 31.4301 60.9103C28.81 59.6981 24.0136 57.256 21.0123 58.5768C15.8262 60.8573 17.0604 73.4275 17.2982 77.6538C17.964 89.4727 21.1355 102.152 28.9787 111.331C39.4587 123.596 56.3009 128.215 70.8127 120.722C71.8959 120.163 70.939 118.528 69.8564 119.087C50.5547 129.052 29.9015 115.832 23.0223 96.9783C20.6177 90.3894 19.3979 83.3511 19.13 76.3545C18.9949 72.8302 18.0828 64.0632 20.8742 61.1489C24.3802 57.4858 34.5953 64.5709 37.6904 66.5849C46.3201 72.1964 51.9875 79.7637 59.1184 86.8867C65.6041 93.3656 76.047 97.8255 84.9501 93.4742C86.0457 92.9414 85.0868 91.3062 83.9943 91.839Z" fill="#5B1A1A"/>
<path d="M179.478 92.658C179.48 92.6593 193.64 99.8769 207.174 82.8127C220.707 65.7472 238.656 57.6557 242.922 59.5687C247.188 61.4817 249.247 98.4071 230.712 114.294C216.601 126.389 203.007 125.01 193.619 119.9C190.4 109.928 185.787 100.526 179.478 92.658Z" fill="#FFC46E"/>
<path d="M218.941 80.8993C222.914 77.5165 220.853 73.3976 217.324 76.7804C213.793 80.1632 214.969 84.2834 218.941 80.8993Z" fill="#8A312D"/>
<path d="M191.078 93.7508C195.85 92.7785 201.564 89.8831 207.173 82.8107L207.42 82.5064C210.177 81.9798 214.232 82.293 213.939 88.8414C213.525 98.0831 195.496 104.056 191.078 93.7508Z" fill="#8A312D"/>
<path d="M184.224 107.821C184.224 107.821 200.994 111.498 210.852 102.82C220.707 94.1398 220.707 83.8412 229.975 73.9857C237.603 65.8728 240.126 67.3654 240.273 68.6887C240.42 70.0133 241.009 94.1398 228.21 107.675C215.411 121.207 200.112 118.119 186.872 112.529L184.224 107.821Z" fill="#FFE6C2"/>
<path d="M184.631 108.86C196.669 110.571 208.084 108.899 215.923 98.753C220.412 92.9433 222.603 85.7938 226.647 79.7101C228.975 76.2112 232.793 71.1035 236.797 69.3408C239.495 68.1538 238.975 68.842 239.375 70.7436C240.296 75.1189 238.658 81.3175 237.75 85.5363C236.196 92.7703 233.496 100.032 228.668 105.745C217.844 118.554 203.039 117.547 188.759 112.288C187.615 111.865 187.12 113.695 188.256 114.114C201.78 119.095 215.964 120.527 227.3 109.919C237.361 100.503 240.868 85.6246 241.242 72.2904C241.292 70.5062 241.815 67.9657 239.98 66.9227C236.59 64.9958 230.971 71.5164 229.307 73.3158C222.294 80.8895 219.978 91.3081 213.282 99.022C205.995 107.416 195.523 108.51 185.133 107.034C183.943 106.863 183.426 108.688 184.631 108.86Z" fill="#5B1A1A"/>
<path d="M222.411 119.971C223.25 119.536 224.092 119.059 224.938 118.536C224.092 119.058 223.25 119.536 222.411 119.971Z" fill="#B1C8AD"/>
<path d="M208.007 123.646C202.79 123.646 198.036 122.222 194.022 120.11L192.116 115.428C197.016 116.951 201.958 117.91 206.779 117.91C214.087 117.91 221.117 115.707 227.3 109.92C237.362 100.504 240.868 85.6254 241.242 72.2912C241.292 70.507 241.815 67.9664 239.98 66.9234C239.828 66.8363 239.67 66.7668 239.508 66.7125C240.108 63.951 240.576 61.4319 240.934 59.3105C241.074 59.303 241.212 59.2992 241.344 59.2992C241.982 59.2992 242.516 59.3863 242.923 59.5681C244.527 60.2879 245.822 65.9701 245.82 73.6246C245.819 86.3009 242.27 104.387 230.712 114.294C228.775 115.953 226.847 117.36 224.939 118.538C224.093 119.061 223.251 119.538 222.412 119.972C217.384 122.58 212.522 123.646 208.007 123.646Z" fill="#FFAD4E"/>
<path d="M206.695 115.955C201.633 115.955 196.391 114.863 191.184 113.137L190.385 111.173C190.385 111.173 194.513 112.515 200.387 112.515C205.809 112.515 212.72 111.371 219.249 106.973C229.985 99.7419 235.929 82.1878 239.005 68.9546C239.202 69.2513 239.191 69.8688 239.375 70.7438C240.296 75.1191 238.658 81.3177 237.75 85.5364C236.196 92.7705 233.496 100.032 228.668 105.745C222.389 113.173 214.771 115.955 206.695 115.955Z" fill="#FFCB8B"/>
<path d="M206.779 117.91C201.958 117.91 197.016 116.95 192.116 115.428L191.185 113.137C196.392 114.863 201.633 115.955 206.696 115.955C214.772 115.955 222.39 113.174 228.668 105.745C233.497 100.033 236.196 92.7709 237.751 85.5369C238.659 81.3182 240.296 75.1195 239.376 70.7442C239.191 69.8692 239.203 69.2517 239.006 68.955C239.183 68.1911 239.351 67.4448 239.508 66.7124C239.67 66.7667 239.828 66.8362 239.981 66.9233C241.815 67.9663 241.293 70.5068 241.242 72.2911C240.868 85.6252 237.362 100.504 227.301 109.92C221.117 115.707 214.088 117.91 206.779 117.91Z" fill="#5B1712"/>
<path d="M193.409 99.4062C192.911 99.4062 192.748 98.7421 193.258 98.5426C193.774 98.3418 194.279 98.1297 194.772 97.9062C195.335 98.2193 195.931 98.4693 196.554 98.6625C195.574 98.9959 194.556 99.2472 193.494 99.3999C193.465 99.4037 193.437 99.4062 193.409 99.4062ZM213.129 84.3927C212.831 83.8787 212.466 83.4822 212.058 83.1817C213.228 81.8344 214.402 80.4757 215.61 79.1335C215.132 80.2081 215.109 81.1589 215.475 81.6968C214.689 82.5908 213.907 83.4911 213.129 84.3927ZM220.745 75.9742C220.506 75.685 220.157 75.5171 219.726 75.5171C219.449 75.5171 219.138 75.5853 218.8 75.7343C224.375 70.0748 230.411 65.5026 238.147 62.991L238.204 63.1261C231.398 66.1541 225.826 70.7756 220.745 75.9742Z" fill="#FFE2A5"/>
<path d="M215.475 81.6963C215.108 81.1584 215.131 80.2076 215.61 79.133C216.043 78.6519 216.48 78.1721 216.924 77.6948C217.544 77.0281 218.169 76.374 218.799 75.7338C219.138 75.5848 219.448 75.5166 219.725 75.5166C220.157 75.5166 220.505 75.6845 220.744 75.9737C218.937 77.8236 217.192 79.7454 215.475 81.6963Z" fill="#C54A44"/>
<path d="M196.554 98.6621C195.932 98.4689 195.336 98.2189 194.772 97.9057C202.032 94.624 207.003 89.0037 212.059 83.1813C212.467 83.4818 212.832 83.8783 213.13 84.3922C212.949 84.5993 212.771 84.8077 212.592 85.0148C208.104 90.2222 203.238 96.3817 196.554 98.6621Z" fill="#C54A44"/>
<path d="M178.998 93.4738C187.883 97.815 198.374 93.3829 204.831 86.8863C211.931 79.7406 217.661 72.1922 226.259 66.5845C229.306 64.5957 239.589 57.5069 243.075 61.1485C245.882 64.0818 244.954 72.7932 244.818 76.354C244.552 83.3494 243.331 90.389 240.926 96.9778C234.05 115.831 213.398 129.054 194.093 119.087C193.012 118.527 192.052 120.161 193.137 120.722C205.871 127.298 219.549 124.642 230.461 115.714C240.367 107.609 244.759 94.7302 246.231 82.3809C246.866 77.0485 247.05 71.5532 246.304 66.2195C246.013 64.1386 245.721 60.4856 243.843 59.0549C238.001 54.5976 224.031 65.6185 220.113 68.6705C209.196 77.1735 196.836 100.088 179.954 91.8386C178.864 91.307 177.902 92.9397 178.998 93.4738Z" fill="#5B1A1A"/>
</g>
</svg>
