<svg width="263" height="263" viewBox="0 0 263 263" fill="none" xmlns="http://www.w3.org/2000/svg">
<circle cx="131.5" cy="131.5" r="131.5" fill="#FF8A8B"/>
<mask id="mask0_346_12570" style="mask-type:alpha" maskUnits="userSpaceOnUse" x="0" y="0" width="263" height="263">
<circle cx="131.5" cy="131.5" r="131.5" fill="#D9D9D9"/>
</mask>
<g mask="url(#mask0_346_12570)">
<path d="M231.07 124.322C261.582 123.568 269.004 90.4624 238.492 92.1715C207.979 93.8806 200.558 125.074 231.07 124.322Z" fill="#FFB0B1"/>
<path d="M223.451 68.9736C233.975 83.0746 219.282 97.6687 207.699 83.0071C196.116 68.3454 211.318 52.7145 223.451 68.9736Z" fill="#FFB0B1"/>
<path d="M143.848 249.312C168.188 249.312 234.454 229.49 250.821 172.049C267.188 114.607 207.215 131.4 193.816 137.969C180.416 144.538 228.894 57.9222 159.839 33.5716C91.8105 9.58168 25.5789 53.704 16.8778 126.496C9.65289 186.937 46.5913 249.312 143.848 249.312Z" fill="#FFB0B1"/>
<path d="M236.549 168.673C237.377 164.804 229.09 157.132 229.09 157.132C229.09 157.132 233.51 154.305 233.233 152.769C232.957 151.233 224.945 145.002 224.945 145.002C224.945 145.002 232.405 137.454 232.129 133.861C231.851 130.27 223.011 125.85 223.011 125.85C223.011 125.85 226.05 123.363 225.774 120.876C225.498 118.39 218.591 115.627 218.591 115.627C218.591 115.627 222.735 109.549 221.906 105.404C221.078 101.26 211.961 98.5667 211.961 98.5667C211.961 98.5667 217.209 89.1034 213.894 83.8547C210.579 78.6059 197.532 76.395 197.532 76.395C197.532 76.395 199.527 69.2114 197.49 66.7257C195.452 64.2387 183.227 63.1333 183.227 63.1333C183.227 63.1333 184.056 56.7791 179.803 53.1879C175.549 49.5955 161.922 55.1215 161.922 55.1215C161.922 55.1215 160.848 45.1749 156.98 44.3468C153.113 43.5173 143.996 50.1476 143.996 50.1476C142.337 40.2023 135.153 33.572 132.092 33.572C129.031 33.572 121.848 40.2023 120.19 50.1476C120.19 50.1476 111.074 43.5173 107.205 44.3468C103.337 45.1749 102.263 55.1215 102.263 55.1215C102.263 55.1215 88.6346 49.5955 84.3822 53.1879C80.1297 56.7791 80.9591 63.1333 80.9591 63.1333C80.9591 63.1333 68.732 64.2387 66.695 66.7257C64.6577 69.2114 66.6533 76.395 66.6533 76.395C66.6533 76.395 53.6063 78.6059 50.2913 83.8547C46.9757 89.1034 52.2247 98.5667 52.2247 98.5667C52.2247 98.5667 43.1076 101.26 42.2789 105.404C41.4503 109.549 45.5941 115.627 45.5941 115.627C45.5941 115.627 38.6874 118.39 38.4108 120.876C38.1348 123.363 41.1737 125.85 41.1737 125.85C41.1737 125.85 32.3333 130.27 32.0563 133.861C31.7802 137.454 39.24 145.002 39.24 145.002C39.24 145.002 31.2276 151.233 30.9515 152.769C30.6755 154.305 35.0952 157.132 35.0952 157.132C35.0952 157.132 26.8074 164.804 27.6364 168.673C28.4646 172.541 35.9244 177.196 35.9244 177.196C35.9244 177.196 29.8463 185.327 30.9515 187.913C32.0563 190.499 35.3722 191.436 35.3722 191.436C35.3722 191.436 29.8463 196.854 30.6755 200.445C31.5042 204.037 37.5822 204.589 37.5822 204.589C37.5822 204.589 34.8192 207.828 36.2009 210.353C37.5822 212.878 41.4503 213.154 41.4503 213.154C41.4503 213.154 37.0291 221.994 38.6874 223.929C40.3451 225.863 48.3574 226.968 48.3574 226.968C48.3574 226.968 46.4232 233.899 48.3574 234.578C50.2913 235.256 56.0933 234.578 56.0933 234.578C56.0933 234.578 56.0933 240.236 58.0271 241.477C59.9609 242.716 71.841 241.477 71.841 241.477H192.343C192.343 241.477 204.224 242.716 206.158 241.477C208.092 240.236 208.092 234.578 208.092 234.578C208.092 234.578 213.894 235.256 215.828 234.578C217.761 233.899 215.828 226.968 215.828 226.968C215.828 226.968 223.84 225.863 225.498 223.929C227.155 221.994 222.735 213.154 222.735 213.154C222.735 213.154 226.603 212.878 227.984 210.353C229.366 207.828 226.603 204.589 226.603 204.589C226.603 204.589 232.681 204.037 233.51 200.445C234.338 196.854 228.813 191.436 228.813 191.436C228.813 191.436 232.129 190.499 233.233 187.913C234.338 185.327 228.26 177.196 228.26 177.196C228.26 177.196 235.72 172.541 236.549 168.673Z" fill="#8A312D"/>
<path d="M190.524 229.651C190.293 229.651 190.059 229.649 189.821 229.645C187.564 226.879 185.093 224.314 182.478 222.037C178.269 218.374 173.803 215.781 169.04 214.079C172.938 212.737 176.749 211.146 180.351 209.261C180.269 209.496 180.327 209.761 180.618 209.891C183.235 211.062 185.433 212.911 187.05 215.28C187.135 215.404 187.254 215.456 187.37 215.456C187.633 215.456 187.886 215.192 187.712 214.893C186.175 212.257 183.949 210.218 181.208 208.881C181.181 208.869 181.154 208.858 181.128 208.848C183.638 207.493 186.038 205.994 188.293 204.329C189.988 205.361 191.57 206.562 193.055 207.986C193.127 208.055 193.206 208.083 193.282 208.083C193.537 208.085 193.755 207.756 193.53 207.512C192.209 206.079 190.727 204.794 189.111 203.713C190.497 202.649 191.824 201.519 193.078 200.323C192.892 200.542 192.87 200.892 193.198 201.07C196.089 202.622 198.659 204.518 200.889 206.935C200.954 207.006 201.026 207.036 201.095 207.036C201.314 207.036 201.501 206.731 201.322 206.502C199.274 203.873 196.705 201.678 193.711 200.192C193.629 200.151 193.549 200.134 193.473 200.134C193.355 200.134 193.249 200.176 193.162 200.243C195.38 198.118 197.377 195.782 199.097 193.21C201.497 194.072 203.623 195.404 205.46 197.174C205.567 197.277 205.686 197.32 205.8 197.32C206.193 197.32 206.536 196.815 206.179 196.455C204.329 194.593 202.174 193.178 199.751 192.197C200.64 190.779 201.443 189.293 202.156 187.734C202.866 188.128 203.549 188.58 204.2 189.091C204.279 189.152 204.363 189.178 204.444 189.178C204.755 189.178 205.026 188.809 204.729 188.562C204.019 187.971 203.271 187.444 202.49 186.984C203.073 185.636 203.589 184.233 204.032 182.777C204.599 180.911 205.08 179.024 205.477 177.121C206.328 177.196 207.184 177.245 208.027 177.403C209.66 177.71 211.225 178.188 212.753 178.846C212.804 178.868 212.854 178.878 212.901 178.878C213.217 178.878 213.43 178.451 213.092 178.267C210.979 177.114 208.311 175.938 205.751 175.736C206.55 171.453 206.93 167.093 206.923 162.726C207.098 162.632 207.275 162.54 207.454 162.454C209.199 161.607 211.008 160.915 212.842 160.286C213.144 160.183 213.134 159.663 212.802 159.663C212.789 159.663 212.774 159.663 212.758 159.666C210.924 159.9 208.838 160.37 206.902 161.14C206.753 154.797 205.793 148.443 204.112 142.268C205.052 141.533 206.027 140.842 207.13 140.293C209.758 138.981 212.753 138.142 215.686 137.782C215.89 138.15 216.019 138.517 216.046 138.874C216.278 141.889 210.018 148.223 210.018 148.223C210.018 148.223 216.742 153.454 216.974 154.743C217.205 156.033 213.495 158.404 213.495 158.404C213.495 158.404 220.451 164.843 219.756 168.09C219.061 171.335 212.8 175.241 212.8 175.241C212.8 175.241 217.901 182.065 216.974 184.236C216.046 186.406 213.263 187.193 213.263 187.193C213.263 187.193 217.901 191.74 217.205 194.754C216.51 197.768 211.408 198.231 211.408 198.231C211.408 198.231 213.727 200.95 212.568 203.069C211.408 205.188 208.163 205.42 208.163 205.42C208.163 205.42 211.872 212.839 210.481 214.462C209.091 216.085 202.366 217.013 202.366 217.013C202.366 217.013 203.989 222.83 202.366 223.399C201.825 223.589 200.923 223.653 199.961 223.653C198.039 223.653 195.874 223.399 195.874 223.399C195.874 223.399 195.874 228.148 194.251 229.189C193.71 229.535 192.241 229.651 190.524 229.651ZM73.6609 229.651C71.9437 229.651 70.4748 229.535 69.9341 229.189C68.3104 228.148 68.3104 223.399 68.3104 223.399C68.3104 223.399 66.1465 223.653 64.2233 223.653C63.2614 223.653 62.3594 223.589 61.8183 223.399C60.1955 222.83 61.8183 217.013 61.8183 217.013C61.8183 217.013 55.0942 216.085 53.7034 214.462C52.3122 212.839 56.0221 205.42 56.0221 205.42C56.0221 205.42 52.7761 205.188 51.6168 203.069C50.4573 200.95 52.7761 198.231 52.7761 198.231C52.7761 198.231 47.6748 197.768 46.9789 194.754C46.2835 191.74 50.9214 187.193 50.9214 187.193C50.9214 187.193 48.1382 186.406 47.2108 184.236C46.2835 182.065 51.3848 175.241 51.3848 175.241C51.3848 175.241 45.1242 171.335 44.4288 168.09C43.7333 164.843 50.6893 158.404 50.6893 158.404C50.6893 158.404 46.9789 156.033 47.2108 154.743C47.4428 153.454 54.1669 148.223 54.1669 148.223C54.1669 148.223 47.9062 141.889 48.1382 138.874C48.1661 138.517 48.294 138.15 48.4987 137.782C51.4322 138.142 54.4271 138.981 57.054 140.293C58.2052 140.867 59.2169 141.593 60.1941 142.364C58.5838 148.52 57.679 154.867 57.5318 161.241C55.5279 160.41 53.3411 159.911 51.426 159.666C51.4111 159.663 51.3963 159.663 51.3823 159.663C51.0536 159.663 51.0378 160.182 51.3421 160.286C53.1767 160.915 54.986 161.607 56.7309 162.454C56.9946 162.582 57.2543 162.719 57.5112 162.862C57.5007 166.653 57.7594 170.449 58.3 174.216C58.3734 174.726 58.4529 175.229 58.5406 175.728C55.9459 175.906 53.2347 177.098 51.0924 178.267C50.7545 178.451 50.9682 178.878 51.2832 178.878C51.3306 178.878 51.3805 178.868 51.4308 178.846C52.9591 178.19 54.5234 177.705 56.1577 177.403C57.0319 177.241 57.9214 177.195 58.8038 177.114C59.5207 180.609 60.5914 183.842 61.9669 186.827C61.0865 187.323 60.2482 187.902 59.455 188.562C59.1594 188.809 59.4296 189.178 59.7398 189.178C59.8218 189.178 59.9061 189.152 59.9837 189.091C60.7256 188.51 61.5053 188.005 62.3211 187.576C63.0754 189.132 63.9146 190.621 64.831 192.043C64.8142 192.048 64.7974 192.054 64.7802 192.06C62.2146 193.044 59.9435 194.505 58.0058 196.455C57.6488 196.815 57.9919 197.32 58.3839 197.32C58.4984 197.32 58.6173 197.277 58.7242 197.174C60.5627 195.402 62.6925 194.068 65.0965 193.207C65.2512 193.151 65.3577 193.054 65.4224 192.937C68.1724 196.981 71.5589 200.477 75.4102 203.491C73.6633 204.617 72.0664 205.979 70.6546 207.512C70.4293 207.756 70.6473 208.083 70.9023 208.083C70.9785 208.085 71.0576 208.055 71.1295 207.986C72.7135 206.466 74.4096 205.2 76.2352 204.124C81.8017 208.312 88.2835 211.538 95.1849 213.989C91.9643 215.096 88.8062 216.674 85.6555 218.913C81.4938 221.869 77.6547 225.541 74.3195 229.645C74.0966 229.649 73.8771 229.651 73.6609 229.651ZM83.2446 208.816C83.1587 208.816 83.0691 208.837 82.9771 208.881C80.2362 210.218 78.0093 212.257 76.472 214.893C76.2978 215.192 76.5505 215.456 76.8143 215.456C76.9309 215.456 77.0499 215.404 77.1345 215.28C78.7516 212.911 80.949 211.062 83.5673 209.891C84.1537 209.628 83.793 208.816 83.2446 208.816ZM70.712 200.134C70.6358 200.134 70.5553 200.151 70.4734 200.192C67.4799 201.678 64.9105 203.873 62.8627 206.502C62.6829 206.731 62.8693 207.036 63.0898 207.036C63.1589 207.036 63.2308 207.006 63.2964 206.935C65.5259 204.518 68.0962 202.622 70.9862 201.07C71.4841 200.803 71.1774 200.134 70.712 200.134ZM60.6618 140.65C57.5634 138.492 53.4873 137.462 49.8066 137.462C49.424 137.462 49.045 137.473 48.6725 137.495C50.4166 134.837 55.7896 132.15 55.7896 132.15C55.7896 132.15 53.2395 130.064 53.4715 127.977C53.7034 125.89 59.4997 123.571 59.4997 123.571C59.4997 123.571 56.0221 118.469 56.7176 114.992C57.4135 111.514 65.0649 109.254 65.0649 109.254C65.0649 109.254 60.659 101.312 63.442 96.9064C66.2242 92.5018 77.1738 90.6467 77.1738 90.6467C77.1738 90.6467 75.4989 84.6176 77.2082 82.5306C78.9185 80.4449 89.1792 79.5173 89.1792 79.5173C89.1792 79.5173 88.4823 74.1839 92.0526 71.1694C92.9274 70.4308 94.2758 70.151 95.8131 70.151C100.543 70.151 107.059 72.7926 107.059 72.7926C107.059 72.7926 107.96 64.4459 111.206 63.7502C111.397 63.7085 111.604 63.6901 111.822 63.6901C115.326 63.6901 122.103 68.6186 122.103 68.6186C123.495 60.2719 129.524 54.7079 132.092 54.7079C134.662 54.7079 140.69 60.2719 142.081 68.6186C142.081 68.6186 148.859 63.6901 152.363 63.6901C152.581 63.6901 152.787 63.7085 152.979 63.7502C156.225 64.4459 157.126 72.7926 157.126 72.7926C157.126 72.7926 163.641 70.151 168.372 70.151C169.908 70.151 171.257 70.4308 172.132 71.1694C175.701 74.1839 175.006 79.5173 175.006 79.5173C175.006 79.5173 185.266 80.4449 186.977 82.5306C188.686 84.6176 187.011 90.6467 187.011 90.6467C187.011 90.6467 197.96 92.5018 200.743 96.9064C203.525 101.312 199.119 109.254 199.119 109.254C199.119 109.254 206.77 111.514 207.466 114.992C208.163 118.469 204.685 123.571 204.685 123.571C204.685 123.571 210.481 125.89 210.713 127.977C210.944 130.064 208.395 132.15 208.395 132.15C208.395 132.15 213.768 134.837 215.512 137.495C215.139 137.473 214.76 137.462 214.377 137.462C210.74 137.462 206.717 138.467 203.632 140.574C198.616 123.577 188.146 108.062 174.164 97.9591C173.998 97.8389 173.834 97.7873 173.681 97.7873C173.256 97.7873 172.913 98.1799 172.846 98.6229C172.018 99.7001 170.997 100.94 169.967 101.974C169.968 101.972 169.969 101.97 169.969 101.969C168.732 103.21 167.481 104.154 166.534 104.154C166.32 104.154 166.122 104.106 165.942 104.003C165.936 103.999 165.931 103.996 165.925 103.993C165.879 103.964 165.831 103.934 165.783 103.901C165.604 103.776 165.42 103.621 165.233 103.442C163.593 101.875 161.669 98.5137 159.105 98.51C159.104 98.51 159.102 98.51 159.101 98.51C159.1 98.51 159.1 98.51 159.099 98.51C157.958 98.5112 156.69 99.1774 155.266 100.964C155.258 100.972 155.251 100.981 155.244 100.991C155.201 101.045 155.158 101.099 155.115 101.153C155.036 101.251 154.958 101.35 154.881 101.447C154.868 101.462 154.857 101.475 154.846 101.49C154.835 101.504 154.824 101.518 154.812 101.532C154.806 101.539 154.8 101.547 154.793 101.555C154.78 101.574 154.764 101.592 154.749 101.61C154.739 101.623 154.73 101.636 154.719 101.648C151.568 105.577 149.085 108.232 147.281 108.265C147.27 108.265 147.259 108.265 147.248 108.265C147.247 108.265 147.245 108.265 147.245 108.265C146.309 108.264 145.557 107.546 144.993 105.922C144.734 105.18 144.383 104.864 143.952 104.86C143.95 104.859 143.946 104.859 143.943 104.859C143.902 104.859 143.862 104.863 143.82 104.868C143.815 104.868 143.81 104.869 143.805 104.87C143.8 104.87 143.795 104.872 143.79 104.872C143.541 104.911 143.269 105.041 142.976 105.242C142.975 105.242 142.973 105.243 142.972 105.245C142.952 105.258 142.933 105.272 142.912 105.286C142.91 105.289 142.906 105.291 142.903 105.292C142.9 105.295 142.896 105.297 142.892 105.3C141.856 106.049 140.57 107.644 139.15 109.241C138.452 110.026 137.722 110.811 136.974 111.496C135.635 112.718 134.24 113.618 132.865 113.621C132.862 113.621 132.86 113.621 132.857 113.621C132.617 113.621 132.378 113.592 132.14 113.535C132.132 113.534 132.125 113.532 132.119 113.53C132.11 113.527 132.102 113.526 132.092 113.524C132.082 113.526 132.071 113.529 132.061 113.531C132.057 113.532 132.054 113.534 132.05 113.534C132.046 113.535 132.043 113.536 132.039 113.536C131.803 113.594 131.565 113.621 131.327 113.621H131.326C131.324 113.621 131.323 113.621 131.32 113.621C129.218 113.617 127.069 111.517 125.154 109.374C125.113 109.33 125.074 109.285 125.033 109.241C125.025 109.231 125.017 109.221 125.009 109.212C125.001 109.204 124.993 109.195 124.985 109.187C124.968 109.167 124.951 109.147 124.934 109.128C124.93 109.124 124.927 109.119 124.923 109.115C124.922 109.114 124.92 109.112 124.919 109.111C124.913 109.104 124.907 109.098 124.902 109.091C124.891 109.079 124.88 109.066 124.869 109.054C124.864 109.049 124.859 109.043 124.854 109.038C124.545 108.687 124.242 108.339 123.948 108C123.941 107.993 123.935 107.987 123.928 107.979C123.849 107.889 123.771 107.798 123.692 107.709C123.685 107.701 123.678 107.692 123.671 107.685C123.663 107.676 123.656 107.668 123.648 107.659C123.647 107.657 123.644 107.655 123.643 107.653C123.637 107.647 123.632 107.641 123.627 107.635C122.334 106.162 121.208 104.97 120.359 104.867C120.32 104.862 120.28 104.859 120.242 104.859C120.241 104.859 120.241 104.859 120.24 104.859C119.819 104.86 119.473 105.156 119.215 105.857C119.21 105.869 119.205 105.881 119.202 105.894C119.198 105.903 119.194 105.913 119.192 105.922C118.626 107.546 117.876 108.264 116.939 108.265C116.939 108.265 116.938 108.265 116.937 108.265C116.907 108.265 116.878 108.264 116.847 108.263C115.044 108.177 112.569 105.519 109.438 101.614C109.437 101.613 109.436 101.612 109.434 101.61C109.42 101.592 109.405 101.572 109.39 101.554C109.373 101.533 109.356 101.511 109.339 101.49V101.489C109.261 101.393 109.184 101.296 109.107 101.199C109.052 101.129 108.996 101.061 108.941 100.991C108.934 100.981 108.926 100.972 108.919 100.964C107.495 99.1774 106.227 98.5112 105.087 98.51C105.086 98.51 105.085 98.51 105.084 98.51C105.082 98.51 105.081 98.51 105.079 98.51C102.513 98.5137 100.587 101.884 98.9454 103.448C98.7945 103.592 98.6473 103.721 98.5 103.83C98.4927 103.836 98.4853 103.841 98.478 103.847C98.4473 103.869 98.4179 103.89 98.3872 103.911C98.37 103.922 98.3528 103.934 98.3356 103.945C98.3344 103.946 98.3332 103.946 98.332 103.948C98.3074 103.964 98.2841 103.978 98.2596 103.993C98.1099 104.083 97.9479 104.133 97.7725 104.149C97.7332 104.153 97.6915 104.155 97.651 104.155C96.3714 104.155 94.5383 102.435 92.9335 100.582C92.9335 100.582 92.9335 100.583 92.9335 100.585C92.3618 99.9234 91.817 99.2461 91.3385 98.6216C91.2723 98.1799 90.9288 97.7873 90.5042 97.7873C90.3509 97.7873 90.1865 97.8389 90.0208 97.9591C75.646 108.346 65.477 123.717 60.6618 140.65Z" fill="#772522"/>
<path d="M131.471 97.0409C131.548 100.821 131.733 104.613 131.851 108.395C131.872 109.074 132.814 109.045 132.885 108.395C133.29 104.688 132.952 100.55 131.79 96.9979C131.735 96.8286 131.466 96.8507 131.471 97.0409Z" fill="#511110"/>
<path d="M131.471 33.9266C131.548 37.7067 131.733 41.4991 131.851 45.2804C131.872 45.9589 132.814 45.9295 132.885 45.2804C133.29 41.5739 132.952 37.4356 131.79 33.8837C131.735 33.7143 131.466 33.7352 131.471 33.9266Z" fill="#511110"/>
<path d="M132.531 63.3481C131.321 66.8878 131.043 71.0151 131.508 74.713C131.591 75.3768 132.609 75.421 132.581 74.713C132.425 70.8912 132.558 67.1872 132.7 63.3702L132.531 63.3481Z" fill="#511110"/>
<path d="M126.202 48.1448C126.738 52.3973 126.749 56.6436 127.063 60.9035C127.113 61.5648 128.006 61.5464 128.079 60.9035C128.566 56.6301 127.716 52.1715 126.428 48.1141C126.39 47.9988 126.185 48.0111 126.202 48.1448Z" fill="#511110"/>
<path d="M125.085 72.0055C125.694 74.1587 126.413 76.28 126.988 78.4431C127.565 80.6147 127.764 82.8796 128.409 85.0255C128.591 85.6267 129.449 85.4929 129.483 84.8807C129.719 80.5043 127.83 75.4506 125.383 71.8803C125.283 71.7331 125.033 71.819 125.085 72.0055Z" fill="#511110"/>
<path d="M121.472 79.9703C123.261 84.7969 124.678 89.723 126.251 94.6196C126.503 95.4049 127.684 95.0859 127.489 94.2785C126.276 89.2347 124.224 84.4117 121.91 79.785C121.79 79.5457 121.377 79.7138 121.472 79.9703Z" fill="#511110"/>
<path d="M119.576 92.0934C120.717 95.4319 121.789 98.9924 123.319 102.171C123.491 102.528 124.132 102.368 124.087 101.964C123.698 98.4329 121.91 94.816 119.821 91.9891C119.738 91.8775 119.523 91.9364 119.576 92.0934Z" fill="#511110"/>
<path d="M107.428 86.8073C110.522 90.4782 112.273 94.4927 113.938 98.939C114.182 99.5905 115.086 99.3353 114.973 98.6544C114.183 93.921 111.348 89.5678 108.024 86.211C107.636 85.8196 107.083 86.3987 107.428 86.8073Z" fill="#511110"/>
<path d="M92.0896 86.0151C95.4354 89.2259 97.7444 92.8833 100.155 96.7959C100.415 97.2192 101.136 96.9506 100.977 96.45C99.5885 92.038 96.3396 88.1769 92.7803 85.3243C92.3018 84.9403 91.6246 85.5697 92.0896 86.0151Z" fill="#511110"/>
<path d="M109.218 70.6415C111.619 74.4511 113.057 78.6042 114.847 82.6947C115.017 83.0849 115.723 82.8984 115.669 82.4726C115.087 77.9085 112.425 73.8229 109.338 70.5483L109.218 70.6415Z" fill="#511110"/>
<path d="M114.052 56.6517C115.797 60.2318 117.619 63.6832 118.891 67.4731C119.122 68.1589 120.185 67.8792 119.982 67.1737C118.857 63.2672 117.098 59.4478 114.232 56.5118C114.138 56.4136 113.995 56.5376 114.052 56.6517Z" fill="#511110"/>
<path d="M95.7539 64.4277C98.7378 67.9846 101.361 71.6224 103.94 75.4737C104.285 75.989 104.983 75.5461 104.751 75.0001C102.961 70.7709 99.6261 66.8693 95.8361 64.3234L95.7539 64.4277Z" fill="#511110"/>
<path d="M99.3563 52.4637C101.907 55.5776 103.762 59.0326 105.447 62.6679C105.688 63.1906 106.55 62.8213 106.376 62.2778C105.113 58.3234 102.767 54.8893 99.8986 51.9214C99.549 51.5595 99.0496 52.0895 99.3563 52.4637Z" fill="#511110"/>
<path d="M117.207 47.4295C118.851 50.0846 120.046 52.9175 120.754 55.9615C120.927 56.7038 122.008 56.3799 121.883 55.6511C121.321 52.3936 119.933 49.4895 117.734 47.0234C117.48 46.7387 117.007 47.1068 117.207 47.4295Z" fill="#511110"/>
<path d="M81.6841 52.4155C84.5735 55.1098 87.415 57.8274 90.2431 60.5868C90.5289 60.864 91.0663 60.4923 90.816 60.1451C88.4812 56.9097 85.3955 54.0903 81.9516 52.0695C81.7381 51.9444 81.4976 52.2425 81.6841 52.4155Z" fill="#511110"/>
<path d="M104.043 41.9975C106.536 45.0476 108.753 48.2768 110.914 51.5662C111.174 51.9637 111.736 51.6214 111.542 51.1981C109.86 47.5284 107.334 44.3851 104.274 41.7668C104.112 41.6294 103.911 41.8367 104.043 41.9975Z" fill="#511110"/>
<path d="M62.7178 105.266C65.8843 107.131 68.4531 109.49 71.1821 111.906C71.5626 112.242 72.2226 111.808 71.9196 111.337C69.8891 108.172 66.3266 106.092 62.7471 105.196L62.7178 105.266Z" fill="#511110"/>
<path d="M42.5205 105.381C45.4014 105.914 48.1472 106.788 50.9354 107.664C51.3218 107.785 51.5542 107.216 51.2087 107.016C48.5861 105.501 45.6411 104.773 42.6409 104.496C42.1391 104.449 42.0217 105.287 42.5205 105.381Z" fill="#511110"/>
<path d="M51.531 111.18C54.8768 112.129 57.8832 113.499 60.9664 115.083C61.3387 115.274 61.8127 114.755 61.4422 114.466C58.6328 112.264 55.1332 111.014 51.6072 110.614C51.2785 110.577 51.2286 111.093 51.531 111.18Z" fill="#511110"/>
<path d="M63.1768 118.228C65.728 119.446 67.7251 121.162 69.7692 123.077C70.2552 123.532 70.8958 122.857 70.487 122.358C68.6821 120.158 66.0582 118.623 63.4572 117.562C63.0772 117.407 62.8054 118.05 63.1768 118.228Z" fill="#511110"/>
<path d="M51.6681 122.584C55.2814 123.817 58.5173 125.742 61.3009 128.355C61.9661 128.98 62.9711 127.979 62.304 127.353C59.3469 124.576 55.8531 122.664 51.9026 121.735C51.347 121.604 51.1328 122.402 51.6681 122.584Z" fill="#511110"/>
<path d="M40.1354 122.46C42.0688 122.083 43.9776 122.168 45.9024 122.56C46.4051 122.662 46.6208 121.919 46.1162 121.783C44.0697 121.23 42.004 121.295 39.9576 121.814C39.5349 121.921 39.7161 122.544 40.1354 122.46Z" fill="#511110"/>
<path d="M45.4202 130.771C47.8328 131.006 49.8432 131.915 52.0421 132.841C52.5713 133.064 53.0591 132.217 52.611 131.864C50.6014 130.285 47.9258 129.765 45.4202 129.833C44.8062 129.849 44.8278 130.714 45.4202 130.771Z" fill="#511110"/>
<path d="M31.0878 134.594C34.0467 134.22 37.0264 133.982 39.9662 133.475C40.5121 133.382 40.3803 132.499 39.8363 132.516C36.848 132.605 33.8968 133.128 30.9628 133.672C30.4489 133.766 30.5606 134.659 31.0878 134.594Z" fill="#511110"/>
<path d="M47.7881 137.704C50.9449 138.009 54.2149 138.876 57.0546 140.293C59.4677 141.497 61.2659 143.369 63.425 144.908C63.8406 145.203 64.3557 144.631 64.1069 144.225C60.9166 139.018 53.4817 136.946 47.7881 137.571V137.704Z" fill="#511110"/>
<path d="M56.6781 131.637C57.9314 132.158 59.1669 132.902 60.1757 133.811C61.0236 134.576 61.615 135.588 62.539 136.254C62.896 136.513 63.2809 136.089 63.2153 135.735C62.7303 133.135 59.1875 131.405 56.8722 130.936C56.4016 130.84 56.252 131.461 56.6781 131.637Z" fill="#511110"/>
<path d="M29.9321 152.798C31.7782 152.533 33.6272 152.163 35.4974 152.125C37.3511 152.085 38.9695 152.594 40.7324 153.08C41.3147 153.242 41.5423 152.492 41.1163 152.17C38.0134 149.821 33.1092 151.133 29.794 152.298C29.473 152.411 29.6072 152.844 29.9321 152.798Z" fill="#511110"/>
<path d="M44.5159 151.801C46.097 152.395 47.6215 153.152 49.0598 154.039C50.3662 154.844 51.4724 156.037 52.8833 156.641C53.2687 156.806 53.7196 156.456 53.4863 156.038C51.9373 153.256 47.6172 151.802 44.7095 151.099C44.247 150.986 44.0827 151.638 44.5159 151.801Z" fill="#511110"/>
<path d="M52.3721 149.638C53.6143 150.295 54.8422 151.377 55.8826 152.319C56.8901 153.229 57.6885 154.401 58.7506 155.235C59.0601 155.478 59.7139 155.268 59.5193 154.788C58.3508 151.902 55.101 150.524 52.4194 149.526L52.3721 149.638Z" fill="#511110"/>
<path d="M51.3428 160.287C53.1774 160.915 54.9867 161.607 56.7316 162.455C58.3065 163.219 59.7313 164.302 61.334 164.99C61.8698 165.221 62.4282 164.623 61.9844 164.147C59.464 161.45 54.9775 160.12 51.4267 159.666C51.0562 159.618 51.0255 160.178 51.3428 160.287Z" fill="#511110"/>
<path d="M27.616 168.511C29.4223 167.572 31.2632 166.891 33.2833 166.619C35.1265 166.371 36.8198 166.726 38.6476 166.84C39.114 166.868 39.3378 166.128 38.8935 165.928C35.221 164.278 30.3397 165.748 27.5234 168.389L27.616 168.511Z" fill="#511110"/>
<path d="M44.8196 166.991C48.2679 167.398 50.8957 168.987 54.0613 170.177C54.5209 170.35 54.8243 169.707 54.5185 169.392C52.1366 166.937 48.0973 166.236 44.8196 166.186C44.2886 166.178 44.3188 166.932 44.8196 166.991Z" fill="#511110"/>
<path d="M31.5691 187.745C35.4329 184.586 39.2944 183.391 44.1181 182.525C44.538 182.449 44.3947 181.862 44.0243 181.828C39.3552 181.415 34.3369 184.08 31.4062 187.583C31.3108 187.697 31.4541 187.839 31.5691 187.745Z" fill="#511110"/>
<path d="M33.8598 179.416C37.4294 177.421 40.8714 177.071 44.8273 176.556C45.1905 176.508 45.3702 175.919 44.9236 175.841C41.0133 175.154 36.7656 176.741 33.4731 178.753C33.0518 179.011 33.4279 179.656 33.8598 179.416Z" fill="#511110"/>
<path d="M51.4297 178.846C52.958 178.19 54.5224 177.705 56.1566 177.403C57.6078 177.135 59.1017 177.181 60.5343 176.868C61.0409 176.758 61.0691 175.905 60.5343 175.814C57.3979 175.283 53.7925 176.792 51.0913 178.267C50.7026 178.479 51.0443 179.013 51.4297 178.846Z" fill="#511110"/>
<path d="M30.5542 202.846C31.935 201.329 33.391 199.834 35.1111 198.702C36.7477 197.626 38.5455 197.107 40.3 196.303C40.7193 196.11 40.5162 195.391 40.0633 195.428C36.0701 195.75 32.0183 199.214 30.4785 202.788L30.5542 202.846Z" fill="#511110"/>
<path d="M38.6012 215.929C40.9428 212.119 44.047 210.279 48.1304 208.788C48.6212 208.609 48.5977 207.763 47.9981 207.809C43.6032 208.15 39.6594 211.754 38.0759 215.707C37.9513 216.019 38.4368 216.196 38.6012 215.929Z" fill="#511110"/>
<path d="M38.341 225.862C39.9676 222.693 42.4569 220.56 45.4399 218.712C45.7858 218.498 45.5668 217.884 45.1518 218.028C41.6719 219.24 39.0958 222.261 37.7453 225.61C37.6067 225.952 38.1727 226.188 38.341 225.862Z" fill="#511110"/>
<path d="M48.5121 235.537C49.9945 231.541 52.7474 228.812 56.1434 226.377C56.4257 226.176 56.2648 225.608 55.8857 225.765C51.868 227.425 49.1409 231.306 48.0133 235.4C47.9231 235.726 48.398 235.845 48.5121 235.537Z" fill="#511110"/>
<path d="M58.9119 241.771C59.5503 238.891 61.0173 236.456 62.7493 234.105C63.0508 233.695 62.4268 233.306 62.087 233.594C59.7223 235.601 58.4566 238.489 57.9318 241.501C57.8211 242.135 58.7681 242.417 58.9119 241.771Z" fill="#511110"/>
<path d="M66.4787 229.085C68.0325 225.694 70.4211 223.231 73.0269 220.644C73.373 220.3 72.9292 219.714 72.5041 219.967C69.2638 221.889 67.0883 225.334 65.7249 228.767C65.5542 229.197 66.2837 229.508 66.4787 229.085Z" fill="#511110"/>
<path d="M55.0424 221.547C56.74 218.304 59.2543 215.801 62.3373 213.865C62.7663 213.595 62.3882 212.949 61.9405 213.187C58.6049 214.956 56.1989 217.972 54.9375 221.501L55.0424 221.547Z" fill="#511110"/>
<path d="M43.9997 204.962C45.3857 203.545 46.8379 202.202 48.5183 201.138C50.0725 200.155 51.7581 199.56 53.4302 198.826C53.9459 198.599 53.5668 197.834 53.0612 197.95C49.354 198.799 45.7485 201.584 43.5334 204.601C43.3311 204.877 43.7688 205.198 43.9997 204.962Z" fill="#511110"/>
<path d="M42.0486 191.847C44.8308 189.56 48.0034 188.332 51.5189 187.699C52.0364 187.606 51.922 186.736 51.3943 186.776C47.6431 187.062 44.2585 188.775 41.5603 191.359C41.2339 191.672 41.7117 192.125 42.0486 191.847Z" fill="#511110"/>
<path d="M44.4943 197.481C47.0684 195.402 49.9449 193.86 53.1297 192.948C53.793 192.758 53.5074 191.711 52.844 191.912C49.5074 192.925 46.5144 194.571 43.9388 196.926C43.5583 197.274 44.1089 197.793 44.4943 197.481Z" fill="#511110"/>
<path d="M59.9843 189.091C61.8428 187.635 63.9411 186.658 66.2425 186.141C66.842 186.007 66.5885 185.063 65.9879 185.216C63.5629 185.837 61.3794 186.962 59.4556 188.562C59.0817 188.874 59.6132 189.382 59.9843 189.091Z" fill="#511110"/>
<path d="M58.724 197.174C60.5625 195.403 62.6923 194.069 65.0963 193.208C65.8147 192.949 65.4916 191.788 64.78 192.061C62.2144 193.045 59.9433 194.506 58.0056 196.455C57.5435 196.92 58.2524 197.628 58.724 197.174Z" fill="#511110"/>
<path d="M51.5818 213.371C53.7626 210.272 56.0553 207.593 59.3023 205.559C60.0136 205.115 59.3488 203.975 58.6448 204.434C55.437 206.518 52.4388 209.408 50.8534 212.945C50.6324 213.438 51.266 213.82 51.5818 213.371Z" fill="#511110"/>
<path d="M63.2949 206.935C65.5245 204.518 68.0947 202.623 70.9847 201.071C71.5646 200.759 71.0532 199.904 70.4719 200.192C67.4785 201.678 64.9091 203.873 62.8612 206.502C62.6254 206.804 63.0198 207.234 63.2949 206.935Z" fill="#511110"/>
<path d="M62.6412 222.951C64.887 219.832 67.6217 217.191 70.8366 215.084C71.4337 214.692 70.8677 213.722 70.2749 214.123C66.9651 216.366 64.2122 219.239 62.1609 222.671C61.9736 222.982 62.436 223.236 62.6412 222.951Z" fill="#511110"/>
<path d="M77.1341 215.281C78.7511 212.912 80.9485 211.063 83.5668 209.891C84.2453 209.587 83.6563 208.549 82.9766 208.881C80.2357 210.219 78.0089 212.258 76.4715 214.893C76.22 215.325 76.8592 215.685 77.1341 215.281Z" fill="#511110"/>
<path d="M71.1296 207.987C73.8595 205.367 76.9224 203.501 80.4044 202.063C80.9356 201.843 80.7332 200.978 80.1602 201.176C76.5052 202.429 73.2637 204.68 70.6547 207.512C70.3623 207.828 70.8161 208.286 71.1296 207.987Z" fill="#511110"/>
<path d="M57.0348 95.457C60.0925 97.0029 62.6905 99.0617 65.2949 101.26C65.8853 101.758 66.6727 100.992 66.149 100.406C63.7905 97.771 60.5957 96.0103 57.286 94.8607C56.9389 94.7404 56.7045 95.2901 57.0348 95.457Z" fill="#511110"/>
<path d="M67.5329 92.4526C68.6559 93.3802 69.7332 94.3568 70.7507 95.3984C71.7063 96.3775 72.5695 97.4118 73.6857 98.2117C74.083 98.4964 74.4832 97.9602 74.302 97.5958C73.0698 95.104 70.3811 93.2133 68.1953 91.5938C67.7007 91.2281 67.0551 92.0575 67.5329 92.4526Z" fill="#511110"/>
<path d="M75.2963 85.7744C76.5588 86.7952 77.69 87.9399 78.7132 89.2012C79.7291 90.4526 80.4137 91.9568 81.4861 93.1518C81.8541 93.5616 82.4823 93.1248 82.367 92.639C81.6259 89.5153 78.3243 86.832 75.7603 85.1732C75.4018 84.9401 74.9537 85.4996 75.2963 85.7744Z" fill="#511110"/>
<path d="M80.5688 80.4081C83.0435 82.9135 84.4864 85.8409 86.3427 88.7659C86.6936 89.3192 87.5831 88.9708 87.4113 88.3156C86.5181 84.906 83.8349 81.9908 81.1921 79.7836C80.7639 79.4254 80.1639 79.9959 80.5688 80.4081Z" fill="#511110"/>
<path d="M88.9376 71.0477C92.2257 74.1665 94.3998 77.8988 97.0561 81.5084C97.3419 81.8985 98.0671 81.6912 97.8965 81.1538C96.5138 76.8142 93.0036 73.239 89.5204 70.4637C89.1155 70.1422 88.5425 70.6735 88.9376 71.0477Z" fill="#511110"/>
<path d="M65.0873 67.2314C68.9122 69.0705 71.6024 71.7415 74.5494 74.6959C75.0133 75.1609 75.7724 74.5684 75.4523 73.9978C73.3877 70.3208 69.3057 67.7958 65.3979 66.4952C64.9699 66.3541 64.6732 67.0338 65.0873 67.2314Z" fill="#511110"/>
<path d="M81.4185 71.3793C83.9656 73.5326 85.5913 76.2171 87.3409 79.0046C87.6758 79.5359 88.5555 79.201 88.3752 78.5691C87.4169 75.2135 84.7815 72.5867 81.9179 70.7316C81.5314 70.4813 81.0578 71.0738 81.4185 71.3793Z" fill="#511110"/>
<path d="M51.1006 83.0567C53.736 84.9314 56.2861 87.1313 59.0816 88.7496C59.6194 89.0612 60.1801 88.3373 59.7436 87.892C57.4685 85.5719 54.2728 83.9499 51.3239 82.6763C51.065 82.5647 50.8656 82.8898 51.1006 83.0567Z" fill="#511110"/>
<path d="M64.6104 84.291C67.3532 85.7559 69.38 87.8626 71.6771 89.8931C72.131 90.2943 72.8992 89.7814 72.5509 89.2195C70.8542 86.4835 67.8119 84.7818 64.8543 83.7131C64.5164 83.5917 64.2964 84.1241 64.6104 84.291Z" fill="#511110"/>
<path d="M65.3932 76.3681C68.1777 78.2257 70.2813 80.628 72.6809 82.9088C73.0974 83.3039 73.8115 82.7959 73.4937 82.2818C71.7137 79.3998 68.6748 77.3509 65.7124 75.8221C65.3491 75.6344 65.0549 76.1424 65.3932 76.3681Z" fill="#511110"/>
<path d="M137.757 48.1137C136.466 52.1748 135.617 56.6272 136.106 60.903C136.178 61.5447 137.072 61.5668 137.121 60.903C137.434 56.6432 137.447 52.3968 137.983 48.1443C138 48.0118 137.795 47.9959 137.757 48.1137Z" fill="#511110"/>
<path d="M138.802 71.8799C136.359 75.4453 134.466 80.5063 134.703 84.8803C134.736 85.4876 135.593 85.6311 135.775 85.0251C136.422 82.8792 136.619 80.6143 137.197 78.4427C137.771 76.2796 138.493 74.1583 139.1 72.005C139.151 71.8198 138.904 71.7314 138.802 71.8799Z" fill="#511110"/>
<path d="M142.271 79.7842C139.957 84.4109 137.906 89.2339 136.691 94.2777C136.498 95.0826 137.678 95.4053 137.93 94.6188C139.502 89.7222 140.92 84.7961 142.709 79.9695C142.804 79.7155 142.393 79.5425 142.271 79.7842Z" fill="#511110"/>
<path d="M144.361 91.9886C142.272 94.8142 140.485 98.4324 140.096 101.963C140.052 102.367 140.692 102.529 140.864 102.171C142.394 98.9918 143.465 95.4313 144.607 92.0929C144.66 91.9371 144.445 91.8757 144.361 91.9886Z" fill="#511110"/>
<path d="M156.16 86.2118C152.836 89.5686 150.001 93.9218 149.211 98.6552C149.098 99.3349 150.002 99.5926 150.246 98.9398C151.911 94.4935 153.662 90.479 156.755 86.8081C157.101 86.3995 156.547 85.8204 156.16 86.2118Z" fill="#511110"/>
<path d="M171.404 85.3242C167.845 88.1768 164.596 92.0392 163.206 96.4499C163.05 96.9456 163.766 97.2241 164.029 96.7959C166.44 92.8833 168.746 89.2271 172.095 86.015C172.56 85.5696 171.882 84.939 171.404 85.3242Z" fill="#511110"/>
<path d="M154.846 70.5483C151.761 73.8229 149.097 77.9085 148.517 82.4726C148.462 82.8984 149.167 83.0849 149.338 82.6947C151.126 78.6029 152.566 74.4498 154.967 70.6415L154.846 70.5483Z" fill="#511110"/>
<path d="M149.954 56.5121C147.088 59.4482 145.328 63.2676 144.203 67.1741C144.001 67.8783 145.065 68.1593 145.295 67.4735C146.567 63.6835 148.389 60.2322 150.134 56.652C150.189 56.5392 150.049 56.414 149.954 56.5121Z" fill="#511110"/>
<path d="M168.348 64.3234C164.556 66.8705 161.224 70.7697 159.434 75.0001C159.203 75.5461 159.899 75.989 160.245 75.4737C162.825 71.6224 165.446 67.9858 168.431 64.4277L168.348 64.3234Z" fill="#511110"/>
<path d="M164.286 51.9217C161.417 54.8896 159.071 58.3237 157.809 62.2781C157.637 62.8167 158.492 63.1971 158.738 62.6683C160.422 59.0329 162.277 55.5779 164.828 52.464C165.135 52.0898 164.635 51.5598 164.286 51.9217Z" fill="#511110"/>
<path d="M146.45 47.0233C144.251 49.4894 142.863 52.3923 142.302 55.651C142.176 56.3798 143.256 56.7061 143.43 55.9614C144.138 52.9174 145.333 50.0845 146.977 47.4294C147.174 47.1104 146.707 46.735 146.45 47.0233Z" fill="#511110"/>
<path d="M182.232 52.0696C178.788 54.0904 175.701 56.9098 173.368 60.1452C173.12 60.4875 173.651 60.8678 173.94 60.5869C176.768 57.8275 179.609 55.1099 182.5 52.4156C182.684 52.2438 182.447 51.9445 182.232 52.0696Z" fill="#511110"/>
<path d="M159.909 41.7671C156.849 44.3853 154.323 47.5286 152.641 51.1983C152.447 51.6204 153.007 51.9639 153.27 51.5664C155.429 48.2758 157.645 45.0478 160.139 41.9977C160.272 41.837 160.071 41.6297 159.909 41.7671Z" fill="#511110"/>
<path d="M201.439 105.195C197.859 106.092 194.297 108.17 192.267 111.336C191.967 111.803 192.62 112.245 193.004 111.905C195.733 109.488 198.302 107.13 201.47 105.265L201.439 105.195Z" fill="#511110"/>
<path d="M221.545 104.496C218.544 104.773 215.599 105.501 212.977 107.016C212.634 107.213 212.86 107.786 213.25 107.664C216.039 106.788 218.784 105.914 221.665 105.38C222.159 105.288 222.052 104.448 221.545 104.496Z" fill="#511110"/>
<path d="M212.576 110.615C209.051 111.015 205.55 112.265 202.741 114.466C202.374 114.753 202.84 115.277 203.217 115.083C206.3 113.499 209.306 112.13 212.652 111.18C212.951 111.094 212.908 110.577 212.576 110.615Z" fill="#511110"/>
<path d="M200.728 117.562C198.126 118.623 195.502 120.158 193.698 122.358C193.289 122.857 193.929 123.532 194.415 123.077C196.459 121.162 198.456 119.446 201.008 118.228C201.376 118.053 201.112 117.405 200.728 117.562Z" fill="#511110"/>
<path d="M212.283 121.735C208.332 122.664 204.838 124.575 201.881 127.353C201.215 127.979 202.22 128.98 202.885 128.355C205.669 125.742 208.904 123.817 212.517 122.584C213.051 122.402 212.839 121.604 212.283 121.735Z" fill="#511110"/>
<path d="M224.229 121.814C222.184 121.295 220.116 121.23 218.071 121.783C217.567 121.919 217.78 122.662 218.285 122.56C220.211 122.168 222.116 122.083 224.051 122.46C224.469 122.543 224.652 121.922 224.229 121.814Z" fill="#511110"/>
<path d="M218.763 129.833C216.259 129.765 213.582 130.287 211.573 131.864C211.126 132.215 211.613 133.064 212.141 132.841C214.339 131.916 216.351 131.006 218.763 130.771C219.356 130.714 219.379 129.849 218.763 129.833Z" fill="#511110"/>
<path d="M233.222 133.672C230.289 133.128 227.337 132.605 224.349 132.516C223.81 132.499 223.668 133.381 224.219 133.475C227.159 133.982 230.138 134.22 233.097 134.594C233.618 134.659 233.741 133.767 233.222 133.672Z" fill="#511110"/>
<path d="M216.397 137.571C210.702 136.945 203.267 139.02 200.077 144.225C199.83 144.631 200.345 145.203 200.76 144.908C202.919 143.369 204.718 141.497 207.13 140.293C209.97 138.876 213.24 138.009 216.397 137.704V137.571Z" fill="#511110"/>
<path d="M207.314 130.936C205.001 131.405 201.455 133.137 200.97 135.736C200.904 136.087 201.289 136.513 201.645 136.255C202.568 135.589 203.163 134.575 204.009 133.812C205.017 132.904 206.256 132.157 207.507 131.638C207.932 131.463 207.783 130.841 207.314 130.936Z" fill="#511110"/>
<path d="M234.389 152.298C231.076 151.133 226.171 149.82 223.067 152.169C222.645 152.49 222.864 153.243 223.452 153.08C225.227 152.589 226.815 152.077 228.686 152.125C230.557 152.172 232.404 152.533 234.251 152.798C234.577 152.844 234.71 152.411 234.389 152.298Z" fill="#511110"/>
<path d="M219.477 151.099C216.568 151.802 212.249 153.256 210.699 156.038C210.467 156.455 210.916 156.806 211.303 156.641C212.714 156.038 213.821 154.843 215.126 154.039C216.564 153.152 218.089 152.395 219.67 151.801C220.102 151.639 219.94 150.986 219.477 151.099Z" fill="#511110"/>
<path d="M211.764 149.527C209.082 150.524 205.833 151.902 204.665 154.788C204.47 155.267 205.123 155.478 205.434 155.236C206.495 154.401 207.294 153.23 208.301 152.319C209.345 151.373 210.566 150.296 211.811 149.638L211.764 149.527Z" fill="#511110"/>
<path d="M212.757 159.666C209.21 160.12 204.719 161.45 202.199 164.146C201.759 164.619 202.31 165.222 202.851 164.989C204.453 164.301 205.878 163.219 207.453 162.455C209.198 161.607 211.007 160.915 212.842 160.287C213.156 160.179 213.132 159.618 212.757 159.666Z" fill="#511110"/>
<path d="M236.662 168.389C233.846 165.748 228.963 164.278 225.292 165.928C224.848 166.128 225.071 166.868 225.539 166.84C227.366 166.726 229.059 166.371 230.903 166.619C232.922 166.891 234.764 167.572 236.57 168.511L236.662 168.389Z" fill="#511110"/>
<path d="M219.363 166.186C216.089 166.236 212.046 166.938 209.664 169.392C209.359 169.707 209.662 170.35 210.122 170.177C213.287 168.987 215.916 167.398 219.363 166.991C219.863 166.932 219.896 166.178 219.363 166.186Z" fill="#511110"/>
<path d="M232.778 187.582C229.847 184.079 224.83 181.414 220.161 181.828C219.794 181.861 219.644 182.449 220.066 182.525C224.89 183.391 228.751 184.586 232.616 187.744C232.73 187.837 232.874 187.696 232.778 187.582Z" fill="#511110"/>
<path d="M230.71 178.753C227.418 176.741 223.168 175.154 219.26 175.841C218.815 175.918 218.988 176.508 219.355 176.556C223.323 177.074 226.747 177.419 230.323 179.416C230.754 179.656 231.132 179.011 230.71 178.753Z" fill="#511110"/>
<path d="M213.091 178.267C210.389 176.792 206.784 175.283 203.649 175.814C203.114 175.905 203.14 176.758 203.649 176.868C205.081 177.181 206.574 177.13 208.026 177.403C209.659 177.71 211.224 178.188 212.752 178.846C213.138 179.013 213.481 178.479 213.091 178.267Z" fill="#511110"/>
<path d="M233.708 202.788C232.168 199.214 228.118 195.75 224.123 195.428C223.669 195.391 223.467 196.11 223.886 196.303C225.64 197.107 227.438 197.628 229.075 198.702C230.795 199.832 232.252 201.33 233.632 202.846L233.708 202.788Z" fill="#511110"/>
<path d="M226.108 215.707C224.525 211.754 220.582 208.151 216.186 207.809C215.592 207.763 215.559 208.607 216.053 208.789C220.138 210.28 223.244 212.125 225.583 215.929C225.746 216.194 226.234 216.022 226.108 215.707Z" fill="#511110"/>
<path d="M226.442 225.61C225.091 222.261 222.515 219.24 219.035 218.028C218.624 217.885 218.397 218.495 218.746 218.712C221.729 220.56 224.217 222.692 225.845 225.861C226.011 226.184 226.581 225.956 226.442 225.61Z" fill="#511110"/>
<path d="M216.173 235.4C215.045 231.306 212.318 227.425 208.301 225.765C207.924 225.61 207.757 226.174 208.042 226.378C211.439 228.813 214.191 231.543 215.673 235.538C215.787 235.846 216.262 235.728 216.173 235.4Z" fill="#511110"/>
<path d="M206.254 241.501C205.729 238.488 204.464 235.601 202.099 233.595C201.762 233.309 201.133 233.693 201.437 234.106C203.17 236.458 204.636 238.891 205.274 241.771C205.417 242.418 206.365 242.137 206.254 241.501Z" fill="#511110"/>
<path d="M198.46 228.767C197.097 225.334 194.922 221.889 191.682 219.967C191.26 219.716 190.809 220.297 191.158 220.644C193.765 223.233 196.152 225.694 197.707 229.085C197.9 229.503 198.633 229.202 198.46 228.767Z" fill="#511110"/>
<path d="M209.247 221.501C207.986 217.972 205.579 214.956 202.244 213.187C201.796 212.949 201.417 213.595 201.847 213.865C204.93 215.801 207.444 218.304 209.142 221.547L209.247 221.501Z" fill="#511110"/>
<path d="M220.651 204.602C218.436 201.584 214.831 198.8 211.123 197.951C210.624 197.836 210.234 198.599 210.755 198.827C212.427 199.561 214.111 200.154 215.666 201.138C217.346 202.202 218.8 203.546 220.185 204.963C220.413 205.196 220.856 204.881 220.651 204.602Z" fill="#511110"/>
<path d="M222.623 191.359C219.925 188.775 216.542 187.062 212.79 186.776C212.268 186.737 212.142 187.605 212.666 187.699C216.181 188.332 219.354 189.56 222.135 191.847C222.472 192.125 222.951 191.672 222.623 191.359Z" fill="#511110"/>
<path d="M220.244 196.926C217.669 194.571 214.675 192.925 211.339 191.912C210.678 191.711 210.39 192.758 211.053 192.948C214.238 193.86 217.116 195.402 219.69 197.481C220.074 197.793 220.626 197.274 220.244 196.926Z" fill="#511110"/>
<path d="M204.73 188.562C202.807 186.962 200.623 185.837 198.198 185.216C197.598 185.063 197.343 186.007 197.944 186.141C200.245 186.658 202.343 187.635 204.201 189.091C204.573 189.382 205.105 188.874 204.73 188.562Z" fill="#511110"/>
<path d="M206.178 196.455C204.241 194.506 201.969 193.046 199.403 192.061C198.693 191.788 198.368 192.949 199.086 193.208C201.491 194.069 203.621 195.403 205.459 197.174C205.93 197.628 206.641 196.92 206.178 196.455Z" fill="#511110"/>
<path d="M213.331 212.946C211.745 209.409 208.747 206.519 205.54 204.435C204.835 203.977 204.17 205.114 204.882 205.56C208.128 207.594 210.422 210.272 212.602 213.371C212.918 213.821 213.551 213.44 213.331 212.946Z" fill="#511110"/>
<path d="M201.321 206.502C199.273 203.873 196.704 201.678 193.711 200.192C193.129 199.904 192.617 200.758 193.198 201.071C196.088 202.623 198.659 204.518 200.888 206.935C201.162 207.234 201.557 206.804 201.321 206.502Z" fill="#511110"/>
<path d="M202.022 222.671C199.972 219.239 197.218 216.366 193.908 214.123C193.317 213.722 192.749 214.691 193.347 215.084C196.562 217.192 199.297 219.832 201.542 222.951C201.747 223.236 202.209 222.984 202.022 222.671Z" fill="#511110"/>
<path d="M187.712 214.893C186.176 212.258 183.949 210.218 181.208 208.881C180.528 208.55 179.938 209.587 180.618 209.891C183.235 211.062 185.433 212.911 187.05 215.281C187.325 215.683 187.963 215.325 187.712 214.893Z" fill="#511110"/>
<path d="M193.529 207.512C190.92 204.68 187.679 202.429 184.024 201.176C183.452 200.98 183.247 201.843 183.778 202.063C187.262 203.501 190.324 205.367 193.054 207.987C193.368 208.286 193.821 207.828 193.529 207.512Z" fill="#511110"/>
<path d="M206.898 94.8608C203.588 96.0117 200.393 97.7711 198.033 100.407C197.511 100.991 198.297 101.759 198.889 101.26C201.492 99.0618 204.092 97.0018 207.148 95.4571C207.475 95.2915 207.248 94.7394 206.898 94.8608Z" fill="#511110"/>
<path d="M195.989 91.5943C193.803 93.215 191.116 95.1045 189.883 97.5963C189.701 97.9607 190.101 98.4981 190.499 98.2123C191.615 97.4123 192.479 96.3768 193.435 95.3989C194.452 94.3573 195.529 93.3807 196.652 92.4531C197.124 92.0617 196.49 91.2237 195.989 91.5943Z" fill="#511110"/>
<path d="M188.422 85.1736C185.857 86.8337 182.559 89.5145 181.817 92.6394C181.701 93.1253 182.33 93.5633 182.698 93.1523C183.77 91.9573 184.451 90.4506 185.47 89.2016C186.499 87.9428 187.624 86.7969 188.887 85.7748C189.226 85.5025 188.786 84.9381 188.422 85.1736Z" fill="#511110"/>
<path d="M182.99 79.7839C180.348 81.9899 177.664 84.9062 176.77 88.3158C176.601 88.9649 177.484 89.3244 177.839 88.7661C179.697 85.8411 181.139 82.9137 183.614 80.4084C184.019 79.9961 183.419 79.4256 182.99 79.7839Z" fill="#511110"/>
<path d="M174.667 70.4642C171.181 73.2395 167.671 76.8147 166.289 81.1543C166.12 81.6868 166.84 81.9028 167.13 81.5089C169.786 77.8993 171.96 74.1682 175.249 71.0482C175.642 70.674 175.07 70.1428 174.667 70.4642Z" fill="#511110"/>
<path d="M198.789 66.4953C194.881 67.7959 190.798 70.3209 188.733 73.998C188.416 74.5636 189.167 75.1647 189.636 74.6961C192.584 71.7404 195.273 69.0694 199.098 67.2315C199.508 67.0352 199.22 66.353 198.789 66.4953Z" fill="#511110"/>
<path d="M182.265 70.7315C179.401 72.5866 176.766 75.2134 175.809 78.569C175.63 79.196 176.506 79.5407 176.842 79.0046C178.593 76.217 180.219 73.5325 182.766 71.3793C183.123 71.0775 182.656 70.4788 182.265 70.7315Z" fill="#511110"/>
<path d="M212.862 82.6774C209.912 83.9521 206.717 85.5729 204.441 87.893C204.009 88.3334 204.56 89.0659 205.104 88.7506C207.899 87.1323 210.448 84.9324 213.085 83.0577C213.318 82.8908 213.12 82.5657 212.862 82.6774Z" fill="#511110"/>
<path d="M199.331 83.7123C196.371 84.7809 193.331 86.4814 191.634 89.2187C191.288 89.7757 192.05 90.2971 192.508 89.8922C194.805 87.8617 196.83 85.7563 199.574 84.2901C199.884 84.1257 199.672 83.5896 199.331 83.7123Z" fill="#511110"/>
<path d="M198.472 75.8217C195.509 77.3505 192.471 79.3982 190.69 82.2814C190.376 82.7906 191.083 83.3084 191.504 82.9084C193.905 80.6263 196.007 78.2253 198.792 76.3677C199.13 76.142 198.836 75.634 198.472 75.8217Z" fill="#511110"/>
<path d="M158.893 212.44H105.293C78.4937 214.906 66.0752 245.142 66.0752 245.142C87.098 263.828 132.093 263.439 132.093 263.439C132.093 263.439 177.089 263.828 198.111 245.142C198.111 245.142 185.693 214.906 158.893 212.44Z" fill="#FFD2A8"/>
<path d="M151.935 226.144C150.032 222.573 150.526 217.216 151.448 212.873H112.737C113.659 217.216 114.153 222.573 112.25 226.144C108.844 232.538 95.8413 241.341 95.7002 259.015C114.195 263.589 132.092 263.439 132.092 263.439C132.092 263.439 149.991 263.589 168.485 259.015C168.343 241.341 155.342 232.538 151.935 226.144Z" fill="#FFE8D3"/>
<path d="M112.762 224.994C105.765 223.716 97.6841 221.679 89.9668 218.438C92.6709 216.943 95.4572 215.841 98.3442 215.049C101.862 216.162 105.466 217.088 109.094 217.85C110.584 218.163 112.061 218.449 113.527 218.706C113.628 220.94 113.443 223.137 112.762 224.994ZM151.423 224.994C150.742 223.137 150.557 220.938 150.657 218.703C155.775 217.813 161.063 216.612 166.25 214.995C168.952 215.746 171.63 216.829 174.33 218.391C166.578 221.659 158.453 223.71 151.423 224.994Z" fill="#FFBF8B"/>
<path d="M132.092 227.143C132.092 227.143 123.768 227.006 112.762 224.994C113.443 223.137 113.628 220.941 113.527 218.706C119.847 219.815 125.992 220.403 132.196 220.403C137.036 220.403 141.914 220.045 146.949 219.3C148.172 219.119 149.41 218.92 150.657 218.703C150.557 220.938 150.742 223.137 151.423 224.994C140.416 227.006 132.092 227.143 132.092 227.143Z" fill="#FFD3AF"/>
<path d="M198.998 244.835C195.423 236.251 189.466 228.12 182.477 222.037C173.766 214.452 163.949 211.457 152.681 211.457C140.146 211.457 127.612 211.457 115.078 211.457C104.264 211.457 94.9297 212.323 85.6554 218.913C76.7836 225.216 69.3791 234.767 65.187 244.835C64.7322 245.926 66.5122 246.403 66.9613 245.324C70.2812 237.354 76.3014 229.176 83.0089 223.339C92.017 215.496 101.797 213.298 113.216 213.298C124.513 213.298 135.812 213.298 147.109 213.298C157.574 213.298 166.544 213.312 175.857 219.327C185.137 225.318 193.089 235.398 197.223 245.324C197.672 246.401 199.453 245.929 198.998 244.835Z" fill="#511110"/>
<path d="M173.699 98.7546C173.493 98.6086 173.277 98.4748 173.069 98.3313C171.032 101.019 167.613 105.009 165.926 103.994C163.433 102.492 160.349 94.5585 155.244 100.991C150.139 107.424 146.708 110.854 144.993 105.922C144.046 103.201 141.836 106.22 139.152 109.241C136.972 111.692 134.479 114.144 132.092 113.524C129.707 114.144 127.214 111.692 125.034 109.241C122.349 106.22 120.14 103.201 119.192 105.922C117.477 110.854 114.047 107.424 108.941 100.991C103.836 94.5585 100.753 102.492 98.26 103.994C96.5729 105.009 93.1535 101.019 91.1169 98.3313C90.9083 98.4748 90.6911 98.6086 90.485 98.7546C56.7313 122.515 53.4277 168.669 63.4793 188.772C78.5471 218.908 132.092 219.781 132.092 219.781C132.092 219.781 185.638 218.908 200.706 188.772C210.757 168.669 207.454 122.515 173.699 98.7546Z" fill="#FFD2A8"/>
<path d="M132.856 113.621C132.616 113.621 132.377 113.594 132.139 113.535C132.377 113.593 132.616 113.621 132.856 113.621ZM136.973 111.496C137.721 110.811 138.451 110.026 139.149 109.241C140.569 107.645 141.855 106.05 142.891 105.3C141.855 106.05 140.569 107.645 139.151 109.241C138.451 110.026 137.721 110.811 136.973 111.496ZM147.245 108.266C146.308 108.264 145.558 107.548 144.992 105.922C145.556 107.547 146.308 108.264 147.245 108.266ZM116.846 108.263C115.043 108.177 112.569 105.52 109.437 101.614C112.568 105.52 115.043 108.177 116.846 108.263ZM123.626 107.635C122.333 106.163 121.207 104.971 120.358 104.867C121.207 104.97 122.333 106.163 123.626 107.635ZM144.992 105.922C144.734 105.18 144.382 104.865 143.951 104.861C144.382 104.865 144.733 105.18 144.992 105.922ZM166.534 104.155C166.319 104.155 166.121 104.106 165.941 104.003C166.121 104.106 166.319 104.154 166.533 104.154C167.48 104.154 168.731 103.211 169.968 101.969C169.968 101.97 169.967 101.973 169.966 101.974C168.73 103.214 167.48 104.155 166.534 104.155ZM97.6501 104.155C96.3704 104.155 94.5387 102.438 92.9326 100.585C92.9326 100.584 92.9326 100.583 92.9326 100.583C94.5374 102.435 96.3704 104.155 97.6501 104.155ZM165.232 103.443C163.592 101.876 161.667 98.5141 159.104 98.5104C161.668 98.5141 163.592 101.876 165.232 103.443Z" fill="#77211C"/>
<path d="M131.89 218.62C127.961 218.62 124.002 218.367 119.93 217.834C98.1273 214.974 70.4186 206.904 62.4217 183.838C60.205 177.445 59.1133 170.735 59.0117 163.959C59.7584 170.267 61.3007 175.85 63.4779 180.204C78.5457 210.34 132.091 211.213 132.091 211.213C132.091 211.213 185.637 210.34 200.705 180.204C202.572 176.468 203.973 171.828 204.805 166.6C204.652 169.796 204.294 172.983 203.723 176.136C199.156 201.365 175.256 212.133 152.329 216.531C145.337 217.872 138.66 218.62 131.89 218.62ZM132.653 119.648C124.739 119.648 122.775 111.712 121.017 111.712C120.923 111.712 120.831 111.734 120.738 111.78C119.851 112.229 118.239 113.017 116.313 113.017C114.232 113.017 111.783 112.099 109.482 108.843C107.957 106.686 106.616 105.966 105.35 105.966C102.934 105.966 100.784 108.583 98.1261 108.843C98.0537 108.85 97.9825 108.854 97.9114 108.854C95.1778 108.854 93.6208 103.674 92.9325 100.585C94.5385 102.437 96.3703 104.155 97.65 104.155C97.6905 104.155 97.7322 104.153 97.7715 104.149C97.9469 104.133 98.1089 104.083 98.2586 103.993C98.2831 103.978 98.3064 103.964 98.3309 103.948C98.3322 103.946 98.3334 103.946 98.3346 103.945C98.3518 103.934 98.369 103.922 98.3862 103.911C98.4168 103.89 98.4463 103.869 98.477 103.847C98.4843 103.841 98.4917 103.835 98.499 103.83C98.6463 103.721 98.7935 103.592 98.9444 103.448C100.586 101.884 102.512 98.5136 105.078 98.5099C105.08 98.5099 105.081 98.5099 105.083 98.5099C105.084 98.5099 105.085 98.5099 105.086 98.5099C106.226 98.5111 107.494 99.1774 108.918 100.964C108.925 100.972 108.933 100.981 108.94 100.991C108.995 101.061 109.051 101.129 109.106 101.199C109.183 101.296 109.26 101.393 109.338 101.489V101.49C109.355 101.511 109.372 101.533 109.389 101.554C109.404 101.572 109.419 101.592 109.433 101.61C109.435 101.612 109.436 101.613 109.437 101.614C112.569 105.519 115.043 108.177 116.846 108.263C116.877 108.264 116.906 108.265 116.936 108.265C116.937 108.265 116.938 108.265 116.938 108.265C117.875 108.264 118.625 107.546 119.191 105.922C119.193 105.913 119.197 105.903 119.201 105.894C119.204 105.881 119.209 105.869 119.214 105.857C119.472 105.156 119.818 104.86 120.239 104.859C120.24 104.859 120.24 104.859 120.241 104.859C120.279 104.859 120.319 104.862 120.358 104.867C121.207 104.971 122.333 106.162 123.626 107.635C123.631 107.641 123.636 107.647 123.642 107.653C123.643 107.655 123.646 107.657 123.647 107.659C123.654 107.668 123.662 107.676 123.67 107.685C123.677 107.692 123.684 107.701 123.691 107.709C123.77 107.798 123.848 107.888 123.927 107.979C123.934 107.987 123.94 107.993 123.947 108C124.241 108.339 124.544 108.687 124.853 109.038C124.858 109.043 124.863 109.049 124.868 109.054C124.879 109.066 124.89 109.079 124.901 109.091C124.906 109.098 124.912 109.104 124.918 109.11C124.919 109.112 124.921 109.114 124.922 109.115C124.926 109.119 124.929 109.124 124.933 109.128C124.95 109.147 124.967 109.167 124.984 109.187C124.992 109.195 125 109.204 125.008 109.212C125.016 109.221 125.024 109.231 125.032 109.241C125.073 109.285 125.112 109.33 125.153 109.374C127.068 111.516 129.217 113.617 131.319 113.621C131.321 113.621 131.323 113.621 131.325 113.621H131.326C131.564 113.621 131.802 113.594 132.038 113.536C132.042 113.536 132.045 113.535 132.049 113.534C132.053 113.534 132.056 113.532 132.06 113.531C132.07 113.529 132.081 113.526 132.091 113.524C132.101 113.526 132.109 113.527 132.118 113.53C132.124 113.532 132.131 113.534 132.139 113.535C132.377 113.594 132.616 113.621 132.856 113.621C132.859 113.621 132.861 113.621 132.864 113.621C134.239 113.618 135.635 112.718 136.973 111.496C137.721 110.811 138.451 110.026 139.15 109.241C140.569 107.644 141.855 106.049 142.891 105.3C142.895 105.297 142.899 105.295 142.902 105.292C142.905 105.291 142.908 105.289 142.911 105.286C142.932 105.271 142.951 105.258 142.971 105.244C142.972 105.243 142.974 105.242 142.975 105.242C143.268 105.041 143.54 104.911 143.789 104.871C143.794 104.871 143.799 104.87 143.804 104.87C143.809 104.869 143.814 104.868 143.819 104.868C143.861 104.863 143.901 104.859 143.942 104.859C143.945 104.859 143.949 104.86 143.951 104.86C144.382 104.864 144.734 105.179 144.992 105.922C145.557 107.547 146.308 108.264 147.244 108.265C147.244 108.265 147.246 108.265 147.247 108.265C147.258 108.265 147.269 108.265 147.28 108.265C149.084 108.233 151.566 105.577 154.718 101.648C154.729 101.636 154.738 101.623 154.748 101.61C154.763 101.592 154.779 101.574 154.792 101.555C154.799 101.547 154.805 101.539 154.811 101.532C154.823 101.518 154.834 101.504 154.845 101.49C154.856 101.475 154.867 101.462 154.88 101.447C154.957 101.35 155.035 101.251 155.114 101.153C155.157 101.099 155.2 101.045 155.243 100.991C155.25 100.981 155.257 100.972 155.265 100.964C156.689 99.1774 157.957 98.5111 159.098 98.5099C159.099 98.5099 159.099 98.5099 159.1 98.5099C159.101 98.5099 159.103 98.5099 159.104 98.5099C161.667 98.5136 163.592 101.875 165.232 103.442C165.419 103.621 165.603 103.776 165.782 103.901C165.83 103.934 165.878 103.964 165.924 103.993C165.93 103.995 165.935 103.999 165.941 104.003C166.121 104.106 166.319 104.155 166.534 104.155C167.48 104.155 168.73 103.214 169.966 101.974C168.33 105.349 166.084 108.016 164.188 108.016C163.769 108.016 163.366 107.885 162.992 107.603C162.104 106.933 161.1 106.524 160.013 106.524C158.001 106.524 155.704 107.923 153.321 111.647C151.783 114.05 150.469 114.79 149.18 114.79C147.394 114.79 145.658 113.368 143.445 112.979C143.279 112.951 143.122 112.936 142.975 112.936C139.733 112.936 140.624 119.648 132.653 119.648Z" fill="#FFBF8B"/>
<path d="M90.0209 97.9591C66.4362 115.002 54.1746 145.456 58.3001 174.216C62.0801 200.567 85.0482 212.797 109.095 217.85C122.005 220.562 133.964 221.222 146.949 219.3C169.427 215.969 196.706 206.87 204.032 182.777C213.294 152.312 199.49 116.26 174.164 97.9591C173.203 97.2647 172.283 98.8597 173.235 99.548C196.664 116.478 208.88 147.653 203.724 176.136C199.158 201.365 175.257 212.134 152.33 216.531C141.281 218.65 131.02 219.289 119.931 217.834C98.1284 214.974 70.4197 206.904 62.4228 183.838C52.1152 154.108 66.1275 117.486 90.9497 99.548C91.9006 98.8609 90.9828 97.2635 90.0209 97.9591Z" fill="#511110"/>
<path d="M77.7509 113.524C77.7509 113.524 69.273 105.811 72.6926 97.2614C76.1117 88.7123 89.2643 87.7921 92.1573 97.2614C92.1573 97.2614 103.092 125.049 77.7509 113.524Z" fill="#FFD2A8"/>
<path d="M186.433 113.524C186.433 113.524 194.911 105.811 191.491 97.2614C188.071 88.7123 174.92 87.7921 172.027 97.2614C172.027 97.2614 161.093 125.049 186.433 113.524Z" fill="#FFD2A8"/>
<path d="M78.4021 112.873C72.2736 107.099 69.7824 94.3034 80.3271 91.7636C85.9378 90.4128 89.5854 93.6838 91.6209 98.589C92.4183 100.512 92.9398 102.921 94.7446 104.225C95.9568 105.101 97.3174 105.336 98.7247 104.787C102.192 103.435 101.128 100.38 105.633 101.174C109.087 101.783 109.664 103.659 111.845 105.991C112.563 106.758 113.629 108.047 114.71 108.423C116.164 108.927 116.822 108.712 118.18 108.161C119.927 107.451 119.477 105.985 121.699 106.877C122.805 107.321 123.755 109.057 124.521 109.907C126.042 111.597 127.701 113.711 130.002 114.36C134.513 115.633 137.354 112.368 140.048 109.302C141.117 108.085 142.292 105.976 144.343 106.574C145.125 106.802 145.766 108.428 146.714 108.819C148.223 109.442 149.191 109.047 150.509 108.136C151.693 107.316 152.538 105.933 153.427 104.824C155.47 102.275 158.528 99.5779 162.056 101.51C163.643 102.38 164.166 104.876 166.287 104.938C168.221 104.995 169.681 102.945 170.693 101.535C173.297 97.908 174.059 93.1402 178.967 91.8041C185.542 90.0153 191.776 95.5499 191.358 102.235C191.109 106.211 188.639 110.182 185.783 112.873C184.919 113.687 186.222 114.987 187.084 114.175C191.601 109.918 194.744 103.138 192.379 97.0173C190.205 91.3943 183.629 88.289 177.898 90.1858C175.162 91.0901 173.187 93.0053 171.791 95.4702C170.943 96.967 170.45 98.6086 169.466 100.059C166.704 104.13 165.436 102.069 162.967 99.7815C161.317 98.254 159.664 97.1866 157.376 98.0148C155.901 98.5497 154.886 100.047 153.94 101.179C153.081 102.205 151.822 104.203 151.092 104.832C150.78 105.195 150.47 105.557 150.158 105.92C148.037 107.263 146.533 107.047 145.643 105.272C144.105 104.748 144.177 103.838 142.285 104.536C139.688 105.497 138.105 109.223 136.078 110.953C127.522 118.26 126.476 102.768 119.79 104.424C118.781 104.673 118.55 105.906 117.688 106.225C114.181 107.522 111.941 103.183 110.25 101.169C108.5 99.0847 106.624 96.9572 103.688 98.0148C100.172 99.2822 98.5063 106.288 94.3102 100.438C92.3778 97.74 92.595 94.577 89.859 92.2004C84.9231 87.9148 76.915 89.2767 73.1866 94.4678C68.5962 100.86 71.8973 109.272 77.1015 114.175C77.9628 114.987 79.2658 113.687 78.4021 112.873Z" fill="#511110"/>
<path d="M83.3536 107.52C83.3536 107.52 80.3342 108.308 78.4803 105.02C76.6878 101.845 78.5453 98.9827 80.3342 97.919C83.8726 95.8148 89.2244 98.5422 88.8698 103.574" fill="#FFE8D3"/>
<path d="M83.1095 106.632C82.0936 106.873 80.944 106.436 80.1981 105.756C78.127 103.869 78.2509 100.557 80.5121 98.9224C83.9794 96.417 88.0601 99.8499 87.9497 103.574C87.9154 104.759 89.7557 104.758 89.7901 103.574C89.9557 98.0034 83.1684 93.6724 78.7429 98.0071C74.9281 101.743 77.8289 109.77 83.5991 108.406C84.7511 108.135 84.2628 106.36 83.1095 106.632Z" fill="#511110"/>
<path d="M180.829 107.52C180.829 107.52 183.848 108.308 185.703 105.02C187.496 101.845 185.637 98.9827 183.848 97.919C180.311 95.8148 174.958 98.5422 175.314 103.574" fill="#FFE8D3"/>
<path d="M180.585 108.406C186.355 109.77 189.256 101.744 185.441 98.0071C181.015 93.6724 174.228 98.0022 174.394 103.574C174.428 104.756 176.27 104.761 176.234 103.574C176.122 99.8364 180.201 96.4342 183.672 98.9223C185.919 100.535 186.069 103.901 183.986 105.756C183.229 106.43 182.099 106.874 181.074 106.632C179.922 106.36 179.43 108.135 180.585 108.406Z" fill="#511110"/>
<path d="M64.2415 170.71C64.1821 170.71 64.1241 170.679 64.1121 170.613C60.6754 151.333 65.8931 131.517 78.5848 116.549C78.7001 116.414 78.8314 116.358 78.959 116.358C79.3639 116.358 79.7283 116.926 79.3884 117.353C67.3414 132.471 61.9363 151.369 64.3805 170.576C64.3916 170.662 64.3158 170.71 64.2415 170.71Z" fill="#FFE9D4"/>
<path d="M199.944 170.71C199.87 170.71 199.793 170.661 199.804 170.576C202.248 151.37 196.842 132.469 184.797 117.353C184.457 116.926 184.821 116.358 185.226 116.358C185.354 116.358 185.485 116.414 185.6 116.549C198.29 131.516 203.509 151.332 200.073 170.613C200.061 170.679 200.003 170.71 199.944 170.71Z" fill="#FFE9D4"/>
<path d="M96.4463 146.284C82.0963 145.921 79.3725 163.176 84.2765 170.988C86.7291 174.893 89.7952 177.607 96.4463 177.607C102.884 177.607 106.165 174.893 108.617 170.988C113.521 163.176 110.796 145.921 96.4463 146.284Z" fill="white"/>
<path d="M111.092 156.798C108.134 146.885 96.4429 141.386 87.4447 148.017C80.493 153.141 79.3336 164.272 83.4805 171.453C84.0731 172.477 85.6645 171.552 85.0706 170.523C81.7359 164.75 82.2009 156.084 86.808 151.074C94.1204 143.121 106.486 147.799 109.318 157.288C109.656 158.419 111.432 157.937 111.092 156.798Z" fill="#511110"/>
<path d="M109.261 162.457C109.261 168.654 105.196 173.679 100.183 173.679C95.1683 173.679 91.1035 168.654 91.1035 162.457C91.1035 156.259 95.1683 151.235 100.183 151.235C105.196 151.235 109.261 156.259 109.261 162.457Z" fill="#511110"/>
<path d="M167.738 146.284C182.087 145.921 184.813 163.176 179.908 170.988C177.455 174.893 174.389 177.607 167.738 177.607C161.301 177.607 158.02 174.893 155.567 170.988C150.663 163.176 153.388 145.921 167.738 146.284Z" fill="white"/>
<path d="M154.866 157.289C157.704 147.78 170.071 143.131 177.376 151.074C181.981 156.081 182.447 164.753 179.115 170.523C178.521 171.552 180.111 172.479 180.704 171.453C184.851 164.272 183.69 153.14 176.739 148.018C167.747 141.39 156.049 146.889 153.092 156.799C152.752 157.936 154.527 158.422 154.866 157.289Z" fill="#511110"/>
<path d="M154.925 162.457C154.925 168.654 158.99 173.679 164.003 173.679C169.017 173.679 173.082 168.654 173.082 162.457C173.082 156.259 169.017 151.235 164.003 151.235C158.99 151.235 154.925 156.259 154.925 162.457Z" fill="#511110"/>
<path d="M82.265 187.896C68.4322 184.724 72.8558 175.265 82.265 177.514C95.2912 180.629 93.5845 190.491 82.265 187.896Z" fill="#FF8285"/>
<path d="M181.919 187.896C195.753 184.724 191.328 175.265 181.919 177.514C168.893 180.629 170.6 190.491 181.919 187.896Z" fill="#FF8285"/>
<path d="M90.1374 144.552C92.5667 143.512 95.8892 142.778 99.7368 144.161C102.489 145.15 104.015 142.945 101.998 141.367C99.6742 139.549 93.8476 138.493 89.7755 140.494C85.7021 142.493 85.9806 143.858 86.307 144.636C86.6333 145.412 87.8541 145.53 90.1374 144.552Z" fill="#511110"/>
<path d="M174.048 144.552C171.62 143.512 168.298 142.778 164.449 144.161C161.696 145.15 160.171 142.945 162.188 141.367C164.512 139.549 170.338 138.493 174.41 140.494C178.484 142.493 178.204 143.858 177.879 144.636C177.554 145.412 176.332 145.53 174.048 144.552Z" fill="#511110"/>
<path d="M131.171 178.564C131.171 182.262 131.171 185.958 131.171 189.655C131.171 190.84 133.011 190.841 133.011 189.655C133.011 185.958 133.011 182.262 133.011 178.564C133.011 177.382 131.171 177.379 131.171 178.564Z" fill="#511110"/>
<path d="M110.863 184.279C113.801 184.269 113.171 185.607 114.041 187.877C114.762 189.761 115.908 191.468 117.611 192.598C122.386 195.768 128.813 193.949 132.743 190.305C133.612 189.498 132.309 188.199 131.441 189.004C126.009 194.041 117.436 193.396 115.318 185.81C114.585 183.183 113.949 182.428 110.863 182.438C109.678 182.442 109.677 184.282 110.863 184.279Z" fill="#511110"/>
<path d="M153.321 182.438C150.222 182.428 149.601 183.17 148.865 185.809C146.756 193.371 138.164 194.031 132.743 189.003C131.876 188.198 130.571 189.498 131.441 190.305C135.371 193.949 141.798 195.766 146.573 192.598C148.164 191.542 149.295 189.961 150.016 188.212C150.974 185.883 150.263 184.268 153.321 184.278C154.505 184.282 154.507 182.442 153.321 182.438Z" fill="#511110"/>
<path d="M142.389 167.354C138.891 162.497 125.292 162.497 121.796 167.354C118.299 172.21 123.933 180.371 132.092 179.982C140.252 180.371 145.886 172.21 142.389 167.354Z" fill="#511110"/>
<path d="M123.211 170.386C123.131 170.386 123.057 170.304 123.103 170.205C124.609 167.004 128.323 165.741 132.175 165.741C135.506 165.741 138.94 166.688 141.129 168.147C141.63 168.48 141.332 169.198 140.849 169.198C140.759 169.198 140.661 169.172 140.562 169.115C138.426 167.873 135.023 166.997 131.717 166.997C128.321 166.997 125.027 167.922 123.315 170.328C123.286 170.369 123.248 170.386 123.211 170.386Z" fill="#821B1A"/>
<path d="M113.351 175.761C116.8 168.535 123.713 160.546 132.317 160.435C140.957 160.324 147.634 168.475 150.83 175.761C151.305 176.843 152.891 175.907 152.419 174.831C148.953 166.931 141.622 158.494 132.317 158.595C123.038 158.695 115.498 167.005 111.763 174.831C111.253 175.894 112.84 176.829 113.351 175.761Z" fill="#511110"/>
</g>
</svg>
