<svg width="263" height="263" viewBox="0 0 263 263" fill="none" xmlns="http://www.w3.org/2000/svg">
<circle cx="131.5" cy="131.5" r="131.5" fill="#99CDFF"/>
<mask id="mask0_346_12598" style="mask-type:alpha" maskUnits="userSpaceOnUse" x="0" y="0" width="263" height="263">
<circle cx="131.5" cy="131.5" r="131.5" fill="#D9D9D9"/>
</mask>
<g mask="url(#mask0_346_12598)">
<path d="M215.219 70.1306C155.202 -4.38803 55.1725 46.488 38.3659 86.2946C16.3232 138.503 37.9659 156.796 43.1472 171.711C53.5886 201.764 20.5846 200.064 35.1112 219.271C49.6379 238.477 77.5912 255.468 112.143 257.008C254.907 263.372 257.702 165.029 234.653 153.609C208.563 140.684 249.935 113.235 215.219 70.1306Z" fill="#B8DCFF"/>
<path d="M234.652 147.582C227.995 145.23 233.25 111.903 241.282 118.676C249.314 125.448 249.815 152.939 234.652 147.582Z" fill="#B8DCFF"/>
<path d="M242.726 153.63C241.385 151.468 247.199 144.982 249.435 149.474C251.671 153.966 245.166 157.563 242.726 153.63Z" fill="#B8DCFF"/>
<path d="M15.9033 188.48C10.1406 174.632 33.582 171.099 40.1113 181.207C46.642 191.314 22.4406 204.194 15.9033 188.48Z" fill="#B8DCFF"/>
<path d="M22.5082 170.561C13.2416 164.28 20.5029 153.199 29.9682 161.479C39.4322 169.76 31.7762 176.844 22.5082 170.561Z" fill="#B8DCFF"/>
<path d="M121.174 226.13C121.867 227.135 122.98 228.159 124.572 229.098C135.027 235.269 142.446 229.098 131.787 222.867C129.855 221.738 128.11 221.062 126.593 220.737C124.615 222.469 122.81 224.291 121.174 226.13Z" fill="#B694DD"/>
<path d="M140.002 235.889C145.33 236.393 144.622 232.761 139.853 232.19C135.449 231.662 133.573 235.282 140.002 235.889Z" fill="#B694DD"/>
<path d="M128.945 237.945C134.355 238.045 136.161 234.412 129.647 233.959C123.132 233.504 121.993 237.816 128.945 237.945Z" fill="#B694DD"/>
<path d="M161.572 207.95H103.323C74.1991 210.63 60.7031 243.488 60.7031 243.488C83.5498 263.795 132.448 263.372 132.448 263.372C132.448 263.372 181.347 263.795 204.192 243.488C204.192 243.488 190.698 210.63 161.572 207.95Z" fill="#CFB8E5"/>
<path d="M156.297 215.476C140.726 217.111 145.113 230.788 161.715 229.154C178.318 227.519 171.025 213.931 156.297 215.476Z" fill="#B694DD"/>
<path d="M164.125 233.629C156.755 234.277 158.533 241.886 166.362 241.026C174.19 240.166 174.877 232.682 164.125 233.629Z" fill="#B694DD"/>
<path d="M177.459 232.682C171.49 232.092 171.179 228.122 177.459 228.896C183.739 229.671 184.426 233.37 177.459 232.682Z" fill="#B694DD"/>
<mask id="mask1_346_12598" style="mask-type:luminance" maskUnits="userSpaceOnUse" x="80" y="214" width="105" height="17">
<path d="M132.494 230.592C132.494 230.592 103.638 230.117 80.8301 218.429C82.8461 216.836 84.9007 215.488 86.9994 214.353C101.495 220.326 116.983 223.314 132.469 223.314C137.219 223.314 141.969 223.033 146.691 222.47C146.951 224.818 149.099 227.14 152.835 228.376C141.206 230.448 132.494 230.592 132.494 230.592ZM171.165 223.792C171.509 221.781 170.282 219.6 167.917 217.958C171.335 216.898 174.713 215.681 178.038 214.305C178.694 214.677 179.35 215.074 180.009 215.5C181.397 216.396 182.758 217.377 184.083 218.429C179.909 220.572 175.53 222.337 171.165 223.792Z" fill="white"/>
</mask>
<g mask="url(#mask1_346_12598)">
<path d="M80.8301 230.592H184.083V214.305H80.8301V230.592Z" fill="#BB9ED9"/>
</g>
<path d="M152.835 228.376C149.099 227.14 146.951 224.819 146.691 222.471C153.866 221.616 160.974 220.113 167.917 217.959C170.282 219.6 171.509 221.781 171.165 223.792C164.809 225.911 158.479 227.371 152.835 228.376Z" fill="#A57FD1"/>
<path d="M205.156 243.222C201.271 233.894 194.799 225.059 187.203 218.447C177.736 210.204 167.068 206.95 154.822 206.95C141.2 206.95 127.579 206.95 113.958 206.95C102.206 206.95 92.0631 207.891 81.9831 215.051C72.3417 221.902 64.2964 232.282 59.7404 243.222C59.2457 244.408 61.1804 244.927 61.6684 243.754C65.2751 235.092 71.8177 226.206 79.1071 219.86C88.8964 211.34 99.5257 208.95 111.934 208.95C124.211 208.95 136.49 208.95 148.767 208.95C160.14 208.95 169.887 208.964 180.01 215.5C190.094 222.012 198.736 232.967 203.228 243.754C203.715 244.924 205.651 244.411 205.156 243.222Z" fill="#42295C"/>
<path d="M104.832 72.7881C105.733 74.5014 106.893 76.0294 108.281 77.3814C109.496 78.5668 111.009 80.0841 112.665 80.5948C113.196 80.7574 113.56 80.0668 113.193 79.6881C111.959 78.4174 110.213 77.6081 108.865 76.4334C107.505 75.2494 106.236 73.9694 104.995 72.6614L104.832 72.7881Z" fill="#42295C"/>
<path d="M105.119 63.9283C107.296 69.5776 111.726 75.9469 117.122 78.9443C117.748 79.2923 118.407 78.4669 117.891 77.9469C115.762 75.7936 113.319 74.0082 111.256 71.7549C109.019 69.3082 107.098 66.6136 105.232 63.8816L105.119 63.9283Z" fill="#42295C"/>
<path d="M114.202 69.2834C115.062 71.3007 116.558 73.0381 118.065 74.6061C119.374 75.9701 121.073 77.8047 122.916 78.4061C123.44 78.5767 123.71 77.9127 123.412 77.5527C122.136 76.0194 120.133 74.9754 118.66 73.5914C117.16 72.1807 115.9 70.5447 114.432 69.1061C114.306 68.9821 114.142 69.1381 114.202 69.2834Z" fill="#42295C"/>
<path d="M120.705 66.2152C121.09 69.9646 122.446 75.2339 125.735 77.5259C126.102 77.7832 126.442 77.3006 126.291 76.9699C125.507 75.2539 124.143 73.8192 123.298 72.1006C122.365 70.2019 121.69 68.2086 121.257 66.1406C121.194 65.8352 120.673 65.8979 120.705 66.2152Z" fill="#42295C"/>
<path d="M127.01 67.4411C126.231 70.4118 126.003 75.3465 128.039 77.8785C128.349 78.2625 128.826 77.8251 128.771 77.4518C128.483 75.5184 127.819 73.7358 127.683 71.7411C127.583 70.2851 127.562 68.8571 127.191 67.4411H127.01Z" fill="#42295C"/>
<path d="M132.223 64.9854C131.942 67.1827 131.596 69.3627 131.07 71.5147C130.611 73.3867 129.702 75.2361 129.432 77.1267C129.354 77.6841 130.002 77.9907 130.347 77.5121C132.672 74.2774 132.982 68.8294 132.702 64.9854C132.679 64.6707 132.262 64.6841 132.223 64.9854Z" fill="#42295C"/>
<path d="M137.28 61.032C136.709 63.6947 136.088 66.3386 135.226 68.9253C134.362 71.5186 132.933 73.856 132.054 76.4253C131.902 76.8706 132.544 77.2493 132.856 76.8906C136.369 72.8466 137.798 66.3279 137.792 61.1013C137.792 60.8146 137.344 60.7387 137.28 61.032Z" fill="#42295C"/>
<path d="M143.168 66.6218C142.044 68.5845 140.844 70.4431 139.364 72.1618C137.998 73.7511 136.326 74.9751 134.878 76.4711C134.536 76.8245 134.966 77.3271 135.383 77.1258C139.243 75.2685 142.236 70.7391 143.568 66.7911C143.648 66.5538 143.291 66.4085 143.168 66.6218Z" fill="#42295C"/>
<path d="M153.237 68.5896C149.107 71.9722 144.579 74.3589 140.045 77.1029C139.537 77.4096 139.865 78.3029 140.463 78.0936C145.473 76.3349 149.947 72.7256 153.635 68.9869C153.893 68.7242 153.512 68.3642 153.237 68.5896Z" fill="#42295C"/>
<path d="M145.059 69.9778C143.128 72.7218 140.695 74.7311 137.963 76.6365C137.537 76.9338 137.907 77.5911 138.372 77.3391C141.355 75.7271 143.733 73.0911 145.528 70.2511C145.716 69.9525 145.256 69.6965 145.059 69.9778Z" fill="#42295C"/>
<path d="M202.122 149.473C198.755 129.509 197.079 105.885 177.709 91.0678C173.442 87.8025 168.998 85.0678 164.398 82.8492C167.635 80.4052 168.122 77.2585 168.122 77.2585C165.17 78.6598 160.355 79.3171 160.355 79.3171C164.705 74.5451 165.637 70.1132 165.637 70.1132C162.686 73.5345 154.453 76.5518 154.453 76.5518C155.67 74.5358 155.777 71.7492 155.777 71.7492C152.725 74.3945 148.661 76.0945 146.283 76.9358C141.777 76.1038 137.162 75.6758 132.447 75.6785C123.867 75.6732 115.618 77.0571 107.769 79.8305C104.823 78.7358 102.269 76.0718 102.269 76.0718C101.595 78.4332 102.269 80.5398 102.269 80.5398C95.9472 78.0958 93.7553 71.3518 93.7553 71.3518C93.1659 78.3478 96.4526 83.6585 96.4526 83.6585C93.5806 83.8945 91.0579 82.7025 91.0579 82.7025C91.9406 84.6158 93.0699 85.7385 94.0126 86.3985C91.6926 87.8158 89.4126 89.3625 87.1846 91.0678C67.8153 105.885 66.1392 129.509 62.7726 149.473C50.9912 165.824 52.8512 178.924 57.8352 188.893C74.2099 221.642 132.493 222.592 132.493 222.592C132.493 222.592 190.683 221.642 207.058 188.893C212.043 178.924 213.902 165.824 202.122 149.473Z" fill="#CFB8E5"/>
<path d="M131.808 221.577C103.373 221.578 56.5413 208.95 55 174.946C55.688 177.605 56.676 180.094 57.836 182.413C74.2107 215.162 132.493 216.112 132.493 216.112C132.493 216.112 190.684 215.162 207.059 182.413C208.024 180.484 208.871 178.436 209.524 176.27C209.14 181.598 207.412 186.93 204.067 192.12C198.201 201.22 188.835 207.43 179.071 211.71C165.043 217.86 148.724 221.306 133.377 221.565C132.861 221.573 132.337 221.577 131.808 221.577Z" fill="#BB9ED9"/>
<path d="M60.7957 162.861L60.709 162.825C62.5837 158.051 65.6037 153.817 67.197 148.932C68.8183 143.949 69.205 138.7 69.7543 133.523C70.513 126.328 71.2743 118.792 75.9103 112.948C75.9863 112.851 76.0796 112.811 76.1716 112.811C76.4383 112.811 76.6997 113.152 76.5477 113.44C72.0957 121.917 71.6623 130.363 70.4197 139.651C69.165 149.037 65.229 154.756 60.7957 162.861Z" fill="#E7DCF2"/>
<path d="M121.067 81.4133C115.478 80.8306 112.807 83.9959 119.298 84.5866C125.788 85.1759 126.208 81.9493 121.067 81.4133Z" fill="#B694DD"/>
<path d="M124.574 86.1962C120.049 87.2229 120.611 91.0083 124.995 89.9123C129.378 88.8163 127.945 85.4309 124.574 86.1962Z" fill="#B694DD"/>
<path d="M133.543 85.4655C126.725 84.1962 126.379 78.3322 135.144 80.0029C143.912 81.6735 150.74 88.6695 133.543 85.4655Z" fill="#B694DD"/>
<path d="M128.274 92.2247C122.697 91.3953 120.184 95.5967 127.938 97.282C135.694 98.9687 138.476 93.742 128.274 92.2247Z" fill="#B694DD"/>
<path d="M141.295 93.5193C136.489 93.8567 135.645 97.9354 141.884 97.3714C148.123 96.8074 146.099 93.182 141.295 93.5193Z" fill="#B694DD"/>
<path d="M135.731 91.5745C130.159 90.5718 131.347 86.2305 137.08 87.8318C142.811 89.4332 142.475 92.7892 135.731 91.5745Z" fill="#B694DD"/>
<path d="M81.3313 199.843C75.3299 196.8 78.4886 192.934 83.6153 195.806C88.7419 198.678 86.3873 202.406 81.3313 199.843Z" fill="#B694DD"/>
<path d="M68.818 192.503C60.3126 186.795 61.3633 179.455 70.6833 185.629C80.0033 191.804 75.05 196.685 68.818 192.503Z" fill="#B694DD"/>
<path d="M81.3313 191.687C76.3659 189.671 78.1352 186.659 82.2726 188.765C86.4112 190.872 85.9206 193.551 81.3313 191.687Z" fill="#B694DD"/>
<path d="M93.7097 136.054C78.1164 135.659 75.1537 154.411 80.4844 162.9C83.1484 167.144 86.4817 170.094 93.7097 170.094C100.706 170.094 104.271 167.144 106.936 162.9C112.266 154.411 109.306 135.659 93.7097 136.054Z" fill="white"/>
<path d="M109.628 147.48C106.414 136.707 93.7069 130.731 83.9283 137.937C76.3736 143.505 75.1136 155.601 79.6216 163.405C80.2642 164.519 81.9936 163.513 81.3482 162.395C77.7242 156.121 78.2309 146.704 83.2362 141.259C91.1829 132.616 104.623 137.7 107.699 148.012C108.066 149.241 109.996 148.717 109.628 147.48Z" fill="#42295C"/>
<path d="M107.636 153.63C107.636 160.364 103.219 165.824 97.7696 165.824C92.3203 165.824 87.9043 160.364 87.9043 153.63C87.9043 146.894 92.3203 141.434 97.7696 141.434C103.219 141.434 107.636 146.894 107.636 153.63Z" fill="#42295C"/>
<path d="M171.185 136.054C186.779 135.659 189.741 154.411 184.411 162.9C181.746 167.144 178.414 170.094 171.185 170.094C164.19 170.094 160.625 167.144 157.959 162.9C152.629 154.411 155.59 135.659 171.185 136.054Z" fill="white"/>
<path d="M157.196 148.013C160.279 137.679 173.72 132.627 181.658 141.259C186.662 146.701 187.168 156.125 183.547 162.395C182.902 163.513 184.63 164.521 185.274 163.406C189.78 155.602 188.52 143.505 180.967 137.938C171.194 130.735 158.48 136.711 155.267 147.481C154.899 148.717 156.828 149.245 157.196 148.013Z" fill="#42295C"/>
<path d="M157.26 153.63C157.26 160.364 161.677 165.824 167.126 165.824C172.574 165.824 176.992 160.364 176.992 153.63C176.992 146.894 172.574 141.434 167.126 141.434C161.677 141.434 157.26 146.894 157.26 153.63Z" fill="#42295C"/>
<path d="M78.299 181.275C63.2644 177.828 68.0737 167.548 78.299 169.992C92.4537 173.377 90.599 184.095 78.299 181.275Z" fill="#FFB6C3"/>
<path d="M186.595 181.275C201.629 177.828 196.821 167.548 186.595 169.992C172.439 173.377 174.295 184.095 186.595 181.275Z" fill="#FFB6C3"/>
<path d="M86.8533 131.505C89.4933 130.375 93.1027 129.577 97.2853 131.08C100.277 132.156 101.935 129.759 99.7427 128.044C97.2187 126.068 90.8867 124.92 86.46 127.095C82.0333 129.268 82.3373 130.751 82.692 131.596C83.044 132.44 84.372 132.568 86.8533 131.505Z" fill="#42295C"/>
<path d="M178.041 131.505C175.402 130.375 171.792 129.577 167.609 131.08C164.618 132.156 162.961 129.759 165.152 128.044C167.677 126.068 174.009 124.92 178.434 127.095C182.862 129.268 182.558 130.751 182.204 131.596C181.85 132.44 180.524 132.568 178.041 131.505Z" fill="#42295C"/>
<path d="M113.205 167.695C116.858 161.564 120.216 165.452 124.426 165.884C125.869 166.033 127.25 165.419 128.745 165.173C132.365 164.579 135.798 166.197 139.141 165.908C143.888 165.497 147.517 162.115 151.782 167.695C152.554 168.704 154.292 167.709 153.51 166.685C151.428 163.963 149.029 161.795 145.472 161.936C143.024 162.033 140.985 163.696 138.684 163.945C136.212 164.213 133 162.711 130.184 162.936C128.517 163.069 126.537 164.049 124.969 163.973C122.908 163.875 120.809 162.185 118.637 162.019C115.181 161.756 113.176 163.837 111.478 166.685C110.817 167.795 112.546 168.8 113.205 167.695Z" fill="#42295C"/>
<path d="M122.521 168.566C122.521 168.566 114.817 169.942 115.368 173.931C115.919 177.921 121.231 172.555 122.521 168.566Z" fill="#42295C"/>
<path d="M142.699 168.566C142.699 168.566 150.403 169.942 149.853 173.931C149.303 177.921 143.99 172.555 142.699 168.566Z" fill="#42295C"/>
<path d="M104.248 200.817C104.248 200.817 103.218 206.419 104.15 207.584C105.084 208.748 112.553 209.985 113.952 208.82C115.35 207.655 115.638 199.536 115.638 199.536C115.638 199.536 109.326 201.629 104.248 200.817Z" fill="white"/>
<path d="M160.741 200.817C160.741 200.817 161.769 206.419 160.837 207.584C159.905 208.748 152.434 209.985 151.036 208.82C149.638 207.655 149.352 199.536 149.352 199.536C149.352 199.536 155.661 201.629 160.741 200.817Z" fill="white"/>
<path d="M94.7683 172.165C89.0496 179.404 85.6083 191.217 93.6696 198.1C97.1083 201.037 101.787 201.833 106.178 201.816C109.416 201.804 112.68 201.307 115.846 200.651C121.268 199.528 127.039 196.341 132.495 196.341C137.95 196.341 143.72 199.528 149.143 200.651C152.314 201.308 155.568 201.804 158.811 201.816C163.074 201.832 167.567 201.091 170.982 198.363C179.439 191.608 176.026 179.512 170.22 172.165C169.423 171.156 168.018 172.579 168.807 173.579C174.763 181.12 177.222 194.396 166.448 198.656C161.779 200.503 156.232 199.901 151.426 199.064C148.199 198.503 145.015 197.64 141.884 196.685C139.2 195.867 135.291 193.468 132.495 193.468C129.698 193.468 125.854 195.844 123.104 196.685C119.972 197.644 116.791 198.495 113.563 199.064C108.876 199.892 103.608 200.425 99.0136 198.816C87.7977 194.887 90.1057 181.272 96.183 173.579C96.9723 172.58 95.5656 171.156 94.7683 172.165Z" fill="#42295C"/>
<path d="M119.202 154.594C127.763 152.288 137.223 152.718 145.784 154.594C147.038 154.868 147.575 152.94 146.315 152.666C137.367 150.706 127.604 150.259 118.671 152.666C117.43 152.999 117.956 154.93 119.202 154.594Z" fill="#42295C"/>
<path d="M125.628 149.035C130.204 148.507 134.774 148.467 139.362 148.898C140.642 149.018 140.634 147.018 139.362 146.898C134.774 146.467 130.204 146.507 125.628 147.035C124.366 147.18 124.351 149.183 125.628 149.035Z" fill="#42295C"/>
<path d="M128.608 144.285C131.199 144.09 133.786 144.046 136.38 144.151C137.667 144.203 137.664 142.203 136.38 142.151C133.786 142.046 131.199 142.09 128.608 142.285C127.334 142.381 127.323 144.382 128.608 144.285Z" fill="#42295C"/>
<path d="M203.086 149.208C200.608 134.254 199.035 118.503 191.295 105.13C187.53 98.6283 182.454 93.2296 176.374 88.8376C174.478 87.4669 166.876 84.4336 166.504 82.2936C166.444 81.9483 168.918 78.3309 169.086 77.5243C169.224 76.8589 168.62 75.9896 167.856 76.295C165.342 77.299 162.766 77.9549 160.088 78.3536C160.414 78.9109 160.738 79.4683 161.062 80.0256C163.44 77.1789 165.708 74.0496 166.6 70.379C166.834 69.4216 165.651 68.6883 164.928 69.407C162.003 72.3176 158.018 74.1496 154.186 75.5883C154.563 76.0776 154.939 76.5669 155.315 77.0576C156.102 75.3109 156.63 73.6736 156.776 71.7496C156.851 70.783 155.679 70.567 155.07 71.043C150.499 74.6016 147.424 75.643 141.742 75.2403C136.664 74.8816 131.754 74.519 126.651 74.9003C122.766 75.1883 118.912 75.7643 115.118 76.6496C110.024 77.839 107.139 79.4803 102.975 75.3656C102.496 74.8909 101.411 75.0296 101.304 75.807C101.068 77.5523 100.898 79.083 101.304 80.8056C101.795 80.4296 102.284 80.0536 102.774 79.6776C99.0564 77.9243 96.0991 75.0149 94.7191 71.0856C94.3524 70.0403 92.7884 70.1856 92.7551 71.3523C92.6324 75.7909 93.3164 80.2723 95.5884 84.1643C95.8764 83.6616 96.1644 83.1603 96.4524 82.659C94.4484 82.6109 93.0298 82.4483 91.3231 81.739C90.4751 81.387 89.8004 82.5176 90.1951 83.2083L92.3164 86.2803C92.1911 86.9376 88.9684 88.5149 88.3604 88.9549C85.2778 91.1843 82.3951 93.6563 79.8524 96.4909C75.3351 101.523 71.9751 107.434 69.5391 113.724C66.7684 120.886 65.2071 128.443 63.9311 135.991C63.3017 139.716 63.1644 143.878 62.0924 147.488C60.7458 152.026 57.3124 155.932 55.5684 160.378C45.9951 184.762 65.1297 205.175 86.2777 214.054C115.64 226.38 149.148 226.406 178.523 214.104C189.834 209.367 200.695 202.164 206.899 191.296C215.054 177.007 212.019 162.05 202.984 148.968C202.258 147.916 200.524 148.915 201.258 149.979C210.364 163.167 213.064 178.159 204.066 192.12C198.2 201.22 188.834 207.431 179.07 211.711C165.042 217.86 148.723 221.307 133.376 221.566C104.904 222.046 55.7844 209.382 54.9711 174.104C54.8737 169.932 55.6831 165.784 57.1151 161.875C58.7391 157.44 61.9924 153.975 63.7364 149.739C66.2591 143.61 65.9791 134.958 67.3844 128.416C71.1644 110.807 79.0124 96.9989 94.5177 87.2616C95.0204 86.9469 95.2351 86.1216 94.7191 85.6909C93.4764 84.8069 92.5444 83.6429 91.9204 82.1989C91.5444 82.6883 91.1684 83.1776 90.7924 83.6669C92.6991 84.4616 94.4231 84.6096 96.4524 84.659C97.2164 84.6776 97.6924 83.7976 97.3164 83.1536C95.2244 79.5709 94.6404 75.4443 94.7551 71.3523C94.1004 71.4403 93.4458 71.5296 92.7911 71.6176C94.3404 76.0296 97.5684 79.427 101.764 81.4043C102.547 81.7723 103.444 81.1656 103.234 80.275C103.234 78.9616 103.234 77.6496 103.234 76.339C102.676 76.4856 102.119 76.6323 101.562 76.7803C103.11 78.3096 105.692 80.671 107.902 80.8136C110.055 80.9523 113.474 79.087 115.648 78.579C119.64 77.6483 123.708 77.0643 127.8 76.8136C130.9 76.6243 134.03 76.6256 137.128 76.8189C139.964 76.9963 143.535 78.3296 146.283 77.9363C149.894 77.4203 153.692 74.6296 156.483 72.4563C155.915 72.2203 155.346 71.9856 154.776 71.7496C154.691 73.2536 154.294 74.687 153.587 76.0483C153.272 76.7496 153.812 77.8563 154.718 77.5163C158.895 75.9483 163.148 73.9989 166.343 70.8216C165.786 70.4963 165.23 70.1723 164.672 69.8483C163.867 73.155 161.786 76.0523 159.647 78.611C158.976 79.4123 159.626 80.431 160.62 80.283C163.3 79.883 165.868 79.2296 168.387 78.2229C167.976 77.8136 167.567 77.4029 167.158 76.9936C166.704 79.1576 165.264 80.7216 163.691 82.1416C163.232 82.555 163.332 83.4323 163.892 83.7123C177.68 90.6163 188.283 100.512 193.747 115.122C197.899 126.226 199.232 138.115 201.156 149.739C201.366 151.007 203.295 150.468 203.086 149.208Z" fill="#42295C"/>
<path d="M88.6125 91.315C88.6125 91.315 81.0965 94.8097 72.8045 87.1203C64.5139 79.431 52.6685 78.4417 49.6419 90.8537C47.4925 99.6643 55.9792 109.764 61.7112 111.239C66.9192 112.579 71.4525 111.268 77.3619 107.83L88.6125 91.315Z" fill="#CFB8E5"/>
<path d="M71.4844 85.9802C67.9844 83.1522 64.011 81.4855 60.3804 81.4215C60.0217 83.3322 61.5764 86.0349 65.2217 87.4149C69.087 88.8776 71.1857 87.7949 71.4844 85.9802Z" fill="#B694DD"/>
<path d="M72.7426 89.994C70.2706 88.9193 68.3906 92.05 72.7426 92.5727C75.4279 92.8954 75.2132 91.0687 72.7426 89.994Z" fill="#B694DD"/>
<path d="M87.1976 90.1577C78.9443 94.4844 71.7776 83.0897 64.2869 81.0284C58.4189 79.4137 52.6923 81.415 49.9376 87.0204C46.6229 93.767 48.9923 101.223 53.6603 106.671C59.4896 113.475 66.8976 113.796 74.7696 110.352C75.9469 109.839 74.9296 108.115 73.7603 108.627C63.2883 113.208 52.4403 107.779 50.6083 96.0724C48.9909 85.7337 57.9509 79.6537 66.9976 84.2284C73.5576 87.5444 79.7989 96.2924 88.2069 91.8844C89.3469 91.287 88.3376 89.5604 87.1976 90.1577Z" fill="#42295C"/>
<path d="M80.5861 99.2351C80.5861 99.2351 74.9981 99.3417 69.7341 94.5071C64.4687 89.6711 60.1714 85.4817 56.0874 89.6711C52.0047 93.8617 57.1621 112.235 75.2127 106.97L80.5861 99.2351Z" fill="#FFB6C3"/>
<path d="M66.3008 110.247C58.6102 110.247 52.0035 104.975 50.6102 96.0724C49.8048 90.9217 51.6248 86.8271 54.7728 84.5817C54.8888 86.2537 55.1275 88.2231 55.5875 90.3311C53.0928 94.5084 56.2088 106.114 66.6208 107.724C67.7248 108.479 68.9288 109.174 70.2435 109.794C68.9115 110.099 67.5915 110.247 66.3008 110.247Z" fill="#BB9ED9"/>
<path d="M65.6139 111.748C64.3339 111.748 63.0445 111.581 61.7112 111.239C55.9792 109.764 47.4925 99.664 49.6419 90.8534C50.5872 86.9707 52.3979 84.4 54.6912 82.936C54.7045 83.4427 54.7312 83.9934 54.7712 84.5814C51.6232 86.8267 49.8032 90.9214 50.6085 96.072C52.0019 104.975 58.6085 110.247 66.2992 110.247C67.5899 110.247 68.9099 110.099 70.2419 109.793C70.7699 110.043 71.3139 110.279 71.8765 110.503C69.7205 111.316 67.6792 111.748 65.6139 111.748Z" fill="#3C2357"/>
<path d="M66.6191 107.725C56.2071 106.114 53.0911 94.5086 55.5857 90.3313C56.8631 96.1766 59.8417 103.089 66.6191 107.725Z" fill="#E79CB9"/>
<path d="M80.5868 98.2345C76.4055 98.2091 72.7721 95.7678 69.7361 93.1505C67.1415 90.9131 64.2682 87.5625 60.6642 87.0518C56.2242 86.4251 53.6921 90.2651 53.7775 94.2225C54.0321 105.853 65.5241 110.564 75.4788 107.933C76.7228 107.605 76.1961 105.676 74.9481 106.005C66.2668 108.297 55.2268 104.198 55.7775 93.5851C55.9521 90.1971 57.8321 87.9945 62.5801 89.9025C65.6215 91.1251 67.9788 94.5412 70.5495 96.4785C73.3615 98.5985 77.0042 100.212 80.5868 100.234C81.8735 100.241 81.8748 98.2411 80.5868 98.2345Z" fill="#42295C"/>
<path d="M62.9919 95.4615C67.3639 99.0548 72.6425 101.588 78.3292 102.111C79.0119 102.173 79.1772 101.016 78.4919 100.904C72.9519 99.9935 67.9679 98.2828 63.3959 94.9375C63.0932 94.7148 62.6985 95.2201 62.9919 95.4615Z" fill="#42295C"/>
<path d="M68.9617 102.142C71.4857 103.462 74.307 104.17 77.1496 104.299C77.951 104.336 77.9563 103.064 77.1496 103.05C74.375 103 71.7923 102.527 69.1537 101.684C68.8857 101.599 68.7097 102.01 68.9617 102.142Z" fill="#42295C"/>
<path d="M176.281 91.315C176.281 91.315 183.797 94.8097 192.088 87.1203C200.38 79.431 212.227 78.4417 215.255 90.8537C217.403 99.6643 208.915 109.764 203.184 111.239C197.975 112.579 193.441 111.268 187.532 107.83L176.281 91.315Z" fill="#CFB8E5"/>
<path d="M193.412 85.9802C196.911 83.1522 200.884 81.4855 204.516 81.4215C204.873 83.3322 203.32 86.0349 199.673 87.4149C195.809 88.8776 193.711 87.7949 193.412 85.9802Z" fill="#B694DD"/>
<path d="M192.151 89.994C194.623 88.9193 196.503 92.05 192.151 92.5727C189.466 92.8954 189.68 91.0687 192.151 89.994Z" fill="#B694DD"/>
<path d="M176.687 91.8839C185.102 96.2959 191.341 87.5466 197.895 84.2279C206.075 80.0853 215.007 84.5599 214.577 94.4226C214.369 99.1919 211.441 103.96 208.013 107.124C203.049 111.704 197.091 111.233 191.133 108.627C189.965 108.115 188.946 109.837 190.123 110.352C197.649 113.645 204.807 113.592 210.639 107.317C215.702 101.868 218.405 94.0372 214.957 87.0199C212.351 81.7186 206.978 79.5133 201.305 80.8306C193.503 82.6439 186.074 94.5492 177.697 90.1572C176.557 89.5599 175.545 91.2852 176.687 91.8839Z" fill="#42295C"/>
<path d="M184.309 99.2351C184.309 99.2351 189.895 99.3417 195.161 94.5071C200.425 89.6711 204.723 85.4817 208.806 89.6711C212.889 93.8617 207.731 112.235 189.681 106.97L184.309 99.2351Z" fill="#FFB6C3"/>
<path d="M199.319 110.584C197.746 110.584 196.136 110.323 194.514 109.859C195.882 109.223 197.132 108.505 198.275 107.724C208.686 106.113 211.802 94.508 209.307 90.3307C209.775 88.1853 210.015 86.1813 210.128 84.4893C212.955 86.4213 214.776 89.8413 214.576 94.4227C214.368 99.192 211.44 103.96 208.012 107.124C205.35 109.58 202.4 110.584 199.319 110.584Z" fill="#BB9ED9"/>
<path d="M199.28 111.748C197.215 111.748 195.174 111.316 193.018 110.503C193.532 110.299 194.03 110.084 194.515 109.859C196.138 110.323 197.747 110.584 199.32 110.584C202.402 110.584 205.351 109.58 208.014 107.124C211.442 103.96 214.37 99.192 214.578 94.4227C214.778 89.8414 212.956 86.4214 210.13 84.4894C210.166 83.936 210.19 83.416 210.203 82.936C212.498 84.4 214.307 86.9707 215.255 90.8534C217.403 99.664 208.915 109.764 203.184 111.239C201.851 111.581 200.562 111.748 199.28 111.748Z" fill="#3C2357"/>
<path d="M198.275 107.725C205.051 103.089 208.031 96.1766 209.307 90.3313C211.802 94.5086 208.686 106.114 198.275 107.725Z" fill="#E79CB9"/>
<path d="M184.31 100.235C187.639 100.214 191 98.8084 193.691 96.9391C196.187 95.2044 199.384 90.5591 202.316 89.9031C204.191 89.4844 207.886 89.6805 208.787 91.5818C209.071 92.1818 209.086 92.9391 209.119 93.5858C209.667 104.206 198.63 108.299 189.947 106.006C188.702 105.678 188.171 107.606 189.416 107.934C199.343 110.556 210.9 105.858 211.118 94.2231C211.188 90.5004 209.034 86.7671 204.816 87.0044C201.248 87.2058 198.392 90.3071 195.866 92.5031C192.58 95.3591 188.895 98.2071 184.31 98.2351C183.023 98.2418 183.02 100.242 184.31 100.235Z" fill="#42295C"/>
<path d="M201.499 94.9375C196.927 98.2828 191.943 99.9935 186.403 100.904C185.726 101.015 185.875 102.173 186.567 102.111C192.251 101.588 197.532 99.0535 201.903 95.4615C202.194 95.2228 201.806 94.7135 201.499 94.9375Z" fill="#42295C"/>
<path d="M195.741 101.684C193.103 102.528 190.52 103 187.747 103.05C186.94 103.064 186.943 104.336 187.747 104.299C190.588 104.17 193.411 103.462 195.933 102.142C196.184 102.011 196.012 101.598 195.741 101.684Z" fill="#42295C"/>
</g>
</svg>
