<svg width="263" height="263" viewBox="0 0 263 263" fill="none" xmlns="http://www.w3.org/2000/svg">
<circle cx="131.5" cy="131.5" r="131.5" fill="#99E2FF"/>
<mask id="mask0_346_12648" style="mask-type:alpha" maskUnits="userSpaceOnUse" x="0" y="0" width="263" height="263">
<circle cx="131.5" cy="131.5" r="131.5" fill="#D9D9D9"/>
</mask>
<g mask="url(#mask0_346_12648)">
<path d="M134.845 253.468C100.152 254.148 59.7366 239.614 42.1361 209.42C24.5343 179.223 17.8931 140.911 42.1361 110.607C66.379 80.3027 104.837 92.7496 103.357 69.4269C101.878 46.103 121.89 35.1108 166.841 49.3604C223.21 67.228 234.665 104.124 236.515 156.245C238.3 206.488 223.21 251.735 134.845 253.468Z" fill="#C4EEFF"/>
<path d="M73.4762 81.7771C82.9037 83.6394 95.0948 84.7901 96.0405 69.6949C96.9862 54.5997 36.8396 74.5359 73.4762 81.7771Z" fill="#C4EEFF"/>
<path d="M84.8763 46.0046C75.9298 46.8199 88.0171 64.0963 94.4849 60.8795C100.954 57.6628 95.6318 45.0222 84.8763 46.0046Z" fill="#C4EEFF"/>
<path d="M159.283 210.461H103.978C76.3254 213.006 63.5127 244.202 63.5127 244.202C85.2022 263.484 131.631 263.081 131.631 263.081C131.631 263.081 178.059 263.484 199.749 244.202C199.749 244.202 186.937 213.006 159.283 210.461Z" fill="#6D6A9C"/>
<path d="M176.465 256.463C175.32 234.248 160.49 216.007 140.968 211.526H122.289C102.765 216.007 87.9387 234.248 86.793 256.463C108.156 263.278 131.629 263.081 131.629 263.081C131.629 263.081 155.101 263.278 176.465 256.463Z" fill="#A7A7C7"/>
<path d="M103.1 221.568C98.2332 220.345 93.1504 218.754 88.2119 216.687C90.7084 215.312 93.2719 214.26 95.9178 213.471C100.274 214.922 104.76 216.069 109.268 216.932C107.091 218.292 105.028 219.845 103.1 221.568ZM160.139 221.551C158.148 219.773 156.014 218.177 153.758 216.788C158.317 215.902 162.852 214.737 167.262 213.27C169.891 214.031 172.499 215.104 175.126 216.616C170.158 218.709 165.041 220.316 160.139 221.551Z" fill="#5A578A"/>
<path d="M131.586 225.628C131.586 225.628 118.401 225.414 103.1 221.568C105.028 219.845 107.091 218.292 109.269 216.932C116.578 218.331 123.949 218.984 130.932 218.984C131.144 218.984 131.354 218.983 131.567 218.982C138.718 218.941 146.269 218.242 153.758 216.788C156.014 218.177 158.148 219.773 160.14 221.55C144.81 225.413 131.586 225.628 131.586 225.628Z" fill="#8A89B0"/>
<path d="M200.664 243.951C196.974 235.094 190.828 226.705 183.618 220.427C174.629 212.601 164.5 209.512 152.872 209.512C139.939 209.512 127.006 209.512 114.073 209.512C102.916 209.512 93.2836 210.404 83.7155 217.204C74.5601 223.708 66.9202 233.564 62.5944 243.951C62.126 245.077 63.9616 245.568 64.4262 244.455C67.8506 236.231 74.0639 227.794 80.9823 221.771C90.2782 213.679 100.37 211.411 112.151 211.411C123.809 211.411 135.466 211.411 147.125 211.411C157.922 211.411 167.175 211.425 176.787 217.63C186.363 223.813 194.566 234.214 198.831 244.455C199.294 245.566 201.134 245.08 200.664 243.951Z" fill="#232345"/>
<path d="M96.3469 222.988C93.453 225.641 90.1425 229.25 89.1525 233.156C89.0373 233.608 89.6222 233.815 89.8754 233.459C91.0008 231.882 91.792 230.076 92.8985 228.473C94.1049 226.725 95.4532 225.097 96.9495 223.589C97.3356 223.198 96.7508 222.618 96.3469 222.988Z" fill="#232345"/>
<path d="M97.9661 217.257C95.1798 219.178 92.8238 221.737 91.1933 224.707C90.911 225.221 91.6288 225.61 91.9605 225.156C93.9113 222.511 96.0621 220.156 98.5295 217.987C98.9206 217.643 98.4029 216.957 97.9661 217.257Z" fill="#232345"/>
<path d="M90.2672 222.174C87.6049 224.397 85.3907 227.439 84.0412 230.627C83.7868 231.227 84.6096 231.762 84.9477 231.156C86.6478 228.102 88.5645 225.399 90.8406 222.747C91.1824 222.35 90.6672 221.84 90.2672 222.174Z" fill="#232345"/>
<path d="M176.237 239.385C176.955 241.026 177.576 242.716 178.108 244.426C178.532 245.79 178.659 247.34 179.396 248.567C179.673 249.03 180.307 248.794 180.354 248.305C180.504 246.704 179.645 244.957 179.049 243.499C178.417 241.953 177.618 240.51 176.732 239.096C176.532 238.776 176.091 239.054 176.237 239.385Z" fill="#232345"/>
<path d="M181.522 242.843C181.975 244.192 182.348 245.557 182.661 246.947C182.945 248.209 183.071 249.521 183.626 250.698C183.94 251.365 184.849 250.963 184.897 250.355C185.106 247.746 183.493 244.771 182.353 242.492C182.124 242.034 181.358 242.351 181.522 242.843Z" fill="#232345"/>
<path d="M181.957 235.806C183.241 238.324 184.366 241.537 186.337 243.59C186.755 244.025 187.511 243.578 187.346 243.004C186.56 240.268 184.342 237.679 182.811 235.307C182.466 234.771 181.669 235.238 181.957 235.806Z" fill="#232345"/>
<path d="M174.516 93.155C165.954 87.1278 155.27 83.3185 144.023 81.7095C147.426 80.4195 150.653 78.7712 149.639 77.4192C147.653 74.7708 135.541 75.0544 135.541 75.0544C135.541 75.0544 139.515 71.7439 137.434 70.3248C135.353 68.9057 127.783 75.4329 127.783 75.4329C127.783 75.4329 123.431 69.4728 121.54 69.4728C119.646 69.4728 120.214 74.8658 120.214 74.8658C120.214 74.8658 111.984 62.567 109.68 64.1748C107.378 65.7838 111.511 77.9876 111.511 77.9876C111.511 77.9876 105.361 75.7165 105.361 77.9876C105.361 79.5182 108.411 81.9918 110.402 83.4439C102.419 85.4871 94.9586 88.7166 88.6542 93.155C53.8253 117.671 50.4174 165.295 60.7881 186.037C76.3352 217.131 131.585 218.032 131.585 218.032C131.585 218.032 186.835 217.131 202.381 186.037C212.752 165.295 209.344 117.671 174.516 93.155Z" fill="#6D6A9C"/>
<path d="M131.052 217.084C110.101 217.084 85.4026 211.148 69.9707 196.492C70.3808 195.46 70.6796 194.366 70.8492 193.218C70.9556 192.498 70.3353 192.024 69.7846 192.024C69.4213 192.024 69.0883 192.232 69.0174 192.712C68.8402 193.921 68.5249 195.037 68.0933 196.065C67.5046 195.417 66.5804 194.384 65.6209 193.242C65.6221 193.241 65.6221 193.241 65.6221 193.241C66.245 192.547 65.6069 191.594 64.9069 191.594C64.7423 191.594 64.5739 191.647 64.4182 191.767C63.8637 191.067 63.3409 190.369 62.9117 189.731C62.7585 189.495 62.6079 189.258 62.4598 189.02C62.4433 188.991 62.4256 188.963 62.4104 188.936C61.8623 188.053 61.3508 187.143 60.8748 186.205C60.8735 186.202 60.8723 186.2 60.8723 186.199C60.8647 186.183 60.8558 186.168 60.8482 186.153V186.152C60.847 186.148 60.8444 186.145 60.8432 186.142C60.8368 186.128 60.8292 186.115 60.8229 186.101C60.8204 186.097 60.8178 186.091 60.8166 186.087C60.8077 186.071 60.7989 186.053 60.79 186.037C60.7824 186.02 60.7748 186.004 60.7659 185.987C60.7634 185.982 60.7596 185.976 60.7571 185.971C60.752 185.961 60.7469 185.949 60.7419 185.939C60.7381 185.931 60.7343 185.925 60.7318 185.918C60.7267 185.909 60.7216 185.9 60.7178 185.891C60.714 185.882 60.7102 185.874 60.7064 185.867C60.7026 185.859 60.6988 185.852 60.695 185.844C60.69 185.835 60.6862 185.825 60.6811 185.816C60.6798 185.812 60.6786 185.811 60.6773 185.807C56.9947 178.299 55.1059 167.347 55.7971 155.276C56.2933 163.567 58.0555 170.915 60.79 176.382C76.3371 207.477 131.587 208.378 131.587 208.378C131.587 208.378 186.837 207.477 202.383 176.382C204.965 171.219 206.682 164.376 207.282 156.649C207.763 168.242 205.844 178.699 202.263 185.928C202.261 185.929 202.261 185.931 202.26 185.933C202.252 185.949 202.244 185.966 202.236 185.982C202.235 185.983 202.233 185.986 202.233 185.987C202.225 186.004 202.217 186.02 202.208 186.037C202.199 186.054 202.19 186.072 202.182 186.09C202.18 186.092 202.179 186.096 202.176 186.099C202.17 186.114 202.163 186.128 202.155 186.143C202.154 186.147 202.151 186.149 202.15 186.153C202.142 186.168 202.135 186.183 202.127 186.199C202.126 186.2 202.125 186.202 202.125 186.204C201.649 187.143 201.136 188.053 200.59 188.937C200.589 188.936 200.589 188.936 200.589 188.936C200.573 188.963 200.556 188.991 200.54 189.02C200.39 189.258 200.24 189.495 200.086 189.731C199.657 190.369 199.134 191.067 198.581 191.767C198.425 191.647 198.257 191.594 198.093 191.594C197.391 191.594 196.753 192.547 197.377 193.241C196.418 194.384 195.494 195.418 194.905 196.067C194.473 195.04 194.159 193.922 193.981 192.712C193.91 192.232 193.577 192.026 193.212 192.026C192.663 192.026 192.044 192.498 192.15 193.218C192.331 194.45 192.66 195.617 193.117 196.714C177.335 211.031 152.55 216.985 131.568 217.083C131.397 217.084 131.224 217.084 131.052 217.084Z" fill="#5A578A"/>
<path d="M94.8047 142.197C79.9994 141.822 77.1864 159.628 82.2477 167.687C84.7783 171.716 87.9432 174.517 94.8047 174.517C101.447 174.517 104.832 171.716 107.363 167.687C112.423 159.628 109.612 141.822 94.8047 142.197Z" fill="white"/>
<path d="M109.919 153.046C106.867 142.817 94.8025 137.144 85.518 143.987C78.3452 149.273 77.1489 160.757 81.4291 168.166C82.0392 169.225 83.6812 168.269 83.0685 167.208C79.6276 161.252 80.1086 152.309 84.8623 147.139C92.4061 138.933 105.166 143.76 108.087 153.552C108.436 154.72 110.269 154.222 109.919 153.046Z" fill="#232345"/>
<path d="M108.028 158.886C108.028 165.28 103.834 170.465 98.6597 170.465C93.4858 170.465 89.293 165.28 89.293 158.886C89.293 152.491 93.4858 147.307 98.6597 147.307C103.834 147.307 108.028 152.491 108.028 158.886Z" fill="#232345"/>
<path d="M168.366 142.197C183.172 141.822 185.984 159.628 180.924 167.687C178.393 171.716 175.23 174.517 168.366 174.517C161.724 174.517 158.339 171.716 155.809 167.687C150.749 159.628 153.56 141.822 168.366 142.197Z" fill="white"/>
<path d="M155.085 153.553C158.012 143.742 170.774 138.945 178.31 147.14C183.061 152.306 183.542 161.255 180.104 167.209C179.491 168.268 181.132 169.227 181.743 168.167C186.022 160.758 184.826 149.273 177.654 143.987C168.376 137.149 156.305 142.822 153.253 153.047C152.904 154.22 154.735 154.723 155.085 153.553Z" fill="#232345"/>
<path d="M155.146 158.886C155.146 165.28 159.338 170.465 164.512 170.465C169.685 170.465 173.879 165.28 173.879 158.886C173.879 152.491 169.685 147.307 164.512 147.307C159.338 147.307 155.146 152.491 155.146 158.886Z" fill="#232345"/>
<path d="M80.1754 185.133C65.9006 181.861 70.4669 172.1 80.1754 174.422C93.6148 177.635 91.8538 187.811 80.1754 185.133Z" fill="#FFB6C3"/>
<path d="M182.999 185.133C197.272 181.861 192.707 172.1 182.999 174.422C169.558 177.635 171.32 187.811 182.999 185.133Z" fill="#FFB6C3"/>
<path d="M88.2947 140.412C90.8012 139.338 94.2282 138.582 98.1995 140.009C101.04 141.029 102.614 138.753 100.533 137.125C98.1362 135.249 92.1242 134.159 87.9212 136.223C83.7195 138.287 84.0069 139.696 84.3436 140.497C84.6791 141.299 85.9387 141.421 88.2947 140.412Z" fill="#232345"/>
<path d="M174.875 140.412C172.37 139.338 168.942 138.582 164.97 140.009C162.131 141.029 160.557 138.753 162.637 137.125C165.035 135.249 171.047 134.159 175.249 136.223C179.453 138.287 179.164 139.696 178.829 140.497C178.492 141.299 177.232 141.421 174.875 140.412Z" fill="#232345"/>
<path d="M130.638 192.966C130.638 195.569 130.638 198.171 130.638 200.774C130.638 201.995 132.537 201.997 132.537 200.774C132.537 198.171 132.537 195.569 132.537 192.966C132.537 191.744 130.638 191.742 130.638 192.966Z" fill="#232345"/>
<path d="M122.28 198.357C127.718 203.521 135.511 202.586 141.224 198.506C142.21 197.802 141.263 196.154 140.267 196.867C135.279 200.427 128.435 201.581 123.622 197.015C122.736 196.174 121.39 197.514 122.28 198.357Z" fill="#232345"/>
<path d="M131.586 154.94C118.943 157.251 115.296 184.889 117.624 190.874C119.952 196.861 143.221 196.861 145.547 190.874C147.875 184.889 144.23 157.251 131.586 154.94Z" fill="#232345"/>
<path d="M120.413 189.68C120.332 179.307 121.914 164.041 132.129 158.499C132.817 158.124 132.211 157.184 131.528 157.473C120.601 162.133 118.647 179.607 120.064 189.729C120.092 189.929 120.415 189.877 120.413 189.68Z" fill="#6D6A9C"/>
<path d="M114.574 75.713C116.753 78.5677 118.567 81.7073 120.777 84.5253C121.095 84.9329 121.633 84.4151 121.444 84.0113C119.961 80.8148 117.338 77.9487 114.853 75.4978C114.715 75.3611 114.448 75.5484 114.574 75.713Z" fill="#232345"/>
<path d="M123.016 76.8489C124.063 79.658 124.897 82.5988 126.271 85.2674C126.573 85.8548 127.395 85.4257 127.282 84.8395C126.714 81.8797 125.185 79.1402 123.612 76.5982C123.426 76.2956 122.882 76.4893 123.016 76.8489Z" fill="#232345"/>
<path d="M114.513 83.1894C117.061 87.2366 119.38 91.2737 121.3 95.6577C121.545 96.2185 122.391 95.8096 122.258 95.2539C121.119 90.523 117.955 86.5644 114.979 82.8298C114.769 82.5652 114.334 82.907 114.513 83.1894Z" fill="#232345"/>
<path d="M123.298 88.0754C123.918 89.9655 124.455 91.8935 124.888 93.8355C125.32 95.7711 125.454 97.8093 126.094 99.6842C126.272 100.201 126.949 100.075 127.009 99.5601C127.459 95.6293 125.57 91.2846 123.787 87.8703C123.649 87.6045 123.204 87.7868 123.298 88.0754Z" fill="#232345"/>
<path d="M132.92 75.3383C131.144 77.7993 129.722 80.6173 129.26 83.6429C129.177 84.1949 129.968 84.4481 130.118 83.8809C130.898 80.9528 131.741 78.1841 133.21 75.5067C133.315 75.3142 133.044 75.1649 132.92 75.3383Z" fill="#232345"/>
<path d="M134.546 83.0469C132.269 85.6801 130.301 88.8652 129.772 92.3593C129.697 92.853 130.328 93.0264 130.515 92.5643C131.816 89.3615 132.971 86.2143 134.856 83.2875C134.976 83.1001 134.694 82.8773 134.546 83.0469Z" fill="#232345"/>
<path d="M144.046 77.888C140.994 79.0299 138.589 81.4947 136.881 84.2153C136.6 84.6609 137.227 85.1179 137.595 84.7672C139.832 82.6316 141.632 80.1883 144.335 78.5755C144.688 78.3653 144.456 77.7349 144.046 77.888Z" fill="#232345"/>
<path d="M140.113 86.1977C137.661 89.436 134.934 93.2262 133.851 97.1937C133.724 97.6685 134.372 97.9229 134.629 97.5216C136.877 94.0225 138.475 90.0854 140.709 86.5458C140.955 86.1597 140.374 85.8521 140.113 86.1977Z" fill="#232345"/>
<path d="M131.138 95.2093C130.3 98.0665 129.608 101.297 129.865 104.289C129.904 104.751 130.645 104.937 130.738 104.408C131.265 101.439 131.383 98.3843 131.806 95.3928C131.865 94.9662 131.266 94.7687 131.138 95.2093Z" fill="#232345"/>
<path d="M174.099 91.7174C165.009 85.8231 154.949 82.462 144.278 80.7935C144.278 81.4049 144.278 82.0151 144.278 82.6253C147.011 81.51 153.43 79.0996 149.215 75.8993C146.034 73.4839 139.292 74.0371 135.543 74.1055C135.767 74.646 135.991 75.1866 136.214 75.7259C137.762 74.37 140.46 71.2913 137.914 69.505C135.561 67.8542 129.583 71.9305 128.33 73.7636C127.333 75.222 127.09 74.0232 128.454 74.7498C127.765 74.3827 126.95 72.8205 126.475 72.2774C125.514 71.1735 123.52 68.4492 121.794 68.5581C118.813 68.7442 119.078 72.6889 119.267 74.8663C119.858 74.7068 120.447 74.5473 121.036 74.3878C119.298 71.8103 113.547 61.7663 109.648 63.1879C105.401 64.7374 109.724 75.6221 110.596 78.2413C110.986 77.8514 111.375 77.4615 111.765 77.0729C110.097 76.4855 106.173 74.9689 104.807 76.8577C102.861 79.5503 108.391 83.1001 109.924 84.2635C109.999 83.6849 110.075 83.1076 110.152 82.5291C102.913 84.4913 96.1871 87.2448 89.8181 91.2237C88.7851 91.8693 89.7371 93.5138 90.7764 92.8631C96.9796 88.988 103.609 86.2713 110.656 84.361C111.517 84.1267 111.499 83.0937 110.882 82.624C109.271 81.9759 108.268 80.8682 107.876 79.3022C106.753 77.678 107.233 77.3463 109.314 78.3046C109.921 78.3211 110.697 78.7059 111.26 78.9034C111.93 79.1402 112.648 78.3983 112.428 77.7362C111.825 75.9297 108.306 65.5692 110.784 65.2286C113.166 64.9007 118.107 73.4332 119.396 75.3448C119.876 76.0563 121.254 75.8778 121.166 74.8663C121.006 73.0218 121.272 71.0912 123.791 72.1597C124.922 72.6395 126.25 74.9499 126.966 75.9133C127.349 76.4298 127.954 76.5335 128.456 76.1057C129.792 74.9701 131.269 73.5624 132.854 72.8142C135.33 71.6457 137.853 71.7698 134.872 74.384C134.247 74.9321 134.751 76.0196 135.543 76.0044C137.215 75.9753 138.894 76.0069 140.564 76.1107C144.327 76.3437 151.921 77.4678 143.773 80.7935C143.025 81.0986 142.73 82.4633 143.773 82.6253C154.277 84.266 164.18 87.5461 173.141 93.3568C174.17 94.0227 175.123 92.3807 174.099 91.7174Z" fill="#232345"/>
<path d="M68.2934 197.516C84.2038 212.892 109.839 219.107 131.567 218.983C153.199 218.86 178.484 212.71 194.683 197.854C195.586 197.026 194.24 195.685 193.34 196.509C177.569 210.974 152.647 216.985 131.567 217.084C110.356 217.182 85.1685 211.183 69.6365 196.173C68.7567 195.323 67.4123 196.665 68.2934 197.516Z" fill="#232345"/>
<path d="M60.7896 186.037C50.4189 165.296 53.8268 117.672 88.6557 93.1553C88.8911 92.9894 89.1393 92.8375 89.3786 92.6742C84.2515 85.4292 71.0602 70.5226 49.5796 71.0796C15.5103 71.9658 0.465725 106.036 16.3939 102.937C16.3939 102.937 4.22686 117.54 0.244175 133.69C-3.73724 149.84 0.908789 159.353 7.32336 156.035C7.32336 156.035 5.37 168.717 11.5263 181.255C17.2788 192.965 25.4645 190.546 28.3407 187.008C28.3407 187.008 36.3048 205.149 52.2343 205.812C62.5695 206.243 66.9408 200.709 68.7385 196.767C65.5508 193.663 62.8278 190.112 60.7896 186.037Z" fill="#6D6A9C"/>
<path d="M60.7901 186.037C51.7258 167.908 53.1905 129.243 76.96 103.418C76.96 103.418 70.472 91.84 57.1998 92.4616C42.8363 93.135 26.9094 105.462 25.5966 141.031C24.3699 174.333 36.2787 190.042 43.606 195.364C48.7445 199.095 58.4303 200.688 64.95 192.569C63.3662 190.555 61.9636 188.383 60.7901 186.037Z" fill="#FFB6C3"/>
<path d="M77.7776 102.939C66.9182 84.2037 42.6423 91.207 33.1426 106.877C24.8114 120.62 23.6898 138.64 24.8722 154.248C25.809 166.604 28.903 179.567 36.5519 189.588C43.9172 199.237 56.4741 203.423 65.6206 193.241C66.4346 192.335 65.0965 190.987 64.2775 191.898C52.3117 205.221 38.8977 192.136 33.3072 180.619C25.7343 165.013 24.9697 145.635 27.6952 128.774C29.7081 116.318 34.7555 102.46 46.6402 96.2695C56.8982 90.9247 70.1148 93.5059 76.1382 103.898C76.7521 104.954 78.3941 103.999 77.7776 102.939Z" fill="#232345"/>
<path d="M68.0759 196.107C67.1948 195.215 66.3529 194.284 65.5541 193.317C65.5769 193.292 65.5997 193.267 65.6224 193.241C66.5808 194.384 67.5049 195.417 68.0936 196.066C68.0885 196.08 68.0822 196.093 68.0759 196.107ZM64.3679 191.81C63.8615 191.135 63.3767 190.441 62.912 189.731C63.3412 190.369 63.864 191.068 64.4185 191.768C64.4008 191.782 64.3844 191.796 64.3679 191.81ZM62.4601 189.021C62.4424 188.993 62.4259 188.965 62.4082 188.937C62.4107 188.936 62.4107 188.936 62.4107 188.936C62.4259 188.964 62.4436 188.991 62.4601 189.021Z" fill="#4A487A"/>
<path d="M53.056 204.838C51.0317 204.839 48.9986 204.54 47.0744 203.944C39.0305 201.449 32.5501 194.072 29.1611 186.528C29.0219 186.217 28.6864 186.064 28.3522 186.064C28.094 186.064 27.837 186.155 27.6699 186.336C25.8481 188.317 24.0454 189.134 22.3225 189.134C16.413 189.135 11.4467 179.533 9.8845 174.422C8.15395 168.754 7.40071 162.218 8.24003 156.287C8.33624 155.603 7.90202 155.113 7.31842 155.113C7.16777 155.113 7.00826 155.144 6.84495 155.214C6.1069 155.53 5.4423 155.675 4.84477 155.675C0.0860619 155.675 -0.411471 146.552 -0.232972 143.084C0.13542 135.95 2.25841 128.995 5.26758 122.551C7.86278 116.992 11.0403 111.539 14.7394 106.577C9.87312 117.594 -3.26492 149.83 9.6136 149.827C9.66044 149.827 9.7098 149.827 9.75791 149.826C9.75791 149.826 12.2417 182.582 23.61 182.581C24.8405 182.581 26.176 182.198 27.6243 181.346C27.6243 181.346 32.3944 188.324 39.2318 192.633C43.2942 196.635 48.3365 199.135 53.3965 199.135C57.6235 199.135 61.8632 197.389 65.5535 193.318C66.3523 194.285 67.1941 195.215 68.0752 196.108C65.6066 201.93 59.3781 204.838 53.056 204.838Z" fill="#5A578A"/>
<path d="M53.3715 197.515C51.0459 197.515 48.7698 196.839 46.6113 195.688C47.5241 195.859 48.452 195.951 49.3914 195.951C53.6247 195.951 58.0922 194.065 62.4091 188.937C62.4243 188.966 62.4408 188.994 62.4585 189.021C62.5927 189.247 62.7446 189.485 62.9104 189.732C63.3751 190.442 63.8599 191.136 64.3663 191.81C64.3359 191.837 64.3068 191.866 64.2777 191.899C60.69 195.894 56.9706 197.515 53.3715 197.515Z" fill="#D396AC"/>
<path d="M53.3962 199.134C48.3362 199.134 43.2939 196.634 39.2314 192.632C41.4988 194.06 43.9902 195.195 46.6119 195.687C48.7704 196.837 51.0466 197.513 53.3721 197.513C56.9712 197.513 60.6906 195.893 64.2783 191.898C64.3074 191.865 64.3365 191.836 64.3669 191.809C64.3834 191.795 64.3998 191.781 64.4175 191.767C64.81 192.265 65.2189 192.762 65.6202 193.242C65.5987 193.266 65.5759 193.291 65.5531 193.317C61.8628 197.388 57.6232 199.134 53.3962 199.134Z" fill="#1D1D3D"/>
<path d="M18.3569 158.133C17.491 164.344 18.5455 170.709 20.9862 176.459C21.2419 177.06 22.2838 176.627 22.0534 176.008C19.8785 170.166 19.0747 164.459 19.1342 158.238C19.138 157.808 18.4202 157.682 18.3569 158.133Z" fill="#232345"/>
<path d="M16.304 129.547C11.4605 142.443 10.2832 156.607 12.4733 170.176C12.6075 170.998 13.8253 170.639 13.7139 169.833C11.8061 156.069 13.0404 143.04 17.0282 129.746C17.1687 129.276 16.4711 129.101 16.304 129.547Z" fill="#232345"/>
<path d="M20.607 108.72C10.9086 119.339 4.61554 134.32 4.14967 148.732C4.13195 149.276 5.04598 149.424 5.12194 148.864C7.15 133.819 11.934 121.235 20.8083 108.876C20.8944 108.757 20.7045 108.614 20.607 108.72Z" fill="#232345"/>
<path d="M39.8898 86.7073C32.9169 90.5077 26.8176 95.9943 22.7779 102.882C22.407 103.513 23.3527 104.052 23.7502 103.452C28.1405 96.8425 33.3664 91.342 40.1303 87.1162C40.3886 86.9542 40.1582 86.5605 39.8898 86.7073Z" fill="#232345"/>
<path d="M43.6915 93.6813C23.4945 103.786 17.3432 131.88 19.6992 152.348C19.7473 152.77 20.3524 152.79 20.3727 152.348C21.3196 130.736 23.3059 106.307 43.8117 93.8852C43.9447 93.8067 43.8282 93.6117 43.6915 93.6813Z" fill="#232345"/>
<path d="M76.7409 93.3434C67.0083 84.7741 52.4132 83.4018 41.5753 90.9418C41.3297 91.1127 41.5374 91.452 41.8032 91.3343C54.5438 85.7198 64.7853 85.3653 76.5498 93.5927C76.6954 93.6953 76.8751 93.4623 76.7409 93.3434Z" fill="#232345"/>
<path d="M91.9399 94.8213C78.7943 73.7293 53.0322 63.8017 29.8475 74.7572C21.5467 78.6779 12.3888 85.9292 9.67335 95.1441C8.02128 100.756 10.5722 104.826 16.6462 103.854C16.3373 103.325 16.0297 102.796 15.7221 102.266C7.43641 112.321 0.483816 124.907 -1.58095 137.865C-2.49877 143.631 -2.84945 161.42 7.80227 156.854C7.33766 156.497 6.87179 156.14 6.40718 155.782C4.94754 166.11 7.13636 182.795 16.5576 189.071C19.349 190.932 23.9634 191.836 26.8434 189.525C27.1738 189.26 28.1221 188.416 28.4499 188.289C28.7753 188.165 26.9397 187.108 27.7752 188.029C28.8133 189.173 29.4918 191.187 30.3615 192.497C36.1165 201.164 45.1656 207.89 56.0426 206.629C63.2408 205.795 69.7516 200.656 70.8479 193.219C71.0239 192.024 69.1946 191.506 69.0161 192.712C67.502 202.996 56.0743 206.735 47.0733 203.944C39.0295 201.449 32.5491 194.072 29.1601 186.528C28.9133 185.976 28.0511 185.92 27.6688 186.336C19.5984 195.115 11.9001 181.021 9.88348 174.422C8.15293 168.754 7.39969 162.218 8.23901 156.287C8.35928 155.426 7.64275 154.873 6.84393 155.213C0.22174 158.054 -0.435278 146.987 -0.233992 143.083C0.1344 135.95 2.25739 128.994 5.26656 122.551C8.39093 115.859 12.3584 109.319 17.064 103.61C17.6881 102.852 17.0956 101.87 16.1411 102.023C7.20728 103.453 12.4319 92.5692 15.0562 88.9815C20.7985 81.1338 29.7817 75.8029 39.1143 73.4495C59.586 68.292 79.4336 78.3449 90.3005 95.7796C90.9462 96.8139 92.5881 95.8632 91.9399 94.8213Z" fill="#232345"/>
<path d="M15.0252 97.3193C14.4517 97.3193 13.9111 96.7674 14.3061 96.1294C20.8637 85.5283 34.2056 77.292 46.5005 75.5336C48.0146 75.3171 49.5223 75.2133 51.025 75.2133C63.0148 75.2133 74.4679 81.8216 82.5561 90.4136L82.532 90.444C73.3678 83.3875 63.2174 76.8261 51.5466 76.8261C49.6818 76.8261 47.7778 76.9932 45.8333 77.3528C33.8676 79.5669 22.8348 87.3196 15.7227 96.9598C15.5353 97.213 15.2771 97.3193 15.0252 97.3193Z" fill="#8E8ABA"/>
<path d="M202.206 186.037C212.578 165.296 209.169 117.672 174.341 93.1553C174.106 92.9894 173.858 92.8375 173.617 92.6742C178.744 85.4292 191.937 70.5226 213.417 71.0796C247.487 71.9658 262.531 106.036 246.603 102.937C246.603 102.937 258.77 117.54 262.752 133.69C266.734 149.84 262.088 159.353 255.674 156.035C255.674 156.035 257.627 168.717 251.469 181.255C245.717 192.965 237.533 190.546 234.655 187.008C234.655 187.008 226.691 205.149 210.763 205.812C200.428 206.243 196.056 200.709 194.259 196.767C197.445 193.663 200.169 190.112 202.206 186.037Z" fill="#6D6A9C"/>
<path d="M202.207 186.037C211.271 167.908 209.806 129.243 186.038 103.418C186.038 103.418 192.526 91.84 205.797 92.4616C220.162 93.135 236.089 105.462 237.4 141.031C238.628 174.333 226.719 190.042 219.392 195.364C214.254 199.095 204.567 200.688 198.047 192.569C199.631 190.555 201.033 188.383 202.207 186.037Z" fill="#FFB6C3"/>
<path d="M186.858 103.898C192.88 93.5083 206.101 90.9257 216.357 96.2693C228.234 102.456 233.303 116.317 235.302 128.774C238.016 145.688 237.224 164.953 229.689 180.618C224.139 192.155 210.692 205.228 198.718 191.898C197.901 190.987 196.561 192.335 197.376 193.241C205.133 201.876 216.49 200.529 224.027 192.475C232.09 183.858 235.878 171.783 237.47 160.339C240.535 138.32 238.61 99.5494 211.594 92.3968C201.51 89.7281 190.538 93.7589 185.218 102.938C184.604 103.998 186.245 104.955 186.858 103.898Z" fill="#232345"/>
<path d="M194.922 196.108C194.916 196.094 194.909 196.081 194.904 196.067C195.493 195.418 196.417 194.384 197.377 193.242C197.399 193.266 197.422 193.292 197.445 193.317C196.645 194.285 195.803 195.215 194.922 196.108Z" fill="#4A487A"/>
<path d="M209.962 204.817C203.631 204.817 197.392 201.94 194.921 196.109C195.802 195.215 196.644 194.286 197.444 193.317C201.065 197.31 205.462 199.142 209.886 199.142C214.936 199.142 220.02 196.756 224.026 192.476C224.033 192.468 224.04 192.459 224.048 192.452C230.733 188.131 235.372 181.345 235.372 181.345C236.82 182.197 238.156 182.581 239.387 182.581C250.756 182.581 253.239 149.826 253.239 149.826C253.288 149.827 253.336 149.827 253.384 149.827C266.264 149.827 253.122 117.59 248.257 106.576C251.956 111.536 255.138 116.992 257.73 122.551C260.59 128.689 262.728 135.361 263.186 142.153C263.42 145.604 263.214 155.685 258.192 155.685C257.584 155.686 256.907 155.538 256.151 155.214C255.988 155.144 255.828 155.111 255.679 155.111C255.093 155.111 254.661 155.606 254.757 156.287C255.601 162.254 254.805 168.7 253.112 174.422C251.615 179.476 246.602 189.122 240.666 189.123C238.943 189.125 237.143 188.311 235.326 186.336C235.16 186.155 234.902 186.064 234.644 186.064C234.31 186.064 233.975 186.217 233.836 186.528C230.464 194.037 223.961 201.503 215.922 203.944C214.005 204.525 211.978 204.817 209.962 204.817Z" fill="#5A578A"/>
<path d="M198.631 191.811C198.613 191.797 198.597 191.783 198.58 191.769C199.133 191.069 199.656 190.37 200.085 189.732C199.622 190.442 199.136 191.136 198.631 191.811ZM200.539 189.022C200.555 188.993 200.571 188.965 200.588 188.937C200.573 188.966 200.555 188.994 200.539 189.022Z" fill="#4A487A"/>
<path d="M209.643 197.521C206.038 197.521 202.313 195.899 198.719 191.898C198.691 191.865 198.661 191.836 198.632 191.81C199.137 191.135 199.623 190.441 200.086 189.731C200.252 189.484 200.404 189.246 200.54 189.021C200.556 188.993 200.574 188.965 200.59 188.937C204.906 194.064 209.372 195.95 213.606 195.95C214.565 195.95 215.511 195.854 216.441 195.677C214.273 196.838 211.984 197.52 209.643 197.521Z" fill="#D396AC"/>
<path d="M209.886 199.143C205.463 199.143 201.065 197.311 197.444 193.318C197.422 193.293 197.399 193.267 197.376 193.242C197.779 192.763 198.187 192.266 198.58 191.768C198.596 191.782 198.613 191.796 198.631 191.81C198.66 191.837 198.69 191.866 198.718 191.899C202.312 195.899 206.036 197.522 209.642 197.522C211.983 197.521 214.271 196.839 216.44 195.678C219.15 195.16 221.724 193.955 224.048 192.452C224.041 192.46 224.033 192.468 224.027 192.476C220.02 196.756 214.936 199.143 209.886 199.143Z" fill="#1D1D3D"/>
<path d="M243.864 158.237C243.922 164.461 243.118 170.168 240.945 176.007C240.717 176.62 241.753 177.067 242.012 176.458C244.451 170.708 245.506 164.342 244.641 158.132C244.578 157.685 243.86 157.802 243.864 158.237Z" fill="#232345"/>
<path d="M245.97 129.747C249.958 143.04 251.192 156.07 249.284 169.834C249.173 170.638 250.391 171 250.524 170.177C252.715 156.608 251.538 142.445 246.694 129.548C246.527 129.102 245.828 129.276 245.97 129.747Z" fill="#232345"/>
<path d="M242.188 108.876C251.06 121.233 255.847 133.825 257.875 148.864C257.951 149.418 258.864 149.281 258.848 148.732C258.381 134.318 252.089 119.34 242.39 108.72C242.293 108.614 242.102 108.756 242.188 108.876Z" fill="#232345"/>
<path d="M222.867 87.1165C229.628 91.3423 234.854 96.8428 239.246 103.452C239.645 104.051 240.59 103.514 240.219 102.883C236.178 95.9946 230.08 90.508 223.106 86.7076C222.838 86.5608 222.609 86.9545 222.867 87.1165Z" fill="#232345"/>
<path d="M219.185 93.8852C239.694 106.308 241.678 130.736 242.625 152.348C242.645 152.789 243.249 152.771 243.297 152.348C245.656 131.876 239.502 103.786 219.305 93.6814C219.17 93.613 219.053 93.8067 219.185 93.8852Z" fill="#232345"/>
<path d="M186.45 93.5934C198.214 85.3659 208.456 85.7204 221.195 91.3349C221.461 91.4526 221.668 91.1134 221.424 90.9424C210.586 83.4037 195.99 84.7747 186.259 93.344C186.124 93.4617 186.302 93.6972 186.45 93.5934Z" fill="#232345"/>
<path d="M172.697 95.7801C183.578 78.3201 203.391 68.3292 223.882 73.45C233.209 75.7819 242.211 81.1432 247.94 88.982C250.558 92.5633 255.814 103.456 246.856 102.024C245.903 101.871 245.307 102.852 245.932 103.61C250.636 109.317 254.611 115.859 257.731 122.551C260.59 128.69 262.729 135.361 263.187 142.153C263.449 146.022 263.16 158.218 256.152 155.214C255.351 154.871 254.637 155.432 254.758 156.288C255.601 162.254 254.806 168.7 253.113 174.422C251.182 180.944 243.395 195.113 235.327 186.336C234.946 185.921 234.084 185.977 233.837 186.529C230.465 194.037 223.961 201.504 215.923 203.944C206.918 206.677 195.498 203.016 193.98 192.713C193.803 191.509 191.972 192.022 192.149 193.219C193.244 200.659 199.755 205.793 206.953 206.629C217.837 207.893 226.876 201.16 232.634 192.498C233.516 191.175 234.127 189.434 235.121 188.229C236.129 187.01 234.457 188.255 234.546 188.29C234.487 188.267 234.902 188.587 235.325 188.909C235.763 189.24 236.209 189.573 236.154 189.525C238.945 191.905 243.706 190.894 246.44 189.072C255.857 182.797 258.048 166.104 256.589 155.782C256.124 156.141 255.66 156.498 255.195 156.855C265.833 161.416 265.507 143.656 264.578 137.865C262.494 124.902 255.568 112.33 247.275 102.267C246.968 102.796 246.66 103.325 246.35 103.854C252.163 104.784 254.928 101.064 253.438 95.5168C250.917 86.131 241.5 78.7024 233.15 74.7577C209.968 63.8035 184.202 73.731 171.057 94.8218C170.408 95.8624 172.051 96.8157 172.697 95.7801Z" fill="#232345"/>
<path d="M247.972 97.3203C247.72 97.3203 247.462 97.2127 247.275 96.9595C240.163 87.3193 229.13 79.5666 217.164 77.3525C215.218 76.9929 213.316 76.8258 211.451 76.8258C199.781 76.8258 189.628 83.3873 180.464 90.4437L180.441 90.4133C188.528 81.8213 199.981 75.213 211.972 75.213C213.474 75.213 214.984 75.3168 216.496 75.5333C228.796 77.2917 242.129 85.5242 248.691 96.1291C249.086 96.7684 248.545 97.3203 247.972 97.3203Z" fill="#8E8ABA"/>
</g>
</svg>
