<svg width="263" height="263" viewBox="0 0 263 263" fill="none" xmlns="http://www.w3.org/2000/svg">
<circle cx="131.5" cy="131.5" r="131.5" fill="#FFCCD5"/>
<mask id="mask0_346_12590" style="mask-type:alpha" maskUnits="userSpaceOnUse" x="0" y="0" width="263" height="263">
<circle cx="131.5" cy="131.5" r="131.5" fill="#D9D9D9"/>
</mask>
<g mask="url(#mask0_346_12590)">
<path d="M128.806 30.0447C88.2995 28.515 -2.83531 66.5888 18.0744 169.295C38.984 272.001 146.113 273.305 206.385 233.668C273.668 189.419 267.168 35.2724 128.806 30.0447Z" fill="#FFB6C3"/>
<path d="M156.705 211.179H102.547C75.4691 213.671 62.9219 244.221 62.9219 244.221C84.1632 263.101 129.625 262.708 129.625 262.708C129.625 262.708 175.089 263.101 196.331 244.221C196.331 244.221 183.783 213.671 156.705 211.179Z" fill="#FFC46E"/>
<path d="M149.676 225.026C147.754 221.418 148.253 216.005 149.184 211.617H110.071C111.002 216.005 111.502 221.418 109.579 225.026C106.138 231.486 93 240.381 92.8574 258.238C111.544 262.86 129.627 262.708 129.627 262.708C129.627 262.708 147.713 262.86 166.398 258.238C166.256 240.381 153.119 231.486 149.676 225.026Z" fill="#FFE6C2"/>
<path d="M97.4407 241.339C88.8201 239.36 79.4406 236.524 70.6162 232.465C71.7746 230.884 73.0064 229.348 74.2945 227.882C83.2713 231.62 92.6234 234.18 101.028 235.928C99.7824 237.575 98.5527 239.369 97.4407 241.339ZM161.813 241.339C160.701 239.369 159.471 237.575 158.225 235.928C166.628 234.18 175.972 231.624 184.946 227.887C186.243 229.359 187.47 230.893 188.619 232.473C179.799 236.529 170.428 239.362 161.813 241.339Z" fill="#FFAD4E"/>
<path d="M129.626 245.846C129.626 245.846 115.125 245.397 97.4404 241.34C98.5524 239.37 99.7821 237.576 101.028 235.928C117.044 239.259 129.626 239.647 129.626 239.647C129.626 239.647 142.208 239.259 158.225 235.928C159.471 237.576 160.701 239.37 161.812 241.34C144.127 245.397 129.626 245.846 129.626 245.846Z" fill="#FFCB8B"/>
<path d="M197.185 243.909C193.573 235.237 187.554 227.022 180.493 220.875C174.867 215.977 168.21 212.29 160.859 210.804C155.985 209.818 151.107 210.509 146.177 210.795C136.538 211.355 127.505 211.638 117.886 211.079C112.857 210.788 107.619 210.03 102.579 210.19C95.5301 210.413 88.3252 213.696 82.6649 217.718C73.7004 224.087 66.2199 233.737 61.9837 243.909C61.5241 245.012 63.3225 245.494 63.7767 244.403C67.1301 236.351 73.2137 228.088 79.9903 222.19C86.0864 216.883 94.2768 212.363 102.543 212.047C106.776 211.886 111.203 212.55 115.43 212.796C123.423 213.261 130.911 213.542 138.88 213.078C151.587 212.34 162.422 210.786 173.805 218.136C183.181 224.19 191.215 234.375 195.393 244.403C195.845 245.492 197.645 245.015 197.185 243.909Z" fill="#5B1A1A"/>
<path d="M226.773 102.884C214.352 63.3116 167.623 45.8261 129.626 43.2253C91.6298 45.8261 44.9004 63.3116 32.4795 102.884C19.7414 143.468 24.2915 182.803 45.189 207.873C70.1484 237.815 129.626 239.646 129.626 239.646C129.626 239.646 189.103 237.815 214.063 207.873C234.961 182.803 239.511 143.468 226.773 102.884Z" fill="#8A312D"/>
<path d="M106.209 46.9033C110.813 59.5207 112.973 72.3214 114.527 85.6218C114.602 86.2702 115.629 86.2788 115.553 85.6218C114.03 72.4429 112.677 58.7273 106.439 46.8067C106.373 46.6815 106.159 46.7682 106.209 46.9033Z" fill="#5B1A1A"/>
<path d="M85.6357 53.5588C93.6998 64.334 100.269 75.5319 104.672 88.3054C104.89 88.9376 105.899 88.6674 105.681 88.0277C101.362 75.3447 94.8688 63.3435 85.7263 53.4882L85.6357 53.5588Z" fill="#5B1A1A"/>
<path d="M67.4766 61.6036C76.2995 71.8594 84.5493 82.0333 90.8754 94.0667C91.2287 94.7399 92.2502 94.1436 91.8944 93.4705C85.6824 81.6825 77.8283 70.1499 67.5725 61.5069L67.4766 61.6036Z" fill="#5B1A1A"/>
<path d="M49.6367 76.603C55.375 80.3456 60.4475 84.8567 65.0972 89.8612C65.5344 90.3323 66.2046 89.6406 65.7959 89.1633C61.2769 83.8836 55.8016 79.7518 49.6759 76.5361L49.6367 76.603Z" fill="#5B1A1A"/>
<path d="M34.5147 97.5279C45.9656 104.176 56.5313 111.338 66.0099 120.656C66.5082 121.146 67.267 120.387 66.777 119.889C57.5932 110.562 46.7306 102.374 34.6042 97.3159C34.4807 97.2639 34.4033 97.4635 34.5147 97.5279Z" fill="#5B1A1A"/>
<path d="M28.2043 122.51C39.7763 125.375 50.3836 128.691 60.9276 134.416C61.5299 134.743 62.0583 133.844 61.4651 133.496C51.4301 127.591 39.9041 123.186 28.2353 122.282C28.1036 122.272 28.0784 122.479 28.2043 122.51Z" fill="#5B1A1A"/>
<path d="M25.8362 147.35C36.8439 148.858 47.7056 150.063 58.6364 152.181C59.1934 152.288 59.4325 151.478 58.8738 151.322C48.5036 148.421 36.6615 146.498 25.8774 147.045C25.7136 147.053 25.6546 147.325 25.8362 147.35Z" fill="#5B1A1A"/>
<path d="M28.0325 168.857C38.4017 167.668 48.6246 166.671 59.0677 166.508C59.964 166.494 59.9675 165.113 59.0677 165.113C48.6642 165.122 38.1029 166.089 28.0015 168.627C27.878 168.658 27.8998 168.872 28.0325 168.857Z" fill="#5B1A1A"/>
<path d="M36.4919 193.999C44.6525 189.089 52.7592 184.962 61.5859 181.36C62.1932 181.111 61.9545 180.121 61.308 180.351C52.4647 183.486 43.8041 188.018 36.2474 193.58C36.0029 193.761 36.2183 194.164 36.4919 193.999Z" fill="#5B1A1A"/>
<path d="M56.2735 217.48C61.6171 210.454 68.1225 204.682 75.8645 200.416C76.6931 199.96 75.942 198.665 75.1207 199.146C67.3772 203.68 60.7455 209.71 55.705 217.148C55.4624 217.506 56.0241 217.809 56.2735 217.48Z" fill="#5B1A1A"/>
<path d="M80.4985 229.077C84.5522 222.146 89.2133 216.526 95.1835 211.18C95.6744 210.741 95.0063 209.842 94.4682 210.252C88.1509 215.074 83.3187 221.608 79.9634 228.764C79.7963 229.12 80.2937 229.428 80.4985 229.077Z" fill="#5B1A1A"/>
<path d="M103.366 235.755C105.334 227.147 108.855 219.848 114.432 212.999C114.912 212.408 114.095 211.558 113.582 212.148C107.874 218.739 104.004 226.939 102.618 235.55C102.541 236.032 103.252 236.251 103.366 235.755Z" fill="#5B1A1A"/>
<path d="M152.813 46.8072C146.577 58.7266 145.223 72.4447 143.699 85.6223C143.624 86.2781 144.65 86.2731 144.726 85.6223C146.279 72.3207 148.441 59.5199 153.044 46.9039C153.092 46.7687 152.879 46.6808 152.813 46.8072Z" fill="#5B1A1A"/>
<path d="M173.526 53.489C164.385 63.3443 157.892 75.3455 153.573 88.0285C153.355 88.667 154.362 88.9397 154.582 88.3062C158.984 75.5352 165.554 64.3348 173.618 53.5596L173.526 53.489Z" fill="#5B1A1A"/>
<path d="M191.68 61.5062C181.426 70.1491 173.571 81.6842 167.358 93.4697C167.003 94.1416 168.024 94.7391 168.378 94.066C174.704 82.0326 182.952 71.8587 191.777 61.6029L191.68 61.5062Z" fill="#5B1A1A"/>
<path d="M209.577 76.5361C203.451 79.753 197.976 83.8823 193.457 89.1633C193.048 89.6406 193.719 90.3323 194.156 89.8612C198.805 84.8567 203.877 80.3456 209.616 76.603L209.577 76.5361Z" fill="#5B1A1A"/>
<path d="M224.649 97.3161C212.521 102.374 201.661 110.562 192.477 119.889C191.986 120.386 192.745 121.146 193.244 120.656C202.72 111.339 213.289 104.175 224.738 97.5281C224.849 97.4636 224.774 97.264 224.649 97.3161Z" fill="#5B1A1A"/>
<path d="M231.017 122.282C219.348 123.186 207.822 127.591 197.787 133.496C197.196 133.844 197.722 134.743 198.325 134.416C208.868 128.691 219.476 125.375 231.048 122.51C231.172 122.479 231.15 122.272 231.017 122.282Z" fill="#5B1A1A"/>
<path d="M233.376 147.045C222.592 146.498 210.75 148.421 200.38 151.322C199.822 151.478 200.059 152.288 200.617 152.181C211.545 150.063 222.41 148.858 233.417 147.35C233.597 147.325 233.541 147.053 233.376 147.045Z" fill="#5B1A1A"/>
<path d="M231.252 168.627C221.15 166.089 210.588 165.122 200.186 165.113C199.287 165.113 199.287 166.494 200.186 166.508C210.629 166.671 220.853 167.668 231.221 168.857C231.352 168.87 231.377 168.658 231.252 168.627Z" fill="#5B1A1A"/>
<path d="M223.006 193.58C215.449 188.018 206.79 183.486 197.945 180.351C197.3 180.121 197.059 181.111 197.667 181.36C206.494 184.962 214.601 189.089 222.761 193.999C223.033 194.164 223.25 193.761 223.006 193.58Z" fill="#5B1A1A"/>
<path d="M203.548 217.148C198.507 209.71 191.875 203.679 184.132 199.146C183.313 198.665 182.559 199.959 183.388 200.416C191.131 204.682 197.636 210.455 202.979 217.48C203.228 217.809 203.791 217.506 203.548 217.148Z" fill="#5B1A1A"/>
<path d="M179.291 228.765C175.935 221.608 171.102 215.074 164.786 210.253C164.253 209.846 163.573 210.736 164.07 211.18C170.041 216.527 174.702 222.146 178.756 229.077C178.96 229.427 179.457 229.121 179.291 228.765Z" fill="#5B1A1A"/>
<path d="M156.635 235.55C155.25 226.939 151.38 218.739 145.671 212.149C145.161 211.559 144.342 212.408 144.822 212.999C150.398 219.849 153.92 227.148 155.889 235.756C156.001 236.251 156.713 236.032 156.635 235.55Z" fill="#5B1A1A"/>
<path d="M129.376 43.8603C128.889 57.3008 128.094 71.0015 128.893 84.437C128.933 85.135 129.935 85.1362 129.977 84.437C130.776 71.0003 129.981 57.3033 129.493 43.8603H129.376Z" fill="#5B1A1A"/>
<path d="M129.649 239.39C129.947 230.772 129.921 222.144 129.979 213.522C129.983 212.824 128.89 212.823 128.895 213.522C128.952 222.144 128.926 230.772 129.223 239.39C129.233 239.664 129.641 239.664 129.649 239.39Z" fill="#5B1A1A"/>
<path d="M104.055 56.4983C106.013 61.5636 107.129 66.8892 109.005 71.952C109.129 72.2892 109.739 72.278 109.69 71.859C109.054 66.5322 106.629 61.1868 104.322 56.3855C104.251 56.2393 103.997 56.3434 104.055 56.4983Z" fill="#AF4545"/>
<path d="M88.6486 76.6118C90.9345 79.5399 92.7531 82.7581 94.9163 85.7655C95.1494 86.0878 95.5994 85.8163 95.4444 85.4581C93.9618 82.0279 91.4626 79.0342 88.9771 76.2833C88.7713 76.0552 88.4688 76.3825 88.6486 76.6118Z" fill="#AF4545"/>
<path d="M50.6814 62.6428C56.0811 65.9862 60.692 70.004 65.1461 74.4977C65.5244 74.8783 66.0411 74.3218 65.7215 73.9226C61.7705 68.99 56.5193 65.0987 50.8943 62.2797C50.6527 62.1594 50.4489 62.5003 50.6814 62.6428Z" fill="#AF4545"/>
<path d="M51.817 69.3771C55.5114 71.7945 58.3833 74.8155 61.483 77.901C61.8177 78.2333 62.4442 77.7907 62.1566 77.3816C59.6443 73.8077 55.8508 71.0457 52.11 68.8751C51.7846 68.6866 51.5061 69.1738 51.817 69.3771Z" fill="#AF4545"/>
<path d="M36.229 119.531C43.0597 120.876 48.8236 123.574 55.0758 126.509C55.4544 126.686 55.7241 126.204 55.3982 125.957C50.0246 121.886 42.8873 119.893 36.2837 119.131C36.0566 119.105 36.0053 119.486 36.229 119.531Z" fill="#AF4545"/>
<path d="M46.5685 117.904C49.6182 119.239 52.5087 120.946 55.5579 122.259C56.1134 122.498 56.574 121.776 56.0428 121.431C53.2549 119.63 49.9326 118.43 46.8373 117.266C46.4707 117.129 46.2058 117.745 46.5685 117.904Z" fill="#AF4545"/>
<path d="M43.8702 142.938C45.2755 143.047 46.6139 143.335 47.9292 143.836C49.2385 144.334 50.3421 145.128 51.5924 145.733C52.0448 145.951 52.5295 145.402 52.1469 145.014C50.103 142.945 46.6647 142.317 43.8702 142.357C43.4921 142.363 43.5008 142.91 43.8702 142.938Z" fill="#AF4545"/>
<path d="M40.7177 179.502C43.2406 177.879 45.8017 177.205 48.6888 176.59C49.1556 176.491 49.0487 175.753 48.577 175.763C45.5863 175.826 42.6885 177.247 40.3743 179.058C40.1206 179.255 40.4495 179.675 40.7177 179.502Z" fill="#AF4545"/>
<path d="M36.7103 186.103C41.2627 183.169 46.2945 182.262 51.3123 180.517C51.7616 180.361 51.5752 179.747 51.119 179.817C45.9148 180.611 40.6723 182.471 36.4318 185.627C36.1534 185.833 36.4053 186.3 36.7103 186.103Z" fill="#AF4545"/>
<path d="M52.4801 209.079C54.1005 207.445 55.8869 206.016 57.8548 204.819C59.6518 203.727 61.6537 203.136 63.474 202.127C63.7514 201.972 63.5471 201.606 63.2725 201.648C59.0804 202.288 54.976 205.791 52.2342 208.833C52.0846 208.998 52.3208 209.24 52.4801 209.079Z" fill="#AF4545"/>
<path d="M57.0745 227.015C59.783 220.963 65.3503 216.992 70.2881 212.885C70.6639 212.573 70.1607 211.909 69.7598 212.201C64.3174 216.153 59.5331 220.658 56.9893 226.979L57.0745 227.015Z" fill="#AF4545"/>
<path d="M61.7222 227.512C64.7469 223.087 68.3114 219.269 72.2938 215.698C72.6318 215.396 72.1702 214.776 71.8008 215.06C67.4973 218.361 63.9793 222.562 61.2457 227.233C61.0642 227.543 61.5237 227.802 61.7222 227.512Z" fill="#AF4545"/>
<path d="M135.821 37.9001C134.494 42.312 133.893 46.8702 134.41 51.4657C134.465 51.9541 135.203 51.9826 135.195 51.4657C135.108 46.9236 135.368 42.4967 136.367 38.0513C136.448 37.6955 135.926 37.5505 135.821 37.9001Z" fill="#AF4545"/>
<path d="M139.024 48.7831C138.176 52.5852 138.012 56.35 138.719 60.1868C138.791 60.5773 139.459 60.4942 139.418 60.0926C139.044 56.381 139.142 52.6868 139.92 49.0311C140.044 48.4484 139.154 48.1993 139.024 48.7831Z" fill="#AF4545"/>
<path d="M159.81 64.0005C155.525 68.6988 151.568 74.9132 150.658 81.3272C150.612 81.6483 151.032 81.7772 151.147 81.4636C153.497 75.0905 155.624 69.512 159.974 64.1653C160.067 64.0513 159.912 63.8876 159.81 64.0005Z" fill="#AF4545"/>
<path d="M192.066 70.5508C186.648 73.5173 181.839 77.6467 178.52 82.8966C178.367 83.1408 178.732 83.333 178.896 83.1173C182.653 78.1983 186.871 73.9797 192.139 70.676L192.066 70.5508Z" fill="#AF4545"/>
<path d="M192.447 74.2319C189.121 76.2488 185.866 78.7901 183.566 81.9624C183.352 82.2562 183.823 82.6107 184.067 82.3492C186.748 79.4793 189.384 76.8302 192.717 74.6967C193.008 74.5108 192.743 74.0509 192.447 74.2319Z" fill="#AF4545"/>
<path d="M216.167 112.378C211.162 113.951 206.297 116.275 202.137 119.494C201.895 119.682 202.207 120.078 202.463 119.916C206.913 117.088 211.329 114.656 216.284 112.797C216.542 112.701 216.44 112.292 216.167 112.378Z" fill="#AF4545"/>
<path d="M224.493 138.969C219.862 139.092 215.183 139.729 210.786 141.231C210.346 141.381 210.521 142.036 210.98 141.931C215.475 140.903 219.907 139.933 224.493 139.391C224.755 139.36 224.771 138.962 224.493 138.969Z" fill="#AF4545"/>
<path d="M225.496 141.702C218.534 141.898 211.312 143.3 204.929 146.126C204.573 146.284 204.826 146.859 205.192 146.75C211.972 144.724 218.52 143.026 225.537 142.002C225.708 141.977 225.666 141.697 225.496 141.702Z" fill="#AF4545"/>
<path d="M226.199 163.233C221.367 161.801 216.52 161.57 211.565 162.51C211.043 162.609 211.275 163.367 211.78 163.295C216.569 162.613 221.354 162.691 226.121 163.514C226.302 163.544 226.381 163.287 226.199 163.233Z" fill="#AF4545"/>
<path d="M237.689 182.482C234.301 178.697 229.573 175.642 224.561 174.584C224.198 174.509 224.075 174.998 224.41 175.131C229.293 177.061 233.483 179.248 237.524 182.647C237.638 182.742 237.79 182.595 237.689 182.482Z" fill="#AF4545"/>
<path d="M232.68 187.39C225.854 181.457 217.68 176.118 208.84 173.816C208.572 173.746 208.373 174.16 208.644 174.28C217.174 178.07 225.073 181.785 232.463 187.606C232.614 187.725 232.83 187.521 232.68 187.39Z" fill="#AF4545"/>
<path d="M228.647 191.652C223.451 186.962 217.404 182.933 211.295 179.544C210.934 179.344 210.622 179.881 210.973 180.095C217.001 183.788 222.7 187.81 228.479 191.868C228.608 191.958 228.763 191.756 228.647 191.652Z" fill="#AF4545"/>
<path d="M180.698 223.139C179.048 219.574 176.42 215.865 173.332 213.401C173.094 213.211 172.643 213.466 172.864 213.761C175.302 217.002 177.98 220.11 180.504 223.288C180.598 223.406 180.753 223.256 180.698 223.139Z" fill="#AF4545"/>
<path d="M185.108 225.82C183.468 221.828 180.508 217.778 177.358 214.833C176.958 214.458 176.451 215.007 176.773 215.418C179.501 218.905 182.135 222.481 184.877 225.954C184.962 226.059 185.16 225.945 185.108 225.82Z" fill="#AF4545"/>
<path d="M146.105 244.048C146.622 238.636 145.369 232.232 143.114 227.311C142.892 226.825 142.16 227.177 142.277 227.665C142.943 230.399 143.87 233.06 144.473 235.814C145.072 238.548 145.363 241.338 145.977 244.065L146.105 244.048Z" fill="#AF4545"/>
<path d="M150.045 241.775C150.591 237.841 148.654 232.785 146.768 229.386C146.562 229.016 145.946 229.265 146.076 229.678C147.284 233.494 149.597 237.652 149.645 241.722C149.648 241.941 150.012 242.01 150.045 241.775Z" fill="#AF4545"/>
<path d="M94.6596 230.25C95.1307 228.697 95.3774 227.125 96.0047 225.615C96.6381 224.086 97.496 222.671 98.2001 221.176C98.4133 220.721 97.8047 220.354 97.522 220.779C95.8559 223.292 93.72 227.132 94.5617 230.25H94.6596Z" fill="#AF4545"/>
<path d="M97.9722 230.808C98.5958 226.792 99.973 223.182 102.02 219.68C102.202 219.367 101.748 219.121 101.542 219.403C99.1152 222.724 97.8991 226.697 97.873 230.794L97.9722 230.808Z" fill="#AF4545"/>
<path d="M129.915 225.147C129.929 223.269 129.939 221.391 129.947 219.513C129.972 219.513 129.997 219.513 130.02 219.512C135.828 219.46 142.092 218.964 148.434 217.934C149.436 219.471 150.347 221.038 151.174 222.646C140.329 224.745 131.679 225.097 129.915 225.147ZM128.958 225.139C126.672 225.059 118.37 224.648 108.075 222.661C108.893 221.068 109.794 219.514 110.784 217.99C116.962 219.014 123.11 219.508 128.926 219.517C128.934 221.39 128.944 223.264 128.958 225.139ZM106.806 222.41C104.989 222.041 103.113 221.623 101.206 221.15C101.465 220.657 101.736 220.168 102.021 219.681C102.148 219.464 101.969 219.279 101.778 219.279C101.694 219.279 101.607 219.316 101.544 219.403C101.172 219.912 100.827 220.437 100.511 220.976C96.7316 220.015 92.8304 218.834 88.9676 217.382C90.18 216.024 91.4532 214.702 92.7932 213.404C98.1808 215.313 103.798 216.752 109.413 217.754C108.459 219.255 107.589 220.811 106.806 222.41ZM87.5594 216.84C80.5491 214.076 73.7408 210.397 68.1135 205.496C69.4388 204.475 70.8083 203.507 72.2237 202.592C77.8265 206.871 84.3734 210.278 91.349 212.88C90.0065 214.123 88.7432 215.447 87.5594 216.84ZM67.1721 204.655C63.5204 201.304 60.4189 197.407 58.1517 192.873C56.8892 190.348 55.8296 187.429 55.004 184.204C55.8175 183.832 56.6349 183.466 57.4592 183.105C59.7981 189.215 63.3583 194.767 68.3731 199.37C69.2505 200.176 70.1584 200.954 71.096 201.708C69.7469 202.64 68.4374 203.623 67.1721 204.655ZM54.7023 182.969C53.5711 178.094 52.9576 172.572 52.9639 166.695C53.3116 166.679 53.6579 166.664 54.0055 166.65C54.3494 171.958 55.3246 177.133 57.0427 181.977C56.2602 182.297 55.4796 182.628 54.7023 182.969ZM52.9779 165.232C53.0602 160.767 53.4971 156.114 54.3324 151.391C54.4287 151.408 54.5251 151.425 54.622 151.442C53.9866 156.036 53.7324 160.66 53.9275 165.199C53.6109 165.208 53.2952 165.22 52.9779 165.232ZM54.7953 150.252C54.7149 150.232 54.6331 150.212 54.5527 150.192C54.9852 147.924 55.5101 145.642 56.1319 143.361C55.5967 145.637 55.1483 147.939 54.7953 150.252Z" fill="#6A1D1A"/>
<path d="M54.6206 151.442C54.5238 151.425 54.4274 151.409 54.3311 151.392C54.4012 150.994 54.4749 150.592 54.5513 150.193C54.6318 150.213 54.7136 150.232 54.7939 150.252C54.7334 150.648 54.6753 151.046 54.6206 151.442Z" fill="#460F0F"/>
<path d="M52.9639 166.695C52.9644 166.211 52.9692 165.722 52.9779 165.233C53.2951 165.22 53.6108 165.209 53.9275 165.199C53.9483 165.685 53.9739 166.166 54.0054 166.651C53.6578 166.664 53.3116 166.679 52.9639 166.695Z" fill="#460F0F"/>
<path d="M55.0029 184.204C54.8983 183.797 54.7981 183.386 54.7012 182.969C55.4784 182.628 56.2591 182.298 57.0415 181.978C57.1757 182.356 57.3146 182.733 57.4581 183.106C56.6338 183.466 55.8164 183.832 55.0029 184.204Z" fill="#460F0F"/>
<path d="M68.1123 205.497C67.7961 205.222 67.4793 204.938 67.1709 204.655C68.4362 203.624 69.7457 202.641 71.0948 201.709C71.4657 202.007 71.8434 202.302 72.2225 202.593C70.8071 203.507 69.4376 204.476 68.1123 205.497Z" fill="#460F0F"/>
<path d="M88.9669 217.382C88.497 217.206 88.0259 217.025 87.5586 216.84C88.7425 215.447 90.0057 214.123 91.3483 212.879C91.8268 213.058 92.3102 213.233 92.7925 213.404C91.4524 214.702 90.1793 216.023 88.9669 217.382Z" fill="#460F0F"/>
<path d="M108.074 222.661C107.655 222.581 107.232 222.496 106.806 222.411C107.588 220.812 108.458 219.256 109.413 217.755C109.869 217.836 110.328 217.914 110.784 217.99C109.793 219.515 108.892 221.068 108.074 222.661Z" fill="#460F0F"/>
<path d="M152.44 222.395C151.652 220.783 150.773 219.215 149.81 217.702C155.419 216.724 161.066 215.323 166.493 213.435C167.814 214.716 169.069 216.019 170.265 217.359C164.216 219.638 158.066 221.252 152.44 222.395ZM171.675 216.815C170.508 215.445 169.266 214.142 167.946 212.917C174.924 210.359 181.492 206.973 187.08 202.624C188.461 203.518 189.8 204.464 191.095 205.461C186.471 209.497 181.043 212.708 175.363 215.26C174.713 214.587 174.035 213.961 173.332 213.401C173.275 213.355 173.206 213.335 173.136 213.335C172.917 213.335 172.695 213.537 172.864 213.761C173.355 214.414 173.854 215.059 174.361 215.703C173.47 216.088 172.574 216.459 171.675 216.815ZM192.036 204.618C190.797 203.607 189.515 202.647 188.193 201.733C191.388 199.109 194.233 196.152 196.614 192.832C198.774 189.825 200.446 186.535 201.708 183.069C202.535 183.429 203.357 183.796 204.174 184.168C203.347 187.409 202.283 190.339 201.016 192.873C198.758 197.39 195.671 201.274 192.036 204.618ZM204.474 182.935C203.687 182.59 202.897 182.257 202.105 181.934C203.737 177.062 204.592 171.871 204.872 166.636C205.316 166.653 205.761 166.672 206.204 166.691C206.211 172.555 205.601 178.067 204.474 182.935ZM206.19 165.229C205.772 165.212 205.353 165.199 204.935 165.186C205.09 160.576 204.815 155.955 204.247 151.51C204.444 151.475 204.641 151.44 204.838 151.406C205.671 156.121 206.108 160.771 206.19 165.229ZM204.091 150.343C203.914 149.078 203.714 147.83 203.495 146.601C203.092 144.351 202.602 142.124 202.028 139.93C203.111 143.357 203.969 146.8 204.62 150.213C204.443 150.256 204.267 150.299 204.091 150.343Z" fill="#6A1D1A"/>
<path d="M204.246 151.511C204.196 151.12 204.144 150.73 204.09 150.343C204.266 150.3 204.442 150.256 204.619 150.213C204.695 150.612 204.768 151.009 204.837 151.407C204.64 151.44 204.443 151.475 204.246 151.511Z" fill="#460F0F"/>
<path d="M206.205 166.691C205.761 166.672 205.316 166.653 204.872 166.636C204.898 166.152 204.919 165.67 204.935 165.186C205.353 165.199 205.772 165.212 206.19 165.229C206.2 165.72 206.205 166.204 206.205 166.691Z" fill="#460F0F"/>
<path d="M204.173 184.168C203.356 183.796 202.534 183.429 201.707 183.068C201.845 182.693 201.976 182.313 202.104 181.934C202.896 182.256 203.686 182.59 204.473 182.935C204.376 183.351 204.277 183.761 204.173 184.168Z" fill="#460F0F"/>
<path d="M191.095 205.46C189.8 204.463 188.461 203.517 187.08 202.624C187.456 202.331 187.828 202.034 188.193 201.732C189.515 202.646 190.797 203.607 192.036 204.617C191.728 204.901 191.413 205.184 191.095 205.46Z" fill="#460F0F"/>
<path d="M170.265 217.359C169.069 216.019 167.815 214.716 166.493 213.436C166.979 213.267 167.464 213.094 167.946 212.918C169.266 214.142 170.508 215.445 171.675 216.815C171.206 217 170.735 217.182 170.265 217.359Z" fill="#460F0F"/>
<path d="M151.173 222.646C150.346 221.039 149.435 219.472 148.434 217.935C148.891 217.86 149.351 217.782 149.81 217.703C150.773 219.215 151.652 220.783 152.44 222.395C152.015 222.48 151.592 222.565 151.173 222.646Z" fill="#460F0F"/>
<path d="M129.584 225.156C129.584 225.156 129.367 225.153 128.957 225.139C128.943 223.265 128.933 221.39 128.925 219.517C128.974 219.517 129.025 219.517 129.075 219.517C129.367 219.517 129.656 219.516 129.946 219.513C129.938 221.391 129.928 223.269 129.914 225.148C129.697 225.155 129.584 225.156 129.584 225.156Z" fill="#460F0F"/>
<path d="M174.36 215.702C173.853 215.059 173.353 214.413 172.862 213.761C172.694 213.536 172.915 213.334 173.135 213.334C173.204 213.334 173.274 213.354 173.331 213.4C174.034 213.96 174.712 214.586 175.361 215.26C175.028 215.41 174.694 215.556 174.36 215.702Z" fill="#872928"/>
<path d="M193.237 118.753C188.235 110.301 181.682 102.796 173.702 96.7018C176.918 90.9708 182.095 88.422 187.151 88.422C189.317 88.422 191.459 88.8894 193.415 89.7758C193.507 89.9196 193.662 90.0187 193.826 90.0187C193.853 90.0187 193.881 90.0162 193.91 90.01C198.586 92.3357 202.081 97.1059 202.047 103.613C202.025 107.727 201.076 110.808 199.703 113.111C197.721 114.822 195.8 116.597 193.945 118.421C193.705 118.541 193.469 118.651 193.237 118.753Z" fill="#6A1D1A"/>
<path d="M193.825 90.0186C193.662 90.0186 193.507 89.9194 193.415 89.7756C193.581 89.8512 193.746 89.9293 193.91 90.0099C193.881 90.0161 193.853 90.0186 193.825 90.0186Z" fill="#460F0F"/>
<path d="M193.945 118.421C195.801 116.597 197.721 114.822 199.704 113.111C198.099 115.801 195.915 117.433 193.945 118.421Z" fill="#460F0F"/>
<path d="M65.8597 118.682C65.6771 118.6 65.4917 118.512 65.3044 118.418C63.4521 116.597 61.5349 114.825 59.5559 113.117C58.1806 110.812 57.2311 107.73 57.2092 103.614C57.1748 97.1065 60.6681 92.3363 65.3445 90.0107C65.3721 90.0169 65.4002 90.0194 65.4278 90.0194C65.5915 90.0194 65.7459 89.9202 65.8374 89.7764C67.7957 88.89 69.94 88.4214 72.107 88.4214C77.2443 88.4214 82.5104 91.0569 85.7125 96.9863C79.2375 101.557 73.507 107.216 68.8848 113.91C67.8394 115.425 66.8283 117.019 65.8597 118.682Z" fill="#6A1D1A"/>
<path d="M65.428 90.0186C65.4004 90.0186 65.3722 90.0161 65.3447 90.0099C65.5074 89.9293 65.6725 89.8512 65.8376 89.7756C65.7461 89.9194 65.5917 90.0186 65.428 90.0186Z" fill="#460F0F"/>
<path d="M65.3041 118.417C63.3375 117.429 61.1574 115.8 59.5557 113.116C61.5347 114.824 63.4518 116.596 65.3041 118.417Z" fill="#460F0F"/>
<path d="M101.204 221.15C100.973 221.093 100.742 221.035 100.51 220.977C100.826 220.438 101.171 219.913 101.542 219.404C101.606 219.317 101.692 219.28 101.777 219.28C101.968 219.28 102.146 219.464 102.02 219.681C101.735 220.169 101.463 220.658 101.204 221.15Z" fill="#872928"/>
<path d="M171.624 96.3105C148.746 80.2047 110.422 80.2047 87.545 96.3105C53.4397 120.318 50.1018 166.952 60.2574 187.263C75.4819 217.712 129.585 218.595 129.585 218.595C129.585 218.595 183.686 217.712 198.91 187.263C209.066 166.952 205.728 120.318 171.624 96.3105Z" fill="#FFC46E"/>
<path d="M145.321 127.282C150.896 110.4 158.484 98.6744 163.906 91.7683C143.551 81.7332 115.615 81.7332 95.2598 91.7683C100.682 98.6744 108.27 110.4 113.845 127.282C123.502 156.528 118.052 166.711 118.052 166.711H141.114C141.114 166.711 135.664 156.528 145.321 127.282Z" fill="#FFE6C2"/>
<path d="M127.928 217.662C112.784 217.662 96.434 213.556 83.2527 207.07C70.0471 200.571 60.3879 190.334 57.4327 175.68C57.0331 173.701 56.7247 171.7 56.5029 169.685C57.3657 174.054 58.6404 177.953 60.2568 181.186C75.4813 211.635 129.584 212.518 129.584 212.518C129.584 212.518 183.685 211.635 198.91 181.186C201.16 176.686 202.748 170.893 203.485 164.34C203.173 171.183 201.812 177.916 199.243 184.263C189.321 208.787 156.64 215.996 132.982 217.503C131.317 217.61 129.63 217.662 127.928 217.662Z" fill="#FFAD4E"/>
<path d="M148.264 177.833C144.056 167.931 137.94 166.711 129.584 166.711C121.228 166.711 115.111 167.931 110.904 177.833C103.999 194.083 106.452 207.69 129.584 207.69C152.715 207.69 155.169 194.083 148.264 177.833Z" fill="#FFE6C2"/>
<path d="M172.092 95.5073C139.583 73.3595 91.2353 81.5375 68.8849 113.91C53.0046 136.912 45.3007 178.191 68.3721 199.37C83.9002 213.626 109.26 219.703 130.019 219.512C152.822 219.304 182.659 212.278 196.614 192.832C205.913 179.876 206.194 161.699 203.494 146.601C199.835 126.141 189.008 107.73 172.092 95.5073C171.122 94.8057 170.192 96.4172 171.154 97.1127C196.454 115.395 211.426 154.155 199.244 184.264C189.321 208.788 156.64 215.997 132.982 217.504C116.501 218.555 97.9158 214.286 83.2531 207.071C70.0475 200.571 60.3883 190.334 57.4331 175.68C54.3973 160.632 56.6078 144.325 62.2866 130.166C70.2515 110.308 86.1688 94.2416 106.944 88.2714C128.071 82.202 152.777 84.5933 171.154 97.1127C172.146 97.7883 173.077 96.178 172.092 95.5073Z" fill="#5B1A1A"/>
<path d="M71.9076 116.449C71.9076 116.449 59.4214 115.467 59.343 100.635C59.2557 84.2303 82.2927 79.1874 88.4737 97.6026L71.9076 116.449Z" fill="#FFC46E"/>
<path d="M71.9086 115.52C62.1167 114.592 57.682 102.401 61.6775 94.2316C63.8798 89.7279 68.6603 86.8779 73.6378 86.8196C80.5321 86.739 85.3122 91.7522 87.5783 97.8502C87.9911 98.9621 89.7899 98.4811 89.3709 97.3555C87.0713 91.1684 82.6172 85.9432 75.7346 85.0878C69.8012 84.3502 63.6861 87.1667 60.5967 92.3336C54.9373 101.795 60.3376 116.281 71.9086 117.38C73.0994 117.493 73.0921 115.633 71.9086 115.52Z" fill="#5B1A1A"/>
<path d="M72.5584 113.633C72.5584 113.633 64.9853 111.478 64.9756 103.018C64.9644 92.6912 76.6294 85.6722 83.1509 101.169" fill="#FFE6C2"/>
<path d="M72.8882 112.438C66.921 110.644 64.7874 103.476 67.2493 98.1199C68.3829 95.6517 70.6835 93.3087 73.586 93.3757C77.9927 93.4761 80.5383 98.3219 82.0817 101.794C82.7276 103.25 84.8648 101.99 84.2226 100.543C82.3582 96.3484 79.2595 91.3599 74.1667 90.9323C70.3992 90.6149 67.1553 93.0942 65.4082 96.2727C61.6737 103.071 64.4838 112.501 72.2297 114.829C73.7605 115.289 74.4146 112.897 72.8882 112.438Z" fill="#5B1A1A"/>
<path d="M187.346 116.449C187.346 116.449 199.832 115.467 199.911 100.635C199.998 84.2303 176.961 79.1874 170.78 97.6026L187.346 116.449Z" fill="#FFC46E"/>
<path d="M187.346 117.38C198.918 116.281 204.317 101.795 198.658 92.3336C195.664 87.3266 189.815 84.5077 184.043 85.037C176.919 85.6891 172.254 90.9762 169.884 97.3555C169.466 98.4787 171.262 98.9634 171.676 97.8501C173.883 91.9146 178.4 87.0093 185.092 86.832C190.266 86.6957 195.27 89.558 197.577 94.2316C201.601 102.382 197.106 114.594 187.346 115.52C186.164 115.633 186.153 117.493 187.346 117.38Z" fill="#5B1A1A"/>
<path d="M186.695 113.633C186.695 113.633 194.267 111.478 194.277 103.018C194.29 92.6912 182.623 85.6722 176.103 101.169" fill="#FFE6C2"/>
<path d="M187.026 114.83C194.782 112.498 197.563 103.079 193.846 96.2735C192.156 93.1805 189.033 90.7421 185.378 90.9156C180.14 91.1623 176.931 96.271 175.032 100.544C174.39 101.99 176.526 103.253 177.173 101.795C178.68 98.4032 181.054 93.8115 185.251 93.4173C188.334 93.126 190.793 95.4937 192.006 98.1206C194.476 103.472 192.327 110.647 186.366 112.439C184.842 112.896 185.491 115.291 187.026 114.83Z" fill="#5B1A1A"/>
<path d="M79.2395 185.961C65.2623 182.757 69.7323 173.199 79.2395 175.473C92.4006 178.62 90.6762 188.585 79.2395 185.961Z" fill="#FF8285"/>
<path d="M179.929 185.961C193.905 182.757 189.435 173.199 179.929 175.473C166.768 178.62 168.492 188.585 179.929 185.961Z" fill="#FF8285"/>
<path d="M165.651 143.917C180.15 143.55 182.904 160.985 177.948 168.877C175.471 172.823 172.373 175.566 165.651 175.566C159.147 175.566 155.833 172.823 153.355 168.877C148.399 160.985 151.152 143.55 165.651 143.917Z" fill="white"/>
<path d="M152.704 160.26C152.704 166.521 156.811 171.598 161.878 171.598C166.943 171.598 171.05 166.521 171.05 160.26C171.05 153.997 166.943 148.92 161.878 148.92C156.811 148.92 152.704 153.997 152.704 160.26Z" fill="#5B1A1A"/>
<path d="M180.924 147.182L146.719 151.525C146.719 151.525 158.132 128.398 180.924 147.182Z" fill="#FFC46E"/>
<path d="M180.925 146.251C174.817 147.027 168.71 147.802 162.602 148.578C158.655 149.079 154.707 149.58 150.76 150.082C149.8 150.203 148.56 150.583 147.593 150.483C147.426 150.466 146.957 150.654 146.779 150.588C147.079 150.775 147.379 150.962 147.679 151.149C147.888 149.195 148.498 147.363 149.507 145.652C150.051 144.59 148.447 143.648 147.902 144.714C146.78 146.904 145.973 149.058 145.791 151.525C145.758 151.981 146.247 152.514 146.72 152.454C158.123 151.006 169.524 149.559 180.925 148.111C182.097 147.963 182.11 146.101 180.925 146.251Z" fill="#5B1A1A"/>
<path d="M172.012 133.782C170.381 133.945 157.705 136.142 155.038 137.33C152.37 138.516 153.81 142.195 155.954 141.779C158.098 141.364 172.803 138.463 172.803 138.463C175.688 137.434 174.528 133.53 172.012 133.782Z" fill="#5B1A1A"/>
<path d="M93.4311 143.917C78.9316 143.55 76.1787 160.985 81.1336 168.877C83.6117 172.823 86.7096 175.566 93.4311 175.566C99.9344 175.566 103.25 172.823 105.727 168.877C110.684 160.985 107.93 143.55 93.4311 143.917Z" fill="white"/>
<path d="M106.377 160.26C106.377 166.521 102.271 171.598 97.2045 171.598C92.1392 171.598 88.0322 166.521 88.0322 160.26C88.0322 153.997 92.1392 148.92 97.2045 148.92C102.271 148.92 106.377 153.997 106.377 160.26Z" fill="#5B1A1A"/>
<path d="M78.1572 147.182L112.361 151.525C112.361 151.525 100.948 128.398 78.1572 147.182Z" fill="#FFC46E"/>
<path d="M78.1571 148.111C89.5586 149.559 100.96 151.007 112.361 152.454C112.836 152.514 113.324 151.978 113.291 151.525C113.11 149.058 112.303 146.904 111.181 144.714C110.637 143.649 109.031 144.589 109.576 145.652C110.438 147.019 110.978 148.484 111.193 150.047C111.083 151.328 111.452 151.507 112.304 150.588C112.14 150.651 111.852 150.503 111.676 150.507C110.593 150.533 109.396 150.218 108.322 150.082C104.375 149.58 100.428 149.079 96.4797 148.578C90.3719 147.802 84.2653 147.027 78.1571 146.251C76.9731 146.101 76.9847 147.962 78.1571 148.111Z" fill="#5B1A1A"/>
<path d="M87.0709 133.782C88.7023 133.945 101.378 136.142 104.046 137.33C106.712 138.516 105.273 142.195 103.129 141.779C100.985 141.364 86.2787 138.463 86.2787 138.463C83.3953 137.434 84.5556 133.53 87.0709 133.782Z" fill="#5B1A1A"/>
<path d="M140.092 190.28C140.092 190.28 139.352 196.224 138.615 196.076C137.878 195.929 135.962 191.359 135.962 191.359C135.962 191.359 137.588 191.485 140.092 190.28Z" fill="white"/>
<path d="M119.163 190.28C119.163 190.28 119.903 196.224 120.641 196.076C121.377 195.929 123.294 191.359 123.294 191.359C123.294 191.359 121.666 191.485 119.163 190.28Z" fill="white"/>
<path d="M128.654 176.886C128.654 180.829 128.654 184.774 128.654 188.72C128.654 189.916 130.514 189.917 130.514 188.72C130.514 184.774 130.514 180.829 130.514 176.886C130.514 175.688 128.654 175.687 128.654 176.886Z" fill="#5B1A1A"/>
<path d="M114.307 186.226C117.045 192.545 125.352 194.218 130.284 189.377C131.139 188.538 129.824 187.222 128.969 188.062C124.833 192.121 118.149 190.448 115.914 185.287C115.439 184.193 113.837 185.138 114.307 186.226Z" fill="#5B1A1A"/>
<path d="M143.338 185.288C141.101 190.454 134.419 192.121 130.283 188.062C129.428 187.224 128.113 188.537 128.968 189.378C133.901 194.218 142.207 192.547 144.944 186.226C145.415 185.139 143.813 184.192 143.338 185.288Z" fill="#5B1A1A"/>
<path d="M145.146 164.207C143.032 160.191 129.583 160.675 129.583 160.675C129.583 160.675 116.133 160.191 114.019 164.207C111.906 168.221 129.583 181.178 129.583 181.178C129.583 181.178 147.258 168.221 145.146 164.207Z" fill="#5B1A1A"/>
<path d="M140.796 164.949C140.784 164.949 140.771 164.949 140.759 164.948C136.719 164.727 132.763 164.11 128.701 164.11C125.475 164.11 122.235 164.52 119.009 164.52C118.221 164.52 117.432 164.496 116.645 164.435L116.624 164.282C120.138 162.81 124.477 162.196 128.835 162.196C133.099 162.196 137.382 162.785 140.924 163.731C141.58 163.905 141.468 164.949 140.796 164.949Z" fill="#892727"/>
<path d="M109.762 173.234C113.038 174.712 116.088 176.414 119.217 178.164C119.551 178.351 119.803 177.88 119.51 177.662C116.684 175.561 113.212 174.02 109.829 173.075L109.762 173.234Z" fill="#5B1A1A"/>
<path d="M97.6234 179.032C104.631 178.42 111.211 178.578 118.001 180.655C118.458 180.795 118.654 180.078 118.198 179.941C111.544 177.936 104.416 177.168 97.585 178.746C97.4288 178.782 97.4585 179.046 97.6234 179.032Z" fill="#5B1A1A"/>
<path d="M100.629 184.361C106.249 182.492 111.666 182.289 117.465 183.293C117.918 183.371 118.12 182.704 117.658 182.592C111.931 181.196 105.944 181.896 100.55 184.175L100.629 184.361Z" fill="#5B1A1A"/>
<path d="M149.339 173.075C145.958 174.019 142.482 175.561 139.657 177.662C139.365 177.88 139.616 178.351 139.951 178.164C143.08 176.414 146.13 174.712 149.406 173.234L149.339 173.075Z" fill="#5B1A1A"/>
<path d="M161.581 178.746C154.75 177.168 147.622 177.936 140.968 179.941C140.513 180.077 140.708 180.795 141.165 180.655C147.957 178.577 154.536 178.42 161.541 179.032C161.705 179.046 161.74 178.783 161.581 178.746Z" fill="#5B1A1A"/>
<path d="M158.616 184.175C153.222 181.896 147.235 181.196 141.508 182.592C141.046 182.704 141.248 183.371 141.701 183.293C147.495 182.289 152.925 182.496 158.537 184.361L158.616 184.175Z" fill="#5B1A1A"/>
</g>
</svg>
