<svg width="263" height="263" viewBox="0 0 263 263" fill="none" xmlns="http://www.w3.org/2000/svg">
<circle cx="131.5" cy="131.5" r="131.5" fill="#FFADAF"/>
<mask id="mask0_346_12594" style="mask-type:alpha" maskUnits="userSpaceOnUse" x="0" y="0" width="263" height="263">
<circle cx="131.5" cy="131.5" r="131.5" fill="#D9D9D9"/>
</mask>
<g mask="url(#mask0_346_12594)">
<path d="M135.828 256.612C100.455 258.741 56.9165 246.662 39.5997 220.662C22.2843 194.664 54.9338 205.422 39.5997 183.85C24.267 162.279 16.5999 126.42 39.5997 81.5603C62.6009 36.7024 147.929 -2.38599 207.816 66.0191C277.072 145.124 206.363 183.372 226.92 193.487C247.049 203.389 226.673 251.145 135.828 256.612Z" fill="#FF8285"/>
<path d="M22.5571 179.674C12.4379 189.507 32.8337 202.042 37.2275 194.512C41.6226 186.981 28.6995 173.707 22.5571 179.674Z" fill="#FF8285"/>
<path d="M23.2402 173.234C17.7813 175.746 14.2598 168.253 19.774 164.322C25.2867 160.393 28.7005 170.721 23.2402 173.234Z" fill="#FF8285"/>
<path d="M228.778 187.491C224.292 183.967 240.908 162.129 246.027 170.471C251.144 178.816 233.752 191.401 228.778 187.491Z" fill="#FF8285"/>
<path d="M235.448 193.487C233.448 191.69 245.502 186.662 246.957 193.487C248.412 200.31 242.121 199.48 235.448 193.487Z" fill="#FF8285"/>
<path d="M163.064 203.866H101.105C70.1261 206.717 55.7705 241.668 55.7705 241.668C80.0722 263.268 132.085 262.819 132.085 262.819C132.085 262.819 184.098 263.268 208.399 241.668C208.399 241.668 194.044 206.717 163.064 203.866Z" fill="#FFD2A8"/>
<path d="M66.2305 224.574C71.2908 228.218 78.9196 233.199 81.2242 231.923C83.5473 230.636 79.3493 220.969 76.1795 214.457C72.2964 217.611 68.9847 221.13 66.2305 224.574Z" fill="#702222"/>
<path d="M73.1299 244.169C74.7155 242.195 67.3306 234.836 62.1838 230.109C59.8082 233.666 58.1106 236.796 57.0625 238.902C62.4859 241.827 71.4819 246.222 73.1299 244.169Z" fill="#702222"/>
<path d="M197.936 224.574C192.877 228.218 185.248 233.199 182.942 231.923C180.619 230.636 184.817 220.969 187.987 214.457C191.872 217.611 195.182 221.13 197.936 224.574Z" fill="#702222"/>
<path d="M191.038 244.169C189.452 242.195 196.839 234.836 201.985 230.109C204.36 233.666 206.057 236.796 207.107 238.902C201.683 241.827 192.686 246.222 191.038 244.169Z" fill="#702222"/>
<path d="M173.339 241.668C173.339 241.668 177.469 238.19 174.419 233.342C171.058 227.999 163.109 222.766 163.109 222.766C170.482 219.198 157.898 207.368 152.676 204.47H111.492C106.271 207.368 93.6854 219.198 101.059 222.766C101.059 222.766 93.111 227.999 89.7497 233.342C86.7005 238.19 90.8305 241.668 90.8305 241.668C90.8305 241.668 81.7962 246.21 81.2246 255.205C105.322 263.047 132.082 262.819 132.085 262.819C132.087 262.819 158.846 263.047 182.943 255.205C182.372 246.21 173.339 241.668 173.339 241.668Z" fill="#FFE8D3"/>
<path d="M100.594 214.716C93.6417 212.896 88.387 210.916 85.5576 209.751C88.9245 208.133 92.4035 206.999 96.0215 206.241C99.2664 207.198 102.551 208.027 105.864 208.726C103.887 210.538 101.941 212.654 100.594 214.716ZM163.559 214.695C162.146 212.537 160.083 210.326 158.013 208.465C161.227 207.755 164.411 206.923 167.558 205.978C171.331 206.66 175.032 207.789 178.75 209.653C175.995 210.796 170.671 212.827 163.559 214.695Z" fill="#FFBF8B"/>
<path d="M132.035 218.889C119.925 218.889 109.013 216.92 100.595 214.715C101.942 212.653 103.888 210.537 105.865 208.725C112.597 210.145 119.445 211.025 126.293 211.328C127.977 211.404 129.665 211.44 131.351 211.44C140.303 211.44 149.263 210.401 158.014 208.465C160.083 210.326 162.147 212.536 163.559 214.694C155.128 216.906 144.185 218.889 132.035 218.889Z" fill="#FFD3AF"/>
<path d="M209.424 241.384C205.291 231.463 198.407 222.064 190.327 215.031C180.257 206.264 168.91 202.802 155.883 202.802C141.395 202.802 126.906 202.802 112.417 202.802C99.9164 202.802 89.1277 203.802 78.4058 211.42C68.1504 218.707 59.5926 229.748 54.7465 241.384C54.2203 242.647 56.2782 243.199 56.7973 241.951C60.6336 232.737 67.593 223.285 75.3466 216.536C85.7594 207.472 97.0657 204.93 110.264 204.93C123.323 204.93 136.384 204.93 149.443 204.93C161.541 204.93 171.908 204.945 182.676 211.898C193.402 218.825 202.595 230.477 207.373 241.951C207.891 243.196 209.95 242.65 209.424 241.384Z" fill="#451816"/>
<path d="M165.74 231.563C168.304 234.403 168.857 237.412 169.232 241.085C169.284 241.601 169.971 241.728 170.147 241.21C171.416 237.486 169.161 233.203 166.143 231.04C165.822 230.812 165.499 231.295 165.74 231.563Z" fill="#FFD2A8"/>
<path d="M165.244 237.521C166.099 240.41 166.523 243.346 166.7 246.349C166.742 247.041 167.788 247.054 167.787 246.349C167.781 243.222 167.096 240.224 165.908 237.338C165.743 236.942 165.115 237.084 165.244 237.521Z" fill="#FFD2A8"/>
<path d="M161.411 236.162C162.705 239.201 163.267 242.392 163.533 245.674C163.591 246.375 164.632 246.397 164.641 245.674C164.682 242.164 163.685 238.871 162.099 235.759C161.861 235.291 161.216 235.702 161.411 236.162Z" fill="#FFD2A8"/>
<path d="M117.876 245.288C116.818 247.604 116.544 250.174 116.798 252.691C116.888 253.576 118.286 253.586 118.194 252.691C117.951 250.277 118.246 248.019 118.768 245.664C118.88 245.156 118.119 244.76 117.876 245.288Z" fill="#FFD2A8"/>
<path d="M119.557 248.644C119.246 251.378 119.469 254.003 120.184 256.658C120.429 257.567 121.871 257.172 121.595 256.27C120.833 253.789 120.501 251.235 120.576 248.644C120.595 247.973 119.629 248.007 119.557 248.644Z" fill="#FFD2A8"/>
<path d="M122.457 245.944C122.393 248.291 122.614 250.599 123.107 252.892C123.308 253.825 124.742 253.431 124.539 252.496C124.067 250.332 123.865 248.16 123.919 245.944C123.943 245.002 122.483 245.004 122.457 245.944Z" fill="#FFD2A8"/>
<path d="M107.226 212.465C105.595 214.112 104.413 216.015 103.574 218.171C103.347 218.752 104.299 219.019 104.516 218.43C105.246 216.429 106.352 214.593 107.726 212.966C108.017 212.623 107.552 212.135 107.226 212.465Z" fill="#FFD2A8"/>
<path d="M108.471 215.141C107.036 217.465 105.921 219.949 105.262 222.601C105.088 223.295 106.128 223.581 106.329 222.896C107.073 220.362 108.061 217.967 109.427 215.701C109.797 215.089 108.845 214.537 108.471 215.141Z" fill="#FFD2A8"/>
<path d="M111.396 214.385C110.585 216.412 109.889 218.473 109.304 220.576C109.123 221.237 110.171 221.524 110.331 220.86C110.84 218.741 111.466 216.659 112.209 214.61C112.396 214.093 111.595 213.894 111.396 214.385Z" fill="#FFD2A8"/>
<path d="M200.549 155.634C200.549 155.634 224.773 163.355 226.543 143.114C228.512 120.591 207.738 106.239 200.549 102.682V155.634Z" fill="#451816"/>
<path d="M200.266 156.66C211.104 160.021 225.026 158.172 227.354 145.112C230.608 126.857 216.461 109.635 201.086 101.762C200.379 101.4 199.484 101.841 199.484 102.682C199.484 120.333 199.484 137.983 199.484 155.634C199.484 157.003 201.612 157.006 201.612 155.634C201.612 137.983 201.612 120.333 201.612 102.682C201.078 102.987 200.545 103.294 200.012 103.6C213.768 110.642 226.174 124.899 225.596 141.09C225.091 155.209 212.369 158.187 200.832 154.609C199.521 154.203 198.96 156.255 200.266 156.66Z" fill="#451816"/>
<path d="M226.27 145.124C226.385 144.484 226.482 143.821 226.543 143.114C228.512 120.591 207.738 106.24 200.549 102.683V112.83C206.83 115.941 223.478 127.287 226.27 145.124Z" fill="#702222"/>
<path d="M227.296 145.407C229.817 126.737 217.169 109.996 201.086 101.762C200.379 101.4 199.484 101.841 199.484 102.682C199.484 106.063 199.484 109.447 199.484 112.83C199.484 113.189 199.684 113.58 200.012 113.747C212.386 120.107 222.632 131.536 225.246 145.407C225.498 146.75 227.549 146.18 227.296 144.84C225.213 133.789 218.642 124.649 209.941 117.716C208.164 116.299 202.392 113.763 201.612 112.594C200.464 110.871 201.612 104.859 201.612 102.682C201.078 102.987 200.545 103.293 200.012 103.6C215.125 111.336 227.635 127.134 225.246 144.84C225.064 146.178 227.113 146.759 227.296 145.407Z" fill="#451816"/>
<path d="M63.6189 155.634C63.6189 155.634 39.3966 163.355 37.6252 143.114C35.6553 120.591 56.4298 106.239 63.6189 102.682V155.634Z" fill="#451816"/>
<path d="M63.3368 154.609C51.8007 158.187 39.0776 155.213 38.5727 141.09C37.9955 124.901 50.4023 110.642 64.1566 103.6C63.6247 103.294 63.0914 102.987 62.5568 102.682C62.5568 120.333 62.5568 137.983 62.5568 155.634C62.5568 157.003 64.6841 157.006 64.6841 155.634C64.6841 137.983 64.6841 120.333 64.6841 102.682C64.6841 101.841 63.7906 101.4 63.0843 101.762C47.6566 109.66 33.64 126.83 36.8155 145.112C39.0875 158.193 53.1069 160.008 63.9041 156.66C65.2075 156.256 64.6501 154.202 63.3368 154.609Z" fill="#451816"/>
<path d="M37.8975 145.124C37.7826 144.484 37.6876 143.821 37.6252 143.114C35.6553 120.591 56.4298 106.24 63.6189 102.683V112.83C57.3389 115.941 40.6915 127.287 37.8975 145.124Z" fill="#702222"/>
<path d="M38.9251 144.839C36.5339 127.137 49.0443 111.338 64.1572 103.6C63.6254 103.293 63.0921 102.987 62.5574 102.682C62.5574 104.78 63.7019 110.976 62.5574 112.594C61.688 113.819 56.0803 116.242 54.2294 117.715C45.5242 124.644 38.9563 133.79 36.8729 144.839C36.6204 146.177 38.6712 146.751 38.9251 145.407C41.5375 131.541 51.7858 120.105 64.1572 113.747C64.4862 113.58 64.6848 113.188 64.6848 112.83C64.6848 109.447 64.6848 106.063 64.6848 102.682C64.6848 101.841 63.7913 101.4 63.085 101.761C47.002 109.996 34.3526 126.737 36.8729 145.407C37.0558 146.757 39.1052 146.181 38.9251 144.839Z" fill="#451816"/>
<path d="M208.957 138.256C205.488 95.8748 183.925 76.293 175.231 69.1067C163.612 59.4995 147.336 55.2872 131.373 55.2872C115.411 55.2872 99.1351 59.4995 87.5154 69.1067C78.8229 76.293 57.2598 95.8748 53.7893 138.256C50.3203 180.638 53.2944 186.834 56.7648 184.108C56.7648 184.108 59.7375 200.715 66.9266 196.749C66.9266 196.749 74.856 204.927 82.5401 200.218C82.5401 200.218 103.869 210.38 131.373 210.38C158.879 210.38 180.208 200.218 180.208 200.218C187.891 204.927 195.82 196.749 195.82 196.749C203.009 200.715 205.982 184.108 205.982 184.108C209.454 186.834 212.426 180.638 208.957 138.256Z" fill="#FFD2A8"/>
<mask id="mask1_346_12594" style="mask-type:luminance" maskUnits="userSpaceOnUse" x="53" y="170" width="157" height="40">
<path d="M131.274 209.315C116.993 209.315 102.61 206.631 89.1892 201.759C87.3328 201.084 84.7827 199.371 82.8241 199.191C82.6426 199.175 82.4639 199.167 82.288 199.167C81.1917 199.167 80.1791 199.465 79.165 199.762C78.1496 200.06 77.1327 200.358 76.0279 200.358C75.4818 200.358 74.9131 200.286 74.3146 200.104C71.8596 199.362 69.494 197.791 67.6786 195.995C67.4659 195.786 67.2205 195.699 66.9667 195.699C66.7752 195.699 66.5795 195.747 66.3894 195.828C65.8491 196.058 65.3385 196.164 64.8563 196.164C60.3789 196.164 58.3905 187.034 57.7891 183.824C57.704 183.366 57.2006 183.036 56.7269 183.036C56.5482 183.036 56.3723 183.082 56.2276 183.189C56.0106 183.348 55.8121 183.418 55.6291 183.418C53.913 183.418 53.6323 177.065 53.5628 176.217C53.411 174.371 53.3188 172.519 53.2734 170.661C53.845 172.899 54.6151 173.767 55.4731 173.767C55.8873 173.767 56.3212 173.564 56.7652 173.217C56.7652 173.217 59.1379 186.471 64.7684 186.469C65.4406 186.469 66.1597 186.28 66.9269 185.858C66.9269 185.858 71.7079 190.789 77.4419 190.789C79.0927 190.789 80.823 190.379 82.5405 189.327C82.5405 189.327 103.87 199.489 131.374 199.489C158.879 199.489 180.208 189.327 180.208 189.327C181.926 190.381 183.655 190.789 185.306 190.789C191.04 190.788 195.82 185.858 195.82 185.858C196.588 186.28 197.307 186.469 197.979 186.469C203.61 186.469 205.982 173.217 205.982 173.217C206.426 173.564 206.86 173.767 207.274 173.767C208.117 173.767 208.874 172.93 209.443 170.783C209.414 171.878 209.373 172.972 209.318 174.065C209.268 175.054 208.971 183.397 207.067 183.397C206.897 183.397 206.715 183.332 206.52 183.189C206.374 183.082 206.199 183.036 206.021 183.036C205.548 183.036 205.045 183.366 204.958 183.824C204.358 187.025 202.342 196.161 197.877 196.161C197.399 196.161 196.894 196.056 196.358 195.828C196.169 195.748 195.974 195.7 195.784 195.7C195.527 195.7 195.28 195.787 195.069 195.995C193.547 197.502 191.713 198.749 189.728 199.544C188.609 199.992 187.763 200.15 187.032 200.15C186.165 200.151 185.457 199.93 184.643 199.708C183.828 199.489 182.906 199.269 181.612 199.269C181.34 199.269 181.051 199.277 180.744 199.3C180.736 199.3 180.729 199.3 180.72 199.3C180.63 199.3 180.536 199.268 180.44 199.235C180.343 199.2 180.242 199.168 180.136 199.168C180.113 199.168 180.091 199.169 180.067 199.174C178.129 199.448 175.973 200.871 174.138 201.548C160.513 206.574 145.898 209.302 131.374 209.315C131.341 209.315 131.307 209.315 131.274 209.315Z" fill="white"/>
</mask>
<g mask="url(#mask1_346_12594)">
<path d="M53.2734 209.315H209.443V170.661H53.2734V209.315Z" fill="#FFBF8B"/>
</g>
<path d="M210.021 138.256C207.968 115.709 200.557 93.7317 185.019 76.863C168.682 59.1278 145.65 52.15 121.799 54.7383C101.305 56.9621 84.5657 67.1423 72.3006 83.3699C56.368 104.449 52.8394 129.813 51.553 155.511C51.3445 159.652 47.7734 185.229 55.917 185.674C56.0475 185.681 56.2829 185.558 56.5098 185.433C56.7537 185.3 56.9878 185.165 57.07 185.195C54.8335 184.401 56.0659 184.914 56.3155 186.924C56.6573 189.686 58.3266 193.55 60.1221 195.698C62.2835 198.284 63.4139 197.555 66.161 198.22C66.6446 198.336 66.317 197.637 66.3114 197.637C66.8063 197.742 67.7707 198.944 68.1877 199.21C69.5365 200.072 70.7689 200.977 72.2652 201.599C74.2706 202.434 76.8121 203.08 79.0061 202.617L82.2497 201.251C84.2239 201.275 87.3823 203.371 89.2033 204.02C101.085 208.261 113.687 210.77 126.293 211.329C140.619 211.964 155.073 209.862 168.75 205.613C172.002 204.604 175.651 202.48 178.986 201.91C179.501 201.822 180.159 201.157 180.682 201.166C180.828 201.168 181.262 202.056 181.697 202.112C183.384 202.323 184.53 202.801 186.3 202.662C188.349 202.5 190.296 201.802 192.093 200.823C193.052 200.3 195.438 197.85 196.437 197.637C195.708 197.792 198.434 198.393 198.918 198.314C200.128 198.118 201.078 197.328 201.939 196.519C204.182 194.408 206.06 189.915 206.432 186.924C206.745 184.401 207.622 184.751 205.906 185.335C206.035 185.29 206.28 185.407 206.537 185.524C206.784 185.636 207.043 185.748 207.223 185.717C210.413 185.175 210.735 181.174 211.085 178.523C212.828 165.365 211.071 151.379 210.021 138.256C209.914 136.9 207.785 136.889 207.894 138.256C208.843 150.113 209.922 162.158 209.318 174.066C209.264 175.142 208.917 184.939 206.52 183.189C205.989 182.804 205.077 183.192 204.958 183.825C204.294 187.368 201.895 198.185 196.358 195.829C195.913 195.64 195.436 195.634 195.069 195.996C193.547 197.503 191.713 198.75 189.728 199.545C187.284 200.523 186.147 200.116 184.643 199.709C183.658 199.443 182.514 199.176 180.744 199.301C180.645 199.306 180.544 199.271 180.439 199.235C180.322 199.194 180.198 199.155 180.066 199.175C178.129 199.448 175.973 200.872 174.138 201.548C160.513 206.575 145.898 209.302 131.374 209.316C117.059 209.329 102.64 206.643 89.1892 201.76C87.3327 201.085 84.7827 199.372 82.8241 199.192C81.5178 199.072 80.3421 199.417 79.165 199.763C77.6475 200.208 76.1271 200.654 74.3145 200.105C71.8595 199.363 69.4939 197.792 67.6785 195.996C67.307 195.629 66.8333 195.64 66.3894 195.829C60.8227 198.197 58.4557 187.379 57.7891 183.825C57.6714 183.192 56.758 182.804 56.2276 183.189C53.9754 184.833 53.6393 177.155 53.5627 176.217C52.8479 167.496 53.4535 158.611 54.0023 149.899C55.4546 126.909 59.3846 104.518 73.3119 85.5512C84.6593 70.0965 100.283 59.844 119.57 57.1749C142.347 54.0192 165.288 59.7674 181.59 76.3425C197.949 92.9786 205.806 115.342 207.894 138.256C208.017 139.608 210.146 139.621 210.021 138.256Z" fill="#451816"/>
<path d="M110.92 150.359C107.387 163.478 87.8872 166.208 70.0712 162.255C70.0712 162.255 60.9022 165.663 59.6626 158.63C58.4231 151.598 59.6626 144.409 59.6626 144.409C59.6626 144.409 55.9439 146.642 56.4389 138.461C56.9353 130.282 62.4864 121.943 62.4864 121.943C62.4864 121.943 59.1209 122.842 61.6439 118.567C64.1684 114.291 83.1489 99.143 97.5782 110.202C108.487 118.567 114.59 136.727 110.92 150.359Z" fill="#702222"/>
<path d="M151.829 150.359C155.36 163.478 174.861 166.208 192.677 162.255C192.677 162.255 201.846 165.663 203.086 158.63C204.325 151.598 203.086 144.409 203.086 144.409C203.086 144.409 206.805 146.642 206.308 138.461C205.812 130.282 200.262 121.943 200.262 121.943C200.262 121.943 203.626 122.842 201.103 118.567C198.58 114.291 179.598 99.143 165.17 110.202C154.26 118.567 148.157 136.727 151.829 150.359Z" fill="#702222"/>
<path d="M146.694 153.326C143.537 150.432 131.375 149.905 131.375 149.905C131.375 149.905 119.215 150.432 116.057 153.326C112.901 156.219 107.455 168.633 109.314 174.093C111.897 181.668 121.225 185.392 131.375 185.348C141.527 185.392 150.853 181.668 153.436 174.093C155.297 168.633 149.849 156.219 146.694 153.326Z" fill="#FFE8D3"/>
<path d="M175.221 69.1064C171.189 65.7154 166.526 63.0661 161.541 60.9756C166.3 58.3149 156.136 54.5112 145.37 55.7266C145.37 55.7266 149.006 47.2057 146.788 46.4385C144.57 45.6712 137.779 53.7028 137.779 53.7028C137.779 53.7028 136.673 42.3341 131.369 42.3341C126.065 42.3341 124.96 53.7028 124.96 53.7028C124.96 53.7028 118.168 45.6712 115.95 46.4385C113.733 47.2057 117.368 55.7266 117.368 55.7266C106.602 54.5112 96.4374 58.3149 101.197 60.9756C96.2119 63.0661 91.5487 65.7154 87.5166 69.1064C66.9959 86.3594 60.8676 106.239 60.8662 106.239C66.9959 97.9465 90.6977 87.3224 106.074 91.98C128.942 98.9039 119.875 148.757 119.875 148.757H142.864C142.864 148.757 133.796 98.9039 156.663 91.98C172.04 87.3224 195.742 97.9465 201.87 106.239C201.87 106.239 195.742 86.3594 175.221 69.1064Z" fill="#C9925C"/>
<path d="M175.973 68.3541C171.68 64.9304 167.106 62.2683 162.077 60.0587C162.077 60.67 162.077 61.2827 162.077 61.8953C165.058 59.6545 163.39 57.6605 160.539 56.2493C158.152 55.0679 155.188 54.7587 152.552 54.5488C150.98 54.424 149.41 54.3985 147.836 54.4694C146.542 56.0791 146.182 56.2947 146.757 55.1175C146.576 54.3956 147.754 52.3378 147.937 51.6542C151.057 39.9408 140.348 49.0715 137.026 52.9519C137.632 53.2029 138.237 53.4539 138.843 53.7035C138.396 49.6133 136.894 41.2697 131.369 41.2711C125.846 41.2726 124.341 49.6076 123.896 53.7035C124.5 53.4539 125.106 53.2029 125.711 52.9519C122.366 49.0432 111.71 39.9777 114.802 51.6542C114.918 52.0966 116.101 54.6438 115.982 55.1175C116.555 56.2947 116.195 56.0791 114.901 54.4694C113.713 54.4027 112.526 54.4112 111.34 54.4921C108.347 54.6382 104.939 54.9275 102.199 56.2493C99.3487 57.6236 97.6893 59.6616 100.661 61.8953C100.661 61.2827 100.661 60.67 100.661 60.0587C82.3339 68.1172 65.9404 86.6935 59.8419 105.958C59.5355 106.925 60.941 107.834 61.6189 106.994C69.1215 97.6835 83.7408 92.7168 95.2968 91.9821C107.484 91.2064 115.179 97.102 118.401 108.583C121.933 121.173 121.14 135.683 118.85 148.475C118.729 149.145 119.133 149.821 119.875 149.821C127.538 149.821 135.199 149.821 142.863 149.821C143.604 149.821 144.008 149.145 143.887 148.475C141.597 135.683 140.804 121.173 144.337 108.583C147.453 97.4779 154.663 91.5467 166.494 91.9467C178.286 92.3438 193.485 97.5218 201.118 106.994C201.795 107.833 203.203 106.926 202.897 105.958C198.249 91.2815 187.411 78.235 175.973 68.3541C174.941 67.4634 173.43 68.9611 174.469 69.8588C185.637 79.5072 196.3 92.1736 200.844 106.523C201.437 106.179 202.03 105.833 202.623 105.488C192.118 92.4558 160.641 81.6318 147.898 96.6227C137.586 108.756 139.257 129.489 141.119 144.161C141.315 145.697 141.796 147.331 141.807 148.872C141.794 147.155 142.428 147.446 142.459 147.736C142.481 147.934 142.222 148.132 141.285 147.694C139.884 147.039 136.239 147.694 134.77 147.694C130.801 147.694 126.161 146.971 122.265 147.694C121.329 147.867 120.861 147.799 120.656 147.731C120.266 147.602 120.822 147.471 120.908 148.999C120.882 148.515 121.064 147.514 121.215 147.09C123.353 141.113 122.775 132.548 122.706 126.328C122.609 117.94 121.795 108.857 117.897 101.28C107.199 80.4971 72.0048 90.7355 60.1142 105.488C60.707 105.833 61.2998 106.179 61.8927 106.523C67.8337 87.7586 83.9365 69.7213 101.734 61.8953C102.548 61.5365 102.29 60.4771 101.734 60.0587C99.7742 58.5852 107.66 57.0378 108.248 56.9513C111.322 56.5017 114.277 56.5471 117.368 56.7911C118 56.8407 118.65 56.0607 118.394 55.4451C117.447 53.1703 114.955 48.0929 118.643 48.8843C120.493 49.28 122.974 53.0157 124.206 54.4566C124.872 55.2324 125.934 54.5261 126.023 53.7035C126.409 50.1522 127.322 44.4126 131.369 44.4282C135.467 44.448 136.324 50.1139 136.715 53.7035C136.803 54.5219 137.868 55.2296 138.531 54.4566C139.763 53.0157 142.244 49.28 144.095 48.8843C147.782 48.0929 145.29 53.1703 144.343 55.4451C144.087 56.0607 144.737 56.8407 145.37 56.7911C148.46 56.5471 151.416 56.5017 154.489 56.9513C155.077 57.0378 162.963 58.5852 161.004 60.0587C160.447 60.4771 160.189 61.5365 161.004 61.8953C165.868 64.0341 170.294 66.5302 174.469 69.8588C175.529 70.7041 177.043 69.2079 175.973 68.3541Z" fill="#451816"/>
<path d="M104.747 59.5893C111.325 59.9835 115.68 62.3676 120.695 66.4238C121.156 66.7968 122.007 66.3047 121.596 65.7289C117.957 60.6289 110.714 58.2519 104.68 59.0986C104.39 59.1397 104.482 59.5723 104.747 59.5893Z" fill="#451816"/>
<path d="M118.978 52.1708C121.163 55.2456 122.626 58.5416 123.769 62.1227C124.052 63.0119 125.357 62.6489 125.163 61.7383C124.345 57.9204 122.375 54.44 119.813 51.5269C119.419 51.0802 118.625 51.6759 118.978 52.1708Z" fill="#451816"/>
<path d="M130.563 49.0197C130.073 55.1919 130.19 61.479 130.638 67.6499C130.684 68.264 131.584 68.2767 131.603 67.6499C131.774 61.462 131.803 55.199 131.41 49.0197C131.376 48.4723 130.606 48.4765 130.563 49.0197Z" fill="#451816"/>
<path d="M158.058 59.0983C152.025 58.2516 144.782 60.6286 141.144 65.7287C140.737 66.3002 141.578 66.8009 142.043 66.4236C147.06 62.3674 151.414 59.9833 157.993 59.589C158.254 59.5734 158.353 59.1395 158.058 59.0983Z" fill="#451816"/>
<path d="M142.924 51.5271C140.363 54.4402 138.392 57.922 137.573 61.7385C137.379 62.6462 138.684 63.0136 138.967 62.1229C140.111 58.5418 141.573 55.2458 143.758 52.171C144.109 51.6817 143.322 51.0747 142.924 51.5271Z" fill="#451816"/>
<path d="M90.1692 123.135C73.5813 122.717 70.4314 142.663 76.1001 151.692C78.9352 156.208 82.4794 159.345 90.1692 159.345C97.6093 159.345 101.403 156.208 104.237 151.692C109.907 142.663 106.758 122.717 90.1692 123.135Z" fill="white"/>
<path d="M107.1 135.291C103.681 123.832 90.1648 117.474 79.7634 125.141C71.729 131.062 70.3887 143.93 75.1824 152.229C75.866 153.415 77.7055 152.344 77.0191 151.156C73.1657 144.483 73.7032 134.464 79.0287 128.674C87.4801 119.479 101.776 124.888 105.049 135.856C105.439 137.165 107.493 136.607 107.1 135.291Z" fill="#451816"/>
<path d="M104.982 141.831C104.982 148.995 100.283 154.804 94.4868 154.804C88.6918 154.804 83.9932 148.995 83.9932 141.831C83.9932 134.666 88.6918 128.86 94.4868 128.86C100.283 128.86 104.982 134.666 104.982 141.831Z" fill="#451816"/>
<path d="M172.581 123.135C189.167 122.717 192.318 142.663 186.648 151.692C183.815 156.208 180.269 159.345 172.581 159.345C165.139 159.345 161.347 156.208 158.512 151.692C152.843 142.663 155.991 122.717 172.581 123.135Z" fill="white"/>
<path d="M157.702 135.855C160.981 124.865 175.277 119.491 183.721 128.673C189.044 134.461 189.582 144.485 185.729 151.155C185.044 152.342 186.882 153.416 187.566 152.229C192.361 143.929 191.019 131.061 182.985 125.14C172.59 117.479 159.067 123.834 155.649 135.291C155.256 136.604 157.309 137.167 157.702 135.855Z" fill="#451816"/>
<path d="M157.767 141.831C157.767 148.995 162.467 154.804 168.262 154.804C174.058 154.804 178.755 148.995 178.755 141.831C178.755 134.666 174.058 128.86 168.262 128.86C162.467 128.86 157.767 134.666 157.767 141.831Z" fill="#451816"/>
<path d="M73.7782 171.236C57.7874 167.569 62.9016 156.636 73.7782 159.236C88.8344 162.837 86.8616 174.237 73.7782 171.236Z" fill="#FF8285"/>
<path d="M188.972 171.236C204.962 167.569 199.848 156.636 188.972 159.236C173.915 162.837 175.888 174.237 188.972 171.236Z" fill="#FF8285"/>
<path d="M82.8776 121.133C85.6843 119.932 89.5249 119.083 93.974 120.682C97.1551 121.826 98.918 119.276 96.5878 117.452C93.9016 115.349 87.1664 114.13 82.4592 116.443C77.7492 118.754 78.0725 120.332 78.4498 121.231C78.8256 122.127 80.2368 122.265 82.8776 121.133Z" fill="#451816"/>
<path d="M179.872 121.133C177.065 119.932 173.225 119.083 168.776 120.682C165.593 121.826 163.83 119.276 166.162 117.452C168.848 115.349 175.583 114.13 180.291 116.443C184.999 118.754 184.676 120.332 184.299 121.231C183.924 122.127 182.512 122.265 179.872 121.133Z" fill="#451816"/>
<path d="M130.31 154.973C130.31 159.1 130.31 163.226 130.31 167.352C130.31 168.722 132.437 168.723 132.437 167.352C132.437 163.226 132.437 159.1 132.437 154.973C132.437 153.605 130.31 153.602 130.31 154.973Z" fill="#451816"/>
<path d="M116.082 166.576C117.392 169.807 120.35 172.414 123.897 172.716C127.446 173.018 131.279 171.17 132.402 167.608C132.815 166.298 130.759 165.738 130.35 167.042C129.472 169.827 126.119 171.003 123.468 170.523C121.059 170.089 118.859 167.8 118.133 166.011C117.625 164.758 115.567 165.306 116.082 166.576Z" fill="#451816"/>
<path d="M114.531 167.357C116.6 167.569 118.643 166.542 119.807 164.86C120.588 163.731 118.746 162.666 117.97 163.788C117.214 164.878 115.827 165.362 114.531 165.23C113.171 165.092 113.181 167.221 114.531 167.357Z" fill="#451816"/>
<path d="M144.617 166.012C143.888 167.806 141.69 170.091 139.28 170.525C136.626 171.006 133.279 169.833 132.4 167.043C131.99 165.741 129.934 166.298 130.348 167.609C131.47 171.169 135.302 173.028 138.852 172.717C142.401 172.408 145.354 169.814 146.668 166.578C147.182 165.31 145.125 164.758 144.617 166.012Z" fill="#451816"/>
<path d="M148.217 165.23C146.922 165.362 145.534 164.878 144.778 163.788C144.003 162.667 142.16 163.729 142.941 164.86C144.105 166.542 146.148 167.569 148.217 167.357C149.566 167.221 149.58 165.092 148.217 165.23Z" fill="#451816"/>
<path d="M145.689 146.825C144.167 142.258 118.583 142.258 117.061 146.825C115.54 151.389 124.687 158.286 131.374 158.895C138.061 158.286 147.209 151.389 145.689 146.825Z" fill="#451816"/>
<path d="M118.894 148.039C118.736 148.039 118.688 147.819 118.851 147.76C123.238 146.139 127.88 145.316 132.532 145.316C135.98 145.316 139.433 145.768 142.79 146.682C143.536 146.885 143.265 147.889 142.581 147.889C142.542 147.889 142.502 147.884 142.46 147.879C138.585 147.239 134.831 146.916 131.084 146.916C127.073 146.916 123.068 147.286 118.928 148.036C118.917 148.038 118.905 148.039 118.894 148.039Z" fill="#682421"/>
</g>
</svg>
