<svg width="263" height="263" viewBox="0 0 263 263" fill="none" xmlns="http://www.w3.org/2000/svg">
<circle cx="131.5" cy="131.5" r="131.5" fill="#A399FF"/>
<mask id="mask0_346_12606" style="mask-type:alpha" maskUnits="userSpaceOnUse" x="0" y="0" width="263" height="263">
<circle cx="131.5" cy="131.5" r="131.5" fill="#D9D9D9"/>
</mask>
<g mask="url(#mask0_346_12606)">
<path d="M223.678 222.482C194.949 253.966 158.021 254.079 134.579 254.079C105.709 254.079 60.167 246.588 45.967 222.908C31.7665 199.227 65.7993 217.779 44.1228 189.24C22.4461 160.702 17.281 128.295 44.7848 81.9284C55.7961 63.3684 115.187 14.8844 157.033 44.1991C176.826 58.0644 160.239 78.4111 198.73 86.4351C246.399 96.3737 257.398 185.531 223.678 222.482Z" fill="#BFB8FF"/>
<path d="M44.782 201.805C44.4752 211.929 18.1352 193.099 18.9471 183.587C19.7596 174.075 45.1274 190.425 44.782 201.805Z" fill="#BFB8FF"/>
<path d="M196.267 81.9393C180.855 74.6073 200.015 47.818 210.314 58.6953C220.611 69.5727 208.218 87.626 196.267 81.9393Z" fill="#BFB8FF"/>
<path d="M177.892 43.9019C171.307 44.4045 175.433 65.6365 184.555 66.2152C193.676 66.7952 190.023 42.9752 177.892 43.9019Z" fill="#BFB8FF"/>
<path d="M24.0151 206.044C24.7542 210.272 34.8949 213.606 35.2422 209.438C35.5902 205.272 22.5105 197.441 24.0151 206.044Z" fill="#BFB8FF"/>
<path d="M161.368 207.667H103.119C73.9944 210.346 60.499 243.205 60.499 243.205C83.3444 263.511 132.243 263.09 132.243 263.09C132.243 263.09 181.142 263.511 203.987 243.205C203.987 243.205 190.492 210.346 161.368 207.667Z" fill="#8A312D"/>
<path d="M150.542 208.297H113.944C104.109 214.901 87.2846 229.894 84.9131 256.085C107.442 263.297 132.244 263.09 132.244 263.09C132.244 263.09 157.044 263.297 179.573 256.085C177.202 229.894 160.378 214.901 150.542 208.297Z" fill="#FFD2A8"/>
<mask id="mask1_346_12606" style="mask-type:luminance" maskUnits="userSpaceOnUse" x="86" y="210" width="92" height="10">
<path d="M101.339 219.11C96.3959 217.833 91.3352 216.197 86.5576 214.106C89.2711 212.621 92.0596 211.497 94.9412 210.664C98.7586 211.966 102.693 213.044 106.661 213.908C104.913 215.445 103.117 217.176 101.339 219.11ZM163.132 219.092C161.351 217.154 159.551 215.422 157.8 213.885C161.852 213.005 165.867 211.904 169.76 210.566C172.501 211.364 175.22 212.481 177.96 214.053C173.169 216.16 168.093 217.805 163.132 219.092Z" fill="white"/>
</mask>
<g mask="url(#mask1_346_12606)">
<path d="M86.5576 219.11H177.96V210.567H86.5576V219.11Z" fill="#71211E"/>
</g>
<path d="M132.197 223.642C132.197 223.642 117.381 223.258 101.338 219.11C103.117 217.175 104.913 215.444 106.661 213.907C115.213 215.77 123.93 216.642 132.033 216.642C132.095 216.642 132.157 216.642 132.221 216.642C140.394 216.628 149.183 215.758 157.799 213.884C159.55 215.422 161.35 217.154 163.131 219.091C147.059 223.256 132.197 223.642 132.197 223.642Z" fill="#D08E71"/>
<path d="M93.5376 224.66C89.1873 229.203 86.0316 234.888 84.2456 240.911C84.0305 241.639 85.1248 241.923 85.3712 241.222C87.4524 235.296 90.3045 230.076 93.9469 224.976C94.1203 224.734 93.7403 224.451 93.5376 224.66Z" fill="#511110"/>
<path d="M84.6603 232.05C82.1623 235.786 80.2863 239.926 79.1904 244.289C78.9884 245.096 80.2082 245.433 80.4358 244.633C81.6505 240.368 83.2186 236.346 85.2895 232.418C85.5098 232.001 84.9207 231.661 84.6603 232.05Z" fill="#511110"/>
<path d="M86.1338 225.824C83.4467 228.99 81.303 232.619 79.865 236.516C79.6628 237.064 80.5739 237.456 80.8171 236.918C82.5046 233.182 84.4144 229.663 86.6743 226.24C86.8863 225.919 86.3884 225.524 86.1338 225.824Z" fill="#511110"/>
<path d="M190.499 226.953C193.604 232.068 196.851 237.09 199.979 242.185C200.231 242.594 200.759 242.302 200.701 241.88C200.315 238.996 198.476 236.648 196.805 234.349C194.9 231.726 192.836 229.237 190.76 226.75C190.637 226.604 190.401 226.793 190.499 226.953Z" fill="#511110"/>
<path d="M192.379 234.085C193.315 235.928 194.185 237.798 195.057 239.673C195.912 241.509 196.607 243.558 197.791 245.205C198.071 245.594 198.675 245.368 198.571 244.876C197.752 240.973 194.919 237.148 192.792 233.842C192.625 233.582 192.239 233.809 192.379 234.085Z" fill="#511110"/>
<path d="M187.963 231.405C188.895 232.979 189.737 234.589 190.544 236.229C191.259 237.682 191.813 239.303 192.813 240.583C193.072 240.915 193.491 240.537 193.44 240.219C192.925 236.979 190.269 233.743 188.359 231.174C188.187 230.943 187.809 231.145 187.963 231.405Z" fill="#511110"/>
<path d="M204.905 242.87C201.021 233.542 194.548 224.706 186.953 218.094C177.485 209.852 166.817 206.598 154.57 206.598C140.95 206.598 127.328 206.598 113.707 206.598C101.955 206.598 91.8117 207.539 81.7325 214.699C72.0913 221.55 64.045 231.93 59.4893 242.87C58.995 244.056 60.9294 244.574 61.4174 243.4C65.0246 234.74 71.5669 225.852 78.856 219.508C88.645 210.987 99.2745 208.598 111.682 208.598C123.961 208.598 136.238 208.598 148.517 208.598C159.889 208.598 169.636 208.612 179.758 215.148C189.842 221.66 198.485 232.615 202.977 243.4C203.465 244.572 205.401 244.059 204.905 242.87Z" fill="#451816"/>
<path d="M208.267 158.761C208.267 158.761 228.15 166.326 242.442 152.291C256.734 138.257 254.973 105.363 230.015 96.0047C207.646 87.6154 195.925 107.499 195.925 114.334L208.267 158.761Z" fill="#8A312D"/>
<path d="M220.358 159.707C219.236 159.707 218.11 159.658 216.988 159.559C216.854 159.12 216.749 158.776 216.686 158.563C216.542 158.072 216.15 157.86 215.754 157.86C215.652 157.86 215.55 157.874 215.452 157.9C215.242 157.178 215.029 156.434 214.812 155.668C216.01 155.787 217.3 155.86 218.652 155.86C225.278 155.86 233.45 154.108 240.329 147.352C247.326 140.482 250.474 129.088 248.936 118.15C249.252 119.159 249.516 120.192 249.724 121.242C251.492 130.171 250.082 140.223 244.874 147.819C239.193 156.106 229.884 159.707 220.358 159.707Z" fill="#71211E"/>
<path d="M211.064 155.032C211.064 155.032 224.114 160.314 236.23 149.13C248.346 137.946 244.618 114.955 228.151 111.538C211.686 108.12 205.472 121.527 203.919 126.94L211.064 155.032Z" fill="#FFD2A8"/>
<path d="M210.798 155.998C230.525 163.568 250.131 142.03 242.669 123.025C239.115 113.977 230.098 108.954 220.481 110.151C211.553 111.264 205.466 118.446 202.954 126.674C202.577 127.907 204.507 128.435 204.882 127.206C207.01 120.238 211.922 113.842 219.41 112.332C229.594 110.279 239.055 116.383 241.625 126.279C246.077 143.415 228.383 160.615 211.329 154.068C210.126 153.607 209.606 155.539 210.798 155.998Z" fill="#511110"/>
<path d="M212.342 160.912C224.607 163.281 237.794 160.448 245.687 150.092C252.219 141.524 253.799 129.612 251.345 119.3C245.502 94.7635 211.494 81.8875 197.242 106.902C196.603 108.022 198.331 109.032 198.969 107.912C212.799 83.6369 245.089 97.8475 249.723 121.242C251.491 130.172 250.082 140.224 244.874 147.82C237.701 158.282 224.745 161.277 212.874 158.982C211.617 158.74 211.078 160.668 212.342 160.912Z" fill="#511110"/>
<path d="M246.368 119.393C243.951 110.59 237.676 102.562 228.575 100.051C226.44 99.4619 224.369 99.1872 222.363 99.1872C215.384 99.1872 209.171 102.495 203.655 107.327C203.515 107.45 203.347 107.502 203.179 107.502C202.645 107.502 202.115 106.971 202.513 106.447C207.305 100.146 214.105 97.3552 220.931 97.3552C232.952 97.3552 245.057 106.01 246.431 119.385L246.368 119.393Z" fill="#A13B36"/>
<path d="M56.1727 158.761C56.1727 158.761 36.2894 166.326 21.9982 152.291C7.70659 138.257 9.46698 105.363 34.4253 96.0047C56.7941 87.6154 68.5159 107.499 68.5159 114.334L56.1727 158.761Z" fill="#8A312D"/>
<path d="M44.0154 159.717C34.9113 159.717 26.0394 156.423 20.2676 148.757C14.4826 141.073 12.8717 130.55 14.717 121.242C14.9253 120.193 15.1894 119.161 15.5045 118.151C13.966 129.089 17.1144 140.482 24.1124 147.353C30.9909 154.109 39.1628 155.861 45.79 155.861C47.142 155.861 48.43 155.787 49.6294 155.669C49.4124 156.434 49.1982 157.178 48.9884 157.901C48.89 157.874 48.7878 157.861 48.6857 157.861C48.2894 157.861 47.8982 158.073 47.755 158.563C47.6909 158.782 47.5852 159.125 47.4534 159.563C46.3076 159.665 45.1597 159.717 44.0154 159.717Z" fill="#71211E"/>
<path d="M53.3765 155.032C53.3765 155.032 40.3281 160.314 28.2114 149.13C16.0953 137.946 19.8229 114.955 36.289 111.538C52.7552 108.12 58.9686 121.527 60.5224 126.94L53.3765 155.032Z" fill="#FFD2A8"/>
<path d="M53.1116 154.069C36.0469 160.62 18.3652 143.411 22.8152 126.28C25.3835 116.395 34.8756 110.287 45.0303 112.333C52.5245 113.844 57.4277 120.231 59.5584 127.207C59.9335 128.435 61.8647 127.911 61.4871 126.675C59.0569 118.719 53.3111 111.707 44.7611 110.279C34.9245 108.635 25.4225 113.732 21.7731 123.025C14.3089 142.028 33.9147 163.571 53.6433 155.999C54.8319 155.541 54.3157 153.607 53.1116 154.069Z" fill="#511110"/>
<path d="M51.5672 158.982C40.062 161.205 27.6364 158.545 20.2678 148.757C14.4828 141.073 12.8719 130.55 14.7172 121.242C19.3552 97.8527 51.6312 83.6194 65.4714 107.911C66.1083 109.03 67.8369 108.023 67.1984 106.902C52.9463 81.8874 18.9402 94.758 13.0954 119.299C10.6479 129.581 12.2151 141.418 18.6744 149.99C26.5438 160.434 39.7979 163.287 52.0979 160.911C53.3604 160.667 52.826 158.739 51.5672 158.982Z" fill="#511110"/>
<path d="M18.0722 119.393L18.0107 119.385C19.3842 106.009 31.4878 97.3552 43.5102 97.3552C50.3351 97.3552 57.1357 100.146 61.9274 106.447C62.3299 106.977 61.7951 107.501 61.2618 107.501C61.0935 107.501 60.9247 107.449 60.7862 107.327C55.369 102.582 49.0613 99.1246 42.0925 99.1246C40.0711 99.1246 37.993 99.4152 35.8665 100.051C26.7711 102.766 20.5285 110.451 18.0722 119.393Z" fill="#A13B36"/>
<path d="M218.064 166.979C216.191 159.955 212.289 148.562 209.636 133.734C206.983 118.907 202.308 102.43 177.172 84.5696C170.291 79.6803 161.803 75.9509 152.677 73.6723L152.715 73.6696C163.427 73.3016 165.104 73.0176 159.648 68.9376C154.191 64.859 144.501 63.9403 144.501 63.9403C150.115 60.1976 154.096 56.0589 147.261 56.0589C140.428 56.0589 130.469 60.271 130.469 60.271C130.469 60.271 126.601 56.2909 123.287 47.9776C119.972 39.6656 115.688 41.859 114.515 51.1403C113.343 60.4216 117.013 67.5616 117.013 67.5616C117.013 67.5616 109.568 65.0109 108.752 66.6949C107.936 68.3776 110.945 72.4056 110.945 72.4056C101.408 73.2229 102.411 76.5949 102.411 76.5949H102.412C96.8652 78.715 91.7299 81.4003 87.2695 84.5696C62.1341 102.43 57.4591 118.907 54.8055 133.734C52.1523 148.562 48.2503 159.955 46.3779 166.979C44.5049 174.003 49.6549 170.1 49.6549 170.1C46.3779 188.674 54.0252 183.679 54.0252 183.679C58.5519 202.876 62.4533 194.76 62.4533 194.76C73.6909 207.559 74.2096 198.947 74.2096 198.947C94.4279 214.674 132.221 215.642 132.221 215.642C132.221 215.642 170.012 214.674 190.232 198.947C190.232 198.947 190.751 207.559 201.988 194.76C201.988 194.76 205.889 202.876 210.416 183.679C210.416 183.679 218.064 188.674 214.785 170.1C214.785 170.1 219.937 174.003 218.064 166.979Z" fill="#8A312D"/>
<path d="M132.406 214.642C132.344 214.642 132.282 214.642 132.221 214.642C113.002 214.61 90.2161 209.692 74.714 198.084C74.5562 197.966 74.391 197.915 74.2312 197.915C73.7177 197.915 73.2525 198.439 73.2093 198.947C73.1036 200.19 72.5853 200.679 71.8353 200.679C69.2541 200.68 63.9208 194.887 63.1609 194.054C62.9828 193.859 62.7229 193.764 62.4609 193.764C62.1082 193.764 61.7525 193.935 61.5896 194.255C61.252 194.922 60.8849 195.21 60.502 195.21C58.1552 195.21 55.2265 184.364 54.9896 183.414C54.8786 182.968 54.4437 182.679 54.0073 182.679C53.839 182.679 53.6702 182.722 53.5197 182.815C52.952 183.168 52.4686 183.327 52.0582 183.327C48.5177 183.327 50.4374 171.5 50.6186 170.367C50.714 169.771 50.2385 169.064 49.6478 169.064C49.4874 169.064 49.3186 169.116 49.1505 169.236C48.8254 169.47 48.5645 169.576 48.3593 169.576C46.9432 169.576 48.1358 164.555 49.0036 161.428C49.1484 161.492 49.3088 161.519 49.4786 161.519C50.5249 161.519 51.9046 160.476 51.9046 160.476C49.8317 172.226 52.2525 174.28 54.1989 174.28C55.2462 174.28 56.1562 173.686 56.1562 173.686C58.5421 183.806 60.7494 186.123 62.2713 186.123C63.5577 186.123 64.3546 184.466 64.3546 184.466C69.015 189.774 71.7796 191.295 73.4182 191.295C74.091 191.295 74.574 191.039 74.9197 190.683C95.9236 205.874 120.245 206.264 132.221 206.264C144.196 206.264 168.517 205.874 189.521 190.683C189.868 191.039 190.35 191.295 191.022 191.295C192.661 191.295 195.426 189.772 200.086 184.466C200.086 184.466 200.884 186.123 202.17 186.123C203.692 186.123 205.9 183.804 208.285 173.686C208.285 173.686 209.194 174.28 210.242 174.28C212.189 174.28 214.609 172.224 212.536 160.476C212.536 160.476 213.916 161.52 214.962 161.519C215.132 161.519 215.293 161.492 215.437 161.428C216.305 164.555 217.497 169.576 216.081 169.576C215.876 169.576 215.616 169.47 215.29 169.236C215.121 169.115 214.95 169.063 214.789 169.063C214.2 169.063 213.726 169.768 213.821 170.367C213.988 171.403 215.918 183.322 212.373 183.323C211.965 183.323 211.485 183.166 210.921 182.815C210.77 182.722 210.602 182.679 210.434 182.679C209.997 182.679 209.562 182.968 209.452 183.414C209.245 184.242 206.314 195.219 203.948 195.219C203.562 195.219 203.192 194.928 202.85 194.255C202.688 193.935 202.332 193.764 201.98 193.764C201.718 193.764 201.458 193.859 201.281 194.054C200.4 195.019 195.15 200.667 192.601 200.668C191.852 200.668 191.337 200.182 191.232 198.947C191.189 198.439 190.724 197.915 190.21 197.915C190.05 197.915 189.885 197.966 189.728 198.084C174.313 209.626 151.556 214.642 132.406 214.642Z" fill="#71211E"/>
<path d="M54.9508 161.852C52.2456 167.632 50.5393 174.57 51.8408 180.944C51.9429 181.447 52.7184 181.321 52.72 180.825C52.7492 174.234 52.9737 168.282 55.3513 162.02C55.4383 161.791 55.0565 161.627 54.9508 161.852Z" fill="#511110"/>
<path d="M56.0146 175.288C56.0261 181.146 56.935 188.03 60.3938 192.924C60.6464 193.284 61.2698 193.082 61.136 192.612C59.4469 186.72 57.136 181.472 56.348 175.288C56.3214 175.083 56.0141 175.067 56.0146 175.288Z" fill="#511110"/>
<path d="M60.5397 180.274C62.1245 186.854 65.3365 193.505 70.2168 198.278C70.6725 198.725 71.5334 198.126 71.1329 197.572C67.0954 191.98 63.5834 186.596 61.0417 180.137C60.9214 179.83 60.4589 179.941 60.5397 180.274Z" fill="#511110"/>
<path d="M55.5966 145.453C53.4711 151.962 51.0113 158.802 49.9378 165.574C49.8643 166.037 50.4695 166.209 50.6409 165.768C53.1154 159.372 54.4247 152.225 55.8575 145.525C55.8941 145.354 55.6509 145.286 55.5966 145.453Z" fill="#511110"/>
<path d="M209.091 162.021C211.465 168.278 211.692 174.232 211.72 180.825C211.723 181.316 212.497 181.453 212.6 180.945C213.901 174.57 212.195 167.632 209.489 161.853C209.385 161.63 209.001 161.789 209.091 162.021Z" fill="#511110"/>
<path d="M208.093 175.289C207.305 181.469 204.994 186.718 203.305 192.613C203.171 193.077 203.791 193.287 204.047 192.925C207.506 188.03 208.415 181.151 208.426 175.289C208.426 175.067 208.119 175.082 208.093 175.289Z" fill="#511110"/>
<path d="M203.397 180.137C200.856 186.596 197.344 191.98 193.307 197.572C192.909 198.121 193.761 198.729 194.223 198.279C199.103 193.507 202.315 186.855 203.9 180.275C203.98 179.943 203.517 179.831 203.397 180.137Z" fill="#511110"/>
<path d="M208.583 145.525C210.016 152.221 211.325 159.373 213.8 165.767C213.971 166.209 214.577 166.038 214.504 165.574C213.429 158.802 210.971 151.965 208.844 145.453C208.789 145.286 208.547 145.354 208.583 145.525Z" fill="#511110"/>
<path d="M112.516 69.1246C114.194 70.5059 115.787 72.0059 117.27 73.5926C118.596 75.0139 119.679 77.0272 121.267 78.1232C121.552 78.3192 121.947 77.9939 121.848 77.6752C121.271 75.8232 119.331 74.2085 117.956 72.9059C116.34 71.3739 114.586 70.0699 112.706 68.8792C112.559 68.7859 112.378 69.0112 112.516 69.1246Z" fill="#511110"/>
<path d="M118.976 47.9633C119.314 58.5073 120.9 69.4099 127.101 78.2353C127.496 78.7966 128.402 78.2953 128.037 77.6886C122.426 68.3993 120.189 58.718 119.393 47.9633C119.373 47.6993 118.966 47.6926 118.976 47.9633Z" fill="#511110"/>
<path d="M145.977 58.3571C139.338 60.4331 132.686 64.8265 128.955 70.8212C128.674 71.2745 129.353 71.8251 129.707 71.4025C134.403 65.8171 139.234 61.5332 146.077 58.7198C146.293 58.6305 146.214 58.2838 145.977 58.3571Z" fill="#511110"/>
<path d="M155.7 70.2502C147.502 68.2276 138.86 70.0329 132.953 76.3609C132.585 76.7542 133.145 77.3102 133.542 76.9502C139.638 71.4316 147.44 68.5929 155.677 70.3302L155.7 70.2502Z" fill="#511110"/>
<path d="M106.194 76.0771C108.124 76.1224 110.085 76.3198 111.964 76.7758C113.648 77.1851 115.205 77.9704 116.878 78.3677C117.316 78.4717 117.494 77.9304 117.168 77.6824C114.256 75.4664 109.621 75.2878 106.161 75.8304C106.018 75.8544 106.058 76.0744 106.194 76.0771Z" fill="#511110"/>
<path d="M201.247 107.356C190.144 90.2604 172.555 77.8964 152.943 72.7071C152.854 73.3631 152.764 74.0164 152.676 74.6724C155.06 74.5351 165.372 75.6711 163.124 70.6991C160.666 65.2617 149.57 63.4751 144.5 62.9404C144.668 63.5618 144.836 64.1831 145.004 64.8044C149.184 61.8844 156.423 54.8298 146.447 55.0938C141.908 55.2138 136.772 56.4964 132.65 58.3564C132.384 58.4751 131.051 59.1351 130.618 59.1378C129.711 59.1418 131.763 59.7284 130.818 59.1684C129.322 58.2804 127.715 54.8084 126.895 53.3164C125.242 50.3084 121.03 36.7977 115.708 43.8444C111.111 49.9324 113.031 61.7111 116.148 68.0658C116.526 67.5764 116.902 67.0871 117.279 66.5964C110.576 64.3724 104.412 64.9897 110.08 72.9111C110.368 72.4097 110.656 71.9084 110.944 71.4057C108.392 71.7044 100.503 72.4231 101.446 76.8618C101.531 77.2684 101.994 77.6191 102.41 77.5951H102.411C102.322 76.9418 102.234 76.2857 102.146 75.6311C86.3926 81.9097 72.2587 93.2737 63.0567 107.575C62.3577 108.66 64.0885 109.664 64.7833 108.584C73.6895 94.7444 87.4238 83.6391 102.676 77.5604C103.639 77.1764 103.634 75.5284 102.411 75.5951C102.734 75.8444 103.056 76.0937 103.379 76.3417C103.572 75.5951 104.056 75.1284 104.831 74.9417C107.078 73.9537 108.126 73.7351 110.944 73.4057C111.614 73.3284 112.299 72.5871 111.807 71.9017C110.516 70.0977 109.494 68.0177 112.919 67.4697C113.955 67.3031 115.732 68.1884 116.747 68.5257C117.636 68.8204 118.234 67.7857 117.876 67.0564C116.944 65.1577 116.347 63.0631 115.919 60.9991C115.263 57.8378 114.846 39.6484 121.999 47.5524C124.219 50.0071 125.271 54.8284 127.246 57.7218C128.016 58.8498 128.826 59.9791 129.76 60.9777C129.98 61.2124 130.424 61.3644 130.734 61.2351C133.158 60.2284 135.652 59.3657 138.176 58.6497C140.26 58.0577 143.524 56.8284 145.634 57.1298C151.403 57.9524 146.447 61.3644 143.995 63.0777C143.15 63.6671 143.504 64.8351 144.5 64.9404C148.684 65.3818 153.215 66.4284 156.911 68.4311C158.948 69.5351 162.202 70.9404 159.808 72.2391C158.148 73.1404 154.515 72.5657 152.676 72.6724C151.586 72.7337 151.276 74.3351 152.411 74.6364C171.53 79.6951 188.694 91.6951 199.519 108.367C200.218 109.442 201.95 108.44 201.247 107.356Z" fill="#511110"/>
<path d="M47.7552 158.564C47.0818 160.862 41.7968 176.97 50.1594 170.965C49.6698 170.588 49.1802 170.212 48.6907 169.836C47.7891 175.461 45.8599 183.424 52.424 185.262C52.663 185.329 52.9823 185.178 53.287 185.026C53.5902 184.876 53.8787 184.725 54.0574 184.79C53.8979 184.732 54.225 188.516 54.7927 190.142C55.5402 192.284 56.7615 196.546 59.3468 197.272C60.985 197.73 61.264 196.601 62.5312 196.376C62.8 196.328 63.0995 195.312 63.2948 195.309C61.9511 195.322 67.3922 201.05 68.5266 201.678C71.5552 203.354 74.8755 202.882 75.2094 198.948C74.7078 199.236 74.2063 199.524 73.7042 199.812C89.4755 211.621 112.665 216.676 132.221 216.642C151.806 216.61 174.926 211.65 190.736 199.812C190.234 199.524 189.733 199.236 189.232 198.948C189.565 202.881 192.885 203.354 195.914 201.678C196.57 201.314 197.149 200.805 197.742 200.35C198.408 199.84 199.038 199.288 199.634 198.696C200.809 198.18 201.302 197.372 201.117 196.27C203.273 194.921 199.697 195.909 201.8 196.256C203.116 196.472 203.337 197.764 205.093 197.272C207.472 196.605 208.637 192.88 209.37 190.906C209.806 189.732 210.864 184.461 210.261 184.734C210.416 184.664 210.754 184.829 211.108 184.994C211.444 185.15 211.794 185.308 212.017 185.262C218.71 183.913 216.572 174.965 215.75 169.836C215.26 170.212 214.77 170.588 214.281 170.965C222.682 176.998 217.341 160.801 216.686 158.564C216.325 157.33 214.394 157.854 214.757 159.094C215.113 160.308 218.672 171.665 215.29 169.237C214.5 168.67 213.7 169.605 213.821 170.368C214.008 171.524 216.388 186.21 210.921 182.816C210.38 182.481 209.605 182.798 209.452 183.414C209.212 184.377 205.288 199.064 202.85 194.256C202.566 193.697 201.697 193.597 201.281 194.054C200.142 195.304 191.693 204.388 191.232 198.948C191.174 198.281 190.392 197.586 189.728 198.085C174.264 209.664 151.409 214.676 132.221 214.642C113.002 214.61 90.2162 209.693 74.714 198.085C74.0484 197.586 73.2662 198.281 73.2094 198.948C72.7407 204.466 64.1416 195.13 63.161 194.054C62.7432 193.597 61.8735 193.697 61.5896 194.256C59.1807 199.008 55.2656 184.52 54.9896 183.414C54.8359 182.798 54.061 182.481 53.5198 182.816C48.05 186.212 50.4167 171.632 50.6187 170.368C50.7402 169.61 49.938 168.672 49.1506 169.237C45.7698 171.665 49.3287 160.308 49.6834 159.094C50.0454 157.857 48.1167 157.329 47.7552 158.564Z" fill="#511110"/>
<path d="M201.743 155.033C198.759 151.659 198.283 150.177 198.015 142.197C197.621 130.483 190.553 105.307 173.041 99.1113C156.989 93.4313 148.89 97.6927 143.049 101.953C138.986 104.917 136.015 107.882 132.221 107.499C128.425 107.882 125.454 104.917 121.391 101.953C115.551 97.6927 107.453 93.4313 91.4003 99.1113C73.8867 105.307 66.8195 130.483 66.4252 142.197C66.1566 150.177 65.6805 151.659 62.6966 155.033C59.8045 158.305 49.6545 170.101 71.396 187.965C93.1378 205.829 119.569 206.265 132.221 206.265C144.871 206.265 171.303 205.829 193.043 187.965C214.786 170.101 204.637 158.305 201.743 155.033Z" fill="#FFD2A8"/>
<path d="M71.3622 187.937C71.3559 187.933 71.3497 187.927 71.3439 187.922C71.3502 187.927 71.3554 187.931 71.3622 187.937ZM71.3298 187.911C71.3226 187.905 71.3142 187.898 71.307 187.891C71.3131 187.897 71.3237 187.905 71.3298 187.911ZM71.297 187.883C71.2887 187.877 71.2803 187.87 71.2721 187.863C71.2798 187.87 71.2893 187.877 71.297 187.883ZM71.2658 187.858C69.1147 186.082 67.2789 184.367 65.7194 182.715C67.2789 184.367 69.1158 186.083 71.2658 187.858ZM65.7174 182.713C65.7137 182.709 65.7095 182.705 65.7065 182.701C65.7101 182.705 65.7131 182.709 65.7174 182.713ZM65.6907 182.683C65.6887 182.682 65.6861 182.679 65.6846 182.678C65.6871 182.681 65.6877 182.681 65.6907 182.683ZM65.6631 182.655C65.6622 182.654 65.6622 182.654 65.6611 182.653C65.6617 182.653 65.6626 182.654 65.6631 182.655Z" fill="#8A2D27"/>
<path d="M132.221 206.265C119.569 206.265 93.1382 205.829 71.3965 187.965C71.3851 187.955 71.3742 187.946 71.3627 187.937C71.3559 187.931 71.3508 187.927 71.3445 187.922C71.3398 187.918 71.3352 187.914 71.3304 187.911C71.3242 187.905 71.3137 187.897 71.3075 187.891C71.3043 187.889 71.3007 187.886 71.2975 187.883C71.2898 187.877 71.2804 187.87 71.2726 187.863C71.2705 187.861 71.2689 187.859 71.2664 187.858C69.1164 186.083 67.2794 184.367 65.72 182.715C65.7189 182.714 65.7189 182.713 65.7179 182.713C65.7137 182.709 65.7106 182.705 65.707 182.701C65.7013 182.695 65.6965 182.69 65.6913 182.683C65.6882 182.681 65.6877 182.681 65.6852 182.678C65.6778 182.67 65.671 182.662 65.6637 182.655C65.6632 182.654 65.6622 182.653 65.6617 182.653C58.2975 174.819 57.1491 168.398 58.0887 163.642C59.0497 168.711 62.6262 174.929 71.3965 182.135C93.1382 199.999 119.569 200.434 132.221 200.434C144.872 200.434 171.304 199.999 193.044 182.135C201.814 174.929 205.392 168.711 206.353 163.642C207.496 169.434 205.545 177.694 193.044 187.965C171.304 205.829 144.872 206.265 132.221 206.265Z" fill="#FFC391"/>
<path d="M78.072 172.421C63.0387 168.974 67.8464 158.694 78.072 161.139C92.2267 164.523 90.3726 175.242 78.072 172.421Z" fill="#FFB6C3"/>
<path d="M186.368 172.421C201.4 168.974 196.594 158.694 186.368 161.139C172.212 164.523 174.067 175.242 186.368 172.421Z" fill="#FFB6C3"/>
<path d="M86.626 141.435C89.2656 140.306 92.876 139.507 97.0583 141.01C100.05 142.086 101.708 139.69 99.5156 137.974C96.9903 135.998 90.6588 134.85 86.2328 137.025C81.8068 139.198 82.1099 140.682 82.464 141.526C82.8177 142.37 84.1453 142.499 86.626 141.435Z" fill="#511110"/>
<path d="M177.815 141.435C175.175 140.306 171.564 139.507 167.382 141.01C164.391 142.086 162.732 139.69 164.926 137.974C167.45 135.998 173.782 134.85 178.207 137.025C182.634 139.198 182.331 140.682 181.976 141.526C181.623 142.37 180.295 142.499 177.815 141.435Z" fill="#511110"/>
<path d="M156.137 156.671C157.697 153.995 159.623 151.692 162.004 149.694C164.371 147.724 167.284 146.166 170.547 145.639C173.8 145.094 177.227 145.698 180.16 147.003C183.129 148.29 185.732 150.14 188.039 152.196L188.056 152.211C189.157 153.192 189.255 154.88 188.273 155.98C187.292 157.083 185.604 157.179 184.504 156.199L184.323 156.022C182.488 154.046 180.448 152.314 178.2 151.078C175.965 149.824 173.491 149.155 170.987 149.323C168.483 149.483 165.981 150.48 163.755 152.004C161.539 153.518 159.495 155.55 157.929 157.74L157.887 157.802C157.552 158.27 156.9 158.379 156.432 158.044C155.991 157.73 155.872 157.131 156.137 156.671Z" fill="#511110"/>
<path d="M107.161 157.741C105.595 155.55 103.551 153.518 101.335 152.005C99.1086 150.481 96.6072 149.484 94.1032 149.324C91.5986 149.156 89.1251 149.825 86.8898 151.078C84.6418 152.314 82.6012 154.046 80.7674 156.022C79.7636 157.104 78.074 157.166 76.9939 156.162C75.9122 155.16 75.8496 153.47 76.8527 152.389L77.0308 152.214L77.0512 152.197C79.3579 150.141 81.96 148.29 84.9292 147.004C87.8626 145.698 91.2892 145.094 94.5432 145.64C97.8059 146.166 100.719 147.725 103.086 149.694C105.466 151.693 107.393 153.996 108.953 156.672C109.242 157.169 109.074 157.808 108.577 158.097C108.109 158.37 107.515 158.237 107.206 157.806L107.161 157.741Z" fill="#511110"/>
<path d="M131.196 165.282C131.196 169.934 131.196 174.586 131.196 179.238C131.196 180.526 133.196 180.527 133.196 179.238C133.196 174.586 133.196 169.934 133.196 165.282C133.196 163.995 131.196 163.992 131.196 165.282Z" fill="#511110"/>
<path d="M131.693 178.786C126.217 182.244 121.317 178.79 119.174 173.323C118.895 172.61 118.103 172.35 117.503 172.882C116.685 173.618 115.651 173.566 114.403 172.726C113.345 171.988 112.345 173.722 113.394 174.452C115.227 175.73 117.178 175.836 118.917 174.296C118.359 174.148 117.803 174.002 117.246 173.855C119.831 180.451 125.986 184.755 132.702 180.514C133.787 179.828 132.785 178.096 131.693 178.786Z" fill="#511110"/>
<path d="M131.738 180.514C138.454 184.756 144.609 180.453 147.195 173.856C146.638 174.002 146.081 174.149 145.523 174.297C147.259 175.836 149.207 175.734 151.046 174.453C152.094 173.722 151.095 171.988 150.037 172.726C148.787 173.566 147.755 173.618 146.938 172.882C146.338 172.35 145.546 172.61 145.266 173.324C143.127 178.78 138.217 182.241 132.749 178.786C131.657 178.097 130.651 179.828 131.738 180.514Z" fill="#511110"/>
<path d="M121.99 160.796C121.525 163.42 132.221 167.148 132.221 167.148C132.221 167.148 142.917 163.42 142.45 160.796C141.984 158.172 122.456 158.172 121.99 160.796Z" fill="#511110"/>
<path d="M139.507 161.342C136.971 161.342 134.447 160.854 131.899 160.807C131.549 160.8 131.2 160.796 130.851 160.796C128.596 160.796 126.341 160.919 124.087 160.955L124.073 160.863C126.603 160.168 129.551 159.738 132.465 159.738C135.027 159.738 137.561 160.071 139.761 160.85C140.023 160.942 139.987 161.338 139.696 161.34C139.632 161.34 139.569 161.342 139.507 161.342Z" fill="#8A1D1B"/>
<path d="M121.177 158.07C127.973 154.531 136.364 154.858 143.16 158.07C144.316 158.616 145.333 156.892 144.169 156.342C136.676 152.802 127.656 152.443 120.169 156.342C119.027 156.938 120.037 158.664 121.177 158.07Z" fill="#511110"/>
</g>
</svg>
