<svg width="263" height="263" viewBox="0 0 263 263" fill="none" xmlns="http://www.w3.org/2000/svg">
<circle cx="131.5" cy="131.5" r="131.5" fill="#DAD1FF"/>
<mask id="mask0_346_12566" style="mask-type:alpha" maskUnits="userSpaceOnUse" x="0" y="0" width="263" height="263">
<circle cx="131.5" cy="131.5" r="131.5" fill="#D9D9D9"/>
</mask>
<g mask="url(#mask0_346_12566)">
<path d="M86.934 40.7046C149.946 18.9208 197.258 46.635 212.331 82.5819C223.645 109.561 212.67 132.895 230.744 134.892C248.817 136.888 248.407 200.795 220.325 226.71C192.245 252.625 149.681 255.658 124.167 255.658C91.4383 255.658 48.7497 240.197 40.688 221.324C29.8025 195.841 57.675 209.244 42.76 189.275C27.845 169.306 -7.0518 73.1973 86.934 40.7046Z" fill="#BDADFF"/>
<path d="M227.957 129.957C220.856 125.409 227.957 98.9062 236.171 104.65C244.387 110.394 244.387 140.484 227.957 129.957Z" fill="#BDADFF"/>
<path d="M222.483 105.049C216.799 103.387 221.479 87.6508 227.187 91.2619C232.896 94.8716 229.957 107.237 222.483 105.049Z" fill="#BDADFF"/>
<path d="M41.9186 198.831C44.1276 207.284 24.779 203.456 22.112 194.506C19.4464 185.555 40.0134 191.539 41.9186 198.831Z" fill="#BDADFF"/>
<path d="M21.8726 166.135C15.121 171.145 28.4545 189.306 32.997 185.907C37.5366 182.508 29.824 160.235 21.8726 166.135Z" fill="#BDADFF"/>
<path d="M162.437 203.898H100.692C69.8191 206.739 55.5146 241.568 55.5146 241.568C79.7322 263.094 131.565 262.645 131.565 262.645C131.565 262.645 183.398 263.094 207.613 241.568C207.613 241.568 193.308 206.739 162.437 203.898Z" fill="#FFD2A8"/>
<path d="M132.179 250.71C132.121 250.71 132.062 250.709 132.003 250.707C131.945 250.709 131.885 250.71 131.827 250.71C126.801 250.71 123.716 244.834 123.716 244.834C121.646 245.93 119.876 246.339 118.388 246.339C114.002 246.339 112.059 242.785 112.059 242.785C110.37 243.418 108.885 243.67 107.588 243.67C102.459 243.67 100.31 239.713 100.31 239.713C99.3091 239.849 98.399 239.911 97.5693 239.911C88.1805 239.911 89.1543 231.941 89.1543 231.941C87.0399 232.392 85.2619 232.59 83.7666 232.59C72.833 232.59 77.1253 221.98 77.1253 221.98C74.7778 221.754 72.8683 220.801 71.4395 219.768C72.4344 218.763 73.4506 217.799 74.4824 216.882C75.5014 218.124 76.7678 218.883 77.808 219.348C78.1952 219.521 78.5542 219.653 78.8623 219.755C78.704 220.521 78.533 221.63 78.5302 222.856C78.5344 224.39 78.7917 226.148 79.8474 227.621C80.3732 228.351 81.1095 228.987 82.0494 229.418C82.9893 229.852 84.1186 230.082 85.4485 230.082C86.8717 230.081 88.531 229.822 90.4941 229.249C90.5761 230.514 90.9365 232.355 92.2467 234.031C93.0169 235.015 94.1208 235.914 95.6147 236.546C97.0209 237.142 98.7636 237.508 100.918 237.549C101.193 237.959 101.638 238.537 102.272 239.127C103.397 240.175 105.19 241.265 107.608 241.265C107.611 241.265 107.615 241.265 107.618 241.265C107.62 241.265 107.621 241.265 107.622 241.265C108.917 241.265 110.363 240.954 111.942 240.22C112.214 240.574 112.586 241.002 113.06 241.436C114.162 242.446 115.892 243.509 118.183 243.509C118.186 243.509 118.187 243.509 118.19 243.509C119.818 243.509 121.661 242.965 123.671 241.638C123.978 242.123 124.4 242.718 124.946 243.32C125.579 244.015 126.382 244.725 127.378 245.27C128.372 245.815 129.567 246.187 130.919 246.187C130.921 246.187 130.924 246.187 130.926 246.187C130.927 246.187 130.93 246.187 130.931 246.187C131.131 246.187 131.334 246.179 131.54 246.162C131.748 246.179 131.953 246.187 132.155 246.187C132.158 246.187 132.159 246.187 132.162 246.187C133.515 246.187 134.709 245.815 135.703 245.27C137.197 244.45 138.255 243.27 138.959 242.303C139.13 242.068 139.28 241.843 139.408 241.638C141.418 242.965 143.263 243.509 144.891 243.509C144.894 243.509 144.895 243.509 144.898 243.509H144.899C147.19 243.509 148.919 242.446 150.021 241.436C150.495 241.002 150.866 240.574 151.139 240.22C152.719 240.954 154.164 241.265 155.458 241.265C155.46 241.265 155.461 241.265 155.463 241.265C155.465 241.265 155.47 241.265 155.472 241.265C157.891 241.265 159.684 240.175 160.809 239.127C161.442 238.537 161.888 237.959 162.163 237.549C164.317 237.508 166.06 237.142 167.465 236.547C169.712 235.602 171.055 234.043 171.763 232.526C172.336 231.304 172.532 230.119 172.587 229.224C173.731 229.523 175.426 229.865 177.207 229.869C178.876 229.865 180.672 229.572 182.139 228.484C182.869 227.942 183.491 227.195 183.907 226.255C184.327 225.314 184.546 224.194 184.546 222.886C184.545 221.948 184.435 220.914 184.201 219.761C184.826 219.557 185.657 219.224 186.519 218.687C187.227 218.245 187.958 217.66 188.591 216.89C189.769 217.925 190.915 219.01 192.026 220.141C190.667 221.022 188.943 221.782 186.88 221.98C186.88 221.98 191.178 232.59 180.241 232.59C178.746 232.59 176.967 232.392 174.854 231.941C174.854 231.941 175.829 239.911 166.439 239.911C165.609 239.911 164.697 239.849 163.698 239.713C163.698 239.713 161.548 243.67 156.418 243.67C155.123 243.67 153.637 243.418 151.949 242.785C151.949 242.785 150.006 246.339 145.619 246.339C144.13 246.339 142.36 245.929 140.29 244.834C140.29 244.834 137.205 250.71 132.179 250.71Z" fill="#FFBC86"/>
<path d="M74.2282 223.765C71.2037 225.994 68.3304 229.731 67.9064 233.596C67.5629 236.733 69.9981 239.203 73.1428 238.745C73.7251 238.66 73.5809 237.709 73.0043 237.726C64.1116 237.989 72.1026 226.58 74.5222 224.146C74.7102 223.957 74.4572 223.596 74.2282 223.765Z" fill="#6A220C"/>
<path d="M79.3625 237.143C77.8163 239.981 75.832 243.868 76.2829 247.213C76.5768 249.398 78.4439 251.807 80.848 251.047C81.2041 250.936 81.2691 250.338 80.848 250.26C74.5049 249.09 78.4001 241.153 79.8869 237.365C80.0056 237.06 79.5166 236.862 79.3625 237.143Z" fill="#6A220C"/>
<path d="M90.932 237.234C89.3462 239.569 87.9329 242.824 88.8346 245.683C89.3999 247.472 91.2429 249.218 93.2075 248.468C93.5184 248.351 93.6074 247.821 93.2075 247.745C88.0078 246.76 89.9469 240.958 91.5411 237.59C91.7362 237.18 91.1892 236.854 90.932 237.234Z" fill="#6A220C"/>
<path d="M100.195 246.716C98.9567 249.426 98.1044 252.533 99.5022 255.37C100.523 257.441 102.948 259.236 105.303 258.377C105.67 258.241 105.789 257.574 105.303 257.503C103.026 257.174 101.307 256.417 100.429 254.125C99.5376 251.798 100.049 249.258 100.701 246.928C100.781 246.638 100.329 246.426 100.195 246.716Z" fill="#6A220C"/>
<path d="M111.075 244.756C110.372 247.506 110.228 250.836 112.479 252.949C113.854 254.241 117.532 255.223 118.537 252.966C118.668 252.67 118.452 252.335 118.113 252.413C117.256 252.611 116.573 253.154 115.642 253.13C114.484 253.1 113.526 252.494 112.79 251.646C111.17 249.781 111.215 247.196 111.628 244.91C111.693 244.552 111.167 244.392 111.075 244.756Z" fill="#6A220C"/>
<path d="M188.607 224.145C191.066 226.62 198.989 237.989 190.125 237.726C189.555 237.709 189.399 238.659 189.989 238.745C193.131 239.203 195.567 236.734 195.224 233.596C194.8 229.729 191.929 225.996 188.902 223.765C188.676 223.597 188.417 223.955 188.607 224.145Z" fill="#6A220C"/>
<path d="M183.243 237.365C184.723 241.138 188.704 249.076 182.282 250.261C181.862 250.337 181.926 250.936 182.282 251.048C184.669 251.802 186.57 249.4 186.847 247.213C187.274 243.858 185.315 239.987 183.767 237.143C183.616 236.865 183.121 237.057 183.243 237.365Z" fill="#6A220C"/>
<path d="M171.588 237.591C173.191 240.971 175.147 246.756 169.922 247.745C169.523 247.822 169.612 248.352 169.922 248.469C171.886 249.218 173.729 247.476 174.295 245.683C175.198 242.826 173.783 239.567 172.199 237.235C171.942 236.854 171.393 237.181 171.588 237.591Z" fill="#6A220C"/>
<path d="M162.432 246.928C163.083 249.258 163.594 251.798 162.702 254.125C161.824 256.417 160.106 257.174 157.83 257.503C157.342 257.573 157.46 258.241 157.83 258.377C160.185 259.236 162.61 257.441 163.629 255.37C165.027 252.534 164.175 249.424 162.935 246.716C162.804 246.428 162.348 246.633 162.432 246.928Z" fill="#6A220C"/>
<path d="M151.502 244.91C151.914 247.196 151.956 249.785 150.341 251.646C149.681 252.406 148.885 252.923 147.881 253.076C146.72 253.252 146.048 252.651 145.018 252.413C144.676 252.336 144.462 252.671 144.594 252.966C145.597 255.225 149.275 254.241 150.653 252.949C152.902 250.838 152.759 247.505 152.056 244.756C151.962 244.393 151.437 244.551 151.502 244.91Z" fill="#6A220C"/>
<path d="M125.68 251.299C125.328 254.975 127.957 259.819 132.224 259.474C137.469 259.051 138.92 253.833 138.57 249.328C138.537 248.911 137.926 248.779 137.811 249.223C136.939 252.553 137.404 257.101 133.137 258.056C129.148 258.948 126.269 254.869 125.988 251.299C125.974 251.098 125.698 251.101 125.68 251.299Z" fill="#6A220C"/>
<path d="M208.588 241.212C204.471 231.324 197.607 221.958 189.557 214.95C179.521 206.214 168.213 202.764 155.233 202.764C140.794 202.764 126.355 202.764 111.917 202.764C99.4594 202.764 88.7081 203.76 78.0232 211.351C67.8019 218.613 59.2738 229.616 54.4444 241.212C53.9201 242.47 55.9708 243.02 56.4895 241.777C60.3126 232.595 67.2479 223.175 74.9746 216.449C85.3514 207.416 96.6171 204.884 109.771 204.884C122.785 204.884 135.801 204.884 148.815 204.884C160.869 204.884 171.202 204.899 181.932 211.828C192.621 218.73 201.781 230.342 206.543 241.777C207.06 243.017 209.112 242.473 208.588 241.212Z" fill="#6A220C"/>
<path d="M189.258 212.349C189.638 206.715 182.798 198.829 182.798 198.829H80.2825C80.2825 198.829 73.4434 206.715 73.8207 212.349C74.2009 217.987 80.1384 218.996 80.1384 218.996C80.1384 218.996 77.8699 225.333 81.8414 227.98C85.8143 230.629 91.5822 227.79 91.5822 227.79C91.5822 227.79 90.2579 236.587 101.512 236.491C101.512 236.491 104.822 242.922 112.293 238.856C112.293 238.856 116.265 246.042 124.02 240.085C124.02 240.085 126.479 245.57 131.54 245.097C136.601 245.57 139.059 240.085 139.059 240.085C146.816 246.042 150.787 238.856 150.787 238.856C158.258 242.922 161.568 236.491 161.568 236.491C172.822 236.587 171.498 227.79 171.498 227.79C171.498 227.79 177.267 230.629 181.239 227.98C185.212 225.333 182.941 218.996 182.941 218.996C182.941 218.996 188.879 217.987 189.258 212.349Z" fill="#C26C4F"/>
<path d="M131.487 226.291C122.915 226.291 99.543 224.684 74.9014 211.207C75.0045 210.179 75.331 209.037 75.8003 207.892C76.0335 207.318 76.302 206.745 76.5903 206.183C86.2434 211.841 97.0032 215.804 107.616 218.804C114.847 220.847 123.498 223.757 131.186 223.757C131.418 223.757 131.65 223.754 131.88 223.748C142.698 223.495 154.721 219.351 164.784 215.843C172.138 213.281 179.58 210.142 186.469 206.138C187.334 207.821 188.012 209.606 188.176 211.153C163.511 224.676 140.059 226.291 131.487 226.291Z" fill="#AB4D33"/>
<path d="M79.4826 198.137C79.4614 198.163 77.8135 200.061 76.1486 202.698C75.3161 204.018 74.478 205.523 73.8377 207.09C73.2003 208.658 72.7509 210.289 72.748 211.891C72.748 212.068 72.7523 212.246 72.765 212.423C72.8696 214.015 73.3841 215.336 74.0964 216.369C75.1677 217.921 76.6333 218.823 77.8092 219.348C78.9894 219.874 79.9024 220.031 79.9617 220.042L80.1398 218.997L79.1265 218.687C79.1109 218.745 78.5357 220.605 78.5315 222.856C78.5357 224.39 78.7929 226.148 79.8487 227.621C80.3744 228.351 81.1108 228.987 82.0507 229.418C82.9905 229.852 84.1198 230.083 85.4498 230.083C87.2065 230.081 89.3223 229.687 91.9271 228.795L91.5836 227.791L90.535 227.635C90.5293 227.676 90.4756 228.045 90.4756 228.627C90.4784 229.847 90.7017 232.054 92.2479 234.032C93.0182 235.015 94.122 235.914 95.6159 236.546C97.1112 237.18 98.9867 237.553 101.333 237.553L101.522 237.552L101.514 236.492L100.571 236.978C100.609 237.048 101.138 238.071 102.273 239.127C103.399 240.177 105.197 241.268 107.619 241.265C109.146 241.265 110.881 240.834 112.801 239.788L112.295 238.857L111.368 239.37C111.404 239.433 111.95 240.42 113.061 241.436C114.163 242.447 115.893 243.509 118.184 243.509C120.078 243.511 122.264 242.776 124.667 240.927L124.021 240.086L123.053 240.52C123.084 240.582 123.685 241.928 124.947 243.32C125.58 244.016 126.383 244.725 127.379 245.271C128.374 245.815 129.571 246.189 130.927 246.187C131.16 246.187 131.399 246.176 131.641 246.154L131.542 245.098L131.443 246.154C131.686 246.176 131.923 246.187 132.156 246.187C133.512 246.189 134.709 245.815 135.704 245.271C137.198 244.451 138.256 243.27 138.96 242.304C139.661 241.334 140.008 240.567 140.029 240.52L139.061 240.086L138.416 240.927C140.817 242.777 143.004 243.511 144.899 243.509C147.19 243.509 148.92 242.447 150.022 241.436C151.133 240.42 151.679 239.433 151.717 239.37L150.789 238.857L150.283 239.788C152.202 240.834 153.939 241.265 155.464 241.265C157.888 241.268 159.684 240.177 160.811 239.127C161.945 238.072 162.474 237.048 162.512 236.978L161.569 236.492L161.561 237.552L161.75 237.553C164.097 237.553 165.972 237.18 167.466 236.548C169.713 235.602 171.056 234.043 171.764 232.526C172.478 231.007 172.605 229.547 172.608 228.628C172.606 228.046 172.554 227.676 172.547 227.635L171.5 227.791L171.138 228.788C171.2 228.805 174.07 229.862 177.208 229.869C178.877 229.865 180.674 229.573 182.141 228.484C182.87 227.943 183.492 227.195 183.909 226.256C184.329 225.314 184.548 224.195 184.548 222.886C184.546 221.682 184.364 220.312 183.971 218.741L182.942 218.997L183.12 220.042C183.199 220.025 184.798 219.758 186.521 218.687C187.38 218.15 188.275 217.402 188.987 216.368C189.699 215.336 190.212 214.015 190.317 212.423C190.33 212.245 190.335 212.068 190.335 211.89C190.332 210.286 189.883 208.657 189.244 207.089C187.322 202.405 183.632 198.184 183.599 198.136C183.216 197.694 182.546 197.646 182.104 198.03C181.662 198.414 181.615 199.084 181.998 199.525L182.063 199.601C182.396 199.994 183.968 201.894 185.435 204.304C186.911 206.703 188.234 209.646 188.215 211.89C188.215 212.023 188.211 212.153 188.202 212.28C188.118 213.506 187.747 214.424 187.24 215.168C186.481 216.276 185.362 216.989 184.41 217.412C183.936 217.624 183.51 217.763 183.209 217.846C183.059 217.887 182.941 217.915 182.864 217.932L182.779 217.949L182.763 217.952L182.792 218.113L182.765 217.952H182.763L182.792 218.113L182.765 217.952C182.474 218.001 182.217 218.17 182.054 218.417C181.893 218.664 181.842 218.968 181.915 219.253C182.275 220.695 182.428 221.9 182.428 222.886C182.426 223.962 182.248 224.774 181.972 225.392C181.554 226.312 180.939 226.849 180.118 227.225C179.301 227.595 178.27 227.751 177.208 227.749C175.882 227.751 174.524 227.512 173.512 227.27C173.006 227.149 172.586 227.027 172.297 226.938C172.151 226.893 172.038 226.856 171.965 226.831L171.881 226.802L171.86 226.795C171.509 226.668 171.115 226.736 170.827 226.972C170.54 227.208 170.396 227.581 170.451 227.95L170.533 227.937L170.451 227.949V227.95L170.533 227.937L170.451 227.949C170.455 227.978 170.488 228.233 170.488 228.628C170.49 229.588 170.286 231.312 169.168 232.723C168.606 233.434 167.819 234.092 166.639 234.595C165.459 235.096 163.875 235.433 161.75 235.433L161.578 235.432C161.179 235.43 160.811 235.653 160.627 236.008L160.823 236.109L160.628 236.005L160.627 236.008L160.823 236.109L160.628 236.005C160.61 236.044 160.155 236.872 159.287 237.646C158.412 238.424 157.182 239.142 155.464 239.145C154.337 239.143 152.965 238.834 151.296 237.927C150.784 237.648 150.143 237.835 149.861 238.343L150.011 238.427L149.863 238.342L149.861 238.343L150.011 238.427L149.863 238.342C149.84 238.383 149.367 239.19 148.513 239.944C147.649 240.701 146.462 241.388 144.899 241.389C143.558 241.387 141.849 240.887 139.706 239.247C139.449 239.047 139.117 238.979 138.802 239.059C138.487 239.14 138.227 239.355 138.094 239.654L138.092 239.655C138.056 239.741 137.495 240.912 136.469 242C135.957 242.545 135.335 243.068 134.618 243.447C133.899 243.826 133.095 244.066 132.156 244.067C131.988 244.067 131.817 244.059 131.641 244.044H131.443C131.266 244.059 131.094 244.067 130.927 244.067C129.959 244.066 129.132 243.81 128.396 243.409C127.296 242.812 126.421 241.866 125.839 241.06C125.548 240.659 125.33 240.296 125.187 240.038C125.115 239.91 125.063 239.808 125.03 239.74L124.995 239.668L124.988 239.654C124.855 239.355 124.596 239.14 124.28 239.059C123.965 238.979 123.634 239.047 123.375 239.247C121.233 240.887 119.525 241.387 118.184 241.389C116.572 241.389 115.356 240.656 114.49 239.87C114.061 239.48 113.735 239.083 113.52 238.792C113.414 238.645 113.335 238.526 113.284 238.447L113.232 238.36L113.222 238.342L113.068 238.43L113.222 238.343V238.342L113.068 238.43L113.222 238.343C112.941 237.835 112.299 237.648 111.787 237.927C110.118 238.834 108.746 239.143 107.619 239.145C105.847 239.142 104.591 238.376 103.714 237.571C103.28 237.171 102.955 236.762 102.745 236.463C102.64 236.314 102.562 236.191 102.514 236.111L102.464 236.021L102.455 236.005L102.263 236.108L102.456 236.008L102.455 236.005L102.263 236.108L102.456 236.008C102.274 235.653 101.904 235.43 101.505 235.432L101.333 235.433C99.2086 235.433 97.6243 235.096 96.4441 234.594C94.6775 233.838 93.7729 232.742 93.2358 231.62C92.7058 230.502 92.5942 229.341 92.5956 228.627C92.5956 228.402 92.6055 228.222 92.6154 228.104L92.6281 227.974L92.631 227.949L92.5447 227.937L92.631 227.95V227.949L92.5447 227.937L92.631 227.95C92.6861 227.583 92.5476 227.217 92.2621 226.978C91.9766 226.74 91.5907 226.668 91.2388 226.789C88.7895 227.631 86.8829 227.964 85.4498 227.963C84.3615 227.961 83.5488 227.775 82.9368 227.493C82.0266 227.067 81.5037 226.439 81.1419 225.627C80.7886 224.817 80.6501 223.821 80.6515 222.856C80.6515 221.917 80.7786 221.012 80.9058 220.353C80.9709 220.024 81.0345 219.755 81.0811 219.573L81.1362 219.367L81.1532 219.308C81.2422 219.018 81.2013 218.698 81.0416 218.441C80.8833 218.182 80.6161 218.003 80.3179 217.952H80.3151C80.2218 217.938 78.8551 217.66 77.5591 216.809C76.9089 216.385 76.28 215.825 75.7966 215.097C75.3133 214.366 74.9628 213.468 74.8808 212.28C74.8723 212.153 74.8666 212.025 74.8666 211.891C74.8652 210.699 75.2242 209.297 75.8009 207.892C76.6616 205.78 77.9887 203.668 79.0996 202.101C79.655 201.317 80.1554 200.669 80.5143 200.217C80.6938 199.993 80.838 199.817 80.9369 199.699L81.0839 199.525C81.4669 199.082 81.4203 198.414 80.9779 198.03C80.5356 197.646 79.8657 197.694 79.4826 198.137Z" fill="#6A220C"/>
<path d="M84.8229 212.482C83.1042 213.583 81.8223 214.873 80.7185 216.596C79.9058 217.866 78.4557 219.631 79.1893 221.171C79.4211 221.659 80.0542 221.435 80.2182 221.037C81.3997 218.147 82.6845 214.92 84.9416 212.639L84.8229 212.482Z" fill="#6A220C"/>
<path d="M95.6586 218.916C93.8919 220.327 92.8178 222.209 91.8595 224.229C91.1924 225.638 90.278 227.496 91.3832 228.866C91.5472 229.071 91.8708 228.938 91.9373 228.719C92.4022 227.197 92.4828 225.631 93.0637 224.093C93.752 222.263 94.4883 220.543 95.8465 219.104C95.9667 218.977 95.79 218.813 95.6586 218.916Z" fill="#6A220C"/>
<path d="M105.613 222.018C100.678 224.62 97.5414 233.138 101.52 237.747C101.798 238.07 102.389 237.813 102.369 237.395C102.229 234.537 101.223 232.24 101.909 229.309C102.553 226.556 104.023 224.382 105.735 222.174L105.613 222.018Z" fill="#6A220C"/>
<path d="M113.01 226.653C111.231 228.863 110.244 231.495 110.202 234.366C110.171 236.313 110.517 239.067 112.359 240.098C112.729 240.306 113.071 239.965 113.016 239.593C112.862 238.58 112.312 237.79 112.058 236.799C111.752 235.609 111.775 234.432 111.908 233.228C112.15 231.009 112.94 228.945 113.152 226.711L113.01 226.653Z" fill="#6A220C"/>
<path d="M122.973 230.155C121.872 233.335 121.142 239.423 124.522 241.561C124.854 241.772 125.424 241.503 125.37 241.077C125.172 239.505 124.165 238.184 123.695 236.66C123.028 234.489 122.775 232.459 123.133 230.198L122.973 230.155Z" fill="#6A220C"/>
<path d="M178.092 212.639C180.35 214.922 181.634 218.144 182.814 221.037C182.978 221.433 183.612 221.658 183.844 221.171C184.578 219.633 183.122 217.859 182.315 216.597C181.212 214.875 179.931 213.583 178.212 212.482L178.092 212.639Z" fill="#6A220C"/>
<path d="M167.184 219.104C168.543 220.543 169.279 222.263 169.969 224.093C170.547 225.631 170.629 227.197 171.095 228.719C171.16 228.938 171.484 229.071 171.648 228.866C172.754 227.495 171.839 225.642 171.17 224.229C170.215 222.208 169.141 220.328 167.372 218.916C167.241 218.813 167.064 218.977 167.184 219.104Z" fill="#6A220C"/>
<path d="M157.298 222.174C159.014 224.389 160.495 226.536 161.124 229.309C161.775 232.192 160.802 234.568 160.664 237.395C160.643 237.81 161.233 238.072 161.512 237.746C165.494 233.136 162.351 224.617 157.418 222.017L157.298 222.174Z" fill="#6A220C"/>
<path d="M149.88 226.711C150.092 228.945 150.881 231.009 151.125 233.228C151.256 234.432 151.279 235.609 150.972 236.799C150.719 237.79 150.168 238.58 150.016 239.593C149.96 239.965 150.307 240.306 150.673 240.098C152.513 239.067 152.859 236.303 152.831 234.366C152.787 231.502 151.798 228.859 150.021 226.653L149.88 226.711Z" fill="#6A220C"/>
<path d="M139.9 230.198C140.258 232.459 140.003 234.489 139.336 236.66C138.867 238.184 137.859 239.505 137.663 241.077C137.609 241.503 138.179 241.772 138.511 241.561C141.891 239.423 141.159 233.332 140.06 230.155L139.9 230.198Z" fill="#6A220C"/>
<path d="M179.42 80.0012C153.337 61.6405 109.645 61.6405 83.562 80.0012C44.6796 107.373 40.8735 157.714 52.4515 180.871C69.8088 215.585 131.491 222.737 131.491 222.737C131.491 222.737 193.174 215.585 210.531 180.871C222.109 157.714 218.304 107.373 179.42 80.0012Z" fill="#FFD2A8"/>
<path d="M131.62 221.401C127.871 221.401 124.298 220.569 120.386 219.752C105.941 216.735 91.5465 212.148 78.6682 204.853C64.4033 196.77 53.0471 185.128 49.4261 168.767C48.8141 166.008 48.3704 163.207 48.082 160.383C49.0657 165.427 50.5497 169.961 52.4507 173.763C54.0252 176.911 55.9657 179.835 58.1903 182.546C62.3186 189.676 68.1996 195.707 76.021 199.803C76.1383 199.864 76.2528 199.892 76.3573 199.892C76.9382 199.892 77.2746 199.071 76.6909 198.659C74.6529 197.226 72.7251 195.711 70.916 194.118C95.6452 211.474 131.49 215.629 131.49 215.629C131.49 215.629 167.334 211.474 192.063 194.12C190.256 195.711 188.329 197.224 186.29 198.659C185.706 199.071 186.041 199.892 186.622 199.892C186.728 199.892 186.842 199.864 186.96 199.803C194.776 195.71 200.654 189.683 204.782 182.557C207.009 179.843 208.953 176.915 210.53 173.763C212.577 169.669 214.141 164.725 215.116 159.209C214.554 166.41 212.924 173.458 209.864 179.815C197.168 206.195 162.154 216.725 135.404 221.099C134.112 221.311 132.856 221.401 131.62 221.401Z" fill="#FFBC86"/>
<path d="M59.7254 116.18C44.6789 142.141 46.7721 184.483 76.0212 199.802C76.7858 200.205 77.3822 199.146 76.6911 198.659C61.5599 188.018 52.5244 172.908 52.4608 154.175C52.417 141.495 54.9059 128.03 59.9543 116.315C60.0193 116.163 59.8116 116.029 59.7254 116.18Z" fill="#FFE8D3"/>
<path d="M203.028 116.315C208.07 128.013 210.601 141.51 210.522 154.175C210.406 172.917 201.448 187.999 186.292 198.659C185.6 199.146 186.195 200.205 186.961 199.802C216.205 184.486 218.301 142.136 203.257 116.18C203.171 116.029 202.963 116.163 203.028 116.315Z" fill="#FFE8D3"/>
<path d="M179.957 79.0854C143.275 54.0975 88.9391 63.0298 62.9195 98.8566C43.3843 125.754 36.0237 171.299 62.8234 196.083C75.2085 207.537 91.5793 214.271 107.616 218.804C115.066 220.908 124.023 223.933 131.881 223.748C142.698 223.495 154.722 219.351 164.785 215.843C180.337 210.423 196.289 202.425 206.559 189.122C217.844 174.506 218.996 154.305 215.931 136.721C211.876 113.455 199.095 92.9064 179.957 79.0854C178.849 78.2868 177.79 80.1241 178.886 80.9156C196.162 93.3912 208.084 111.54 212.876 132.299C216.39 147.511 216.79 165.432 209.866 179.816C197.17 206.196 162.156 216.725 135.406 221.099C130.193 221.951 125.59 220.838 120.387 219.752C105.943 216.735 91.5482 212.148 78.6698 204.853C64.405 196.77 53.0488 185.128 49.4278 168.767C45.5581 151.289 48.3494 132.151 55.5518 115.896C65.1738 94.177 83.5501 76.8862 106.64 70.5615C130.513 64.0219 158.191 66.819 178.886 80.9156C180.018 81.6859 181.079 79.85 179.957 79.0854Z" fill="#6A220C"/>
<path d="M170.961 103.314C165.666 99.9605 158.557 108.056 151.074 116.15C144.671 123.077 137.994 130.003 131.947 129.758C116.383 129.129 103.676 95.9297 92.0199 103.314C59.9993 123.599 56.8659 163 66.4003 180.162C80.6948 205.889 131.49 213.238 131.49 213.238C131.49 213.238 182.286 205.889 196.58 180.162C206.115 163 202.981 123.599 170.961 103.314Z" fill="#FFE8D3"/>
<path d="M140.439 82.0317C141.914 84.8315 146.268 87.3021 149.291 85.1693C150.806 84.1008 150.609 81.4282 150.423 79.8297C150.164 77.6065 149.357 75.3565 147.776 73.7368C147.37 73.3227 146.741 73.8485 146.995 74.3403C148.211 76.6893 149.898 79.7463 149.124 82.5221C147.993 86.5615 142.572 84.0825 140.973 81.7208C140.751 81.3929 140.251 81.677 140.439 82.0317Z" fill="#6A220C"/>
<path d="M155.335 77.2071C156.467 79.2508 158.885 81.1658 161.277 79.7836C163.079 78.742 163.97 74.9514 162.057 73.6582C161.757 73.4561 161.425 73.7882 161.49 74.0935C161.834 75.7344 162.217 78.2968 160.143 78.9709C158.374 79.5476 156.745 78.1568 155.526 77.0601L155.335 77.2071Z" fill="#6A220C"/>
<path d="M134.758 71.7487C134.972 73.897 136.442 77.2763 139.014 77.289C141.282 77.3003 143.46 74.5146 142.304 72.3791C142.228 72.2377 141.976 72.2194 141.904 72.3791C141.223 73.9013 141.061 76.7477 138.594 76.0948C136.912 75.6481 135.503 73.2681 134.976 71.7176C134.937 71.6088 134.746 71.6173 134.758 71.7487Z" fill="#6A220C"/>
<path d="M122.009 81.7216C120.563 83.8557 114.68 86.8209 113.858 82.5229C113.299 79.5832 114.688 76.8498 115.987 74.3411C116.239 73.8535 115.617 73.3193 115.207 73.7376C113.641 75.3403 112.849 77.5466 112.57 79.7429C112.365 81.3626 112.155 84.0903 113.692 85.1701C116.719 87.2972 121.065 84.8366 122.543 82.0325C122.731 81.6792 122.231 81.3923 122.009 81.7216Z" fill="#6A220C"/>
<path d="M107.458 77.0593C106.266 78.1306 104.579 79.5864 102.84 78.9702C100.788 78.2451 101.142 75.7703 101.493 74.0927C101.558 73.7888 101.225 73.4553 100.927 73.6574C99.0102 74.9534 99.8992 78.7384 101.707 79.7828C104.101 81.1665 106.516 79.2514 107.649 77.2063L107.458 77.0593Z" fill="#6A220C"/>
<path d="M128.007 71.7174C127.489 73.2438 126.063 75.6903 124.389 76.0945C121.919 76.6896 121.776 73.935 121.079 72.3789C121.007 72.2192 120.756 72.2375 120.679 72.3789C119.53 74.5003 121.696 77.3199 123.97 77.2888C126.543 77.2535 128.01 73.9109 128.225 71.7485C128.238 71.6185 128.047 71.6072 128.007 71.7174Z" fill="#6A220C"/>
<path d="M134.936 82.6877C135.731 84.7935 136.193 86.987 136.166 89.2498C136.142 91.1592 135.878 94.7124 134.115 95.9745C131.044 98.175 127.892 95.2678 127.163 92.3026C126.657 90.249 127.04 88.0795 127.026 85.9977C127.022 85.414 126.12 85.2613 125.986 85.8564C124.955 90.3875 126.079 99.276 132.816 98.0549C139.21 96.8974 137.483 86.31 135.663 82.381C135.475 81.9767 134.777 82.2636 134.936 82.6877Z" fill="#6A220C"/>
<path d="M200.167 170.152C200.515 168.521 200.786 166.817 200.979 165.05C202.102 162.84 203.001 160.479 203.648 158.009C203.072 162.573 201.867 166.632 200.167 170.152ZM62.8131 170.15C61.0436 166.489 59.8126 162.242 59.2656 157.455C59.9285 160.005 60.8358 162.475 61.9764 164.803C62.1686 166.656 62.4499 168.445 62.8131 170.15Z" fill="#FFB175"/>
<path d="M131.492 189.275C122.875 187.379 119.673 174.9 118.916 171.272C115.294 175.101 108.711 180.506 97.8901 184.405C94.426 185.653 90.9464 186.259 87.5685 186.259C77.2299 186.259 67.8481 180.569 62.8152 170.15C62.452 168.446 62.1707 166.656 61.9785 164.803C66.3613 173.746 74.1997 180.565 84.9835 181.547C85.8131 181.622 86.6597 181.659 87.5162 181.659C98.5077 181.659 111.495 175.6 119.336 167.092C120.55 171.896 123.941 181.812 131.542 183.485C139.117 181.817 142.509 171.965 143.733 167.142C150.888 174.759 162.19 180.213 171.618 181.414C172.861 181.573 174.085 181.649 175.286 181.649C186.601 181.649 195.996 174.848 200.981 165.051C200.788 166.817 200.517 168.522 200.169 170.153C195.136 180.572 185.756 186.261 175.416 186.259C172.04 186.259 168.557 185.652 165.094 184.405C154.274 180.506 147.691 175.101 144.068 171.272C143.312 174.9 140.109 187.379 131.492 189.275Z" fill="#FFC392"/>
<path d="M122.578 160.967C122.578 160.967 122.534 131.08 95.7552 118.484C68.9766 105.887 57.7942 126.836 59.0281 148.979C60.4118 173.791 79.3788 185.419 97.8893 178.751C116.398 172.081 122.578 160.967 122.578 160.967Z" fill="#C26C4F"/>
<path d="M68.0343 172.571C70.4822 170.95 72.728 168.994 74.9893 167.124C77.4726 165.072 80.2837 163.197 82.4009 160.764C82.8023 160.302 82.3005 159.603 81.738 159.906C79.153 161.3 76.951 163.433 74.7194 165.324C72.246 167.417 69.7049 169.527 67.5707 171.974C67.3036 172.282 67.6513 172.824 68.0343 172.571Z" fill="#6A220C"/>
<path d="M59.7374 144.547C65.4982 145.8 72.3486 146.77 78.2267 146.597C78.8373 146.579 78.9772 145.694 78.3737 145.523C72.7274 143.925 65.6678 143.478 59.8406 143.797C59.4321 143.82 59.2978 144.45 59.7374 144.547Z" fill="#6A220C"/>
<path d="M60.2778 159.236C63.4804 158.511 66.5912 157.315 69.6991 156.262C72.458 155.326 75.3044 154.583 77.9035 153.25C78.4986 152.946 78.0505 152.162 77.4824 152.252C71.7541 153.146 65.1015 155.796 59.9852 158.54C59.5937 158.751 59.8679 159.33 60.2778 159.236Z" fill="#6A220C"/>
<path d="M61.5848 127.73C64.4822 129.856 67.6254 131.666 70.6924 133.532C73.7438 135.386 76.7245 137.549 80.0063 138.971C80.5236 139.197 81.1808 138.558 80.6692 138.113C78.0757 135.857 74.9494 134.24 72.004 132.493C68.7448 130.561 65.4574 128.564 61.9706 127.074C61.5198 126.882 61.1848 127.436 61.5848 127.73Z" fill="#6A220C"/>
<path d="M74.8183 115.945C76.2303 119.253 78.0153 122.414 79.7056 125.583C81.3861 128.73 82.8489 132.111 84.9491 135.004C85.2869 135.469 86.159 135.216 85.947 134.583C84.8658 131.32 82.9945 128.332 81.3465 125.329C79.5276 122.01 77.7185 118.618 75.4769 115.561C75.183 115.161 74.6275 115.496 74.8183 115.945Z" fill="#6A220C"/>
<path d="M88.7494 115.754C89.3374 121.623 90.519 128.425 92.4976 133.967C92.6941 134.516 93.5958 134.474 93.5718 133.821C93.3499 127.961 91.5988 121.101 89.4971 115.651C89.3558 115.288 88.7028 115.291 88.7494 115.754Z" fill="#6A220C"/>
<path d="M103.069 122.526C101.682 125.074 100.631 127.823 99.5248 130.504C98.2768 133.535 96.7278 136.515 95.925 139.702C95.7724 140.309 96.5921 140.647 96.9242 140.124C100.048 135.221 102.455 128.452 103.765 122.82C103.859 122.413 103.281 122.133 103.069 122.526Z" fill="#6A220C"/>
<path d="M113.157 133.566C110.713 135.194 108.473 137.155 106.216 139.03C103.738 141.088 100.933 142.972 98.8215 145.41C98.4215 145.871 98.919 146.575 99.4829 146.269C102.067 144.867 104.26 142.73 106.487 140.835C108.957 138.732 111.492 136.618 113.619 134.166C113.886 133.857 113.54 133.313 113.157 133.566Z" fill="#6A220C"/>
<path d="M118.624 144.707C115.859 145.634 113.214 146.937 110.562 148.147C107.604 149.496 104.42 150.623 101.698 152.411C101.187 152.748 101.501 153.567 102.119 153.41C104.964 152.695 107.593 151.264 110.233 150.015C113.184 148.62 116.208 147.228 118.919 145.402C119.257 145.174 119.056 144.562 118.624 144.707Z" fill="#6A220C"/>
<path d="M122.895 160.794C117.503 158.605 110.904 156.432 105.143 155.64C104.592 155.565 104.109 156.338 104.723 156.639C110.032 159.238 116.932 160.848 122.794 161.542C123.258 161.597 123.255 160.94 122.895 160.794Z" fill="#6A220C"/>
<path d="M110.529 172.588C108.848 169.825 106.754 167.29 104.795 164.717C103.02 162.388 101.403 159.795 99.2623 157.786C98.7973 157.35 98.1316 157.895 98.4043 158.449C99.6961 161.074 101.761 163.369 103.564 165.667C105.562 168.214 107.568 170.83 109.93 173.05C110.24 173.339 110.761 172.968 110.529 172.588Z" fill="#6A220C"/>
<path d="M97.9396 179.02C97.8972 173.125 97.339 166.246 95.8719 160.525C95.7151 159.908 94.8317 160.07 94.7978 160.67C94.484 166.448 95.609 173.551 97.1906 179.123C97.3065 179.531 97.9425 179.456 97.9396 179.02Z" fill="#6A220C"/>
<path d="M84.0394 180.348C86.1877 175.548 87.3169 169.365 87.731 164.132C87.7847 163.438 86.7572 163.359 86.5594 163.974C84.9736 168.924 83.6776 175.069 83.8528 180.297L84.0394 180.348Z" fill="#6A220C"/>
<path d="M123.636 160.966C123.559 151.666 120.26 141.865 115.245 134.123C107.287 121.836 89.4942 109.556 74.2287 114.688C59.9087 119.502 56.8276 138.1 58.135 151.132C59.6246 166.02 69.1166 180.1 84.9814 181.546C98.6569 182.79 116.557 173.548 123.494 161.502C124.175 160.318 122.343 159.248 121.662 160.432C114.43 172.995 94.6939 182.482 80.6707 178.627C60.4868 173.081 55.9994 146.504 62.8513 129.348C71.8416 106.832 98.9622 116.871 110.754 131.505C117.224 139.536 121.429 150.565 121.516 160.966C121.529 162.33 123.649 162.333 123.636 160.966Z" fill="#6A220C"/>
<path d="M140.406 160.967C140.406 160.967 140.45 131.08 167.229 118.484C194.007 105.887 205.191 126.836 203.957 148.979C202.572 173.791 183.605 185.419 165.095 178.751C146.585 172.081 140.406 160.967 140.406 160.967Z" fill="#C26C4F"/>
<path d="M195.411 171.974C193.278 169.53 190.733 167.416 188.263 165.324C186.028 163.432 183.832 161.302 181.244 159.907C180.686 159.604 180.177 160.3 180.581 160.765C182.695 163.193 185.515 165.077 187.993 167.125C190.254 168.996 192.498 170.949 194.948 172.572C195.328 172.823 195.681 172.285 195.411 171.974Z" fill="#6A220C"/>
<path d="M203.142 143.797C197.309 143.477 190.248 143.926 184.609 145.523C184.01 145.693 184.14 146.579 184.756 146.597C190.637 146.77 197.49 145.799 203.245 144.547C203.681 144.45 203.555 143.82 203.142 143.797Z" fill="#6A220C"/>
<path d="M202.998 158.541C197.882 155.796 191.229 153.146 185.501 152.253C184.939 152.164 184.481 152.944 185.08 153.25C187.679 154.583 190.526 155.327 193.284 156.262C196.392 157.315 199.503 158.511 202.706 159.236C203.111 159.329 203.394 158.754 202.998 158.541Z" fill="#6A220C"/>
<path d="M201.01 127.074C197.521 128.564 194.237 130.561 190.976 132.493C188.032 134.238 184.905 135.857 182.311 138.112C181.804 138.555 182.451 139.198 182.974 138.97C186.259 137.548 189.235 135.386 192.288 133.532C195.356 131.668 198.499 129.856 201.395 127.73C201.794 127.437 201.46 126.881 201.01 127.074Z" fill="#6A220C"/>
<path d="M187.505 115.561C185.264 118.618 183.455 122.009 181.634 125.329C179.989 128.331 178.116 131.322 177.035 134.584C176.826 135.211 177.692 135.474 178.033 135.005C180.135 132.109 181.596 128.732 183.276 125.583C184.967 122.415 186.752 119.252 188.164 115.946C188.355 115.496 187.799 115.161 187.505 115.561Z" fill="#6A220C"/>
<path d="M173.484 115.651C171.381 121.104 169.632 127.97 169.41 133.821C169.386 134.468 170.286 134.522 170.484 133.966C172.464 128.42 173.644 121.617 174.232 115.754C174.279 115.293 173.627 115.283 173.484 115.651Z" fill="#6A220C"/>
<path d="M159.219 122.82C160.53 128.452 162.936 135.221 166.06 140.124C166.389 140.641 167.213 140.315 167.059 139.703C166.256 136.516 164.707 133.535 163.459 130.505C162.353 127.824 161.303 125.075 159.915 122.526C159.704 122.136 159.125 122.409 159.219 122.82Z" fill="#6A220C"/>
<path d="M149.363 134.165C151.487 136.615 154.028 138.733 156.494 140.835C158.725 142.733 160.914 144.866 163.498 146.269C164.059 146.572 164.563 145.875 164.16 145.41C162.053 142.976 159.239 141.085 156.766 139.03C154.509 137.154 152.27 135.196 149.825 133.566C149.445 133.316 149.093 133.854 149.363 134.165Z" fill="#6A220C"/>
<path d="M144.065 145.402C146.774 147.228 149.799 148.62 152.75 150.015C155.39 151.265 158.02 152.695 160.864 153.41C161.476 153.566 161.799 152.75 161.285 152.411C158.563 150.623 155.379 149.497 152.42 148.147C149.769 146.937 147.123 145.634 144.357 144.707C143.929 144.564 143.721 145.172 144.065 145.402Z" fill="#6A220C"/>
<path d="M140.187 161.542C146.049 160.848 152.949 159.238 158.258 156.639C158.867 156.341 158.395 155.563 157.838 155.64C152.072 156.432 145.474 158.606 140.086 160.794C139.729 160.938 139.719 161.597 140.187 161.542Z" fill="#6A220C"/>
<path d="M153.052 173.051C155.41 170.832 157.423 168.213 159.417 165.668C161.224 163.365 163.281 161.081 164.577 158.45C164.849 157.901 164.187 157.347 163.72 157.787C161.58 159.794 159.959 162.391 158.186 164.718C156.226 167.291 154.136 169.824 152.452 172.589C152.223 172.965 152.739 173.342 153.052 173.051Z" fill="#6A220C"/>
<path d="M165.792 179.122C167.372 173.557 168.497 166.428 168.185 160.67C168.151 160.075 167.269 159.902 167.111 160.524C165.642 166.251 165.085 173.128 165.043 179.019C165.04 179.452 165.675 179.535 165.792 179.122Z" fill="#6A220C"/>
<path d="M179.13 180.297C179.306 175.066 178.008 168.918 176.424 163.974C176.229 163.365 175.197 163.431 175.252 164.132C175.666 169.365 176.796 175.548 178.944 180.348L179.13 180.297Z" fill="#6A220C"/>
<path d="M141.464 160.968C141.552 150.568 145.757 139.539 152.227 131.507C164.01 116.883 191.132 106.815 200.129 129.35C206.981 146.505 202.49 173.084 182.31 178.629C168.305 182.477 148.545 172.987 141.319 160.433C140.639 159.25 138.806 160.318 139.487 161.503C145.528 171.993 159.995 179.933 171.617 181.414C187.384 183.421 200.141 172.328 203.787 157.463C206.991 144.4 205.5 124.583 192.854 116.634C178.991 107.924 159.719 118.943 150.727 130.008C143.874 138.442 139.436 150.011 139.344 160.968C139.332 162.333 141.452 162.334 141.464 160.968Z" fill="#6A220C"/>
<path d="M90.4298 134.752C73.8994 134.334 70.7604 154.214 76.4095 163.211C79.2348 167.709 82.7667 170.835 90.4298 170.835C97.8442 170.835 101.623 167.709 104.449 163.211C110.098 154.214 106.96 134.334 90.4298 134.752Z" fill="#FFC42F"/>
<path d="M107.303 146.865C103.895 135.445 90.426 129.112 80.0606 136.751C72.0526 142.653 70.7184 155.475 75.4955 163.746C76.1767 164.927 78.0098 163.86 77.3258 162.676C73.4843 156.026 74.0214 146.042 79.3285 140.27C87.7506 131.109 101.997 136.499 105.258 147.43C105.648 148.735 107.694 148.178 107.303 146.865Z" fill="#6A220C"/>
<path d="M105.191 153.385C105.191 160.524 100.509 166.312 94.7327 166.312C88.9578 166.312 84.2754 160.524 84.2754 153.385C84.2754 146.245 88.9578 140.457 94.7327 140.457C100.509 140.457 105.191 146.245 105.191 153.385Z" fill="#6A220C"/>
<path d="M172.554 134.752C189.083 134.334 192.222 154.214 186.573 163.211C183.748 167.709 180.216 170.835 172.554 170.835C165.138 170.835 161.359 167.709 158.534 163.211C152.885 154.214 156.022 134.334 172.554 134.752Z" fill="#FFC42F"/>
<path d="M157.725 147.431C160.993 136.477 175.241 131.122 183.654 140.271C188.96 146.039 189.497 156.029 185.657 162.676C184.974 163.859 186.805 164.929 187.487 163.746C192.266 155.474 190.929 142.652 182.922 136.751C172.564 129.117 159.086 135.45 155.68 146.865C155.29 148.177 157.335 148.737 157.725 147.431Z" fill="#6A220C"/>
<path d="M157.793 153.385C157.793 160.524 162.475 166.312 168.252 166.312C174.028 166.312 178.709 160.524 178.709 153.385C178.709 146.245 174.028 140.457 168.252 140.457C162.475 140.457 157.793 146.245 157.793 153.385Z" fill="#6A220C"/>
<path d="M197.392 179.51C210.909 170.316 202.203 162.015 193.046 168.368C180.371 177.162 186.33 187.031 197.392 179.51Z" fill="#FF8285"/>
<path d="M65.6251 179.51C52.1065 170.316 60.8141 162.015 69.9711 168.368C82.646 177.162 76.6873 187.031 65.6251 179.51Z" fill="#FF8285"/>
<path d="M83.1604 132.76C85.9574 131.56 89.7848 130.716 94.2184 132.309C97.3886 133.448 99.1453 130.907 96.8232 129.09C94.1464 126.995 87.4344 125.778 82.7421 128.083C78.0498 130.387 78.372 131.96 78.748 132.855C79.1225 133.749 80.5288 133.887 83.1604 132.76Z" fill="#6A220C"/>
<path d="M179.822 132.76C177.024 131.56 173.197 130.716 168.764 132.309C165.593 133.448 163.836 130.907 166.158 129.09C168.835 126.995 175.547 125.778 180.239 128.083C184.932 130.387 184.609 131.96 184.233 132.855C183.859 133.749 182.453 133.887 179.822 132.76Z" fill="#6A220C"/>
<mask id="mask1_346_12566" style="mask-type:luminance" maskUnits="userSpaceOnUse" x="55" y="111" width="18" height="9">
<path d="M66.7157 119.284C64.1123 118.729 61.752 117.997 59.6108 117.129C59.7239 116.857 59.8398 116.586 59.9557 116.316C59.9995 116.212 59.9161 116.115 59.8299 116.115C59.7917 116.115 59.7536 116.135 59.7267 116.182C59.5712 116.449 59.4186 116.718 59.2674 116.988C58.042 116.477 56.8887 115.922 55.8047 115.33C56.4181 113.973 57.0654 112.633 57.7452 111.314C62.3188 113.482 67.3277 114.873 72.3775 115.416C70.2109 116.392 68.334 117.708 66.7157 119.284Z" fill="white"/>
</mask>
<g mask="url(#mask1_346_12566)">
<path d="M55.8047 119.284H72.3778V111.314H55.8047V119.284Z" fill="#FFB175"/>
</g>
<path d="M59.6091 117.129C59.4932 117.082 59.3801 117.036 59.2656 116.988C59.4169 116.718 59.5695 116.449 59.725 116.182C59.7518 116.135 59.79 116.116 59.8281 116.116C59.9143 116.116 59.9977 116.212 59.9539 116.316C59.838 116.586 59.7221 116.858 59.6091 117.129Z" fill="#FFC392"/>
<path d="M55.8046 115.328C55.4951 115.159 55.1898 114.986 54.8916 114.812C55.4923 113.484 56.1283 112.162 56.8024 110.851C57.1134 111.008 57.43 111.163 57.7451 111.313C57.0653 112.631 56.418 113.971 55.8046 115.328Z" fill="#6A1D08"/>
<path d="M121.233 156.481C120.349 153.318 119.155 149.82 117.533 146.284C117.879 146.075 118.219 145.862 118.557 145.641C119.144 147.254 119.67 148.889 120.137 150.541C120.632 152.509 121.001 154.497 121.233 156.481ZM117.059 145.274C115.591 142.224 113.797 139.165 111.606 136.292C112.127 135.783 112.634 135.263 113.122 134.726C114.132 136.233 115.068 137.814 115.92 139.454C116.786 141.207 117.562 143.004 118.256 144.833C117.855 144.973 117.455 145.12 117.059 145.274ZM110.802 135.267C108.48 132.397 105.737 129.738 102.496 127.49C102.817 126.452 103.109 125.423 103.369 124.421C106.179 126.545 108.699 128.955 110.754 131.506C111.389 132.295 112.002 133.11 112.592 133.953C111.984 134.374 111.389 134.815 110.802 135.267ZM101.138 126.589C98.3437 124.825 95.2018 123.361 91.667 122.308C91.2247 120.672 90.7271 119.07 90.1943 117.55C94.4739 118.871 98.6857 121.043 102.44 123.737C101.976 124.671 101.548 125.627 101.138 126.589ZM89.523 121.732C86.2271 120.94 82.6117 120.495 78.6445 120.475C77.9025 119.2 77.1308 117.944 76.3026 116.731C77.9548 116.326 79.6748 116.136 81.4302 116.136C81.5249 116.136 81.6196 116.136 81.7143 116.138C83.6958 116.307 85.6476 116.523 87.5782 116.85C88.0192 116.949 88.4616 117.058 88.9025 117.176C89.0707 118.659 89.277 120.19 89.523 121.732ZM76.9669 120.451C74.3847 120.383 71.9778 120.17 69.7334 119.832C71.4421 118.536 73.3119 117.61 75.2864 117.01C75.8136 118.17 76.3803 119.316 76.9669 120.451Z" fill="#C25B37"/>
<path d="M78.6442 120.476C78.6146 120.476 78.5835 120.476 78.5538 120.476C78.0181 120.473 77.4881 120.466 76.9666 120.452C76.3801 119.317 75.8133 118.17 75.2861 117.01C75.6225 116.907 75.9603 116.815 76.3024 116.732C77.1306 117.944 77.9022 119.201 78.6442 120.476Z" fill="#6A1D08"/>
<path d="M91.6668 122.308C90.9687 122.098 90.2535 121.906 89.5228 121.731C89.2769 120.189 89.0705 118.658 88.9023 117.176C89.3334 117.292 89.7645 117.416 90.1941 117.549C90.727 119.07 91.2245 120.671 91.6668 122.308Z" fill="#6A1D08"/>
<path d="M102.497 127.489C102.053 127.181 101.601 126.882 101.139 126.589C101.549 125.626 101.977 124.671 102.44 123.737C102.753 123.96 103.064 124.191 103.37 124.421C103.11 125.423 102.818 126.452 102.497 127.489Z" fill="#6A1D08"/>
<path d="M111.607 136.292C111.344 135.947 111.077 135.607 110.803 135.267C111.389 134.815 111.984 134.374 112.592 133.953C112.77 134.209 112.947 134.466 113.122 134.726C112.634 135.263 112.127 135.783 111.607 136.292Z" fill="#6A1D08"/>
<path d="M117.535 146.284C117.381 145.948 117.223 145.61 117.062 145.274C117.457 145.12 117.857 144.973 118.259 144.833C118.36 145.101 118.461 145.371 118.56 145.641C118.222 145.862 117.881 146.075 117.535 146.284Z" fill="#6A1D08"/>
<path d="M122.101 159.878C121.851 158.804 121.564 157.666 121.233 156.482C121.001 154.497 120.632 152.509 120.138 150.541C121.001 153.581 121.674 156.68 122.194 159.795C122.163 159.821 122.132 159.85 122.101 159.878ZM115.92 139.454C115.068 137.814 114.132 136.233 113.122 134.726C112.947 134.466 112.77 134.209 112.592 133.953C112.003 133.111 111.389 132.295 110.755 131.507C108.7 128.955 106.18 126.546 103.37 124.421C103.063 124.191 102.752 123.961 102.44 123.737C98.686 121.044 94.4743 118.871 90.1947 117.55C89.765 117.417 89.334 117.293 88.9029 117.177C88.4619 117.058 88.0195 116.949 87.5786 116.85C91.4695 117.512 95.2742 118.628 99.0549 120.759C105.346 124.304 110.332 129.682 113.981 135.867C114.674 137.04 115.318 138.237 115.92 139.454ZM69.7338 119.832C68.6935 119.675 67.6872 119.492 66.7148 119.284C68.3331 117.708 70.21 116.392 72.3767 115.416C72.7145 115.452 73.0508 115.483 73.3901 115.513C76.2309 115.753 78.9996 115.903 81.7146 116.138C81.6199 116.136 81.5252 116.136 81.4305 116.136C79.6752 116.136 77.9552 116.326 76.303 116.731C75.9609 116.815 75.6231 116.907 75.2867 117.01C73.3123 117.611 71.4425 118.536 69.7338 119.832Z" fill="#6A1D08"/>
<path d="M196.251 119.288C195.221 118.302 194.092 117.411 192.855 116.634C192.129 116.177 191.387 115.775 190.632 115.423C195.653 114.893 200.634 113.523 205.192 111.382C205.869 112.689 206.516 114.015 207.128 115.358C206.058 115.938 204.922 116.485 203.717 116.987C203.565 116.717 203.411 116.449 203.257 116.182C203.23 116.135 203.192 116.115 203.154 116.115C203.068 116.115 202.984 116.211 203.028 116.316C203.146 116.586 203.26 116.857 203.373 117.128C201.226 117.998 198.86 118.731 196.251 119.288Z" fill="#FFB175"/>
<path d="M203.372 117.129C203.258 116.858 203.144 116.586 203.027 116.316C202.983 116.212 203.066 116.116 203.153 116.116C203.191 116.116 203.229 116.135 203.256 116.182C203.41 116.449 203.564 116.718 203.715 116.988C203.601 117.036 203.486 117.082 203.372 117.129Z" fill="#FFC392"/>
<path d="M207.127 115.357C206.515 114.015 205.867 112.689 205.19 111.382C205.53 111.223 205.866 111.059 206.201 110.891C206.867 112.19 207.497 113.497 208.091 114.813C207.775 114.997 207.455 115.179 207.127 115.357Z" fill="#6A1D08"/>
<path d="M141.75 156.481C141.891 155.265 142.085 154.048 142.328 152.835C142.934 150.417 143.652 148.03 144.502 145.691C144.814 145.894 145.129 146.091 145.45 146.284C143.828 149.82 142.633 153.318 141.75 156.481ZM145.924 145.274C145.555 145.131 145.183 144.992 144.808 144.861C145.915 141.938 147.232 139.1 148.798 136.384C149.143 135.823 149.498 135.27 149.861 134.727C150.349 135.263 150.856 135.783 151.376 136.292C149.186 139.165 147.392 142.224 145.924 145.274ZM152.18 135.267C151.594 134.815 150.999 134.374 150.391 133.953C150.981 133.11 151.594 132.295 152.229 131.506C154.284 128.957 156.804 126.545 159.613 124.421C159.873 125.423 160.166 126.452 160.487 127.49C157.246 129.738 154.503 132.397 152.18 135.267ZM161.845 126.589C161.435 125.627 161.007 124.671 160.543 123.737C164.296 121.043 168.51 118.87 172.788 117.547C172.257 119.067 171.758 120.67 171.316 122.307C167.782 123.361 164.639 124.825 161.845 126.589ZM173.458 121.732C173.706 120.188 173.912 118.656 174.082 117.174C174.412 117.085 174.744 117.001 175.077 116.922C177.164 116.549 179.276 116.314 181.423 116.132C181.466 116.131 181.512 116.131 181.555 116.131C183.311 116.131 185.029 116.321 186.683 116.726C185.853 117.941 185.08 119.199 184.338 120.475C180.371 120.495 176.756 120.94 173.458 121.732ZM186.016 120.451C186.602 119.313 187.171 118.167 187.698 117.005C189.675 117.607 191.543 118.535 193.254 119.831C191.008 120.168 188.599 120.383 186.016 120.451Z" fill="#C25B37"/>
<path d="M184.339 120.476C185.081 119.199 185.854 117.941 186.684 116.726C187.024 116.811 187.363 116.903 187.698 117.006C187.171 118.168 186.603 119.314 186.017 120.452C185.494 120.466 184.965 120.473 184.429 120.476C184.4 120.476 184.369 120.476 184.339 120.476Z" fill="#6A1D08"/>
<path d="M171.316 122.307C171.759 120.67 172.258 119.067 172.789 117.547C173.219 117.414 173.651 117.288 174.082 117.173C173.913 118.656 173.706 120.188 173.459 121.731C172.73 121.907 172.016 122.099 171.316 122.307Z" fill="#6A1D08"/>
<path d="M160.486 127.489C160.165 126.452 159.872 125.423 159.612 124.421C159.919 124.189 160.23 123.96 160.542 123.737C161.006 124.671 161.434 125.626 161.844 126.589C161.382 126.882 160.93 127.181 160.486 127.489Z" fill="#6A1D08"/>
<path d="M151.376 136.292C150.856 135.783 150.349 135.263 149.861 134.727C150.037 134.466 150.213 134.209 150.391 133.953C150.999 134.374 151.594 134.815 152.181 135.267C151.906 135.607 151.639 135.947 151.376 136.292Z" fill="#6A1D08"/>
<path d="M145.449 146.284C145.129 146.091 144.813 145.894 144.501 145.691C144.601 145.414 144.703 145.137 144.808 144.861C145.182 144.992 145.554 145.131 145.923 145.274C145.762 145.61 145.603 145.948 145.449 146.284Z" fill="#6A1D08"/>
<path d="M140.899 159.805C140.895 159.802 140.891 159.798 140.887 159.795C141.277 157.46 141.752 155.135 142.328 152.835C142.085 154.048 141.892 155.265 141.75 156.482C141.427 157.638 141.145 158.753 140.899 159.805ZM148.799 136.384C148.899 136.212 148.999 136.039 149.101 135.867C152.76 129.684 157.729 124.309 164.027 120.76C167.675 118.703 171.337 117.591 175.077 116.922C174.745 117.002 174.413 117.085 174.082 117.174C173.651 117.289 173.218 117.414 172.789 117.547C168.51 118.87 164.296 121.044 160.543 123.738C160.231 123.961 159.92 124.19 159.613 124.422C156.804 126.546 154.284 128.957 152.229 131.507C151.594 132.295 150.981 133.111 150.391 133.953C150.213 134.209 150.037 134.466 149.861 134.728C149.498 135.27 149.143 135.823 148.799 136.384ZM193.254 119.831C191.544 118.535 189.675 117.608 187.698 117.006C187.363 116.903 187.024 116.811 186.683 116.726C185.03 116.322 183.311 116.131 181.556 116.131C181.512 116.131 181.467 116.131 181.423 116.132C184.117 115.902 186.866 115.752 189.694 115.513C190.006 115.487 190.32 115.457 190.632 115.423C191.387 115.775 192.129 116.178 192.855 116.634C194.092 117.412 195.221 118.302 196.252 119.288C195.286 119.495 194.287 119.676 193.254 119.831Z" fill="#6A1D08"/>
<path d="M159.636 83.1909C137.482 90.765 131.541 115.614 131.541 115.614C131.541 115.614 125.601 90.765 103.447 83.1909C81.2928 75.6169 60.7103 78.7955 50.8311 66.0923C50.8311 66.0923 52.9708 89.9425 72.7308 95.2114C92.4893 100.48 116.584 100.914 131.541 142.686C146.499 100.914 170.592 100.48 190.352 95.2114C210.112 89.9425 212.253 66.0923 212.253 66.0923C202.371 78.7955 181.79 75.6169 159.636 83.1909Z" fill="#6A220C"/>
<path d="M169.276 90.4372C145.284 97.0234 136.179 127.25 131.542 137.46C126.905 127.25 117.8 97.0234 93.8089 90.4372C83.2752 87.5441 73.9005 89.1313 65.7894 90.7185C54.0445 93.0151 44.9468 95.3118 38.8115 84.015C38.8115 84.015 40.6785 114.559 78.6055 114.682C116.531 114.806 122.459 153.83 123.612 162.062L131.542 158.034L139.473 162.062C140.626 153.83 146.553 114.806 184.479 114.682C222.406 114.559 224.273 84.015 224.273 84.015C218.138 95.3118 209.04 93.0151 197.295 90.7185C189.184 89.1313 179.809 87.5441 169.276 90.4372Z" fill="#A3472E"/>
<path d="M168.993 89.4145C147.002 96.0728 139.079 117.893 130.626 136.925C131.235 136.925 131.846 136.925 132.456 136.925C125.227 120.655 118.908 102.262 102.474 92.9069C93.2898 87.6775 82.5032 87.0373 72.2381 88.5199C60.6133 90.2003 47.147 96.0714 39.7241 83.4799C39.2153 82.6149 37.6748 82.933 37.7497 84.0156C39.0373 102.626 56.1175 114.048 73.3899 115.513C82.4819 116.285 90.8263 116.122 99.0548 120.76C105.346 124.304 110.332 129.682 113.981 135.867C118.744 143.941 121.284 153.118 122.587 162.347C122.689 163.068 123.609 163.252 124.146 162.98C126.034 162.019 130.589 159.063 131.54 159.063C132.332 159.063 137.194 162.094 138.936 162.98C139.472 163.252 140.391 163.068 140.493 162.347C141.796 153.124 144.327 143.93 149.1 135.867C152.759 129.683 157.728 124.309 164.026 120.76C172.264 116.117 180.575 116.286 189.692 115.513C206.962 114.049 224.042 102.625 225.331 84.0156C225.406 82.9344 223.864 82.6149 223.355 83.4799C217.152 94.0051 207.271 91.5444 197.066 89.5969C187.603 87.792 178.439 87.0783 168.993 89.4145C167.67 89.741 168.229 91.7875 169.556 91.4582C182.418 88.2768 193.706 91.9275 206.39 93.3917C214.748 94.3584 220.851 91.9062 225.187 84.5512C224.527 84.3717 223.868 84.1936 223.21 84.0156C222.854 89.1983 220.57 94.5421 217.681 98.7666C209.503 110.728 196.024 113.002 182.544 113.663C160.668 114.737 146.426 130.196 140.771 150.421C140.061 152.961 138.476 156.998 138.764 159.662C138.804 160.029 138.647 160.973 138.512 161.33C138.842 160.453 139.291 160.647 139.417 160.842C139.544 161.041 139.331 161.242 138.293 160.279C137.181 159.249 133.706 157.447 132.297 157.232C130.083 156.897 127.89 158.702 125.866 159.731C125.323 160.007 123.945 161.021 123.296 161.037C123.797 161.026 124.109 161.067 124.3 161.109C124.838 161.228 124.396 161.345 124.412 160.268C124.433 158.76 123.867 157.027 123.561 155.56C119.707 137.207 109.046 119.445 89.6575 114.872C81.682 112.989 73.4168 114.11 65.4455 112.106C58.8042 110.437 52.611 107.17 47.9894 102.057C43.6688 97.2769 40.322 90.5523 39.8697 84.0156C39.2111 84.1936 38.5525 84.3717 37.8939 84.5512C42.2342 91.9133 48.3243 94.3584 56.6913 93.3917C69.2121 91.9472 80.8623 87.9362 93.5244 91.4582C114.888 97.4027 122.576 119.879 130.626 137.997C130.933 138.689 132.148 138.689 132.456 137.997C140.647 119.56 148.16 97.9356 169.556 91.4582C170.86 91.0653 170.304 89.0188 168.993 89.4145Z" fill="#6A220C"/>
<path d="M210.716 102.049C201.628 110.05 191.885 109.138 180.669 109.187C174.823 109.213 169.196 110.099 164.687 114.024C164.264 114.393 164.818 115.115 165.289 114.804C174.34 108.847 183.717 111.593 193.742 110.748C200.715 110.16 206.123 107.275 210.825 102.159L210.716 102.049Z" fill="#6A220C"/>
<path d="M173.21 104.342C154.939 107.27 140.527 123.668 137.721 141.706C137.623 142.341 138.491 142.611 138.701 141.976C144.65 124.055 153.92 109.568 173.245 104.469L173.21 104.342Z" fill="#6A220C"/>
<path d="M194.51 96.0338C179.171 94.2021 159.18 94.5568 149.038 108.396C148.749 108.791 149.365 109.223 149.697 108.904C162.465 96.6472 177.538 95.5165 194.51 96.2981C194.684 96.3051 194.674 96.0521 194.51 96.0338Z" fill="#6A220C"/>
<path d="M52.2559 102.159C56.9609 107.278 62.3514 110.159 69.3389 110.748C79.3539 111.593 88.7497 108.853 97.7909 114.804C98.2573 115.111 98.8212 114.396 98.393 114.024C93.8745 110.089 88.2678 109.227 82.4123 109.188C71.1692 109.113 61.4935 110.085 52.3661 102.049L52.2559 102.159Z" fill="#6A220C"/>
<path d="M89.8359 104.469C109.169 109.571 118.429 124.051 124.379 141.976C124.589 142.609 125.458 142.342 125.359 141.706C122.555 123.669 108.142 107.27 89.8713 104.342L89.8359 104.469Z" fill="#6A220C"/>
<path d="M68.5701 96.2979C85.5641 95.5149 100.62 96.6498 113.383 108.903C113.714 109.22 114.334 108.793 114.043 108.396C103.902 94.5581 83.9076 94.2019 68.5701 96.0336C68.4061 96.052 68.3962 96.3049 68.5701 96.2979Z" fill="#6A220C"/>
<path d="M131.542 156.067C131.542 156.067 122.628 156.067 118.775 164.485C118.775 164.485 121.442 181.26 131.542 183.484C141.643 181.26 144.307 164.485 144.307 164.485C140.455 156.067 131.542 156.067 131.542 156.067Z" fill="#6A220C"/>
<path d="M130.196 180.224C130.156 180.224 130.115 180.211 130.081 180.18C127.491 177.762 125.553 174.984 124.169 171.701C123.372 169.804 121.707 166.326 122.336 164.198C122.893 162.317 125.916 161.054 127.512 160.331C129.13 159.596 130.774 159.107 132.45 159.107C133.299 159.107 134.159 159.233 135.027 159.517C135.593 159.702 135.528 160.608 134.909 160.608C134.899 160.608 134.889 160.606 134.878 160.606C134.595 160.594 134.309 160.587 134.017 160.587C128.935 160.587 122.9 162.681 124.606 168.729C125.765 172.835 127.902 176.512 130.354 179.968C130.445 180.095 130.322 180.224 130.196 180.224Z" fill="#8A2C10"/>
</g>
</svg>
