<svg width="263" height="263" viewBox="0 0 263 263" fill="none" xmlns="http://www.w3.org/2000/svg">
<circle cx="131.5" cy="131.5" r="131.5" fill="#82DEE3"/>
<mask id="mask0_346_12550" style="mask-type:alpha" maskUnits="userSpaceOnUse" x="0" y="0" width="263" height="263">
<circle cx="131.5" cy="131.5" r="131.5" fill="#D9D9D9"/>
</mask>
<g mask="url(#mask0_346_12550)">
<path d="M130.568 255.443C96.4288 255.442 57.6183 243.396 38.9187 221.622C23.4316 203.59 52.864 195.845 45.2728 182.233C37.6827 168.62 5.16759 145.627 24.9601 93.3054C34.3581 68.4625 75.3961 18.2961 148.99 27.0033C222.582 35.7104 156.447 70.9814 207.519 84.2184C251.327 95.5697 277.31 255.446 130.568 255.443Z" fill="#B0EAED"/>
<path d="M17.6069 192.637C9.86624 180.016 32.1825 172.979 40.1008 181.834C48.0179 190.69 26.391 206.959 17.6069 192.637Z" fill="#B0EAED"/>
<path d="M21.3017 174.152C11.3023 169.446 16.6858 157.527 27.1842 164.151C37.6824 170.777 31.3012 178.857 21.3017 174.152Z" fill="#B0EAED"/>
<path d="M203.23 78.7169C189.081 72.3095 185.109 57.3623 203.64 62.705C222.169 68.0478 218.984 85.8542 203.23 78.7169Z" fill="#B0EAED"/>
<path d="M191.142 57.268C186.407 52.6047 194.39 39.4398 199.365 45.658C204.339 51.879 195.771 61.8278 191.142 57.268Z" fill="#B0EAED"/>
<path d="M158.305 206.618L98.8239 206.188C69.0645 208.707 55.041 242.16 55.041 242.16C78.2195 263.067 128.155 262.996 128.155 262.996C128.155 262.996 178.084 263.79 201.563 243.222C201.563 243.222 188.025 209.569 158.305 206.618Z" fill="#4B496B"/>
<path d="M202.456 242.905C193.911 221.963 175.356 205.743 152.29 205.577C138.451 205.476 124.612 205.377 110.775 205.276C98.6762 205.189 88.2113 205.691 77.6634 212.86C67.565 219.722 59.0282 230.356 54.2399 241.623C53.7788 242.708 55.376 243.654 55.8414 242.558C59.5931 233.73 65.726 225.393 72.8273 219.014C82.7311 210.12 93.7733 207.007 106.644 207.099C119.507 207.193 132.368 207.287 145.229 207.38C156.568 207.461 166.337 207.486 176.475 213.889C187.082 220.587 195.924 231.767 200.669 243.398C201.113 244.487 202.907 244.011 202.456 242.905Z" fill="#232345"/>
<path d="M175.65 80.5772C169.253 76.0037 161.734 72.5889 153.669 70.3206H153.696C159.566 70.2539 165.373 68.1244 159.01 66.4851C152.648 64.8458 142.853 65.5715 142.853 65.5715C142.853 65.5715 151.244 60.5038 146.453 60.3717C140.273 60.2029 134.324 64.3706 134.324 64.3706C134.324 64.3706 132.251 51.9478 129.165 53.5204C126.081 55.0916 127.609 64.2086 127.609 64.2086C127.609 64.2086 118.443 56.6302 117.632 58.5595C116.821 60.4888 120.995 65.7553 120.995 65.7553C116.455 63.9009 105.427 61.9988 105.165 63.9322C104.902 65.8656 110.168 67.6111 110.168 67.6111C96.9632 67.6302 100.372 71.4861 100.372 71.4861L100.416 71.4847C94.2142 73.5693 88.4113 76.3686 83.3054 79.9073C45.6577 106.004 41.6208 157.196 52.6133 179.584C69.0918 213.148 128.505 214.547 128.505 214.547C128.505 214.547 187.933 214.008 204.895 180.688C216.211 158.461 212.916 107.216 175.65 80.5772Z" fill="#4B496B"/>
<path d="M162.833 97.6493C148.637 101.139 136.123 120.299 136.772 140.817C137.421 161.336 141.542 171.346 141.542 171.346L128.865 171.254L116.189 171.162C116.189 171.162 120.454 161.212 121.4 140.707C122.348 120.198 110.111 100.86 95.9676 97.1646C81.8224 93.468 61.31 114.678 56.8977 145.184C52.4853 175.691 69.3457 190.185 81.8755 196.463C94.4046 202.739 98.5981 202.372 99.1659 210.278C99.7337 218.185 86.7268 220.81 77.3484 236.235C73.4756 242.607 71.3573 247.762 70.2313 251.769C95.0445 263.04 128.153 262.996 128.153 262.996C128.153 262.996 161.333 263.519 186.318 252.571C185.246 248.553 183.204 243.381 179.435 236.974C170.283 221.414 157.315 218.603 157.997 210.704C158.678 202.806 162.866 203.236 175.486 197.141C188.105 191.044 205.174 176.796 201.203 146.228C197.233 115.661 177.03 94.1583 162.833 97.6493Z" fill="#EAEBFF"/>
<path d="M160.537 216.855C158.794 214.942 157.795 213.047 157.998 210.705C157.998 210.698 157.999 210.69 157.999 210.683C160.191 210.17 162.427 209.589 164.683 208.93C167.842 209.681 170.964 210.807 174.108 212.504C169.595 214.29 164.995 215.717 160.537 216.855Z" fill="#403F5F"/>
<path d="M174.107 212.503C170.963 210.806 167.841 209.68 164.683 208.929C165.329 208.741 165.98 208.545 166.628 208.343C169.671 209.308 172.512 210.579 175.142 212.087C174.796 212.226 174.453 212.365 174.107 212.503Z" fill="#1E1E3D"/>
<path d="M96.5197 216.41C92.1315 215.224 87.6043 213.755 83.167 211.936C86.2495 210.411 89.4438 209.291 92.7673 208.515C94.9254 209.171 97.0671 209.756 99.1666 210.279C99.3354 212.632 98.302 214.516 96.5197 216.41Z" fill="#403F5F"/>
<path d="M83.1663 211.937C82.7456 211.764 82.3276 211.589 81.9082 211.411C84.5591 209.943 87.4171 208.712 90.4737 207.792C91.2389 208.041 92.0041 208.282 92.7666 208.515C89.443 209.291 86.2488 210.412 83.1663 211.937Z" fill="#1E1E3D"/>
<path d="M128.456 221.354C128.456 221.354 113.504 221.001 96.5195 216.411C98.3018 214.517 99.3352 212.633 99.1664 210.28C114.896 214.191 128.249 214.54 128.501 214.547C128.504 214.547 128.505 214.547 128.505 214.547C128.505 214.547 128.505 214.547 128.508 214.547C128.768 214.544 142.176 214.388 157.999 210.683C157.999 210.69 157.998 210.698 157.998 210.705C157.795 213.046 158.794 214.942 160.537 216.855C143.456 221.217 128.456 221.354 128.456 221.354Z" fill="#C9C9E1"/>
<path d="M51.8476 151.498L51.7848 151.49C51.5381 134.735 55.6748 118.162 65.3716 104.368C73.4011 92.9486 85.8454 81.6218 99.6093 77.8598C99.6461 77.8489 99.6815 77.8449 99.7142 77.8449C100.078 77.8449 100.275 78.384 99.913 78.5787C86.1763 85.9338 74.2973 93.4836 65.4254 106.737C56.1758 120.557 54.0526 135.388 51.8476 151.498Z" fill="#696696"/>
<path d="M206.132 152.605H206.068C204.054 136.129 202.032 120.949 192.595 106.822C183.941 93.864 172.38 86.3863 159.069 79.0081C158.711 78.8093 158.905 78.2729 159.264 78.2729C159.3 78.2729 159.336 78.2783 159.373 78.2892C173.078 82.2513 185.357 93.7415 193.224 105.285C202.724 119.222 206.622 135.85 206.132 152.605Z" fill="#696696"/>
<path d="M204.919 180.643C204.919 180.641 204.92 180.639 204.922 180.637C204.92 180.64 204.919 180.641 204.919 180.643Z" fill="#97C9D1"/>
<path d="M157.999 210.682C158.687 202.808 162.879 203.23 175.487 197.141C179.921 194.998 184.906 191.848 189.334 187.336C195.816 182.903 201.358 177.292 204.971 170.194C207.949 164.345 209.9 156.477 210.502 147.587C211.166 160.703 209.01 172.573 204.921 180.637C204.919 180.639 204.918 180.642 204.918 180.643C204.91 180.658 204.903 180.673 204.895 180.688C197.449 195.314 181.822 203.623 166.629 208.344C166.629 208.344 166.629 208.344 166.627 208.344C163.716 209.248 160.819 210.021 157.999 210.682Z" fill="#403F5F"/>
<path d="M52.5708 179.498C52.5693 179.494 52.5672 179.49 52.5655 179.486C52.5672 179.49 52.5688 179.494 52.5708 179.498ZM52.5465 179.448C52.5443 179.442 52.5417 179.437 52.539 179.433C52.5417 179.438 52.5437 179.442 52.5465 179.448ZM52.5247 179.403C52.5225 179.399 52.5203 179.395 52.5183 179.389C52.5203 179.393 52.5225 179.399 52.5247 179.403ZM52.4512 179.25C52.4507 179.249 52.4502 179.248 52.4502 179.248C52.4507 179.249 52.4507 179.249 52.4512 179.25Z" fill="#97C9D1"/>
<path d="M99.1669 210.278C96.3267 209.572 93.4089 208.749 90.4761 207.791L90.4747 207.792C75.3519 202.852 59.8478 194.317 52.614 179.583C52.6071 179.57 52.6001 179.556 52.5937 179.543C52.5917 179.539 52.589 179.533 52.5869 179.529C52.5816 179.518 52.5767 179.509 52.5714 179.498C52.5693 179.494 52.5677 179.49 52.5661 179.485C52.5597 179.473 52.5534 179.461 52.547 179.447C52.5443 179.442 52.5423 179.438 52.5395 179.432C52.5348 179.421 52.53 179.412 52.5252 179.402C52.5231 179.398 52.5209 179.393 52.5188 179.389C52.5124 179.377 52.506 179.362 52.4996 179.349C52.4975 179.345 52.4954 179.341 52.4938 179.337C52.4879 179.325 52.4832 179.315 52.4779 179.303C52.4762 179.3 52.4742 179.296 52.4731 179.293C52.4656 179.278 52.4587 179.265 52.4517 179.25C52.4513 179.249 52.4513 179.249 52.4508 179.247C52.4433 179.231 52.4358 179.216 52.4284 179.201C48.5639 171.089 46.6439 159.333 47.487 146.407C47.9597 155.303 49.7978 163.2 52.6896 169.09C56.2525 176.347 61.8226 182.1 68.3639 186.659C72.6783 191.129 77.5372 194.288 81.8765 196.463C94.4041 202.739 98.5991 202.372 99.1669 210.278Z" fill="#403F5F"/>
<path d="M128.506 214.547C128.506 214.547 128.505 214.547 128.502 214.547C128.25 214.54 114.897 214.191 99.1672 210.279C98.5994 202.372 94.4045 202.74 81.8769 196.463C77.5376 194.289 72.6786 191.13 68.3643 186.66C92.0817 203.195 128.582 204.054 128.582 204.054C128.582 204.054 165.386 203.72 189.335 187.337C184.907 191.849 179.922 194.998 175.488 197.141C162.88 203.23 158.687 202.808 158 210.682C142.176 214.386 128.77 214.544 128.509 214.547C128.506 214.547 128.506 214.547 128.506 214.547Z" fill="#C9C9E1"/>
<path d="M157.999 210.684C157.999 210.683 157.999 210.683 157.999 210.683C160.819 210.022 163.716 209.249 166.627 208.344C166.629 208.344 166.629 208.344 166.629 208.344C165.98 208.546 165.33 208.742 164.683 208.93C162.427 209.589 160.191 210.17 157.999 210.684Z" fill="#373654"/>
<path d="M99.1668 210.279C97.0672 209.756 94.9255 209.171 92.7675 208.515C92.005 208.282 91.2398 208.041 90.4746 207.792L90.476 207.791C93.4088 208.749 96.3266 209.571 99.1668 210.278C99.1668 210.279 99.1668 210.279 99.1668 210.279Z" fill="#373654"/>
<path d="M128.508 214.547C128.77 214.544 142.176 214.386 158 210.682C158 210.682 158 210.682 158 210.683C142.177 214.388 128.769 214.544 128.508 214.547ZM128.502 214.547C128.25 214.54 114.897 214.192 99.167 210.28C99.167 210.28 99.167 210.28 99.167 210.279C114.897 214.191 128.25 214.54 128.502 214.547Z" fill="#ADACC7"/>
<path d="M129.466 60.4444C130.5 63.2982 131.134 66.2187 131.861 69.1569C131.989 69.6798 132.877 69.5858 132.822 69.0276C132.517 65.9246 131.455 62.9687 130.128 60.1639C129.954 59.7976 129.327 60.0563 129.466 60.4444Z" fill="#232345"/>
<path d="M122.44 63.3151C124.113 65.1409 125.66 67.1233 126.982 69.2215C128.18 71.1222 128.921 73.4192 130.283 75.181C130.523 75.4928 131.218 75.4683 131.154 74.9441C130.602 70.3584 126.19 65.7631 122.816 62.9406C122.556 62.7214 122.204 63.0591 122.44 63.3151Z" fill="#232345"/>
<path d="M112.611 65.9758C118.066 68.4075 122.003 72.2444 125.929 76.6136C126.318 77.0479 127.025 76.4883 126.729 75.9941C123.683 70.9046 118.201 67.5797 112.669 65.8396L112.611 65.9758Z" fill="#232345"/>
<path d="M104.647 70.4495C107.295 70.9996 109.879 71.8029 112.364 72.8772C114.374 73.7458 116.187 75.023 118.219 75.8086C118.672 75.9829 118.984 75.3361 118.675 75.0257C115.262 71.6068 109.32 70.4318 104.684 70.1772C104.528 70.169 104.493 70.4182 104.647 70.4495Z" fill="#232345"/>
<path d="M142.541 62.2416C138.24 64.9457 134.852 69.0439 133.243 73.8924C132.991 74.6508 134.168 74.9599 134.433 74.2192C136.108 69.5572 138.831 65.7231 142.886 62.8298C143.236 62.5806 142.92 62.0047 142.541 62.2416Z" fill="#232345"/>
<path d="M152.855 68.0442C147.978 68.356 143.218 69.7829 139.513 73.0792C139.006 73.5299 139.686 74.4394 140.247 74.0309C144.104 71.2356 148.115 69.0122 152.889 68.2933C153.03 68.2729 152.998 68.0346 152.855 68.0442Z" fill="#232345"/>
<path d="M73.4699 178.653C58.1455 175.022 63.1306 164.559 73.5539 167.133C87.9824 170.693 86.0109 181.625 73.4699 178.653Z" fill="#FFB6C3"/>
<path d="M184.056 179.454C199.432 176.044 194.599 165.513 184.139 167.932C169.66 171.284 171.474 182.242 184.056 179.454Z" fill="#FFB6C3"/>
<path d="M82.5537 130.618C85.2564 129.482 88.9503 128.695 93.2092 130.26C96.2564 131.38 97.9665 128.944 95.7403 127.177C93.1779 125.14 86.7201 123.923 82.1847 126.11C77.648 128.298 77.9476 129.814 78.3029 130.679C78.6569 131.542 80.0117 131.684 82.5537 130.618Z" fill="#232345"/>
<path d="M175.669 131.293C172.983 130.118 169.302 129.276 165.02 130.781C161.958 131.858 160.282 129.398 162.533 127.663C165.126 125.663 171.601 124.538 176.105 126.79C180.607 129.042 180.287 130.556 179.92 131.415C179.552 132.275 178.196 132.396 175.669 131.293Z" fill="#232345"/>
<path d="M89.3985 132.407C73.4781 131.888 70.3156 151.016 75.6949 159.724C78.3849 164.077 81.767 167.113 89.148 167.166C96.2907 167.218 99.9532 164.234 102.706 159.919C108.211 151.291 105.327 132.119 89.3985 132.407Z" fill="white"/>
<path d="M105.476 144.212C102.291 133.249 89.4285 127.089 79.4483 134.338C71.7316 139.942 70.3731 152.23 74.8944 160.191C75.4843 161.229 77.086 160.295 76.4951 159.256C72.8219 152.787 73.417 143.123 78.6041 137.573C86.8415 128.76 100.603 134.085 103.688 144.704C104.02 145.847 105.809 145.361 105.476 144.212Z" fill="#232345"/>
<path d="M103.491 150.457C103.44 157.336 98.8901 162.879 93.3255 162.838C87.7622 162.797 83.2922 157.189 83.3412 150.311C83.3916 143.434 87.9419 137.891 93.5066 137.932C99.0712 137.972 103.54 143.58 103.491 150.457Z" fill="#232345"/>
<path d="M70.0918 159.247C70.0918 159.247 85.0064 159.171 96.7103 170.488C96.7103 170.488 75.3365 172.359 70.0918 159.247Z" fill="#EAEBFF"/>
<path d="M70.0917 160.175C79.6513 160.217 89.1577 164.779 96.054 171.144C96.9295 171.951 98.2447 170.644 97.3652 169.833C90.1054 163.132 80.1483 158.366 70.0917 158.319C68.8983 158.314 68.8973 160.17 70.0917 160.175Z" fill="#232345"/>
<path d="M168.513 132.98C184.44 132.692 187.325 151.864 181.821 160.492C179.068 164.807 175.643 167.793 168.262 167.74C161.118 167.688 157.499 164.65 154.81 160.296C149.429 151.589 152.592 132.462 168.513 132.98Z" fill="white"/>
<path d="M154.051 145.056C157.348 134.29 171.597 129.319 179.505 138.655C184.321 144.343 184.74 153.687 181.019 160.024C180.413 161.056 182.016 161.99 182.62 160.96C187.258 153.065 186.061 140.754 178.424 135.047C168.544 127.661 155.604 133.653 152.263 144.563C151.913 145.707 153.702 146.196 154.051 145.056Z" fill="#232345"/>
<path d="M154.163 150.824C154.113 157.702 158.583 163.311 164.147 163.351C169.711 163.391 174.262 157.849 174.312 150.971C174.361 144.094 169.893 138.485 164.328 138.446C158.763 138.404 154.213 143.948 154.163 150.824Z" fill="#232345"/>
<path d="M187.81 160.1C187.81 160.1 172.897 159.807 161.031 170.954C161.031 170.954 182.375 173.134 187.81 160.1Z" fill="#EAEBFF"/>
<path d="M187.81 159.171C177.753 159.072 167.73 163.707 160.376 170.298C159.485 171.096 160.799 172.404 161.687 171.609C168.679 165.342 178.25 160.931 187.81 161.027C189.002 161.038 189.004 159.184 187.81 159.171Z" fill="#232345"/>
<path d="M113.612 174.67C113.612 174.67 120.447 186.929 128.751 186.989C137.057 187.049 144.069 174.889 144.069 174.889L113.612 174.67Z" fill="#ED9A55"/>
<path d="M112.732 175.184C115.929 180.795 121.673 187.963 128.753 188.01C135.832 188.056 141.676 180.968 144.953 175.404C145.348 174.733 144.842 173.874 144.071 173.867C133.918 173.795 123.766 173.721 113.614 173.648C112.299 173.637 112.298 175.679 113.614 175.69C123.766 175.764 133.918 175.837 144.071 175.909C143.777 175.397 143.483 174.886 143.189 174.374C140.324 179.238 134.962 186.018 128.753 185.967C122.535 185.917 117.284 179.046 114.495 174.153C113.846 173.011 112.08 174.039 112.732 175.184Z" fill="#232345"/>
<path d="M140.841 166.166C137.107 162.459 135.449 158.552 128.911 158.426C122.373 158.459 120.658 162.339 116.872 165.993C113.81 168.947 109.398 169.472 109.398 169.472C114.775 178.678 123.744 179.97 128.756 180.005C133.766 180.04 142.754 178.879 148.261 169.754C148.261 169.754 143.859 169.164 140.841 166.166Z" fill="#ED9A55"/>
<path d="M136.224 166.659C136.138 166.659 136.047 166.629 135.961 166.558C133.69 164.677 132.275 162.493 128.983 162.298C128.825 162.289 128.668 162.285 128.512 162.285C125.751 162.285 123.255 163.718 121.488 165.795C121.459 165.829 121.425 165.842 121.391 165.842C121.293 165.842 121.199 165.72 121.253 165.614C122.742 162.79 125.526 160.912 128.728 160.912C128.947 160.912 129.169 160.922 129.391 160.939C132.242 161.169 136.117 163.088 136.583 166.195C136.624 166.462 136.44 166.659 136.224 166.659Z" fill="#FAE190"/>
<path d="M128.975 180.006C129.054 180.006 129.133 180.004 129.214 180.004C129.134 180.004 129.054 180.006 128.975 180.006Z" fill="#E47B38"/>
<path d="M128.974 180.006C128.901 180.006 128.829 180.004 128.756 180.004C123.956 179.97 115.53 178.763 110.104 170.57C114.384 172.408 121.168 174.564 129.417 174.564C134.882 174.564 140.99 173.617 147.436 171.003C142.071 178.712 134.069 179.962 129.236 180.004C129.23 180.004 129.225 180.004 129.219 180.004C129.217 180.004 129.215 180.004 129.214 180.004C129.132 180.004 129.053 180.006 128.974 180.006Z" fill="#E47B38"/>
<path d="M141.562 165.443C136.994 160.64 133.166 155.963 125.774 157.787C122.855 158.509 121.051 160.19 118.972 162.268C115.771 165.469 112.693 167.928 108.037 168.439C107.324 168.518 106.693 169.264 107.155 169.976C116.705 184.656 140.751 184.807 150.505 170.278C150.984 169.562 150.324 168.828 149.623 168.741C146.705 168.377 143.85 167.31 141.562 165.443C140.552 164.618 139.098 166.056 140.118 166.886C142.895 169.152 146.073 170.341 149.623 170.783C149.33 170.271 149.036 169.759 148.742 169.246C139.866 182.468 117.596 182.286 108.919 168.945C108.625 169.457 108.331 169.969 108.037 170.481C111.935 170.052 115.316 168.761 118.191 166.103C121.471 163.073 123.783 159.33 128.911 159.445C134.161 159.564 136.883 163.484 140.118 166.886C141.026 167.841 142.469 166.396 141.562 165.443Z" fill="#232345"/>
<path d="M176.166 79.6953C169.308 74.9788 161.902 71.6934 153.941 69.3379C153.85 70.0064 153.76 70.675 153.671 71.3421C155.86 71.2931 164.258 71.0848 162.413 67.045C160.534 62.9291 146.351 64.3151 142.854 64.5507C143.026 65.1852 143.197 65.8197 143.369 66.4541C145.045 65.4221 150.825 62.2565 148.173 59.8002C146.4 58.1596 141.166 60.0358 139.437 60.6675C137.751 61.283 136.196 62.104 134.629 62.9659C134.509 63.0312 134.752 64.8734 134.979 62.3858C135.212 59.8329 132.805 51.8283 129.197 52.4669C124.954 53.2198 126.207 61.7949 126.626 64.4799C127.194 64.149 127.763 63.8182 128.332 63.4873C126.389 61.8943 120.466 55.9579 117.657 57.3004C114.222 58.9425 119.009 64.8393 120.274 66.4773C120.605 65.9082 120.937 65.339 121.268 64.7699C118.65 63.8018 107.118 59.66 104.687 62.831C102.453 65.7461 107.906 67.896 109.898 68.5972C109.988 67.9287 110.078 67.2588 110.169 66.5903C107.77 66.6393 99.9763 66.1138 99.0573 69.8185C98.8353 70.7144 99.173 72.5321 100.417 72.5062C100.326 71.8377 100.236 71.1692 100.147 70.4993C65.767 82.6553 45.7696 117.983 46.2648 153.554C46.4403 166.154 49.1609 178.951 57.4583 188.786C66.8003 199.86 80.7989 206.167 94.4552 210.076C109.903 214.497 125.565 216.494 141.491 214.588C166.342 211.615 197.849 202.789 207.674 176.875C220.538 142.943 204.485 100.474 176.166 79.6953C175.105 78.9178 174.086 80.6892 175.135 81.4585C201.431 100.752 214.969 136.639 207.949 168.635C201.781 196.745 172.949 207.655 147.338 211.73C133.898 213.87 121.918 213.687 108.512 211.242C82.8289 206.558 54.7767 194.825 49.5225 166.393C42.4776 128.27 63.4747 85.6275 100.688 72.4709C101.727 72.1019 101.629 70.438 100.417 70.4639C101.469 70.4408 101.338 69.8008 102.827 69.3556C105.191 68.6531 107.729 68.6816 110.169 68.6326C111.353 68.6095 111.513 67.0042 110.441 66.6271C106.186 65.1307 107.948 63.9176 111.989 64.5248C114.966 64.9701 117.904 65.6971 120.725 66.7401C121.801 67.1376 122.262 65.7366 121.719 65.034C121.114 64.2498 119.157 62.138 119.223 61.1686C119.373 58.9806 119.92 60.2005 121.385 60.8541C123.36 61.7364 125.243 63.5826 126.889 64.9306C127.706 65.6018 128.754 64.9646 128.595 63.938C128.192 61.3538 128.226 52.1184 131.363 57.1003C132.626 59.1059 132.938 62.3205 133.34 64.6433C133.45 65.2737 134.33 65.5977 134.84 65.2533C137.092 63.7406 139.999 62.1666 142.703 61.7935C147.937 61.0719 144.725 63.2205 142.338 64.6909C141.524 65.192 141.799 66.6638 142.854 66.593C145.669 66.4038 148.528 66.3507 151.345 66.5086C156.074 66.77 164.052 69.0683 153.671 69.2998C152.519 69.327 152.283 70.9759 153.398 71.3067C161.192 73.6132 168.432 76.8496 175.135 81.4585C176.222 82.2059 177.244 80.4359 176.166 79.6953Z" fill="#232345"/>
</g>
</svg>
