<svg width="263" height="263" viewBox="0 0 263 263" fill="none" xmlns="http://www.w3.org/2000/svg">
<circle cx="131.5" cy="131.5" r="131.5" fill="#7FCEFA"/>
<mask id="mask0_346_12620" style="mask-type:alpha" maskUnits="userSpaceOnUse" x="0" y="0" width="263" height="263">
<circle cx="131.5" cy="131.5" r="131.5" fill="#D9D9D9"/>
</mask>
<g mask="url(#mask0_346_12620)">
<path d="M127.96 257.901C109.587 258.766 57.2582 246.501 43.8882 213.345C30.5194 180.19 62.2644 182.805 39.3563 155.215C14.4182 125.18 51.5773 69.8642 105.616 57.467C146.243 48.1461 185.989 59.281 199.823 87.5971C217.422 123.616 194.726 136.75 221.842 159.59C240.219 175.068 251.369 252.09 127.96 257.901Z" fill="#ABDFFC"/>
<path d="M43.9626 172.006C40.5289 182.819 29.5486 163.286 31.7114 156.769C33.8741 150.251 46.2605 164.768 43.9626 172.006Z" fill="#ABDFFC"/>
<path d="M216.342 125.784C208.683 133.231 209.971 146.106 221.222 149.796C226.409 151.497 228.142 144.225 227.413 136.953C226.56 128.452 222.342 119.952 216.342 125.784Z" fill="#ABDFFC"/>
<path d="M30.3743 176.155C29.5814 180.925 39.2401 186.208 40.6944 182.136C42.1475 178.064 31.5378 169.16 30.3743 176.155Z" fill="#ABDFFC"/>
<path d="M157.83 212.919H105.105C78.7414 215.345 66.5264 245.088 66.5264 245.088C87.2053 263.469 131.468 263.086 131.468 263.086C131.468 263.086 175.73 263.469 196.408 245.088C196.408 245.088 184.193 215.345 157.83 212.919Z" fill="#EAEBFF"/>
<path d="M160.591 236.058C160.591 236.058 164.739 239.428 165.901 238.718C167.063 238.009 163.072 230.737 158.55 227.455C158.55 227.455 161.831 228.608 162.541 227.633C163.182 226.752 158.61 217.856 153.014 213.198H109.923C104.328 217.856 99.7546 226.752 100.397 227.633C101.106 228.608 104.387 227.455 104.387 227.455C99.8645 230.737 95.8744 238.009 97.0355 238.718C98.1977 239.428 102.347 236.058 102.347 236.058C98.5127 244.443 97.2986 252.704 97.0777 259.071C114.759 263.223 131.469 263.085 131.469 263.085C131.469 263.085 148.178 263.223 165.86 259.071C165.638 252.704 164.424 244.443 160.591 236.058Z" fill="white"/>
<path d="M160.944 223.272C160.168 221.851 159.152 220.227 157.973 218.624C161.187 217.951 164.34 217.155 167.413 216.234C169.64 217.028 171.859 218.083 174.097 219.485C170.182 220.997 165.744 222.266 160.944 223.272ZM102.288 222.738C97.932 221.729 93.7537 220.48 89.8555 218.976C91.7684 217.905 93.7224 217.035 95.7258 216.336C98.7322 217.233 101.806 218.008 104.933 218.662C103.912 220.056 103.013 221.462 102.288 222.738Z" fill="#DDDEFF"/>
<path d="M132.832 226.021C122.494 226.021 111.95 224.974 102.288 222.738C103.013 221.462 103.913 220.056 104.934 218.662C113.48 220.449 122.403 221.333 131.31 221.333C140.352 221.333 149.376 220.423 157.973 218.623C159.152 220.227 160.168 221.85 160.944 223.272C152.395 225.064 142.707 226.021 132.832 226.021Z" fill="#F0F1FF"/>
<path d="M86.5227 225.313C84.3817 226.787 82.5303 228.681 81.4453 231.071C81.257 231.483 81.7796 231.787 82.0475 231.424C83.5211 229.42 85.0792 227.533 87.0139 225.951C87.3675 225.661 86.9017 225.053 86.5227 225.313Z" fill="white"/>
<path d="M85.8829 230.33C84.3501 231.871 82.763 233.766 82.2646 235.931C82.191 236.253 82.6013 236.412 82.7824 236.15C84.0146 234.373 84.9065 232.424 86.2836 230.731C86.5093 230.453 86.146 230.066 85.8829 230.33Z" fill="white"/>
<path d="M90.8819 227.727C89.1645 229.293 87.762 231.084 86.957 233.277C86.8484 233.574 87.3022 233.747 87.4567 233.487C88.5876 231.602 89.8162 229.781 91.402 228.247C91.7448 227.916 91.2307 227.409 90.8819 227.727Z" fill="white"/>
<path d="M96.437 244.891C95.4847 246.979 94.693 249.182 94.7184 251.501C94.7232 251.914 95.3266 252.001 95.4401 251.598C96.0303 249.509 96.4503 247.409 97.3168 245.404C97.5727 244.813 96.7109 244.29 96.437 244.891Z" fill="white"/>
<path d="M92.9521 249.305C92.4452 251.026 92.2376 252.799 92.5369 254.575C92.6153 255.042 93.4119 254.938 93.3697 254.462C93.2248 252.773 93.22 251.145 93.6074 249.486C93.7064 249.061 93.0764 248.885 92.9521 249.305Z" fill="white"/>
<path d="M170.269 219.909C171.432 220.768 172.521 221.715 173.583 222.696C174.558 223.599 175.389 224.655 176.41 225.503C176.806 225.831 177.473 225.415 177.165 224.92C175.683 222.538 172.942 220.784 170.536 219.453C170.232 219.285 170.002 219.711 170.269 219.909Z" fill="white"/>
<path d="M171.67 224.331C173.809 226.384 175.392 228.752 177.112 231.14C177.346 231.466 177.982 231.286 177.818 230.842C176.753 227.959 174.526 225.593 172.105 223.768C171.777 223.521 171.382 224.054 171.67 224.331Z" fill="white"/>
<path d="M167.942 223.269C169.638 225.157 170.895 227.324 172.469 229.291C172.792 229.696 173.318 229.18 173.135 228.777C172.107 226.507 170.13 224.554 168.315 222.896C168.063 222.666 167.715 223.017 167.942 223.269Z" fill="white"/>
<path d="M164.859 241.403C165.666 243.551 166.125 245.797 166.883 247.954C167.02 248.346 167.702 248.321 167.66 247.849C167.445 245.507 166.443 243.255 165.377 241.185C165.231 240.905 164.745 241.1 164.859 241.403Z" fill="white"/>
<path d="M168.377 244.132C168.942 246.086 169.205 248.135 169.839 250.062C169.969 250.462 170.613 250.415 170.598 249.96C170.524 247.898 169.762 245.861 169.049 243.946C168.896 243.533 168.249 243.692 168.377 244.132Z" fill="white"/>
<path d="M169.396 240.558C170.167 242.273 170.706 244.046 171.143 245.873C171.301 246.533 172.32 246.253 172.162 245.592C171.708 243.695 170.968 241.893 170.063 240.168C169.828 239.719 169.197 240.113 169.396 240.558Z" fill="white"/>
<path d="M110.818 224.607C108.489 226.103 106.303 228.169 105.177 230.741C105.053 231.024 105.42 231.401 105.651 231.107C107.362 228.927 108.982 226.786 111.094 224.963C111.288 224.795 111.034 224.469 110.818 224.607Z" fill="#EAEBFF"/>
<path d="M110.067 227.826C108.36 230.043 106.972 232.566 106.338 235.308C106.217 235.831 106.923 235.994 107.119 235.524C108.177 232.986 109.266 230.547 110.753 228.226C111.035 227.785 110.369 227.436 110.067 227.826Z" fill="#EAEBFF"/>
<path d="M112.988 226.836C111.887 228.721 110.864 230.803 110.58 232.989C110.514 233.512 111.323 233.574 111.47 233.109C112.109 231.073 112.536 229.047 113.411 227.083C113.537 226.801 113.152 226.557 112.988 226.836Z" fill="#EAEBFF"/>
<path d="M155.982 231.848C157.143 234.981 157.753 238.198 158.689 241.387C158.842 241.902 159.685 241.826 159.653 241.257C159.472 237.879 158.074 234.575 156.448 231.651C156.312 231.405 155.88 231.571 155.982 231.848Z" fill="#EAEBFF"/>
<path d="M154.88 237.017C155.602 239.774 155.599 242.487 155.832 245.295C155.87 245.727 156.559 245.899 156.648 245.405C157.163 242.54 156.462 239.547 155.499 236.847C155.362 236.463 154.774 236.613 154.88 237.017Z" fill="#EAEBFF"/>
<path d="M152.326 234.175C152.777 236.349 152.844 238.593 153.361 240.747C153.458 241.141 153.995 241.017 154.029 240.656C154.241 238.417 153.562 236.135 152.889 234.019C152.775 233.66 152.25 233.808 152.326 234.175Z" fill="#EAEBFF"/>
<path d="M125.816 246.206C125.046 248.688 124.418 251.969 125.434 254.463C125.588 254.841 126.125 254.799 126.156 254.365C126.246 253.114 125.999 251.855 126.002 250.599C126.005 249.184 126.144 247.752 126.381 246.36C126.444 245.996 125.931 245.839 125.816 246.206Z" fill="#EAEBFF"/>
<path d="M127.338 248.937C126.935 251.865 126.877 255.483 128.386 258.135C128.662 258.62 129.308 258.269 129.229 257.779C129.012 256.401 128.509 255.083 128.267 253.704C127.999 252.16 127.914 250.585 127.95 249.02C127.957 248.679 127.386 248.584 127.338 248.937Z" fill="#EAEBFF"/>
<path d="M129.333 245.389C129.117 247.801 129.292 250.388 130.514 252.531C130.733 252.914 131.289 252.649 131.204 252.24C130.717 249.938 130.126 247.768 130.144 245.389C130.149 244.861 129.379 244.878 129.333 245.389Z" fill="#EAEBFF"/>
<path d="M197.282 244.848C193.765 236.403 187.905 228.406 181.031 222.421C172.462 214.96 162.806 212.014 151.72 212.014C139.39 212.014 127.06 212.014 114.732 212.014C104.094 212.014 94.9122 212.866 85.7893 219.348C77.0622 225.548 69.7786 234.944 65.6547 244.848C65.2069 245.92 66.9581 246.39 67.401 245.328C70.6657 237.488 76.5879 229.444 83.1848 223.7C92.047 215.987 101.667 213.824 112.899 213.824C124.013 213.824 135.126 213.824 146.24 213.824C156.533 213.824 165.356 213.839 174.52 219.754C183.648 225.648 191.47 235.564 195.536 245.328C195.978 246.388 197.73 245.923 197.282 244.848Z" fill="#4C4C89"/>
<path d="M206.943 185.538C209.357 184.314 213.092 183.893 210.774 180.729C208.455 177.565 207.212 152.933 196.972 133.03C181.557 103.067 162.478 93.9095 146.137 90.5821C148.356 89.6286 151.381 88.254 148.884 86.7562C144.237 83.9683 138.889 87.5407 138.889 87.5407C141.329 84.5753 140.411 82.4705 137.791 84.1614C135.17 85.851 133.565 87.7941 133.565 87.7941C134.072 81.7102 131.25 81.6257 131.25 81.6257C131.25 81.6257 128.428 81.7102 128.934 87.7941C128.934 87.7941 127.329 85.851 124.709 84.1614C122.09 82.4705 121.172 84.5753 123.611 87.5407C123.611 87.5407 118.263 83.9683 113.617 86.7562C111.064 88.2878 113.997 89.6914 116.07 90.646C99.7807 94.0362 80.8517 103.245 65.529 133.03C55.2897 152.933 54.0454 177.565 51.7269 180.729C49.4085 183.893 53.1426 184.314 55.5564 185.538C58.57 187.066 48.5214 186.714 53.0388 191.944C55.9342 195.296 66.8723 203.889 86.5639 212.144C113.253 223.333 154.593 221.857 175.937 212.144C195.37 203.301 206.567 195.296 209.461 191.944C213.979 186.714 203.93 187.066 206.943 185.538Z" fill="#EAEBFF"/>
<path d="M58.3485 173.556C57.6461 174.621 57.4639 175.957 57.0487 177.152C56.5128 178.689 55.7091 180.064 55.0235 181.529C54.7122 182.194 55.5715 182.689 56.0011 182.1C56.9425 180.81 57.5508 179.243 58.0166 177.722C58.4185 176.419 58.8759 174.913 58.4596 173.571L58.3485 173.556Z" fill="white"/>
<path d="M61.9427 176.596C61.3356 177.978 60.7189 179.361 59.9151 180.643C59.1113 181.925 57.9841 183.006 57.2515 184.316C57.0294 184.713 57.4868 185.225 57.8959 184.962C60.3773 183.369 61.9837 179.631 62.5292 176.843C62.5932 176.513 62.0984 176.242 61.9427 176.596Z" fill="white"/>
<path d="M65.0328 182.178C64.1071 183.209 63.0559 184.079 61.8756 184.805C60.7821 185.476 59.5704 185.867 58.4347 186.449C58.0449 186.65 58.2163 187.325 58.664 187.293C61.5316 187.083 64.0649 184.907 65.7292 182.715C66.0321 182.314 65.3659 181.806 65.0328 182.178Z" fill="white"/>
<path d="M64.1495 194.805C60.8378 193.851 58.5736 192.077 56.1816 189.702C55.8473 189.369 55.2499 189.801 55.5154 190.215C57.3149 193.023 60.7786 194.843 63.9986 195.35C64.3511 195.406 64.5067 194.907 64.1495 194.805Z" fill="white"/>
<path d="M68.6979 189.053C65.6481 189.539 62.8553 189.221 59.8212 188.88C59.3336 188.824 59.3203 189.526 59.7138 189.677C62.5995 190.783 65.9558 190.527 68.8681 189.67C69.2724 189.552 69.0962 188.989 68.6979 189.053Z" fill="white"/>
<path d="M72.5384 192.906C69.8652 193.043 67.5516 192.386 64.9664 191.886C64.6647 191.828 64.5223 192.192 64.7636 192.369C66.9481 193.975 70.0667 194.16 72.6555 193.776C73.1503 193.704 73.0333 192.881 72.5384 192.906Z" fill="white"/>
<path d="M72.649 199.037C69.8647 198.983 67.4365 198.177 64.8899 197.133C64.4023 196.934 64.1549 197.68 64.5484 197.944C66.9247 199.535 69.8466 199.977 72.649 199.735C73.0907 199.696 73.1052 199.046 72.649 199.037Z" fill="white"/>
<path d="M69.7361 183.122C69.0542 183.843 68.295 184.52 67.4683 185.071C66.7237 185.566 65.9247 185.951 65.2452 186.533C65.0099 186.736 65.1945 187.185 65.5059 187.162C67.5359 187.004 69.2992 185.219 70.418 183.648C70.7052 183.245 70.0716 182.769 69.7361 183.122Z" fill="white"/>
<path d="M66.4426 173.835C66.0588 175.092 65.57 176.331 64.9557 177.497C64.3945 178.565 63.6124 179.506 63.091 180.59C62.9076 180.969 63.3349 181.277 63.6523 181.024C65.6436 179.443 66.6731 176.438 67.1691 174.035C67.2669 173.563 66.585 173.367 66.4426 173.835Z" fill="white"/>
<path d="M61.3139 170.557C61.1002 171.528 60.8564 172.486 60.5885 173.442C60.352 174.289 60.0189 175.156 60.0225 176.042C60.0225 176.334 60.3954 176.41 60.5487 176.184C61.5335 174.727 61.6602 172.417 61.8956 170.718C61.9475 170.346 61.3996 170.169 61.3139 170.557Z" fill="white"/>
<path d="M204.042 173.57C203.25 176.112 205.012 180.062 206.499 182.099C206.928 182.687 207.787 182.193 207.476 181.528C206.79 180.063 205.986 178.689 205.452 177.151C205.035 175.956 204.854 174.62 204.151 173.556L204.042 173.57Z" fill="white"/>
<path d="M199.971 176.843C200.515 179.632 202.124 183.369 204.603 184.962C205.012 185.225 205.469 184.713 205.248 184.316C204.516 183.007 203.389 181.924 202.585 180.643C201.781 179.361 201.163 177.978 200.556 176.596C200.402 176.245 199.906 176.509 199.971 176.843Z" fill="white"/>
<path d="M196.773 182.715C198.435 184.907 200.972 187.083 203.838 187.293C204.283 187.325 204.457 186.65 204.066 186.449C202.932 185.867 201.72 185.478 200.626 184.805C199.446 184.08 198.394 183.207 197.468 182.178C197.139 181.81 196.465 182.31 196.773 182.715Z" fill="white"/>
<path d="M198.5 195.35C201.72 194.843 205.184 193.023 206.984 190.215C207.247 189.806 206.657 189.365 206.318 189.702C203.924 192.078 201.658 193.852 198.351 194.805C197.992 194.907 198.149 195.406 198.5 195.35Z" fill="white"/>
<path d="M193.633 189.67C196.545 190.527 199.9 190.783 202.787 189.677C203.176 189.527 203.171 188.824 202.68 188.88C199.636 189.223 196.858 189.54 193.803 189.053C193.403 188.989 193.227 189.551 193.633 189.67Z" fill="white"/>
<path d="M189.845 193.776C192.436 194.16 195.552 193.975 197.736 192.369C197.977 192.193 197.838 191.828 197.534 191.886C194.948 192.386 192.638 193.043 189.963 192.906C189.473 192.881 189.346 193.703 189.845 193.776Z" fill="white"/>
<path d="M189.849 199.735C192.651 199.978 195.576 199.533 197.951 197.944C198.34 197.683 198.101 196.931 197.609 197.133C195.063 198.177 192.636 198.983 189.849 199.037C189.394 199.046 189.407 199.696 189.849 199.735Z" fill="white"/>
<path d="M192.081 183.648C193.2 185.219 194.964 187.004 196.995 187.162C197.305 187.185 197.491 186.737 197.255 186.533C196.576 185.951 195.775 185.564 195.034 185.071C194.204 184.52 193.445 183.843 192.763 183.122C192.433 182.773 191.791 183.24 192.081 183.648Z" fill="white"/>
<path d="M195.33 174.035C195.826 176.437 196.857 179.444 198.847 181.025C199.163 181.276 199.593 180.971 199.409 180.59C198.887 179.506 198.106 178.565 197.543 177.497C196.93 176.331 196.441 175.093 196.056 173.835C195.914 173.368 195.232 173.562 195.33 174.035Z" fill="white"/>
<path d="M200.605 170.718C200.84 172.417 200.968 174.727 201.952 176.184C202.105 176.409 202.479 176.334 202.48 176.041C202.483 175.155 202.148 174.289 201.912 173.442C201.644 172.486 201.4 171.527 201.187 170.557C201.102 170.168 200.554 170.345 200.605 170.718Z" fill="white"/>
<path d="M124.197 93.4797C123.427 92.1739 122.518 91.1118 121.306 90.1897C120.315 89.4366 118.627 88.2309 117.314 88.3806C117.089 88.4047 116.918 88.6787 117.114 88.8621C118.013 89.7082 119.458 90.0147 120.519 90.699C121.779 91.5125 122.951 92.5528 123.961 93.662C124.077 93.7899 124.284 93.6258 124.197 93.4797Z" fill="white"/>
<path d="M128.395 93.339C128.033 91.7012 127.345 89.8957 126.147 88.6828C125.816 88.3497 125.199 88.7914 125.479 89.1969C126.448 90.6005 127.335 91.8292 127.831 93.4935C127.939 93.8555 128.476 93.7059 128.395 93.339Z" fill="white"/>
<path d="M131.837 93.4358C131.635 91.7172 131.496 89.9853 131.466 88.2546C131.456 87.6825 130.553 87.6849 130.579 88.2546C130.662 90.036 130.866 91.7739 131.245 93.5167C131.316 93.8425 131.878 93.7774 131.837 93.4358Z" fill="white"/>
<path d="M134.259 93.88C134.792 92.1131 135.635 90.4971 136.746 89.0247C137.085 88.5733 136.312 88.1123 135.98 88.5769C134.867 90.1386 134.11 91.8524 133.677 93.7195C133.59 94.0984 134.148 94.2529 134.259 93.88Z" fill="white"/>
<path d="M138.396 94.1418C140.42 91.4613 142.941 90.1495 145.988 88.9389C146.465 88.7507 146.283 88.0989 145.777 88.1762C142.545 88.6674 139.639 91.1946 137.956 93.8848C137.776 94.1696 138.204 94.3953 138.396 94.1418Z" fill="white"/>
<path d="M124.575 97.3629C124.134 96.6786 123.563 96.1295 122.913 95.6431C122.172 95.0867 121.324 94.4073 120.462 94.0657C120.123 93.9306 119.894 94.4181 120.122 94.6486C120.701 95.2304 121.588 95.508 122.304 95.8942C123.091 96.3202 123.809 96.8174 124.382 97.5114C124.47 97.6188 124.649 97.4788 124.575 97.3629Z" fill="white"/>
<path d="M127.524 98.6613C127.578 96.7109 126.983 94.7135 125.701 93.2206C125.502 92.9889 125.141 93.2858 125.287 93.5404C126.237 95.1999 126.906 96.8027 127.172 98.7096C127.202 98.9147 127.518 98.8556 127.524 98.6613Z" fill="white"/>
<path d="M130.205 98.5501C130.585 96.8062 130.515 95.0502 129.805 93.3991C129.642 93.0214 129.043 93.2929 129.149 93.6755C129.592 95.2626 129.861 96.8339 129.742 98.4874C129.723 98.7517 130.149 98.8096 130.205 98.5501Z" fill="white"/>
<path d="M132.27 98.5122C132.207 96.784 132.598 95.256 133.093 93.6243C133.174 93.354 132.754 93.1645 132.627 93.4288C131.867 95.005 131.791 96.8395 132.066 98.54C132.085 98.6559 132.273 98.6281 132.27 98.5122Z" fill="white"/>
<path d="M134.556 98.8213C134.789 96.6972 136.082 94.7577 137.541 93.2901C137.916 92.9135 137.364 92.3897 136.968 92.7168C136.076 93.4542 135.4 94.4282 134.946 95.489C134.45 96.6452 134.434 97.5939 134.436 98.8213H134.556Z" fill="white"/>
<path d="M136.768 98.5916C137.922 96.9502 139.373 95.7204 141.208 94.9045C141.604 94.7283 141.32 94.0416 140.911 94.1973C138.909 94.9588 137.266 96.4699 136.441 98.454C136.359 98.6531 136.66 98.7461 136.768 98.5916Z" fill="white"/>
<path d="M140.836 97.9063C142.504 96.709 144.446 96.3144 146.36 95.6916C146.901 95.5154 146.681 94.7056 146.124 94.8359C144.105 95.3103 142.12 96.1708 140.653 97.6685C140.537 97.7868 140.692 98.0089 140.836 97.9063Z" fill="white"/>
<path d="M121.667 97.0853C119.478 95.6298 116.777 95.0963 114.177 95.217C113.876 95.2315 113.771 95.7167 114.1 95.7734C116.635 96.2031 119.165 96.1246 121.494 97.3786C121.688 97.4824 121.846 97.2048 121.667 97.0853Z" fill="white"/>
<path d="M132.652 219.396C122.489 219.396 112.378 218.251 102.918 216.213C89.7805 213.384 77.288 207.704 65.8888 200.646C62.2826 198.412 58.5968 196.038 55.4975 193.121C54.0903 191.798 51.9951 190.48 53.8791 188.292C54.3582 187.736 56.3013 187.705 56.6573 186.929C57.2342 185.678 56.8094 185.671 56.0116 184.756C54.4053 182.913 52.1001 184.849 52.7096 180.852C52.8773 179.751 53.5097 178.536 53.7813 177.433C56.2397 167.434 57.5299 157.301 60.6377 147.453C59.6311 158.023 58.954 167.71 58.3325 173.58C57.6434 174.641 57.4611 175.965 57.0483 177.152C56.5125 178.689 55.7087 180.064 55.0232 181.529C54.8096 181.985 55.1487 182.362 55.5204 182.362C55.6894 182.362 55.8656 182.284 56.0008 182.1C56.3737 181.589 56.6935 181.034 56.9747 180.456C57.1159 181.113 57.9173 181.582 58.9613 181.96C58.3554 182.726 57.7218 183.473 57.2511 184.316C57.0713 184.637 57.3368 185.034 57.6614 185.034C57.7375 185.034 57.8171 185.011 57.8956 184.961C58.8394 184.355 59.6564 183.439 60.3371 182.382C61.6007 182.725 62.9477 183.005 63.8564 183.342C63.2409 183.884 62.5808 184.371 61.8735 184.806C60.7801 185.477 59.5684 185.868 58.4327 186.449C58.0513 186.645 58.207 187.294 58.6306 187.294C58.6402 187.294 58.6511 187.294 58.662 187.293C59.5164 187.23 60.342 186.993 61.1228 186.633C60.9357 187.248 61.1337 188.049 62.0292 189.117C61.3026 189.047 60.5689 188.965 59.8206 188.88C59.8013 188.878 59.7844 188.877 59.7663 188.877C59.333 188.877 59.3354 189.532 59.7132 189.677C60.8416 190.109 62.0425 190.333 63.2602 190.395C63.7333 190.843 64.2982 191.341 64.9559 191.885C64.9378 191.882 64.9197 191.88 64.9028 191.88C64.6457 191.88 64.5395 192.205 64.7628 192.369C65.4242 192.856 66.1701 193.21 66.9618 193.46C71.8642 197.137 80.0626 202.169 91.7454 207.067C103.128 211.839 117.522 214.005 131.494 214.005C146.484 214.005 160.987 211.511 170.754 207.067C182.051 201.925 190.2 197.105 195.183 193.564C196.106 193.313 196.977 192.927 197.735 192.369C197.958 192.206 197.854 191.88 197.596 191.88C197.576 191.88 197.554 191.883 197.532 191.887C197.489 191.895 197.445 191.903 197.402 191.912C198.105 191.359 198.708 190.852 199.208 190.397C200.437 190.337 201.648 190.112 202.786 189.677C203.16 189.533 203.169 188.877 202.731 188.877C202.714 188.877 202.696 188.878 202.678 188.88C201.929 188.965 201.195 189.047 200.47 189.117C201.365 188.049 201.563 187.248 201.376 186.633C202.157 186.993 202.982 187.23 203.837 187.293C203.847 187.294 203.857 187.294 203.867 187.294C204.289 187.294 204.448 186.645 204.065 186.449C202.931 185.868 201.719 185.478 200.625 184.806C199.918 184.371 199.257 183.884 198.642 183.342C199.55 183.005 200.897 182.725 202.162 182.382C202.842 183.439 203.66 184.355 204.602 184.961C204.681 185.011 204.76 185.034 204.836 185.034C205.161 185.034 205.426 184.637 205.248 184.316C204.777 183.474 204.143 182.726 203.538 181.96C204.549 181.594 205.332 181.142 205.508 180.516C205.832 181.113 206.171 181.653 206.498 182.1C206.632 182.283 206.808 182.362 206.978 182.362C207.35 182.362 207.688 181.986 207.475 181.529C206.789 180.064 205.985 178.689 205.451 177.152C205.037 175.965 204.856 174.641 204.165 173.58C203.55 167.767 202.88 158.213 201.89 147.764C203.778 153.626 205.228 159.641 206.443 165.733C207.244 169.757 207.8 173.872 208.817 177.849C209.045 178.746 209.53 179.731 209.689 180.631C210.182 183.389 208.998 183.669 206.779 184.628C206.684 184.651 206.585 184.692 206.486 184.756C206.363 184.812 206.266 184.88 206.194 184.959C205.437 185.529 205.41 185.994 205.84 186.929C206.111 187.516 207.169 187.431 207.587 187.82C210.069 190.134 209.077 191.161 206.987 193.089C198.831 200.606 187.537 205.789 177.604 210.385C163.959 216.698 148.245 219.396 132.652 219.396ZM64.7302 197.1C64.3537 197.1 64.2004 197.711 64.548 197.944C66.5273 199.268 68.8831 199.796 71.2342 199.796C71.7073 199.796 72.1804 199.776 72.6487 199.735C73.0904 199.696 73.1049 199.046 72.6487 199.037C69.8644 198.983 67.4361 198.177 64.8896 197.133C64.8328 197.11 64.7797 197.1 64.7302 197.1ZM197.769 197.099C197.719 197.099 197.666 197.11 197.609 197.133C195.063 198.177 192.636 198.983 189.849 199.037C189.394 199.046 189.407 199.696 189.849 199.735C190.317 199.776 190.789 199.796 191.262 199.796C193.615 199.796 195.973 199.267 197.951 197.944C198.295 197.713 198.148 197.099 197.769 197.099ZM206.6 189.583C206.502 189.583 206.402 189.618 206.317 189.702C203.924 192.078 201.657 193.853 198.35 194.805C198.011 194.903 198.133 195.354 198.446 195.354C198.464 195.354 198.482 195.353 198.5 195.35C201.72 194.843 205.184 193.023 206.983 190.215C207.181 189.907 206.896 189.583 206.6 189.583ZM55.8994 189.584C55.6025 189.584 55.3152 189.905 55.5144 190.215C57.3139 193.023 60.7776 194.843 63.9976 195.35C64.017 195.353 64.0351 195.354 64.0519 195.354C64.3645 195.354 64.4876 194.903 64.1485 194.805C60.8368 193.851 58.5726 192.077 56.1806 189.702C56.0973 189.619 55.9972 189.584 55.8994 189.584ZM64.0568 184.586C64.3066 184.349 64.5468 184.104 64.7749 183.855C64.9982 184.133 64.6337 184.343 64.0568 184.586ZM198.441 184.585C197.865 184.343 197.501 184.133 197.724 183.856C197.952 184.104 198.192 184.349 198.441 184.585Z" fill="#DDDEFF"/>
<path d="M55.5206 182.361C55.1488 182.361 54.8097 181.985 55.0233 181.529C55.7089 180.063 56.5126 178.689 57.0485 177.151C57.4612 175.965 57.6435 174.641 58.3326 173.58C57.9959 176.76 57.6749 178.819 57.3273 179.295C57.0014 179.739 56.9025 180.121 56.9749 180.456C56.6937 181.034 56.3738 181.589 56.0009 182.099C55.8657 182.284 55.6895 182.361 55.5206 182.361Z" fill="#F0F1FF"/>
<path d="M57.6618 185.034C57.3372 185.034 57.0717 184.637 57.2515 184.316C57.7222 183.474 58.3558 182.727 58.9617 181.96C59.3889 182.115 59.8572 182.253 60.3375 182.383C59.6568 183.44 58.8398 184.356 57.896 184.962C57.8175 185.011 57.7379 185.034 57.6618 185.034Z" fill="#F0F1FF"/>
<path d="M58.6309 187.294C58.2073 187.294 58.0516 186.645 58.433 186.449C59.5686 185.867 60.7804 185.476 61.8738 184.805C62.5811 184.371 63.2412 183.883 63.8567 183.341C64.0341 183.408 64.1947 183.475 64.3347 183.545C64.5579 183.659 64.7003 183.761 64.7752 183.854C64.5471 184.104 64.3069 184.349 64.0571 184.586C63.0698 185.001 61.4622 185.513 61.1231 186.633C60.3422 186.992 59.5167 187.23 58.6623 187.293C58.6514 187.294 58.6405 187.294 58.6309 187.294Z" fill="#F0F1FF"/>
<path d="M64.0528 195.354C64.0359 195.354 64.0178 195.352 63.9985 195.35C60.7785 194.843 57.3147 193.023 55.5152 190.215C55.3161 189.904 55.6034 189.583 55.9003 189.583C55.998 189.583 56.0982 189.618 56.1814 189.702C58.5735 192.077 60.8376 193.851 64.1494 194.804C64.4885 194.902 64.3654 195.354 64.0528 195.354Z" fill="#F0F1FF"/>
<path d="M63.2605 190.395C62.0428 190.333 60.8419 190.109 59.7134 189.676C59.3357 189.532 59.3333 188.876 59.7665 188.876C59.7846 188.876 59.8016 188.877 59.8209 188.88C60.5691 188.964 61.3029 189.046 62.0295 189.116C62.0548 189.147 62.0814 189.178 62.1079 189.209C62.4 189.547 62.7838 189.944 63.2605 190.395Z" fill="#F0F1FF"/>
<path d="M66.9622 193.461C66.1704 193.211 65.4246 192.856 64.7632 192.37C64.5399 192.206 64.6461 191.881 64.9032 191.881C64.9201 191.881 64.9382 191.882 64.9563 191.886C65.5489 192.376 66.2175 192.902 66.9622 193.461Z" fill="#F0F1FF"/>
<path d="M71.2343 199.797C68.8833 199.797 66.5274 199.268 64.5481 197.944C64.2005 197.711 64.3538 197.101 64.7304 197.101C64.7798 197.101 64.833 197.11 64.8897 197.133C67.4362 198.177 69.8645 198.983 72.6488 199.038C73.105 199.046 73.0905 199.697 72.6488 199.735C72.1805 199.776 71.7074 199.797 71.2343 199.797Z" fill="#F0F1FF"/>
<path d="M206.979 182.361C206.809 182.361 206.633 182.283 206.499 182.099C206.172 181.653 205.833 181.112 205.509 180.516C205.607 180.167 205.517 179.765 205.171 179.295C204.824 178.819 204.503 176.76 204.166 173.58C204.856 174.641 205.037 175.965 205.451 177.151C205.986 178.689 206.79 180.063 207.475 181.529C207.689 181.986 207.351 182.361 206.979 182.361Z" fill="#F0F1FF"/>
<path d="M204.837 185.034C204.761 185.034 204.681 185.011 204.602 184.962C203.66 184.356 202.843 183.44 202.162 182.383C202.641 182.253 203.11 182.115 203.538 181.96C204.144 182.727 204.777 183.475 205.248 184.316C205.427 184.637 205.161 185.034 204.837 185.034Z" fill="#F0F1FF"/>
<path d="M203.868 187.294C203.858 187.294 203.847 187.294 203.838 187.293C202.983 187.23 202.158 186.992 201.377 186.633C201.038 185.513 199.429 185.001 198.441 184.584C198.193 184.349 197.953 184.104 197.725 183.856C197.799 183.761 197.942 183.659 198.166 183.545C198.305 183.475 198.466 183.408 198.643 183.341C199.257 183.883 199.919 184.371 200.626 184.805C201.719 185.478 202.931 185.867 204.066 186.449C204.448 186.645 204.29 187.294 203.868 187.294Z" fill="#F0F1FF"/>
<path d="M198.446 195.354C198.134 195.354 198.012 194.902 198.351 194.804C201.658 193.852 203.924 192.078 206.318 189.702C206.402 189.617 206.502 189.582 206.6 189.582C206.897 189.582 207.182 189.907 206.984 190.215C205.184 193.023 201.72 194.843 198.5 195.35C198.482 195.352 198.464 195.354 198.446 195.354Z" fill="#F0F1FF"/>
<path d="M199.21 190.397C199.702 189.95 200.096 189.553 200.392 189.21C200.418 189.178 200.445 189.148 200.471 189.117C201.197 189.047 201.93 188.965 202.68 188.88C202.698 188.878 202.716 188.877 202.733 188.877C203.171 188.877 203.161 189.533 202.787 189.677C201.649 190.113 200.439 190.337 199.21 190.397Z" fill="#F0F1FF"/>
<path d="M195.185 193.563C196.011 192.976 196.751 192.424 197.403 191.911C197.446 191.903 197.49 191.894 197.533 191.886C197.555 191.882 197.577 191.88 197.597 191.88C197.855 191.88 197.959 192.206 197.736 192.369C196.978 192.926 196.107 193.312 195.185 193.563Z" fill="#F0F1FF"/>
<path d="M191.262 199.797C190.789 199.797 190.317 199.776 189.849 199.735C189.407 199.697 189.394 199.046 189.849 199.038C192.636 198.983 195.063 198.177 197.609 197.133C197.666 197.11 197.719 197.099 197.769 197.099C198.148 197.099 198.295 197.714 197.951 197.944C195.973 199.267 193.614 199.797 191.262 199.797Z" fill="#F0F1FF"/>
<path d="M207.4 186.318C209.892 185.213 212.739 184.665 212.199 181.47C211.962 180.073 210.833 178.429 210.463 176.952C209.911 174.754 209.567 172.491 209.15 170.267C206.646 156.947 203.561 143.68 197.235 131.588C186.382 110.839 169.716 94.6318 146.377 89.7089C146.377 90.2906 146.377 90.8723 146.377 91.4552C148.332 90.6901 152.011 89.039 150.38 86.4189C148.255 83.0082 141.047 85.6453 138.431 86.7592C138.845 87.1708 139.257 87.5847 139.67 87.9963C140.68 86.443 142.365 83.6974 139.819 82.7994C137.53 81.9932 134.255 85.626 132.925 87.1539C133.44 87.3675 133.954 87.5811 134.47 87.7935C134.732 79.0303 127.767 79.023 128.028 87.7935C128.544 87.5811 129.059 87.3675 129.573 87.1539C128.266 85.6537 124.959 81.9956 122.681 82.7994C120.157 83.6877 121.825 86.4551 122.829 87.9963C123.241 87.5847 123.653 87.1708 124.067 86.7592C121.372 85.0877 115.023 83.188 112.641 86.4648C110.999 88.7229 113.675 90.4571 115.613 91.4263C115.686 90.8747 115.757 90.3244 115.829 89.7728C91.6526 94.9854 74.3928 112.469 63.8651 134.34C58.0201 146.484 55.3939 159.653 52.8763 172.791C52.513 174.686 52.2487 176.684 51.6429 178.522C51.3049 179.549 50.2175 180.915 50.1765 181.927C50.133 183.004 50.1693 183.335 50.8608 184.204C51.2905 184.746 52.2801 185.136 52.8787 185.384C54.7205 186.148 55.231 186.044 55.1779 185.939C55.1392 185.861 54.7808 185.783 54.4308 186.073C52.8015 187.421 50.6967 187.397 51.037 190.132C51.3399 192.553 54.5889 194.78 56.2846 196.151C65.9361 203.95 77.7649 209.916 89.3463 214.209C113.589 223.195 143.708 223.575 168.369 215.943C181.557 211.861 195.061 204.612 205.993 196.204C207.778 194.831 211.153 192.601 211.461 190.132C211.624 188.831 211.227 188.103 210.298 187.23C209.925 186.877 209.372 186.621 208.907 186.425C207.611 185.879 207.772 186.078 207.4 186.318C208.374 185.688 207.467 184.121 206.486 184.755C205.451 185.426 205.36 185.885 205.841 186.928C206.111 187.516 207.169 187.43 207.587 187.82C210.07 190.133 209.077 191.16 206.987 193.088C198.831 200.606 187.537 205.788 177.604 210.384C155.065 220.813 126.893 221.376 102.918 216.212C89.7807 213.383 77.2882 207.703 65.889 200.645C62.2828 198.411 58.597 196.038 55.4977 193.12C54.0905 191.798 51.9953 190.48 53.8793 188.292C54.3584 187.735 56.3015 187.704 56.6575 186.928C57.2344 185.678 56.8096 185.67 56.0118 184.755C54.4055 182.913 52.1003 184.848 52.7098 180.851C52.8775 179.75 53.5099 178.535 53.7815 177.432C56.3655 166.919 57.6592 156.257 61.1327 145.936C69.8549 120.009 88.8647 97.4366 116.309 91.518C117.052 91.3587 117.213 90.2073 116.527 89.8634C114.996 89.0982 110.802 86.3887 120.115 86.9753C121.045 87.0344 122.356 87.8273 123.153 88.3222C123.908 88.7904 124.888 87.8454 124.391 87.0839C122.004 83.4089 127.12 87.0863 128.294 88.4344C128.812 89.027 129.862 88.5503 129.839 87.7935C129.672 82.1682 132.879 80.4701 132.659 87.7935C132.636 88.5479 133.686 89.0294 134.204 88.4344C135.106 87.4013 140.692 83.1048 138.107 87.0839C137.558 87.9275 138.596 88.6408 139.345 88.3222C141.048 87.598 143.48 86.7025 145.3 86.752C148.429 86.8389 148.582 88.6577 145.897 89.7089C145.143 90.0034 144.935 91.2525 145.897 91.4552C167.628 96.039 183.429 110.507 194.113 129.614C200.414 140.879 203.935 153.141 206.443 165.732C207.244 169.756 207.801 173.872 208.817 177.848C209.045 178.745 209.53 179.73 209.689 180.63C210.204 183.506 208.892 183.687 206.486 184.755C205.423 185.227 206.344 186.788 207.4 186.318Z" fill="#4C4C89"/>
<path d="M82.2365 190.857C68.6276 187.737 72.9808 178.432 82.2365 180.645C95.0489 183.709 93.3701 193.41 82.2365 190.857Z" fill="#FFB6C3"/>
<path d="M180.262 190.857C193.871 187.737 189.518 178.432 180.262 180.645C167.45 183.709 169.129 193.41 180.262 190.857Z" fill="#FFB6C3"/>
<path d="M89.9792 148.221C92.3676 147.198 95.6359 146.476 99.4219 147.836C102.13 148.809 103.63 146.64 101.646 145.087C99.3603 143.299 93.6288 142.26 89.6231 144.227C85.6174 146.196 85.8914 147.539 86.2124 148.302C86.5311 149.067 87.7343 149.183 89.9792 148.221Z" fill="#4C4C89"/>
<path d="M172.521 148.221C170.132 147.198 166.864 146.476 163.078 147.836C160.371 148.809 158.871 146.64 160.854 145.087C163.139 143.299 168.871 142.26 172.877 144.227C176.885 146.196 176.61 147.539 176.29 148.302C175.969 149.067 174.768 149.183 172.521 148.221Z" fill="#4C4C89"/>
<path d="M96.0595 149.763C81.9448 149.406 79.2643 166.381 84.0882 174.064C86.5008 177.906 89.5169 180.575 96.0595 180.575C102.392 180.575 105.619 177.906 108.032 174.064C112.856 166.381 110.175 149.406 96.0595 149.763Z" fill="white"/>
<path d="M110.388 160.13C107.496 150.434 96.0631 145.047 87.2576 151.536C80.4519 156.549 79.3211 167.453 83.3799 174.48C83.9097 175.395 85.329 174.569 84.7992 173.649C81.5007 167.94 81.963 159.371 86.5226 154.416C93.7604 146.551 105.999 151.172 108.804 160.566C109.106 161.577 110.692 161.146 110.388 160.13Z" fill="#4C4C89"/>
<path d="M108.665 165.673C108.665 171.77 104.667 176.711 99.7347 176.711C94.8022 176.711 90.8037 171.77 90.8037 165.673C90.8037 159.577 94.8022 154.633 99.7347 154.633C104.667 154.633 108.665 159.577 108.665 165.673Z" fill="#4C4C89"/>
<path d="M79.1172 173.677C79.1172 173.677 92.3375 173.514 102.782 183.47C102.782 183.47 83.8506 185.265 79.1172 173.677Z" fill="#EAEBFF"/>
<path d="M79.1181 174.499C87.5905 174.476 96.0472 178.455 102.202 184.051C102.983 184.762 104.149 183.602 103.365 182.889C96.8872 176.998 88.0334 172.831 79.1181 172.856C78.0608 172.858 78.0584 174.502 79.1181 174.499Z" fill="#4C4C89"/>
<path d="M166.187 149.763C180.304 149.406 182.984 166.381 178.16 174.064C175.747 177.906 172.731 180.575 166.187 180.575C159.856 180.575 156.629 177.906 154.216 174.064C149.392 166.381 152.073 149.406 166.187 149.763Z" fill="white"/>
<path d="M153.447 160.565C156.256 151.151 168.497 146.56 175.729 154.416C180.286 159.367 180.749 167.942 177.451 173.649C176.921 174.568 178.342 175.396 178.871 174.48C182.929 167.452 181.797 156.549 174.993 151.535C166.193 145.051 154.754 150.436 151.861 160.13C151.559 161.145 153.146 161.579 153.447 160.565Z" fill="#4C4C89"/>
<path d="M153.584 165.673C153.584 171.77 157.582 176.711 162.514 176.711C167.445 176.711 171.445 171.77 171.445 165.673C171.445 159.577 167.445 154.633 162.514 154.633C157.582 154.633 153.584 159.577 153.584 165.673Z" fill="#4C4C89"/>
<path d="M183.467 173.677C183.467 173.677 170.247 173.514 159.8 183.47C159.8 183.47 178.734 185.265 183.467 173.677Z" fill="#EAEBFF"/>
<path d="M183.468 172.856C174.552 172.831 165.697 176.999 159.22 182.889C158.437 183.602 159.6 184.762 160.382 184.051C166.538 178.452 174.993 174.476 183.468 174.499C184.525 174.502 184.527 172.858 183.468 172.856Z" fill="#4C4C89"/>
<path d="M145.897 177.661C141.996 171.018 136.981 167.01 131.251 167.749C125.519 167.01 120.506 171.018 116.604 177.661C112.775 184.181 109.668 194.007 114.624 200.862C119.581 207.716 142.919 207.716 147.877 200.862C152.832 194.007 149.726 184.181 145.897 177.661Z" fill="white"/>
<path d="M123.916 161.873C128.561 159.941 133.938 160.146 138.583 161.873C139.678 162.279 140.148 160.53 139.065 160.127C134.154 158.302 128.346 158.085 123.435 160.127C122.374 160.567 122.839 162.32 123.916 161.873Z" fill="#4C4C89"/>
<path d="M127.761 156.417C130.078 156.039 132.421 156.025 134.739 156.415C135.879 156.605 136.369 154.86 135.22 154.668C132.563 154.223 129.935 154.239 127.28 154.671C126.133 154.858 126.619 156.602 127.761 156.417Z" fill="#4C4C89"/>
<path d="M130.345 175.843C130.345 180.048 130.345 184.252 130.345 188.457C130.345 189.621 132.155 189.624 132.155 188.457C132.155 184.252 132.155 180.048 132.155 175.843C132.155 174.679 130.345 174.676 130.345 175.843Z" fill="#4C4C89"/>
<path d="M116.363 184.444C117.354 184.774 118.342 185.104 119.331 185.433C119.11 185.144 118.888 184.853 118.667 184.561C118.836 191.543 126.98 191.908 131.707 189.237C132.722 188.665 131.811 187.1 130.794 187.675C127.3 189.649 120.609 189.999 120.477 184.561C120.468 184.144 120.2 183.817 119.813 183.688C118.823 183.359 117.834 183.028 116.846 182.698C115.738 182.329 115.262 184.076 116.363 184.444Z" fill="#4C4C89"/>
<path d="M145.657 182.699C144.666 183.029 143.678 183.359 142.688 183.689C142.299 183.819 142.034 184.147 142.024 184.561C141.893 189.997 135.199 189.648 131.706 187.675C130.69 187.102 129.777 188.665 130.793 189.238C135.519 191.909 143.666 191.544 143.834 184.561C143.612 184.853 143.392 185.144 143.169 185.434C144.158 185.104 145.148 184.775 146.137 184.444C147.237 184.077 146.766 182.329 145.657 182.699Z" fill="#4C4C89"/>
<path d="M123.622 190.072C123.622 191.879 123.622 193.687 123.622 195.495C123.622 196.586 123.317 197.853 124.137 198.649C125.224 199.705 127.585 200.079 128.989 200.272C132.298 200.726 135.424 199.974 138.431 198.606C138.713 198.479 138.88 198.119 138.88 197.826C138.88 195.225 138.88 192.624 138.88 190.024C138.88 189.534 138.466 189.119 137.974 189.119C135.812 189.119 133.656 188.594 131.707 187.674C131.434 187.545 131.061 187.475 130.793 187.674C128.995 189.015 126.707 189.348 124.527 189.167C123.365 189.071 123.372 190.881 124.527 190.978C126.176 191.114 127.776 190.993 129.343 190.437C129.901 190.239 131.122 189.281 131.66 189.274C131.129 189.281 132.564 189.999 132.587 190.006C133.545 190.342 134.535 190.566 135.536 190.719C136.341 190.841 137.16 190.929 137.974 190.929C137.673 190.628 137.371 190.326 137.069 190.024C137.069 192.15 137.069 194.275 137.069 196.4C137.069 196.598 137.2 197.484 137.069 197.643C137.043 197.676 134.612 198.138 134.173 198.24C132.146 198.71 130.044 198.742 128.02 198.254C127.521 198.133 125.596 197.068 125.221 197.188C124.847 197.308 125.393 197.785 125.432 197.645C125.529 197.299 125.432 196.765 125.432 196.41C125.432 194.297 125.432 192.185 125.432 190.072C125.432 188.907 123.622 188.905 123.622 190.072Z" fill="#4C4C89"/>
<path d="M141.645 168.503C140.031 163.926 122.471 163.926 120.855 168.503C119.241 173.079 131.25 178.573 131.25 178.573C131.25 178.573 143.26 173.079 141.645 168.503Z" fill="#FFB6C3"/>
<path d="M138.626 169.082C138.586 169.082 138.544 169.076 138.499 169.064C135.739 168.301 132.639 167.818 129.58 167.818C127.287 167.818 125.016 168.089 122.926 168.718L122.872 168.588C125.402 167.293 127.832 166.831 130.678 166.823C131.214 166.82 131.769 166.812 132.333 166.812C134.605 166.812 137.005 166.959 138.81 168.328C139.122 168.563 139.001 169.082 138.626 169.082Z" fill="#FFE2E7"/>
<path d="M100.68 96.3905C92.8368 38.4825 62.6982 34.4515 59.0341 34.6675C55.3169 34.886 50.7246 65.2792 50.7246 65.2792L86.9737 105.816C90.0682 110.371 104.062 104.364 100.68 96.3905Z" fill="#EAEBFF"/>
<path d="M91.7988 103.272C81.7695 76.2258 63.6299 71.8363 63.6299 71.8363L60.1299 83.6469L82.0133 112.643C85.3443 108.958 88.3821 105.821 91.7988 103.272Z" fill="#FFB6C3"/>
<path d="M92.6708 103.031C87.7684 90.3225 78.2557 74.6051 63.8695 70.9627C63.3891 70.8408 62.8967 71.1172 62.7555 71.5951C61.819 74.7572 58.8802 80.187 59.2579 83.4057C59.5222 85.6699 62.5781 88.3818 63.8996 90.133C69.6771 97.7883 75.4545 105.444 81.2319 113.098C81.9246 114.016 83.4984 113.115 82.7948 112.184C78.9098 107.037 75.0248 101.889 71.1398 96.742C68.615 93.3964 66.0902 90.0509 63.5642 86.7054C62.9281 85.8618 61.7936 84.7901 61.3797 83.8101C61.1407 83.244 61.0478 83.3104 61.0538 83.378C61.0611 83.4613 61.2191 83.5445 61.4376 82.4197C61.8322 80.3897 62.6493 78.3296 63.2371 76.3466C63.4965 75.4656 64.8748 72.1128 63.9419 72.4628C63.1067 72.7754 67.2572 74.2322 68.1383 74.7017C79.3503 80.6758 86.4758 91.9759 90.9257 103.513C91.3408 104.588 93.0908 104.121 92.6708 103.031Z" fill="#4C4C89"/>
<path d="M89.6777 108.865C89.6777 108.865 78.9557 86.8164 77.8128 88.3696C76.6686 89.9229 81.804 100.539 81.804 100.539C80.0045 98.5244 76.4321 96.7189 78.374 100.989C80.3147 105.26 86.4047 110.882 86.4047 110.882L89.6777 108.865Z" fill="#EAEBFF"/>
<path d="M72.9802 75.1777C72.0002 74.5031 70.99 73.8839 69.9473 73.33C70.2586 68.2248 70.3214 63.145 70.0499 58.4308C71.8988 64.1563 72.7086 69.9965 72.9802 75.1777Z" fill="#D7D9FF"/>
<path d="M78.24 106.147C75.8745 103.013 73.5077 99.8777 71.141 96.7421C70.0077 95.2408 68.8745 93.7394 67.7412 92.238C68.6367 87.0447 69.3609 81.353 69.7905 75.6372C70.9298 76.3215 72.0245 77.0625 73.0757 77.853C73.2386 86.1891 72.109 92.238 72.109 92.238L78.24 106.147Z" fill="#EAA8C3"/>
<path d="M79.8215 109.734L67.5293 93.4473C67.6005 93.0466 67.6717 92.6448 67.7417 92.238C68.875 93.7394 70.0082 95.2408 71.1415 96.7422C73.5082 99.8777 75.875 103.013 78.2405 106.147L79.8215 109.734ZM73.0762 77.8531C72.025 77.0625 70.9303 76.3215 69.791 75.6372C69.8489 74.866 69.9008 74.0996 69.9479 73.3296C70.9907 73.8836 72.0008 74.5027 72.9808 75.1774C73.0291 76.091 73.0593 76.9853 73.0762 77.8531Z" fill="#464689"/>
<path d="M35.2048 134.814C29.2126 134.426 20.7728 110.873 23.3978 81.626C26.0216 52.3793 38.7036 33.7932 58.1648 34.6681C77.6248 35.5431 69.3153 98.5165 62.3177 112.072C55.3213 125.629 41.9827 135.251 35.2048 134.814Z" fill="#EAEBFF"/>
<path d="M35.1851 134.811C35.1803 134.811 35.1755 134.811 35.1706 134.811C35.1755 134.811 35.1815 134.811 35.1851 134.811ZM35.1658 134.81C35.1622 134.81 35.1598 134.81 35.1561 134.81C35.1586 134.81 35.1622 134.81 35.1658 134.81ZM35.1103 134.805C35.1079 134.805 35.1067 134.805 35.1055 134.805C35.1067 134.805 35.1091 134.805 35.1103 134.805ZM62.3282 112.051C62.3294 112.049 62.3306 112.047 62.3306 112.046C62.3306 112.048 62.3294 112.048 62.3282 112.051ZM62.339 112.029C62.3414 112.026 62.3415 112.024 62.3439 112.022C62.3427 112.024 62.3414 112.026 62.339 112.029ZM62.3752 111.96C62.3752 111.959 62.3765 111.956 62.3765 111.956C62.3765 111.958 62.3752 111.958 62.3752 111.96ZM62.4465 111.818C62.4465 111.816 62.4477 111.814 62.4489 111.813C62.4477 111.815 62.4465 111.816 62.4465 111.818ZM62.4947 111.719C62.4947 111.718 62.4947 111.719 62.4959 111.718C62.4947 111.718 62.4947 111.719 62.4947 111.719Z" fill="#A1D3FC"/>
<path d="M35.6597 134.827C35.5052 134.827 35.3531 134.824 35.2047 134.814C35.1999 134.813 35.195 134.813 35.189 134.813C35.189 134.813 35.1866 134.813 35.1854 134.811C35.1818 134.811 35.1757 134.811 35.1709 134.811C35.1697 134.81 35.1685 134.81 35.1661 134.81C35.1625 134.81 35.1588 134.81 35.1564 134.81C35.154 134.809 35.1516 134.809 35.1492 134.809C35.1456 134.809 35.142 134.809 35.1383 134.808C35.1359 134.808 35.1335 134.808 35.1311 134.808C35.1275 134.807 35.125 134.807 35.1226 134.807C35.119 134.807 35.1142 134.805 35.1106 134.805C35.1094 134.805 35.1069 134.805 35.1057 134.805C35.0949 134.804 35.0852 134.803 35.0744 134.802C31.403 134.362 26.8626 125.365 24.502 111.774C28.1395 118.343 31.2183 122.33 35.5849 122.329C36.2016 122.329 36.8449 122.249 37.5183 122.086C47.9037 119.571 66.6503 92.7186 70.1527 60.6671C70.8177 79.6528 66.5031 103.444 62.5191 111.669V111.67C62.5155 111.678 62.5119 111.685 62.5083 111.691C62.5071 111.693 62.5071 111.695 62.5059 111.696C62.5023 111.703 62.4986 111.71 62.4962 111.718C62.495 111.719 62.495 111.718 62.495 111.719C62.4829 111.743 62.4721 111.766 62.46 111.79C62.46 111.791 62.4588 111.792 62.4588 111.794C62.4552 111.8 62.4516 111.807 62.4492 111.813C62.4479 111.814 62.4467 111.816 62.4467 111.818C62.4431 111.824 62.4407 111.83 62.4371 111.836C62.4359 111.838 62.4347 111.841 62.4347 111.842C62.431 111.848 62.4286 111.853 62.4262 111.859C62.425 111.861 62.4238 111.862 62.4226 111.865C62.4202 111.871 62.4178 111.876 62.4154 111.88C62.4142 111.883 62.4129 111.886 62.4117 111.889C62.4033 111.903 62.396 111.918 62.3888 111.934C62.3852 111.941 62.3803 111.949 62.3767 111.956C62.3767 111.956 62.3755 111.959 62.3755 111.96C62.3719 111.965 62.3695 111.971 62.3659 111.977C62.3646 111.979 62.3634 111.982 62.3622 111.984C62.3598 111.99 62.3574 111.995 62.355 112C62.3538 112.002 62.3526 112.005 62.3514 112.007C62.349 112.012 62.3466 112.017 62.3441 112.022C62.3417 112.024 62.3417 112.026 62.3393 112.029C62.3369 112.035 62.3345 112.041 62.3308 112.046C62.3308 112.047 62.3297 112.049 62.3285 112.051C62.3248 112.058 62.3212 112.065 62.3176 112.072C62.2959 112.115 62.2741 112.157 62.2524 112.199C62.1474 112.399 62.0436 112.597 61.9362 112.795C61.9254 112.817 61.9133 112.839 61.9024 112.859C61.8976 112.869 61.8915 112.879 61.8867 112.887C55.3767 124.922 43.9571 133.682 36.9837 134.723C36.9801 134.725 36.9764 134.725 36.9728 134.726C36.9631 134.727 36.9535 134.728 36.945 134.729C36.933 134.731 36.9221 134.733 36.91 134.734C36.8992 134.735 36.8871 134.738 36.875 134.739C36.8678 134.74 36.8594 134.741 36.8509 134.743C36.8352 134.745 36.8195 134.746 36.8038 134.749C36.8026 134.749 36.8014 134.749 36.8002 134.75C36.7882 134.751 36.7773 134.752 36.7652 134.754C36.7544 134.755 36.7447 134.756 36.7338 134.758C36.3923 134.801 36.0604 134.824 35.7418 134.827C35.714 134.827 35.6862 134.827 35.6597 134.827Z" fill="#DDDEFF"/>
<path d="M50.4964 41.0478C46.2216 41.4775 41.6728 44.2907 39.399 47.956C39.16 48.3386 39.6778 48.679 39.9904 48.4135C41.6981 46.9628 43.2816 45.4554 45.1921 44.2593C46.9143 43.1804 48.7923 42.3826 50.6207 41.504C50.8331 41.4026 50.7354 41.0237 50.4964 41.0478Z" fill="white"/>
<path d="M58.5358 43.2529C55.1348 42.9102 51.7205 43.755 48.8468 45.5955C48.4968 45.82 48.7153 46.4669 49.1438 46.3027C52.2467 45.1091 55.3267 44.2921 58.6046 43.7526C58.9087 43.7031 58.7989 43.2795 58.5358 43.2529Z" fill="white"/>
<path d="M65.4617 39.0572C61.9062 37.3228 57.0992 37.1056 53.3047 38.1761C52.8569 38.3029 52.9764 38.9196 53.4097 38.9546C55.2779 39.1043 57.1486 38.8194 59.0193 38.8291C61.1302 38.84 63.1541 39.1742 65.1938 39.6956C65.5631 39.7885 65.8298 39.2358 65.4617 39.0572Z" fill="white"/>
<path d="M80.6281 50.7298C78.7996 47.0549 75.3395 43.6321 71.4581 42.1681C71.0055 41.998 70.5831 42.6992 70.9729 43.0034C72.595 44.273 74.351 45.3447 75.9441 46.6542C77.5396 47.9649 79.0531 49.3794 80.5846 50.7637L80.6281 50.7298Z" fill="white"/>
<path d="M85.7837 61.304C84.3439 58.4714 82.7218 55.6582 80.5916 53.2806C80.2404 52.8895 79.5272 53.4194 79.8506 53.8527C81.7515 56.392 83.8479 58.7804 85.7354 61.333L85.7837 61.304Z" fill="white"/>
<path d="M79.41 58.3612C78.0631 55.5383 76.1273 52.3424 73.3514 50.7252C72.9169 50.4729 72.5693 51.0257 72.8481 51.3769C74.8033 53.8365 77.0059 56.2793 79.2181 58.5108C79.3207 58.6134 79.4691 58.4831 79.41 58.3612Z" fill="white"/>
<path d="M72.1902 53.567C70.1143 49.7327 64.7484 45.7728 60.1297 46.3485C59.7772 46.392 59.6143 46.9495 60.0379 47.0328C64.6012 47.9283 68.8398 50.3241 72.0417 53.6816L72.1902 53.567Z" fill="white"/>
<path d="M71.3388 46.929C69.0771 44.4911 65.9018 42.7881 62.7433 41.8045C62.193 41.6319 61.808 42.4961 62.3438 42.7519C65.3369 44.1797 68.4061 45.0704 70.9261 47.343C71.2037 47.594 71.5959 47.2054 71.3388 46.929Z" fill="white"/>
<path d="M69.3178 56.808C69.9466 79.3335 68.975 107.89 51.8118 124.701C48.2201 128.218 43.757 131.874 38.8401 133.348C34.301 134.709 32.4942 132.473 30.4956 128.619C25.2927 118.594 24.0629 106.066 23.8335 94.9845C23.4172 74.8113 27.3118 45.0251 49.6478 37.2298C59.0073 33.9639 67.1176 36.5382 74.7247 42.5003C91.3955 55.5625 97.0884 78.4899 99.4274 98.4712C99.5614 99.6154 101.373 99.6287 101.238 98.4712C98.8674 78.2256 93.1805 55.3296 76.6678 41.752C68.508 35.0441 59.4056 31.9352 49.1663 35.4846C26.613 43.3017 21.958 72.2128 22.0003 92.835C22.0244 104.905 23.2844 118.613 28.9327 129.534C32.3011 136.048 36.3684 136.922 42.9459 133.562C69.9249 119.783 71.8643 83.1593 71.1281 56.808C71.0944 55.6446 69.284 55.6397 69.3178 56.808Z" fill="#4C4C89"/>
<path d="M162.256 96.3905C170.099 38.4825 200.237 34.4515 203.901 34.6675C207.619 34.886 212.21 65.2792 212.21 65.2792L175.962 105.816C172.868 110.371 158.874 104.364 162.256 96.3905Z" fill="#EAEBFF"/>
<path d="M171.138 103.272C181.167 76.2258 199.307 71.8363 199.307 71.8363L202.805 83.6469L180.922 112.643C177.592 108.958 174.554 105.821 171.138 103.272Z" fill="#FFB6C3"/>
<path d="M172.009 103.512C176.42 92.0768 183.431 80.9191 194.462 74.8797C195.716 74.193 197.992 72.6277 199.514 72.717C197.742 72.6144 198.71 71.8721 198.756 73.1659C198.785 73.9999 199.298 74.998 199.539 75.8127C200.184 77.9875 201.027 80.2009 201.496 82.4192C201.73 83.5247 201.852 83.4668 201.848 83.4089C201.846 83.369 201.783 83.3304 201.655 83.6756C201.324 84.5747 200.167 85.6477 199.603 86.3947C197.118 89.6871 194.635 92.9795 192.148 96.2708C188.146 101.575 184.142 106.879 180.14 112.184C179.437 113.114 181.009 114.017 181.703 113.097C187.48 105.443 193.256 97.7878 199.034 90.1325C200.3 88.4561 203.429 85.6959 203.693 83.5259C204.091 80.2649 201.125 74.7904 200.178 71.5946C200.037 71.119 199.548 70.8403 199.065 70.9622C184.681 74.6034 175.162 90.3304 170.262 103.031C169.844 104.118 171.594 104.59 172.009 103.512Z" fill="#4C4C89"/>
<path d="M173.257 108.865C173.257 108.865 183.979 86.8164 185.122 88.3696C186.266 89.9229 181.129 100.539 181.129 100.539C182.929 98.5244 186.501 96.7189 184.561 100.989C182.62 105.26 176.53 110.882 176.53 110.882L173.257 108.865Z" fill="#EAEBFF"/>
<path d="M189.957 75.1787C190.227 69.9975 191.038 64.1561 192.886 58.4306C192.616 63.1448 192.679 68.2258 192.99 73.3298C191.947 73.8849 190.936 74.5041 189.957 75.1787Z" fill="#D7D9FF"/>
<path d="M184.695 106.147L190.825 92.238C190.825 92.238 189.695 86.1891 189.858 77.8554C190.91 77.0649 192.005 76.3227 193.145 75.6372C193.574 81.353 194.297 87.0447 195.193 92.238C194.178 93.5825 193.163 94.927 192.148 96.2715C189.664 99.5639 187.179 102.855 184.695 106.147Z" fill="#EAA8C3"/>
<path d="M183.115 109.734L184.696 106.147C187.18 102.855 189.665 99.5639 192.149 96.2715C193.164 94.927 194.179 93.5825 195.194 92.238C195.264 92.6448 195.335 93.0466 195.407 93.4473L183.115 109.734ZM189.859 77.8555C189.876 76.9865 189.908 76.0922 189.956 75.1786C190.935 74.5039 191.946 73.8848 192.989 73.3296C193.036 74.0996 193.088 74.866 193.146 75.6372C192.006 76.3227 190.911 77.065 189.859 77.8555Z" fill="#464689"/>
<path d="M227.731 134.814C233.723 134.426 242.164 110.873 239.539 81.626C236.916 52.3793 224.234 33.7932 204.772 34.6681C185.312 35.5431 193.622 98.5165 200.62 112.072C207.616 125.629 220.953 135.251 227.731 134.814Z" fill="#EAEBFF"/>
<path d="M227.75 134.811C227.755 134.811 227.761 134.811 227.764 134.811C227.759 134.811 227.755 134.811 227.75 134.811ZM227.826 134.805C227.827 134.805 227.829 134.805 227.831 134.805C227.828 134.805 227.827 134.805 227.826 134.805ZM227.861 134.801C227.862 134.801 227.861 134.801 227.862 134.801H227.861Z" fill="#F0F1FF"/>
<path d="M214.065 128.536C211.782 126.691 209.501 124.493 207.365 122.01C209.501 124.493 211.784 126.691 214.065 128.536Z" fill="#F0F1FF"/>
<path d="M200.607 112.05C200.607 112.049 200.606 112.048 200.604 112.047C200.606 112.048 200.606 112.049 200.607 112.05ZM200.596 112.029C200.595 112.026 200.594 112.024 200.594 112.023C200.594 112.025 200.595 112.026 200.596 112.029ZM200.572 111.983C200.572 111.98 200.571 111.98 200.571 111.979C200.571 111.979 200.572 111.982 200.572 111.983ZM200.56 111.957C200.56 111.957 200.56 111.957 200.559 111.956L200.56 111.957Z" fill="#A1D3FC"/>
<path d="M227.277 134.827C227.249 134.827 227.222 134.827 227.194 134.827C227.173 134.827 227.152 134.827 227.13 134.826C226.827 134.82 226.511 134.797 226.186 134.756C226.183 134.755 226.178 134.755 226.174 134.755C226.14 134.75 226.108 134.745 226.074 134.741C226.072 134.74 226.068 134.74 226.064 134.739C226.052 134.738 226.039 134.737 226.027 134.734C226.016 134.733 226.005 134.731 225.994 134.729C225.983 134.728 225.973 134.727 225.962 134.725C225.959 134.725 225.957 134.725 225.953 134.723C222.656 134.231 218.363 132.011 214.065 128.537C211.784 126.691 209.502 124.494 207.366 122.011C204.974 119.23 202.765 116.094 200.949 112.7C200.932 112.669 200.915 112.637 200.898 112.606C200.89 112.589 200.88 112.572 200.872 112.555C200.835 112.488 200.8 112.421 200.765 112.354C200.763 112.349 200.759 112.343 200.757 112.338C200.71 112.25 200.665 112.162 200.619 112.072C200.616 112.065 200.611 112.058 200.607 112.051C200.606 112.049 200.606 112.048 200.605 112.047C200.603 112.04 200.599 112.035 200.596 112.029C200.595 112.026 200.594 112.025 200.594 112.023C200.59 112.017 200.588 112.012 200.584 112.006C200.584 112.005 200.583 112.002 200.582 112C200.58 111.995 200.576 111.988 200.572 111.983C200.572 111.982 200.571 111.979 200.571 111.979C200.567 111.972 200.564 111.965 200.56 111.958L200.559 111.956C200.543 111.925 200.529 111.895 200.512 111.862C196.503 103.823 192.113 79.8036 192.783 60.6671C196.287 92.7186 215.033 119.571 225.419 122.086C226.091 122.249 226.734 122.329 227.352 122.329C231.719 122.329 234.797 118.343 238.435 111.774C236.073 125.365 231.534 134.362 227.863 134.802C227.861 134.802 227.863 134.802 227.861 134.802C227.852 134.803 227.841 134.804 227.831 134.805C227.83 134.805 227.828 134.805 227.826 134.805C227.822 134.805 227.818 134.807 227.813 134.807C227.811 134.807 227.808 134.807 227.806 134.808C227.804 134.808 227.801 134.808 227.799 134.808C227.795 134.809 227.791 134.809 227.788 134.809C227.785 134.809 227.783 134.809 227.781 134.81C227.777 134.81 227.773 134.81 227.77 134.81C227.768 134.81 227.767 134.81 227.765 134.811C227.761 134.811 227.755 134.811 227.75 134.811C227.75 134.813 227.748 134.813 227.747 134.813C227.742 134.813 227.737 134.813 227.731 134.814C227.584 134.824 227.432 134.827 227.277 134.827Z" fill="#DDDEFF"/>
<path d="M212.315 41.5035C214.144 42.3821 216.02 43.1799 217.743 44.2589C219.651 45.4537 221.239 46.9635 222.946 48.413C223.254 48.6761 223.776 48.3418 223.537 47.9556C221.262 44.2902 216.716 41.477 212.439 41.0473C212.199 41.0232 212.102 41.4021 212.315 41.5035Z" fill="white"/>
<path d="M204.331 43.7528C207.609 44.2923 210.688 45.1094 213.792 46.303C214.216 46.4659 214.443 45.8226 214.089 45.5957C211.217 43.7552 207.8 42.9104 204.399 43.2531C204.139 43.2797 204.025 43.7021 204.331 43.7528Z" fill="white"/>
<path d="M197.741 39.6964C199.777 39.1762 201.803 38.8407 203.914 38.8299C205.786 38.8202 207.658 39.105 209.525 38.9554C209.955 38.9204 210.081 38.3048 209.63 38.1769C205.832 37.1052 201.036 37.32 197.472 39.0579C197.108 39.2353 197.367 39.7905 197.741 39.6964Z" fill="white"/>
<path d="M182.351 50.7637C183.883 49.3794 185.395 47.9649 186.992 46.6542C188.585 45.3435 190.341 44.273 191.963 43.0034C192.353 42.6992 191.929 41.998 191.476 42.1681C187.595 43.6321 184.136 47.0536 182.308 50.7298L182.351 50.7637Z" fill="white"/>
<path d="M177.201 61.333C179.089 58.7804 181.185 56.392 183.085 53.8527C183.406 53.4242 182.7 52.8847 182.346 53.2806C180.214 55.6582 178.593 58.4714 177.152 61.304L177.201 61.333Z" fill="white"/>
<path d="M183.718 58.5105C185.93 56.2789 188.133 53.8362 190.088 51.3765C190.364 51.0289 190.021 50.4702 189.584 50.7248C186.807 52.3421 184.873 55.5391 183.526 58.3608C183.468 58.4815 183.614 58.6143 183.718 58.5105Z" fill="white"/>
<path d="M190.894 53.6816C194.093 50.3253 198.335 47.9283 202.896 47.0328C203.317 46.9507 203.16 46.392 202.804 46.3485C198.19 45.774 192.82 49.7351 190.745 53.567L190.894 53.6816Z" fill="white"/>
<path d="M192.009 47.343C194.529 45.0704 197.601 44.1785 200.59 42.7519C201.121 42.4985 200.747 41.6307 200.191 41.8045C197.034 42.7881 193.857 44.4911 191.597 46.929C191.34 47.2054 191.729 47.594 192.009 47.343Z" fill="white"/>
<path d="M191.808 56.8076C191.112 81.7143 192.65 112.698 213.8 129.471C218.151 132.923 226.34 138.812 231.34 133.606C237.839 126.835 239.321 113.93 240.269 105.169C242.62 83.4377 240.783 50.9566 219.568 38.1864C209.157 31.9202 198.705 32.9231 189.076 39.6214C170.455 52.5762 164.18 77.2645 161.699 98.4708C161.562 99.6258 163.374 99.6162 163.509 98.4708C165.708 79.6831 170.744 58.9969 184.882 45.4061C190.365 40.1368 198.145 35.0726 206.088 35.6713C229.698 37.4514 237.427 64.2879 238.818 83.9217C239.709 96.4939 238.938 109.616 235.16 121.707C234.068 125.206 232.737 129.65 230.058 132.325C226.742 135.64 221.818 132.702 218.476 130.602C194.47 115.528 192.908 82.2006 193.619 56.8076C193.651 55.6417 191.841 55.6429 191.808 56.8076Z" fill="#4C4C89"/>
</g>
</svg>
