<svg width="263" height="263" viewBox="0 0 263 263" fill="none" xmlns="http://www.w3.org/2000/svg">
<circle cx="131.5" cy="131.5" r="131.5" fill="#DFC9F8"/>
<mask id="mask0_346_12624" style="mask-type:alpha" maskUnits="userSpaceOnUse" x="0" y="0" width="263" height="263">
<circle cx="131.5" cy="131.5" r="131.5" fill="#D9D9D9"/>
</mask>
<g mask="url(#mask0_346_12624)">
<path d="M233.826 205.467C221.208 238.148 190.641 255.253 140.021 258.001C113.632 259.434 51.4099 260.98 24.0908 201.693C16.6126 185.463 15.0934 164.964 26.4858 171.795C37.8777 178.629 35.5999 156.258 35.9798 129.278C36.3591 102.298 55.861 66.549 109.337 52.5258C162.814 38.5014 192.006 69.62 203.538 87.8676C216.739 108.755 213.896 145.042 228.953 137.778C251.142 127.074 242.378 183.318 233.826 205.467Z" fill="#C6A0F2"/>
<path d="M21.2113 139.892C15.0041 146.259 24.5884 176.222 31.804 167.849C39.0192 159.476 28.0879 132.839 21.2113 139.892Z" fill="#C6A0F2"/>
<path d="M17.4902 166.696C11.9812 166.644 3.0604 153.243 11.4145 156.514C19.769 159.786 25.4655 166.771 17.4902 166.696Z" fill="#C6A0F2"/>
<path d="M225.46 132.473C216.261 131.904 216.524 100.797 228.296 103.237C240.067 105.674 241.232 133.448 225.46 132.473Z" fill="#C6A0F2"/>
<path d="M161.782 206.926H102.706C73.1676 209.644 59.4805 242.97 59.4805 242.97C82.6509 263.565 132.244 263.136 132.244 263.136C132.244 263.136 181.838 263.565 205.008 242.97C205.008 242.97 191.321 209.644 161.782 206.926Z" fill="#6D6A9C"/>
<path d="M87.5234 215.67C85.0106 216.812 82.4338 218.35 80.6664 220.512C80.5074 220.707 80.7197 221.07 80.9612 220.893C83.2177 219.235 85.3201 217.481 87.7897 216.126C88.0934 215.96 87.8266 215.533 87.5234 215.67Z" fill="#232345"/>
<path d="M84.783 219.668C82.6653 220.974 80.5989 222.644 79.2826 224.789C79.1019 225.085 79.5038 225.368 79.7474 225.149C81.5529 223.521 83.21 221.775 85.1454 220.287C85.4998 220.016 85.1881 219.418 84.783 219.668Z" fill="#232345"/>
<path d="M90.2441 217.433C88.5115 218.727 86.8328 220.106 85.4974 221.82C85.2254 222.168 85.6454 222.615 85.9902 222.312C87.5871 220.913 89.0873 219.411 90.7306 218.063C91.0792 217.778 90.6107 217.16 90.2441 217.433Z" fill="#232345"/>
<path d="M189.322 226.578C190.404 227.843 191.421 229.168 192.401 230.513C193.226 231.646 193.907 232.899 194.818 233.967C195.198 234.411 195.76 233.843 195.564 233.389C194.371 230.647 191.893 228.174 189.769 226.129C189.472 225.842 189.06 226.27 189.322 226.578Z" fill="#232345"/>
<path d="M190.422 232.374C191.156 233.557 191.82 234.77 192.467 236.003C193.036 237.094 193.456 238.413 194.307 239.31C194.556 239.572 195.102 239.385 195.064 238.996C194.949 237.782 194.203 236.666 193.6 235.625C192.861 234.35 191.991 233.15 191.097 231.979C190.801 231.592 190.149 231.934 190.422 232.374Z" fill="#232345"/>
<path d="M186.603 230.238C187.883 232.522 188.831 235.084 190.304 237.24C190.526 237.569 191.068 237.374 190.96 236.965C190.282 234.394 188.512 232.076 186.902 230.007C186.766 229.832 186.501 230.056 186.603 230.238Z" fill="#232345"/>
<path d="M86.8465 244.664C85.4731 246.186 84.1641 247.85 83.4093 249.769C83.2846 250.085 83.7595 250.238 83.9313 249.987C85.0536 248.354 86.0537 246.683 87.369 245.186C87.6817 244.831 87.1666 244.308 86.8465 244.664Z" fill="#232345"/>
<path d="M83.0322 246.527C82.2461 247.566 81.5198 248.658 81.0354 249.871C80.9202 250.158 81.365 250.316 81.5177 250.075C82.187 249.015 82.8087 247.942 83.5799 246.949C83.8874 246.554 83.3385 246.123 83.0322 246.527Z" fill="#232345"/>
<path d="M171.89 241.04C171.89 241.04 177.22 242.694 177.445 240.803C177.669 238.913 162.309 228.278 162.309 228.278C162.309 228.278 168.746 227.805 167.772 226.388C166.798 224.97 155.305 222.134 153.135 216.344C152.056 213.463 151.514 210.147 151.242 207.54H113.243C112.97 210.147 112.429 213.463 111.35 216.344C109.179 222.134 97.6861 224.97 96.7111 226.388C95.7388 227.805 102.176 228.278 102.176 228.278C102.176 228.278 86.8146 238.913 87.0396 240.803C87.2641 242.694 92.5951 241.04 92.5951 241.04C88.3206 246.287 86.1152 251.758 84.9863 256.264C107.633 263.338 132.242 263.136 132.242 263.136C132.242 263.136 156.851 263.338 179.498 256.264C178.37 251.758 176.164 246.288 171.89 241.04Z" fill="#A7A7C7"/>
<path d="M161.421 223.255C158.383 221.801 155.101 219.877 153.607 217.326C161.238 216.242 168.754 214.514 176.085 212.052C177.547 212.749 179.01 213.563 180.481 214.514C181.46 215.146 182.423 215.817 183.372 216.527C183.025 216.691 182.674 216.855 182.313 217.019C176.489 219.669 169.341 221.77 161.421 223.255ZM103.251 223.166C98.3098 222.226 93.5275 221.026 89.0143 219.553C89.5752 219.044 90.1436 218.544 90.7304 218.062C91.0183 217.827 90.749 217.365 90.44 217.365C90.3744 217.365 90.3079 217.385 90.2439 217.432C89.479 218.003 88.7242 218.591 88.0053 219.217C86.9103 218.847 85.8295 218.459 84.7688 218.056C85.7361 217.365 86.7301 216.709 87.7914 216.126C88.0544 215.983 87.8901 215.642 87.6445 215.642C87.6065 215.642 87.5664 215.651 87.5251 215.669C86.2759 216.237 85.0107 216.902 83.8371 217.695C83.2771 217.474 82.7245 217.249 82.1751 217.019C81.8096 216.865 81.4562 216.713 81.1055 216.559C83.5221 214.776 85.9917 213.328 88.5293 212.163C95.8027 214.513 103.294 216.215 110.906 217.28C109.455 219.803 106.254 221.715 103.251 223.166Z" fill="#5A578A"/>
<path d="M84.7686 218.057C84.4565 217.938 84.1459 217.817 83.8369 217.696C85.0106 216.903 86.2757 216.238 87.525 215.67C87.5662 215.652 87.6064 215.643 87.6444 215.643C87.89 215.643 88.0543 215.984 87.7912 216.127C86.73 216.71 85.7359 217.366 84.7686 218.057Z" fill="#1D1D3D"/>
<path d="M89.0119 219.553C88.6749 219.443 88.3368 219.331 88.0029 219.217C88.7218 218.591 89.4766 218.003 90.2415 217.432C90.3055 217.385 90.372 217.365 90.4376 217.365C90.7466 217.365 91.0159 217.827 90.728 218.063C90.1411 218.544 89.5728 219.044 89.0119 219.553Z" fill="#1D1D3D"/>
<path d="M132.552 225.812C122.7 225.812 112.683 224.962 103.249 223.166C106.252 221.716 109.453 219.803 110.904 217.28C113.306 217.616 115.721 217.889 118.144 218.098C123.068 218.524 127.99 218.748 132.891 218.748C139.855 218.748 146.776 218.295 153.605 217.326C155.099 219.877 158.381 221.802 161.419 223.255C152.503 224.926 142.614 225.813 132.552 225.812Z" fill="#8A89B0"/>
<path d="M205.984 242.63C202.045 233.169 195.479 224.208 187.777 217.502C178.174 209.142 167.355 205.842 154.934 205.842C141.119 205.842 127.304 205.842 113.491 205.842C101.57 205.842 91.2834 206.796 81.0615 214.059C71.2824 221.007 63.1216 231.535 58.5012 242.63C57.9999 243.832 59.9618 244.358 60.4567 243.168C64.1157 234.384 70.7509 225.371 78.1436 218.937C88.0723 210.294 98.8522 207.871 111.437 207.871C123.89 207.871 136.341 207.871 148.795 207.871C160.327 207.871 170.213 207.884 180.48 214.514C190.708 221.119 199.473 232.228 204.028 243.168C204.523 244.355 206.487 243.834 205.984 242.63Z" fill="#232345"/>
<path d="M102.855 232.225C100.095 233.129 97.266 234.869 95.934 237.545C95.7825 237.85 96.1774 238.212 96.4316 237.929C98.3776 235.765 100.23 233.814 102.979 232.674C103.247 232.563 103.148 232.13 102.855 232.225Z" fill="#6D6A9C"/>
<path d="M100.879 236.695C98.9468 238.459 97.301 240.683 96.7804 243.287C96.706 243.66 97.2483 243.951 97.4376 243.563C98.5465 241.282 99.6986 239.144 101.553 237.367C101.996 236.942 101.331 236.284 100.879 236.695Z" fill="#6D6A9C"/>
<path d="M105.419 233.784C103.487 235.548 102.029 237.537 101.096 239.998C100.878 240.573 101.791 240.813 102.011 240.251C102.889 238.018 104.091 235.852 105.672 234.037C105.825 233.864 105.591 233.628 105.419 233.784Z" fill="#6D6A9C"/>
<path d="M130.374 243.635C129.338 245.745 128.628 248.025 128.683 250.393C128.695 250.974 129.64 251.158 129.74 250.536C130.101 248.303 130.395 246.087 131.011 243.905C131.115 243.534 130.551 243.273 130.374 243.635Z" fill="#6D6A9C"/>
<path d="M131.758 247.027C130.722 249.622 130.185 252.589 130.841 255.356C130.948 255.806 131.578 255.673 131.609 255.253C131.812 252.529 131.694 249.776 131.891 247.045L131.758 247.027Z" fill="#6D6A9C"/>
<path d="M134.728 243.717C133.709 246.53 133.414 249.505 134.339 252.391C134.543 253.026 135.475 252.766 135.337 252.115C134.75 249.33 134.511 246.63 135.095 243.817C135.145 243.576 134.811 243.487 134.728 243.717Z" fill="#6D6A9C"/>
<path d="M160.381 230.161C162.207 231.849 163.813 233.7 165.37 235.632C165.81 236.179 166.604 235.395 166.147 234.856C164.553 232.969 162.688 231.313 160.739 229.802C160.489 229.609 160.135 229.934 160.381 230.161Z" fill="#6D6A9C"/>
<path d="M161.862 234.606C163.457 236.413 164.694 238.412 165.822 240.532C166.156 241.162 167.075 240.608 166.77 239.977C165.699 237.757 164.164 235.78 162.444 234.025C162.071 233.641 161.513 234.211 161.862 234.606Z" fill="#6D6A9C"/>
<path d="M165.429 232.981C167.395 235.014 169.21 237.193 170.851 239.495C171.29 240.11 172.163 239.456 171.68 238.855C169.876 236.615 167.893 234.575 165.713 232.697C165.519 232.531 165.248 232.793 165.429 232.981Z" fill="#6D6A9C"/>
<path d="M217.056 179.093C219.76 177.723 222.593 177.25 219.994 173.706C217.397 170.161 218.708 142.561 207.235 120.261C184.122 75.3327 151.227 69.7248 132.244 69.7248C113.261 69.7248 80.3667 75.3327 57.2535 120.261C45.7802 142.561 47.0912 170.161 44.4939 173.706C41.896 177.25 44.728 177.723 47.4331 179.093C50.81 180.806 40.902 180.41 45.964 186.272C49.2069 190.026 60.1122 199.656 82.1754 208.905C112.079 221.442 158.399 219.787 182.314 208.905C204.088 198.997 215.281 190.026 218.525 186.272C223.587 180.41 213.678 180.806 217.056 179.093Z" fill="#6D6A9C"/>
<path d="M217.056 179.093C219.76 177.723 222.593 177.25 219.994 173.706C217.397 170.161 218.708 142.561 207.235 120.261C184.122 75.3327 151.227 69.7248 132.244 69.7248C113.261 69.7248 80.3667 75.3327 57.2535 120.261C45.7802 142.561 47.0912 170.161 44.4939 173.706C41.896 177.25 44.728 177.723 47.4331 179.093C50.81 180.806 40.902 180.41 45.964 186.272C49.2069 190.026 60.1122 199.656 82.1754 208.905C112.079 221.442 158.399 219.787 182.314 208.905C204.088 198.997 215.281 190.026 218.525 186.272C223.587 180.41 213.678 180.806 217.056 179.093Z" fill="#6D6A9C"/>
<path d="M180.663 115.375C161.838 110.082 153.403 120.667 148.442 127.613C143.482 134.559 140.023 143.488 132.243 144.482C124.463 143.488 121.004 134.559 116.043 127.613C111.081 120.667 102.648 110.082 83.8228 115.375C64.9982 120.667 52.3744 145.638 55.6816 165.317C58.9889 184.997 79.0217 191.558 92.5487 188.14C108.437 184.124 132.243 167.98 132.243 167.98C132.243 167.98 156.047 184.124 171.936 188.14C185.463 191.558 205.496 184.997 208.804 165.317C212.111 145.638 199.488 120.667 180.663 115.375Z" fill="#3F3C6B"/>
<path d="M208.133 145.254C208.133 145.254 212.272 147.452 207.927 139.74C205.739 135.859 203.363 133.022 201.029 130.746C201.905 130.8 203.232 130.512 201.653 127.804C199.451 124.032 191.412 118.556 186.549 117.756C186.549 117.756 190.491 117.272 189.862 115.542C189.233 113.812 175.959 111.492 167.819 114.146C167.819 114.146 169.582 112.398 168.483 110.825C167.382 109.254 157.169 112.171 148.44 127.612C143.48 134.558 140.021 143.487 132.241 144.481C124.462 143.487 121.003 134.558 116.041 127.612C107.314 112.171 97.1011 109.254 96.0004 110.825C94.9006 112.398 96.6644 114.146 96.6644 114.146C88.5236 111.492 75.2497 113.812 74.6211 115.542C73.9914 117.272 77.9331 117.756 77.9331 117.756C73.0702 118.556 65.0305 124.032 62.8298 127.804C61.2505 130.512 62.5768 130.8 63.4543 130.746C61.12 133.022 58.7435 135.859 56.556 139.74C52.2097 147.452 56.3496 145.254 56.3496 145.254C50.5595 161.402 55.3637 162.88 55.3637 162.88C56.9839 145.742 68.286 127.975 83.8214 123.607C102.647 118.314 111.08 128.898 116.041 135.844C121.003 142.79 127.177 149.031 132.241 148.655C137.304 149.031 143.48 142.79 148.44 135.844C153.402 128.898 161.836 118.314 180.661 123.607C196.196 127.975 207.498 145.742 209.118 162.88C209.118 162.88 213.923 161.402 208.133 145.254Z" fill="#A7A7C7"/>
<path d="M132.286 216.695C112.811 216.695 93.4714 213.308 75.7406 204.941C66.9476 200.791 58.2165 195.909 50.8085 189.551C48.9538 187.958 45.6213 185.623 46.4157 183.164C46.8441 181.839 49.0759 181.276 49.1461 179.898C49.2259 178.32 47.433 178.438 46.6064 177.589C44.5125 175.436 45.9413 173.341 46.4939 170.477C47.9349 163.015 48.2429 155.352 49.5523 147.851C49.2306 159.053 50.6896 168 49.3199 169.867C46.8652 173.218 49.5423 173.664 52.0975 174.96C55.2895 176.578 45.9261 176.204 50.7098 181.743C53.7746 185.291 64.0799 194.391 84.9287 203.132C98.5607 208.846 115.802 211.441 132.537 211.44C150.49 211.44 167.861 208.454 179.558 203.132C200.134 193.769 210.712 185.291 213.776 181.743C218.561 176.204 209.197 176.578 212.389 174.96C214.945 173.664 217.621 173.218 215.166 169.867C213.802 168.005 215.246 159.118 214.938 147.97C215.696 152.2 216.282 156.466 216.781 160.728C217.177 164.112 217.364 167.602 218.07 170.944C218.755 174.184 220.375 176.285 216.794 178.094C216.712 178.121 216.627 178.162 216.543 178.217C216.431 178.27 216.339 178.334 216.266 178.404C215.644 178.842 215.246 179.297 215.41 180.155C215.925 182.865 219.978 181.758 217.412 185.993C214.287 191.153 205.934 195.146 200.959 198.108C181.964 209.413 162.645 215.445 140.557 216.496C137.801 216.626 135.041 216.695 132.286 216.695Z" fill="#5A578A"/>
<path d="M217.568 179.969C224.456 176.729 220.431 173.701 219.608 167.59C218.234 157.396 217.326 147.233 214.677 137.249C208.942 115.644 195.087 94.7553 176.57 82.0047C153.324 66.0005 120.798 64.2547 95.7862 77.269C76.5675 87.2691 61.6723 106.028 53.5777 125.875C49.2515 136.483 47.2373 147.82 45.8666 159.141C45.4166 162.86 45.2781 166.744 44.462 170.404C44.0014 172.469 41.9439 174.775 42.6253 176.886C42.9211 177.801 43.6617 178.213 44.3806 178.751C44.547 178.875 46.7852 179.653 46.9214 179.969C46.8005 179.687 46.8459 179.058 46.2078 179.899C44.958 181.549 43.3046 181.34 43.5741 183.981C44.0203 188.349 51.4991 192.832 54.6241 195.086C73.2941 208.556 95.3197 216.124 118.147 218.098C143.601 220.299 168.949 217.111 191.816 205.454C200.677 200.937 209.947 195.846 217.268 188.988C218.772 187.58 221.321 185.412 220.999 183.111C220.856 182.085 220.432 181.578 219.755 180.854C218.83 179.865 217.771 179.838 217.568 179.969C218.66 179.261 217.644 177.504 216.545 178.218C215.768 178.722 215.225 179.175 215.411 180.156C215.927 182.866 219.979 181.758 217.414 185.994C214.289 191.154 205.936 195.147 200.961 198.109C181.966 209.414 162.647 215.446 140.559 216.497C118.318 217.554 95.9809 214.491 75.7423 204.942C66.9494 200.792 58.2183 195.91 50.8103 189.551C48.9556 187.958 45.6231 185.623 46.4175 183.165C46.8459 181.839 49.0777 181.277 49.1479 179.899C49.2277 178.321 47.4348 178.438 46.6082 177.589C44.5143 175.436 45.9431 173.342 46.4957 170.478C48.0048 162.664 48.2711 154.632 49.7459 146.794C53.9776 124.305 65.5844 102.897 83.2507 88.094C104.238 70.5103 134.639 65.9342 160.171 75.6476C181.871 83.9046 198.4 102.943 207.797 123.755C213.068 135.426 215.302 148.093 216.783 160.729C217.179 164.112 217.366 167.603 218.071 170.944C218.773 174.257 220.45 176.382 216.545 178.218C215.364 178.774 216.392 180.522 217.568 179.969Z" fill="#232345"/>
<path d="M92.9546 137.784C77.1388 137.384 74.1358 156.402 79.5412 165.011C82.2442 169.316 85.6238 172.308 92.9546 172.308C100.051 172.308 103.667 169.316 106.369 165.011C111.775 156.402 108.772 137.384 92.9546 137.784Z" fill="white"/>
<path d="M107.076 155.61C107.076 162.441 102.598 167.979 97.0722 167.979C91.5449 167.979 87.0654 162.441 87.0654 155.61C87.0654 148.778 91.5449 143.242 97.0722 143.242C102.598 143.242 107.076 148.778 107.076 155.61Z" fill="#232345"/>
<path d="M75.7588 140.023L111.385 147.388C111.385 147.388 105.211 126.967 75.7588 140.023Z" fill="#3F3C6B"/>
<path d="M75.4896 141.001C87.3653 143.456 99.2413 145.911 111.116 148.366C111.623 148.471 112.25 148.222 112.364 147.657C112.897 145.01 112.676 142.507 112.139 139.874C111.878 138.596 109.923 139.139 110.183 140.415C110.49 141.917 109.794 147.028 111.593 146.398C111.412 146.461 111.102 146.25 110.907 146.256C109.776 146.287 108.366 145.731 107.259 145.501C103.221 144.665 99.1831 143.831 95.1439 142.997C88.7726 141.678 82.4004 140.362 76.0289 139.044C74.7548 138.782 74.2102 140.736 75.4896 141.001Z" fill="#232345"/>
<path d="M87.0204 130.435C88.7938 130.668 102.539 133.488 105.409 134.872C108.278 136.255 106.584 140.217 104.261 139.693C101.938 139.167 86.0004 135.51 86.0004 135.51C82.8902 134.294 84.2868 130.075 87.0204 130.435Z" fill="#232345"/>
<path d="M77.3257 183.649C62.0793 180.153 66.9549 169.727 77.3257 172.207C91.682 175.639 89.8021 186.509 77.3257 183.649Z" fill="#FFB6C3"/>
<path d="M187.161 183.649C202.408 180.153 197.531 169.727 187.161 172.207C172.805 175.639 174.686 186.509 187.161 183.649Z" fill="#FFB6C3"/>
<path d="M171.481 137.784C187.297 137.384 190.301 156.402 184.896 165.011C182.193 169.316 178.813 172.308 171.481 172.308C164.387 172.308 160.771 169.316 158.068 165.011C152.661 156.402 155.666 137.384 171.481 137.784Z" fill="white"/>
<path d="M157.358 155.61C157.358 162.441 161.838 167.979 167.364 167.979C172.889 167.979 177.369 162.441 177.369 155.61C177.369 148.778 172.889 143.242 167.364 143.242C161.838 143.242 157.358 148.778 157.358 155.61Z" fill="#232345"/>
<path d="M188.679 140.023L153.053 147.388C153.053 147.388 159.226 126.967 188.679 140.023Z" fill="#3F3C6B"/>
<path d="M188.41 139.044C182.038 140.363 175.666 141.678 169.294 142.997C165.256 143.831 161.218 144.665 157.179 145.501C156.169 145.711 154.769 146.28 153.733 146.214C153.56 146.202 153.035 146.464 152.845 146.398C154.891 147.102 153.936 141.977 154.255 140.415C154.515 139.141 152.561 138.595 152.298 139.874C151.763 142.507 151.541 145.01 152.074 147.657C152.188 148.219 152.816 148.471 153.322 148.367C165.196 145.911 177.074 143.457 188.948 141.001C190.226 140.737 189.685 138.782 188.41 139.044Z" fill="#232345"/>
<path d="M177.415 130.435C175.642 130.668 161.896 133.488 159.026 134.872C156.158 136.255 157.851 140.217 160.174 139.693C162.498 139.167 178.436 135.51 178.436 135.51C181.546 134.294 180.149 130.075 177.415 130.435Z" fill="#232345"/>
<path d="M151.208 167.98C145.341 161.678 119.144 161.678 113.279 167.98C108.32 173.305 107.126 182.211 113.94 189.131C120.945 196.242 128.385 197.233 132.243 197.233C136.1 197.233 143.541 196.242 150.546 189.131C157.36 182.211 156.165 173.305 151.208 167.98Z" fill="#A7A7C7"/>
<path d="M131.204 170.483C131.204 174.685 131.204 178.886 131.204 183.088C131.204 184.391 133.233 184.394 133.233 183.088C133.233 178.886 133.233 174.685 133.233 170.483C133.233 169.178 131.204 169.175 131.204 170.483Z" fill="#232345"/>
<path d="M118.079 182.187C119.166 183.897 120.817 185.386 122.662 186.217C126.435 187.92 130.051 186.217 132.937 183.653C133.914 182.784 132.475 181.353 131.502 182.219C127.656 185.637 122.725 185.718 119.83 181.164C119.132 180.064 117.376 181.081 118.079 182.187Z" fill="#232345"/>
<path d="M144.655 181.163C141.761 185.714 136.831 185.637 132.984 182.218C132.01 181.353 130.571 182.783 131.549 183.653C134.435 186.217 138.049 187.921 141.824 186.217C143.668 185.385 145.319 183.896 146.406 182.187C147.108 181.081 145.354 180.062 144.655 181.163Z" fill="#232345"/>
<path d="M143.27 162.582C141.223 159.273 123.265 159.273 121.217 162.582C119.169 165.889 128.303 172.191 132.244 173.293C136.183 172.191 145.319 165.889 143.27 162.582Z" fill="#232345"/>
<path d="M140.746 164.491C140.726 164.491 140.704 164.49 140.681 164.487C137.455 164.061 134.462 163.819 131.445 163.819C128.886 163.819 126.308 163.994 123.558 164.378L123.533 164.321C126.484 163.046 129.902 162.367 133.291 162.367C135.888 162.367 138.468 162.766 140.802 163.599C141.23 163.753 141.217 164.491 140.746 164.491Z" fill="#3B3B75"/>
<path d="M137.853 69.8951C137.853 69.8951 131.652 64.5076 120.919 62.3819C110.186 60.2547 112.596 63.5624 118.955 67.5814C118.955 67.5814 112.671 67.415 107.214 70.7741C101.756 74.1332 107.466 75.2244 117.456 75.5598C117.456 75.5598 110.823 82.5294 110.572 91.0096C110.32 99.4897 116.534 96.8866 124.51 85.468C124.51 85.468 127.029 96.6351 132.906 98.65C138.783 100.665 139.623 86.2239 139.623 86.2239L137.853 69.8951Z" fill="#6D6A9C"/>
<path d="M138.569 69.1781C133.092 64.5722 122.719 59.6986 115.474 60.7047C108.764 61.6364 115.964 66.8332 118.441 68.456C118.612 67.8258 118.782 67.1956 118.954 66.5668C115.703 66.5601 104.352 67.9975 104.127 72.6223C103.902 77.2674 115.089 76.475 117.455 76.5737C117.216 75.9963 116.978 75.4188 116.739 74.8428C112.944 78.9672 106.271 89.8206 110.425 95.488C114.851 101.526 123.391 88.7361 125.385 85.9788C124.766 85.8976 124.149 85.8179 123.531 85.7367C124.581 90.1533 128.426 101.303 134.819 99.7504C139.718 98.5604 140.37 90.2506 140.636 86.2236C140.723 84.92 138.694 84.9254 138.608 86.2236C138.433 88.8551 138.021 95.7071 135.406 97.177C130.109 100.153 126.343 88.7956 125.487 85.1985C125.268 84.2763 124.111 84.2952 123.634 84.9551C121.948 87.2851 119.56 91.1201 116.974 92.8037C111.641 96.2764 110.994 91.8828 112.146 87.1904C113.121 83.2201 115.403 79.2891 118.174 76.2762C118.778 75.6203 118.345 74.5831 117.455 74.5453C114.462 74.4209 103.914 74.7386 109.672 70.7427C112.129 69.0388 116.049 68.5898 118.954 68.5952C119.995 68.5966 120.286 67.2416 119.465 66.7034C117.67 65.5296 114.318 64.1246 116.171 62.7575C117.707 61.6243 125.107 64.4451 126.908 65.0901C130.466 66.3653 134.213 68.1544 137.134 70.6128C138.128 71.4485 139.569 70.0205 138.569 69.1781Z" fill="#232345"/>
<path d="M49.0378 163.864C48.3896 167.472 47.8741 171.056 46.75 174.56C46.4722 175.427 47.8805 175.82 48.115 174.936C49.0763 171.316 49.6833 167.603 49.1688 163.864H49.0378Z" fill="#232345"/>
<path d="M51.3226 171.661C50.9745 173.305 50.2502 174.73 49.5894 176.259C49.3676 176.772 50.0263 177.459 50.452 176.924C51.6189 175.455 52.0863 173.631 52.3183 171.796C52.3901 171.231 51.4404 171.106 51.3226 171.661Z" fill="#232345"/>
<path d="M53.4568 176.538C52.8668 177.995 51.7961 179.029 50.4977 179.866C49.9256 180.234 50.4263 181.093 51.0312 180.779C52.6001 179.961 53.6654 178.399 54.1504 176.729C54.2825 176.273 53.6258 176.122 53.4568 176.538Z" fill="#232345"/>
<path d="M57.2455 189.711C53.9568 188.721 51.541 186.988 48.9141 184.86C48.5766 184.587 47.9391 184.955 48.2501 185.372C50.3013 188.119 53.7232 189.844 57.0152 190.546C57.5576 190.661 57.7826 189.873 57.2455 189.711Z" fill="#232345"/>
<path d="M57.1357 183.678C54.7667 183.592 52.558 183.063 50.2729 182.493C49.7933 182.373 49.4832 183.051 49.9307 183.305C52.1107 184.534 54.6731 184.872 57.1357 184.65C57.7512 184.596 57.7701 183.702 57.1357 183.678Z" fill="#232345"/>
<path d="M215.317 163.863C214.802 167.603 215.409 171.316 216.37 174.936C216.604 175.818 218.013 175.428 217.735 174.56C216.611 171.056 216.096 167.473 215.447 163.863H215.317Z" fill="#232345"/>
<path d="M212.166 171.796C212.397 173.631 212.865 175.455 214.032 176.924C214.454 177.455 215.119 176.778 214.895 176.258C214.234 174.73 213.51 173.305 213.163 171.661C213.046 171.112 212.094 171.224 212.166 171.796Z" fill="#232345"/>
<path d="M210.337 176.729C210.822 178.399 211.888 179.961 213.457 180.779C214.06 181.093 214.563 180.234 213.989 179.866C212.691 179.029 211.62 177.995 211.031 176.538C210.862 176.122 210.204 176.272 210.337 176.729Z" fill="#232345"/>
<path d="M207.47 190.546C210.761 189.844 214.182 188.119 216.234 185.372C216.544 184.959 215.911 184.584 215.57 184.86C212.942 186.988 210.527 188.721 207.239 189.711C206.703 189.871 206.925 190.661 207.47 190.546Z" fill="#232345"/>
<path d="M207.349 184.65C209.813 184.872 212.375 184.534 214.554 183.305C214.999 183.053 214.696 182.372 214.214 182.493C211.928 183.063 209.717 183.592 207.349 183.678C206.717 183.702 206.733 184.596 207.349 184.65Z" fill="#232345"/>
<path d="M56.3066 130.412C56.3066 130.412 43.7822 112.481 41.6556 90.9756C39.5278 69.4703 48.0356 56.0003 52.0528 54.5817C56.0711 53.1646 81.1205 53.1646 100.972 81.5232L56.3066 130.412Z" fill="#6D6A9C"/>
<path d="M90.1565 74.502C90.0582 74.502 89.9589 74.4682 89.8755 74.3897C80.6953 65.7433 71.505 59.6715 58.8349 57.4849C58.567 57.4389 58.6282 57.0075 58.8865 57.0075C58.8909 57.0075 58.8956 57.0075 58.8998 57.0075C70.8896 57.6715 83.8224 63.5539 90.5389 73.8772C90.7434 74.1896 90.4555 74.502 90.1565 74.502Z" fill="#8E8ABA"/>
<path d="M57.2519 120.26C65.6508 103.933 75.3423 92.8198 85.1875 85.2592C75.59 67.9892 61.0937 64.0636 58.4335 64.5071C55.5979 64.9804 49.2169 74.6695 48.9808 92.2613C48.8091 105.039 53.8707 116.272 56.6554 121.468C56.853 121.065 57.0458 120.659 57.2519 120.26Z" fill="#FFB6C3"/>
<path d="M86.0653 84.7492C81.2721 76.5341 74.6518 69.2101 65.7933 65.3426C62.1743 63.7632 58.5422 62.2851 55.4996 65.367C49.7086 71.2331 48.3938 82.0838 48.0425 89.804C47.529 101.083 50.5722 112.041 55.7806 121.981C56.387 123.138 58.1386 122.114 57.5327 120.958C49.6526 105.92 45.8244 84.2975 55.3569 69.0087C62.7728 57.1154 80.8574 79.8485 84.3131 85.7728C84.9707 86.8993 86.7245 85.8797 86.0653 84.7492Z" fill="#232345"/>
<path d="M43.2746 100.522C42.5568 97.4974 41.9952 94.3412 41.6683 91.1025C41.9952 94.3412 42.5568 97.4961 43.2751 100.522H43.2746Z" fill="#C5C3D7"/>
<path d="M49.0144 117.11C46.893 112.421 44.7515 106.751 43.2734 100.523H43.274C44.752 106.749 46.893 112.421 49.0144 117.11Z" fill="#997BCC"/>
<path d="M54.1991 127.075C52.8203 124.759 50.926 121.332 49.0155 117.11C46.8941 112.421 44.7531 106.749 43.2751 100.523C42.5568 97.4968 41.9952 94.3419 41.6683 91.1032C41.6683 91.1019 41.6683 91.1019 41.6683 91.1005C41.6662 91.0816 41.6645 91.064 41.6625 91.0451C41.6625 91.0424 41.662 91.0383 41.662 91.0356C41.6598 91.0167 41.6576 90.9964 41.6561 90.9761C41.654 90.9572 41.6518 90.9369 41.6503 90.918C41.6482 90.899 41.6465 90.8815 41.6445 90.8625C41.6445 90.8612 41.6445 90.8598 41.6445 90.8585C40.6747 80.8841 42.0026 72.6744 44.0934 66.5702C43.8879 74.2565 44.6063 84.4798 48.0858 95.5941C48.6399 104.825 51.468 113.751 55.78 121.981C55.8894 122.189 56.0363 122.327 56.1995 122.406C55.4785 123.946 54.8171 125.505 54.1991 127.075ZM57.5909 119.608C57.6045 119.581 57.6178 119.557 57.6314 119.529C57.6178 119.555 57.604 119.582 57.5909 119.608ZM57.6347 119.523C61.5763 111.969 65.7974 105.547 70.1796 100.088C70.1907 100.081 70.2014 100.074 70.2119 100.066C65.8196 105.537 61.5859 111.953 57.6347 119.523Z" fill="#545184"/>
<path d="M57.2114 120.339C54.762 115.541 52.7278 110.105 51.4014 104.437C52.5001 106.936 53.7531 109.457 55.1788 111.983C55.1788 111.983 61.2968 106.271 70.179 100.087C65.7968 105.546 61.5756 111.968 57.634 119.522C57.6329 119.525 57.6319 119.526 57.6308 119.529C57.6171 119.556 57.6039 119.58 57.5902 119.607C57.5822 119.622 57.5742 119.637 57.5669 119.652C57.559 119.667 57.5511 119.682 57.5437 119.697C57.5315 119.72 57.5199 119.741 57.5077 119.766C57.5041 119.772 57.5004 119.779 57.4966 119.786C57.4154 119.944 57.3334 120.101 57.2521 120.26C57.2458 120.273 57.2389 120.285 57.2325 120.298C57.2256 120.312 57.2183 120.325 57.2114 120.339Z" fill="#C58CA5"/>
<path d="M56.1986 122.405C56.0354 122.327 55.8886 122.189 55.7792 121.981C51.4671 113.751 48.639 104.824 48.085 95.5936C48.9919 98.4916 50.0863 101.449 51.4012 104.438C52.7276 110.105 54.7618 115.541 57.2112 120.339C56.8604 121.023 56.5234 121.712 56.1986 122.405Z" fill="#1B1B3A"/>
<path d="M55.8309 128.549C43.6535 110.227 35.5373 79.5373 48.386 59.7102C52.3341 53.6168 58.7985 54.4863 65.254 55.9441C79.3911 59.1354 90.4789 69.2261 98.7432 80.6826C99.5005 81.732 101.261 80.7205 100.494 79.659C91.9124 67.7616 80.464 57.3329 65.7934 53.9887C60.2966 52.7351 52.8934 51.4491 48.6273 55.9927C39.9142 65.2734 39.4071 81.9335 40.9495 93.6145C42.5928 106.059 47.0849 119.049 54.0788 129.573C54.7977 130.655 56.5556 129.641 55.8309 128.549Z" fill="#232345"/>
<path d="M69.3052 106.338C69.3052 106.338 59.5804 104.683 59.4799 102.082C59.3796 99.4832 67.2508 100.665 67.2508 100.665C67.2508 100.665 58.8708 90.2674 59.4799 83.886C60.0884 77.506 69.3052 95.1113 69.3052 95.1113C69.3052 95.1113 72.3773 88.1403 74.0318 89.7941C75.6856 91.4493 75.3766 99.4832 75.3766 99.4832L69.3052 106.338Z" fill="#6D6A9C"/>
<path d="M54.6769 62.3108C51.2958 65.0736 49.4681 68.9884 47.9547 72.9925C47.6277 73.8566 49.0829 74.4814 49.4606 73.6267C51.0977 69.9228 52.6057 66.0851 55.6627 63.2967C56.3372 62.6814 55.3588 61.7524 54.6769 62.3108Z" fill="#232345"/>
<path d="M46.8623 68.3736C44.5408 71.8639 43.8076 76.1073 43.4632 80.2209C43.3998 80.9782 44.6834 81.1621 44.8017 80.4021C45.4255 76.394 45.8481 72.5265 47.6013 68.8064C47.8354 68.3114 47.1709 67.9112 46.8623 68.3736Z" fill="#232345"/>
<path d="M52.0155 58.0479C50.2723 59.9668 48.6808 62.0926 47.6084 64.4618C47.1636 65.4449 48.5645 66.3171 49.0864 65.3259C50.2464 63.1217 51.4566 61.008 53.046 59.0783C53.6329 58.367 52.6556 57.3434 52.0155 58.0479Z" fill="#232345"/>
<path d="M46.9951 78.2655C45.8172 82.5049 45.4004 86.9499 45.675 91.3394C45.7295 92.2062 47.0527 92.2238 47.038 91.3394C46.965 87.0107 47.3279 82.8281 48.0648 78.5603C48.1836 77.8693 47.1901 77.5637 46.9951 78.2655Z" fill="#232345"/>
<path d="M208.179 130.412C208.179 130.412 220.704 112.481 222.831 90.9756C224.958 69.4703 216.451 56.0003 212.433 54.5817C208.416 53.1646 183.366 53.1646 163.515 81.5232L208.179 130.412Z" fill="#6D6A9C"/>
<path d="M174.329 74.502C174.03 74.502 173.745 74.1869 173.946 73.8772C180.663 63.5539 193.595 57.6715 205.587 57.0075C205.591 57.0075 205.595 57.0075 205.599 57.0075C205.86 57.0075 205.916 57.4389 205.651 57.4849C192.995 59.6688 183.794 65.7405 174.61 74.3897C174.527 74.4682 174.427 74.502 174.329 74.502Z" fill="#8E8ABA"/>
<path d="M207.233 120.26C198.834 103.933 189.142 92.8198 179.298 85.2592C188.895 67.9892 203.391 64.0636 206.051 64.5071C208.888 64.9804 215.268 74.6695 215.505 92.2613C215.677 105.039 210.615 116.272 207.83 121.468C207.632 121.065 207.439 120.659 207.233 120.26Z" fill="#FFB6C3"/>
<path d="M217.699 111.791C217.702 111.783 217.704 111.777 217.707 111.769C217.704 111.777 217.702 111.784 217.699 111.791ZM217.717 111.746C217.719 111.739 217.722 111.731 217.725 111.726C217.722 111.733 217.719 111.739 217.717 111.746ZM217.75 111.657C217.757 111.641 217.762 111.627 217.768 111.611C217.762 111.626 217.757 111.641 217.75 111.657ZM217.771 111.603C218.531 109.616 219.258 107.516 219.919 105.324C219.258 107.516 218.531 109.618 217.771 111.603ZM220.005 105.039C220.01 105.023 220.014 105.008 220.018 104.993C220.014 105.008 220.01 105.024 220.005 105.039ZM220.09 104.752C220.092 104.741 220.097 104.728 220.101 104.716C220.097 104.728 220.092 104.74 220.09 104.752ZM220.107 104.693C220.11 104.684 220.111 104.676 220.114 104.668C220.111 104.676 220.109 104.684 220.107 104.693ZM220.207 104.348C220.207 104.346 220.207 104.346 220.209 104.345C220.207 104.345 220.207 104.346 220.207 104.348ZM222.823 91.0806C222.824 91.0711 222.825 91.0644 222.825 91.0549C222.825 91.0644 222.824 91.0725 222.823 91.0806ZM222.828 91.0292C222.831 91.0103 222.832 90.994 222.834 90.9751C222.832 90.9927 222.829 91.0116 222.828 91.0292ZM222.84 90.9021C222.843 90.8872 222.844 90.8683 222.846 90.8534C222.844 90.8696 222.843 90.8859 222.84 90.9021ZM222.854 90.7722C222.855 90.7587 222.857 90.7439 222.858 90.7317C222.857 90.7452 222.855 90.7587 222.854 90.7722ZM222.859 90.706C222.861 90.6952 222.862 90.6816 222.863 90.6708C222.862 90.683 222.861 90.6938 222.859 90.706ZM222.866 90.6438C222.867 90.6316 222.867 90.6235 222.869 90.6113C222.867 90.6222 222.867 90.633 222.866 90.6438Z" fill="#C5C3D7"/>
<path d="M210.289 127.075C209.544 125.183 208.736 123.305 207.836 121.461C210.078 117.275 213.792 109.183 215.066 99.5252C219.7 86.9044 220.624 75.1545 220.394 66.5702C222.448 72.5662 223.766 80.596 222.893 90.3324C222.891 90.3487 222.89 90.3662 222.889 90.3825C222.887 90.3865 222.887 90.3919 222.887 90.396C222.886 90.4095 222.885 90.4244 222.883 90.4393C222.883 90.4447 222.882 90.4501 222.882 90.4555C222.881 90.469 222.879 90.4812 222.878 90.4947C222.878 90.5028 222.876 90.5123 222.875 90.5217C222.875 90.5312 222.874 90.542 222.872 90.5515C222.872 90.5623 222.871 90.5718 222.87 90.5813C222.868 90.5921 222.868 90.6015 222.867 90.6124C222.866 90.6245 222.866 90.6326 222.864 90.6448C222.863 90.6543 222.863 90.6624 222.862 90.6718C222.86 90.6827 222.859 90.6962 222.858 90.707C222.858 90.7151 222.856 90.7232 222.856 90.7327C222.855 90.7449 222.853 90.7597 222.852 90.7733C222.851 90.7787 222.851 90.7854 222.849 90.7922C222.848 90.8071 222.847 90.8206 222.845 90.8355C222.845 90.8409 222.844 90.8477 222.844 90.8544C222.843 90.8693 222.841 90.8882 222.839 90.9031C222.839 90.9072 222.839 90.9112 222.839 90.9153C222.836 90.9356 222.835 90.9558 222.832 90.9761C222.83 90.995 222.829 91.0113 222.826 91.0302C222.826 91.0383 222.825 91.0478 222.824 91.0559C222.824 91.0654 222.822 91.0721 222.821 91.0816C222.356 95.7186 221.407 100.189 220.207 104.346C220.206 104.347 220.206 104.347 220.206 104.349C220.191 104.402 220.176 104.453 220.16 104.507C220.158 104.511 220.157 104.516 220.156 104.521C220.153 104.533 220.149 104.544 220.146 104.554C220.145 104.558 220.144 104.562 220.144 104.565C220.133 104.6 220.123 104.635 220.112 104.669C220.11 104.677 220.108 104.686 220.106 104.694C220.103 104.702 220.1 104.71 220.099 104.717C220.095 104.729 220.091 104.742 220.088 104.753C220.087 104.757 220.085 104.76 220.084 104.765C220.08 104.782 220.075 104.798 220.07 104.814C220.069 104.818 220.068 104.823 220.066 104.828C220.062 104.841 220.058 104.853 220.054 104.865C220.053 104.871 220.052 104.878 220.05 104.883C220.039 104.917 220.03 104.949 220.02 104.983C220.019 104.987 220.018 104.99 220.016 104.994C220.012 105.009 220.008 105.024 220.003 105.04C220.003 105.041 220.002 105.044 220.002 105.047C219.991 105.083 219.98 105.12 219.969 105.155L219.968 105.156C219.951 105.212 219.935 105.266 219.919 105.321C219.919 105.322 219.918 105.324 219.918 105.325C219.256 107.517 218.529 109.617 217.769 111.604C217.769 111.606 217.768 111.609 217.766 111.612C217.761 111.628 217.755 111.642 217.749 111.658C217.743 111.673 217.738 111.688 217.731 111.702C217.728 111.711 217.726 111.719 217.723 111.727C217.72 111.732 217.718 111.74 217.715 111.747C217.712 111.755 217.709 111.762 217.705 111.77C217.703 111.778 217.7 111.784 217.697 111.792C217.695 111.8 217.692 111.807 217.689 111.815C217.688 111.815 217.688 111.816 217.688 111.817C215.12 118.488 212.206 123.854 210.289 127.075ZM206.99 119.786C206.986 119.781 206.984 119.777 206.982 119.772C206.984 119.776 206.987 119.781 206.99 119.786ZM206.943 119.696C206.936 119.682 206.929 119.669 206.922 119.655C206.928 119.669 206.936 119.684 206.943 119.696ZM206.897 119.607C206.884 119.584 206.872 119.562 206.86 119.539C206.872 119.561 206.884 119.584 206.897 119.607ZM206.851 119.521C202.901 111.951 198.668 105.537 194.274 100.066C194.285 100.074 194.297 100.081 194.308 100.089C198.69 105.547 202.91 111.969 206.851 119.521Z" fill="#545184"/>
<path d="M207.835 121.46C207.639 121.058 207.439 120.658 207.233 120.26C207.152 120.101 207.069 119.943 206.988 119.786C206.986 119.78 206.983 119.775 206.98 119.771C206.967 119.745 206.953 119.72 206.941 119.695C206.934 119.683 206.926 119.668 206.921 119.655C206.911 119.638 206.903 119.622 206.895 119.606C206.883 119.583 206.871 119.56 206.858 119.538C206.856 119.532 206.853 119.526 206.849 119.521C202.908 111.968 198.688 105.546 194.307 100.089C203.188 106.273 209.306 111.983 209.306 111.983C211.673 107.791 213.563 103.613 215.064 99.5247C213.79 109.183 210.077 117.275 207.835 121.46Z" fill="#C58CA5"/>
<path d="M180.174 85.7725C183.671 79.7765 201.73 57.1407 209.129 69.0083C218.66 84.2931 214.833 105.923 206.954 120.957C206.349 122.112 208.099 123.139 208.706 121.981C213.708 112.434 216.783 101.874 216.482 91.0329C216.259 83.0031 215.065 71.46 208.987 65.3666C206.056 62.4268 202.776 63.6398 199.217 65.1151C190.111 68.8839 183.298 76.3891 178.422 84.7488C177.763 85.878 179.516 86.9003 180.174 85.7725Z" fill="#232345"/>
<path d="M210.406 129.573C217.399 119.05 221.891 106.056 223.535 93.6141C225.078 81.9345 224.57 65.2731 215.857 55.9924C211.591 51.4474 204.191 52.7334 198.691 53.9883C184.022 57.3325 172.572 67.7626 163.989 79.6586C163.225 80.7188 164.983 81.7317 165.742 80.6823C173.905 69.3651 184.748 59.4745 198.626 56.0911C205.174 54.4954 212.065 53.4569 216.099 59.7098C228.912 79.5707 220.848 110.201 208.655 128.549C207.93 129.639 209.685 130.656 210.406 129.573Z" fill="#232345"/>
<path d="M195.181 106.338C195.181 106.338 204.907 104.683 205.007 102.082C205.107 99.4832 197.235 100.665 197.235 100.665C197.235 100.665 205.615 90.2674 205.007 83.886C204.398 77.506 195.181 95.1113 195.181 95.1113C195.181 95.1113 192.11 88.1403 190.455 89.7941C188.801 91.4493 189.111 99.4832 189.111 99.4832L195.181 106.338Z" fill="#6D6A9C"/>
<path d="M208.822 63.2968C211.88 66.0852 213.389 69.9229 215.025 73.6268C215.398 74.472 216.862 73.8662 216.53 72.9926C215.017 68.9885 213.191 65.0737 209.808 62.311C209.126 61.7538 208.149 62.6815 208.822 63.2968Z" fill="#232345"/>
<path d="M216.886 68.8065C218.64 72.5253 219.062 76.3928 219.685 80.4023C219.803 81.1555 221.089 80.9865 221.024 80.2211C220.68 76.1075 219.947 71.8654 217.625 68.3738C217.317 67.9126 216.652 68.3116 216.886 68.8065Z" fill="#232345"/>
<path d="M211.438 59.0787C213.029 61.0084 214.239 63.122 215.398 65.3262C215.918 66.3161 217.321 65.4465 216.876 64.4621C215.803 62.0929 214.212 59.9671 212.469 58.0482C211.829 57.3437 210.851 58.3674 211.438 59.0787Z" fill="#232345"/>
<path d="M216.423 78.5604C217.16 82.8295 217.523 87.008 217.45 91.3394C217.435 92.2224 218.757 92.2075 218.813 91.3394C219.087 86.9499 218.669 82.5063 217.493 78.2655C217.298 77.5651 216.303 77.868 216.423 78.5604Z" fill="#232345"/>
</g>
</svg>
