<svg width="263" height="263" viewBox="0 0 263 263" fill="none" xmlns="http://www.w3.org/2000/svg">
<circle cx="131.5" cy="131.5" r="131.5" fill="#A4E4A4"/>
<mask id="mask0_346_12632" style="mask-type:alpha" maskUnits="userSpaceOnUse" x="0" y="0" width="263" height="263">
<circle cx="131.5" cy="131.5" r="131.5" fill="#D9D9D9"/>
</mask>
<g mask="url(#mask0_346_12632)">
<path d="M27.921 173.023C15.2101 174.591 -7.73738 161.171 8.74542 152.366C24.2221 144.097 64.8268 168.467 27.921 173.023Z" fill="#C2EDC2"/>
<path d="M23.4435 142.438C17.1841 131.363 26.6268 124.435 32.8992 136.467C39.1711 148.499 32.2112 157.951 23.4435 142.438Z" fill="#C2EDC2"/>
<path d="M115.182 259.631C80.2365 259.631 25.8818 223.296 22.7802 193.192C19.6781 163.088 60.548 188.99 43.7302 153.06C26.8318 116.959 54.5005 65.3428 105.133 50.2255C171.643 30.3655 229.906 84.2135 236.685 134.398C243.349 183.719 238.059 259.632 115.182 259.631Z" fill="#C2EDC2"/>
<path d="M159.851 207.893H101.603C72.4772 210.572 58.9824 243.431 58.9824 243.431C81.8283 263.737 130.727 263.315 130.727 263.315C130.727 263.315 179.625 263.737 202.471 243.431C202.471 243.431 188.975 210.572 159.851 207.893Z" fill="#BBBDE5"/>
<path d="M126.022 222.662C117.83 222.662 100.326 221.651 85.7441 213.954C88.4764 212.527 91.2845 211.458 94.1885 210.674C95.5445 211.15 96.9125 211.585 98.2872 211.978C108.293 214.845 119.077 215.867 129.722 215.867C134.043 215.867 138.342 215.699 142.557 215.418C150.882 214.861 159.366 213.321 167.177 210.498C170.045 211.245 172.885 212.325 175.741 213.885C161.13 221.646 143.545 222.662 135.331 222.662C132.415 222.662 130.679 222.534 130.679 222.534C130.679 222.534 128.942 222.662 126.022 222.662Z" fill="#9DA0D7"/>
<path d="M81.3594 255.816C104.277 263.536 130.208 263.315 130.208 263.315C130.208 263.315 156.928 263.543 180.093 255.46C174.425 247.236 161.687 229.695 130.723 229.695C99.3132 229.695 87.063 247.748 81.3594 255.816Z" fill="#EBEEFF"/>
<path d="M203.388 243.094C199.504 233.766 193.029 224.932 185.434 218.32C175.968 210.077 165.3 206.824 153.053 206.824C139.432 206.824 125.81 206.824 112.189 206.824C100.437 206.824 90.2941 207.764 80.2149 214.924C70.5731 221.774 62.5269 232.156 57.9706 243.094C57.4769 244.282 59.4107 244.8 59.8993 243.626C63.5065 234.965 70.0498 226.078 77.3383 219.734C87.1279 211.213 97.757 208.824 110.165 208.824C122.442 208.824 134.721 208.824 146.998 208.824C158.37 208.824 168.118 208.837 178.241 215.374C188.326 221.885 196.966 232.841 201.46 243.626C201.946 244.797 203.882 244.284 203.388 243.094Z" fill="#42295C"/>
<path d="M169.873 83.009C163.428 77.7757 155.664 74.1344 147.384 72.0637C151.752 70.1091 151.552 68.0931 151.552 68.0931C147.513 69.6478 144.25 68.0931 144.25 68.0931C148.74 65.5771 147.978 61.5691 147.978 61.5691C145.96 65.2984 138.037 66.6957 138.037 66.6957C140.366 58.3077 134.774 52.0944 134.774 52.0944C131.824 67.4731 120.949 70.0184 120.949 70.0184C116.289 68.6811 109.454 58.4624 109.454 58.4624C109.144 64.8317 110.386 70.0184 110.386 70.0184C105.572 69.6131 99.8237 65.7637 99.8237 65.7637C100.822 69.2571 104.314 72.4837 106.688 74.3504C101.16 76.465 95.9983 79.345 91.4863 83.009C59.6909 108.832 56.5789 163.673 66.0471 185.518C80.2403 218.268 130.68 214.534 130.68 214.534C130.68 214.534 181.118 218.268 195.312 185.518C204.78 163.673 201.668 108.832 169.873 83.009Z" fill="#BBBDE5"/>
<path d="M66.9354 162.538C66.8542 162.538 66.7667 162.485 66.7552 162.382C63.9771 138.53 70.8854 113.517 86.3635 94.9674C86.5099 94.7914 86.6948 94.7194 86.8823 94.7194C87.4542 94.7194 88.05 95.3981 87.6396 95.9514C73.1567 115.485 65.7818 137.946 67.0828 162.382C67.0891 162.487 67.0146 162.538 66.9354 162.538Z" fill="#DDDEF2"/>
<path d="M194.424 162.54C194.345 162.54 194.27 162.488 194.276 162.383C195.577 137.947 188.202 115.485 173.72 95.952C173.305 95.392 173.906 94.7214 174.478 94.7214C174.666 94.7214 174.852 94.7947 174.996 94.968C190.474 113.517 197.382 138.531 194.604 162.383C194.592 162.485 194.505 162.54 194.424 162.54Z" fill="#DDDEF2"/>
<path d="M102.752 83.3301C97.0998 87.2928 98.7424 91.4381 104.649 88.3781C110.554 85.3195 108.405 79.3675 102.752 83.3301Z" fill="#9FA6DD"/>
<path d="M112.941 83.942C108.931 86.266 110.707 90.3673 115.298 87.9193C119.887 85.4727 117.165 81.494 112.941 83.942Z" fill="#9FA6DD"/>
<path d="M106.894 89.4394C103.975 91.8968 105.122 93.7954 107.609 92.4634C110.095 91.1327 109.813 86.9794 106.894 89.4394Z" fill="#9FA6DD"/>
<path d="M172.636 108.029C168.021 103.595 173.553 101.887 176.001 105.1C178.449 108.312 176.001 111.264 172.636 108.029Z" fill="#9FA6DD"/>
<path d="M173.214 115.192C170.806 111.766 174.048 111.52 175.425 113.661C176.802 115.804 174.826 117.486 173.214 115.192Z" fill="#9FA6DD"/>
<path d="M164.253 108.772C161.628 104.329 164.908 101.192 168.313 106.436C171.717 111.678 166.974 113.376 164.253 108.772Z" fill="#9FA6DD"/>
<path d="M130.72 213.901C124.826 213.901 118.937 213.573 113.404 212.924C101 211.468 88.1122 207.864 78.2632 199.875C67.9799 191.535 63.956 179.516 62.7752 166.747C62.6107 164.967 62.4888 163.16 62.4102 161.339C63.2102 166.621 64.4466 171.263 66.0471 174.956C77.606 201.627 113.202 204.1 126.018 204.1C128.94 204.1 130.68 203.972 130.68 203.972C130.68 203.972 132.417 204.1 135.34 204.1C148.16 204.1 183.754 201.624 195.312 174.956C196.909 171.269 198.144 166.64 198.944 161.369C198.876 162.939 198.776 164.497 198.644 166.045C197.556 178.821 193.764 190.891 183.638 199.419C173.908 207.615 160.954 211.323 148.533 212.853C142.849 213.555 136.782 213.901 130.72 213.901Z" fill="#A2A4D9"/>
<path d="M170.58 82.3022C163.675 76.9262 156.093 73.3556 147.651 71.0995C147.729 71.7089 147.809 72.3169 147.889 72.9276C149.759 71.9302 152.468 70.5609 152.552 68.0929C152.575 67.4329 151.896 66.9715 151.285 67.1288C148.588 67.8262 146.744 68.0235 144.517 67.1288C144.596 67.7382 144.676 68.3476 144.756 68.9569C147.245 67.1836 149.397 64.8769 148.979 61.5689C148.853 60.5702 147.729 60.2275 147.116 61.0648C144.995 63.9582 141.147 65.0849 137.771 65.7315C138.181 66.1422 138.592 66.5515 139.001 66.9609C140.148 61.4342 139.239 55.7795 135.483 51.3862C135 50.8222 133.968 51.1249 133.811 51.8275C132.567 57.4089 128.645 67.5769 121.649 68.7395C117.725 69.3915 112.337 60.9355 110.319 57.9582C109.772 57.1516 108.476 57.4328 108.455 58.4622C108.371 62.4222 108.552 66.4062 109.423 70.2849C109.832 69.8742 110.243 69.4636 110.653 69.0542C106.919 68.4449 103.492 66.9516 100.328 64.8996C99.6427 64.4556 98.5307 65.2089 98.8587 66.0302C100.376 69.8089 102.841 72.4702 105.981 75.0582C106.129 74.5009 106.275 73.9435 106.423 73.3862C74.9126 86.0915 61.4392 121.562 60.409 153.424C60.0136 165.65 60.9746 179.333 67.2668 190.148C73.9251 201.592 85.8652 208.418 98.288 211.978C112.356 216.009 127.959 216.394 142.557 215.418C167.049 213.78 192.932 203.628 198.944 177.365C206.335 145.089 196.5 103.949 170.58 82.3022C169.599 81.4822 168.177 82.8902 169.165 83.7169C192.416 103.133 201.137 136.729 198.644 166.045C197.556 178.821 193.764 190.89 183.639 199.418C173.908 207.614 160.955 211.322 148.533 212.853C137.323 214.234 124.628 214.241 113.404 212.924C101 211.468 88.1126 207.864 78.2636 199.874C67.9803 191.534 63.9564 179.516 62.7756 166.746C59.5954 132.356 72.3355 89.2729 106.955 75.3142C107.575 75.0649 108.04 74.1756 107.396 73.6436C104.572 71.3156 102.221 69.0688 100.788 65.4982C100.299 65.8742 99.808 66.2515 99.3187 66.6275C102.635 68.7769 106.217 70.3462 110.121 70.9822C110.879 71.1062 111.529 70.5489 111.351 69.7516C110.52 66.0462 110.375 62.2462 110.455 58.4622C109.833 58.6315 109.213 58.7995 108.591 58.9675C111.285 62.9395 116.531 71.5556 121.977 70.7409C129.797 69.5742 134.313 58.7569 135.74 52.3596C135.183 52.5062 134.625 52.6542 134.068 52.8009C137.316 56.5995 138.065 61.6462 137.073 66.4302C136.911 67.2089 137.533 67.8076 138.303 67.6596C142.304 66.8942 146.372 65.4462 148.843 62.0742C148.221 61.9062 147.6 61.7382 146.979 61.5689C147.268 63.8529 146.157 65.5129 143.745 67.2302C143.007 67.7569 143.168 68.7302 143.985 69.0582C145.127 69.5155 146.687 69.4782 147.831 69.4422C149.631 69.3822 150.4 69.3235 146.88 71.1996C146.113 71.6076 146.307 72.8102 147.119 73.0275C155.181 75.1835 162.563 78.5769 169.165 83.7169C170.169 84.4982 171.595 83.0929 170.58 82.3022Z" fill="#42295C"/>
<path d="M113.43 69.7677C115.087 72.501 117.824 75.5464 121.046 76.3691C121.564 76.5011 121.828 75.8144 121.4 75.5264C119.988 74.5771 118.436 73.9251 117.096 72.8451C115.866 71.8544 114.751 70.7437 113.774 69.5024C113.619 69.3064 113.303 69.5584 113.43 69.7677Z" fill="#42295C"/>
<path d="M109.291 72.9542C112.104 75.2462 115.351 77.1048 118.946 77.7968C119.504 77.9035 119.736 77.1102 119.183 76.9382C115.762 75.8742 112.548 74.6248 109.594 72.5608C109.363 72.4008 109.071 72.7742 109.291 72.9542Z" fill="#42295C"/>
<path d="M134.541 64.4133C132.511 68.5933 129.619 71.7772 126.183 74.8412C125.821 75.1639 126.285 75.7439 126.693 75.5039C130.72 73.1265 133.581 69.0106 135.112 64.6532C135.229 64.3226 134.696 64.0933 134.541 64.4133Z" fill="#42295C"/>
<path d="M139.798 69.2223C137.167 70.361 134.566 71.7757 132.194 73.3863C131.722 73.7063 132.126 74.3717 132.635 74.1423C135.246 72.9583 137.81 71.4797 140.152 69.8303C140.528 69.5663 140.21 69.045 139.798 69.2223Z" fill="#42295C"/>
<path d="M142.184 71.8207C140.186 72.3554 138.218 72.938 136.255 73.594C135.724 73.7714 135.938 74.582 136.487 74.438C138.49 73.9127 140.455 73.3247 142.42 72.6794C142.963 72.5007 142.742 71.6714 142.184 71.8207Z" fill="#42295C"/>
<path d="M91.9427 134.662C76.3475 134.267 73.3866 153.021 78.7168 161.509C81.3814 165.753 84.7131 168.702 91.9427 168.702C98.9374 168.702 102.503 165.753 105.168 161.509C110.497 153.021 107.537 134.267 91.9427 134.662Z" fill="white"/>
<path d="M107.859 146.089C104.646 135.316 91.9391 129.34 82.161 136.546C74.6063 142.114 73.3463 154.21 77.8531 162.013C78.4968 163.128 80.2255 162.121 79.5802 161.005C75.9568 154.73 76.463 145.312 81.4687 139.868C89.4151 131.225 102.854 136.31 105.931 146.621C106.299 147.852 108.228 147.328 107.859 146.089Z" fill="#42295C"/>
<path d="M105.867 152.239C105.867 158.975 101.449 164.434 96.0001 164.434C90.5514 164.434 86.1348 158.975 86.1348 152.239C86.1348 145.504 90.5514 140.044 96.0001 140.044C101.449 140.044 105.867 145.504 105.867 152.239Z" fill="#42295C"/>
<path d="M169.417 134.662C185.012 134.267 187.973 153.021 182.644 161.509C179.978 165.753 176.646 168.702 169.417 168.702C162.421 168.702 158.856 165.753 156.192 161.509C150.861 153.021 153.822 134.267 169.417 134.662Z" fill="white"/>
<path d="M155.429 146.621C158.512 136.288 171.953 131.236 179.89 139.868C184.896 145.309 185.402 154.733 181.78 161.005C181.134 162.121 182.862 163.129 183.506 162.013C188.014 154.211 186.753 142.115 179.2 136.547C169.426 129.344 156.714 135.319 153.5 146.089C153.132 147.325 155.061 147.853 155.429 146.621Z" fill="#42295C"/>
<path d="M155.492 152.239C155.492 158.975 159.91 164.434 165.358 164.434C170.807 164.434 175.224 158.975 175.224 152.239C175.224 145.504 170.807 140.044 165.358 140.044C159.91 140.044 155.492 145.504 155.492 152.239Z" fill="#42295C"/>
<path d="M80.3283 180.352C79.2039 180.352 77.9356 180.206 76.5304 179.884C63.0679 176.797 65.5179 168.23 73.52 168.23C74.4539 168.23 75.4616 168.346 76.5304 168.602C89.0679 171.6 89.0444 180.352 80.3283 180.352Z" fill="#A2A4D9"/>
<path d="M181.03 180.352C172.312 180.35 172.29 171.6 184.827 168.602C185.895 168.346 186.903 168.23 187.838 168.23C195.839 168.23 198.29 176.797 184.827 179.884C183.422 180.206 182.154 180.352 181.03 180.352Z" fill="#A2A4D9"/>
<path d="M85.0842 132.782C87.7238 131.651 91.3347 130.854 95.516 132.356C98.508 133.431 100.165 131.035 97.9734 129.32C95.4494 127.344 89.117 126.196 84.6904 128.37C80.265 130.544 80.568 132.028 80.9218 132.872C81.2759 133.716 82.603 133.844 85.0842 132.782Z" fill="#42295C"/>
<path d="M176.274 132.782C173.634 131.651 170.023 130.854 165.842 132.356C162.85 133.431 161.191 131.035 163.383 129.32C165.908 127.344 172.24 126.196 176.667 128.37C181.094 130.544 180.79 132.028 180.436 132.872C180.082 133.716 178.755 133.844 176.274 132.782Z" fill="#42295C"/>
<path d="M99.6859 178.471C103.13 175.198 107.759 169.423 112.941 169.703C114.227 169.772 114.223 167.772 112.941 167.703C107.097 167.387 102.103 173.413 98.2712 177.057C97.3365 177.945 98.7525 179.359 99.6859 178.471Z" fill="#42295C"/>
<path d="M163.087 177.057C159.253 173.413 154.268 167.386 148.416 167.702C147.136 167.772 147.128 169.772 148.416 169.702C153.596 169.422 158.221 175.19 161.672 178.47C162.605 179.357 164.021 177.946 163.087 177.057Z" fill="#42295C"/>
<path d="M112.756 187.986C115.633 185.778 116.576 187.994 119.071 189.645C122.335 191.805 126.72 193.716 130.68 193.716C134.407 193.716 138.585 191.988 141.721 190.025C144.393 188.353 145.587 185.672 148.604 187.986C149.625 188.769 150.623 187.033 149.613 186.26C147.963 184.993 146.733 184.282 144.828 185.017C143.433 185.557 142.004 187.503 140.712 188.299C137.669 190.173 134.264 191.44 130.68 191.432C127.085 191.425 123.709 190.184 120.648 188.299C119.3 187.468 118.08 185.793 116.687 185.16C114.737 184.273 113.531 184.89 111.745 186.26C110.739 187.032 111.733 188.77 112.756 187.986Z" fill="#42295C"/>
<path d="M112.941 180.352C112.941 180.352 109.928 174.346 106.894 175.278C103.862 176.21 104.298 178.85 105.868 179.006C107.436 179.162 110.06 178.434 112.941 180.352Z" fill="#42295C"/>
<path d="M148.416 180.352C148.416 180.352 151.431 174.346 154.464 175.278C157.496 176.21 157.059 178.85 155.491 179.006C153.923 179.162 151.297 178.434 148.416 180.352Z" fill="#42295C"/>
<path d="M130.679 134.656C120.991 136.13 110.386 165.646 113.493 172.948C116.599 180.249 130.679 180.352 130.679 180.352C130.679 180.352 144.758 180.249 147.866 172.948C150.973 165.646 140.366 136.13 130.679 134.656Z" fill="#EBEEFF"/>
<path d="M130.68 179.352C126.706 179.352 122.098 178.596 118.59 176.654C113.75 173.976 113.577 169.658 114.38 165.106C114.417 166.201 114.578 167.126 114.877 167.828C117.733 174.541 130.68 174.636 130.68 174.636C130.68 174.636 143.626 174.541 146.482 167.828C146.781 167.125 146.942 166.197 146.98 165.1C147.784 169.657 147.596 173.946 142.769 176.654C139.281 178.612 134.648 179.352 130.68 179.352Z" fill="#DEE3FF"/>
<path d="M130.679 133.656C122.221 134.407 117.601 147.677 115.264 154.249C112.501 162.012 108.505 173.407 117.579 178.381C124.217 182.02 133.259 182.108 140.343 179.793C150.817 176.371 150.169 168.159 147.629 159.061C145.515 151.481 140.431 134.521 130.679 133.656C129.397 133.543 129.404 135.543 130.679 135.656C139.617 136.448 144.801 155.357 146.383 162.245C147.661 167.812 148.595 173.385 142.768 176.655C139.28 178.612 134.647 179.352 130.679 179.352C126.705 179.352 122.097 178.596 118.589 176.655C112.741 173.419 113.707 167.788 114.973 162.245C116.549 155.353 121.737 136.449 130.679 135.656C131.951 135.544 131.961 133.543 130.679 133.656Z" fill="#42295C"/>
<path d="M140.852 163.372C143.291 163.845 145.527 163.541 147.758 162.42C148.788 161.903 147.882 160.356 146.854 160.873C144.984 161.812 142.922 162.512 140.852 162.849C140.59 162.892 140.598 163.323 140.852 163.372Z" fill="#42295C"/>
<path d="M134.357 167.971C139.155 169.419 144.053 168.3 148.561 166.371C149.609 165.923 148.708 164.344 147.657 164.824C143.423 166.759 138.96 167.236 134.385 167.765L134.357 167.971Z" fill="#42295C"/>
<path d="M128.139 173.226C134.945 174.751 142.909 173.98 148.782 169.971C150.039 169.114 148.682 167.302 147.494 168.303C142.626 172.408 134.205 172.52 128.201 172.775C127.951 172.786 127.877 173.166 128.139 173.226Z" fill="#42295C"/>
<path d="M129.009 145.011C128.056 144.804 127.115 144.339 126.147 144.109C124.791 143.787 123.223 143.295 122.019 142.601C121.271 142.171 120.624 143.292 121.345 143.752C122.796 144.676 124.015 145.297 125.736 145.601C126.96 145.819 127.849 145.563 129.009 145.332C129.169 145.3 129.167 145.045 129.009 145.011Z" fill="#42295C"/>
<path d="M131.989 149.575C129.913 149.417 127.678 148.869 125.623 148.499C123.639 148.14 121.305 147.8 119.538 146.801C118.79 146.377 118.13 147.509 118.866 147.952C122.823 150.331 127.603 150.624 132.033 149.903C132.229 149.871 132.163 149.589 131.989 149.575Z" fill="#42295C"/>
<path d="M142.915 160.188C142.844 160.188 142.772 160.148 142.742 160.056C139.931 151.733 137.706 144.217 130.863 138.256C130.675 138.092 130.831 137.756 131.056 137.756C131.084 137.756 131.114 137.761 131.144 137.772C139.434 140.964 141.672 152.265 143.104 159.956C143.13 160.097 143.023 160.188 142.915 160.188Z" fill="#FBFCFF"/>
<path d="M98.9781 82.6688C98.9781 82.6688 82.9933 81.1568 71.349 56.1075C68.8791 50.7941 45.1411 63.4461 53.8671 86.3501C62.8859 110.022 97.0994 87.2928 97.0994 87.2928L98.9781 82.6688Z" fill="#BBBDE5"/>
<path d="M70.4528 95.7715C62.4508 95.7715 55.7154 92.0115 53.531 81.7048C52.9466 78.9448 52.8752 76.1248 53.2836 73.3954C55.3279 82.8261 61.1659 93.9701 76.8586 95.0648C74.6774 95.5195 72.5222 95.7702 70.4528 95.7715Z" fill="#9DA0D7"/>
<path d="M96.5657 81.0774C91.643 79.4347 87.3645 76.3947 83.7166 72.744C80.727 69.752 78.1931 66.3373 76.0025 62.7253C74.6921 60.5667 73.6462 56.4774 71.6582 54.864C67.1781 51.2254 59.6707 57.6587 56.9025 60.816C50.2051 68.4587 49.2457 79.6347 53.7806 88.6547C59.4973 100.027 72.2171 99.0987 82.6191 95.548C83.8301 95.1333 83.3103 93.2013 82.0874 93.6187C69.6885 97.852 56.729 96.796 53.5311 81.7054C51.5467 72.3414 55.4754 62.2653 64.0041 57.5173C68.1775 55.1947 69.8681 55.5947 72.0853 59.8373C74.4327 64.328 77.2306 68.616 80.6238 72.3907C84.8374 77.08 90.0139 80.9973 96.0337 83.0067C97.2577 83.4133 97.783 81.4827 96.5657 81.0774Z" fill="#42295C"/>
<path d="M93.97 85.0916C93.97 85.0916 80.539 82.4649 74.1765 75.5983C67.8145 68.7303 69.4301 64.5903 67.3098 63.8836C65.938 63.4263 57.3113 72.4676 61.3473 83.677C64.214 91.6396 73.5426 95.0823 85.1041 90.229" fill="#EBEEFF"/>
<path d="M94.2377 84.1268C84.4937 82.1441 74.202 77.5308 70.3109 67.7255C68.6656 63.5775 67.4124 61.0481 63.6661 65.4855C58.6858 71.3868 57.6317 80.9361 62.1708 87.3761C67.5557 95.0175 77.6401 94.1508 85.3708 91.1948C86.5609 90.7388 86.0448 88.8041 84.839 89.2655C74.8448 93.0881 61.4072 91.4815 61.2853 77.9855C61.2514 74.2121 62.5041 69.1281 65.4312 66.4654C68.1437 63.9988 67.7754 67.0295 68.9244 69.6081C73.2462 79.3041 83.839 84.0481 93.7057 86.0561C94.9617 86.3108 95.499 84.3841 94.2377 84.1268Z" fill="#42295C"/>
<path d="M56.7316 77.3867C56.6701 77.3867 56.6133 77.3547 56.6035 77.2801C55.6773 70.5334 59.0311 61.0934 66.6273 59.5601C66.6587 59.5534 66.6899 59.5507 66.7212 59.5507C67.1363 59.5507 67.5175 60.0841 67.1207 60.4081C64.654 62.4241 62.0264 63.756 60.1316 66.4707C57.9451 69.6 56.8863 73.4494 56.8951 77.24C56.8951 77.332 56.8097 77.3867 56.7316 77.3867Z" fill="#DDDEF2"/>
<path d="M161.812 82.6688C161.812 82.6688 177.796 81.1568 189.442 56.1075C191.91 50.7941 215.65 63.4461 206.923 86.3501C197.904 110.022 163.691 87.2928 163.691 87.2928L161.812 82.6688Z" fill="#BBBDE5"/>
<path d="M190.217 95.7344C188.199 95.7344 186.099 95.4984 183.967 95.0624C199.681 93.9517 205.5 82.7544 207.527 73.3131C207.913 75.7917 207.899 78.3464 207.445 80.8557C205.495 91.6837 198.559 95.7344 190.217 95.7344Z" fill="#9DA0D7"/>
<path d="M164.758 83.0061C170.518 81.0848 175.498 77.4154 179.606 72.9941C182.983 69.3608 185.802 65.2248 188.166 60.8714C190.695 56.2168 191.909 54.8008 196.787 57.5168C204.982 62.0794 209.085 71.7568 207.445 80.8554C204.637 96.4434 191.498 97.9861 178.705 93.6181C177.483 93.2008 176.959 95.1328 178.173 95.5474C188.153 98.9541 200.674 100.157 206.573 89.4594C211.599 80.3421 210.787 68.6995 203.889 60.8155C201.149 57.6835 193.834 51.3928 189.294 54.7088C187.311 56.1568 186.578 59.7021 185.343 61.8101C183.162 65.5328 180.631 69.0728 177.631 72.1848C173.875 76.0808 169.393 79.3528 164.226 81.0768C163.011 81.4821 163.531 83.4141 164.758 83.0061Z" fill="#42295C"/>
<path d="M166.82 85.0916C166.82 85.0916 180.251 82.4649 186.614 75.5983C192.976 68.7303 191.36 64.5903 193.48 63.8836C194.852 63.4263 203.479 72.4676 199.443 83.677C196.576 91.6396 187.247 95.0823 175.686 90.229" fill="#EBEEFF"/>
<path d="M167.086 86.0553C176.935 84.0513 187.57 79.306 191.867 69.6073C192.223 68.8033 192.41 67.4273 192.91 66.7113C194.312 64.7006 193.451 65.0033 195.36 66.4646C198.307 68.7233 199.575 74.5847 199.506 77.9847C199.231 91.466 186.067 93.1326 175.952 89.2646C174.748 88.8033 174.228 90.7366 175.42 91.194C182.931 94.066 192.635 95.03 198.208 87.954C203.258 81.542 202.212 71.5527 197.126 65.4847C193.715 61.418 192.259 63.106 190.66 67.1833C186.692 77.3033 176.659 82.07 166.554 84.126C165.294 84.382 165.827 86.31 167.086 86.0553Z" fill="#42295C"/>
<path d="M204.06 77.3867C203.981 77.3867 203.896 77.332 203.896 77.24C203.904 73.4494 202.845 69.6 200.658 66.4707C198.764 63.756 196.136 62.4241 193.669 60.4081C193.272 60.0841 193.654 59.5507 194.069 59.5507C194.1 59.5507 194.132 59.5534 194.162 59.5601C201.754 61.0921 205.112 70.5427 204.186 77.2801C204.177 77.3547 204.12 77.3867 204.06 77.3867Z" fill="#DDDEF2"/>
</g>
</svg>
