<svg width="263" height="263" viewBox="0 0 263 263" fill="none" xmlns="http://www.w3.org/2000/svg">
<circle cx="131.5" cy="131.5" r="131.5" fill="#F8D49B"/>
<mask id="mask0_346_12556" style="mask-type:alpha" maskUnits="userSpaceOnUse" x="0" y="0" width="263" height="263">
<circle cx="131.5" cy="131.5" r="131.5" fill="#D9D9D9"/>
</mask>
<g mask="url(#mask0_346_12556)">
<path d="M133.795 259.542C114.037 261.034 65.0946 259.704 35.32 222.403C22.2089 205.98 14.987 172.615 27.6763 156.31C40.3661 140.004 47.6522 141.251 45.9812 108.331C44.0771 70.8244 81.6438 27.9979 145.033 32.3003C159.591 33.2886 197.554 40.5559 223.346 95.7077C249.137 150.861 219.582 191.582 237.674 200.319C255.768 209.057 217.653 253.212 133.795 259.542Z" fill="#F5C373"/>
<path d="M23.253 83.9909C8.57555 104.946 28.8813 142.843 39.073 128.309C49.2646 113.776 35.0348 67.1675 23.253 83.9909Z" fill="#F5C373"/>
<path d="M26.3275 149.538C12.5847 155.667 5.16611 134.91 20.6503 134.023C36.134 133.134 48.5212 139.639 26.3275 149.538Z" fill="#F5C373"/>
<path d="M238.564 197.276C230.687 193.16 235.881 165.982 246.952 171.693C258.023 177.405 247.813 202.108 238.564 197.276Z" fill="#F5C373"/>
<path d="M237.192 167.934C235.021 164.868 240.163 155.201 245.963 159.415C251.763 163.628 239.362 170.999 237.192 167.934Z" fill="#F5C373"/>
<path d="M83.6572 87.1767C95.8442 77.685 114.261 71.1582 131.156 71.1582C148.051 71.1582 166.47 77.685 178.655 87.1767C211.048 112.41 214.907 151.649 212.802 187.141C211.13 215.306 204.866 234.897 199.941 248.267C199.941 248.267 167.047 263.807 131.156 263.104C95.2665 263.807 62.3723 248.267 62.3723 248.267C57.4466 234.897 51.1824 215.306 49.512 187.141C47.4057 151.649 51.2653 112.41 83.6572 87.1767Z" fill="#CFB8E5"/>
<mask id="mask1_346_12556" style="mask-type:luminance" maskUnits="userSpaceOnUse" x="54" y="81" width="47" height="103">
<path d="M54.7384 183.939C54.6667 183.939 54.5918 183.893 54.5848 183.801C51.5258 144.702 64.7878 102.946 99.8184 81.8698C99.9183 81.8095 100.021 81.7835 100.121 81.7835C100.645 81.7835 101.096 82.5008 100.605 82.8896C85.0606 95.2518 71.8941 107.213 64.4482 126.172C57.2675 144.457 54.2838 164.21 54.8736 183.801C54.8762 183.894 54.8089 183.939 54.7384 183.939Z" fill="white"/>
</mask>
<g mask="url(#mask1_346_12556)">
<path d="M51.5254 183.939H101.095V81.7834H51.5254V183.939Z" fill="#E2D4EF"/>
</g>
<path d="M123.486 89.6984C110.464 86.2433 113.917 77.0213 127.314 80.6091C140.71 84.1969 135.207 92.8084 123.486 89.6984Z" fill="#B694DD"/>
<path d="M139.514 98.5509C130.435 95.2999 133.055 90.8949 139.514 93.0481C145.973 95.2013 144.665 100.393 139.514 98.5509Z" fill="#B694DD"/>
<path d="M146.451 92.4786C137.253 87.7094 134.646 78.2163 152.391 83.9573C170.134 89.6984 161.044 100.04 146.451 92.4786Z" fill="#B694DD"/>
<path d="M135.136 79.7939C128.948 79.3175 128.75 73.1919 137.123 74.3882C145.495 75.5846 143.195 80.414 135.136 79.7939Z" fill="#B694DD"/>
<path d="M175.022 230.937C168.269 230.612 168.688 238.26 175.022 236.676C181.356 235.094 179.501 231.152 175.022 230.937ZM182.689 225.197C176.758 228.588 181.949 231.698 187.491 228.053C193.032 224.406 187.19 222.625 182.689 225.197ZM171.718 227.905C158.321 229.624 158.049 215.635 169.622 216.828C178.669 217.76 185.116 226.187 171.718 227.905Z" fill="#B694DD"/>
<path d="M68.7568 217.053C73.2222 219.373 74.4093 216.111 70.9619 214.039C67.5151 211.966 66.0351 215.639 68.7568 217.053Z" fill="#B694DD"/>
<path d="M65.8481 207.631C62.3729 205.748 61.0441 207.9 64.8016 210.647C67.1019 212.328 69.3232 209.516 65.8481 207.631Z" fill="#B694DD"/>
<path d="M75.7282 221.009C68.7571 217.052 65.9751 222.875 72.5252 226.473C81.4456 231.372 82.6995 224.965 75.7282 221.009Z" fill="#B694DD"/>
<path d="M57.6759 230.218C68.4449 238.122 75.1679 229.019 63.6058 221.575C59.4468 218.897 56.4518 217.969 54.46 218.105C55.4551 222.567 56.5561 226.595 57.6759 230.218Z" fill="#B694DD"/>
<path d="M61.5978 212.718C56.5106 209.892 53.9322 213.291 61.5978 217.24C67.815 220.442 66.684 215.544 61.5978 212.718Z" fill="#B694DD"/>
<path d="M128.776 263.127C129.566 263.127 130.362 263.119 131.155 263.104C130.361 263.119 129.568 263.127 128.776 263.127ZM133.544 263.127C164.884 263.124 193.41 251.177 198.966 248.709C193.408 251.177 164.887 263.127 133.544 263.127Z" fill="#E7DBF2"/>
<path d="M128.776 263.127C128.774 263.127 128.77 263.127 128.768 263.127C97.4273 263.124 68.9027 251.177 63.3464 248.709C63.4438 248.514 63.4636 248.272 63.362 247.994C61.2194 242.141 59.3362 236.22 57.7116 230.244C60.6409 232.386 63.2701 233.268 65.3099 233.268C67.074 233.269 68.398 232.608 69.0962 231.533C76.439 238.664 85.7235 243.819 96.1488 246.145C105.957 248.332 117.171 249.969 128.77 249.969C129.563 249.969 130.36 249.963 131.155 249.946C131.953 249.963 132.747 249.969 133.541 249.969C145.141 249.969 156.356 248.332 166.162 246.145C188.275 241.213 205.248 223.557 209.464 201.297C210.549 195.569 211.472 189.33 212.133 182.542C211.167 204.865 206.632 227.008 198.949 247.994C198.848 248.272 198.867 248.514 198.966 248.709C193.41 251.177 164.884 263.124 133.544 263.127C133.542 263.127 133.537 263.127 133.535 263.127C132.745 263.127 131.949 263.119 131.155 263.104C130.362 263.119 129.566 263.127 128.776 263.127ZM59.566 219.334C57.6325 218.462 56.069 218.093 54.844 218.093C54.8232 218.093 54.8022 218.093 54.7814 218.093C52.4485 207.032 50.9812 195.81 50.377 184.487C51.0187 190.526 51.8667 196.121 52.8474 201.297C54.0724 207.764 56.3744 213.844 59.566 219.334Z" fill="#BB9ED9"/>
<path d="M65.3088 233.268C63.2689 233.268 60.6397 232.386 57.7105 230.244C56.6165 226.218 55.6395 222.166 54.7803 218.092C54.8011 218.092 54.822 218.092 54.8428 218.092C56.0678 218.092 57.6314 218.462 59.5649 219.334C62.1791 223.832 65.3896 227.933 69.0951 231.533C68.3968 232.608 67.0729 233.269 65.3088 233.268Z" fill="#A57FD1"/>
<path d="M149.951 212.098C138.373 212.098 131.155 200.798 131.155 200.798C131.155 200.798 123.94 212.098 112.36 212.098C109.154 212.098 105.612 211.23 101.798 209.016C96.7744 206.102 94.8936 200.375 95.8682 194.094C96.517 197.816 98.4485 200.969 101.742 202.903C101.752 202.908 101.758 202.913 101.768 202.918C101.769 202.918 101.769 202.919 101.771 202.919C101.78 202.925 101.789 202.93 101.798 202.934C105.612 205.149 109.154 206.016 112.362 206.016C123.94 206.016 131.155 194.717 131.155 194.717C131.155 194.717 138.373 206.016 149.949 206.016C153.157 206.016 156.698 205.149 160.513 202.934C160.521 202.93 160.529 202.926 160.538 202.921C160.542 202.918 160.546 202.917 160.55 202.914C160.553 202.911 160.557 202.91 160.561 202.907C160.566 202.904 160.571 202.902 160.576 202.899C160.579 202.897 160.58 202.896 160.583 202.895C160.602 202.884 160.621 202.871 160.64 202.86L160.642 202.859C160.74 202.8 160.839 202.74 160.935 202.68C160.936 202.678 160.937 202.678 160.937 202.677C160.955 202.666 160.973 202.655 160.989 202.644C160.994 202.642 160.998 202.639 161.002 202.637C161.004 202.635 161.009 202.632 161.011 202.631C161.017 202.626 161.022 202.624 161.029 202.62C161.03 202.618 161.033 202.617 161.035 202.615C164.046 200.663 165.826 197.638 166.443 194.094C167.418 200.375 165.535 206.102 160.513 209.016C156.698 211.231 153.157 212.098 149.951 212.098Z" fill="#BB9ED9"/>
<path d="M200.93 248.54C211.048 220.894 215.563 191.473 214.046 162.04C212.561 133.191 202.938 104.668 179.38 86.451C154.357 67.1006 119.31 65.3663 91.8898 80.5566C66.2271 94.7737 52.8287 122.218 49.282 150.414C45.1439 183.316 50.0284 217.526 61.3815 248.54C61.8323 249.771 63.8172 249.24 63.3616 247.994C53.9485 222.278 49.5386 195.268 50.1081 167.87C50.6904 139.861 58.0085 111.515 79.418 92.0757C104.943 68.9021 144.092 66.1288 173.066 84.5086C198.355 100.549 209.574 129.403 211.748 158.155C214.05 188.606 209.425 219.375 198.949 247.994C198.495 249.237 200.478 249.772 200.93 248.54Z" fill="#42295C"/>
<path d="M112.801 62.6944C117.598 67.4293 121.774 72.6584 125.384 78.3488C125.847 79.0797 127.001 78.4131 126.548 77.6698C122.975 71.8138 118.631 66.556 113.595 61.9004C113.067 61.4104 112.284 62.1838 112.801 62.6944Z" fill="#42295C"/>
<path d="M121.166 56.6202C123.37 63.1429 124.973 69.7887 126.91 76.3826C127.107 77.0574 128.061 76.7672 127.946 76.0965C126.798 69.3658 124.508 62.7336 122.095 56.3656C121.878 55.7962 120.965 56.0261 121.166 56.6202Z" fill="#42295C"/>
<path d="M128.269 54.6071C129.823 61.628 130.246 68.5463 130.21 75.7096C130.206 76.3762 131.146 76.3379 131.22 75.7096C132.063 68.5422 131.148 61.2707 129.15 54.3648C128.986 53.7981 128.142 54.0349 128.269 54.6071Z" fill="#42295C"/>
<path d="M135.513 59.4802C135.416 65.3007 134.493 70.7789 133.857 76.535C133.814 76.9155 134.433 77.0811 134.589 76.7335C136.945 71.5208 137.19 64.9516 136.237 59.3817C136.166 58.9615 135.518 59.0764 135.513 59.4802Z" fill="#42295C"/>
<path d="M76.0167 184.179C60.5838 180.64 65.5186 170.086 76.0167 172.597C90.5497 176.071 88.6456 187.075 76.0167 184.179Z" fill="#EADCF7"/>
<path d="M187.2 184.179C202.634 180.64 197.698 170.086 187.2 172.597C172.668 176.071 174.571 187.075 187.2 184.179Z" fill="#EADCF7"/>
<path d="M84.7988 135.821C87.5092 134.661 91.2161 133.842 95.5088 135.385C98.5806 136.488 100.282 134.028 98.0317 132.266C95.4404 130.239 88.9396 129.061 84.395 131.293C79.8503 133.524 80.1624 135.048 80.5252 135.914C80.8893 136.781 82.2513 136.914 84.7988 135.821Z" fill="#42295C"/>
<path d="M178.417 135.821C175.708 134.661 172.001 133.842 167.707 135.385C164.635 136.488 162.934 134.028 165.184 132.266C167.777 130.239 174.278 129.061 178.822 131.293C183.366 133.524 183.055 135.048 182.691 135.914C182.328 136.781 180.965 136.914 178.417 135.821Z" fill="#42295C"/>
<path d="M91.6946 137.569C75.6848 137.164 72.6445 156.417 78.1168 165.132C80.8518 169.489 84.2739 172.517 91.6946 172.517C98.877 172.517 102.537 169.489 105.274 165.132C110.745 156.417 107.705 137.164 91.6946 137.569Z" fill="white"/>
<path d="M108.037 149.301C104.736 138.242 91.6924 132.105 81.6531 139.505C73.8968 145.22 72.6032 157.64 77.2307 165.651C77.891 166.795 79.6669 165.761 79.003 164.614C75.2837 158.174 75.803 148.504 80.9426 142.914C89.0997 134.041 102.898 139.261 106.057 149.847C106.434 151.11 108.416 150.572 108.037 149.301Z" fill="#42295C"/>
<path d="M105.992 155.615C105.992 162.53 101.457 168.136 95.864 168.136C90.2694 168.136 85.7344 162.53 85.7344 155.615C85.7344 148.701 90.2694 143.095 95.864 143.095C101.457 143.095 105.992 148.701 105.992 155.615Z" fill="#42295C"/>
<path d="M72.4785 164.694C72.4785 164.694 87.472 164.509 99.3209 175.801C99.3209 175.801 77.8465 177.837 72.4785 164.694Z" fill="#CFB8E5"/>
<path d="M72.4795 165.721C82.0646 165.693 91.6329 170.195 98.595 176.526C99.571 177.413 101.027 175.967 100.047 175.074C92.6815 168.376 82.6162 163.639 72.4795 163.667C71.1582 163.67 71.1549 165.723 72.4795 165.721Z" fill="#42295C"/>
<path d="M171.237 137.569C187.247 137.164 190.287 156.417 184.814 165.132C182.079 169.489 178.657 172.517 171.237 172.517C164.054 172.517 160.394 169.489 157.657 165.132C152.186 156.417 155.225 137.164 171.237 137.569Z" fill="white"/>
<path d="M156.875 149.847C160.04 139.238 173.838 134.053 181.989 142.914C187.126 148.5 187.646 158.177 183.928 164.615C183.266 165.76 185.04 166.795 185.701 165.651C190.328 157.639 189.033 145.22 181.278 139.505C171.246 132.111 158.194 138.245 154.895 149.301C154.515 150.571 156.498 151.113 156.875 149.847Z" fill="#42295C"/>
<path d="M156.94 155.615C156.94 162.53 161.474 168.136 167.069 168.136C172.663 168.136 177.198 162.53 177.198 155.615C177.198 148.701 172.663 143.095 167.069 143.095C161.474 143.095 156.94 148.701 156.94 155.615Z" fill="#42295C"/>
<path d="M190.834 164.694C190.834 164.694 175.839 164.509 163.99 175.801C163.99 175.801 185.465 177.837 190.834 164.694Z" fill="#CFB8E5"/>
<path d="M190.834 163.667C180.697 163.638 170.629 168.377 163.265 175.074C162.285 175.965 163.741 177.414 164.717 176.526C171.682 170.192 181.247 165.693 190.834 165.72C192.155 165.723 192.156 163.67 190.834 163.667Z" fill="#42295C"/>
<path d="M131.155 161.702C99.2727 161.859 87.1158 194.414 101.798 202.933C119.387 213.141 131.155 194.716 131.155 194.716C131.155 194.716 142.926 213.141 160.513 202.933C175.196 194.414 163.037 161.859 131.155 161.702Z" fill="#EADCF7"/>
<mask id="mask2_346_12556" style="mask-type:luminance" maskUnits="userSpaceOnUse" x="101" y="202" width="60" height="1">
<path d="M101.77 202.919C101.769 202.919 101.769 202.917 101.768 202.917L101.77 202.919ZM160.56 202.906C160.565 202.903 160.571 202.901 160.576 202.898C160.57 202.901 160.566 202.903 160.56 202.906ZM160.582 202.894C160.602 202.882 160.621 202.871 160.64 202.86C160.621 202.871 160.602 202.883 160.582 202.894ZM160.641 202.858C160.741 202.799 160.837 202.741 160.934 202.679C160.838 202.739 160.74 202.799 160.641 202.858ZM160.937 202.676C160.955 202.665 160.971 202.654 160.989 202.643C160.973 202.654 160.955 202.665 160.937 202.676Z" fill="white"/>
</mask>
<g mask="url(#mask2_346_12556)">
<path d="M101.742 202.92H161.034V202.615H101.742V202.92Z" fill="#AF8CD3"/>
</g>
<path d="M149.948 206.015C138.371 206.015 131.153 194.716 131.153 194.716C131.153 194.716 123.938 206.015 112.36 206.015C109.153 206.015 105.61 205.148 101.797 202.933C101.787 202.929 101.779 202.924 101.769 202.918L101.766 202.917C101.757 202.911 101.749 202.906 101.74 202.902C97.0097 200.123 95.1083 194.831 95.7599 188.945C96.2609 193.041 98.2307 196.535 101.797 198.604C105.612 200.818 109.153 201.685 112.359 201.685C123.937 201.685 131.153 190.385 131.153 190.385C131.153 190.385 138.37 201.685 149.949 201.685C153.155 201.685 156.698 200.817 160.511 198.604C164.079 196.535 166.049 193.042 166.55 188.945C167.179 194.634 165.423 199.769 161.033 202.614C161.032 202.616 161.029 202.617 161.028 202.618C161.021 202.621 161.015 202.625 161.01 202.629C161.007 202.631 161.003 202.634 161 202.636C160.996 202.638 160.992 202.64 160.988 202.643C160.97 202.654 160.954 202.665 160.936 202.676C160.936 202.677 160.934 202.677 160.933 202.679C160.836 202.74 160.74 202.799 160.64 202.858C160.64 202.858 160.64 202.859 160.639 202.859C160.62 202.87 160.6 202.881 160.581 202.894C160.579 202.895 160.577 202.896 160.574 202.898C160.57 202.9 160.564 202.903 160.559 202.906C160.555 202.909 160.551 202.911 160.548 202.913C160.544 202.916 160.54 202.917 160.536 202.92C160.528 202.925 160.52 202.929 160.511 202.933C156.696 205.148 153.155 206.015 149.948 206.015Z" fill="#DBC4F1"/>
<path d="M75.1859 212.499C86.5368 203.039 98.8635 197.91 112.836 193.638C113.269 193.506 113.078 192.919 112.653 192.979C98.6185 194.949 85.2556 202.812 75.0041 212.317C74.8811 212.431 75.0608 212.603 75.1859 212.499Z" fill="#42295C"/>
<path d="M78.1947 199.152C88.1715 192.362 98.5284 190.432 110.405 190.621C110.861 190.628 110.991 189.875 110.516 189.801C98.9966 188.017 87.238 192.07 78.0541 198.912C77.9139 199.016 78.0438 199.254 78.1947 199.152Z" fill="#42295C"/>
<path d="M68.4005 192.23C79.8326 183.458 96.155 181.887 109.805 184.835C110.352 184.953 110.545 184.203 110.034 184.011C97.1625 179.16 78.5828 183.16 68.2192 191.995C68.0919 192.103 68.2652 192.333 68.4005 192.23Z" fill="#42295C"/>
<path d="M91.4059 177.338C99.3891 175.921 106.495 177.331 113.516 181.286C114.037 181.579 114.466 180.82 113.98 180.49C107.375 176.009 98.9456 174.84 91.3087 176.987C91.0801 177.052 91.1787 177.379 91.4059 177.338Z" fill="#42295C"/>
<path d="M187.307 212.317C177.056 202.812 163.693 194.949 149.659 192.979C149.233 192.919 149.042 193.505 149.477 193.638C163.45 197.91 175.781 203.044 187.126 212.499C187.251 212.603 187.43 212.431 187.307 212.317Z" fill="#42295C"/>
<path d="M184.256 198.912C175.075 192.073 163.31 188.017 151.795 189.801C151.325 189.873 151.445 190.628 151.906 190.621C163.774 190.432 174.12 192.35 184.117 199.152C184.267 199.254 184.397 199.016 184.256 198.912Z" fill="#42295C"/>
<path d="M194.091 191.995C183.724 183.158 165.16 179.156 152.277 184.012C151.767 184.203 151.958 184.954 152.505 184.836C166.155 181.887 182.479 183.459 193.91 192.23C194.043 192.332 194.22 192.105 194.091 191.995Z" fill="#42295C"/>
<path d="M171.001 176.987C163.364 174.84 154.936 176.009 148.33 180.49C147.844 180.82 148.272 181.579 148.794 181.286C155.816 177.331 162.929 175.922 170.905 177.338C171.131 177.379 171.23 177.052 171.001 176.987Z" fill="#42295C"/>
<path d="M132.18 194.877C132.18 186.199 132.18 177.521 132.18 168.846C132.18 167.523 130.127 167.522 130.127 168.846C130.127 177.521 130.127 186.199 130.127 194.877C130.127 196.198 132.18 196.201 132.18 194.877Z" fill="#42295C"/>
<path d="M130.429 193.989C122.537 203.717 112.101 208.983 100.664 200.891C99.5829 200.127 98.5562 201.905 99.628 202.664C111.751 211.241 123.423 205.866 131.881 195.442C132.707 194.425 131.263 192.963 130.429 193.989Z" fill="#42295C"/>
<path d="M130.43 195.442C138.888 205.866 150.56 211.241 162.683 202.664C163.754 201.907 162.73 200.126 161.647 200.891C150.211 208.983 139.775 203.718 131.882 193.989C131.05 192.964 129.604 194.425 130.43 195.442Z" fill="#42295C"/>
<path d="M142.765 160.01C141.006 156.492 121.305 156.492 119.545 160.01C117.786 163.529 128.664 173.827 131.154 173.827C133.647 173.827 144.524 163.529 142.765 160.01Z" fill="#42295C"/>
<path d="M139.672 161.627C139.655 161.627 139.635 161.626 139.618 161.624C137.115 161.383 134.727 160.651 132.193 160.536C131.74 160.515 131.288 160.504 130.838 160.504C128.43 160.504 126.063 160.797 123.704 161.361C123.666 161.37 123.631 161.374 123.596 161.374C123.193 161.374 123.073 160.774 123.499 160.618C126.268 159.613 129.54 158.877 132.735 158.877C135.276 158.877 137.768 159.342 139.919 160.507C140.403 160.77 140.229 161.627 139.672 161.627Z" fill="#8971A1"/>
</g>
</svg>
