<svg width="263" height="263" viewBox="0 0 263 263" fill="none" xmlns="http://www.w3.org/2000/svg">
<circle cx="131.5" cy="131.5" r="131.5" fill="#FFD1D9"/>
<mask id="mask0_346_12578" style="mask-type:alpha" maskUnits="userSpaceOnUse" x="0" y="0" width="263" height="263">
<circle cx="131.5" cy="131.5" r="131.5" fill="#D9D9D9"/>
</mask>
<g mask="url(#mask0_346_12578)">
<path d="M23.6148 190.069C47.2147 253.208 102.26 255.416 129.729 255.416C153.067 255.416 190.066 252.533 224.201 221.405C255.213 193.121 255.571 131.148 227.295 98.2469C209.37 77.3917 190.602 77.7449 176.661 78.0995C168.608 78.3028 162.166 78.5075 158.425 74.6239C148.207 64.0211 180.526 27.6834 109.14 37.512C28.9154 48.5573 -1.56952 122.696 23.6148 190.069Z" fill="#FFB6C3"/>
<path d="M163.421 70.6469C153.647 64.4582 181.578 43.2542 194.053 57.3931C206.529 71.5321 175.983 78.6001 163.421 70.6469Z" fill="#FFB6C3"/>
<path d="M163.421 52.6238C156.731 48.4504 165.439 28.8724 172.95 35.8424C180.462 42.8138 170.113 56.8 163.421 52.6238Z" fill="#FFB6C3"/>
<path d="M180.614 96.476C167.349 87.0611 149.519 82.4307 131.727 82.4307C113.934 82.4307 96.1062 87.0611 82.8408 96.476C64.7058 109.348 41.2933 139.714 45.1524 182.877C49.2608 228.819 67.7706 247.841 79.6463 256.165C79.6463 256.165 100.303 263.416 131.727 263.416C163.152 263.416 183.81 256.165 183.81 256.165C195.684 247.841 214.194 228.819 218.301 182.877C222.16 139.714 198.748 109.348 180.614 96.476Z" fill="#BBBDE5"/>
<path d="M73.1821 168.322C56.9298 164.594 62.1267 153.48 73.1821 156.124C88.4873 159.782 86.482 171.373 73.1821 168.322Z" fill="#FFB6C3"/>
<path d="M190.271 168.322C206.523 164.594 201.326 153.48 190.271 156.124C174.967 159.782 176.971 171.373 190.271 168.322Z" fill="#FFB6C3"/>
<path d="M82.4323 134.821C85.2866 133.599 89.1904 132.737 93.7126 134.361C96.946 135.523 98.7379 132.933 96.3679 131.077C93.639 128.942 86.793 127.701 82.007 130.051C77.221 132.401 77.5497 134.007 77.9317 134.918C78.3151 135.83 79.7495 135.97 82.4323 134.821Z" fill="#42295C"/>
<path d="M181.024 134.821C178.17 133.599 174.266 132.737 169.745 134.361C166.51 135.523 164.717 132.933 167.088 131.077C169.817 128.942 176.663 127.701 181.449 130.051C186.234 132.401 185.907 134.007 185.523 134.918C185.141 135.83 183.705 135.97 181.024 134.821Z" fill="#42295C"/>
<path d="M157.586 151.293C159.272 148.398 161.354 145.908 163.93 143.748C166.487 141.62 169.639 139.933 173.165 139.364C176.682 138.776 180.389 139.427 183.56 140.84C186.769 142.231 189.583 144.231 192.077 146.453L192.096 146.471C193.286 147.53 193.392 149.355 192.332 150.546C191.27 151.737 189.446 151.842 188.255 150.781L188.059 150.591C186.077 148.453 183.87 146.58 181.439 145.244C179.022 143.889 176.349 143.167 173.641 143.347C170.933 143.521 168.229 144.598 165.821 146.247C163.426 147.883 161.216 150.08 159.523 152.449L159.477 152.514C159.115 153.021 158.41 153.138 157.904 152.776C157.429 152.436 157.299 151.79 157.586 151.293Z" fill="#42295C"/>
<path d="M104.634 152.449C102.941 150.08 100.731 147.883 98.3369 146.247C95.9294 144.598 93.2251 143.521 90.5163 143.347C87.8091 143.166 85.1335 143.889 82.7175 145.244C80.2884 146.58 78.0813 148.453 76.0977 150.591C75.0137 151.758 73.1858 151.826 72.0181 150.742C70.849 149.656 70.7812 147.83 71.8653 146.662L72.057 146.473L72.0801 146.453C74.574 144.23 77.3865 142.231 80.5983 140.84C83.7698 139.427 87.4732 138.775 90.9921 139.364C94.5196 139.933 97.6709 141.62 100.228 143.747C102.801 145.908 104.886 148.398 106.571 151.293C106.884 151.83 106.702 152.519 106.165 152.832C105.659 153.128 105.017 152.985 104.683 152.518L104.634 152.449Z" fill="#42295C"/>
<path d="M59.8556 178.889C53.3757 173.476 48.4556 166.891 46.9434 158.498C46.7618 157.483 45.1155 157.721 45.153 158.74C45.499 168.059 52.8625 173.982 59.8152 178.942L59.8556 178.889Z" fill="#42295C"/>
<path d="M55.7165 183.31C51.3471 180.967 47.8498 176.546 45.7566 172.112C45.2031 170.944 43.404 171.969 44.0051 173.135C46.6115 178.198 50.5311 181.158 55.6819 183.369L55.7165 183.31Z" fill="#42295C"/>
<path d="M52.7977 188.352C49.9016 186.943 47.8286 184.721 46.1708 181.998C45.5726 181.013 44.0243 181.913 44.6254 182.902C46.4072 185.831 49.348 187.819 52.6017 188.815C52.8712 188.899 53.0572 188.479 52.7977 188.352Z" fill="#42295C"/>
<path d="M203.64 178.942C210.595 173.982 217.955 168.06 218.303 158.74C218.34 157.733 216.695 157.473 216.511 158.498C215 166.885 210.07 173.483 203.599 178.889L203.64 178.942Z" fill="#42295C"/>
<path d="M207.774 183.369C212.925 181.158 216.846 178.197 219.449 173.135C220.049 171.971 218.251 170.943 217.698 172.112C215.604 176.545 212.107 180.969 207.739 183.31L207.774 183.369Z" fill="#42295C"/>
<path d="M210.852 188.815C214.106 187.819 217.046 185.831 218.83 182.902C219.429 181.913 217.881 181.013 217.283 181.998C215.626 184.721 213.552 186.943 210.659 188.353C210.399 188.478 210.581 188.899 210.852 188.815Z" fill="#42295C"/>
<path d="M200.603 189.711C171.725 168.592 168.825 178.326 155.812 161.515C144.79 147.28 131.727 148.037 131.727 148.037C131.727 148.037 118.664 147.28 107.644 161.515C94.63 178.326 91.7295 168.592 62.8505 189.711C55.2592 195.264 51.5788 203.001 50.29 211.427C57.7401 237.292 70.6105 249.832 79.6462 256.165C79.6462 256.165 100.303 263.416 131.727 263.416C163.152 263.416 183.81 256.165 183.81 256.165C192.843 249.832 205.713 237.292 213.165 211.427C211.876 203.001 208.196 195.264 200.603 189.711Z" fill="#E3E7FF"/>
<path d="M212.821 209.483C212.224 206.511 211.307 203.642 209.998 200.944C211.591 196.825 213.041 192.293 214.296 187.3C215.331 186.686 216.285 185.95 217.124 185.091C216.436 193.191 215.049 201.461 212.821 209.483ZM50.7376 208.97C49.2845 203.6 48.1903 198.141 47.3888 192.721C47.0227 190.244 46.7329 187.763 46.521 185.284C47.3124 186.061 48.2004 186.734 49.1576 187.3C50.4104 192.291 51.862 196.825 53.455 200.942C52.2224 203.485 51.3359 206.181 50.7376 208.97ZM48.6747 185.317C47.7881 184.384 47.0054 183.339 46.299 182.203C46.1837 180.276 46.1174 178.345 46.0986 176.424C46.4158 176.83 46.7459 177.22 47.0875 177.593C47.5647 180.279 48.0966 182.852 48.6747 185.317ZM46.3999 173.394C46.3048 173.213 46.2096 173.033 46.1188 172.852C46.1274 172.455 46.1375 172.057 46.1505 171.661C46.2312 172.243 46.3148 172.82 46.3999 173.394Z" fill="#A2A4D9"/>
<path d="M47.0899 177.594C46.7483 177.22 46.4182 176.831 46.101 176.425C46.0881 175.231 46.0953 174.043 46.1212 172.852C46.212 173.034 46.3072 173.214 46.4023 173.394C46.6171 174.823 46.8463 176.224 47.0899 177.594Z" fill="#392357"/>
<path d="M49.1575 187.302C48.2003 186.735 47.3123 186.062 46.5208 185.285C46.4329 184.257 46.3594 183.232 46.2988 182.204C47.0052 183.34 47.788 184.385 48.6745 185.318C48.8331 185.987 48.9931 186.649 49.1575 187.302Z" fill="#392357"/>
<path d="M214.777 185.317C215.357 182.852 215.887 180.281 216.364 177.593C216.8 177.119 217.215 176.62 217.609 176.091C217.564 178.006 217.482 179.939 217.361 181.885C217.333 181.92 217.306 181.957 217.281 181.997C216.542 183.213 215.719 184.328 214.777 185.317ZM217.052 173.393C217.231 172.199 217.4 170.984 217.558 169.748C217.593 170.586 217.616 171.419 217.629 172.257C217.446 172.636 217.254 173.015 217.052 173.393Z" fill="#A2A4D9"/>
<path d="M216.365 177.594C216.609 176.223 216.838 174.823 217.053 173.393C217.255 173.015 217.446 172.636 217.629 172.257C217.645 173.35 217.642 174.444 217.622 175.535C217.618 175.72 217.614 175.907 217.609 176.092C217.216 176.621 216.801 177.119 216.365 177.594Z" fill="#392357"/>
<path d="M214.296 187.302C214.459 186.649 214.62 185.987 214.777 185.318C215.719 184.329 216.542 183.213 217.281 181.998C217.306 181.958 217.333 181.92 217.361 181.886C217.293 182.951 217.215 184.019 217.124 185.092C216.285 185.951 215.331 186.688 214.296 187.302Z" fill="#392357"/>
<path d="M131.727 263.416C104.274 263.416 85.0391 257.882 80.6163 256.483C80.7403 256.055 80.6466 255.555 80.1911 255.231C64.6221 244.164 55.6396 227.077 50.7383 208.971C51.3365 206.181 52.2231 203.485 53.4557 200.942C53.5422 201.167 53.6301 201.391 53.7166 201.613C62.2636 223.267 81.9253 238.582 104.996 241.701C112.563 242.725 121.584 243.48 131.727 243.48C141.87 243.48 150.892 242.725 158.458 241.701C181.529 238.582 201.191 223.267 209.738 201.613C209.826 201.391 209.912 201.167 209.999 200.944C211.308 203.642 212.225 206.511 212.822 209.484C207.798 227.571 198.492 244.406 183.264 255.231C182.807 255.555 182.713 256.055 182.838 256.483C178.413 257.883 159.178 263.416 131.727 263.416Z" fill="#C4C9F2"/>
<path d="M184.354 257.098C205.797 241.858 215.146 215.895 218.513 190.708C222.979 157.291 213.136 123.014 187.271 100.383C159.799 76.3476 112.043 74.5514 82.2959 95.5436C57.3755 113.128 43.4181 144.267 43.6603 174.34C43.9025 204.385 53.4746 238.885 79.1 257.098C80.2359 257.906 81.3171 256.031 80.1912 255.231C60.0049 240.882 50.8913 216.414 47.3897 192.721C42.533 159.867 51.1623 126.35 76.0741 103.379C103.101 78.4595 151.572 76.3462 181.12 98.173C205.049 115.85 218.194 146.166 217.622 175.535C217.059 204.391 207.933 237.694 183.264 255.231C182.138 256.031 183.216 257.906 184.354 257.098Z" fill="#42295C"/>
<path d="M94.0825 206.216C94.0652 206.216 94.0494 206.216 94.0335 206.215C91.5482 206.102 88.3407 198.125 87.7598 190.773C88.3119 190.954 88.8741 191.182 89.4392 191.467C90.3935 198.149 93.2291 204.671 95.4751 204.773C95.4909 204.774 95.5068 204.774 95.5241 204.774C95.8181 204.774 96.1324 204.653 96.4568 204.436C95.6264 205.498 94.7989 206.216 94.0825 206.216Z" fill="#C4C9F2"/>
<path d="M162.777 206.216C162.059 206.216 161.232 205.498 160.401 204.436C160.726 204.653 161.04 204.774 161.334 204.774C161.351 204.774 161.367 204.774 161.383 204.773C163.612 204.672 166.42 198.25 167.397 191.625C167.998 191.3 168.565 191.029 169.097 190.803C168.51 198.146 165.307 206.102 162.825 206.215C162.809 206.216 162.793 206.216 162.777 206.216Z" fill="#C4C9F2"/>
<path d="M102.636 194.224C102.636 194.224 98.2201 204.898 95.4754 204.772C92.7306 204.647 89.1065 194.935 89.1094 187.063L102.636 194.224Z" fill="white"/>
<path d="M154.226 194.224C154.226 194.224 158.64 204.898 161.384 204.772C164.129 204.647 167.755 194.935 167.752 187.063L154.226 194.224Z" fill="white"/>
<path d="M124.319 202.428C115.57 202.428 107.21 200.356 100.947 197.895C101.934 195.918 102.616 194.273 102.636 194.227C108.901 196.66 117.412 198.799 128.432 199.044C139.45 198.799 147.961 196.659 154.226 194.225C154.237 194.254 154.639 195.223 155.271 196.563C147.7 199.08 138.054 201.492 128.586 202.258C127.157 202.373 125.734 202.428 124.319 202.428ZM87.7605 190.773C86.257 190.28 84.8399 190.134 83.6953 190.134C82.075 190.134 81.001 190.424 81.001 190.424C81.001 190.424 84.3253 186.862 87.7591 186.862C88.637 186.862 89.5221 187.095 90.3597 187.679C90.4505 187.742 90.5457 187.809 90.6437 187.876L89.1098 187.063C89.1098 187.802 89.1416 188.555 89.2007 189.317L87.6683 188.505C87.6683 189.249 87.7 190.007 87.7605 190.773Z" fill="#C4C9F2"/>
<path d="M89.4387 191.467C88.8736 191.181 88.3114 190.954 87.7593 190.772C87.6987 190.006 87.667 189.248 87.667 188.504L89.1994 189.316C89.2556 190.03 89.3363 190.75 89.4387 191.467Z" fill="#AAAFE5"/>
<path d="M100.946 197.895C96.7685 196.254 93.522 194.439 91.7129 192.951C90.9661 192.337 90.2007 191.85 89.4395 191.467C89.3371 190.75 89.2564 190.029 89.2002 189.316C89.1411 188.555 89.1094 187.801 89.1094 187.063L90.6432 187.876C92.7695 189.346 96.6935 191.918 102.636 194.226C102.615 194.272 101.934 195.917 100.946 197.895Z" fill="#DDDEF2"/>
<path d="M169.097 190.803C169.159 190.027 169.192 189.257 169.192 188.505L167.66 189.316C167.719 188.555 167.751 187.801 167.751 187.063L166.211 187.879C166.312 187.81 166.407 187.742 166.499 187.679C167.337 187.095 168.222 186.861 169.1 186.861C172.534 186.861 175.858 190.424 175.858 190.424C175.858 190.424 175.094 189.792 173.381 189.792C172.326 189.792 170.913 190.031 169.097 190.803Z" fill="#C4C9F2"/>
<path d="M167.397 191.624C167.51 190.854 167.599 190.083 167.66 189.316L169.192 188.504C169.192 189.257 169.159 190.027 169.097 190.802C168.565 191.029 167.999 191.3 167.397 191.624Z" fill="#AAAFE5"/>
<path d="M155.271 196.563C154.639 195.223 154.237 194.254 154.226 194.225C160.165 191.92 164.086 189.35 166.212 187.879L167.752 187.064C167.752 187.802 167.72 188.556 167.661 189.317C167.6 190.084 167.511 190.855 167.399 191.625C164.916 192.962 160.609 194.789 155.271 196.563Z" fill="#DDDEF2"/>
<path d="M130.161 213.076C124.559 213.076 118.35 210.846 112.323 204.15C112.323 204.15 119.012 207.816 130.215 207.816C135.815 207.816 142.544 206.9 150.131 204.15C150.131 204.15 141.364 213.076 130.161 213.076Z" fill="#C4C9F2"/>
<path d="M137.047 157.679C137.95 161.675 142.582 163.216 146.152 163.355C147.542 163.41 147.541 161.248 146.152 161.193C143.524 161.092 139.805 160.086 139.132 157.105C138.826 155.748 136.74 156.322 137.047 157.679Z" fill="#42295C"/>
<path d="M81.7653 191.19C87.8487 185.043 94.2421 191.834 100.265 194.416C109.036 198.176 118.89 200.126 128.432 200.126C137.968 200.126 147.831 198.173 156.599 194.416C162.619 191.834 169.014 185.043 175.096 191.19C176.076 192.179 177.605 190.651 176.624 189.659C171.619 184.6 167.888 185.758 162.522 188.983C152.44 195.042 140.139 197.964 128.432 197.964C116.898 197.964 104.79 195.124 94.8 189.254C89.237 185.983 85.5149 184.328 80.2373 189.659C79.257 190.651 80.7865 192.179 81.7653 191.19Z" fill="#42295C"/>
<path d="M111.776 205.082C123.996 210.832 138.54 210.848 150.675 205.082C151.932 204.486 150.837 202.62 149.584 203.216C138.223 208.614 124.318 208.601 112.867 203.216C111.616 202.626 110.516 204.49 111.776 205.082Z" fill="#42295C"/>
<path d="M124.324 157.105C123.65 160.086 119.931 161.092 117.305 161.193C115.918 161.246 115.911 163.41 117.305 163.355C120.874 163.216 125.507 161.675 126.408 157.679C126.715 156.325 124.631 155.747 124.324 157.105Z" fill="#42295C"/>
<path d="M51.9777 158.853C51.8754 158.853 51.7701 158.786 51.7845 158.671C55.3654 129.894 73.7123 103.704 100.322 91.6435C100.472 91.5758 100.621 91.5455 100.761 91.5455C101.682 91.5455 102.303 92.8472 101.313 93.3359C75.399 106.098 56.8156 130.01 52.1493 158.72C52.1348 158.811 52.057 158.853 51.9777 158.853Z" fill="#D6D7EF"/>
<path d="M211.583 158.853C211.502 158.853 211.423 158.811 211.408 158.72C206.372 127.285 182.998 98.194 152.026 89.5432C150.898 89.2289 151.255 87.6215 152.285 87.6215C152.369 87.6215 152.455 87.6316 152.546 87.6533C184.336 95.406 207.776 127.085 211.773 158.671C211.788 158.786 211.684 158.853 211.583 158.853Z" fill="#D6D7EF"/>
<path d="M108.149 92.3955C108.149 92.3955 107.95 70.276 114.952 51.8369C125.113 25.0741 134.386 20.5403 138.089 45.5386C142.121 72.7468 143.168 78.7914 148.711 90.8847L108.149 92.3955Z" fill="#BBBDE5"/>
<path d="M109.231 92.395C109.189 83.0825 110.321 73.6214 112.348 64.5511C113.513 59.3354 124.601 22.9948 133.095 32.2468C136.928 36.4231 137.063 45.972 137.842 51.1617C138.741 57.1615 139.622 63.1729 140.754 69.1367C142.23 76.9111 144.512 84.2242 147.776 91.4292C148.351 92.6949 150.215 91.5978 149.644 90.3379C144.721 79.4757 142.632 68.204 140.819 56.4725C139.981 51.0507 139.693 27.3902 129.743 28.0115C126.477 28.2148 124.01 31.6774 122.333 34.082C117.827 40.546 114.712 48.5626 112.364 56.0314C108.726 67.6072 107.014 80.2527 107.069 92.395C107.076 93.7862 109.238 93.789 109.231 92.395Z" fill="#42295C"/>
<path d="M112.674 90.7432C112.54 90.7432 112.406 90.6538 112.397 90.4736C111.406 71.0253 117.431 51.1215 127.761 34.7482C127.96 34.431 128.251 34.2998 128.541 34.2998C129.203 34.2998 129.857 34.9817 129.407 35.7111C118.911 52.7779 114.112 70.5856 112.953 90.4736C112.943 90.6538 112.808 90.7432 112.674 90.7432Z" fill="#D6D7EF"/>
</g>
</svg>
