<svg width="263" height="263" viewBox="0 0 263 263" fill="none" xmlns="http://www.w3.org/2000/svg">
<circle cx="131.5" cy="131.5" r="131.5" fill="#99E6A3"/>
<mask id="mask0_346_12574" style="mask-type:alpha" maskUnits="userSpaceOnUse" x="0" y="0" width="263" height="263">
<circle cx="131.5" cy="131.5" r="131.5" fill="#D9D9D9"/>
</mask>
<g mask="url(#mask0_346_12574)">
<path d="M97.4093 37.0744C64.1178 45.4303 36.3147 70.3092 24.3204 90.9815C12.3257 111.651 45.532 107.003 41.9439 122.257C38.3558 137.511 14.5016 173.276 46.8073 219.316C79.1122 265.355 170.483 277.331 224.478 214.26C295.912 130.819 224.479 5.17691 97.4093 37.0744Z" fill="#C2F0C8"/>
<path d="M12.3243 119.819C8.31699 134.156 31.8343 134.81 37.0502 124.068C42.2654 113.324 16.8712 103.551 12.3243 119.819Z" fill="#C2F0C8"/>
<path d="M20.9908 136.673C12.6184 143.979 21.1085 154.02 29.4338 144.722C37.7596 135.423 29.3626 129.368 20.9908 136.673Z" fill="#C2F0C8"/>
<path d="M161.68 205.837H101.875C71.9721 208.588 58.1172 242.323 58.1172 242.323C81.5724 263.173 131.777 262.738 131.777 262.738C131.777 262.738 181.981 263.173 205.437 242.323C205.437 242.323 191.581 208.588 161.68 205.837Z" fill="#3F3C6B"/>
<path d="M80.35 219.162C77.7244 220.667 75.452 222.827 73.8805 225.423C73.53 226 74.3842 226.458 74.7662 225.94C76.4856 223.607 78.4226 221.574 80.7306 219.814C81.1043 219.528 80.784 218.914 80.35 219.162Z" fill="#232345"/>
<path d="M78.5031 224.166C76.2759 225.854 74.4415 228.11 73.5408 230.784C73.3436 231.371 74.2773 231.776 74.5538 231.21C75.716 228.82 77.115 226.74 79.1342 224.984C79.575 224.602 78.9782 223.805 78.5031 224.166Z" fill="#232345"/>
<path d="M83.4706 222.401C81.5528 224.257 79.7964 226.338 78.6931 228.786C78.4576 229.307 79.138 229.723 79.4692 229.238C80.9272 227.094 82.3604 224.97 84.1743 223.103C84.6205 222.643 83.932 221.954 83.4706 222.401Z" fill="#232345"/>
<path d="M98.7329 244.359C96.6767 246.436 94.3427 249.155 93.802 252.114C93.7335 252.49 94.1798 252.668 94.4029 252.366C95.2489 251.23 95.8622 249.931 96.637 248.745C97.4817 247.45 98.4618 246.271 99.5378 245.164C100.05 244.64 99.249 243.838 98.7329 244.359Z" fill="#232345"/>
<path d="M93.6767 246.915C92.2927 248.907 90.921 250.958 89.8902 253.158C89.626 253.722 90.394 254.193 90.7349 253.652C92.0381 251.59 93.2386 249.48 94.6322 247.474C95.0401 246.887 94.0805 246.334 93.6767 246.915Z" fill="#232345"/>
<path d="M165.537 227.945C167.492 229.886 168.782 232.104 169.936 234.579C170.237 235.228 171.324 234.769 171.094 234.092C170.184 231.412 168.383 229.063 166.275 227.207C165.776 226.768 165.057 227.469 165.537 227.945Z" fill="#232345"/>
<path d="M170.233 229.278C171.456 231.218 172.532 233.233 173.464 235.329C173.808 236.1 174.988 235.431 174.614 234.657C173.615 232.594 172.474 230.617 171.189 228.719C170.793 228.135 169.85 228.67 170.233 229.278Z" fill="#232345"/>
<path d="M171.013 225.103C172.551 226.579 173.816 228.234 174.928 230.048C175.359 230.751 176.457 230.116 176.037 229.402C174.913 227.488 173.46 225.785 171.819 224.298C171.277 223.808 170.48 224.593 171.013 225.103Z" fill="#232345"/>
<path d="M195.726 233.664C197.409 235.904 198.831 238.291 200.14 240.766C200.533 241.509 201.636 240.853 201.262 240.11C199.984 237.564 198.37 235.217 196.582 233.002C196.199 232.526 195.354 233.168 195.726 233.664Z" fill="#232345"/>
<path d="M195.722 238.453C197.034 240.263 197.96 242.254 199.129 244.146C199.504 244.755 200.594 244.366 200.331 243.639C199.549 241.479 198.043 239.534 196.591 237.782C196.194 237.303 195.352 237.942 195.722 238.453Z" fill="#232345"/>
<path d="M157.3 240.945C157.3 240.945 170.245 242.88 167.429 236.11C164.612 229.34 157.3 224.008 157.3 224.008C157.3 224.008 168.955 226.437 161.217 217.088C158.111 213.334 152.755 209.686 147.456 206.662H131.729H116.097C110.799 209.686 105.442 213.334 102.336 217.088C94.5978 226.437 106.254 224.008 106.254 224.008C106.254 224.008 98.9414 229.34 96.1255 236.11C93.3083 242.88 106.254 240.945 106.254 240.945C106.254 240.945 98.0133 248.784 95.1016 258.717C114.269 262.887 131.777 262.738 131.777 262.738C131.777 262.738 149.285 262.887 168.453 258.717C165.54 248.784 157.3 240.945 157.3 240.945Z" fill="#EAEBFF"/>
<path d="M150.247 238.421C151.501 240.039 152.707 241.74 153.774 243.491C154.675 244.967 155.352 246.581 156.46 247.917C156.828 248.36 157.451 247.872 157.354 247.397C156.607 243.794 153.336 240.356 150.685 237.979C150.38 237.707 150.008 238.11 150.247 238.421Z" fill="white"/>
<path d="M150.927 243.784C151.695 244.983 152.385 246.265 152.928 247.582C153.436 248.809 153.759 250.104 154.335 251.301C154.595 251.842 155.466 251.57 155.45 250.998C155.37 248.111 153.411 245.351 151.43 243.393C151.177 243.144 150.727 243.469 150.927 243.784Z" fill="white"/>
<path d="M145.907 240.54C147.419 242.74 148.619 245.087 150.034 247.336C150.437 247.975 151.518 247.575 151.285 246.809C150.494 244.19 148.556 241.809 146.445 240.125C146.168 239.904 145.667 240.191 145.907 240.54Z" fill="white"/>
<path d="M112.93 222.126C111.472 222.558 110.285 223.474 109.189 224.502C108.065 225.557 106.747 226.823 106.206 228.295C106.02 228.805 106.715 229.121 107.064 228.795C108.114 227.818 108.84 226.507 109.846 225.466C110.834 224.445 111.901 223.381 113.219 222.809C113.61 222.639 113.33 222.007 112.93 222.126Z" fill="white"/>
<path d="M111.618 225.36C110.327 226.341 109.207 227.416 108.222 228.707C107.359 229.838 106.282 231.188 106.184 232.653C106.159 233.023 106.652 233.19 106.895 232.948C107.832 232.017 108.301 230.626 109.034 229.533C109.903 228.23 110.936 227.013 112.033 225.898C112.294 225.631 111.937 225.118 111.618 225.36Z" fill="white"/>
<path d="M115.555 223.906C113.361 225.338 111.105 227.858 110.382 230.416C110.26 230.846 110.879 231.28 111.187 230.884C111.953 229.899 112.557 228.811 113.294 227.803C114.133 226.655 115.15 225.666 116.114 224.627C116.454 224.26 116.011 223.608 115.555 223.906Z" fill="white"/>
<path d="M120.747 245.401C119.838 247.877 118.897 250.94 119.308 253.601C119.37 253.995 119.924 253.917 120.03 253.601C120.459 252.316 120.513 250.947 120.737 249.616C120.962 248.277 121.251 246.945 121.531 245.617C121.639 245.101 120.926 244.912 120.747 245.401Z" fill="white"/>
<path d="M122.155 248.774C121.532 251.477 121.119 254.833 121.966 257.521C122.17 258.169 123.072 258.021 123.122 257.365C123.33 254.578 122.99 251.72 123.142 248.908C123.172 248.344 122.281 248.222 122.155 248.774Z" fill="white"/>
<path d="M124.961 245.655C124.537 248.177 124.282 251.556 125.474 253.899C125.722 254.388 126.363 254.096 126.411 253.647C126.557 252.257 126.142 250.769 125.956 249.394C125.786 248.143 125.621 246.898 125.415 245.655C125.377 245.429 124.999 245.43 124.961 245.655Z" fill="white"/>
<path d="M100.149 220.343C96.812 219.267 95.1008 218.429 95.1008 218.429C94.3287 219.667 93.2664 220.127 92.1138 220.127C88.7626 220.127 84.6422 216.245 84.6422 216.245C84.0426 217.225 83.2431 217.621 82.3424 217.621C81.3075 217.621 80.137 217.099 78.9775 216.332C82.0973 213.899 85.3061 212.035 88.6271 210.629C88.686 210.659 88.7421 210.686 88.7955 210.708C89.9071 211.178 90.9899 211.523 92.1124 211.523C92.6614 211.523 93.2213 211.439 93.7976 211.249C95.7921 210.591 94.0837 210.146 95.146 210.146C95.25 210.146 95.3801 210.15 95.5416 210.158C97.0433 210.239 99.0775 211.501 100.544 211.96C102.348 212.525 104.175 213.023 106.017 213.463C104.604 214.648 103.35 215.862 102.336 217.088C101.26 218.387 100.559 219.46 100.149 220.343ZM163.39 220.316C162.979 219.438 162.281 218.374 161.216 217.088C160.195 215.853 158.93 214.629 157.503 213.437C159.141 213.05 160.766 212.617 162.376 212.128C163.984 211.637 166.146 210.292 167.792 210.21C168.046 210.198 168.233 210.191 168.367 210.191C169.427 210.191 167.332 210.574 169.658 211.249C170.263 211.424 170.831 211.504 171.39 211.504C172.281 211.504 173.146 211.301 174.089 210.966C174.371 210.866 174.666 210.704 174.97 210.505C176.829 211.318 178.688 212.309 180.559 213.517C181.896 214.381 183.208 215.321 184.489 216.325C183.327 217.095 182.152 217.621 181.115 217.621C180.214 217.621 179.415 217.225 178.815 216.245C178.815 216.245 174.695 220.127 171.343 220.127C170.189 220.127 169.127 219.667 168.356 218.429C168.356 218.429 166.673 219.252 163.39 220.316Z" fill="#322F58"/>
<path d="M131.728 224.975C124.126 224.883 117.647 224.184 112.348 223.273C112.626 223.097 112.916 222.939 113.219 222.808C113.577 222.653 113.373 222.111 113.028 222.111C112.997 222.111 112.964 222.115 112.93 222.124C112.233 222.331 111.599 222.647 111.006 223.035C106.41 222.184 102.775 221.188 100.149 220.342C100.559 219.459 101.26 218.386 102.336 217.087C103.35 215.862 104.604 214.648 106.017 213.462C111.601 214.795 117.327 215.584 123.034 216.029C125.955 216.256 128.886 216.37 131.817 216.37C138.907 216.37 145.998 215.707 152.968 214.393C154.486 214.107 155.999 213.791 157.504 213.436C158.93 214.629 160.195 215.852 161.216 217.087C162.281 218.374 162.979 219.437 163.39 220.315C157.623 222.184 146.915 224.793 131.728 224.975Z" fill="#B8B8D2"/>
<path d="M112.349 223.273C111.892 223.195 111.447 223.116 111.008 223.036C111.601 222.648 112.234 222.332 112.931 222.125C112.965 222.116 112.998 222.111 113.03 222.111C113.375 222.111 113.579 222.654 113.22 222.808C112.917 222.94 112.627 223.097 112.349 223.273Z" fill="#C9C8D2"/>
<path d="M206.38 241.979C202.391 232.401 195.744 223.33 187.947 216.541C178.228 208.08 167.273 204.738 154.701 204.738C140.716 204.738 126.731 204.738 112.746 204.738C100.68 204.738 90.2657 205.704 79.9179 213.056C70.0192 220.09 61.7577 230.746 57.0803 241.979C56.5728 243.197 58.5589 243.729 59.0599 242.525C62.763 233.632 69.4812 224.508 76.9651 217.993C87.0144 209.245 97.9276 206.792 110.668 206.792C123.273 206.792 135.88 206.792 148.485 206.792C160.16 206.792 170.169 206.807 180.56 213.517C190.915 220.203 199.787 231.45 204.399 242.525C204.9 243.727 206.888 243.2 206.38 241.979Z" fill="#232345"/>
<path d="M178.151 78.9883C152.887 61.2046 110.568 61.2046 85.3046 78.9883C47.6439 105.5 43.9579 156.997 55.173 179.427C71.9849 213.05 131.728 214.023 131.728 214.023C131.728 214.023 191.472 213.05 208.284 179.427C219.498 156.997 215.813 105.5 178.151 78.9883Z" fill="#4B496B"/>
<path d="M213.849 155.215C206.183 145.685 193.741 144.64 171.866 159.582C155.413 170.821 131.727 166.483 131.727 166.483C131.727 166.483 108.041 170.821 91.5896 159.582C69.7141 144.64 57.2714 145.685 49.6054 155.215C41.9399 164.747 41.6693 175.422 47.714 171.609C47.714 171.609 44.1002 185.971 52.7421 183.174C52.7421 183.174 56.5549 198.806 62.7819 193.596C62.7819 193.596 69.5184 206.558 72.6943 200.713C72.6943 200.713 81.4637 211.849 84.6409 206.661C84.6409 206.661 92.0865 213.677 95.0996 208.845C95.0996 208.845 107.899 215.104 131.727 215.392C155.556 215.104 168.355 208.845 168.355 208.845C171.367 213.677 178.814 206.661 178.814 206.661C181.991 211.849 190.759 200.713 190.759 200.713C193.936 206.558 200.673 193.596 200.673 193.596C206.9 198.806 210.713 183.174 210.713 183.174C219.355 185.971 215.741 171.609 215.741 171.609C221.784 175.422 221.515 164.747 213.849 155.215Z" fill="#EAEBFF"/>
<path d="M57.992 153.03C53.0456 155.597 47.3806 160.208 47.5191 166.371C47.532 166.95 48.403 167.1 48.5484 166.511C49.2435 163.69 50.0533 161.28 51.9017 158.967C53.6686 156.757 55.9069 155.02 58.208 153.398C58.431 153.241 58.2389 152.901 57.992 153.03Z" fill="white"/>
<path d="M56.3185 159.124C51.9813 163.88 48.7124 171.483 50.7476 177.957C50.9059 178.46 51.6599 178.37 51.6722 177.832C51.8262 170.928 52.2946 165.321 56.8778 159.683C57.1928 159.297 56.6671 158.741 56.3185 159.124Z" fill="white"/>
<path d="M57.1646 166.468C54.4486 173.626 54.2321 183.378 59.0735 189.76C59.4084 190.201 60.2581 189.975 60.0505 189.347C57.4479 181.437 55.7406 175.063 58.0303 166.707C58.1865 166.139 57.3657 165.937 57.1646 166.468Z" fill="white"/>
<path d="M62.3479 178.52C62.547 184.852 65.2271 191.496 69.1466 196.461C69.4259 196.815 70.0829 196.432 69.9159 196.015C67.5296 190.058 63.8709 185.117 63.1608 178.52C63.1062 178.012 62.3308 177.986 62.3479 178.52Z" fill="white"/>
<path d="M69.8896 186.507C71.672 192.655 75.5734 200.133 81.182 203.613C81.5392 203.834 82.0444 203.376 81.7829 203.013C79.8062 200.269 77.3229 197.982 75.4434 195.137C73.5707 192.3 72.0758 189.267 70.7493 186.144C70.5399 185.649 69.7445 186.005 69.8896 186.507Z" fill="white"/>
<path d="M205.248 153.399C207.548 155.019 209.79 156.755 211.553 158.967C213.392 161.273 214.213 163.694 214.907 166.512C215.051 167.095 215.924 166.956 215.937 166.372C216.075 160.21 210.408 155.596 205.464 153.03C205.217 152.902 205.025 153.241 205.248 153.399Z" fill="white"/>
<path d="M206.579 159.682C208.738 162.339 210.379 165.396 211.217 168.729C211.993 171.811 211.715 174.711 211.785 177.831C211.797 178.366 212.549 178.464 212.709 177.956C214.745 171.481 211.474 163.878 207.139 159.123C206.79 158.74 206.264 159.295 206.579 159.682Z" fill="white"/>
<path d="M205.426 166.706C207.712 175.049 206.012 181.429 203.406 189.346C203.2 189.97 204.045 190.204 204.383 189.759C209.225 183.377 209.009 173.628 206.293 166.467C206.092 165.937 205.27 166.138 205.426 166.706Z" fill="white"/>
<path d="M200.299 178.52C199.589 185.117 195.929 190.058 193.543 196.015C193.376 196.432 194.033 196.815 194.313 196.461C198.233 191.494 200.912 184.855 201.111 178.52C201.129 177.987 200.354 178.012 200.299 178.52Z" fill="white"/>
<path d="M192.707 186.144C191.381 189.265 189.885 192.302 188.013 195.137C186.134 197.981 183.651 200.269 181.674 203.013C181.412 203.376 181.918 203.834 182.273 203.613C187.882 200.133 191.785 192.653 193.567 186.507C193.711 186.01 192.92 185.643 192.707 186.144Z" fill="white"/>
<path d="M132.033 214.367C131.93 214.367 131.829 214.367 131.726 214.366C119.971 214.344 106.433 213.13 95.6166 207.96C95.4496 207.88 95.2525 207.832 95.0594 207.832C94.8021 207.832 94.5502 207.916 94.3736 208.121C93.6193 208.996 92.7186 209.336 91.7726 209.336C89.3989 209.336 86.7391 207.187 85.366 205.936C85.1648 205.753 84.8732 205.639 84.5885 205.639C84.3352 205.639 84.0875 205.728 83.915 205.936C83.4372 206.507 82.8472 206.741 82.2011 206.741C79.8588 206.742 76.7651 203.676 75.5508 202.413C74.8061 201.638 74.0929 200.826 73.4207 199.986C73.2455 199.77 73.0142 199.68 72.7774 199.68C72.4036 199.68 72.0162 199.9 71.8082 200.196C71.429 200.732 70.9868 200.962 70.509 200.962C68.0058 200.962 64.5012 194.652 63.6681 193.079C63.5012 192.763 63.1215 192.567 62.7558 192.567C62.5803 192.567 62.4077 192.612 62.2638 192.711C61.5707 193.182 60.9194 193.39 60.3109 193.39C56.5657 193.39 54.3995 185.546 53.7321 182.902C53.6144 182.438 53.1743 182.156 52.7209 182.156C52.6364 182.156 52.5518 182.166 52.4685 182.186C51.991 182.3 51.5604 182.353 51.1728 182.353C46.5131 182.353 48.0452 174.612 48.7033 171.884C48.8761 171.171 48.3263 170.602 47.6927 170.602C47.5291 170.602 47.3596 170.641 47.1955 170.724C46.712 170.971 46.3173 171.082 45.9997 171.082C43.865 171.083 45.196 166.045 46.1184 163.255C46.0494 165.099 46.5511 166.355 47.5992 166.639C47.7024 166.797 47.889 166.886 48.0713 166.886C48.2338 166.886 48.3927 166.816 48.4851 166.664C48.9841 166.579 49.5595 166.342 50.2108 165.932C50.2108 165.932 48.5398 172.571 50.2627 175.791C50.3643 176.523 50.5236 177.246 50.7466 177.956C50.8177 178.182 51.0092 178.289 51.199 178.289C51.4327 178.289 51.6642 178.129 51.6712 177.832C51.6754 177.622 51.6808 177.413 51.6861 177.206C52.0936 177.398 52.5706 177.503 53.1277 177.503C53.6951 177.503 54.3459 177.394 55.0893 177.153C55.0893 177.153 55.1465 177.387 55.2582 177.787C55.3822 182.132 56.5303 186.41 59.0714 189.759C59.1902 189.915 59.3746 189.988 59.5532 189.988C59.8767 189.988 60.1821 189.751 60.0484 189.346C59.6997 188.288 59.3677 187.256 59.0586 186.244C60.0169 187.459 61.1328 188.296 62.3884 188.296C62.9745 188.296 63.5905 188.114 64.2359 187.703C65.4278 190.887 67.1208 193.898 69.1442 196.46C69.2209 196.559 69.3277 196.6 69.4372 196.6C69.7246 196.6 70.034 196.316 69.9136 196.014C69.4878 194.953 69.0224 193.925 68.5411 192.913C69.8027 194.42 71.2086 195.639 72.4584 195.639C72.8595 195.639 73.2455 195.513 73.6042 195.231C75.5796 198.637 78.1271 201.718 81.1812 203.613C81.2469 203.653 81.3167 203.67 81.3852 203.67C81.6959 203.67 81.9971 203.31 81.7822 203.013C80.0272 200.577 77.8725 198.501 76.097 196.074C78.0423 198.18 81.325 201.277 83.8068 201.277C84.6816 201.277 85.4578 200.891 86.0396 199.942C86.0396 199.942 90.0382 203.709 93.2894 203.709C94.4092 203.709 95.44 203.261 96.1874 202.062C96.1874 202.062 108.606 208.134 131.726 208.414C154.846 208.134 167.266 202.062 167.266 202.062C168.014 203.262 169.045 203.709 170.164 203.709C173.416 203.707 177.414 199.942 177.414 199.942C177.996 200.893 178.772 201.277 179.647 201.277C182.128 201.277 185.409 198.184 187.354 196.078C185.579 198.503 183.425 200.578 181.672 203.013C181.457 203.31 181.757 203.67 182.069 203.67C182.137 203.67 182.207 203.653 182.271 203.613C185.325 201.718 187.874 198.637 189.85 195.231C190.208 195.513 190.594 195.639 190.995 195.639C192.245 195.639 193.651 194.42 194.913 192.913C194.431 193.925 193.966 194.953 193.54 196.014C193.42 196.316 193.729 196.6 194.017 196.6C194.126 196.6 194.232 196.559 194.31 196.46C196.333 193.896 198.026 190.887 199.219 187.703C199.863 188.114 200.479 188.296 201.065 188.296C202.321 188.296 203.436 187.459 204.395 186.244C204.085 187.257 203.754 188.288 203.405 189.346C203.272 189.748 203.577 189.989 203.902 189.989C204.078 189.989 204.262 189.917 204.382 189.759C206.923 186.41 208.071 182.132 208.196 177.788C208.307 177.387 208.364 177.153 208.364 177.153C209.109 177.394 209.758 177.503 210.326 177.503C210.886 177.503 211.364 177.396 211.773 177.203C211.774 177.412 211.777 177.621 211.783 177.832C211.789 178.127 212.022 178.289 212.256 178.289C212.445 178.289 212.635 178.184 212.707 177.956C212.93 177.246 213.09 176.523 213.191 175.791C214.913 172.57 213.243 165.932 213.243 165.932C213.895 166.342 214.47 166.579 214.968 166.664C215.061 166.815 215.221 166.884 215.384 166.884C215.566 166.884 215.753 166.798 215.855 166.639C216.954 166.34 217.453 164.972 217.321 162.978C217.345 163.034 217.368 163.088 217.391 163.143C217.701 163.888 220.156 171.105 217.528 171.105C217.193 171.105 216.775 170.987 216.258 170.724C216.093 170.639 215.924 170.601 215.761 170.601C215.127 170.601 214.578 171.172 214.75 171.884C215.409 174.609 216.898 182.351 212.263 182.352C211.88 182.352 211.455 182.299 210.985 182.186C210.902 182.166 210.818 182.156 210.734 182.156C210.28 182.156 209.84 182.437 209.721 182.902C209.046 185.579 206.86 193.384 203.131 193.384C202.525 193.384 201.877 193.179 201.19 192.711C201.046 192.612 200.874 192.568 200.698 192.568C200.333 192.568 199.952 192.764 199.785 193.079C198.953 194.65 195.431 200.953 192.934 200.954C192.459 200.954 192.021 200.727 191.646 200.196C191.438 199.901 191.05 199.68 190.676 199.68C190.44 199.68 190.208 199.77 190.033 199.986C188.716 201.631 184.446 206.823 181.379 206.823C180.689 206.823 180.06 206.56 179.539 205.936C179.366 205.729 179.119 205.64 178.865 205.64C178.581 205.64 178.289 205.753 178.088 205.936C176.7 207.202 174.047 209.336 171.681 209.336C170.735 209.336 169.836 208.996 169.08 208.121C168.902 207.916 168.652 207.831 168.397 207.831C168.203 207.831 168.006 207.88 167.836 207.96C157.136 213.075 143.7 214.367 132.033 214.367Z" fill="#C9C9E1"/>
<path d="M48.0737 166.887C47.8914 166.887 47.7048 166.798 47.6016 166.64C47.7508 166.68 47.9111 166.701 48.0822 166.701C48.2111 166.701 48.3464 166.69 48.4875 166.665C48.3951 166.817 48.2362 166.887 48.0737 166.887Z" fill="#DBDBE1"/>
<path d="M51.2 178.289C51.0101 178.289 50.8186 178.182 50.7476 177.956C50.5246 177.246 50.3652 176.523 50.2637 175.791C50.5978 176.416 51.0604 176.912 51.6871 177.206C51.6817 177.413 51.6764 177.622 51.6722 177.832C51.6652 178.129 51.4337 178.289 51.2 178.289Z" fill="#DBDBE1"/>
<path d="M59.5567 189.988C59.3781 189.988 59.1937 189.916 59.0749 189.76C56.5339 186.41 55.3857 182.132 55.2617 177.787C55.7094 179.393 57.0312 183.668 59.0621 186.244C59.3712 187.256 59.7032 188.288 60.0519 189.346C60.1856 189.751 59.8802 189.988 59.5567 189.988Z" fill="#DBDBE1"/>
<path d="M69.4386 196.601C69.329 196.601 69.2223 196.56 69.1456 196.461C67.1222 193.898 65.4292 190.888 64.2373 187.704C64.4325 187.579 64.6309 187.433 64.8314 187.266C64.8314 187.266 66.4966 190.469 68.5425 192.914C69.0238 193.926 69.4892 194.954 69.9149 196.015C70.0354 196.317 69.726 196.601 69.4386 196.601Z" fill="#DBDBE1"/>
<path d="M81.3865 203.67C81.318 203.67 81.2482 203.652 81.1825 203.613C78.1284 201.718 75.5808 198.637 73.6055 195.231C73.9066 194.994 74.1914 194.646 74.4501 194.168C74.4501 194.168 75.0962 194.99 76.0983 196.074C77.8738 198.501 80.0285 200.577 81.7835 203.013C81.9984 203.31 81.6972 203.67 81.3865 203.67Z" fill="#DBDBE1"/>
<path d="M215.385 166.885C215.222 166.885 215.062 166.815 214.969 166.664C215.111 166.689 215.245 166.7 215.375 166.7C215.546 166.7 215.707 166.679 215.856 166.64C215.753 166.799 215.567 166.885 215.385 166.885Z" fill="#DBDBE1"/>
<path d="M212.258 178.289C212.024 178.289 211.791 178.128 211.784 177.832C211.779 177.621 211.776 177.412 211.774 177.203C212.399 176.909 212.859 176.414 213.193 175.791C213.091 176.523 212.931 177.246 212.708 177.956C212.637 178.184 212.447 178.289 212.258 178.289Z" fill="#DBDBE1"/>
<path d="M203.903 189.989C203.578 189.989 203.273 189.748 203.406 189.346C203.755 188.288 204.086 187.257 204.396 186.244C206.426 183.669 207.749 179.394 208.197 177.788C208.073 182.132 206.924 186.409 204.383 189.759C204.263 189.917 204.079 189.989 203.903 189.989Z" fill="#DBDBE1"/>
<path d="M194.02 196.601C193.732 196.601 193.423 196.317 193.543 196.015C193.969 194.954 194.435 193.926 194.916 192.914C196.962 190.469 198.626 187.266 198.626 187.266C198.827 187.433 199.026 187.579 199.222 187.704C198.029 190.888 196.336 193.897 194.313 196.461C194.235 196.56 194.129 196.601 194.02 196.601Z" fill="#DBDBE1"/>
<path d="M182.071 203.67C181.759 203.67 181.459 203.31 181.674 203.013C183.428 200.578 185.581 198.502 187.357 196.078C188.36 194.992 189.008 194.168 189.008 194.168C189.266 194.646 189.55 194.994 189.852 195.231C187.877 198.637 185.328 201.718 182.274 203.613C182.21 203.652 182.14 203.67 182.071 203.67Z" fill="#DBDBE1"/>
<path d="M212.964 155.734C214.729 158.092 216.256 160.419 217.393 163.143C217.742 163.984 220.82 173.053 216.259 170.724C215.461 170.316 214.536 170.987 214.752 171.884C215.464 174.834 217.152 183.665 210.986 182.186C210.456 182.059 209.862 182.351 209.723 182.902C208.938 186.012 206.113 196.055 201.191 192.711C200.746 192.407 200.033 192.613 199.787 193.079C198.796 194.95 193.998 203.521 191.647 200.196C191.306 199.713 190.484 199.428 190.035 199.986C188.421 202 182.38 209.338 179.54 205.936C179.174 205.496 178.469 205.589 178.089 205.936C176.145 207.709 171.725 211.183 169.082 208.121C168.768 207.758 168.23 207.773 167.837 207.96C157.043 213.12 143.466 214.389 131.728 214.365C119.973 214.344 106.434 213.13 95.6181 207.96C95.2293 207.774 94.6859 207.76 94.3751 208.121C91.7263 211.19 87.2868 207.686 85.3676 205.936C84.9856 205.588 84.2847 205.495 83.9165 205.936C81.7139 208.574 77.1033 204.025 75.5523 202.413C74.8076 201.638 74.0944 200.826 73.4223 199.986C72.9733 199.428 72.1492 199.713 71.8097 200.196C69.4428 203.545 64.6621 194.953 63.6696 193.079C63.4231 192.612 62.7103 192.407 62.2654 192.711C57.312 196.078 54.5096 185.976 53.7336 182.902C53.594 182.352 53.0015 182.058 52.47 182.186C46.2537 183.676 47.9915 174.838 48.7049 171.884C48.922 170.986 47.9948 170.318 47.197 170.724C42.3233 173.212 46.5312 161.945 46.7724 161.466C47.6252 159.771 50.1412 157.201 50.5963 155.489C50.7434 154.936 50.5097 154.32 50.5829 153.763C51.0872 149.951 50.7535 145.934 51.1835 142.079C52.9336 126.371 58.1976 110.812 67.4892 97.9396C82.3121 77.4043 107.665 64.6034 133.03 65.396C154.319 66.0613 175.45 76.138 190.323 91.2455C206.434 107.61 212.659 132.788 212.823 155.216C212.833 156.537 214.886 156.539 214.877 155.216C214.715 133.146 208.793 108.442 193.646 91.7603C178.924 75.548 156.974 64.7568 135.119 63.4385C108.906 61.8587 82.4162 74.6473 66.7004 95.5645C56.211 109.528 50.5294 126.716 48.9332 144.005C48.6745 146.805 48.5124 149.621 48.5183 152.433C48.5258 155.7 48.0535 155.268 46.0456 158.534C44.0216 161.829 39.023 177.198 48.2327 172.497C47.7301 172.11 47.2274 171.724 46.7247 171.338C46.0082 174.305 45.2884 178.19 46.3986 181.128C46.8557 182.34 47.4515 183.391 48.6173 184.033C49.7857 184.678 52.4722 184.366 51.8786 183.925C52.6486 184.496 53.3208 188.26 53.7282 189.162C54.5784 191.043 55.5988 193.197 57.296 194.471C58.4179 195.314 59.4777 195.78 60.8979 195.618C63.3471 195.339 61.2376 193.384 63.1322 196.263C64.6759 198.609 67.3111 203.46 70.7378 203.252C71.6427 203.198 74.0657 202.07 72.0684 201.563C73.4154 201.906 75.54 205.384 76.7515 206.359C78.063 207.413 79.6934 208.744 81.4346 208.948C82.5982 209.083 85.5236 207.584 84.0643 207.522C85.2266 207.572 87.5729 210.195 88.7954 210.708C90.4518 211.407 92.0425 211.829 93.7975 211.249C95.9864 210.526 93.7153 210.06 95.5415 210.158C97.0432 210.238 99.0774 211.5 100.544 211.959C107.819 214.238 115.444 215.438 123.034 216.029C133.024 216.808 143.117 216.249 152.968 214.393C156.139 213.795 159.288 213.067 162.375 212.128C163.984 211.636 166.145 210.292 167.792 210.21C170.033 210.097 167.035 210.488 169.658 211.249C171.225 211.703 172.556 211.512 174.089 210.965C175.679 210.4 177.694 207.877 179.183 207.704C177.81 207.863 180.787 209.079 182.022 208.948C186.404 208.482 187.837 202.923 191.245 201.736C190.024 202.16 191.061 203.113 192.582 203.235C193.961 203.345 195.108 202.485 196.115 201.654C198.015 200.091 199.211 197.851 200.575 195.854C201.697 194.214 201.208 194.708 201.673 195.202C201.907 195.451 202.385 195.702 203.438 195.676C207.54 195.577 209.682 189.614 210.773 186.504C210.952 185.991 211.234 184.065 211.625 183.75C211.249 184.052 212.131 184.815 213.053 184.552C214.693 184.082 215.682 183.765 216.621 182.201C218.404 179.232 217.498 174.508 216.731 171.338C216.229 171.724 215.727 172.11 215.224 172.497C217.645 173.733 219.708 173.763 220.759 170.975C222.693 165.841 217.456 158.331 214.737 154.697C213.954 153.652 212.17 154.675 212.964 155.734Z" fill="#232345"/>
<path d="M91.9563 132.02C75.9453 131.615 72.9049 150.87 78.3779 159.585C81.113 163.941 84.5354 166.969 91.9563 166.969C99.1391 166.969 102.8 163.941 105.536 159.585C111.008 150.87 107.967 131.615 91.9563 132.02Z" fill="white"/>
<path d="M108.299 143.751C104.998 132.69 91.9538 126.556 81.9141 133.955C74.1577 139.672 72.8641 152.091 77.491 160.102C78.1522 161.246 79.9277 160.213 79.2638 159.065C75.5444 152.625 76.0633 142.954 81.2036 137.364C89.361 128.49 103.16 133.711 106.318 144.299C106.696 145.562 108.678 145.023 108.299 143.751Z" fill="#232345"/>
<path d="M106.253 150.066C106.253 156.98 101.718 162.586 96.1242 162.586C90.5294 162.586 85.9941 156.98 85.9941 150.066C85.9941 143.15 90.5294 137.544 96.1242 137.544C101.718 137.544 106.253 143.15 106.253 150.066Z" fill="#232345"/>
<path d="M171.502 132.02C187.511 131.615 190.553 150.87 185.08 159.585C182.344 163.941 178.923 166.969 171.502 166.969C164.319 166.969 160.658 163.941 157.922 159.585C152.45 150.87 155.491 131.615 171.502 132.02Z" fill="white"/>
<path d="M157.139 144.298C160.305 133.689 174.104 128.502 182.255 137.363C187.392 142.95 187.912 152.627 184.194 159.065C183.532 160.211 185.306 161.247 185.966 160.101C190.594 152.089 189.299 139.67 181.544 133.955C171.51 126.56 158.458 132.694 155.159 143.751C154.78 145.021 156.761 145.563 157.139 144.298Z" fill="#232345"/>
<path d="M157.205 150.066C157.205 156.98 161.74 162.586 167.334 162.586C172.929 162.586 177.464 156.98 177.464 150.066C177.464 143.15 172.929 137.544 167.334 137.544C161.74 137.544 157.205 143.15 157.205 150.066Z" fill="#232345"/>
<path d="M76.1336 178.447C60.6991 174.909 65.6353 164.354 76.1336 166.865C90.6662 170.339 88.7634 181.344 76.1336 178.447Z" fill="#FFB6C3"/>
<path d="M187.325 178.447C202.76 174.909 197.823 164.354 187.325 166.865C172.791 170.339 174.695 181.344 187.325 178.447Z" fill="#FFB6C3"/>
<path d="M84.9177 130.089C87.6282 128.927 91.3339 128.11 95.6283 129.652C98.6988 130.756 100.402 128.294 98.1512 126.534C95.5584 124.505 89.0574 123.327 84.5139 125.559C79.9691 127.791 80.2798 129.314 80.644 130.181C81.0067 131.047 82.3702 131.18 84.9177 130.089Z" fill="#232345"/>
<path d="M178.54 130.089C175.831 128.927 172.124 128.11 167.829 129.652C164.758 130.756 163.056 128.294 165.306 126.534C167.899 124.505 174.4 123.327 178.944 125.559C183.489 127.791 183.176 129.314 182.814 130.181C182.451 131.047 181.087 131.18 178.54 130.089Z" fill="#232345"/>
<path d="M131.728 160.883C118.996 160.883 101.499 183.34 105.939 195.353C110.378 207.364 131.728 205.275 131.728 205.275C131.728 205.275 153.079 207.364 157.519 195.353C161.957 183.34 144.462 160.883 131.728 160.883Z" fill="#6D6A9C"/>
<path d="M130.701 172.147C130.701 177.573 130.701 183.002 130.701 188.43C130.701 189.751 132.755 189.754 132.755 188.43C132.755 183.002 132.755 177.573 132.755 172.147C132.755 170.824 130.701 170.823 130.701 172.147Z" fill="#232345"/>
<path d="M112.547 183.114C113.367 183.387 114.239 183.804 115.083 183.96C115.48 184.032 115.848 184.291 116.247 184.348C114.605 184.109 115.961 182.93 115.67 183.984C115.238 185.561 117.168 188.258 118.191 189.223C122.025 192.841 128.066 191.679 132.248 189.318C133.399 188.667 132.365 186.893 131.212 187.545C126.601 190.149 117.851 190.535 117.679 183.401C117.666 182.929 117.364 182.558 116.924 182.413C115.647 181.986 114.37 181.56 113.093 181.133C111.837 180.714 111.298 182.697 112.547 183.114Z" fill="#232345"/>
<path d="M150.365 181.132C149.088 181.559 147.81 181.985 146.532 182.412C146.093 182.558 145.791 182.931 145.78 183.4C145.607 190.532 136.853 190.146 132.246 187.544C131.094 186.892 130.059 188.667 131.21 189.317C135.377 191.671 141.451 192.855 145.266 189.222C146.285 188.253 148.218 185.565 147.786 183.983C147.686 183.617 148.192 183.09 147.521 183.908C146.771 184.827 147.685 184.07 148.073 184.06C148.943 184.038 150.073 183.392 150.91 183.113C152.157 182.697 151.624 180.712 150.365 181.132Z" fill="#232345"/>
<path d="M131.727 153.658C123.711 153.658 113.373 166.725 131.727 175.805C150.083 166.725 139.744 153.658 131.727 153.658Z" fill="#232345"/>
<path d="M123.942 163.814L123.753 163.788C124.105 159.578 127.133 156.069 131.482 156.069C131.511 156.069 131.539 156.069 131.568 156.069C135.476 156.113 140.878 158.671 139.865 163.367C139.826 163.548 139.665 163.636 139.505 163.636C139.342 163.636 139.179 163.545 139.137 163.367C138.246 159.482 135.497 157.283 131.576 157.283C131.429 157.283 131.278 157.286 131.126 157.293C127.375 157.449 125.13 160.578 123.942 163.814Z" fill="#3F3F7C"/>
<path d="M72.3664 99.1024C69.3287 101.801 65.5358 105.666 64.4348 109.695C64.3295 110.081 64.8487 110.424 65.1321 110.102C66.4379 108.619 67.3481 106.79 68.4935 105.18C69.8585 103.261 71.4136 101.478 73.0358 99.7718C73.4588 99.3283 72.8208 98.7 72.3664 99.1024Z" fill="#232345"/>
<path d="M70.9842 105.608C67.2025 109.229 63.8006 114.085 62.9877 119.358C62.9289 119.738 63.4834 120.074 63.6765 119.648C65.9048 114.747 67.9555 110.296 71.6536 106.278C72.0657 105.83 71.4264 105.187 70.9842 105.608Z" fill="#232345"/>
<path d="M76.2602 102.275C73.1637 105.961 70.252 110.287 69.135 115.033C69.0364 115.455 69.6305 115.737 69.8536 115.336C72.2178 111.11 74.2342 106.865 77.1665 102.974C77.5593 102.454 76.6805 101.772 76.2602 102.275Z" fill="#232345"/>
<path d="M203.119 118.813C205.32 124.554 206.304 130.46 208.073 136.301C208.214 136.764 208.921 136.681 208.924 136.186C208.961 130.1 206.503 123.89 203.851 118.503C203.652 118.101 202.954 118.386 203.119 118.813Z" fill="#232345"/>
<path d="M202.986 128.909C204.539 133.165 205.281 137.499 206.46 141.844C206.624 142.452 207.57 142.334 207.562 141.695C207.51 137.159 205.795 132.584 203.836 128.55C203.608 128.081 202.803 128.41 202.986 128.909Z" fill="#232345"/>
<path d="M198.572 124.55C199.738 128.097 200.695 132.242 202.697 135.422C202.987 135.883 203.612 135.568 203.533 135.071C202.938 131.37 200.917 127.619 199.452 124.18C199.239 123.678 198.404 124.035 198.572 124.55Z" fill="#232345"/>
<path d="M144.441 133.015C140.738 133.015 136.126 131.06 131.729 127.61C118.359 117.121 115.789 102.683 115.789 102.683C112.358 108.062 109.491 110.133 107.112 110.133C99.1241 110.133 96.6272 86.7736 96.6272 86.7736C94.5614 87.9741 93.0105 88.4833 91.8647 88.4833C87.7305 88.4833 88.8968 81.8303 90.2917 76.9953C97.4252 72.6489 105.231 69.4005 113.335 67.4552C119.327 66.2574 125.528 65.6578 131.731 65.6578C135.045 65.6578 138.362 65.8289 141.643 66.1712C146.622 66.909 151.542 68.1342 156.332 69.7933C158.931 77.6277 166.601 79.4251 168.454 85.2171C170.514 91.6647 159.454 92.4861 159.454 92.4861C165.514 103.551 160.206 105.897 154.608 105.897C150.484 105.897 146.203 104.622 146.203 104.622C155.775 124.864 152 133.015 144.441 133.015Z" fill="#3B3958"/>
<path d="M90.2891 76.9951C90.4287 76.5105 90.5711 76.0437 90.7107 75.6029C97.5198 71.7918 105.232 69.0759 113.332 67.455C105.228 69.4003 97.4226 72.6488 90.2891 76.9951ZM156.329 69.7932C151.539 68.134 146.619 66.9088 141.64 66.171C146.552 66.683 151.391 67.5783 156.051 68.8568C156.136 69.1785 156.229 69.4906 156.329 69.7932Z" fill="#1B1B39"/>
<path d="M174.923 78.3851C174.923 78.3851 174.255 67.3803 167.332 59.8854C160.411 52.3891 158.94 51.9113 157.203 57.9702C157.203 57.9702 153.392 49.3583 144.142 42.6601C134.892 35.9619 133.298 42.9791 135.211 52.8669C135.211 52.8669 127.396 42.3411 117.986 38.1946C108.576 34.0482 100.443 36.4397 109.852 49.9962C109.852 49.9962 102.197 46.4876 93.4248 52.7081C84.654 58.9285 91.9901 61.32 102.995 59.7252C102.995 59.7252 92.5815 64.9052 90.5308 77.0682C88.4816 89.2298 101.24 78.704 101.24 78.704C101.24 78.704 97.2537 90.0265 104.909 100.235C112.564 110.441 117.029 91.4625 117.029 91.4625C117.029 91.4625 119.581 108.21 128.991 118.736C138.401 129.26 150.112 129.545 145.487 116.626C140.862 103.708 141.591 95.29 141.591 95.29C141.591 95.29 145.589 101.375 152.606 101.056C159.625 100.738 157.699 96.407 152.595 90.188C152.595 90.188 165.429 89.3899 164.275 85.7212C163.121 82.0524 154.894 80.0388 153.823 69.6431C153.823 69.6431 167.083 73.2242 174.923 78.3851Z" fill="#EAEBFF"/>
<path d="M175.95 78.384C175.36 70.4319 171.929 63.1396 166.439 57.4298C162.12 52.9383 158.441 50.5879 156.214 57.6967C156.84 57.616 157.465 57.5338 158.09 57.4503C154.992 50.7193 147.376 40.7658 139.751 39.2093C131.89 37.6036 133.434 48.5824 134.222 53.1396C134.847 52.8754 135.472 52.6112 136.098 52.3483C130.556 45.0122 122.079 36.6617 112.501 35.479C101.43 34.1101 105.119 44.6412 108.967 50.5139C109.353 50.0115 109.739 49.5091 110.126 49.0054C103.869 46.3756 92.8026 48.8972 89.3638 55.1382C85.2475 62.6085 99.7608 61.1464 102.996 60.7508C102.823 60.1129 102.649 59.475 102.477 58.837C95.806 62.2936 87.0818 72.7632 89.435 80.8672C91.2844 87.2396 98.8368 81.9679 101.968 79.4285C101.395 79.0958 100.823 78.7632 100.251 78.4305C98.9011 82.5264 98.8697 87.1862 99.7745 91.3628C100.634 95.3409 103.46 103.237 108.334 104.154C114.276 105.273 116.983 95.9939 118.02 91.7338C117.36 91.7338 116.7 91.7338 116.04 91.7338C118.042 104.276 125.802 125.256 140.522 127.347C145.497 128.053 148.044 124.781 147.412 119.971C146.309 111.585 141.985 104.049 142.618 95.2889C141.98 95.4628 141.342 95.6353 140.704 95.8077C143.881 99.9241 150.487 104.214 155.882 101.969C161.992 99.4272 155.835 92.599 153.322 89.46C153.079 90.0445 152.837 90.6291 152.596 91.2136C155.791 90.9918 164.28 90.8344 165.266 86.8125C165.691 85.0767 164.298 83.7091 163.207 82.5675C159.157 78.3224 155.799 75.7283 154.815 69.3682C154.614 68.0664 152.634 68.6208 152.834 69.9144C153.788 76.0678 156.662 79.1725 160.977 83.3163C166.154 88.2896 156.357 88.9001 152.596 89.1602C151.656 89.2232 151.309 90.2116 151.869 90.9124C152.268 91.408 156.544 96.3841 156.358 97.7065C155.875 101.148 150.461 100.121 148.604 99.3806C146.215 98.4265 144.058 96.8194 142.477 94.7715C141.862 93.9734 140.643 94.2102 140.565 95.2889C140.303 98.9138 140.864 102.677 141.545 106.225C142.309 110.212 143.753 113.919 144.784 117.817C146.836 125.561 141.416 126.555 135.995 123.342C125.343 117.032 119.894 102.928 118.02 91.189C117.857 90.1664 116.267 90.2554 116.04 91.189C115.312 94.1828 113.744 100.871 110.458 101.915C104.163 103.912 101.332 90.0925 101.237 86.4785C101.171 83.9843 101.446 81.3559 102.232 78.9754C102.582 77.9104 101.241 77.3888 100.515 77.9774C99.4816 78.8152 98.3728 79.6037 97.216 80.2608C96.5534 80.6372 94.7971 81.8912 93.9757 81.7392C89.164 80.8467 92.1058 74.4319 93.153 72.0157C95.1941 67.3148 98.9053 62.9972 103.513 60.6098C104.374 60.1649 104.021 58.5728 102.996 58.6974C100.307 59.026 97.4638 59.4421 94.7519 59.0917C86.8012 58.0663 94.6766 52.7864 98.0387 51.4407C101.699 49.9746 105.835 49.4106 109.58 50.9862C110.415 51.3367 111.2 50.1786 110.74 49.4763C108.184 45.5776 103.746 38.5632 111.12 37.3886C114.426 36.8616 119.278 39.8431 121.732 41.4366C126.521 44.5482 130.878 48.822 134.325 53.3846C135.027 54.3141 136.407 53.7802 136.202 52.5934C135.609 49.1697 134.31 44.3811 137.53 42.2675C141.244 39.8294 146.814 45.9376 149.341 48.6015C152.095 51.5023 154.633 54.8302 156.317 58.488C156.708 59.3381 157.951 59.0164 158.194 58.2429C160.611 50.5276 170.34 65.8802 171.381 68.3894C172.689 71.5448 173.643 74.9603 173.897 78.384C173.994 79.6927 176.049 79.7036 175.95 78.384Z" fill="#232345"/>
<path d="M121.53 85.7885C124.157 97.6599 128.206 111.304 138.375 118.937C138.709 119.189 139.015 118.677 138.791 118.401C130.636 108.38 126.02 97.8639 121.963 85.6694C121.872 85.3956 121.467 85.5052 121.53 85.7885Z" fill="white"/>
<path d="M107.204 72.2151C104.41 79.2062 102.206 92.9257 108.577 98.5437C109.038 98.9503 109.885 98.4096 109.484 97.8429C104.704 91.105 105.833 80.07 107.822 72.3849C107.929 71.9756 107.354 71.8387 107.204 72.2151Z" fill="white"/>
<path d="M107.114 61.0087C100.395 64.1203 95.5795 69.0826 94.2982 76.6378C94.1695 77.3989 95.3016 78.056 95.6672 77.2155C96.8965 74.3859 97.6932 71.3345 99.4591 68.7637C101.521 65.7644 104.616 63.8136 107.578 61.8027C108.074 61.4673 107.649 60.7609 107.114 61.0087Z" fill="white"/>
<path d="M111.939 54.4551C107.535 51.7542 101.938 51.5283 97.349 53.9472C96.529 54.3784 97.2491 55.5256 98.0622 55.1669C102.61 53.1532 107.13 53.0396 111.75 54.9041C112.014 55.0122 112.168 54.5961 111.939 54.4551Z" fill="white"/>
<path d="M138.016 83.487C139.519 90.1701 144.725 96.0497 151.277 98.1743C152.181 98.4686 152.836 96.9956 151.936 96.611C145.747 93.9689 141.357 89.5925 139.11 83.1859C138.869 82.5 137.855 82.7697 138.016 83.487Z" fill="white"/>
<path d="M143.272 79.3569C144.559 84.541 150.299 89.2611 155.847 87.2542C156.584 86.9886 156.5 85.8593 155.656 85.8483C153.13 85.81 150.911 85.9277 148.61 84.6081C146.477 83.3856 144.962 81.4062 144.098 79.1296C143.906 78.6231 143.138 78.812 143.272 79.3569Z" fill="white"/>
<path d="M129.164 53.6953C125.634 47.2901 118.866 41.6611 111.334 41.0341C110.625 40.9752 110.543 42.0334 111.173 42.2319C118.385 44.5112 124.19 47.5899 128.463 54.106C128.748 54.5413 129.419 54.158 129.164 53.6953Z" fill="white"/>
<path d="M77.4759 92.4854C77.4759 92.4854 63.2812 91.8461 57.859 78.77C52.4368 65.6913 66.7239 53.8897 78.0468 61.2258C89.3705 68.5633 87.2049 83.7133 87.2049 83.7133L77.4759 92.4854Z" fill="#4B496B"/>
<path d="M77.4784 91.4592C64.6949 90.7199 49.6473 74.1422 62.3421 63.2031C75.8699 51.5439 87.8015 71.3249 86.1807 83.7138C86.0095 85.0197 88.0643 85.0074 88.2341 83.7138C89.0718 77.3072 87.4935 70.06 83.5427 64.917C77.8644 57.5234 67.5381 55.4358 60.4335 62.1011C47.1768 74.5392 63.2062 92.6885 77.4784 93.5126C78.798 93.5892 78.7939 91.5358 77.4784 91.4592Z" fill="#232345"/>
<path d="M79.2324 88.1811C79.2324 88.1811 71.5759 89.1366 66.3131 81.1626C61.0502 73.1886 65.9692 63.0325 75.8716 68.4028C85.7745 73.7758 83.2187 84.6711 83.2187 84.6711" fill="#6D6A9C"/>
<path d="M79.2319 87.1542C76.0286 87.4951 72.6542 86.1097 70.2367 84.0892C66.4891 80.9543 61.9872 72.1275 68.0217 68.6257C73.481 65.4553 80.2997 72.1288 81.8123 76.953C82.5392 79.2747 82.7624 81.9934 82.2285 84.3986C81.9424 85.6854 83.9218 86.2357 84.208 84.9434C85.1128 80.8722 84.3407 76.1973 82.0834 72.6928C79.1101 68.0809 71.5933 63.4348 66.3741 67.2609C61.3294 70.9639 62.9663 78.4807 66.1934 82.7599C69.1251 86.6491 74.1805 89.7456 79.2319 89.2076C80.531 89.068 80.5461 87.0132 79.2319 87.1542Z" fill="#232345"/>
<path d="M185.98 92.4854C185.98 92.4854 200.174 91.8461 205.597 78.77C211.019 65.6913 196.732 53.8897 185.408 61.2258C174.084 68.5633 176.251 83.7133 176.251 83.7133L185.98 92.4854Z" fill="#4B496B"/>
<path d="M185.979 93.5126C200.32 92.6844 216.187 74.5926 203.023 62.1011C196.158 55.5877 186.207 57.4275 180.409 64.3174C176.068 69.4782 174.354 77.0731 175.223 83.7138C175.391 85.0047 177.448 85.0225 177.276 83.7138C175.66 71.3564 187.533 51.496 201.115 63.2031C213.772 74.1107 198.78 90.7186 185.979 91.4592C184.665 91.5345 184.656 93.5892 185.979 93.5126Z" fill="#232345"/>
<path d="M184.224 88.1811C184.224 88.1811 191.879 89.1366 197.143 81.1626C202.406 73.1886 197.486 63.0325 187.585 68.4028C177.682 73.7758 180.236 84.6711 180.236 84.6711" fill="#6D6A9C"/>
<path d="M184.225 89.2074C189.285 89.7468 194.318 86.6448 197.262 82.7597C200.508 78.4805 202.111 70.9678 197.082 67.2607C191.871 63.4209 184.341 68.0889 181.373 72.6926C179.116 76.1971 178.344 80.8706 179.247 84.9432C179.535 86.2341 181.514 85.6865 181.228 84.3984C180.721 82.1205 180.897 79.5551 181.526 77.3347C182.942 72.3353 189.811 65.3593 195.435 68.6255C201.255 72.0041 197.175 80.5175 193.632 83.7125C191.161 85.9398 187.628 87.5154 184.225 87.154C182.912 87.013 182.923 89.0678 184.225 89.2074Z" fill="#232345"/>
</g>
</svg>
