<svg width="263" height="263" viewBox="0 0 263 263" fill="none" xmlns="http://www.w3.org/2000/svg">
<circle cx="131.5" cy="131.5" r="131.5" fill="#D0EFBD"/>
<mask id="mask0_346_12602" style="mask-type:alpha" maskUnits="userSpaceOnUse" x="0" y="0" width="263" height="263">
<circle cx="131.5" cy="131.5" r="131.5" fill="#D9D9D9"/>
</mask>
<g mask="url(#mask0_346_12602)">
<path d="M129.705 255.824C165.732 256.879 202.671 244.198 218.559 224.848C234.445 205.496 200.193 209.373 214.204 185.442C226.781 163.955 240.911 147.539 235.959 110.852C230.365 69.4032 198.739 35.7495 147.154 32.3561C98.9449 29.1846 58.7328 47.4072 55.9338 78.0768C52.9081 111.22 76.1563 115.679 48.1224 139.488C28.6463 156.031 17.8918 168.848 27.6724 198.039C40.3659 235.922 68.7589 254.037 129.705 255.824Z" fill="#B6E698"/>
<path d="M220.593 202.85C231.414 211.632 249.683 182.764 236.05 174.988C222.416 167.214 209.773 194.07 220.593 202.85Z" fill="#B6E698"/>
<path d="M56.0883 119.427C57.4452 129.81 36.4159 150.138 28.0882 134.164C19.7599 118.189 54.2165 105.097 56.0883 119.427Z" fill="#B6E698"/>
<path d="M36.4288 81.3578C29.2001 87.7104 40.601 113.899 48.8784 107.728C57.1562 101.556 46.3845 72.6093 36.4288 81.3578Z" fill="#B6E698"/>
<path d="M162.759 205.588H102.151C71.8469 208.376 57.8057 242.564 57.8057 242.564C81.5767 263.695 132.455 263.253 132.455 263.253C132.455 263.253 183.333 263.695 207.105 242.564C207.105 242.564 193.062 208.376 162.759 205.588Z" fill="#C98B62"/>
<path d="M181.591 256.001C180.334 231.656 164.085 211.666 142.69 206.755H122.22C100.826 211.666 84.5754 231.656 83.3203 256.001C106.732 263.468 132.456 263.253 132.456 263.253C132.456 263.253 158.178 263.468 181.591 256.001Z" fill="#F7DFBD"/>
<path d="M164.845 218.799C162.278 216.361 159.477 214.208 156.482 212.387C161.168 211.46 166.213 210.233 171.301 208.609C174.69 209.572 178.046 211.002 181.44 213.126C175.968 215.526 170.3 217.375 164.845 218.799ZM100.063 218.799C94.6376 217.382 89.0032 215.547 83.5596 213.165C86.8972 211.17 90.3428 209.726 93.9259 208.71C98.9064 210.285 103.84 211.479 108.426 212.387C105.432 214.208 102.63 216.361 100.063 218.799Z" fill="#BC7850"/>
<path d="M132.455 223.55C132.455 223.55 117.325 223.302 100.063 218.798C102.63 216.361 105.432 214.208 108.426 212.386C121.932 215.054 132.455 215.226 132.455 215.226C132.455 215.226 142.976 215.054 156.482 212.386C159.477 214.208 162.278 216.361 164.845 218.798C147.585 223.302 132.455 223.55 132.455 223.55Z" fill="#E7C19A"/>
<path d="M208.108 242.288C204.065 232.583 197.33 223.389 189.428 216.509C179.578 207.933 168.478 204.548 155.735 204.548C141.562 204.548 127.389 204.548 113.216 204.548C100.988 204.548 90.4348 205.526 79.947 212.977C69.9143 220.105 61.5433 230.905 56.802 242.288C56.2882 243.523 58.3008 244.061 58.8093 242.841C62.562 233.829 69.3703 224.582 76.9534 217.983C87.1399 209.115 98.1999 206.629 111.11 206.629C123.885 206.629 136.661 206.629 149.435 206.629C161.268 206.629 171.409 206.644 181.943 213.445C192.435 220.22 201.428 231.619 206.102 242.841C206.608 244.058 208.623 243.526 208.108 242.288Z" fill="#702624"/>
<path d="M89.2301 227.379C86.4555 230.175 84.4027 233.774 83.0294 237.445C82.7785 238.117 83.8369 238.39 84.0954 237.74C85.5428 234.094 87.4895 230.965 89.7666 227.794C89.9958 227.473 89.4972 227.11 89.2301 227.379Z" fill="#702624"/>
<path d="M83.1625 231.805C80.7949 234.314 79.3756 238.566 78.5768 241.869C78.3958 242.613 79.4861 242.911 79.7208 242.185C80.2789 240.454 80.8025 238.718 81.4788 237.027C82.1443 235.361 83.1132 233.792 83.6113 232.068C83.6838 231.814 83.3473 231.611 83.1625 231.805Z" fill="#702624"/>
<path d="M84.1687 226.545C81.2851 229.038 79.2854 232.969 77.8065 236.418C77.5822 236.941 78.297 237.403 78.5923 236.878C80.5351 233.427 82.3127 230.124 84.6408 226.909C84.8526 226.618 84.4115 226.335 84.1687 226.545Z" fill="#702624"/>
<path d="M169.507 219.839C172.529 223.449 174.929 227.275 177.117 231.423C177.609 232.357 178.902 231.536 178.503 230.613C176.627 226.284 173.645 222.346 170.167 219.182C169.718 218.773 169.126 219.383 169.507 219.839Z" fill="#702624"/>
<path d="M175.921 223.47C176.982 225.31 178.108 227.106 179.098 228.988C180.082 230.857 180.849 232.887 181.974 234.672C182.394 235.338 183.525 234.922 183.281 234.12C182.074 230.141 179.256 226.107 176.687 222.877C176.336 222.436 175.651 223.003 175.921 223.47Z" fill="#702624"/>
<path d="M176.656 219.487C178.909 222.597 180.604 225.949 182.613 229.199C183.044 229.894 184.261 229.454 183.981 228.624C182.736 224.947 180.086 221.634 177.285 219C176.969 218.703 176.377 219.101 176.656 219.487Z" fill="#702624"/>
<path d="M179.502 78.3757C168.677 70.7551 154.761 66.3697 140.368 65.1933C144.752 63.6728 149.432 61.7014 149.041 60.3155C148.315 57.7517 136.466 59.7064 136.466 59.7064C136.466 59.7064 144.449 52.9349 141.939 51.9305C139.431 50.9261 130.338 56.7473 130.338 56.7473C130.338 56.7473 127.494 50.2795 126.155 50.8927C124.818 51.5059 125.876 58.5314 125.876 58.5314C125.876 58.5314 119.52 52.7323 118.572 53.6244C117.625 54.5164 119.688 59.9256 119.688 59.9256C119.688 59.9256 105.845 47.5742 105.223 50.6846C104.6 53.795 111.651 62.7114 111.651 62.7114C111.651 62.7114 101.283 60.0158 102.734 62.7114C103.701 64.5066 108.148 66.2948 111.021 67.2937C101.6 69.494 92.7846 73.1815 85.4079 78.3757C47.2407 105.243 43.5052 157.432 54.8705 180.162C71.9085 214.238 132.455 215.226 132.455 215.226C132.455 215.226 193.001 214.238 210.039 180.162C221.403 157.432 217.669 105.243 179.502 78.3757Z" fill="#C98B62"/>
<path d="M202.734 131.452C196.108 98.4794 169.387 93.116 156.604 99.6115C142.609 106.723 140.345 112.865 132.455 112.865C124.564 112.865 122.301 106.723 108.306 99.6115C95.5218 93.116 68.8018 98.4794 62.1745 131.452C55.548 164.425 57.8056 176.224 74.9721 189.492C95.193 205.122 132.455 204.346 132.455 204.346C132.455 204.346 169.717 205.122 189.938 189.492C207.104 176.224 209.362 164.425 202.734 131.452Z" fill="#F7DFBD"/>
<path d="M115.656 154.661C118.314 145.896 117.74 130.455 98.2495 124.078C81.8782 118.721 68.5436 126.106 62.2926 130.924C62.2557 131.103 62.2102 131.272 62.1733 131.453C59.7607 143.457 58.5332 152.645 58.7663 160.129C58.7663 160.129 74.637 156.803 87.8075 166.154C100.977 175.503 111.788 167.416 115.656 154.661Z" fill="#A26145"/>
<path d="M149.254 154.661C146.596 145.896 147.17 130.455 166.66 124.078C183.031 118.721 196.365 126.106 202.616 130.924C202.654 131.103 202.7 131.272 202.736 131.453C205.148 143.457 206.376 152.645 206.143 160.129C206.143 160.129 190.273 156.803 177.102 166.154C163.932 175.503 153.122 167.416 149.254 154.661Z" fill="#A26145"/>
<path d="M76.1133 176.644C60.4712 173.058 65.4736 162.361 76.1133 164.906C90.8411 168.427 88.9119 179.58 76.1133 176.644Z" fill="#FFB6C3"/>
<path d="M188.796 176.644C204.437 173.058 199.435 162.361 188.796 164.906C174.067 168.427 175.996 179.58 188.796 176.644Z" fill="#FFB6C3"/>
<mask id="mask1_346_12602" style="mask-type:luminance" maskUnits="userSpaceOnUse" x="71" y="137" width="42" height="32">
<path d="M111.737 141.137C91.6339 144.064 76.8442 138.978 73.3309 137.602C70.9454 143.907 71.0674 151.338 73.2561 156.913C76.4106 157.044 89.2527 158.19 99.6988 168.123C104.066 166.579 106.927 163.638 109.253 159.934C112.264 155.14 113.242 147.836 111.737 141.137Z" fill="white"/>
</mask>
<g mask="url(#mask1_346_12602)">
<path d="M92.0022 129.407C75.7766 128.996 72.6958 148.509 78.2408 157.342C81.0143 161.756 84.481 164.825 92.0022 164.825C99.2815 164.825 102.991 161.756 105.763 157.342C111.31 148.509 108.228 128.996 92.0022 129.407Z" fill="white"/>
</g>
<mask id="mask2_346_12602" style="mask-type:luminance" maskUnits="userSpaceOnUse" x="71" y="137" width="42" height="32">
<path d="M111.737 141.137C91.6339 144.064 76.8442 138.978 73.3309 137.602C70.9454 143.907 71.0674 151.338 73.2561 156.913C76.4106 157.044 89.2527 158.19 99.6988 168.123C104.066 166.579 106.927 163.638 109.253 159.934C112.264 155.14 113.242 147.836 111.737 141.137Z" fill="white"/>
</mask>
<g mask="url(#mask2_346_12602)">
<path d="M108.472 141.322C105.146 130.178 92.0042 123.985 81.8831 131.443C74.0604 137.207 72.7603 149.74 77.4258 157.816C78.0338 158.869 79.6671 157.92 79.0574 156.864C75.2661 150.299 75.7972 140.449 81.0377 134.754C89.3583 125.713 103.427 131.025 106.65 141.824C106.997 142.987 108.821 142.49 108.472 141.322Z" fill="#702624"/>
</g>
<mask id="mask3_346_12602" style="mask-type:luminance" maskUnits="userSpaceOnUse" x="71" y="137" width="42" height="32">
<path d="M111.737 141.137C91.6339 144.064 76.8442 138.978 73.3309 137.602C70.9454 143.907 71.0674 151.338 73.2561 156.913C76.4106 157.044 89.2527 158.19 99.6988 168.123C104.066 166.579 106.927 163.638 109.253 159.934C112.264 155.14 113.242 147.836 111.737 141.137Z" fill="white"/>
</mask>
<g mask="url(#mask3_346_12602)">
<path d="M106.492 147.694C106.492 154.701 101.896 160.384 96.2276 160.384C90.5574 160.384 85.9619 154.701 85.9619 147.694C85.9619 140.687 90.5574 135.005 96.2276 135.005C101.896 135.005 106.492 140.687 106.492 147.694Z" fill="#702624"/>
</g>
<path d="M86.4006 134.571C89.1471 133.395 92.9033 132.565 97.2553 134.129C100.368 135.248 102.093 132.754 99.8122 130.97C97.1846 128.912 90.5967 127.719 85.9915 129.982C81.3863 132.243 81.7016 133.786 82.0701 134.665C82.4381 135.544 83.8195 135.677 86.4006 134.571Z" fill="#702624"/>
<path d="M73.2569 157.954C82.4778 158.582 91.633 162.549 98.9449 168.02C100.019 168.824 101.056 167.017 99.9965 166.224C92.3717 160.519 82.843 156.526 73.2569 155.873C71.9205 155.783 71.9265 157.864 73.2569 157.954Z" fill="#702624"/>
<path d="M72.7328 138.17C84.7349 143.781 99.1929 144.211 112.015 142.142C113.334 141.927 112.773 139.922 111.461 140.133C99.2192 142.111 85.2486 141.735 73.7836 136.372C72.5779 135.808 71.52 137.602 72.7328 138.17Z" fill="#702624"/>
<mask id="mask4_346_12602" style="mask-type:luminance" maskUnits="userSpaceOnUse" x="152" y="137" width="42" height="32">
<path d="M153.267 141.137C173.369 144.064 188.16 138.978 191.672 137.602C194.057 143.907 193.937 151.338 191.747 156.913C188.593 157.044 175.751 158.19 165.305 168.123C160.936 166.579 158.077 163.638 155.75 159.934C152.74 155.14 151.763 147.836 153.267 141.137Z" fill="white"/>
</mask>
<g mask="url(#mask4_346_12602)">
<path d="M172.999 129.407C189.225 128.996 192.307 148.509 186.76 157.342C183.988 161.756 180.52 164.825 172.999 164.825C165.72 164.825 162.01 161.756 159.237 157.342C153.692 148.509 156.773 128.996 172.999 129.407Z" fill="white"/>
</g>
<mask id="mask5_346_12602" style="mask-type:luminance" maskUnits="userSpaceOnUse" x="152" y="137" width="42" height="32">
<path d="M153.267 141.137C173.369 144.064 188.16 138.978 191.672 137.602C194.057 143.907 193.937 151.338 191.747 156.913C188.593 157.044 175.751 158.19 165.305 168.123C160.936 166.579 158.077 163.638 155.75 159.934C152.74 155.14 151.763 147.836 153.267 141.137Z" fill="white"/>
</mask>
<g mask="url(#mask5_346_12602)">
<path d="M158.354 141.825C161.582 131.002 175.654 125.726 183.967 134.755C189.205 140.446 189.737 150.303 185.946 156.865C185.337 157.919 186.97 158.871 187.578 157.816C192.243 149.739 190.942 137.206 183.12 131.443C173.005 123.991 159.856 130.18 156.532 141.323C156.184 142.491 158.007 142.989 158.354 141.825Z" fill="#702624"/>
</g>
<mask id="mask6_346_12602" style="mask-type:luminance" maskUnits="userSpaceOnUse" x="152" y="137" width="42" height="32">
<path d="M153.267 141.137C173.369 144.064 188.16 138.978 191.672 137.602C194.057 143.907 193.937 151.338 191.747 156.913C188.593 157.044 175.751 158.19 165.305 168.123C160.936 166.579 158.077 163.638 155.75 159.934C152.74 155.14 151.763 147.836 153.267 141.137Z" fill="white"/>
</mask>
<g mask="url(#mask6_346_12602)">
<path d="M158.51 147.694C158.51 154.701 163.106 160.384 168.775 160.384C174.445 160.384 179.041 154.701 179.041 147.694C179.041 140.687 174.445 135.005 168.775 135.005C163.106 135.005 158.51 140.687 158.51 147.694Z" fill="#702624"/>
</g>
<path d="M178.602 134.571C175.855 133.395 172.098 132.565 167.747 134.129C164.634 135.248 162.91 132.754 165.19 130.97C167.817 128.912 174.405 127.719 179.011 129.982C183.617 132.243 183.301 133.786 182.933 134.665C182.564 135.544 181.184 135.677 178.602 134.571Z" fill="#702624"/>
<path d="M191.747 155.873C182.164 156.526 172.63 160.522 165.008 166.224C163.948 167.016 164.984 168.824 166.058 168.02C173.375 162.547 182.526 158.582 191.747 157.954C193.076 157.864 193.086 155.783 191.747 155.873Z" fill="#702624"/>
<path d="M191.222 136.372C179.759 141.732 165.775 142.11 153.543 140.133C152.232 139.922 151.669 141.927 152.99 142.142C165.821 144.214 180.264 143.784 192.27 138.17C193.483 137.602 192.429 135.808 191.222 136.372Z" fill="#702624"/>
<path d="M131.415 165.357C131.415 170.215 131.415 175.074 131.415 179.931C131.415 181.271 133.496 181.272 133.496 179.931C133.496 175.074 133.496 170.215 133.496 165.357C133.496 164.018 131.415 164.015 131.415 165.357Z" fill="#702624"/>
<path d="M114.654 178.963C116.159 182.677 119.576 185.681 123.649 186.036C127.732 186.391 132.163 184.281 133.458 180.177C133.861 178.896 131.852 178.349 131.452 179.623C130.382 183.013 126.325 184.465 123.089 183.871C120.207 183.343 117.613 180.76 116.66 178.41C116.163 177.185 114.149 177.72 114.654 178.963Z" fill="#702624"/>
<path d="M112.626 179.726C114.986 179.964 117.324 178.811 118.654 176.89C119.418 175.787 117.615 174.747 116.857 175.841C115.927 177.186 114.23 177.808 112.626 177.645C111.294 177.512 111.304 179.593 112.626 179.726Z" fill="#702624"/>
<path d="M148.248 178.41C147.294 180.764 144.7 183.343 141.82 183.872C138.577 184.467 134.528 183.018 133.458 179.624C133.056 178.351 131.047 178.895 131.452 180.177C132.744 184.277 137.178 186.401 141.259 186.036C145.336 185.672 148.746 182.684 150.256 178.963C150.758 177.723 148.746 177.182 148.248 178.41Z" fill="#702624"/>
<path d="M152.284 177.645C150.682 177.808 148.984 177.186 148.053 175.841C147.295 174.747 145.492 175.787 146.256 176.89C147.585 178.811 149.926 179.964 152.284 179.726C153.604 179.594 153.619 177.512 152.284 177.645Z" fill="#702624"/>
<path d="M148.104 158.31C145.356 152.976 119.553 152.976 116.805 158.31C114.058 163.645 123.213 171.108 132.455 173.599C141.696 171.108 150.851 163.645 148.104 158.31Z" fill="#702624"/>
<path d="M144.62 160.121C144.567 160.121 144.513 160.113 144.455 160.098C140.312 158.959 136.44 158.503 132.556 158.503C128.587 158.503 124.607 158.979 120.32 159.683L120.282 159.594C124.059 157.745 128.315 156.932 132.602 156.932C136.762 156.932 140.952 157.7 144.749 159.031C145.357 159.244 145.186 160.121 144.62 160.121Z" fill="#9D3532"/>
<path d="M53.7021 164.625C46.7714 124.313 70.8523 83.6621 110.287 71.5063C110.378 71.4786 110.465 71.4647 110.547 71.4647C111.359 71.4647 111.6 72.7577 110.718 73.074C72.373 86.8488 48.8772 123.777 53.766 164.617L53.7021 164.625Z" fill="#D9AE80"/>
<path d="M211.206 164.625L211.143 164.617C216.03 123.778 192.536 86.8502 154.19 73.074C153.306 72.7563 153.551 71.4647 154.361 71.4647C154.443 71.4647 154.53 71.4786 154.623 71.5063C194.055 83.6621 218.136 124.315 211.206 164.625Z" fill="#D9AE80"/>
<path d="M54.8509 180.123C54.8483 180.116 54.8444 180.109 54.8412 180.102C54.8444 180.109 54.8477 180.116 54.8509 180.123ZM210.058 180.122C210.063 180.115 210.064 180.112 210.068 180.105C210.064 180.111 210.061 180.116 210.058 180.122ZM54.833 180.086C54.7084 179.834 54.5848 179.579 54.464 179.323C54.5854 179.581 54.7073 179.833 54.833 180.086ZM210.079 180.081C210.083 180.072 210.088 180.065 210.093 180.055C210.088 180.063 210.083 180.072 210.079 180.081ZM210.143 179.952C210.151 179.936 210.158 179.921 210.167 179.904C210.158 179.921 210.15 179.937 210.143 179.952ZM210.19 179.855C210.206 179.825 210.219 179.797 210.233 179.766C210.219 179.796 210.206 179.826 210.19 179.855ZM210.242 179.75C210.246 179.742 210.249 179.736 210.253 179.728C210.249 179.735 210.246 179.743 210.242 179.75ZM210.269 179.694C210.272 179.687 210.273 179.683 210.278 179.676C210.275 179.682 210.272 179.687 210.269 179.694ZM54.4608 179.314C54.4569 179.306 54.4526 179.298 54.4488 179.289C54.4526 179.298 54.4565 179.306 54.4608 179.314ZM54.4391 179.268C54.4358 179.262 54.4332 179.256 54.4304 179.25C54.4332 179.256 54.4358 179.263 54.4391 179.268ZM54.4108 179.207C54.4103 179.206 54.4093 179.205 54.4082 179.203C54.4088 179.205 54.4103 179.206 54.4108 179.207Z" fill="#AAC67C"/>
<path d="M132.455 215.226C132.455 215.226 113.57 214.918 93.9266 208.709C92.746 208.336 91.5655 207.944 90.3829 207.526C76.015 202.459 61.8214 194.063 54.8708 180.162C54.8637 180.148 54.8577 180.136 54.8506 180.123C54.8474 180.117 54.8441 180.11 54.8409 180.103C54.8382 180.097 54.8355 180.092 54.8327 180.086C54.707 179.834 54.5851 179.581 54.4637 179.323C54.4626 179.319 54.4616 179.317 54.4605 179.315C54.4562 179.306 54.4523 179.298 54.4486 179.29C54.4453 179.283 54.4421 179.276 54.4389 179.269C54.4355 179.263 54.4329 179.256 54.4301 179.251C54.4236 179.237 54.4171 179.223 54.4106 179.208C54.41 179.206 54.4085 179.205 54.4079 179.204C50.7023 171.234 48.7703 159.966 49.3409 147.538C49.794 157.044 51.7618 165.473 54.8708 171.69C71.9088 205.765 132.455 206.755 132.455 206.755C132.455 206.755 193.001 205.765 210.039 171.69C213.148 165.473 215.115 157.044 215.569 147.538C216.147 160.143 214.151 171.557 210.341 179.544L210.34 179.545C210.333 179.56 210.326 179.577 210.318 179.592C210.318 179.594 210.316 179.595 210.316 179.596C210.309 179.609 210.304 179.621 210.297 179.635C210.295 179.639 210.293 179.643 210.291 179.648C210.287 179.657 210.282 179.667 210.277 179.677C210.273 179.684 210.272 179.688 210.269 179.695C210.264 179.706 210.258 179.717 210.252 179.728C210.248 179.736 210.246 179.742 210.241 179.75C210.239 179.756 210.236 179.761 210.233 179.767C210.219 179.797 210.205 179.825 210.19 179.856C210.189 179.858 210.187 179.861 210.186 179.864C210.182 179.872 210.178 179.882 210.173 179.89C210.171 179.896 210.168 179.9 210.166 179.904C210.158 179.921 210.151 179.936 210.143 179.953C210.14 179.957 210.14 179.96 210.137 179.963C210.133 179.972 210.129 179.981 210.125 179.99C210.122 179.994 210.121 179.999 210.118 180.003C210.114 180.011 210.11 180.019 210.105 180.028C210.101 180.036 210.097 180.046 210.093 180.056C210.087 180.065 210.083 180.072 210.079 180.082C210.075 180.089 210.071 180.097 210.068 180.105C210.064 180.112 210.062 180.115 210.058 180.122C210.051 180.136 210.046 180.148 210.039 180.162C203.067 194.105 188.813 202.508 174.401 207.57C173.369 207.934 172.333 208.279 171.302 208.608C151.544 214.915 132.455 215.226 132.455 215.226Z" fill="#BC7850"/>
<path d="M180.027 77.4773C168.161 69.4461 154.549 65.4922 140.369 64.1534C140.462 64.8346 140.553 65.5158 140.646 66.197C142.668 65.4659 152.845 62.7384 149.249 58.9357C146.78 56.3248 139.252 58.2157 136.19 58.704C136.527 59.2839 136.864 59.8624 137.203 60.4424C138.882 58.9995 144.513 54.8653 143.363 52.0185C141.909 48.424 134.531 53.1131 132.838 54.0551C132.206 54.4075 130.695 55.756 129.993 55.7352C131.899 55.7906 130.542 54.5004 129.648 53.0659C129.029 52.074 127.966 49.7849 126.439 49.8903C123.074 50.122 124.587 56.7826 124.874 58.8081C125.454 58.4709 126.034 58.1338 126.614 57.7967C125.079 56.4122 120.899 51.773 118.514 52.5832C115.831 53.4933 118.098 58.6125 118.685 60.2023C119.265 59.8652 119.845 59.5281 120.423 59.191C117.955 56.9976 109.164 47.6471 105.461 49.1898C100.741 51.1556 109.348 61.4426 110.916 63.4473C111.253 62.8674 111.59 62.2875 111.929 61.709C109.889 61.1915 103.429 58.9426 101.869 61.4093C99.6952 64.8513 108.847 67.6079 110.744 68.2974C110.744 67.6301 110.744 66.96 110.744 66.2913C72.7012 75.7307 49.2207 111.156 48.2242 149.381C47.8828 162.476 49.9778 176.489 58.033 187.204C67.0978 199.26 81.521 206.127 95.6526 210.328C111.389 215.004 127.808 217.281 144.128 215.363C169.64 212.368 202.418 203.39 212.629 176.813C225.957 142.117 209.119 98.5008 180.027 77.4773C178.941 76.6921 177.9 78.497 178.977 79.2739C206.042 98.8324 220.226 135.719 212.926 168.501C206.485 197.423 176.12 208.424 149.854 212.5C112.656 218.274 57.226 206.855 51.0519 163.279C45.1764 121.807 69.7526 78.6066 111.297 68.2974C112.362 68.0352 112.208 66.6229 111.297 66.2913C109.763 65.7322 106.22 64.9165 105.199 63.5777C103.961 61.9504 105.035 62.7176 106.525 62.7509C108.127 62.7869 109.827 63.3224 111.375 63.7151C112.463 63.9911 112.997 62.7564 112.386 61.9753C111.075 60.2967 109.834 58.5445 108.716 56.7285C107.066 54.0495 104.931 50.781 109.197 52.9092C112.743 54.6794 115.987 58.0284 118.953 60.6616C119.663 61.2928 121.079 60.6976 120.691 59.6502C120.169 58.2351 118.854 55.5618 120.536 55.5285C121.729 55.5035 124.157 58.3794 125.142 59.2673C125.967 60.0123 127.023 59.2562 126.881 58.2559C126.749 57.3333 125.83 53.3254 127.17 53.0021C127.542 52.9106 129.234 56.8187 129.439 57.2737C129.666 57.7745 130.426 57.9216 130.863 57.6455C132.209 56.7965 138.046 52.6081 139.345 53.2629C141.76 54.4824 136.83 58.027 135.731 58.9704C134.858 59.721 135.829 60.8558 136.744 60.7101C138.633 60.409 140.567 60.1607 142.482 60.09C143.458 60.0553 146.398 59.6155 146.992 60.2301C148.03 61.3039 140.986 63.8677 140.093 64.1909C138.968 64.5974 139.19 66.1234 140.369 66.2344C154.195 67.5385 167.406 71.4438 178.977 79.2739C180.089 80.0272 181.131 78.2251 180.027 77.4773Z" fill="#702624"/>
<path d="M108.456 63.8132C111.279 64.8939 113.635 66.4158 116.131 68.0792C116.694 68.4551 117.191 67.5659 116.655 67.1802C114.266 65.4627 111.336 64.3681 108.513 63.6023C108.377 63.5662 108.328 63.7618 108.456 63.8132Z" fill="#702624"/>
<path d="M111.922 56.7643C113.702 58.3764 115.415 60.0814 117.015 61.8724C118.617 63.6676 119.928 65.725 121.567 67.4758C121.861 67.7908 122.335 67.3912 122.146 67.0291C119.961 62.8671 115.761 59.3558 112.027 56.6283L111.922 56.7643Z" fill="#702624"/>
<path d="M121.593 58.2221C122.571 61.0925 123.602 63.9504 124.465 66.8568C124.64 67.4437 125.567 67.1912 125.385 66.603C124.468 63.6341 123.371 60.8248 121.811 58.132C121.745 58.0168 121.549 58.0931 121.593 58.2221Z" fill="#702624"/>
<path d="M128.267 56.7474C128.537 60.0229 128.347 63.3511 127.821 66.5919C127.722 67.2037 128.652 67.4714 128.763 66.8513C129.37 63.3969 129.248 60.1325 128.502 56.7155C128.474 56.5865 128.256 56.6115 128.267 56.7474Z" fill="#702624"/>
<path d="M135.288 57.0126C132.634 59.4307 130.453 62.5286 129.563 66.0497C129.409 66.6601 130.312 66.9043 130.503 66.3077C131.605 62.8935 133.024 59.865 135.442 57.1666L135.288 57.0126Z" fill="#702624"/>
<path d="M143.852 60.353C139.473 61.0869 134.902 63.0167 131.835 66.3268C131.525 66.6598 131.944 67.2869 132.348 66.9914C136.044 64.268 139.483 61.997 143.921 60.6041C144.083 60.5542 144.014 60.3267 143.852 60.353Z" fill="#702624"/>
</g>
</svg>
