<svg width="263" height="263" viewBox="0 0 263 263" fill="none" xmlns="http://www.w3.org/2000/svg">
<circle cx="131.5" cy="131.5" r="131.5" fill="#D2BDEA"/>
<mask id="mask0_346_12644" style="mask-type:alpha" maskUnits="userSpaceOnUse" x="0" y="0" width="263" height="263">
<circle cx="131.5" cy="131.5" r="131.5" fill="#D9D9D9"/>
</mask>
<g mask="url(#mask0_346_12644)">
<path d="M139.563 254.884C172.959 253.338 208.975 243.09 225.727 226.928C242.481 210.767 210.136 206.258 217.569 192.927C225.001 179.596 251.1 150.235 239.051 96.7951C228.897 51.7684 135.625 1.92844 63.9679 51.7684C-23.8654 112.856 17.2266 260.55 139.563 254.884Z" fill="#B694DD"/>
<path d="M244.662 203.117C252.244 190.757 230.389 183.867 222.636 192.537C214.881 201.209 236.06 217.141 244.662 203.117Z" fill="#B694DD"/>
<path d="M241.046 185.015C250.837 180.407 245.565 168.735 235.285 175.223C225.003 181.71 231.253 189.625 241.046 185.015Z" fill="#B694DD"/>
<path d="M163.401 207.567H105.153C76.0279 210.246 62.5332 243.105 62.5332 243.105C85.3785 263.411 134.276 262.989 134.276 262.989C134.276 262.989 183.175 263.411 206.021 243.105C206.021 243.105 192.527 210.246 163.401 207.567Z" fill="#FF9B14"/>
<path d="M155.841 222.459C153.773 218.579 154.311 212.758 155.311 208.037H113.245C114.245 212.758 114.782 218.579 112.714 222.459C109.013 229.406 94.8818 238.974 94.7285 258.182C114.826 263.151 134.277 262.989 134.277 262.989C134.277 262.989 153.729 263.151 173.825 258.182C173.673 238.974 159.543 229.406 155.841 222.459Z" fill="#FFE6C2"/>
<path d="M113.268 221.216C105.682 219.832 96.9222 217.629 88.5488 214.122C91.2235 212.65 93.9702 211.529 96.8075 210.693C102.453 212.554 108.298 213.95 114.122 214.909C114.178 217.154 113.956 219.344 113.268 221.216ZM155.282 221.198C154.593 219.312 154.373 217.104 154.436 214.841C160.348 213.885 166.322 212.496 172.097 210.61C174.768 211.406 177.419 212.513 180.089 214.049C171.694 217.584 162.899 219.805 155.282 221.198Z" fill="#FF7C0B"/>
<path d="M134.232 223.542C134.232 223.542 125.208 223.394 113.268 221.217C113.956 219.345 114.178 217.155 114.122 214.91C120.784 216.007 127.418 216.534 133.685 216.534C134.025 216.534 134.362 216.533 134.701 216.53C140.926 216.473 147.638 215.943 154.436 214.842C154.373 217.105 154.593 219.313 155.282 221.199C143.3 223.394 134.232 223.542 134.232 223.542Z" fill="#FFB968"/>
<path d="M91.1646 222.307C99.3606 223.843 105.445 221.866 97.4099 217.438C94.0859 215.606 91.0339 214.038 88.5859 212.82C85.7552 214.418 83.1633 216.274 80.8086 218.272C83.3713 219.791 86.9966 221.524 91.1646 222.307Z" fill="#5B1A1A"/>
<path d="M82.3111 241.837C95.7084 242.687 102.282 239.482 93.2391 232.51C88.8271 229.11 81.2324 225.798 75.3657 223.53C70.6591 228.665 67.2804 233.986 65.1777 237.783C69.0244 239.431 74.9417 241.369 82.3111 241.837Z" fill="#5B1A1A"/>
<path d="M177.386 222.307C169.192 223.843 163.108 221.866 171.142 217.438C174.468 215.606 177.52 214.038 179.966 212.82C182.797 214.418 185.388 216.274 187.745 218.272C185.181 219.791 181.554 221.524 177.386 222.307Z" fill="#5B1A1A"/>
<path d="M186.242 241.837C172.846 242.687 166.27 239.482 175.316 232.51C179.725 229.11 187.322 225.798 193.189 223.53C197.893 228.665 201.272 233.986 203.376 237.783C199.53 239.431 193.61 241.369 186.242 241.837Z" fill="#5B1A1A"/>
<path d="M206.986 242.838C203.102 233.511 196.627 224.675 189.033 218.063C179.565 209.82 168.896 206.566 156.651 206.566C143.029 206.566 129.408 206.566 115.787 206.566C104.035 206.566 93.8908 207.507 83.8122 214.668C74.1708 221.518 66.1242 231.899 61.5682 242.838C61.0748 244.024 63.0082 244.543 63.4962 243.37C67.1028 234.708 73.6468 225.822 80.9348 219.478C90.7242 210.956 101.355 208.567 113.763 208.567C126.041 208.567 138.319 208.567 150.597 208.567C161.968 208.567 171.715 208.582 181.837 215.118C191.923 221.628 200.564 232.583 205.056 243.37C205.544 244.54 207.482 244.027 206.986 242.838Z" fill="#5B1A1A"/>
<path d="M179.447 84.0167C154.84 66.6953 113.62 66.6953 89.0136 84.0167C52.3323 109.839 48.7429 159.997 59.6656 181.843C76.0416 214.593 134.231 215.542 134.231 215.542C134.231 215.542 192.42 214.593 208.795 181.843C219.718 159.997 216.128 109.839 179.447 84.0167Z" fill="#FF9B14"/>
<path d="M194.878 162.907C196.103 159.69 196.782 156.153 196.782 152.437C196.782 137.643 186.038 125.651 172.785 125.651C159.531 125.651 148.787 137.643 148.787 152.437C148.787 154.622 149.047 156.735 149.49 158.769C140.509 162.893 134.847 168.542 134.231 169.174C133.614 168.542 127.953 162.893 118.973 158.769C119.415 156.735 119.674 154.622 119.674 152.437C119.674 137.643 108.931 125.651 95.6766 125.651C82.4246 125.651 71.6792 137.643 71.6792 152.437C71.6792 156.153 72.3592 159.69 73.5845 162.907C68.4139 166.346 63.0939 170.989 57.6992 177.145C58.2899 178.822 58.9432 180.398 59.6659 181.843C76.0419 214.593 134.231 215.542 134.231 215.542C134.231 215.542 192.422 214.593 208.795 181.843C209.518 180.398 210.171 178.822 210.763 177.145C205.369 170.989 200.049 166.346 194.878 162.907Z" fill="#FDE6CE"/>
<path d="M61.3014 155.972C65.7001 157.242 68.9561 155.344 65.0521 148.104C62.2641 142.932 58.4041 139.392 55.8748 137.448C54.8774 142.731 54.3681 147.936 54.2734 152.923C55.9748 153.915 58.4254 155.143 61.3014 155.972Z" fill="#5B1A1A"/>
<path d="M54.7344 163.561C55.4024 169.609 56.7384 175.063 58.625 179.557C60.1424 179.612 62.4371 179.32 64.9104 177.659C68.9357 174.955 66.2704 168.275 54.7344 163.561Z" fill="#5B1A1A"/>
<path d="M72.4634 196.983C74.0834 194.102 76.2954 189.101 73.9461 186.481C71.3234 183.555 67.0914 186.099 63.9688 188.619C66.4207 191.758 69.2967 194.534 72.4634 196.983Z" fill="#5B1A1A"/>
<path d="M89.3894 206.469C89.8374 203.341 90.2547 197.109 86.8267 195.469C83.3414 193.802 80.4441 197.622 78.5254 201.101C81.9894 203.174 85.6561 204.947 89.3894 206.469Z" fill="#5B1A1A"/>
<path d="M207.16 155.972C202.761 157.242 199.504 155.344 203.408 148.104C206.197 142.932 210.056 139.392 212.586 137.448C213.582 142.731 214.093 147.936 214.186 152.923C212.486 153.915 210.036 155.143 207.16 155.972Z" fill="#5B1A1A"/>
<path d="M213.727 163.561C213.059 169.609 211.723 175.063 209.837 179.557C208.321 179.612 206.025 179.32 203.551 177.659C199.527 174.955 202.191 168.275 213.727 163.561Z" fill="#5B1A1A"/>
<path d="M195.998 196.983C194.379 194.102 192.166 189.101 194.515 186.481C197.138 183.555 201.371 186.099 204.493 188.619C202.042 191.758 199.165 194.534 195.998 196.983Z" fill="#5B1A1A"/>
<path d="M179.072 206.469C178.624 203.341 178.208 197.109 181.634 195.469C185.12 193.802 188.017 197.622 189.936 201.101C186.473 203.174 182.806 204.947 179.072 206.469Z" fill="#5B1A1A"/>
<path d="M57.5661 164.843C56.9901 164.553 56.3861 164.271 55.7514 163.992C55.3167 160.501 55.1274 156.967 55.1648 153.425C55.2261 153.459 55.2887 153.492 55.3527 153.527C55.9007 157.389 56.6461 161.411 57.5661 164.843Z" fill="#FF7C0B"/>
<path d="M132.449 214.539C118.069 214.539 102.678 211.098 89.5145 205.49C89.7545 203.33 89.8572 200.343 89.0318 198.119C105.872 205.867 124.333 207.126 134.23 207.126C144.128 207.126 162.588 205.868 179.429 198.119C178.562 200.454 178.718 203.631 178.982 205.807C165.7 211.223 150.584 213.559 137.885 214.368C136.094 214.483 134.28 214.539 132.449 214.539ZM79.0398 200.203C76.9118 198.9 74.8985 197.491 73.0078 195.97C73.9745 194.084 74.9505 191.666 74.9678 189.558C77.7265 191.756 80.6398 193.684 83.6452 195.375C81.8332 196.126 80.2718 198.136 79.0398 200.203ZM64.9825 187.834C63.0092 185.276 61.3118 182.507 59.9238 179.515C61.1172 179.395 62.5638 179.03 64.1078 178.154C65.9532 180.743 67.9745 183.103 70.1358 185.255C68.4332 185.554 66.6092 186.627 64.9825 187.834Z" fill="#FDB96F"/>
<path d="M55.354 153.527C55.29 153.493 55.2273 153.459 55.166 153.426C55.17 153.049 55.1767 152.674 55.186 152.297C55.2393 152.705 55.2953 153.114 55.354 153.527Z" fill="#5B150E"/>
<path d="M59.924 179.515C58.472 176.384 57.3586 173.009 56.628 169.385C56.268 167.601 55.9773 165.803 55.752 163.992C56.3866 164.271 56.9906 164.553 57.5666 164.843C58.188 167.16 58.8893 169.208 59.6653 170.76C60.9906 173.411 62.4813 175.872 64.108 178.153C62.564 179.029 61.1173 179.395 59.924 179.515Z" fill="#5B150E"/>
<path d="M73.0078 195.97C69.9931 193.543 67.2984 190.835 64.9824 187.834C66.6091 186.627 68.4331 185.554 70.1358 185.255C71.6811 186.794 73.2958 188.226 74.9678 189.558C74.9504 191.666 73.9744 194.084 73.0078 195.97Z" fill="#5B150E"/>
<path d="M89.5157 205.489C87.7677 204.745 86.061 203.964 84.3997 203.147C82.5463 202.235 80.757 201.253 79.041 200.203C80.273 198.136 81.8344 196.125 83.6464 195.375C85.4144 196.371 87.213 197.281 89.033 198.119C89.8583 200.343 89.7557 203.329 89.5157 205.489Z" fill="#5B150E"/>
<path d="M189.602 200.51C188.343 198.339 186.718 196.163 184.816 195.375C187.82 193.684 190.734 191.756 193.492 189.558C193.511 191.796 194.611 194.384 195.632 196.312C193.732 197.827 191.714 199.224 189.602 200.51Z" fill="#FDB96F"/>
<path d="M210.893 164.843C211.814 161.411 212.558 157.389 213.106 153.527C213.343 153.4 213.57 153.275 213.787 153.152C213.822 156.736 213.597 160.305 213.097 163.824C212.319 164.156 211.586 164.496 210.893 164.843Z" fill="#FF7C0B"/>
<path d="M203.774 188.055C202.075 186.761 200.133 185.572 198.326 185.255C200.486 183.103 202.508 180.743 204.353 178.155C206 179.087 207.534 179.441 208.77 179.535C207.429 182.631 205.743 185.464 203.774 188.055Z" fill="#FDB96F"/>
<path d="M213.107 153.527C213.317 152.053 213.498 150.601 213.649 149.214C213.729 150.526 213.777 151.842 213.789 153.153C213.571 153.275 213.345 153.401 213.107 153.527Z" fill="#5B150E"/>
<path d="M208.769 179.535C207.533 179.442 205.998 179.087 204.352 178.155C205.978 175.872 207.469 173.411 208.794 170.76C209.57 169.208 210.272 167.16 210.893 164.843C211.586 164.496 212.32 164.156 213.097 163.824C212.376 168.891 211.081 173.854 209.154 178.617C209.029 178.926 208.901 179.231 208.769 179.535Z" fill="#5B150E"/>
<path d="M195.632 196.312C194.611 194.384 193.511 191.796 193.492 189.558C195.164 188.226 196.78 186.794 198.326 185.255C200.132 185.572 202.075 186.762 203.774 188.055C201.431 191.139 198.684 193.879 195.632 196.312Z" fill="#5B150E"/>
<path d="M178.983 205.807C178.719 203.631 178.563 200.453 179.43 198.119C181.249 197.281 183.047 196.371 184.817 195.375C186.718 196.163 188.343 198.339 189.602 200.509C186.267 202.539 182.698 204.292 178.983 205.807Z" fill="#5B150E"/>
<path d="M144.474 71.6003C137.693 70.8496 130.766 70.8496 123.986 71.6003C124.972 91.4376 131.462 98.0723 134.184 98.0723C136.904 98.0723 143.48 91.4376 144.474 71.6003Z" fill="#5B1A1A"/>
<path d="M165.987 76.8414C161.669 75.1294 157.114 73.7867 152.418 72.8321C152.603 78.8281 153.258 89.4201 155.549 90.0427C157.839 90.6654 163.142 81.904 165.987 76.8414Z" fill="#5B1A1A"/>
<path d="M116.044 72.8321C111.347 73.7867 106.792 75.1294 102.475 76.8414C105.32 81.904 110.621 90.6654 112.912 90.0427C115.204 89.4201 115.857 78.8281 116.044 72.8321Z" fill="#5B1A1A"/>
<path d="M179.95 83.1535C144.985 59.3336 92.9837 68.1283 68.945 102.947C51.865 127.687 43.5783 172.084 68.393 194.866C85.0943 210.198 112.372 216.734 134.7 216.53C159.224 216.304 191.316 208.747 206.325 187.834C216.326 173.899 216.629 154.347 213.725 138.108C209.789 116.102 198.145 96.3002 179.95 83.1535C178.906 82.3989 177.906 84.1322 178.941 84.8802C206.153 104.544 222.256 146.232 209.154 178.616C198.481 204.994 163.33 212.747 137.885 214.368C120.158 215.499 100.169 210.907 84.3983 203.147C70.1957 196.156 59.8063 185.147 56.6277 169.386C53.3623 153.199 55.7397 135.66 61.8477 120.43C70.4143 99.0722 87.5344 81.7922 109.88 75.3709C132.602 68.8416 159.176 71.4162 178.941 84.8802C180.008 85.6069 181.009 83.8749 179.95 83.1535Z" fill="#5B1A1A"/>
<path d="M95.4927 135.67C79.898 135.275 76.9367 154.029 82.2687 162.517C84.9327 166.761 88.2647 169.71 95.4927 169.71C102.49 169.71 106.054 166.761 108.719 162.517C114.049 154.029 111.089 135.275 95.4927 135.67Z" fill="white"/>
<path d="M111.41 147.096C108.197 136.323 95.4913 130.347 85.7127 137.553C78.158 143.121 76.8967 155.217 81.4033 163.02C82.0487 164.135 83.7766 163.128 83.1313 162.012C79.5073 155.737 80.014 146.319 85.0193 140.875C92.966 132.232 106.405 137.317 109.482 147.628C109.849 148.859 111.779 148.335 111.41 147.096Z" fill="#5B1A1A"/>
<path d="M109.419 153.246C109.419 159.982 105.001 165.44 99.5528 165.44C94.1035 165.44 89.6875 159.982 89.6875 153.246C89.6875 146.511 94.1035 141.051 99.5528 141.051C105.001 141.051 109.419 146.511 109.419 153.246Z" fill="#5B1A1A"/>
<path d="M172.968 135.67C188.562 135.275 191.524 154.029 186.194 162.517C183.529 166.761 180.197 169.71 172.968 169.71C165.972 169.71 162.406 166.761 159.742 162.517C154.412 154.029 157.373 135.275 172.968 135.67Z" fill="white"/>
<path d="M158.98 147.628C162.062 137.295 175.502 132.243 183.441 140.875C188.445 146.316 188.952 155.74 185.329 162.012C184.685 163.128 186.413 164.136 187.057 163.02C191.564 155.218 190.304 143.122 182.75 137.554C172.977 130.351 160.265 136.326 157.05 147.096C156.682 148.332 158.612 148.86 158.98 147.628Z" fill="#5B1A1A"/>
<path d="M159.045 153.246C159.045 159.982 163.461 165.44 168.91 165.44C174.358 165.44 178.774 159.982 178.774 153.246C178.774 146.511 174.358 141.051 168.91 141.051C163.461 141.051 159.045 146.511 159.045 153.246Z" fill="#5B1A1A"/>
<path d="M80.0822 180.891C65.0476 177.444 69.8569 167.164 80.0822 169.61C94.2369 172.994 92.3822 183.711 80.0822 180.891Z" fill="#FFB6C3"/>
<path d="M188.379 180.891C203.412 177.444 198.603 167.164 188.379 169.61C174.223 172.994 176.078 183.711 188.379 180.891Z" fill="#FFB6C3"/>
<path d="M88.6369 133.788C91.2755 132.658 94.8862 131.86 99.0689 133.363C102.061 134.438 103.718 132.042 101.526 130.327C99.0009 128.351 92.6689 127.203 88.2435 129.376C83.8182 131.551 84.1209 133.035 84.4742 133.879C84.8275 134.723 86.1555 134.851 88.6369 133.788Z" fill="#5B1A1A"/>
<path d="M179.826 133.788C177.186 132.658 173.575 131.86 169.393 133.363C166.401 134.438 164.743 132.042 166.937 130.327C169.461 128.351 175.793 127.203 180.218 129.376C184.646 131.551 184.342 133.035 183.989 133.879C183.634 134.723 182.307 134.851 179.826 133.788Z" fill="#5B1A1A"/>
<path d="M140.611 186.066C140.611 192.782 139.105 197.335 133.957 197.335C128.809 197.335 127.301 192.824 127.301 186.107L133.957 183.606C133.957 183.606 140.611 185.578 140.611 186.066Z" fill="#FF5258"/>
<path d="M121.352 158.418C123.961 154.328 125.853 149.711 127.692 145.247C128.181 144.058 126.246 143.539 125.764 144.715C123.992 149.016 122.14 153.468 119.624 157.408C118.93 158.496 120.66 159.5 121.352 158.418Z" fill="#5B1A1A"/>
<path d="M148.288 157.409C145.774 153.467 143.922 149.017 142.151 144.715C141.667 143.541 139.731 144.055 140.222 145.247C142.06 149.714 143.951 154.329 146.562 158.418C147.252 159.499 148.984 158.498 148.288 157.409Z" fill="#5B1A1A"/>
<path d="M132.957 169.238C132.957 173.89 132.957 178.542 132.957 183.194C132.957 184.482 134.957 184.483 134.957 183.194C134.957 178.542 134.957 173.89 134.957 169.238C134.957 167.951 132.957 167.948 132.957 169.238Z" fill="#5B1A1A"/>
<path d="M133.451 182.742C131.196 183.872 128.638 184.651 126.14 184.968C119.928 185.758 116.144 182.38 115.355 176.215C115.194 174.956 113.192 174.94 113.355 176.215C114.115 182.163 117.198 186.846 123.595 187.095C127.283 187.239 131.176 186.115 134.46 184.47C135.611 183.892 134.6 182.167 133.451 182.742Z" fill="#5B1A1A"/>
<path d="M134 184.47C137.284 186.115 141.177 187.239 144.866 187.095C151.265 186.846 154.344 182.164 155.105 176.215C155.269 174.943 153.268 174.955 153.105 176.215C152.318 182.371 148.53 185.758 142.321 184.968C139.824 184.651 137.265 183.872 135.009 182.742C133.862 182.167 132.848 183.892 134 184.47Z" fill="#5B1A1A"/>
<path d="M149.109 158.611C147.245 153.019 120.669 153.019 118.805 158.611C116.94 164.205 133.957 172.319 133.957 172.319C133.957 172.319 150.973 164.205 149.109 158.611Z" fill="#5B1A1A"/>
<path d="M144.297 159.811C144.265 159.811 144.231 159.807 144.197 159.797C139.125 158.511 134.546 157.779 129.674 157.779C127.719 157.779 125.715 157.896 123.614 158.144C123.603 158.145 123.593 158.147 123.583 158.147C123.294 158.147 123.242 157.644 123.539 157.592C126.67 157.045 130.182 156.531 133.654 156.531C137.511 156.531 141.318 157.167 144.493 159.097C144.835 159.307 144.654 159.811 144.297 159.811Z" fill="#7F2424"/>
<path d="M112.895 163.788C116.36 165.459 119.642 167.353 123.028 169.152C123.423 169.363 123.923 168.801 123.534 168.499C120.538 166.169 116.656 164.483 112.992 163.56C112.859 163.527 112.763 163.724 112.895 163.788Z" fill="#5B1A1A"/>
<path d="M99.8576 170.048C107.408 169.568 114.419 169.626 121.739 171.871C122.394 172.071 122.676 171.042 122.022 170.846C114.894 168.706 107.096 167.772 99.8016 169.639C99.5789 169.696 99.6176 170.064 99.8576 170.048Z" fill="#5B1A1A"/>
<path d="M103.099 175.763C109.187 173.828 114.907 173.693 121.161 174.705C121.808 174.809 122.103 173.871 121.437 173.7C115.299 172.131 108.739 172.975 102.985 175.497C102.833 175.564 102.941 175.813 103.099 175.763Z" fill="#5B1A1A"/>
<path d="M155.469 163.56C151.805 164.483 147.922 166.171 144.928 168.499C144.541 168.799 145.033 169.366 145.433 169.152C148.82 167.354 152.101 165.459 155.565 163.788C155.697 163.726 155.602 163.526 155.469 163.56Z" fill="#5B1A1A"/>
<path d="M168.658 169.639C161.365 167.772 153.566 168.706 146.438 170.846C145.785 171.042 146.065 172.071 146.721 171.871C154.046 169.624 161.053 169.568 168.602 170.048C168.839 170.063 168.883 169.696 168.658 169.639Z" fill="#5B1A1A"/>
<path d="M165.475 175.497C159.721 172.975 153.162 172.131 147.022 173.7C146.359 173.869 146.651 174.809 147.298 174.705C153.545 173.695 159.289 173.832 165.362 175.763C165.517 175.813 165.627 175.564 165.475 175.497Z" fill="#5B1A1A"/>
<path d="M102.625 79.3887C102.625 79.3887 92.0073 82.6514 79.9206 73.7967C67.8326 64.9421 54.7846 68.2914 53.0753 79.9768C51.3673 91.6608 60.2206 105.175 74.3566 106.107L102.625 79.3887Z" fill="#FF9B14"/>
<path d="M97.5033 78.9746C90.9966 78.7813 85.8593 76.368 80.4246 72.932C76.9193 70.7173 73.542 68.732 69.378 68.0533C63.4927 67.092 57.354 68.8826 54.1006 74.14C46.19 86.9253 57.8806 103.009 70.3526 106.511C71.594 106.86 72.1233 104.931 70.8846 104.583C63.3446 102.465 57.218 96.9786 54.8886 89.3813C52.77 82.472 53.8167 73.2893 61.578 70.6066C70.178 67.6333 76.4606 73.4826 83.49 77.2453C87.8513 79.5786 92.5713 80.8279 97.5033 80.9746C98.7913 81.0133 98.79 79.0133 97.5033 78.9746Z" fill="#5B1A1A"/>
<path d="M90.8229 87.4404C90.8229 87.4404 85.0749 87.9324 76.9976 82.0297C68.9202 76.1257 61.1536 76.4377 59.8909 84.9804C58.4669 94.6337 68.4536 101.758 75.5216 102.068L90.8229 87.4404Z" fill="#FDE6CE"/>
<path d="M71.5813 105.364C71.536 105.02 71.3187 104.706 70.8853 104.583C63.3453 102.466 57.2187 96.9789 54.8893 89.3816C53.0533 83.3896 53.5947 75.6896 58.832 72.0003C57.6253 75.251 58.228 79.3416 60.2453 83.3229C60.0973 83.8363 59.9787 84.3883 59.8907 84.9803C58.484 94.5163 68.212 101.583 75.2613 102.054L71.5813 105.364ZM79.9093 97.8723L79.9187 97.8643C79.92 97.8643 79.92 97.8643 79.92 97.8643L79.9093 97.8723Z" fill="#FF7C0B"/>
<path d="M71.25 105.663C58.9513 103.116 51.4953 90.7751 53.0753 79.9751C53.7527 75.3471 56.2247 72.0524 59.6953 70.2804C59.3433 70.8204 59.0567 71.3965 58.8327 72.0005C53.5953 75.6898 53.054 83.3898 54.89 89.3818C57.2193 96.9791 63.346 102.466 70.886 104.583C71.3193 104.706 71.5366 105.02 71.582 105.364L71.25 105.663Z" fill="#5B150E"/>
<path d="M75.2616 102.054C68.2122 101.583 58.4842 94.5164 59.8909 84.9804C59.9789 84.3884 60.0976 83.8364 60.2456 83.323C63.5629 89.8697 70.7056 96.1217 79.9202 97.8644L79.9096 97.8724L75.2616 102.054Z" fill="#FDB96F"/>
<path d="M90.822 86.4406C82.1474 86.9232 68.1301 69.7206 60.5941 80.2206C53.2381 90.4686 65.8247 102.121 75.5207 103.069C76.8007 103.194 76.7927 101.193 75.5207 101.069C70.0514 100.534 64.6581 97.1552 62.0941 92.2286C60.4287 89.0286 59.9407 83.2979 62.8781 80.5712C66.0501 77.6259 70.9914 79.5633 74.0874 81.3313C79.246 84.2766 84.434 88.7966 90.822 88.4406C92.102 88.3699 92.11 86.3699 90.822 86.4406Z" fill="#5B1A1A"/>
<path d="M89.9028 82.4229C89.8921 82.4229 89.8814 82.4215 89.8708 82.4188C82.5468 80.5335 75.0201 74.4175 67.5561 74.4175C65.3134 74.4175 63.0761 74.9708 60.8521 76.3548C60.7374 76.4268 60.6254 76.4589 60.5227 76.4589C60.0107 76.4589 59.7148 75.6762 60.2294 75.2895C62.6134 73.4962 65.0521 72.7868 67.5108 72.7868C75.1494 72.7868 82.9774 79.6441 89.9294 82.2081C90.0481 82.2521 90.0161 82.4229 89.9028 82.4229Z" fill="#FFC31C"/>
<path d="M165.836 79.3887C165.836 79.3887 176.453 82.6514 188.541 73.7967C200.628 64.9421 213.676 68.2914 215.385 79.9768C217.095 91.6608 208.24 105.175 194.103 106.107L165.836 79.3887Z" fill="#FF9B14"/>
<path d="M170.956 80.9753C175.881 80.8286 180.618 79.5927 184.969 77.246C191.913 73.502 198.373 67.5527 206.881 70.6073C214.601 73.3793 215.753 82.414 213.57 89.382C211.193 96.97 205.145 102.458 197.574 104.583C196.337 104.931 196.864 106.862 198.106 106.511C210.585 103.007 222.273 86.9313 214.358 74.1407C211.13 68.9233 205.061 67.1193 199.213 68.0353C194.98 68.6993 191.594 70.6847 188.036 72.9327C182.601 76.3687 177.462 78.782 170.956 78.9753C169.672 79.014 169.665 81.014 170.956 80.9753Z" fill="#5B1A1A"/>
<path d="M177.639 87.4404C177.639 87.4404 183.385 87.9324 191.463 82.0297C199.541 76.1257 207.308 76.4377 208.569 84.9804C209.993 94.6337 200.007 101.758 192.939 102.068L177.639 87.4404Z" fill="#FDE6CE"/>
<path d="M196.878 105.364L193.198 102.054C200.249 101.583 209.976 94.5163 208.569 84.9803C208.482 84.3883 208.364 83.8362 208.216 83.3229C210.224 79.3589 210.829 75.2869 209.644 72.0416C214.85 75.7682 215.46 83.3496 213.57 89.3816C211.193 96.9696 205.145 102.458 197.574 104.583C197.141 104.704 196.925 105.02 196.878 105.364Z" fill="#FF7C0B"/>
<path d="M197.212 105.663L196.879 105.364C196.926 105.02 197.142 104.704 197.575 104.583C205.146 102.458 211.194 96.9698 213.571 89.3818C215.46 83.3498 214.851 75.7684 209.644 72.0417C209.418 71.4231 209.126 70.8337 208.767 70.2804C212.236 72.0524 214.71 75.3471 215.386 79.9751C216.966 90.7751 209.51 103.116 197.212 105.663Z" fill="#5B150E"/>
<path d="M193.198 102.054L188.55 97.8724L188.541 97.8644C197.754 96.1217 204.898 89.8697 208.216 83.323C208.364 83.8364 208.482 84.3884 208.569 84.9804C209.976 94.5164 200.249 101.583 193.198 102.054Z" fill="#FDB96F"/>
<path d="M177.639 88.4406C184.025 88.7966 189.219 84.2699 194.374 81.3313C197.307 79.6593 200.539 78.3113 203.762 79.8006C207.966 81.7433 208.299 86.8686 206.87 90.8966C204.85 96.5806 198.798 100.495 192.939 101.069C191.67 101.193 191.658 103.194 192.939 103.069C202.641 102.119 215.226 90.4753 207.867 80.2206C200.323 69.7099 186.363 86.9259 177.639 86.4406C176.353 86.3699 176.357 88.3699 177.639 88.4406Z" fill="#5B1A1A"/>
<path d="M178.557 82.4229C178.443 82.4229 178.411 82.2521 178.531 82.2081C185.477 79.6468 193.31 72.7882 200.951 72.7882C203.41 72.7882 205.849 73.4989 208.23 75.2895C208.745 75.6775 208.45 76.4589 207.937 76.4589C207.834 76.4589 207.723 76.4268 207.607 76.3548C205.402 74.9815 203.177 74.4335 200.939 74.4335C193.478 74.4335 185.903 80.5361 178.589 82.4188C178.577 82.4215 178.566 82.4229 178.557 82.4229Z" fill="#FFC31C"/>
</g>
</svg>
