<svg width="263" height="263" viewBox="0 0 263 263" fill="none" xmlns="http://www.w3.org/2000/svg">
<circle cx="131.5" cy="131.5" r="131.5" fill="#BBE878"/>
<mask id="mask0_346_12582" style="mask-type:alpha" maskUnits="userSpaceOnUse" x="0" y="0" width="263" height="263">
<circle cx="131.5" cy="131.5" r="131.5" fill="#D9D9D9"/>
</mask>
<g mask="url(#mask0_346_12582)">
<path d="M223.527 71.2933C198.793 12.5812 114.006 29.0268 82.1353 51.9617C37.175 84.316 12.3725 128.871 31.8788 159.554C51.385 190.237 14.3747 186.936 36.3987 216.835C58.4242 246.733 111.156 254.202 131.881 253.715C161.875 253.011 204.826 245.575 229.284 228.297C260.653 206.138 268.729 144.108 237.001 126.372C206.609 109.381 234.675 97.7585 223.527 71.2933Z" fill="#CDEE9C"/>
<path d="M14.375 159.553C11.5536 168.403 27.6842 186.882 31.879 177.249C36.0739 167.617 18.6586 146.114 14.375 159.553Z" fill="#CDEE9C"/>
<path d="M18.3736 193.652C10.8332 193.571 8.17933 180.959 20.6035 182.869C33.029 184.781 28.5678 193.764 18.3736 193.652Z" fill="#CDEE9C"/>
<path d="M231.11 109.05C226.931 104.786 229.441 78.6546 238.786 86.8437C248.13 95.0329 237.31 115.376 231.11 109.05Z" fill="#CDEE9C"/>
<path d="M238.309 123.875C230.711 120.166 229.591 109.34 240.625 114.681C251.657 120.02 250.989 130.067 238.309 123.875Z" fill="#CDEE9C"/>
<path d="M84.8896 78.7424C97.6403 68.8117 116.91 61.9831 134.586 61.9831C152.262 61.9831 171.532 68.8117 184.281 78.7424C218.172 105.143 222.21 146.197 220.005 183.33C218.258 212.797 211.705 233.294 206.552 247.282C206.552 247.282 172.135 263.542 134.586 262.806C97.0359 263.542 62.6221 247.282 62.6221 247.282C57.4677 233.294 50.9141 212.797 49.1654 183.33C46.9627 146.197 50.9986 105.143 84.8896 78.7424Z" fill="#AD836D"/>
<path d="M137.076 262.83C169.87 262.83 199.722 250.326 205.533 247.745C199.718 250.327 169.872 262.83 137.076 262.83Z" fill="#DECDC5"/>
<path d="M132.097 262.83C132.923 262.83 133.755 262.821 134.586 262.806C133.754 262.821 132.925 262.83 132.097 262.83Z" fill="#DECDC5"/>
<path d="M132.096 262.83C132.095 262.83 132.091 262.83 132.088 262.83C99.2967 262.827 69.4515 250.326 63.6412 247.745C63.7428 247.542 63.7643 247.288 63.6569 246.997C55.8057 225.549 51.2815 203.24 50.0713 180.552C50.743 186.872 51.6309 192.724 52.6564 198.14C54.269 206.657 57.6676 214.531 62.4611 221.344C59.9419 225.161 60.3815 232.684 65.2925 236.932C67.0455 238.449 68.5507 239.083 69.8038 239.083C72.2213 239.083 73.7037 236.723 74.225 233.778C81.0536 239.169 89.1139 243.089 97.9604 245.063C108.222 247.351 119.954 249.064 132.092 249.064C132.921 249.064 133.753 249.057 134.587 249.04C135.42 249.057 136.251 249.064 137.082 249.064C149.218 249.064 160.952 247.351 171.212 245.063C184.984 241.991 196.851 234.202 205.13 223.488C204.762 224.002 204.413 224.621 204.096 225.353C202.62 228.764 204.517 232.14 206.903 232.14C208.151 232.141 209.531 231.219 210.634 228.899C212.648 224.664 210.833 221.429 208.407 221.429C207.442 221.429 206.379 221.941 205.421 223.107C207.085 220.92 208.599 218.613 209.951 216.2C211.625 214.918 212.473 212.81 212.724 210.577C214.415 206.634 215.697 202.47 216.517 198.14C217.652 192.151 218.617 185.626 219.307 178.525C218.298 201.88 213.553 225.044 205.515 246.997C205.409 247.288 205.431 247.542 205.533 247.745C199.722 250.326 169.87 262.83 137.076 262.83C136.25 262.83 135.416 262.821 134.587 262.806C133.756 262.821 132.924 262.83 132.098 262.83H132.096Z" fill="#976954"/>
<path d="M117.986 212.93C119.48 208.832 120.999 206.41 120.999 206.41L119.834 206.032C129.074 202.913 134.587 194.281 134.587 194.281C134.587 194.281 140.1 202.913 149.338 206.031L148.172 206.41C148.172 206.41 149.692 208.832 151.187 212.93C140.841 210.435 134.587 200.644 134.587 200.644C134.587 200.644 128.334 210.436 117.986 212.93ZM98.8179 208.271C94.9482 204.739 93.5346 199.254 94.3882 193.303C95.0298 197.34 96.9761 200.809 100.31 203.085C99.6314 204.864 99.143 206.594 98.8179 208.271ZM170.354 208.269C170.03 206.594 169.54 204.864 168.863 203.085C172.195 200.809 174.143 197.34 174.785 193.303C175.637 199.254 174.223 204.739 170.354 208.269Z" fill="#976954"/>
<path d="M116.623 240.098C116.623 240.098 115.247 239.15 113.393 237.358C113.409 237.223 113.399 237.084 113.362 236.948C112.308 233.11 111.893 229.425 111.893 225.996C111.891 219.625 113.329 214.134 114.768 210.243C115.247 208.949 115.725 207.834 116.149 206.921C117.435 206.732 118.664 206.426 119.834 206.032L121 206.41C121 206.41 119.48 208.832 117.986 212.929C115.747 219.066 113.563 228.96 116.623 240.098Z" fill="#976954"/>
<path d="M152.55 240.098C155.609 228.96 153.425 219.066 151.187 212.929C149.691 208.832 148.172 206.41 148.172 206.41L149.338 206.03C150.509 206.426 151.737 206.732 153.024 206.921C154.721 210.576 157.285 217.508 157.281 225.996C157.279 229.425 156.864 233.11 155.81 236.948C155.772 237.084 155.764 237.223 155.78 237.358C153.925 239.15 152.55 240.098 152.55 240.098Z" fill="#976954"/>
<path d="M74.2239 233.777C69.7254 230.226 65.7611 226.035 62.46 221.343C63.3723 219.961 64.6712 219.066 66.2853 218.986C66.3956 218.98 66.503 218.977 66.6104 218.977C71.0244 218.977 73.6252 223.517 74.3313 229.518C74.5003 230.946 74.4631 232.424 74.2239 233.777Z" fill="#976954"/>
<path d="M69.8036 239.082C68.5504 239.082 67.0452 238.448 65.2922 236.931C60.3813 232.683 59.9416 225.16 62.4608 221.343C65.762 226.035 69.7263 230.225 74.2247 233.777C73.7034 236.722 72.2211 239.082 69.8036 239.082Z" fill="#835541"/>
<path d="M205.131 223.487C205.227 223.353 205.324 223.227 205.422 223.106C205.326 223.234 205.228 223.361 205.131 223.487Z" fill="#976954"/>
<path d="M206.903 232.14C204.517 232.14 202.62 228.764 204.096 225.353C204.413 224.621 204.762 224.002 205.13 223.488C205.228 223.362 205.325 223.234 205.421 223.107C206.379 221.941 207.442 221.428 208.407 221.428C210.833 221.428 212.648 224.664 210.634 228.899C209.531 231.219 208.151 232.141 206.903 232.14Z" fill="#835541"/>
<path d="M197.217 229.684C194.757 229.684 192.619 226.61 195.785 224.442C196.487 223.962 197.164 223.757 197.774 223.757C200.156 223.757 201.514 226.871 199.221 228.899C198.598 229.45 197.895 229.684 197.217 229.684ZM80.5636 227.671C77.0519 227.671 75.6054 222.599 79.1027 221.113C79.8131 220.811 80.5049 220.678 81.1508 220.678C84.7699 220.678 86.9568 224.854 82.7391 227.078C81.9528 227.492 81.2224 227.671 80.5636 227.671ZM199.589 221.277C198.612 221.277 197.517 220.9 196.461 220.034C192.417 216.715 193.813 211.969 196.961 211.969C198.011 211.969 199.257 212.499 200.56 213.785C204.496 217.669 202.611 221.277 199.589 221.277ZM207.373 217.275C203.3 217.275 203.639 204.101 207.977 201.56C208.325 201.357 208.666 201.262 208.998 201.262C211.383 201.262 213.217 206.164 212.723 210.577C211.896 212.506 210.969 214.382 209.951 216.2C209.389 216.631 208.733 216.967 207.977 217.186C207.765 217.247 207.565 217.275 207.373 217.275Z" fill="#976954"/>
<path d="M209.951 216.199C210.969 214.382 211.896 212.506 212.724 210.576C212.473 212.809 211.625 214.917 209.951 216.199Z" fill="#835541"/>
<path d="M74.8865 216.89C73.8783 216.89 72.6724 216.646 71.3491 216.076C65.2623 213.455 65.9526 210.115 69.7765 210.115C70.9466 210.115 72.4103 210.429 74.0616 211.17C79.5941 213.652 78.5586 216.89 74.8865 216.89ZM61.3167 214.753C59.3875 214.753 56.9299 211.414 59.3274 209.325C59.7069 208.994 60.0793 208.851 60.4302 208.851C62.418 208.851 63.7428 213.438 62.1287 214.514C61.8824 214.678 61.6045 214.753 61.3167 214.753ZM138.964 106.396C138.2 106.396 137.374 106.174 136.499 105.671C130.375 102.158 137.189 93.764 141.221 93.764C141.64 93.764 142.03 93.8542 142.371 94.0504C146.422 96.3791 144.094 106.396 138.964 106.396ZM126.674 104.275C124.702 104.275 123.55 102.234 123.404 100.192C123.26 98.1508 124.121 96.1085 126.177 96.1085C126.325 96.1085 126.476 96.1185 126.635 96.14C130.736 96.6942 131.734 103.454 127.191 104.23C127.012 104.26 126.84 104.275 126.674 104.275ZM153.386 103.584C153.023 103.584 152.647 103.543 152.258 103.454C147.545 102.371 149.933 93.8872 154.637 93.8872C155.005 93.8872 155.388 93.9387 155.782 94.0504C160.847 95.4826 158.431 103.586 153.386 103.584ZM120.209 94.0504C119.082 94.0504 117.666 93.6867 115.997 92.8159C111.109 90.2652 112.311 85.5863 116.202 85.5863C117.194 85.5863 118.36 85.8899 119.645 86.6103C124.59 89.383 124.248 94.0504 120.209 94.0504ZM132.239 91.1646C122.359 91.1632 123.011 67.4048 129.629 66.2204C130.017 66.1502 130.395 66.1172 130.766 66.1172C140.467 66.1172 144.286 89.0149 133.507 91.0428C133.066 91.1259 132.645 91.1646 132.239 91.1646ZM147.781 89.9673C147.386 89.9673 146.969 89.92 146.537 89.8183C142.895 88.9619 144.403 82.858 147.865 82.858C148.372 82.858 148.92 82.9883 149.5 83.2862C153.623 85.3972 151.68 89.9673 147.781 89.9673ZM159.905 85.095C159.196 85.095 158.443 84.9819 157.665 84.727C154.122 83.5655 154.632 77.5603 159.935 77.5603C160.492 77.5603 161.102 77.6262 161.764 77.7709C167.901 79.1114 165.048 85.095 159.905 85.095ZM116.69 80.4362C112.927 80.4362 108.147 73.6677 111.897 70.5427C112.487 70.0514 113.127 69.8352 113.779 69.8352C117.535 69.8352 121.663 77.0004 118.545 79.7401C117.995 80.2242 117.359 80.4376 116.69 80.4362ZM146.222 77.7723C141.163 77.7694 140.526 67.0467 144.588 66.1172C144.774 66.0743 144.96 66.0542 145.146 66.0542C149.262 66.0542 152.973 76.1497 147.247 77.6334C146.888 77.7279 146.546 77.7723 146.222 77.7723ZM156.425 74.1045C154.851 74.1045 154.155 73.0375 154.236 71.9691C154.317 70.9021 155.176 69.8338 156.713 69.8338C156.734 69.8338 156.756 69.8338 156.778 69.8352C160.323 69.9039 160.323 73.7551 156.778 74.0873C156.655 74.0988 156.538 74.1045 156.425 74.1045Z" fill="#976954"/>
<path d="M63.6565 246.997C53.8074 220.092 49.1958 191.832 49.7916 163.167C50.4002 133.864 58.0567 104.206 80.4573 83.8677C107.16 59.6223 148.121 56.7207 178.435 75.9506C204.892 92.7328 216.632 122.922 218.906 153.003C221.313 184.862 216.475 217.056 205.515 246.997C205.039 248.297 207.115 248.857 207.586 247.568C218.175 218.644 222.897 187.862 221.31 157.068C219.755 126.885 209.69 97.0423 185.041 77.9828C158.86 57.7376 122.192 55.923 93.5044 71.8159C66.6554 86.689 52.6373 115.404 48.9265 144.904C44.597 179.328 49.7071 215.12 61.5855 247.568C62.0567 248.856 64.1334 248.3 63.6565 246.997Z" fill="#451816"/>
<path d="M54.6361 179.979C54.5602 179.979 54.4829 179.931 54.4757 179.835C51.2748 138.928 65.1497 95.2405 101.801 73.1892C101.905 73.1262 102.013 73.099 102.117 73.099C102.666 73.099 103.137 73.8495 102.624 74.2562C86.3603 87.1902 72.5856 99.7045 64.7945 119.54C57.2813 138.671 54.1606 159.338 54.7765 179.835C54.7808 179.932 54.7092 179.979 54.6361 179.979Z" fill="#CEB599"/>
<path d="M92.9773 131.419C76.2266 130.995 73.0457 151.137 78.7701 160.256C81.6331 164.814 85.2121 167.982 92.9773 167.982C100.491 167.982 104.322 164.814 107.183 160.256C112.909 151.137 109.727 130.995 92.9773 131.419Z" fill="white"/>
<path d="M110.074 143.693C106.621 132.121 92.9734 125.702 82.4698 133.443C74.3551 139.424 73.0031 152.416 77.8439 160.797C78.5342 161.995 80.3917 160.913 79.6971 159.713C75.8073 152.976 76.3501 142.859 81.7265 137.01C90.2608 127.727 104.699 133.189 108.003 144.264C108.398 145.585 110.472 145.023 110.074 143.693Z" fill="#451816"/>
<path d="M107.934 150.297C107.934 157.531 103.191 163.396 97.3374 163.396C91.4855 163.396 86.7393 157.531 86.7393 150.297C86.7393 143.063 91.4855 137.197 97.3374 137.197C103.191 137.197 107.934 143.063 107.934 150.297Z" fill="#451816"/>
<path d="M176.195 131.419C192.946 130.995 196.125 151.137 190.401 160.256C187.538 164.814 183.959 167.982 176.195 167.982C168.681 167.982 164.852 164.814 161.988 160.256C156.264 151.137 159.444 130.995 176.195 131.419Z" fill="white"/>
<path d="M161.17 144.265C164.481 133.165 178.919 127.739 187.446 137.011C192.821 142.855 193.365 152.978 189.474 159.714C188.781 160.914 190.636 161.996 191.329 160.798C196.171 152.417 194.815 139.424 186.701 133.443C176.205 125.707 162.551 132.124 159.098 143.693C158.702 145.021 160.775 145.588 161.17 144.265Z" fill="#451816"/>
<path d="M161.238 150.297C161.238 157.531 165.985 163.396 171.835 163.396C177.688 163.396 182.433 157.531 182.433 150.297C182.433 143.063 177.688 137.197 171.835 137.197C165.985 137.197 161.238 143.063 161.238 150.297Z" fill="#451816"/>
<path d="M76.4224 179.993C60.276 176.29 65.439 165.248 76.4224 167.875C91.6278 171.51 89.6356 183.023 76.4224 179.993Z" fill="#FFB6C3"/>
<path d="M192.748 179.993C208.894 176.29 203.731 165.248 192.748 167.875C177.544 171.51 179.534 183.023 192.748 179.993Z" fill="#FFB6C3"/>
<path d="M85.6126 129.397C88.4483 128.183 92.3266 127.326 96.8194 128.94C100.032 130.095 101.812 127.521 99.4574 125.678C96.7463 123.557 89.9449 122.324 85.1901 124.659C80.4352 126.994 80.7618 128.586 81.1413 129.494C81.5223 130.401 82.9473 130.539 85.6126 129.397Z" fill="#451816"/>
<path d="M183.561 129.397C180.725 128.183 176.847 127.326 172.356 128.94C169.142 130.095 167.36 127.521 169.716 125.678C172.427 123.557 179.229 122.324 183.983 124.659C188.737 126.994 188.412 128.586 188.031 129.494C187.651 130.401 186.225 130.539 183.561 129.397Z" fill="#451816"/>
<path d="M116.702 203.547C116.702 203.547 107.223 218.662 112.326 237.234C112.326 237.234 90.7871 222.387 103.28 199.191L116.702 203.547Z" fill="white"/>
<path d="M116.702 203.546L115.793 202.975C115.74 203.069 109.752 212.603 109.743 225.997C109.743 229.599 110.18 233.48 111.29 237.519L112.325 237.234L112.934 236.35L112.908 236.332C112.586 236.104 109.435 233.821 106.402 229.878C103.363 225.93 100.455 220.36 100.457 213.497C100.458 209.382 101.494 204.778 104.226 199.701L103.28 199.191L102.949 200.213L116.371 204.567L116.702 203.546L117.034 202.524L103.612 198.17C103.118 198.009 102.581 198.226 102.334 198.682C99.4486 204.036 98.3072 209.017 98.3086 213.497C98.31 221.228 101.683 227.389 105.011 231.588C108.347 235.793 111.658 238.077 111.715 238.117C112.086 238.374 112.579 238.371 112.947 238.109C113.315 237.848 113.48 237.384 113.361 236.949C112.307 233.111 111.891 229.426 111.891 225.997C111.89 219.625 113.328 214.134 114.767 210.243C115.486 208.298 116.205 206.756 116.741 205.703C117.007 205.177 117.229 204.775 117.382 204.507C117.46 204.373 117.518 204.272 117.557 204.206L117.601 204.135L117.613 204.116C117.788 203.837 117.825 203.489 117.712 203.178C117.6 202.869 117.348 202.625 117.034 202.524L116.702 203.546Z" fill="#451816"/>
<path d="M106.421 211.649C105.345 211.052 104.257 210.466 103.234 209.782C102.319 209.169 101.404 208.255 100.294 208.066C99.9132 208.002 99.5781 208.364 99.7829 208.732C100.32 209.704 101.446 210.163 102.434 210.569C103.718 211.098 105.02 211.506 106.395 211.711L106.421 211.649Z" fill="#451816"/>
<path d="M103.39 214.798C102.542 214.412 101.777 213.93 101.045 213.357C100.469 212.906 99.9094 212.204 99.1174 212.396C98.8911 212.452 98.7436 212.674 98.735 212.899C98.7049 213.801 99.7991 214.245 100.514 214.525C101.403 214.875 102.34 215.07 103.288 215.173C103.484 215.194 103.567 214.878 103.39 214.798Z" fill="#451816"/>
<path d="M105.065 221.487C106.976 222.272 108.766 222.688 110.825 222.807C111.748 222.86 111.759 221.359 110.825 221.364C108.938 221.374 106.997 221.288 105.122 221.059C104.857 221.026 104.86 221.402 105.065 221.487Z" fill="#451816"/>
<path d="M104.64 223.596C105.696 224.392 107.144 225.17 108.51 224.959C109.046 224.878 108.997 224.043 108.51 223.924C107.894 223.775 107.233 223.828 106.602 223.735C105.971 223.642 105.356 223.536 104.745 223.349C104.587 223.302 104.527 223.51 104.64 223.596Z" fill="#451816"/>
<path d="M152.469 203.547C152.469 203.547 161.948 218.662 156.847 237.234C156.847 237.234 178.387 222.387 165.891 199.191L152.469 203.547Z" fill="white"/>
<path d="M152.469 203.546L151.559 204.116L151.569 204.135C151.863 204.602 157.288 213.656 157.281 225.997C157.279 229.426 156.864 233.111 155.81 236.949C155.691 237.384 155.857 237.848 156.224 238.109C156.592 238.371 157.085 238.374 157.456 238.117C157.513 238.077 160.824 235.793 164.16 231.588C167.489 227.389 170.862 221.228 170.864 213.497C170.865 209.017 169.722 204.036 166.836 198.682C166.591 198.226 166.053 198.009 165.56 198.17L152.138 202.524C151.823 202.625 151.572 202.869 151.459 203.178C151.346 203.489 151.383 203.837 151.559 204.116L152.469 203.546L152.799 204.567L166.222 200.213L165.891 199.191L164.946 199.701C167.678 204.778 168.714 209.382 168.715 213.497C168.717 220.58 165.619 226.289 162.477 230.255C160.907 232.233 159.335 233.768 158.159 234.802C157.572 235.319 157.083 235.711 156.747 235.971C156.578 236.101 156.447 236.198 156.36 236.261L156.262 236.332L156.237 236.35L156.847 237.234L157.882 237.519C158.991 233.48 159.429 229.599 159.429 225.997C159.419 212.603 153.431 203.069 153.378 202.975L152.469 203.546Z" fill="#451816"/>
<path d="M162.777 211.711C164.154 211.506 165.453 211.099 166.739 210.569C167.725 210.163 168.853 209.703 169.39 208.732C169.596 208.363 169.261 208.002 168.88 208.066C167.771 208.255 166.85 209.17 165.938 209.782C164.916 210.466 163.828 211.052 162.753 211.649L162.777 211.711Z" fill="#451816"/>
<path d="M165.882 215.173C166.83 215.07 167.768 214.876 168.658 214.525C169.377 214.243 170.465 213.804 170.435 212.899C170.428 212.674 170.28 212.452 170.053 212.396C169.265 212.204 168.701 212.907 168.126 213.357C167.393 213.931 166.631 214.412 165.782 214.798C165.603 214.878 165.687 215.194 165.882 215.173Z" fill="#451816"/>
<path d="M164.049 221.059C162.174 221.288 160.234 221.374 158.348 221.364C157.414 221.359 157.422 222.86 158.348 222.807C160.407 222.688 162.196 222.272 164.106 221.487C164.31 221.404 164.317 221.026 164.049 221.059Z" fill="#451816"/>
<path d="M164.427 223.349C163.816 223.536 163.2 223.642 162.57 223.735C161.938 223.828 161.277 223.775 160.664 223.924C160.177 224.043 160.126 224.878 160.664 224.959C162.03 225.17 163.476 224.392 164.53 223.596C164.642 223.51 164.585 223.302 164.427 223.349Z" fill="#451816"/>
<path d="M134.587 156.714C98.3082 156.893 84.4734 193.938 101.18 203.633C121.194 215.247 134.587 194.281 134.587 194.281C134.587 194.281 147.979 215.247 167.992 203.633C184.699 193.938 170.865 156.893 134.587 156.714Z" fill="#C9ADA0"/>
<path d="M101.122 203.597C101.119 203.596 101.118 203.596 101.116 203.594C101.119 203.596 101.119 203.596 101.122 203.597Z" fill="#401614"/>
<path d="M168.045 203.602C168.051 203.599 168.058 203.593 168.064 203.59C168.058 203.594 168.052 203.597 168.045 203.602ZM168.568 203.279C168.574 203.275 168.582 203.271 168.588 203.266C168.582 203.271 168.575 203.275 168.568 203.279Z" fill="#401614"/>
<path d="M155.973 207.139C155.806 207.139 155.638 207.137 155.472 207.133C154.636 207.113 153.819 207.04 153.024 206.922C141.584 205.238 134.587 194.282 134.587 194.282C134.587 194.282 127.589 205.24 116.149 206.922C115.354 207.04 114.536 207.113 113.7 207.133C113.534 207.137 113.367 207.139 113.2 207.139C109.836 207.139 106.145 206.299 102.189 204.194C101.854 204.017 101.519 203.83 101.18 203.634C101.171 203.628 101.161 203.623 101.151 203.617C101.149 203.616 101.147 203.614 101.144 203.613C101.137 203.608 101.128 203.604 101.121 203.598C101.118 203.597 101.118 203.597 101.115 203.595C95.7717 200.456 93.599 194.495 94.2936 187.854C94.8407 192.566 97.0893 196.585 101.18 198.958C101.609 199.207 102.035 199.441 102.457 199.661C102.211 200.289 102.526 201.162 103.405 201.162C103.889 201.162 104.201 200.899 104.345 200.556C105.664 201.122 106.951 201.549 108.203 201.854C106.913 201.936 106.937 203.982 108.283 203.982C109.435 203.982 109.621 202.481 108.84 201.999C110.345 202.319 111.801 202.464 113.2 202.464C115.208 202.464 117.102 202.165 118.868 201.659C118.964 202.09 119.297 202.458 119.868 202.458C120.73 202.458 121.051 201.619 120.832 200.993C122.207 200.456 123.491 199.802 124.682 199.081C124.838 199.19 125.038 199.257 125.282 199.257C126.039 199.257 126.379 198.606 126.298 198.023C127.517 197.166 128.614 196.257 129.582 195.365C129.621 195.368 129.66 195.37 129.7 195.37C130.407 195.37 130.751 194.805 130.73 194.256C133.227 191.733 134.587 189.606 134.587 189.606C134.587 189.606 135.944 191.733 138.443 194.256C138.422 194.805 138.766 195.37 139.472 195.37C139.512 195.37 139.552 195.368 139.589 195.365C140.557 196.257 141.654 197.166 142.873 198.023C142.794 198.606 143.134 199.257 143.893 199.257C144.135 199.257 144.334 199.192 144.491 199.081C145.682 199.803 146.966 200.458 148.341 200.995C148.121 201.619 148.443 202.458 149.304 202.458C149.875 202.458 150.209 202.09 150.303 201.659C152.071 202.166 153.964 202.464 155.973 202.464C157.371 202.464 158.826 202.319 160.333 201.999C159.551 202.481 159.738 203.982 160.888 203.982C162.236 203.982 162.26 201.934 160.969 201.854C162.22 201.549 163.506 201.122 164.827 200.555C164.97 200.899 165.284 201.162 165.766 201.162C166.646 201.162 166.962 200.289 166.715 199.661C167.137 199.441 167.564 199.207 167.992 198.958C172.082 196.585 174.332 192.566 174.879 187.854C175.545 194.222 173.576 199.965 168.7 203.194L168.698 203.196C168.689 203.202 168.681 203.206 168.674 203.212C168.671 203.213 168.668 203.214 168.665 203.217C168.659 203.222 168.654 203.225 168.647 203.229C168.644 203.232 168.641 203.233 168.637 203.236C168.622 203.246 168.608 203.255 168.594 203.265C168.592 203.265 168.591 203.266 168.588 203.267C168.582 203.272 168.574 203.276 168.568 203.28C168.566 203.282 168.566 203.282 168.565 203.283C168.403 203.388 168.237 203.489 168.069 203.588C168.067 203.59 168.065 203.591 168.064 203.591C168.058 203.594 168.051 203.6 168.045 203.603C168.041 203.604 168.038 203.607 168.034 203.61C168.028 203.613 168.024 203.616 168.019 203.618C168.009 203.623 168.001 203.628 167.992 203.634C167.654 203.83 167.317 204.017 166.984 204.194C163.027 206.301 159.337 207.139 155.973 207.139ZM154.182 202.998C153.402 202.998 153.404 204.207 154.182 204.207C154.961 204.207 154.959 202.998 154.182 202.998ZM114.99 202.998C114.214 202.998 114.212 204.207 114.99 204.207C115.768 204.207 115.769 202.998 114.99 202.998Z" fill="#BC9C8E"/>
<path d="M115.641 170.87C114.267 170.87 114.269 168.738 115.641 168.738C117.015 168.738 117.012 170.87 115.641 170.87Z" fill="#BC9C8E"/>
<path d="M120.314 174.54C118.94 174.54 118.942 172.408 120.314 172.408C121.687 172.408 121.686 174.54 120.314 174.54Z" fill="#BC9C8E"/>
<path d="M114.973 175.875C113.6 175.875 113.603 173.744 114.973 173.744C116.348 173.744 116.345 175.875 114.973 175.875Z" fill="#BC9C8E"/>
<path d="M122.982 180.213C121.608 180.213 121.61 178.08 122.982 178.08C124.355 178.08 124.352 180.213 122.982 180.213Z" fill="#BC9C8E"/>
<path d="M117.81 180.296C116.437 180.296 116.44 178.165 117.81 178.165C119.185 178.165 119.182 180.296 117.81 180.296Z" fill="#BC9C8E"/>
<path d="M114.556 184.552C113.183 184.552 113.186 182.421 114.556 182.421C115.93 182.421 115.928 184.552 114.556 184.552Z" fill="#BC9C8E"/>
<path d="M120.314 184.802C118.94 184.802 118.942 182.669 120.314 182.669C121.687 182.669 121.686 184.802 120.314 184.802Z" fill="#BC9C8E"/>
<path d="M117.81 189.808C116.437 189.808 116.44 187.677 117.81 187.677C119.185 187.677 119.182 189.808 117.81 189.808Z" fill="#BC9C8E"/>
<path d="M124.068 185.802C122.695 185.802 122.697 183.671 124.068 183.671C125.443 183.671 125.44 185.802 124.068 185.802Z" fill="#BC9C8E"/>
<path d="M127.071 182.298C125.696 182.298 125.699 180.167 127.071 180.167C128.445 180.167 128.442 182.298 127.071 182.298Z" fill="#BC9C8E"/>
<path d="M125.569 176.543C124.195 176.543 124.197 174.41 125.569 174.41C126.942 174.41 126.941 176.543 125.569 176.543Z" fill="#BC9C8E"/>
<path d="M110.302 173.537C108.929 173.537 108.93 171.406 110.302 171.406C111.675 171.406 111.674 173.537 110.302 173.537Z" fill="#BC9C8E"/>
<path d="M111.053 169.284C109.68 169.284 109.681 167.152 111.053 167.152C112.426 167.152 112.424 169.284 111.053 169.284Z" fill="#BC9C8E"/>
<path d="M106.047 172.287C104.674 172.287 104.675 170.156 106.047 170.156C107.421 170.156 107.418 172.287 106.047 172.287Z" fill="#BC9C8E"/>
<path d="M110.552 180.796C109.179 180.796 109.18 178.665 110.552 178.665C111.925 178.665 111.924 180.796 110.552 180.796Z" fill="#BC9C8E"/>
<path d="M105.296 179.295C103.924 179.295 103.924 177.164 105.296 177.164C106.671 177.164 106.669 179.295 105.296 179.295Z" fill="#BC9C8E"/>
<path d="M101.292 178.545C99.9169 178.545 99.9198 176.412 101.292 176.412C102.665 176.412 102.662 178.545 101.292 178.545Z" fill="#BC9C8E"/>
<path d="M113.303 188.305C111.93 188.305 111.933 186.174 113.303 186.174C114.678 186.174 114.675 188.305 113.303 188.305Z" fill="#BC9C8E"/>
<path d="M108.298 186.804C106.924 186.804 106.927 184.671 108.298 184.671C109.672 184.671 109.67 186.804 108.298 186.804Z" fill="#BC9C8E"/>
<path d="M103.293 186.053C101.919 186.053 101.922 183.922 103.293 183.922C104.668 183.922 104.665 186.053 103.293 186.053Z" fill="#BC9C8E"/>
<path d="M98.0368 186.303C96.6634 186.303 96.6662 184.172 98.0368 184.172C99.4117 184.172 99.4089 186.303 98.0368 186.303Z" fill="#BC9C8E"/>
<path d="M98.7557 194.302C97.3808 194.302 97.3837 192.171 98.7557 192.171C100.129 192.171 100.126 194.302 98.7557 194.302Z" fill="#BC9C8E"/>
<path d="M102.949 193.388C101.575 193.388 101.576 191.255 102.949 191.255C104.322 191.255 104.321 193.388 102.949 193.388Z" fill="#BC9C8E"/>
<path d="M107.52 192.396C106.146 192.396 106.148 190.265 107.52 190.265C108.893 190.265 108.89 192.396 107.52 192.396Z" fill="#BC9C8E"/>
<path d="M112.476 192.016C111.102 192.016 111.104 189.885 112.476 189.885C113.849 189.885 113.848 192.016 112.476 192.016Z" fill="#BC9C8E"/>
<path d="M104.344 200.556C103.721 200.288 103.093 199.99 102.456 199.661C102.595 199.307 102.912 199.03 103.404 199.03C104.294 199.03 104.607 199.926 104.344 200.556Z" fill="#BC9C8E"/>
<path d="M103.406 201.161C102.527 201.161 102.212 200.288 102.458 199.66C103.095 199.99 103.723 200.288 104.346 200.555C104.202 200.898 103.89 201.161 103.406 201.161Z" fill="#B08D7E"/>
<path d="M107.369 198.646C105.996 198.646 105.997 196.515 107.369 196.515C108.743 196.515 108.74 198.646 107.369 198.646Z" fill="#BC9C8E"/>
<path d="M112.476 196.97C111.102 196.97 111.104 194.839 112.476 194.839C113.849 194.839 113.848 196.97 112.476 196.97Z" fill="#BC9C8E"/>
<path d="M117.888 194.226C116.513 194.226 116.517 192.095 117.888 192.095C119.261 192.095 119.259 194.226 117.888 194.226Z" fill="#BC9C8E"/>
<path d="M123.527 189.958C122.154 189.958 122.156 187.827 123.527 187.827C124.901 187.827 124.899 189.958 123.527 189.958Z" fill="#BC9C8E"/>
<path d="M128.709 186.833C127.336 186.833 127.337 184.702 128.709 184.702C130.083 184.702 130.081 186.833 128.709 186.833Z" fill="#BC9C8E"/>
<path d="M130.463 190.416C129.089 190.416 129.092 188.283 130.463 188.283C131.838 188.283 131.835 190.416 130.463 190.416Z" fill="#BC9C8E"/>
<path d="M125.739 194.454C124.364 194.454 124.367 192.323 125.739 192.323C127.113 192.323 127.11 194.454 125.739 194.454Z" fill="#BC9C8E"/>
<path d="M121.316 197.429C119.941 197.429 119.944 195.296 121.316 195.296C122.69 195.296 122.687 197.429 121.316 197.429Z" fill="#BC9C8E"/>
<path d="M116.513 200.019C115.141 200.019 115.142 197.887 116.513 197.887C117.888 197.887 117.886 200.019 116.513 200.019Z" fill="#BC9C8E"/>
<path d="M111.713 201.749C110.665 201.749 110.667 200.121 111.713 200.121C112.762 200.121 112.76 201.749 111.713 201.749Z" fill="#BC9C8E"/>
<path d="M108.839 201.997C108.627 201.953 108.416 201.904 108.202 201.852C108.229 201.851 108.255 201.85 108.282 201.85C108.504 201.85 108.689 201.905 108.839 201.997Z" fill="#BC9C8E"/>
<path d="M108.283 203.981C106.937 203.981 106.913 201.935 108.203 201.853C108.416 201.905 108.628 201.953 108.84 201.998C109.621 202.481 109.435 203.981 108.283 203.981Z" fill="#B08D7E"/>
<path d="M114.991 204.207C114.213 204.207 114.215 202.998 114.991 202.998C115.77 202.998 115.769 204.207 114.991 204.207Z" fill="#B08D7E"/>
<path d="M118.868 201.659C118.733 201.053 119.068 200.327 119.867 200.327C120.38 200.327 120.701 200.622 120.831 200.993C120.195 201.242 119.541 201.466 118.868 201.659Z" fill="#BC9C8E"/>
<path d="M119.868 202.458C119.296 202.458 118.964 202.09 118.868 201.659C119.541 201.465 120.196 201.242 120.832 200.993C121.051 201.619 120.73 202.458 119.868 202.458Z" fill="#B08D7E"/>
<path d="M124.682 199.08C123.951 198.569 124.153 197.125 125.283 197.125C125.896 197.125 126.235 197.55 126.299 198.022C125.782 198.385 125.242 198.741 124.682 199.08Z" fill="#BC9C8E"/>
<path d="M125.282 199.257C125.038 199.257 124.838 199.19 124.682 199.081C125.242 198.741 125.782 198.386 126.299 198.022C126.379 198.605 126.039 199.257 125.282 199.257Z" fill="#B08D7E"/>
<path d="M129.582 195.364C128.329 195.245 128.371 193.237 129.7 193.237C130.367 193.237 130.71 193.739 130.73 194.256C130.37 194.618 129.988 194.99 129.582 195.364Z" fill="#BC9C8E"/>
<path d="M129.699 195.37C129.659 195.37 129.621 195.367 129.582 195.364C129.987 194.991 130.37 194.618 130.729 194.256C130.751 194.804 130.407 195.37 129.699 195.37Z" fill="#B08D7E"/>
<path d="M127.111 190.338C125.736 190.338 125.739 188.207 127.111 188.207C128.485 188.207 128.482 190.338 127.111 190.338Z" fill="#BC9C8E"/>
<path d="M130.845 182.64C129.472 182.64 129.473 180.509 130.845 180.509C132.218 180.509 132.216 182.64 130.845 182.64Z" fill="#BC9C8E"/>
<path d="M130.463 177.306C129.089 177.306 129.092 175.173 130.463 175.173C131.838 175.173 131.835 177.306 130.463 177.306Z" fill="#BC9C8E"/>
<path d="M124.289 171.513C122.915 171.513 122.918 169.382 124.289 169.382C125.662 169.382 125.661 171.513 124.289 171.513Z" fill="#BC9C8E"/>
<path d="M119.183 170.446C117.809 170.446 117.811 168.314 119.183 168.314C120.556 168.314 120.553 170.446 119.183 170.446Z" fill="#BC9C8E"/>
<path d="M115.295 165.644C113.921 165.644 113.924 163.511 115.295 163.511C116.67 163.511 116.667 165.644 115.295 165.644Z" fill="#BC9C8E"/>
<path d="M153.532 170.87C152.16 170.87 152.157 168.738 153.532 168.738C154.903 168.738 154.906 170.87 153.532 170.87Z" fill="#BC9C8E"/>
<path d="M148.86 174.54C147.488 174.54 147.485 172.408 148.86 172.408C150.232 172.408 150.232 174.54 148.86 174.54Z" fill="#BC9C8E"/>
<path d="M154.199 175.875C152.826 175.875 152.825 173.744 154.199 173.744C155.569 173.744 155.572 175.875 154.199 175.875Z" fill="#BC9C8E"/>
<path d="M146.188 180.213C144.818 180.213 144.815 178.08 146.188 178.08C147.56 178.08 147.563 180.213 146.188 180.213Z" fill="#BC9C8E"/>
<path d="M151.362 180.296C149.991 180.296 149.989 178.165 151.362 178.165C152.734 178.165 152.737 180.296 151.362 180.296Z" fill="#BC9C8E"/>
<path d="M154.616 184.552C153.244 184.552 153.243 182.421 154.616 182.421C155.988 182.421 155.99 184.552 154.616 184.552Z" fill="#BC9C8E"/>
<path d="M148.86 184.802C147.488 184.802 147.485 182.669 148.86 182.669C150.232 182.669 150.232 184.802 148.86 184.802Z" fill="#BC9C8E"/>
<path d="M151.362 189.808C149.991 189.808 149.989 187.677 151.362 187.677C152.734 187.677 152.737 189.808 151.362 189.808Z" fill="#BC9C8E"/>
<path d="M145.105 185.802C143.733 185.802 143.731 183.671 145.105 183.671C146.477 183.671 146.478 185.802 145.105 185.802Z" fill="#BC9C8E"/>
<path d="M142.101 182.298C140.731 182.298 140.728 180.167 142.101 180.167C143.473 180.167 143.476 182.298 142.101 182.298Z" fill="#BC9C8E"/>
<path d="M143.604 176.543C142.234 176.543 142.231 174.41 143.604 174.41C144.976 174.41 144.978 176.543 143.604 176.543Z" fill="#BC9C8E"/>
<path d="M158.871 173.537C157.5 173.537 157.497 171.406 158.871 171.406C160.243 171.406 160.244 173.537 158.871 173.537Z" fill="#BC9C8E"/>
<path d="M158.119 169.284C156.748 169.284 156.745 167.152 158.119 167.152C159.491 167.152 159.494 169.284 158.119 169.284Z" fill="#BC9C8E"/>
<path d="M163.125 172.287C161.754 172.287 161.751 170.156 163.125 170.156C164.497 170.156 164.5 172.287 163.125 172.287Z" fill="#BC9C8E"/>
<path d="M158.621 180.796C157.25 180.796 157.247 178.665 158.621 178.665C159.993 178.665 159.996 180.796 158.621 180.796Z" fill="#BC9C8E"/>
<path d="M163.876 179.295C162.505 179.295 162.502 177.164 163.876 177.164C165.248 177.164 165.249 179.295 163.876 179.295Z" fill="#BC9C8E"/>
<path d="M167.881 178.545C166.51 178.545 166.507 176.412 167.881 176.412C169.253 176.412 169.255 178.545 167.881 178.545Z" fill="#BC9C8E"/>
<path d="M155.866 188.305C154.494 188.305 154.493 186.174 155.866 186.174C157.237 186.174 157.24 188.305 155.866 188.305Z" fill="#BC9C8E"/>
<path d="M160.872 186.804C159.5 186.804 159.499 184.671 160.872 184.671C162.243 184.671 162.246 186.804 160.872 186.804Z" fill="#BC9C8E"/>
<path d="M165.878 186.053C164.506 186.053 164.505 183.922 165.878 183.922C167.249 183.922 167.252 186.053 165.878 186.053Z" fill="#BC9C8E"/>
<path d="M171.133 186.303C169.761 186.303 169.76 184.172 171.133 184.172C172.504 184.172 172.507 186.303 171.133 186.303Z" fill="#BC9C8E"/>
<path d="M170.416 194.302C169.044 194.302 169.041 192.171 170.416 192.171C171.786 192.171 171.789 194.302 170.416 194.302Z" fill="#BC9C8E"/>
<path d="M166.223 193.388C164.852 193.388 164.851 191.255 166.223 191.255C167.595 191.255 167.596 193.388 166.223 193.388Z" fill="#BC9C8E"/>
<path d="M161.65 192.396C160.28 192.396 160.277 190.265 161.65 190.265C163.022 190.265 163.025 192.396 161.65 192.396Z" fill="#BC9C8E"/>
<path d="M156.696 192.016C155.324 192.016 155.322 189.885 156.696 189.885C158.068 189.885 158.069 192.016 156.696 192.016Z" fill="#BC9C8E"/>
<path d="M164.827 200.554C164.565 199.924 164.877 199.03 165.766 199.03C166.261 199.03 166.577 199.306 166.715 199.66C166.08 199.989 165.449 200.287 164.827 200.554Z" fill="#BC9C8E"/>
<path d="M165.767 201.161C165.284 201.161 164.97 200.898 164.827 200.554C165.449 200.288 166.08 199.99 166.715 199.66C166.963 200.288 166.646 201.161 165.767 201.161Z" fill="#B08D7E"/>
<path d="M161.803 198.646C160.433 198.646 160.43 196.515 161.803 196.515C163.175 196.515 163.178 198.646 161.803 198.646Z" fill="#BC9C8E"/>
<path d="M156.696 196.97C155.324 196.97 155.322 194.839 156.696 194.839C158.068 194.839 158.069 196.97 156.696 196.97Z" fill="#BC9C8E"/>
<path d="M151.284 194.226C149.912 194.226 149.911 192.095 151.284 192.095C152.655 192.095 152.658 194.226 151.284 194.226Z" fill="#BC9C8E"/>
<path d="M145.644 189.958C144.272 189.958 144.27 187.827 145.644 187.827C147.016 187.827 147.017 189.958 145.644 189.958Z" fill="#BC9C8E"/>
<path d="M140.462 186.833C139.091 186.833 139.088 184.702 140.462 184.702C141.834 184.702 141.835 186.833 140.462 186.833Z" fill="#BC9C8E"/>
<path d="M138.71 190.416C137.338 190.416 137.337 188.283 138.71 188.283C140.081 188.283 140.084 190.416 138.71 190.416Z" fill="#BC9C8E"/>
<path d="M143.435 194.454C142.063 194.454 142.06 192.323 143.435 192.323C144.806 192.323 144.809 194.454 143.435 194.454Z" fill="#BC9C8E"/>
<path d="M147.854 197.429C146.484 197.429 146.481 195.296 147.854 195.296C149.226 195.296 149.229 197.429 147.854 197.429Z" fill="#BC9C8E"/>
<path d="M152.657 200.019C151.285 200.019 151.282 197.887 152.657 197.887C154.028 197.887 154.031 200.019 152.657 200.019Z" fill="#BC9C8E"/>
<path d="M157.459 201.749C156.412 201.749 156.41 200.121 157.459 200.121C158.507 200.121 158.508 201.749 157.459 201.749Z" fill="#BC9C8E"/>
<path d="M160.334 201.997C160.483 201.904 160.669 201.85 160.89 201.85C160.917 201.85 160.943 201.851 160.97 201.852C160.758 201.904 160.545 201.953 160.334 201.997Z" fill="#BC9C8E"/>
<path d="M160.889 203.981C159.738 203.981 159.551 202.481 160.333 201.998C160.543 201.953 160.757 201.905 160.969 201.853C162.261 201.933 162.236 203.981 160.889 203.981Z" fill="#B08D7E"/>
<path d="M154.181 204.207C153.404 204.207 153.402 202.998 154.181 202.998C154.959 202.998 154.961 204.207 154.181 204.207Z" fill="#B08D7E"/>
<path d="M150.304 201.659C149.632 201.466 148.976 201.242 148.342 200.995C148.472 200.622 148.793 200.327 149.304 200.327C150.105 200.327 150.438 201.053 150.304 201.659Z" fill="#BC9C8E"/>
<path d="M149.302 202.458C148.441 202.458 148.119 201.619 148.34 200.994C148.974 201.242 149.63 201.465 150.302 201.659C150.207 202.09 149.874 202.458 149.302 202.458Z" fill="#B08D7E"/>
<path d="M144.491 199.08C143.931 198.741 143.391 198.385 142.873 198.022C142.937 197.55 143.277 197.125 143.893 197.125C145.021 197.125 145.222 198.57 144.491 199.08Z" fill="#BC9C8E"/>
<path d="M143.893 199.257C143.134 199.257 142.795 198.605 142.873 198.022C143.392 198.386 143.932 198.741 144.492 199.081C144.334 199.191 144.135 199.257 143.893 199.257Z" fill="#B08D7E"/>
<path d="M139.59 195.364C139.185 194.99 138.802 194.62 138.444 194.256C138.463 193.74 138.807 193.237 139.473 193.237C140.802 193.237 140.845 195.245 139.59 195.364Z" fill="#BC9C8E"/>
<path d="M139.472 195.37C138.766 195.37 138.422 194.804 138.443 194.256C138.801 194.62 139.184 194.991 139.589 195.364C139.552 195.367 139.512 195.37 139.472 195.37Z" fill="#B08D7E"/>
<path d="M142.063 190.338C140.691 190.338 140.688 188.207 142.063 188.207C143.434 188.207 143.437 190.338 142.063 190.338Z" fill="#BC9C8E"/>
<path d="M138.328 182.64C136.957 182.64 136.954 180.509 138.328 180.509C139.7 180.509 139.703 182.64 138.328 182.64Z" fill="#BC9C8E"/>
<path d="M138.71 177.306C137.338 177.306 137.337 175.173 138.71 175.173C140.081 175.173 140.084 177.306 138.71 177.306Z" fill="#BC9C8E"/>
<path d="M144.882 171.513C143.51 171.513 143.509 169.382 144.882 169.382C146.254 169.382 146.256 171.513 144.882 171.513Z" fill="#BC9C8E"/>
<path d="M149.99 170.446C148.619 170.446 148.616 168.314 149.99 168.314C151.362 168.314 151.365 170.446 149.99 170.446Z" fill="#BC9C8E"/>
<path d="M153.877 165.644C152.505 165.644 152.502 163.511 153.877 163.511C155.247 163.511 155.25 165.644 153.877 165.644Z" fill="#BC9C8E"/>
<path d="M70.8971 214.517C83.8325 203.705 97.8277 197.975 113.739 193.054C114.233 192.901 114.014 192.239 113.532 192.303C97.6015 194.445 82.2886 203.525 70.6894 214.309C70.5519 214.439 70.7539 214.634 70.8971 214.517Z" fill="#451816"/>
<path d="M74.3231 199.328C85.7103 191.554 97.4484 189.446 110.974 189.619C111.494 189.627 111.64 188.774 111.1 188.689C98.05 186.588 84.5488 191.295 74.1627 199.055C74.0037 199.173 74.1512 199.444 74.3231 199.328Z" fill="#451816"/>
<path d="M63.213 191.424C76.1298 181.389 94.8383 179.712 110.294 183.039C110.915 183.172 111.132 182.323 110.552 182.099C96.0099 176.514 74.6547 181.101 62.9724 191.184C62.8034 191.33 63.0454 191.556 63.213 191.424Z" fill="#451816"/>
<path d="M89.2362 174.046C98.3191 172.434 106.405 174.039 114.395 178.538C114.988 178.873 115.477 178.009 114.922 177.634C107.406 172.534 97.815 171.203 89.126 173.648C88.8653 173.721 88.977 174.092 89.2362 174.046Z" fill="#451816"/>
<path d="M71.8811 207.222C80.5716 199.581 90.3433 195.494 101.48 192.784C102.011 192.655 101.772 191.912 101.259 191.985C90.1342 193.593 79.8941 199.515 71.7852 207.127L71.8811 207.222Z" fill="#451816"/>
<path d="M67.6478 195.198C80.1866 187.825 93.1664 184.942 107.624 185.495C108.227 185.518 108.197 184.645 107.624 184.577C93.5287 182.919 79.1138 186.927 67.5361 195.005L67.6478 195.198Z" fill="#451816"/>
<path d="M80.6708 179.753C91.3233 176.134 101.682 176.893 112.392 179.627C112.908 179.76 113.074 179.041 112.605 178.851C102.192 174.606 90.9295 175.713 80.665 179.731L80.6708 179.753Z" fill="#451816"/>
<path d="M198.871 214.309C187.275 203.526 171.958 194.445 156.031 192.303C155.548 192.239 155.329 192.901 155.824 193.054C171.733 197.973 185.733 203.708 198.665 214.517C198.807 214.634 199.012 214.439 198.871 214.309Z" fill="#451816"/>
<path d="M195.4 199.055C185.014 191.295 171.514 186.588 158.463 188.689C157.928 188.774 158.063 189.627 158.587 189.619C172.114 189.446 183.852 191.554 195.239 199.328C195.41 199.444 195.56 199.173 195.4 199.055Z" fill="#451816"/>
<path d="M206.592 191.184C194.919 181.11 173.558 176.512 159.011 182.099C158.434 182.321 158.647 183.172 159.272 183.039C174.708 179.716 193.444 181.396 206.352 191.424C206.519 191.556 206.761 191.33 206.592 191.184Z" fill="#451816"/>
<path d="M180.439 173.648C171.75 171.203 162.159 172.534 154.643 177.634C154.09 178.009 154.577 178.873 155.171 178.538C163.16 174.039 171.254 172.435 180.33 174.046C180.588 174.092 180.701 173.721 180.439 173.648Z" fill="#451816"/>
<path d="M197.78 207.127C189.671 199.515 179.433 193.595 168.306 191.985C167.794 191.912 167.553 192.654 168.084 192.784C179.222 195.494 188.994 199.581 197.685 207.222L197.78 207.127Z" fill="#451816"/>
<path d="M202.029 195.005C190.45 186.927 176.037 182.919 161.939 184.577C161.369 184.645 161.334 185.518 161.939 185.495C176.399 184.942 189.378 187.825 201.915 195.198L202.029 195.005Z" fill="#451816"/>
<path d="M188.897 179.731C178.637 175.713 167.363 174.609 156.957 178.851C156.49 179.041 156.655 179.76 157.17 179.627C167.879 176.893 178.255 176.14 188.891 179.753L188.897 179.731Z" fill="#451816"/>
<path d="M151.122 156.714C146.579 149.136 123.402 149.136 118.859 156.714C114.316 164.29 124.144 171.158 134.99 171.988C145.837 171.158 155.663 164.29 151.122 156.714Z" fill="#451816"/>
<path d="M122.273 158.272C129.146 154.18 138.87 155.104 146.13 157.628C146.713 157.831 147.061 156.947 146.543 156.647C139.939 152.798 128.015 153.032 121.961 157.868C121.729 158.052 122.027 158.418 122.273 158.272Z" fill="#AD836D"/>
<path d="M135.66 194.711C135.66 185.632 135.66 176.554 135.66 167.475C135.66 166.093 133.512 166.09 133.512 167.475C133.512 176.554 133.512 185.632 133.512 194.711C133.512 196.093 135.66 196.094 135.66 194.711Z" fill="#451816"/>
<path d="M133.657 195.083C141.728 206.25 155.885 213.31 168.534 204.56C169.664 203.779 168.59 201.916 167.45 202.705C155.882 210.706 142.952 204.293 135.512 194C134.711 192.89 132.845 193.96 133.657 195.083Z" fill="#451816"/>
<path d="M133.499 194.001C126.058 204.295 113.137 210.713 101.562 202.705C100.422 201.916 99.3469 203.778 100.478 204.56C113.123 213.308 127.284 206.249 135.355 195.083C136.165 193.962 134.302 192.889 133.499 194.001Z" fill="#451816"/>
</g>
</svg>
